<svg id="ROOMS_LOGOS" data-name="ROOMS LOGOS" xmlns="http://www.w3.org/2000/svg" viewBox="0 0 28.35 22.68"><defs><style>.cls-1{fill:#fff;}</style></defs><title>THE ABANDONED</title><g id="ASYLUM"><path class="cls-1" d="M26.78,6.81c0,.71-.07,1.44-.1,2.17s-.06,1.19-.12,1.78a1,1,0,0,1-.22.49c-.43.47-.89.91-1.37,1.4.55.25,1.06.5,1.58.72a.63.63,0,0,1,.31.87.62.62,0,0,0-.05.36,1.12,1.12,0,0,1-.41,1.15.81.81,0,0,1-1,.09,10.09,10.09,0,0,1-.93-.78l-4.25,4.5c.22.13.44.26.67.38a.68.68,0,0,1,.25.85.8.8,0,0,0-.09.42,1.12,1.12,0,0,1-.51,1.11.93.93,0,0,1-1.07,0,1.64,1.64,0,0,1-.69-2L4.42,15.93c0,.14,0,.23,0,.32a.8.8,0,0,1-.27.78.77.77,0,0,1-.92.12,1.62,1.62,0,0,1-.73-1.73l-.1,0a2.85,2.85,0,0,1-.15-.69c0-.08.27-.15.42-.23a1.19,1.19,0,0,0,.15-.09l2.67-1.9s0,0,.08-.1L3.22,11.1,2,10.43a.32.32,0,0,1-.13-.24c-.1-1-.18-2-.27-3-.06-.69-.1-1.38-.18-2.06,0-.25,0-.4.24-.48s.18-.09.28-.13c.27-.1.46-.22.43-.61a.68.68,0,0,1,.48-.67L8.49.56,9.05.29A.79.79,0,0,1,10.16.5c.9,1,1.79,1.9,2.69,2.84.54.57,1.06,1.14,1.61,1.69a.71.71,0,0,0,.47.2c1.34,0,2.69,0,4,0a1.48,1.48,0,0,1,.59.12c1.56.63,3.12,1.28,4.67,1.93.25.1.45.14.63-.1L25,7.07C25.51,6.38,26.12,6.55,26.78,6.81ZM20.66,14.6,15.22,13,3,9.55c-.19-.05-.34-.1-.36-.38C2.57,8,2.47,6.8,2.37,5.61c0-.28-.05-.55.29-.67l-.21-.29a3.08,3.08,0,0,1-.38.16c-.29.08-.37.24-.34.57q.21,2.24.36,4.47c0,.3.17.37.4.43L19.7,15.35l1.73.5v-.42c0-1.17.07-2.35.09-3.53a.77.77,0,0,1,.28-.62c1-.88,2-1.78,2.94-2.67L26.47,7a1,1,0,0,0-1.15.13c-1.47,1.35-3,2.65-4.46,4a.71.71,0,0,0-.19.46C20.65,12.57,20.66,13.55,20.66,14.6Zm-.18-1.28a1,1,0,0,0-.65-.86c-2-.92-4-1.85-6-2.76a1.7,1.7,0,0,0-.59-.14C11.84,9.5,10.41,9.44,9,9.4a.85.85,0,0,1-.68-.32C6.76,7.37,5.2,5.67,3.64,4a2.24,2.24,0,0,0-.36-.33A.38.38,0,0,0,2.65,4a1.53,1.53,0,0,0,.29.82c1.75,2,3.51,3.88,5.28,5.81a.57.57,0,0,0,.38.18l4,.24a4,4,0,0,1,1.24.17c1.11.47,2.18,1,3.28,1.53l2.52,1.19C20.09,14.12,20.47,13.87,20.48,13.32Zm3.89.62a.5.5,0,0,0-.76.08c-.59.63-1.21,1.22-1.79,1.85a.57.57,0,0,1-.75.19,5,5,0,0,0-.95-.28,9.16,9.16,0,0,0-1.92-.42c-1.77-.06-3.55,0-5.32,0h-.35l.23.18L19.22,19a.28.28,0,0,0,.41-.08c.78-.85,1.56-1.69,2.36-2.53S23.56,14.78,24.37,13.94ZM5.54,15.32v.07l11.32,3.37c0-.09,0-.11,0-.12L11,15.39a.63.63,0,0,0-.26-.07Zm10.16-.75V14.5a.6.6,0,0,0-.11-.06c-2.65-.78-5.3-1.55-7.94-2.34-.28-.08-.44.05-.61.26,1.17.65,2.33,1.27,3.47,1.92a2.13,2.13,0,0,0,1.2.3c.73,0,1.46,0,2.19,0Zm-11.83,0H9.34c-1-.61-1.93-1.15-2.91-1.68a.26.26,0,0,0-.24,0Zm16.28,6.9c0-.4-.3-.73-.55-.67a.44.44,0,0,0-.27.32c0,.27.31.63.54.58S20.09,21.52,20.15,21.47ZM26,15c0-.38-.3-.74-.55-.69a.46.46,0,0,0-.28.31c0,.27.28.62.53.58S25.88,15.06,26,15ZM3.67,16.39c0-.36-.27-.69-.45-.63A.4.4,0,0,0,3,16c0,.27.26.59.45.54S3.64,16.43,3.67,16.39Zm2-4.87c.55.44.63.47.85.25Z"/><path class="cls-1" d="M5.66,11.52l.85.25C6.29,12,6.21,12,5.66,11.52Z"/></g></svg>