<?xml version="1.0" encoding="utf-8"?>
<!-- Generator: Adobe Illustrator 25.1.0, SVG Export Plug-In . SVG Version: 6.00 Build 0)  -->
<svg version="1.1" xmlns="http://www.w3.org/2000/svg" xmlns:xlink="http://www.w3.org/1999/xlink" x="0px" y="0px"
	 viewBox="0 0 100 100" style="enable-background:new 0 0 100 100;" xml:space="preserve">
<style type="text/css">
	.st0{fill:#FFFFFF;}
</style>
<g id="Layer_1">
</g>
<g id="GUIDES">
	<g>
		<g>
			<g>
				<path class="st0" d="M83.6,65.2c-0.7,1.5-1.2,1.7-2.6,0.8c-0.6,0.5-1.3,0.8-2,0.2c-0.1-0.1-0.4,0-0.6,0.1
					c-0.7,0.5-1.3,0.4-1.8-0.3c-0.5-0.7-0.9-0.4-1.2,0.1c-0.9,1.3-1.7,2.7-2.6,4c-1.7,2.6-3.7,4.9-6,6.9c-3.8,3.2-7.9,5.5-12.9,6.1
					c-1.6,0.2-2.2,1.1-2.1,2.7c0.2,2.2,2.4,7.7,2.4,7.7l-10,0c0,0,2.3-5.8,2.4-8.2c0.1-1.3-0.5-2-1.8-2.4c-1.7-0.6-3.6-1.1-5.1-2
					c-2.1-1.2-4-2.6-5.8-4.2c-3.3-3-6.4-6.2-9.6-9.2c-3.8-3.5-9.8-6.3-13.3-6.6c-3.6-0.3-4,0.2-5.7,0.2c-0.7,0-0.7-0.6-0.4-1
					c1.1-1.6,2.3-3.1,4.1-4c0.3-0.1,0.7-0.1,1,0c2.7,0.6,5.3,1.7,7.8,3.1c3.3,1.9,6.6,3.7,10,5.5c6.5,3.5,13.2,4.9,19.2,5.1
					c5.1,0.2,10.1-0.6,14.9-2.5c4.7-1.9,8.6-4.9,12.2-8.4c1.4-1.4,2.6-2.9,4-4.2c2.5-2.4,5.5-4.1,9-4.4c1.7-0.2,3.4-0.1,5.1,0.1
					c4,0.6,6.9,3.5,7.8,7.5c0.9,3.9-0.5,7.9-3.5,10c-3.2,2.2-9.1,2.4-12-2C84.1,65.7,83.9,65.5,83.6,65.2z M83.4,62.3
					c1-1.9,2.3-2.7,3.7-1.8c0.6,0.4,1.2,1.1,1.4,1.7c0.6,1.5-0.1,2.8-1.5,3.9c1,0.4,1.7,0.7,2.4,0.9c4.3,1.1,7.8-1.6,7.8-6
					c0-0.7-0.1-1.5-0.2-2.2c-0.9-4.1-3.6-5.5-7-5.3c-5.8,0.3-9.3,4.1-12.2,8.9c0.5,0.2,1,0.5,1.2,0.4c0.7-0.4,1.3-0.5,1.9,0
					c0.1,0.1,0.3,0,0.5,0C81.9,62.6,82.5,62.5,83.4,62.3z"/>
				<path class="st0" d="M46.6,55.3c2.9,0,5.8,0,8.7,0c1.5,0,1.7,0.4,1.3,1.9c-0.1,0.3,0.2,0.8,0.5,1c1.9,1.2,3.9,1.6,6.1,1.8
					c3.5,0.3,6.5-1,9-3.3c0.8-0.7,1.6-1.4,2.5-2.1c0.4-0.3,2.9-1.4,3-1.3c-0.6,0.9-2.5,2.7-3.2,3.4c-1,0.9-1.7,2-2.8,2.8
					c-1.1,0.9-2.1,1.8-3.2,2.6c-1.1,0.8-2.3,1.6-3.5,2.3c-2.6,1.5-5.5,2.5-8.4,3.3c-7.5,1.9-14.8,1.2-22-1c-0.6-0.2-2.6-1-3-1.2
					c-1.1-0.5-2.1-1.1-3.1-1.7c-1.9-1-3.8-1.9-5.7-2.9c-3.3-1.7-8.3-4.3-9.8-5c-1.5-0.7-2.8-0.7-3.1-1.4c-0.3-0.7,0.3-0.9,0.8-0.8
					c1.5,0.1,3,0.1,4.3,0.6c3.2,1.2,6.2,2.6,9.3,4c3.5,1.6,7.2,2.3,11,1.8c0.4,0,3.6-1.1,4.8-1.7c0.7-0.4,1.1-0.8,0.5-1.6
					c-0.5-0.7-0.1-1.5,0.8-1.5c1.1-0.1,2.1-0.1,3.2,0"/>
				<path class="st0" d="M44.9,54.4c0.2-0.4,0.3-0.7,0.4-1c0.2-0.6,0-0.9-0.6-0.9c-0.7,0-1.4-0.2-1.3-1c0-0.8,0.7-1,1.5-1
					c0.7,0,1.6,0.3,1.9-0.6c0.3-0.9,0.1-1.8-0.5-2.5c-0.9-1.2-0.9-2.6,0.1-3.8c0.3-0.4,2.1-4.7,2.4-4.7c0.6,0,1.8,4.2,2.8,5.4
					c0.8,0.9,0.3,2.1-0.2,3.1c-0.7,1.2-0.8,1.8-0.4,3.2c0.8,0,1.5-0.1,2.3,0c0.3,0.1,0.8,0.5,0.9,0.9c0.1,0.3-0.3,0.8-0.6,1
					c-0.4,0.3-1.1,0.2-1.2,0.5c-0.2,0.4,0.1,0.9,0.3,1.5C49.9,54.4,47.5,54.4,44.9,54.4z"/>
			</g>
			<path class="st0" d="M61.6,99.9H35.8v-0.7c0-2.6,2.1-4.8,4.8-4.8h16.2c2.6,0,4.8,2.1,4.8,4.8V99.9z"/>
		</g>
		<path class="st0" d="M22.2,5.9c0.6,2.2,2.3,3.9,4.3,4.7c2,0.8,4.3,0.9,6.5,0.7c4.4-0.4,8.6-2,12.7-3.8c4.1-1.8,8.2-3.8,12.6-5.3
			c4.4-1.5,9.1-2.4,13.9-2.2c4.9,0.2,9.6,1.8,13.7,4.3C90,7,93.6,10.3,96.2,14.5c1.3,2.2,2.2,4.6,2.6,7.1c0.4,2.6,0.1,5.3-0.9,7.8
			c-2,5-6.5,8.4-11.3,10c-4.8,1.5-9.7,1.4-14.3,1.2c-4.6-0.3-9.3-1-13.8-2.1c-9.1-2.2-17.3-6.2-25.8-8.7c-4.2-1.2-8.6-2.1-12.9-2.1
			c-4.3,0-8.7,0.7-12.4,2.9C5.7,31.7,4.1,33.2,3,35c-1.1,1.8-1.7,3.9-1.8,6.1c-0.3,4.3,0.9,9,4.2,12.2C1.8,50.5,0,45.7,0,41.1
			c0-2.3,0.4-4.7,1.5-6.9c1.1-2.2,2.8-4,4.8-5.4c4-2.8,8.9-3.8,13.5-4c4.7-0.2,9.4,0.6,13.9,1.7c9,2.2,17.3,6.1,25.9,7.9
			c4.3,1,8.7,1.6,13.1,1.8c4.4,0.3,8.8,0.2,12.6-1c3.8-1.2,7.1-3.9,8.5-7.3c1.4-3.4,0.7-7.6-1.3-11.1C88.2,9.7,80.3,4.4,72,3.7
			C67.7,3.3,63.4,4,59.2,5.2c-4.2,1.2-8.4,3-12.7,4.5c-4.3,1.5-8.8,2.8-13.5,2.9c-2.3,0.1-4.7-0.2-6.8-1.3
			C24.1,10.2,22.5,8.2,22.2,5.9z"/>
	</g>
</g>
</svg>
