<svg
    xmlns="http://www.w3.org/2000/svg"
    id="ROOMS_LOGOS"
    data-name="ROOMS LOGOS"
    viewBox="0 0 28.35 22.68"
>
    <defs>
        <style>
            .cls-1 {
                fill: #fff;
            }
        </style>
    </defs>
    <path
        class="cls-1"
        d="M18,1.76h.54c.22.1.21.1.07.31a7.82,7.82,0,0,0-.93,1.67,5.46,5.46,0,0,1-.85,1.62c-.37.46-.76.91-1.14,1.36l-.13.13.05.06c.24-.15.49-.3.72-.46a4,4,0,0,0,.88-1,4.19,4.19,0,0,1,1-1.08c.36-.26.74-.49,1.11-.75a5.59,5.59,0,0,0,.61-.48c.24-.24.46-.5.69-.74a1.38,1.38,0,0,1,.26-.22.22.22,0,0,1,.37.13,1.19,1.19,0,0,1,0,.46,5.65,5.65,0,0,1-.17.71,4.61,4.61,0,0,1-1,2A6.44,6.44,0,0,1,17.72,7a6.12,6.12,0,0,0-1.07.63,1.45,1.45,0,0,0-.31.34c-.1.14,0,.25.13.27a1.31,1.31,0,0,1,.4.1.39.39,0,0,1,.21.23,3.47,3.47,0,0,1,0,1.4l.32.05c.14-.33.28-.67.43-1,0-.09.11-.17.16-.26a1.25,1.25,0,0,1,.24.21,2,2,0,0,0,.77.73l.1.07a.34.34,0,0,1,.09.51,1.94,1.94,0,0,1-.23.29,1.49,1.49,0,0,1,1,.3c-.56.11-.56.11-.67.27l.54.29.54.32c.27.17.28.25.1.5l-.83,1.16.53.58a.27.27,0,0,0,.16.08.75.75,0,0,1,.74.33,1.1,1.1,0,0,1,.12.16c.5-.42,1-.84,1.47-1.23a3.27,3.27,0,0,1,.68-.38.79.79,0,0,1,1,.27,8.55,8.55,0,0,1,.53.88v.32a1.87,1.87,0,0,1-.93,1l.55.85c-.57.15-1.15.3-1.72.43a5.09,5.09,0,0,0-1.38.4.24.24,0,0,0-.16.23c0,.55,0,1.1,0,1.65a.22.22,0,0,0,.1.17A1.66,1.66,0,0,1,22,20a.67.67,0,0,1,.07.41,6.32,6.32,0,0,1-.35.85.43.43,0,0,1-.44.25,4,4,0,0,1-.78-.11,1,1,0,0,1-.65-1.09,1.35,1.35,0,0,1,.9-1.05.17.17,0,0,0,.13-.2c0-.47,0-.94,0-1.41,0,0,0-.07,0-.15l-1,.81a.24.24,0,0,0-.11.3c.1.28.19.56.28.86l-.16.07-.8.4a.21.21,0,0,0-.1.27,3.39,3.39,0,0,1,.1.48c-.53.09-1,.18-1.55.25s-.53.07-.63.6c0,0,0,.07,0,.11a1.06,1.06,0,0,1-.65,1.16.71.71,0,0,0-.29.37.93.93,0,0,1-.38.51l-.35.27a.87.87,0,0,0-.35.6,2.7,2.7,0,0,0,.11,1.23,1.21,1.21,0,0,0,.75.82l.44.2a1.09,1.09,0,0,1,.49.56h-.34c-.06,0-.14,0-.18,0-.4.24-.75-.1-1.12-.08a1.26,1.26,0,0,1-.27,0,1,1,0,0,1-.29-.06.93.93,0,0,1-.52-.59c0-.11-.06-.25-.14-.3a.38.38,0,0,1-.16-.29c0-.14,0-.27-.06-.41l-.12-.76h-.06c0,.2-.08.4-.1.6-.06.39-.08.78-.15,1.16a.6.6,0,0,1-.26.36,1,1,0,0,1-.81.23s0,0-.08,0a1,1,0,0,1-.79.16,1.71,1.71,0,0,0-.32,0c-.22,0-.44.05-.61-.16s-.09-.13,0-.21l.38-.33a.6.6,0,0,1,.46-.18.51.51,0,0,0,.45-.2,1.75,1.75,0,0,0,.32-.6c.09-.39.1-.79.16-1.18a.4.4,0,0,0-.19-.41,1.94,1.94,0,0,1-.78-1,.52.52,0,0,0-.13-.21l-.58-.55s-.09-.12-.08-.15c.11-.2,0-.3-.14-.41a1.12,1.12,0,0,1-.34-1,.14.14,0,0,0-.11-.18l-2-.81c-.38-.15-.77-.27-1.15-.43a.42.42,0,0,1-.24-.53A4.91,4.91,0,0,1,6.56,18c.54-1,1.08-2.1,1.67-3.12a12.48,12.48,0,0,0,1.1-2.64s0-.07,0-.11c-.56.18-.6.65-.65,1.12A3.74,3.74,0,0,0,6,12.8v-.73l-.72-.19C5,11.81,5,11.71,5,11.49a2.72,2.72,0,0,1,.31-.67c.4-.58.82-1.15,1.24-1.72,0-.07.11-.13.18-.21-.31-.06-.4-.25-.38-.54H6.15a2.44,2.44,0,0,0-1,.6A7.3,7.3,0,0,1,5.2,7.39c.45.59,1.11.57,1.66.68l.39-.48s0,0,.07,0a2.13,2.13,0,0,0,.5-.11,1.26,1.26,0,0,1,.68.11c.23.11.26.28.19.56l1.86.12c.06-.37.06-.37-.26-.49L10,7.64l0-.07.73.23c-.05-.07-.07-.13-.12-.16L10,7.32a1,1,0,0,1,.78.34c0-.07,0-.14,0-.17s-.37-.31-.56-.46a1,1,0,0,1,.72.47.16.16,0,0,0,0-.15l-.5-.61,0,0,.6.68,1-.54a.25.25,0,0,0,.1-.16.55.55,0,0,1,.62-.51,1.59,1.59,0,0,1,.38.06.47.47,0,0,0,.33,0,.84.84,0,0,1,1.13.14.83.83,0,0,0,.13-.14,2.24,2.24,0,0,0,.35-1.33,1.31,1.31,0,0,1,.29-1A6.78,6.78,0,0,1,16,3.14,4.32,4.32,0,0,1,18,1.76ZM15,11.07l.3.26,0,0-.15-.61-.17.37-.27-.39,0,0-.08.5-.31-.41h0v.51h0L14,10.79h-.06l-.17.51-.25-.41-.1.5h0l-.23-.56H13l-.23.58h0l-.12-.53H12.6l-.32.55h0l-.05-.57h0l-.19.5h0l-.08-.54-.22.43,0,0-.07-.51h0l-.16.38h0l-.08-.49h0L10.9,11l-.05-.52-.2.33-.13-.58-.17.37-.16-.65a.42.42,0,0,0-.1.48.8.8,0,0,0,.44.48s.06,0,.09,0,.19,0,.2.12a1.39,1.39,0,0,0,.06.13l.24-.14.08.43.16-.31.27.38.19-.21,0,.36.32-.34.15.42.32-.4.1.52.47-.56.25.55.19-.52.38.42.06-.52.42.5.09-.54.21.35h0l.05-.56Zm2.13,7.55,0,0c-.06-.08-.11-.16-.17-.23a.16.16,0,0,0-.13,0s0,.08,0,.12a.62.62,0,0,0,.36.53.17.17,0,0,0,.14,0,.6.6,0,0,0,.12-.53A.9.9,0,0,0,17,18a.22.22,0,0,0-.2.07.82.82,0,0,0,.47,1.2.5.5,0,0,0,.38-.06.75.75,0,0,0,.13-.91,5.23,5.23,0,0,0-.54-.61c-.17-.16-.31-.15-.5,0a.88.88,0,0,0-.33.9,2.26,2.26,0,0,0,1.18,1.53l1.92-1.76-.17.05a8.31,8.31,0,0,0-1.8,1.25c-.26-.21-.53-.4-.78-.62a.53.53,0,0,1-.17-.35,2.86,2.86,0,0,1,.11-.64.2.2,0,0,1,.31-.14,1,1,0,0,1,.57.55.57.57,0,0,1-.16.61.26.26,0,0,1-.17,0,.82.82,0,0,1-.42-.72c0-.11.09-.16.2-.12a.54.54,0,0,1,.26.59c-.21-.08-.24-.12-.18-.28Zm-9.8-6.69a8.43,8.43,0,0,0,1-1.67,1.42,1.42,0,0,0,.06-.58c0-.23-.16-.29-.36-.17s-.25.18-.38.27a3.7,3.7,0,0,0-.21-.33c-.11-.15-.22-.14-.32,0a1.08,1.08,0,0,0-.19.71A7.48,7.48,0,0,0,7.37,11.93Zm9.7,1.68A4.41,4.41,0,0,0,17,11.14l-.89,1.17c-.14-.11-.29-.2-.41-.06a4,4,0,0,0-.41.57A1.5,1.5,0,0,1,17.07,13.61Zm-6.52-5H9.49c.07.25-.13.33-.33.44l.78,1.47.06,0,0-.32A1.25,1.25,0,0,1,10.45,9,.27.27,0,0,0,10.55,8.56Zm7.71,1.63-.32.22c-.09.07-.25.07-.19.29l.35-.17a1.43,1.43,0,0,1,.84-.3.64.64,0,0,0,.2-.08A1.63,1.63,0,0,0,19,9.92a.46.46,0,0,0-.14-.07,1.07,1.07,0,0,1-.64-.5A2.75,2.75,0,0,0,18,9c-.07.2-.11.35-.17.49s-.19.4-.27.6a.26.26,0,0,0,.08.21s.14,0,.19,0A1.22,1.22,0,0,0,18,10l0,.22Zm.09,1.66a3.44,3.44,0,0,1,.48-.62,4.14,4.14,0,0,1,.67-.41,3.23,3.23,0,0,0-2.23.26Zm-2.55-.14a.25.25,0,0,1,.19-.29c.25-.1.51-.19.76-.3a.19.19,0,0,0,.12-.17c0-.14-.2-.27-.34-.28a4.72,4.72,0,0,1-.64-.1c-.17,0-.33-.1-.54-.17,0,.15,0,.26.07.37a2.64,2.64,0,0,1,.17,1,.29.29,0,0,0,0,.13c0,.1.08.16.19.08l.78-.62,0,0Zm-4.18,2.91.31-.21a1.17,1.17,0,0,0,.47-.56.33.33,0,0,0-.3-.44,1.1,1.1,0,0,0-.31.12s0,0-.06,0-.28-.1-.34-.05-.1.23-.14.35a.24.24,0,0,0,0,.14Zm-.2,1.49v0l-.16-.09c-.21-.1-.35,0-.38.2a.61.61,0,0,0,0,.33,6.47,6.47,0,0,0,.34.63l.27-.18a1.22,1.22,0,0,0,.48-.55c.08-.22,0-.44-.23-.46A.93.93,0,0,0,11.42,16.11Zm7.15.15.68-.33a4.22,4.22,0,0,1-.39-.47.51.51,0,0,1-.12-.36c.05-.18-.06-.25-.16-.32a4.93,4.93,0,0,0-.46-.23A6.76,6.76,0,0,0,18.57,16.26Zm-1.9-5.75a.4.4,0,0,0,.07.12l.38.29s.1,0,.12,0,.29-.22.32-.35-.14-.24-.23-.36a.2.2,0,0,0-.11-.06A.43.43,0,0,0,16.67,10.51Zm4.07,10.84,0,0L20.45,21a.76.76,0,0,1-.12-.95c.11-.21.24-.41.36-.61a2.82,2.82,0,0,0-.57.52.75.75,0,0,0,.07,1A4.29,4.29,0,0,0,20.74,21.35ZM16.59,10.12,16.1,10l.1.36L16,10.25a.47.47,0,0,0-.17,0c0,.05.06.12.1.14l.46.16-.08-.47.36.14.07-.27c.11,0,.27.13.28-.09V9.22h-.06l-.09.31-.17-.08.09.42-.32-.14ZM6.65,8.38a.27.27,0,0,0,.23.31.27.27,0,0,0,.23-.12c0-.1,0-.19-.16-.18S6.76,8.38,6.65,8.38Zm2,.11c0,.09,0,.15.06.2a.22.22,0,0,0,.33.11.27.27,0,0,0,.07-.18S9.08,8.54,9,8.53Z"
    />
    <path
        class="cls-1"
        d="M15.62,10.87h.82v.05C16.16,11,15.89,11.09,15.62,10.87Z"
    />
</svg>
