<svg xmlns="http://www.w3.org/2000/svg" viewBox="0 0 200 200"><defs><style>.cls-1{fill:#fff;}</style></defs><g id="Layer_40" data-name="Layer 40"><path class="cls-1" d="M121.9696,8.08579h3.83034c1.59369.71745,1.544.70716.51907,2.2116a55.44362,55.44362,0,0,0-6.66245,12.01132,39.68119,39.68119,0,0,1-6.06941,11.5857c-2.67288,3.30466-5.47576,6.50416-8.22522,9.74672-.28012.33036-.5857.63913-.87946.95792l.31283.4017c1.73454-1.10392,3.52646-2.12834,5.19061-3.32982,2.70966-1.95633,4.45476-4.77969,6.29936-7.47911a30.48825,30.48825,0,0,1,7.32242-7.75523c2.58756-1.85578,5.30923-3.52366,7.91514-5.355a37.06171,37.06171,0,0,0,4.37075-3.47948c1.74788-1.67494,3.30576-3.5468,4.98042-5.30047a10.5425,10.5425,0,0,1,1.841-1.56624,1.61164,1.61164,0,0,1,2.68661.968,8.92442,8.92442,0,0,1,.16576,3.27067,38.74107,38.74107,0,0,1-1.15633,5.09371c-1.49853,5.22394-3.42217,10.22251-7.20186,14.33127a45.73361,45.73361,0,0,1-17.07279,11.53113,44.593,44.593,0,0,0-7.62883,4.53116,9.56031,9.56031,0,0,0-2.23956,2.41793c-.75443,1.02964-.303,1.79645.94694,1.97064a9.238,9.238,0,0,1,2.82248.68015,2.79414,2.79414,0,0,1,1.49949,1.67932c.35958,3.34758.8907,6.72285-.09144,10.01314l2.3064.34756c.99812-2.3626,1.99957-4.79331,3.05778-7.199a16.58385,16.58385,0,0,1,1.14267-1.895,8.49655,8.49655,0,0,1,1.73748,1.53325,14.64,14.64,0,0,0,5.47874,5.2158,4.885,4.885,0,0,1,.72924.51363,2.41983,2.41983,0,0,1,.65743,3.66628,24.31235,24.31235,0,0,1-1.64845,2.058,10.33764,10.33764,0,0,1,6.86081,2.14974c-3.99336.81005-3.99336.81005-4.8121,1.89013,1.30614.7143,2.61611,1.41068,3.90632,2.14194q1.94178,1.10053,3.85041,2.25934c1.95885,1.19313,2.03422,1.77424.6966,3.61125-2.068,2.84009-4.08919,5.71436-5.92949,8.29286,1.34814,1.48568,2.5549,2.85691,3.81749,4.17462a1.61275,1.61275,0,0,0,1.13173.5406,5.4633,5.4633,0,0,1,5.314,2.3594c.35467.44326.69106.90115.87857,1.14652,3.56089-2.99785,6.97576-6.00442,10.54563-8.814a20.39654,20.39654,0,0,1,4.86977-2.70747,5.60338,5.60338,0,0,1,7.15871,1.938c1.436,1.96771,2.54729,4.17246,3.8027,6.272v2.29881c-1.07829,3.331-3.42995,5.57264-6.70351,7.40273,1.333,2.04571,2.56163,3.93113,3.98755,6.11936-4.15231,1.032-8.24237,2.16252-12.38558,3.04259-3.37277.71642-6.7828,1.2266-9.85847,2.91234-.63278.3468-1.18891.6698-1.1755,1.60774.05657,3.9581.00074,7.91781.05837,11.87587a1.66619,1.66619,0,0,0,.76321,1.21617,11.75809,11.75809,0,0,1,5.10237,5.36819,4.38447,4.38447,0,0,1,.45793,2.92748,40.32279,40.32279,0,0,1-2.48877,6.08546,3.18458,3.18458,0,0,1-3.16045,1.8104,25.66871,25.66871,0,0,1-5.62184-.82841,7.12475,7.12475,0,0,1-4.59037-7.80852c.58275-3.82894,3.01594-6.06716,6.38481-7.47849a1.34836,1.34836,0,0,0,.99632-1.49257c-.07483-3.36178-.0758-6.72518-.11278-10.08788a10.44575,10.44575,0,0,0-.15872-1.09693c-2.58561,2.055-4.951,3.98789-7.38071,5.83621a1.74186,1.74186,0,0,0-.746,2.172c.66832,2.00994,1.3233,4.02433,2.01257,6.12474-.354.15586-.78511.32469-1.19757.53084-1.89728.9483-3.80041,1.886-5.67784,2.87238a1.40825,1.40825,0,0,0-.737,1.90644,33.62357,33.62357,0,0,1,.74035,3.475c-3.8201.612-7.4594,1.24348-11.11416,1.76705-3.80825.54553-3.81579.49982-4.53328,4.30564a2.45784,2.45784,0,0,0-.08176.75906c.53956,3.96209-1.29784,6.51125-4.66242,8.36014a4.87693,4.87693,0,0,0-2.05678,2.60243,6.63315,6.63315,0,0,1-2.71812,3.70291c-.88006.59505-1.71646,1.25557-2.56294,1.89925a6.28482,6.28482,0,0,0-2.46665,4.32126,19.147,19.147,0,0,0,.75,8.823,8.84976,8.84976,0,0,0,5.4032,5.89151,22.57221,22.57221,0,0,1,3.12212,1.44514,7.87687,7.87687,0,0,1,3.56558,3.9644c-.97261,0-1.7001.00827-2.42728-.003-.45861-.00711-1.03041-.233-1.35734-.03692-2.83139,1.69815-5.33144-.74939-8.03053-.58861a8.35521,8.35521,0,0,1-1.86647-.26375,8.33046,8.33046,0,0,1-2.08316-.42612,6.80739,6.80739,0,0,1-3.78266-4.25468c-.24052-.76114-.4242-1.78909-.98339-2.14343a2.66313,2.66313,0,0,1-1.168-2.10508c-.175-.96174-.28113-1.9359-.42445-2.90359q-.40506-2.735-.81845-5.4687l-.48067-.00313c-.24379,1.43613-.53228,2.86639-.72182,4.30965-.36507,2.77987-.54678,5.59162-1.07545,8.338a4.32164,4.32164,0,0,1-1.82228,2.59137c-1.73637,1.03951-3.53881,2.28417-5.80912,1.61157-.147-.04355-.39207.11145-.54284.234-1.70463,1.38579-3.68465,1.35346-5.71044,1.15569a14.0147,14.0147,0,0,0-2.28356-.083c-1.58562.106-3.12824.3619-4.36177-1.127-.53424-.64485-.6722-.99161-.01912-1.53538.91418-.76119,1.83244-1.521,2.7004-2.33327a4.35737,4.35737,0,0,1,3.32418-1.34748,3.57657,3.57657,0,0,0,3.2524-1.4444,12.94409,12.94409,0,0,0,2.305-4.29337c.61345-2.7643.714-5.63977,1.09089-8.46048a2.759,2.759,0,0,0-1.36947-2.93989,13.58571,13.58571,0,0,1-5.52541-6.82252,4.04274,4.04274,0,0,0-.98419-1.5428c-1.35736-1.34588-2.79567-2.60983-4.1635-3.94558-.28083-.27426-.65135-.86974-.53952-1.067.80747-1.42458-.27777-2.17517-1.03818-2.93121a8.0695,8.0695,0,0,1-2.39443-7.0981,1.06457,1.06457,0,0,0-.79867-1.32466c-4.81441-1.92048-9.60715-3.89593-14.43277-5.78754-2.72745-1.06916-5.53137-1.945-8.24814-3.03889a3.03724,3.03724,0,0,1-1.69192-3.8185,41.23133,41.23133,0,0,1,2.28661-5.94057c3.89962-7.506,7.72807-15.06042,11.95989-22.3788a87.75527,87.75527,0,0,0,7.879-18.89472,6.39947,6.39947,0,0,0,.13255-.80049c-3.96565,1.27107-4.2483,4.61488-4.61063,8.01543C49.36945,86.63,42.83,85.988,35.95358,87.21293v-5.21c-1.87342-.49459-3.55956-.89332-5.21622-1.39035-1.61807-.48546-2.06595-1.19873-1.50426-2.7665A20.94832,20.94832,0,0,1,31.45967,73.006c2.86579-4.16485,5.91747-8.20186,8.90427-12.28311.36293-.49593.77552-.95549,1.27292-1.56377-2.22976-.3731-2.83143-1.79237-2.6777-3.8252a11.09618,11.09618,0,0,0-1.752.013c-2.84445.49443-4.88291,2.43356-7.29126,4.28773a50.4108,50.4108,0,0,1,.52033-11.22528c3.22235,4.23413,7.94368,4.11353,11.88586,4.89508,1.09085-1.3471,1.93086-2.3975,2.79274-3.42961a.6364.6364,0,0,1,.47092-.15583c1.28226.08336,2.41955-.54654,3.577-.75317a8.82923,8.82923,0,0,1,4.87694.77242c1.70738.76863,1.92217,2.01836,1.38354,4.0231l13.319.83017c.45974-2.65917.46028-2.66067-1.86776-3.50494-.78334-.28407-1.57021-.55838-2.35547-.83716l.17062-.48844,5.1873,1.63542c-.34007-.50181-.48907-.96437-.79971-1.13859-1.44715-.81163-2.939-1.54354-4.44432-2.31915a7.36317,7.36317,0,0,1,5.55527,2.42287c.09933-.461.13667-1.0015-.10984-1.21669-1.30158-1.13623-2.67467-2.19049-4.03058-3.2793a7.47721,7.47721,0,0,1,5.162,3.398,1.22786,1.22786,0,0,0,.00671-1.07312c-1.16751-1.489-2.39107-2.934-3.596-4.39356l.22806-.20075,4.3148,4.84619c2.36513-1.22529,4.90189-2.50689,7.39546-3.86769a1.87489,1.87489,0,0,0,.7361-1.17861c.50634-2.48774,1.90375-3.69935,4.44946-3.62816a11.44365,11.44365,0,0,1,2.759.432,3.0952,3.0952,0,0,0,2.298-.21545c2.86139-1.30723,5.696-1.92385,8.14146,1.01923a6.20419,6.20419,0,0,0,.903-.99742c1.65242-2.98026,2.85838-6.132,2.49979-9.58843a9.61338,9.61338,0,0,1,2.13479-7.49551,56.00777,56.00777,0,0,1,4.39154-4.96976C112.06954,13.966,115.93771,9.46477,121.9696,8.08579ZM100.96226,74.81735l2.11724,1.85575.28258-.21393-1.054-4.36055-1.25542,2.627-1.88514-2.75275-.31695.11955-.55918,3.60295-2.22459-2.941-.27358.07172v3.676l-.29019.073-2.39794-3.74884-.394.05981-1.22346,3.67323-1.766-2.94249-.77392,3.55138-.28352.01436-1.65641-3.983-.37677.00417-1.64075,4.11756-.28816-.03465-.87437-3.84315-.34811-.07309-2.29265,3.98427-.30184-.10964-.37012-4.067-.26679-.05268L78.88,76.69032l-.2909-.10689-.55693-3.84253-1.62189,3.06185-.27642-.09076-.50228-3.68-.26411-.04474-1.15834,2.71438-.24558-.08541L73.426,71.108l-.29987-.00693L71.275,74.21369l-.39484-3.70452-1.37432,2.34167-.97705-4.14437L67.3142,71.362l-1.12745-4.66929a2.9196,2.9196,0,0,0-.69943,3.45666,5.69085,5.69085,0,0,0,3.15606,3.4855c.16449.05771.39872-.1.6041-.13938.76757-.1473,1.341-.00872,1.4825.91139a3.84111,3.84111,0,0,0,.414.91351l1.71673-1.02933.58332,3.10742,1.0892-2.254,1.96228,2.78477,1.38562-1.51354-.198,2.54832,2.28246-2.42454,1.0795,3.0005,2.26435-2.88427.68823,3.73136,3.38159-3.99259,1.81212,3.91019,1.36745-3.7083,2.69972,3.03926.44851-3.72831,3.041,3.56335.62557-3.8379c.63083,1.05731,1.06257,1.78092,1.49431,2.50453l.24609-.07685.31421-4.0378C100.15278,74.398,100.55751,74.60769,100.96226,74.81735ZM116.208,128.931l.21525-.174a15.97662,15.97662,0,0,0-1.22377-1.709.99542.99542,0,0,0-.92216-.1833c-.19951.09484-.318.56128-.31.85889a4.4838,4.4838,0,0,0,2.61188,3.80221,1.114,1.114,0,0,0,.99954-.11073,4.27867,4.27867,0,0,0,.87028-3.78463,6.7249,6.7249,0,0,0-3.669-3.36287,1.6064,1.6064,0,0,0-1.44829.49441,5.9404,5.9404,0,0,0,3.38169,8.63824,3.5634,3.5634,0,0,0,2.70839-.46258,5.35392,5.35392,0,0,0,.93466-6.524,31.96009,31.96009,0,0,0-3.88836-4.36186c-1.191-1.13661-2.21171-1.04211-3.54749-.02875a6.25994,6.25994,0,0,0-2.38186,6.47456c.90791,5.10808,4.26794,8.40984,8.43786,10.99184l13.77172-12.65519a10.53335,10.53335,0,0,0-1.17414.36949c-4.80264,2.1307-8.72912,5.54467-12.92877,8.94383-1.87766-1.455-3.8251-2.82527-5.58808-4.402a3.7802,3.7802,0,0,1-1.22706-2.50591,18.97854,18.97854,0,0,1,.81487-4.61648c.311-1.16134,1.05627-1.46382,2.17831-.99a7.26332,7.26332,0,0,1,4.13114,3.94585,4.02457,4.02457,0,0,1-1.19931,4.36442,1.6781,1.6781,0,0,1-1.18458.21775c-1.49025-.34033-3.39435-3.67938-2.99911-5.18777.19173-.73171.66685-1.10382,1.43-.83273,1.3348.47416,2.35756,2.85514,1.85027,4.23363-1.48495-.60318-1.68127-.89632-1.27644-2.0337Zm-70.22187-47.975c2.62485-4.02,5.50189-7.629,7.10872-11.96269a10.356,10.356,0,0,0,.3621-4.13491c-.10465-1.66581-1.09975-2.08358-2.56437-1.19392-.92923.56445-1.77363,1.26863-2.68086,1.92817a26.54668,26.54668,0,0,0-1.51068-2.3753c-.83832-1.06263-1.56744-1.01982-2.33232.09371A7.99051,7.99051,0,0,0,43.01,68.38653C43.23843,72.669,44.65751,76.667,45.98613,80.95594Zm69.49458,12.07259c1.80765-6.09472,1.1252-11.74442-.4325-17.73442L108.67847,83.683c-1.00935-.7516-2.062-1.39384-2.9482-.43252a39.151,39.151,0,0,0-2.90238,4.07762C108.38382,86.64716,112.78612,87.61065,115.48071,93.02853ZM68.74576,56.805h-7.616c.502,1.84429-.89254,2.38951-2.34242,3.18516L64.381,70.525l.41-.18109c-.06261-.75524-.13875-1.50965-.18549-2.26587-.208-3.36492.56224-6.38959,3.42462-8.453A1.95648,1.95648,0,0,0,68.74576,56.805ZM124.054,68.5072c-.9622.65385-1.66081,1.09374-2.31988,1.58654-.62014.46368-1.80268.5196-1.39138,2.07677.92927-.44107,1.766-.79112,2.5579-1.22349,1.88575-1.02966,3.6224-2.40623,5.99234-2.16054.44547.04618.93811-.36281,1.409-.56176a9.33512,9.33512,0,0,0-.77372-1.61294,1.87494,1.87494,0,0,0-1.00209-.51271,7.6316,7.6316,0,0,1-4.553-3.63635,31.26884,31.26884,0,0,0-2.1179-2.68477c-.47672,1.41124-.78008,2.49715-1.20822,3.53138-.59934,1.44783-1.36384,2.831-1.89587,4.30047a1.69319,1.69319,0,0,0,.53369,1.44711c.21949.18774.999-.03005,1.34522-.2996a10.19607,10.19607,0,0,0,1.38482-1.68878l-.12769,1.59571Zm.608,11.87032a28.35488,28.35488,0,0,1,3.4177-4.41855,28.27366,28.27366,0,0,1,4.80945-2.9065c-5.29908-.95071-10.68878-1.10171-15.93467,1.8568Zm-18.29245-.961a1.81679,1.81679,0,0,1,1.36693-2.09926c1.81173-.71834,3.663-1.34177,5.44792-2.1193a1.71457,1.71457,0,0,0,.90591-1.25419c-.02912-.97411-1.47572-1.90344-2.4364-1.99362a38.87118,38.87118,0,0,1-4.6056-.707c-1.21894-.26465-2.395-.72679-3.88055-1.19232a23.52782,23.52782,0,0,0,.52207,2.592,19.07945,19.07945,0,0,1,1.17352,7.4946,2.69482,2.69482,0,0,0,.08217.88334c.19582.73967.60707,1.19272,1.35553.611,1.87637-1.4584,3.71965-2.95937,5.57621-4.44327l-.179-.19168C110.00527,77.76556,108.31238,78.53427,106.36947,79.41654ZM76.46056,100.24793c.93919-.63225,1.58158-1.03824,2.19563-1.48336a7.97716,7.97716,0,0,0,3.34955-4.025,2.303,2.303,0,0,0-2.1185-3.13242,8.0766,8.0766,0,0,0-2.27093.84734,1.07547,1.07547,0,0,0-.39935-.23468c-.82536-.17311-1.992-.71022-2.41085-.36276-.62536.51879-.76612,1.65886-1.02659,2.55964a1.52464,1.52464,0,0,0,.18209.98407C74.74712,96.97488,75.56994,98.53041,76.46056,100.24793Zm-1.46792,10.7097.05076.28967c-.36331-.21375-.71546-.44992-1.09188-.63732-1.53883-.76613-2.575-.26689-2.7889,1.445a4.67518,4.67518,0,0,0,.18439,2.358c.67167,1.51753,1.56976,2.93478,2.42319,4.47916.80083-.53116,1.37608-.87967,1.91549-1.27687a8.85787,8.85787,0,0,0,3.48737-3.92852c.5854-1.60222-.07646-3.145-1.63727-3.34264A7.47378,7.47378,0,0,0,74.99264,110.95763ZM126.235,112.046l4.86544-2.37845a38.79753,38.79753,0,0,1-2.81116-3.382,3.75519,3.75519,0,0,1-.81234-2.55348c.36514-1.33653-.43124-1.83463-1.18344-2.316a31.27688,31.27688,0,0,0-3.285-1.63619A51.48428,51.48428,0,0,0,126.235,112.046ZM112.60589,70.77161a2.59279,2.59279,0,0,0,.50277.89024,32.47964,32.47964,0,0,0,2.71521,2.07327.997.997,0,0,0,.9099.07813c.84565-.78784,2.06131-1.55909,2.26886-2.52536.15324-.71346-1.01987-1.73218-1.64939-2.5797a1.8038,1.8038,0,0,0-.76214-.44208A3.11711,3.11711,0,0,0,112.60589,70.77161ZM141.8092,148.487l.27773-.29008c-.78861-.82733-1.61163-1.62485-2.359-2.48793-1.78532-2.06183-2.264-4.33129-.88456-6.80358.8229-1.47483,1.70919-2.91427,2.567-4.36962a21.141,21.141,0,0,0-4.03688,3.70469,5.34866,5.34866,0,0,0,.47866,7.38556A31.87271,31.87271,0,0,0,141.8092,148.487ZM112.067,67.99269l-3.533-1.13844.71748,2.59045a9.79923,9.79923,0,0,0-1.59982-.51817,4.5951,4.5951,0,0,0-1.19815.15075c.24926.34748.425.865.76156,1.0106,1.01376.43856,2.0901.73238,3.24866,1.11814l-.57107-3.32428,2.62439.97036.43773-1.90326c.80485-.11039,1.93153.95106,2.003-.66375.06948-1.56927.01508-3.144.01508-4.71636l-.42494-.00764-.64092,2.24058-1.21617-.55865.64372,2.993-2.26391-1.01642ZM40.78935,55.53074a1.91606,1.91606,0,0,0,1.67019,2.2153,1.95966,1.95966,0,0,0,1.64812-.86328c.279-.7264-.17209-1.35126-1.17748-1.27121A18.17608,18.17608,0,0,1,40.78935,55.53074Zm14.67808.82032c.21651.62411.34425,1.02537.49424,1.41813a1.54057,1.54057,0,0,0,2.32347.79785,1.79633,1.79633,0,0,0,.49375-1.30252c-.00187-.21933-.53534-.55268-.87356-.62628A24.30937,24.30937,0,0,0,55.46743,56.35106Z"/><path class="cls-1" d="M105.11656,73.391h5.85682l-.00319.34874C108.99969,73.98234,107.02033,74.96717,105.11656,73.391Z"/></g></svg>