<svg id="ROOMS_LOGOS" data-name="ROOMS LOGOS" xmlns="http://www.w3.org/2000/svg" viewBox="0 0 28.35 22.68"><defs><style>.cls-1{fill:#fff;}</style></defs><title>ARKHAM PRISONS</title><g id="ARKHAM_PRISON" data-name="ARKHAM PRISON"><g id="_Group_" data-name="&lt;Group&gt;"><g id="_Group_2" data-name="&lt;Group&gt;"><path id="_Path_" data-name="&lt;Path&gt;" class="cls-1" d="M6.44,10.71a.19.19,0,0,0,.16.21.18.18,0,0,0,.22-.16.19.19,0,1,0-.38,0Z"/><path id="_Compound_Path_" data-name="&lt;Compound Path&gt;" class="cls-1" d="M8.14,8.38a4.7,4.7,0,0,1-1.8.4c-.79,0-.93.51-.93.51A6.71,6.71,0,0,1,3.68,12a5.16,5.16,0,0,0-2.05,3.44l-.09.62a5.19,5.19,0,0,0,2.85,5.35h0a5.51,5.51,0,0,0,1.26.43,5.27,5.27,0,0,1,1.52.68c.4.35.76.38,1.27-.18a1.39,1.39,0,0,0,0-1.38,1.17,1.17,0,0,0-.74-.57c-.39-.08-.81,0-1.21-.09l-.69-.11a2.88,2.88,0,0,1-1-.39,3.82,3.82,0,0,1-1.74-3.74l0-.2a3.79,3.79,0,0,1,1-2.06A5,5,0,0,1,7.9,12.12a6.44,6.44,0,0,1,3,.74c.35.17.66.41,1,.55s.67-.14.77-.53a11.87,11.87,0,0,0,.21-1.68l0-.46c0-.4,0-1.11-.53-1.21h-.05a2.54,2.54,0,0,1-1.74-.79A9.93,9.93,0,0,0,8.14,8.38ZM6.32,10.69a.31.31,0,1,1,.27.36A.33.33,0,0,1,6.32,10.69Zm5.75.51a.49.49,0,0,1-.25.36l0,.32-.3,0,0-.32a.47.47,0,0,1-.14-.41c0-.24.21-.41.4-.38A.39.39,0,0,1,12.07,11.2Z"/><path id="_Path_2" data-name="&lt;Path&gt;" class="cls-1" d="M13.08,13.18l.18-.41-.38.14v0a1,1,0,0,1-.34.78c-.27.16-.53,0-.77-.14a12.63,12.63,0,0,0-1.4-.76,6,6,0,0,0-3.88-.33,3.38,3.38,0,0,0-.69.26,3.86,3.86,0,0,1,2-.18,6.78,6.78,0,0,1,3.76,1.24,3.84,3.84,0,0,1,1.33,3c0,.13,0,.26,0,.39l0,.2a3.81,3.81,0,0,1-4.27,3.25,1.69,1.69,0,0,1,.3,1.21,1.45,1.45,0,0,1-.13.36c2.57.1,4.66-1.54,5.39-4.43l.09-.62a5.12,5.12,0,0,0-.6-3l.48-.36-.52-.07.32-.34h-.56l.24-.32Z"/></g><g id="_Group_3" data-name="&lt;Group&gt;"><path id="_Path_3" data-name="&lt;Path&gt;" class="cls-1" d="M15.18,7.72a.2.2,0,0,0,.23-.15.2.2,0,0,0-.16-.22A.19.19,0,0,0,15,7.5.18.18,0,0,0,15.18,7.72Z"/><path id="_Compound_Path_2" data-name="&lt;Compound Path&gt;" class="cls-1" d="M12.91,6a4.6,4.6,0,0,1,.34,1.81.82.82,0,0,0,.49,1,6.69,6.69,0,0,1,2.65,1.82,5.09,5.09,0,0,0,3.36,2.16l.62.11a5.18,5.18,0,0,0,5.44-2.67h0a4.75,4.75,0,0,0,.47-1.24A5.27,5.27,0,0,1,27,7.39c.36-.39.41-.75-.13-1.28A1.41,1.41,0,0,0,25.49,6a1.15,1.15,0,0,0-.59.72c-.08.39-.06.8-.13,1.2,0,.23-.08.46-.13.68a2.94,2.94,0,0,1-.42,1,3.82,3.82,0,0,1-3.79,1.61l-.21,0a3.8,3.8,0,0,1-2-1.06,5.06,5.06,0,0,1-1.55-3.82,6.52,6.52,0,0,1,.84-3,10.23,10.23,0,0,0,.59-1c.18-.42-.12-.67-.51-.78a11.61,11.61,0,0,0-1.67-.26l-.46-.05c-.4,0-1.11,0-1.22.49a.09.09,0,0,0,0,.05,2.52,2.52,0,0,1-.86,1.71A10.11,10.11,0,0,0,12.91,6Zm2.25,1.9a.32.32,0,0,1-.25-.37.31.31,0,0,1,.36-.25.32.32,0,0,1,.26.36A.32.32,0,0,1,15.16,7.85Z"/><path id="_Path_4" data-name="&lt;Path&gt;" class="cls-1" d="M17.87,1.17l-.4-.2c0,.13.09.26.13.4h0a1,1,0,0,1,.78.36c.14.27,0,.53-.17.76a12.76,12.76,0,0,0-.81,1.38A6.08,6.08,0,0,0,17,7.74a4,4,0,0,0,.24.69,4,4,0,0,1-.11-2,6.78,6.78,0,0,1,1.36-3.72,3.89,3.89,0,0,1,3.06-1.23l.39.05.21,0a3.81,3.81,0,0,1,3.1,4.37,1.74,1.74,0,0,1,1.22-.25,1,1,0,0,1,.36.14C27,3.25,25.4,1.1,22.54.27L21.92.16a5.23,5.23,0,0,0-3,.5L18.56.18l-.09.51L18.14.36c0,.19,0,.37,0,.56L17.82.67C17.84.84,17.86,1,17.87,1.17Z"/></g><path id="_Path_5" data-name="&lt;Path&gt;" class="cls-1" d="M8.4,8h0Z"/><g id="_Group_4" data-name="&lt;Group&gt;"><path id="_Path_6" data-name="&lt;Path&gt;" class="cls-1" d="M9.64,7.34c-.09,0-.25-.1-.33,0a.41.41,0,0,0,0,.4,1.36,1.36,0,0,1,.12.49,1.29,1.29,0,0,1,0,.48l-.06.19s0,.06.05,0l0,0,0,.14s0,0,0,0a1,1,0,0,0,.39-.67c0-.06,0-.13,0-.21a1.54,1.54,0,0,0,0-.48A.49.49,0,0,0,9.64,7.34Z"/><path id="_Path_7" data-name="&lt;Path&gt;" class="cls-1" d="M8.83,8.31a1.29,1.29,0,0,0,0,.48c.05.15.12.29.17.44a.68.68,0,0,0,.08.24l.05,0s0,0,0,.08.12.06.12,0a2.58,2.58,0,0,0,0-.48.17.17,0,0,0,0-.07.24.24,0,0,1,0-.08h0c0-.22,0-.43,0-.65h0A.77.77,0,0,1,8.91,8l0,0A.71.71,0,0,0,8.83,8.31Z"/></g><g id="_Group_5" data-name="&lt;Group&gt;"><path id="_Path_8" data-name="&lt;Path&gt;" class="cls-1" d="M10.42,6.65a1.62,1.62,0,0,1-.19.18.64.64,0,0,1-.08.43,1.12,1.12,0,0,1-.18.2l0,0c0,.06,0,.12,0,.17a.49.49,0,0,1,0,.12l.1-.09a1.71,1.71,0,0,0,.52-.92.51.51,0,0,0,0-.28Z"/><path id="_Path_9" data-name="&lt;Path&gt;" class="cls-1" d="M9.64,6.16a1.34,1.34,0,0,0-.79,1.23A.93.93,0,0,0,9,7.85l0,0a.64.64,0,0,0,.1.13l0,0h0s.25.17.24,0a1.1,1.1,0,0,1,0-1.17l0,0,0-.06h0l0,0,0,0,0,0,0,0,.06-.06.06-.05c.16-.13.34-.24.39-.43A.64.64,0,0,0,9.64,6.16Z"/></g><path id="_Path_10" data-name="&lt;Path&gt;" class="cls-1" d="M9.7,5.3a.71.71,0,0,1,.1-.14,1.25,1.25,0,0,1-.14-.49A2.71,2.71,0,0,0,9.42,5a2.36,2.36,0,0,0-.36,1.23l0,.16a1.26,1.26,0,0,1,.42-.27A1,1,0,0,1,9.7,5.3Z"/><path id="_Path_11" data-name="&lt;Path&gt;" class="cls-1" d="M12.89,3.69a1.11,1.11,0,0,0-.6-.28,1.94,1.94,0,0,0-.72,0,2.84,2.84,0,0,0-1.46.69,1.12,1.12,0,0,0-.33.54v0a.93.93,0,0,0,.32.67l.1,0,.23,0a1.2,1.2,0,0,0,.11-.61s-.07-.06-.08-.08a.27.27,0,0,1-.08-.16.13.13,0,0,1,0-.06c0-.09.15-.14.23-.19a4.18,4.18,0,0,1,.61-.27l.36-.12a.85.85,0,0,1,.35-.08.9.9,0,0,1,.55.17,0,0,0,0,1,0,0l0,0a.28.28,0,0,1,0,.09c0,.09-.09.22,0,.23s.28.06.35,0A.5.5,0,0,0,13,3.85.54.54,0,0,0,12.89,3.69Z"/><path id="_Path_12" data-name="&lt;Path&gt;" class="cls-1" d="M11.93,4.69a1.43,1.43,0,0,1-.29.1,2,2,0,0,1-.55.07,2.26,2.26,0,0,1,0,.45v0l.43-.11A5.61,5.61,0,0,0,12.31,5,.74.74,0,0,1,11.93,4.69Z"/><g id="_Group_6" data-name="&lt;Group&gt;"><path id="_Path_13" data-name="&lt;Path&gt;" class="cls-1" d="M14.74,4.94a.5.5,0,0,0-.14-.15.11.11,0,0,0-.12,0,1.55,1.55,0,0,1-.37,0l-.12,0c-.06,0-1.51-.25-1.55-.29l-.06-.13a.74.74,0,0,0-.1-.22.16.16,0,0,0-.23,0,.3.3,0,0,0-.19.32.73.73,0,0,0,.35.52,8,8,0,0,0,2.66.49.09.09,0,0,0,.1-.14A2.15,2.15,0,0,0,14.74,4.94Z"/></g><path id="_Path_14" data-name="&lt;Path&gt;" class="cls-1" d="M10.8,4.33l-.13.06c-.06,0-.27.12-.15.2h0c.15.15.1.4.07.59a1.58,1.58,0,0,1-.69,1.23,1.58,1.58,0,0,0-.45.52l.1,0h.2a.93.93,0,0,0,.37-.19A2.19,2.19,0,0,0,11,5.49,2.11,2.11,0,0,0,11,4.88a1.08,1.08,0,0,0-.07-.31.76.76,0,0,0-.07-.19S10.82,4.32,10.8,4.33Z"/></g></g></svg>