<svg id="ROOMS_LOGOS" data-name="ROOMS LOGOS" xmlns="http://www.w3.org/2000/svg" viewBox="0 0 28.35 22.68"><defs><style>.cls-1{fill:#fff;fill-rule:evenodd;}</style></defs><title>ASSASINS</title><g id="ASSASINS"><path class="cls-1" d="M25.43,17.47c0-4.49,0-9-.05-13.47L24,5.12a14,14,0,0,1-2.39,1.66,19.55,19.55,0,0,1-2.35,1.14,8.17,8.17,0,0,1-2.22.47,13.23,13.23,0,0,1,1.7-4.78,12.71,12.71,0,0,1,1.4-2.09c.26-.3.28-.36,1.32-1.49H6.86c.8.87,1,1.18,1.28,1.55A12.59,12.59,0,0,1,9.52,3.67a15.43,15.43,0,0,1,1.66,4.67A13.13,13.13,0,0,1,6.49,6.7,12.15,12.15,0,0,1,4.38,5.25L2.87,4c0,3.41,0,3.94,0,7.08,0,2.63,0,2.63,0,3.92,0,1.13,0,1.8,0,3.68a5.77,5.77,0,0,1,1.71-1.54c.77-.47,1.46-1,2.28-1.4a12.65,12.65,0,0,1,1.95-.88,20.52,20.52,0,0,1,2.32-.63A14.88,14.88,0,0,1,8.83,20.1,12.57,12.57,0,0,1,7.17,22c-.17.18-.57.53-.7.67H21.54c-.84-.95-1-1.17-1.44-1.65a12.18,12.18,0,0,1-1.48-2.21A19.11,19.11,0,0,1,17,14.23,10.68,10.68,0,0,1,21.91,16a15.54,15.54,0,0,1,2.67,2c.17.14.48.69.75.63C25.58,18.41,25.43,17.75,25.43,17.47Z"/></g></svg>