<svg id="ROOMS_LOGOS" data-name="ROOMS LOGOS" xmlns="http://www.w3.org/2000/svg" viewBox="0 0 28.35 22.68"><defs><style>.cls-1{fill:#fff;}</style></defs><title>LOST CITY OF ATLANTIS</title><g id="LOST_CITY_OF_ATLANTIS" data-name="LOST CITY OF ATLANTIS"><path class="cls-1" d="M3.58,21.25c0-.33.09-.65.12-1,.07-.63.14-1.27.2-1.9C4,17.92,4,17.45,4,17c0-.1,0-.2,0-.33l.29.14a7.11,7.11,0,0,1,.93-.75,1.26,1.26,0,0,1,1.86,1,1.68,1.68,0,0,1-.14.64l1.34.15-.8-4.87a1.91,1.91,0,0,1-.64-.06.94.94,0,0,1-.4-.37,1.07,1.07,0,0,1,.38-1.42l-.14-.31L10,10.21l0,.27c.16.09.33.17.49.27a.94.94,0,0,1-.07,1.64,1.46,1.46,0,0,1-.49.06c.11.65.22,1.34.33,2,.18,1.11.36,2.21.53,3.31,0,.2.08.31.32.33.47,0,.46.05.71-.36.36-.6.75-1.19,1.11-1.79a2.27,2.27,0,0,0,.16-.46c0-.06,0-.15,0-.2a.3.3,0,0,0,.05-.37.09.09,0,0,1,0-.07c.11-.27.24-.53.33-.81a1.33,1.33,0,0,0,.17-.61.11.11,0,0,1,0-.06c.21-.09.12-.28.15-.43a.29.29,0,0,1,0-.16c.17-.2.35-.39.51-.56l-.14-.49c.19,0,.29-.05.23-.23a.47.47,0,0,0-.45.36.28.28,0,0,1-.34.2,2.29,2.29,0,0,1-1.37-.67c-.32-.31-.6-.66-.91-1-.1.05-.08.34-.29.2s-.09-.16-.13-.25-.17,0-.18,0a1.36,1.36,0,0,1,0-.36c-.13,0-.29,0-.24-.2l-.26-.14.16-.28c-.21-.26-.43-.51-.61-.77S9.52,8.21,9.7,8c0,0,0-.15.06-.2s.13-.21.21-.31a.34.34,0,0,1,.12-.12,3.3,3.3,0,0,0,.32-.18.57.57,0,0,1,.55.42.4.4,0,0,1,.15,0c.06,0,.15,0,.18.09a.22.22,0,0,1,0,.21c-.12.11-.1.22-.07.36a.37.37,0,0,1-.08.26.26.26,0,0,0,.06.4l.33.2a.8.8,0,0,1,.13.13l.15.12s.09,0,.09.07c0,.2.13.21.24.25s.51.16.75.27.49.24.76.37c.1-.38.44-.68.52-1.12a2.63,2.63,0,0,1,.44-.75.37.37,0,0,0,.07-.2c0-.42,0-.85,0-1.27,0-.16.09-.33-.1-.49s0-.28-.06-.42a1.55,1.55,0,0,0-.24-.67c-.15-.16,0-.38,0-.58a.37.37,0,0,0,0-.26c-.18-.26-.37-.5-.57-.75.2,0,.39,0,.48.26,0,0,0,0,0,.05.22.31.32.34.66.19,0,0,.06,0,.09,0,.26-.06.29-.1.24-.37a.71.71,0,0,0-.06-.26.67.67,0,0,1,0-.63c.2.14.2.35.24.55l.06.43a.52.52,0,0,0,.51.45,3,3,0,0,1,.3.07c.07-.27.14-.56.2-.85s.05-.3.35-.35l-.27,1.3a.88.88,0,0,0,.55.92.53.53,0,0,1,.23.19c.13.15.18.36.4.43.07,0,.11.13.17.21a.46.46,0,0,1,.52,0c.31-.16.4.14.58.27,0,0,.09,0,.13,0a.42.42,0,0,1,.33.33,1.14,1.14,0,0,0,.17.33,1.8,1.8,0,0,1,.41.83.33.33,0,0,0,.12.19l.51.37A3,3,0,0,0,21,7.47.62.62,0,0,0,21,7.21c-.16-.33-.33-.65-.49-1a.37.37,0,0,1,0-.11c-.1-.28,0-.38.29-.33,0-.24.17-.31.36-.36a.18.18,0,0,0,.08-.09A1.39,1.39,0,0,0,20.61,4c-.22-.13-.44-.22-.68-.34a3.39,3.39,0,0,0,.3-1.4s0-.11,0-.14c-.15-.2,0-.37.05-.54a6.25,6.25,0,0,1,.46-.79c-.05.18-.08.36-.14.53a.21.21,0,0,0,.13.32A2.26,2.26,0,0,0,20.34,3a1,1,0,0,0,.29.63c.19.18.36.14.42-.1a6.48,6.48,0,0,0,.07-.77,4.38,4.38,0,0,1,0-.51,1.64,1.64,0,0,0,0-1.09c-.21-.44,0-.74.18-1.16.11.28.21.51.3.75a.17.17,0,0,1,0,.1,1.8,1.8,0,0,0-.09,1.42,2.58,2.58,0,0,1,0,.49,5,5,0,0,0,.08.78c.06.24.24.27.42.08a1.1,1.1,0,0,0,.25-1.07A7.08,7.08,0,0,0,22,1.67c.29-.26,0-.53,0-.82.17.35.36.7.51,1.07,0,.09-.07.23-.08.35a3.24,3.24,0,0,0,.29,1.43l-.45.2a1.35,1.35,0,0,0-.76,1.52.14.14,0,0,0,.05.11,1,1,0,0,1,.41,1,1.9,1.9,0,0,1-.1.57,3.42,3.42,0,0,0,0,1.15,3.87,3.87,0,0,1-.19,1.59,2.32,2.32,0,0,0-.14.86v8.58l1.71.18c0,.15,0,.2-.17.18L18,19.05l-5-.53-5-.52-.87-.08s-.1,0-.16.08.09.1.14.11L9,18.3l3.46.37,3.33.35,3.43.36,3.36.35.62.07c0,.17,0,.24-.21.23l-1.37-.15-1.39-.15-1.85-.2-1.74-.18-1.85-.2L13,19l-1.8-.19-1.38-.14L8,18.44c-.3,0-.6-.07-.91-.09-.06,0-.12.07-.18.1a.42.42,0,0,0,.17.1l3.43.38,3,.3,3.36.37,2.59.26,2.59.28,1,.1-.07.22-1.15-.12L20,20.15l-2.22-.24L16,19.73l-2.22-.24L12,19.31l-2.22-.24-1.74-.18-1-.11a.17.17,0,0,0-.1,0s-.08.07-.12.1.06.1.1.1L8,19.1l1.86.2,1.79.18,1.78.2,1.75.18,1.84.2,1.75.18,1.84.19,1.79.19.45.05c0,.2-.09.26-.28.24-.72-.09-1.45-.16-2.17-.24l-1.79-.18-1.79-.2-1.74-.18-1.85-.2-1.74-.18-1.85-.2L7.9,19.35c-.32,0-.63-.07-1-.09-.06,0-.13,0-.19.07s.09.11.15.12l1.4.16,2.65.28,2.13.22,2.24.24,2.18.22,2.59.28,2.16.23.49.05-.06.22-1.2-.12L19.71,21l-1.85-.19-1.76-.18-1.81-.2-1.76-.18-1.83-.2L8.94,19.9l-1.83-.2a1,1,0,0,0-.24,0,.51.51,0,0,0-.16.09s.09.1.14.11l.8.09,3.52.37,3.39.35,3.37.37,3,.3,1.68.19c0,.21-.09.24-.26.22l-3.13-.33-3-.32-3-.31-2.59-.28-2.59-.27-1.15-.11c-.06,0-.13.05-.2.08s.13.11.2.12c.75.09,1.51.17,2.26.24l2.17.23,1.79.19,1.74.18,1.85.2,1.76.18,1.81.2,1.76.18.39.05c0,.22-.1.26-.28.24l-4.36-.46L14,21.38,10.25,21,7,20.65c-.06,0-.14.05-.21.08s.12.11.18.12l2.14.23,3.46.36,3.37.35,3.39.37,2.9.3.09,0c0,.15-.05.21-.2.2l-2-.19-1.85-.19-2.34-.23-2.31-.24-2.54-.27-2-.23L7,21.05l-.29,0a1,1,0,0,1-.34,1.07A1.3,1.3,0,0,1,5,22.28a1.54,1.54,0,0,1-.86-.89l-.06-.13s0,0,0,0l-.5.06Zm17.58-2.06V10.51a.65.65,0,0,1-.73-.22s0,0-.06,0L19.78,10a1.88,1.88,0,0,1-.24-.14l-.07,0,.21,1.78-.39.29-.08-.76h0l-.25,1.87h-.06c-.24-1-.21-2-.37-2.92l-.63,1.19a2.75,2.75,0,0,1-.17.29.25.25,0,0,0,.09.37,1.47,1.47,0,0,1,.32.34.44.44,0,0,1,0,.3s-.13,0-.17,0A2.17,2.17,0,0,0,18,13c0,.19,0,.42.2.55,0,0,0,.1.06.15a1.24,1.24,0,0,0,.1.2.3.3,0,0,1,0,.41.21.21,0,0,0,0,.17,1.2,1.2,0,0,1,.27,1l-.22,0c.1.24.2.47.31.7.43.92.86,1.83,1.3,2.75,0,.06.08.13.13.14ZM5.82,17c-.08.21,0,.38.13.43a.33.33,0,0,0,.4-.21A.43.43,0,0,0,6,16.7a.52.52,0,0,0-.55.41.63.63,0,0,0,.38.73.66.66,0,0,0,.74-.14.83.83,0,0,0,.25-.82A.89.89,0,0,0,6,16.15,1.06,1.06,0,0,0,5,16.71a1.69,1.69,0,0,0-.13.94,7.69,7.69,0,0,1-.32,2.9A1.1,1.1,0,0,0,5.74,22a.92.92,0,0,0,.56-1.37.68.68,0,0,0-.7-.31.58.58,0,0,0-.51.44.55.55,0,0,0,.16.59.42.42,0,0,0,.49.08A.42.42,0,0,0,6,21a.31.31,0,0,0-.37-.23c-.2.07-.21.23-.19.41a.67.67,0,0,1-.05-.31c0-.19.2-.24.36-.25a.44.44,0,0,1,.43.32.6.6,0,0,1-.16.67.68.68,0,0,1-.74.13.9.9,0,0,1-.41-1.27,3.1,3.1,0,0,0,.36-1.36c0-.55-.06-1.1-.11-1.64a.94.94,0,0,1,.4-.91.69.69,0,0,1,.82,0,.64.64,0,0,1,.26.71.53.53,0,0,1-.43.38.37.37,0,0,1-.39-.2A.28.28,0,0,1,5.82,17ZM10,11.45c-.06.08-.16.17-.15.25s.16.2.22.19a.47.47,0,0,0,.25-.23.31.31,0,0,0-.23-.38.41.41,0,0,0-.48.19.49.49,0,0,0,.08.59.59.59,0,0,0,.82,0,.69.69,0,0,0,.09-.91.82.82,0,0,0-1-.27A5.69,5.69,0,0,1,8,11.25c-.25,0-.5,0-.75,0a.79.79,0,0,0-.62.62.7.7,0,0,0,.27.7.65.65,0,0,0,.76,0A.52.52,0,0,0,7.84,12a.46.46,0,0,0-.52-.25.32.32,0,0,0-.26.39.28.28,0,0,0,.25.28c.15,0,.27-.08.26-.21s-.12-.19-.18-.26c.17,0,.29.05.29.27a.38.38,0,0,1-.49.34.53.53,0,0,1-.29-.75.73.73,0,0,1,.77-.32,3.15,3.15,0,0,0,.92,0,7.54,7.54,0,0,0,1.07-.37.62.62,0,0,1,.86.35.47.47,0,0,1-.17.53.39.39,0,0,1-.46,0,.31.31,0,0,1-.14-.37C9.79,11.47,9.89,11.41,10,11.45Zm-.89,1.06-.11,0a2.17,2.17,0,0,0,0,.26c.15.91.31,1.81.46,2.72.12.76.25,1.53.37,2.29,0,.1,0,.22.18.17-.15-.93-.28-1.84-.45-2.75S9.3,13.41,9.11,12.51Zm.3,0H9.28c0,.12,0,.25,0,.37.13.71.26,1.41.38,2.12.16,1,.31,1.92.47,2.88,0,.06.07.1.11.15l.08,0Zm-1.22.21h-.1a.55.55,0,0,0,0,.18c.17,1.06.35,2.13.52,3.19.1.56.19,1.11.29,1.67,0,.05.07.1.1.14l.06,0Zm1.5-.19-.07,0c0,.09,0,.19,0,.28.22,1.25.43,2.49.65,3.74.07.44.14.88.22,1.32a.61.61,0,0,0,.09.18l.07,0c0-.07,0-.15,0-.22l-.57-3.24-.3-1.86A1.11,1.11,0,0,0,9.69,12.52Zm-1.21.1H8.37a1.21,1.21,0,0,0,0,.19c.07.41.16.81.23,1.22.21,1.25.41,2.5.62,3.75,0,.06.08.1.12.14l.06,0ZM9.66,18a.36.36,0,0,0,0-.11l-.27-1.41c-.12-.71-.23-1.42-.34-2.13-.09-.54-.18-1.08-.28-1.63a1.11,1.11,0,0,0-.07-.16l-.07,0a2.17,2.17,0,0,0,0,.26c.05.31.11.62.16.93.23,1.35.46,2.69.7,4A.78.78,0,0,0,9.66,18Zm-1-.16.06,0a2.38,2.38,0,0,1,0-.26L7.89,13c0-.06-.07-.11-.1-.17a.65.65,0,0,0,0,.19c.09.62.2,1.24.3,1.86.16.94.33,1.88.5,2.82A.35.35,0,0,0,8.63,17.85ZM6.32,20.42a9,9,0,0,1,.24-2.53c-.13.09-.34.06-.36.29,0,.57-.11,1.15-.18,1.72C6,20.14,6,20.33,6.32,20.42ZM4.58,17H4.45c-.14,1.33-.3,2.66-.39,4h.12C4.33,19.7,4.46,18.37,4.58,17Zm3.3-4.66,0,0,1.78-.3c-.14-.06-.24-.15-.33-.14q-.6.07-1.2.21C8.07,12.22,8,12.32,7.88,12.38ZM7.07,11v.11l2.74-.49,0-.1Zm8.38-3.5L15,8.16C15.28,8.17,15.46,7.9,15.45,7.52Z"/><path class="cls-1" d="M14.69,7.52c0,.38-.17.65-.41.64Z"/></g></svg>