<svg id="ROOMS_LOGOS" data-name="ROOMS LOGOS" xmlns="http://www.w3.org/2000/svg" viewBox="0 0 28.35 22.68"><defs><style>.cls-1{fill:#fff;}</style></defs><title>AZTEC EMPRE</title><g id="AZTEC_EMPIRE" data-name="AZTEC EMPIRE"><path class="cls-1" d="M7.09,19.14l.12-.35a10.24,10.24,0,0,1-2.34-2.91A9.14,9.14,0,0,1,4,12.24a1.37,1.37,0,0,1,.07.29,2.17,2.17,0,0,0,1.51,1.86,1.23,1.23,0,0,0,.71,0c.33-.08.66-.22,1-.35V12.82l-.6-.09c-.31.32-.09.53.24.8a2.35,2.35,0,0,1-.75,0,2.09,2.09,0,0,1-1.24-3.1A1.36,1.36,0,0,1,6.34,10c.28.08.56.19.86.29l.38-1.06C7,9.4,6.53,8.63,5.9,9c-.58-.41-1.06.18-1.66.16L3.9,11l-.12,0a16.79,16.79,0,0,1,.56-2.55A18,18,0,0,1,5.86,5.22,6,6,0,0,1,7.29,3.91c.52-.44,1.06-.85,1.6-1.25a3.46,3.46,0,0,1,.63-.34c.36-.17.74-.33.86-.8l.06.34A10.14,10.14,0,0,1,24.27,12.07c0-.51-.06-1-.13-1.52a1.67,1.67,0,0,0-2.36-1.22,8.5,8.5,0,0,1-.82.36c-.27.11-.56.19-.9.3l.16.89c.57-.19,1.08-.38,1.61-.54a1.18,1.18,0,0,1,1.69,1.05c0,.12.09.24.14.39l-.28.58-.92.08.25.31-.06.08-.23-.17-.34.71.53,0a1.58,1.58,0,0,1-1.87-.13l-.21-.7-.65.55L20,12l-.11,0-.57.7.31.13c-1-.09-1.57.26-1.72.72a1,1,0,0,0,.58,1.47,1.21,1.21,0,0,0,1.64-.52.07.07,0,0,0,0,0c-.43.54-.06.89.28,1.27a10.58,10.58,0,0,1,.74.89c.19.25.28.51-.08.78l-.54-.61c-.58.2-.6.31-.18,1.26l.43-.33.08.1-1,.8-.11-.06A.75.75,0,0,0,20,17.5c-.17-.4-.43-.35-.75-.26s-.49.21-.75.28a6.39,6.39,0,0,1-.85.11l.53.27c-.17.43.39.55.45,1-.29-.33-.52-.57-.73-.83s-.42-.54-.63-.83c-.13.06-.27.11-.4.18s-.28.3-.11.52c.51.68,1,1.37,1.53,2a.63.63,0,0,0,.6,0,10,10,0,0,0,1.84-1.16,19.27,19.27,0,0,0,1.83-2c.12-.15.11-.41.2-.6a1.18,1.18,0,0,1,.26-.29l-.17-.13c.59-.51.61-.61.31-1.31a.46.46,0,0,1,.06-.34c.32-.46.65-.9.94-1.31a.47.47,0,0,1,0,.19,8,8,0,0,1-1.05,3.1,9.5,9.5,0,0,1-1.88,2.48c-.08.07-.1.2-.13.26-.26.18-.51.36-.78.53a14.32,14.32,0,0,1-2.52,1.48,17.45,17.45,0,0,1-3.31.64,6.4,6.4,0,0,1-1.9.08,8.92,8.92,0,0,1-4.73-2.24l-.34-.3a.3.3,0,0,0-.48,0ZM6.32,8.71l1,.4L7.39,9l-.72-.65-.36.39c.2-.71.16-.9-.34-1.15-.29-.14-.61-.24-.92-.36-.06.1-.14.21-.2.32a.8.8,0,0,0,.72,1.21Zm3.57-.3-.31-.36L8.82,9.11C9.32,9,9.68,9,10,8.89c.07,0,.11-.14.16-.21a1.58,1.58,0,0,0,1.37-.09v.17l.78,0-.28-.67-.44.47a1.56,1.56,0,0,0,.16-1.39,6.42,6.42,0,0,1,3.37,0H12c.13.44.14.44.44.38a5.29,5.29,0,0,1,1.11-.15c.71,0,1.42.11,2.15.18.08-.25-.06-.92-.29-1s-.65-.3-.88.15c-.07-.42-.41-.31-.66-.3s-.65.23-.88.13c-.56-.25-.94,0-1.42.22l.27.35a1,1,0,0,0-1.59.07C9.73,7.66,9.66,7.8,9.89,8.41ZM5.31,16c0,.06-.12.15-.11.18a2.33,2.33,0,0,0,.27.4l1,1.17.11-.1c-.3-.4-.85-.66-.78-1.3.41.39.75.83,1.13,1.24.66.72,1.31,1.46,2,2.14.48.46.7.41,1.14,0,.13-.14.3-.25.44-.38.49-.45,1-.9,1.46-1.37a.93.93,0,0,0-1.37.22,4.13,4.13,0,0,1-.75.62l-.13-.17,1.18-1-.1-.13L9.9,18l-1.3.24c-.34-.41-.75-.92-1.18-1.41a.6.6,0,0,1,.06-1c.22-.2.46-.39.69-.58l-.6-.55L6,16a.47.47,0,0,1-.69,0c.2,0,.47,0,.59-.11a13.81,13.81,0,0,0,1-1.14l-2-.2V15l-.23-.11L4.62,15ZM9,3.14a1.36,1.36,0,0,0-.5,0,7.94,7.94,0,0,0-2.88,3c-.34.61-.29.77.29,1.17L7.83,8.7c.68-.81.68-.81.68-1.22H7.93l.22.3-.1.1L6.52,6.77A5.18,5.18,0,0,1,8.37,4.48a.4.4,0,0,1,.6,0,5.8,5.8,0,0,1,.91.79,1,1,0,0,0,1.6.28c.18-.13.53-.09.63-.24A17.63,17.63,0,0,0,13,3.82c-.92,0-.93,0-1,.5h.49c-.45,0-.82.15-.93.7l-.1-.08.07-.49-1.06.16.64.6L11,5.34l-.84-1c.17-.14.32-.22.51,0,.07.07.3,0,.45,0a6.5,6.5,0,0,0,.7-.22c.06-.53.73-.88.82-1.53l-.27-.11c0-.09.11-.18.09-.24a.77.77,0,0,0-1-.32,4.9,4.9,0,0,1-.67.26,3,3,0,0,0-.52.21c-.22.11-.43.25-.64.38Zm4,11.42c.36,0,.72-.28,1.09,0,0,0,.1,0,.16-.05.42-.08.85-.16,1.28-.21a5.33,5.33,0,0,0,1,0,3.07,3.07,0,0,0,.7-.49l.35.51.18-1c-.19.06-.34.12-.49.15A1.82,1.82,0,0,1,15,12.65c-.07-.11,0-.33,0-.5.06.17.07.39.18.5A2.24,2.24,0,0,0,18.6,12,1.28,1.28,0,0,0,17.54,10l.39.24a8.55,8.55,0,0,0-1.25-.18,9.11,9.11,0,0,0-1.27.13l0-.06.82-.25a4.09,4.09,0,0,0-.82-.16c-.28-.05-.49,0-.5.31s.13.5.45.47.78-.18,1.17-.21a2.4,2.4,0,0,1,1,.09.88.88,0,0,1,.19,1.49c-.85.67-1.26.68-2.25,0l-.15-.08-.36.32-.41-.79.63-.58c-.34-.25-.73-.5-.46-1H13.27v.49c-.08-.43-.31-.55-.73-.52-.76.06-1.52.07-2.28.09A1.13,1.13,0,0,0,9,10.8a.4.4,0,0,1-.1.24c-.38.35-.2.72,0,1.08,0,0,.05,0,.08,0L9,11.68l.25.62-.47,0A1.25,1.25,0,0,0,7.61,13a1.31,1.31,0,0,0,.3,1.57,1.07,1.07,0,0,0,1.71-.14,6.89,6.89,0,0,0,.38-1.1,7.33,7.33,0,0,0,1.24,0,7.84,7.84,0,0,0,1.21-.41,1.86,1.86,0,0,1-.69.62c-.56.21-1.16.33-1.81.5l0,.31a4.08,4.08,0,0,1,.75-.13.79.79,0,0,1,.52.26c.17.23-.3.73.36.8l-.36,0,.11.76c-.5-.06-.58-.14-.64-.68,0-.29-.08-.58-.12-.88l-.73.1a1.16,1.16,0,0,0-.1.36c0,.29,0,.67.15.84A4.29,4.29,0,0,0,12,16.92c.29.07.39,0,.36-.32s-.09-.8-.13-1.2l-.35-.12v0h1.31L13,14.56ZM23.37,7.91c0-.09.12-.22.09-.27-.34-.52-.45-1.14-1-1.59a21.16,21.16,0,0,1-1.84-1.94c-.12-.12-.29-.19-.4-.31s-.26-.43-.44-.52a1.63,1.63,0,0,0-.64-.07,1.85,1.85,0,0,0-.23-.36,6.22,6.22,0,0,0-.72-.64A1.12,1.12,0,0,0,17.65,2a2.19,2.19,0,0,0-.64.19c.06.64,0,.67-.39.78.3-.71.38-1.15-.83-1.09a1.28,1.28,0,0,1-.85-.22c-.4-.39-.84-.19-1.26-.22a.26.26,0,0,0-.23.11c-.23.48-.44,1-.68,1.51l1-.07L12.31,5.33c1,.1.93-1,1.62-1.24a8.55,8.55,0,0,1,.63.8,1.14,1.14,0,0,0,.68.51c.67.21,1.33.5,2,.73a.45.45,0,0,0,.38,0,5.91,5.91,0,0,0,.82-.76A1.75,1.75,0,0,1,20,4.57l1.63,1.77L21,6.58l0-.35-.16,0,.06.58.52-.08.34.21-1.63,1.9L20,8.75c.35-.42.7-.83,1-1.26a.43.43,0,0,0,.09-.34c0-.07-.19-.09-.3-.13l0,.07.14.16-.58-.15c-.09.29-.17.63-.3,1,0,.06-.27,0-.41,0l0-.27.41-.2-.1-.6-.59.59L18.84,7l-.1.08,1.4,2.68c.46-.38.94-.81,1.47-1.19s1.08-.71,1.66-1.09c.05.17.08.3.12.42a3.07,3.07,0,0,0-.63.18,2.81,2.81,0,0,0-.48.44l-.66.59c.34,0,.79,0,1.24,0s.75.07.86-.27A.75.75,0,0,0,23.37,7.91ZM15,15.35l-.1,0c0,.32-.11.64-.15,1-.06.48-.16.61-.54.62a.81.81,0,0,0,.45-.94c0-.26-.08-.56-.45-.65l-.28,1.28c.08-.76-.17-1.27-.66-1.19v.61l-.35-.68-.17.66-.14-.65h-.12c0,.13-.06.26-.07.39a8.46,8.46,0,0,0,.95,3.54c.17.44.51.85,0,1.34l-.06-.56c-.41-.46-.7.25-1.1.15.09-.52-.32-.47-.5-.57l-.51.38-.09-.1.19-.56-.13-.07-.64.75c.83.73,3.11,1.21,3.52.92a4.35,4.35,0,0,0,1.08,0c.74-.19,1.47-.43,2.2-.69.18-.06.47-.27.45-.34a2.48,2.48,0,0,0-.42-.67l-.22.64c-.44-.29-.74-.05-1,.21a.44.44,0,0,1-.29.12c-.25-.05-.49-.14-.72-.21l-.24.62L14.28,20a2.91,2.91,0,0,1-.23.2l-.22.15a11.7,11.7,0,0,0,1.83-4.28l-.08.87a5.36,5.36,0,0,0,2.29-1.26l-.24-1.23c-.55,0-.62.07-.69.58a4.1,4.1,0,0,1-.16.79c0,.09-.18.15-.27.23.06-.94-.5-.69-1-.69l.31-.12a2.28,2.28,0,0,0-.06-.39,1,1,0,0,0-.18-.3,1.27,1.27,0,0,0-.46.28c-.07.1-.08.4,0,.42.38.18.14.43.12.64Zm4.91-3.58H20a5.67,5.67,0,0,1-.05-.58A5.41,5.41,0,0,0,18,6.86a6.4,6.4,0,0,0-8-.16,5.75,5.75,0,0,0-2.37,5.85A1.27,1.27,0,0,0,7.78,12c0-.26,0-.53,0-.79A5.9,5.9,0,0,1,10.21,7a4.76,4.76,0,0,1,3.55-1H13l-.07.48a2.49,2.49,0,0,1,.62-.24,2.3,2.3,0,0,1,.57.08,4.85,4.85,0,0,0,.55.09s.13-.21.1-.25a1.41,1.41,0,0,0-.33-.23,4.73,4.73,0,0,1,3.84,1.87A6.82,6.82,0,0,1,19.87,11.77ZM19.32,10l.1-.09a3.09,3.09,0,0,0-.69-.37,23,23,0,0,0-2.31-.45,25.3,25.3,0,0,0-3.24-.28,17.14,17.14,0,0,0-4.34.42.55.55,0,0,0-.49.59A26.5,26.5,0,0,1,19.32,10Zm-.41-.61c-.27-.44-.46-.78-.69-1.09s-.4-.35-.5-.57a1,1,0,0,0-1-.63.94.94,0,0,0-.87,1,4.26,4.26,0,0,0,.16.53l-.52-.46-.16.61,2,.1C17.69,9.31,18.29,9.2,18.91,9.43Zm-6.6-1.76a6,6,0,0,1,.06.66c0,.31.13.41.44.41.69,0,1.39,0,2.09,0,.08,0,.22,0,.25-.11a10.07,10.07,0,0,0,.41-.92A7.59,7.59,0,0,0,12.31,7.67ZM17.1,19.08c-.24-.26-.43-.64-.65-.65a4.94,4.94,0,0,0-1.29.23.22.22,0,0,0-.14.11L14.19,20A8.25,8.25,0,0,0,17.1,19.08Zm-1.65-1.76.11.13a7.11,7.11,0,0,0,3.31-2.23c-.32-.22-.47-.1-.62.1a4.09,4.09,0,0,1-.61.7,5,5,0,0,1-1.92,1.06C15.62,17.11,15.54,17.24,15.45,17.32Zm-2,2.52c-.56-1.18-1.46-1.45-2-.66ZM9,15.28l-.1.15a5.49,5.49,0,0,0,3.43,2,.85.85,0,0,0-.41-.35,5.32,5.32,0,0,1-2.55-1.48A2.8,2.8,0,0,0,9,15.28ZM12.31,3.71c.85,0,.93,0,1.12-.6C12.59,3,12.54,3.05,12.31,3.71Zm3.25,2.75.27,1,.93-.49Zm-1.64,8.85.16-.15a2,2,0,0,0-.26-.55c-.05,0-.32,0-.41.09s-.15.29-.22.45Zm1,0c.09-.34,0-.63-.33-.66s-.47.28-.51.61ZM8.5,10.53H8.34c0,.48,0,1,0,1.45,0,0,.1.11.15.16s.12-.1.12-.14C8.58,11.51,8.54,11,8.5,10.53Zm5.32-6-.51.7h.9ZM10.25,17.31l.15.1c-.38.11-.79-.44-1.17.12l.28.28.32-.45.06.52-.19-.27ZM17.82,11a1,1,0,0,0-1.37-.46ZM18,20.62l0,0,0,0c-.32.05-.65.09-1,.17a2.14,2.14,0,0,0-.53.25l.07.15Zm4.21-7.69h-.93c-.06,0-.11.09-.17.14a1.21,1.21,0,0,0,.16.16C21.65,13.46,21.87,13.08,22.17,12.93ZM8.31,17.29c-.11.19-.11.19.36.78l.54-.25-.29-.24v.29ZM15.9,15.2l.11.12c.13,0,.37,0,.38-.1a2.9,2.9,0,0,0,0-.66l-.21,0Zm2.78-2.82a1,1,0,0,0,.24-1.17Z"/><path class="cls-1" d="M7.09,19.14c-.07.07-.13.15-.2.23,3.86,3.78,12.65,5,17.36-3.22-.28.54-.55,1.09-.86,1.6a11.16,11.16,0,0,1-3.73,3.66,7.1,7.1,0,0,1-3.43,1.13,22.4,22.4,0,0,1-2.58.13,19.75,19.75,0,0,1-2.85-.49,8.71,8.71,0,0,1-3-1.55,8.94,8.94,0,0,1-2.89-3c-.62-1.15-1.06-2.39-1.57-3.59a.56.56,0,0,1,0-.36,11.11,11.11,0,0,0,1.58,3.42c.41.62.89,1.19,1.35,1.77a.62.62,0,0,0,.8.25Z"/><path class="cls-1" d="M21.25,3.09l-.72-.51L20.37,3c.16-.71-.44-.83-.82-1A10.39,10.39,0,0,0,14.24.54a.82.82,0,0,1-.22,0V.4c.35,0,.7,0,1.05,0a10.44,10.44,0,0,1,6.08,2.51.76.76,0,0,1,.09.18Z"/><path class="cls-1" d="M20.39,14.1l2.15.51v-.14l-.6.61c-.1-.29-.33-.39-.84-.29l.36.53-.1.09-1.08-1.18Z"/><path class="cls-1" d="M21.24,3.1c.31.23.65.43,1,.68a8.69,8.69,0,0,1,2.23,3.88l-.46-1a8.39,8.39,0,0,0-2.5-3.36,2.18,2.18,0,0,1-.21-.22Z"/><path class="cls-1" d="M18.7,14.38c-.23-.25-.42-.48-.22-.79a.93.93,0,0,1,1.14-.16c.09.05.12.22.22.42C19.14,13.64,18.68,13.88,18.7,14.38Z"/><path class="cls-1" d="M10.25,1.21,7.58,2.7A6.66,6.66,0,0,1,10.25,1.21Z"/><path class="cls-1" d="M25.33,11.77l-.15-.43-.19.31.17-1v1.25Z"/><path class="cls-1" d="M13.82,4.48l.39.7h-.9Z"/><path class="cls-1" d="M17.82,11l-1.37-.46A1,1,0,0,1,17.82,11Z"/><path class="cls-1" d="M18.68,12.38l.24-1.17A1,1,0,0,1,18.68,12.38Z"/><path class="cls-1" d="M16.77,5.29c.49-.54.91-1,1.36-1.46.15-.16.37-.24.49-.4L16.7,5.5a3.57,3.57,0,0,0-.33-.71,2.63,2.63,0,0,0-.55-.41l-.08.09.49,0-.31-.49c.16-.34-.16-.66-1.1-.91h.79l-.2-.57.08-.08a2.28,2.28,0,0,1,.32.39c.18.37.08.83.52,1.12.15.1.12.48.19.73S16.65,5,16.77,5.29Z"/><path class="cls-1" d="M14.24,2.52,15,3.78l-.09.06-.77-1.27Z"/><path class="cls-1" d="M12,10.33l1.09.25-.28.16c.12.18.34.36.36.56a.67.67,0,0,1-.27.56,13.53,13.53,0,0,1-1.63.54,2.09,2.09,0,0,1-.66.06l.28-.11a3,3,0,0,1-.57-.31.67.67,0,0,1-.2-.84,1.18,1.18,0,0,1,1-.76c.33,0,.67,0,1,0,0,0,0-.06-.07-.12Z"/><path class="cls-1" d="M14.55,13.37c0,.68-.23.87-.92.83s-.78-.34-.7-.94a1.47,1.47,0,0,1,.08-.35c.1-.37.25-.73.7-.75s.63.33.77.69A2.84,2.84,0,0,1,14.55,13.37Z"/><path class="cls-1" d="M12,10.32a6.83,6.83,0,0,0-1.28,0c-.41.09-.93-.05-1.19.51a1.31,1.31,0,0,0,.73,1.74,2.27,2.27,0,0,0,1.77,0,2,2,0,0,1-1.89.21,1.34,1.34,0,0,1-.84-1.43,1.62,1.62,0,0,1,.49-.94,2.74,2.74,0,0,1,2.67-.26L11,10.07l1,.26Z"/><path class="cls-1" d="M9.06,12.76c.41.51.49.91.27,1.24a.62.62,0,0,1-.78.33,1,1,0,0,1-.48-.67C8,13,8.58,12.9,9.06,12.76Zm-.45.71a.22.22,0,0,0,0,.11c0,.13,0,.27-.05.41a3.66,3.66,0,0,0,.57,0c.05,0,.12-.16.13-.25s-.11-.11-.18-.15S8.78,13.54,8.61,13.47Z"/><path class="cls-1" d="M13,14.56c-.37-.17-.66-.16-.73.37l-.13-.06c0-.12,0-.28.05-.33.26-.23.55-.38.8,0Z"/><path class="cls-1" d="M14.41,17.41c.47.25.49.51.12,1.09,0-.06-.09-.16-.15-.17-.82-.2-.82-.2-.75-1l.79.09-.18,0-.08.46-.15,0,0-.41c-.18,0-.34.14-.35.25a.48.48,0,0,0,.18.4c.16.08.46.13.55.05A.52.52,0,0,0,14.41,17.41Z"/><path class="cls-1" d="M9,3.16l.57,0,.56,1.13Z"/><path class="cls-1" d="M15.68,12.63a2.45,2.45,0,0,0,2.11-.27A1.57,1.57,0,0,1,15.68,12.63Z"/><path class="cls-1" d="M17,8.33l.17-.27L16.37,8c-.08-.19.07-.39.32-.41a2.1,2.1,0,0,1,.7.19l-.26.66Z"/><path class="cls-1" d="M10.86,8.41a.55.55,0,0,1-.61-.51c0-.26.38-.54.72-.55a.45.45,0,0,1,.52.46A.59.59,0,0,1,10.86,8.41Zm-.48-.51c.38.49.52.48.89.07C11,7.24,10.73,8.1,10.38,7.9Z"/><path class="cls-1" d="M5.46,8.3l.26.17-.12.11c-.1-.12-.27-.25-.28-.38s.15-.28.23-.42l.5.44L6,8.29l-.49-.07Z"/></g></svg>