<svg id="ROOMS_LOGOS" data-name="ROOMS LOGOS" xmlns="http://www.w3.org/2000/svg" viewBox="0 0 28.35 22.68"><defs><style>.cls-1{fill:#fff;}</style></defs><title>CHOCOLATE FACTORY</title><g id="CHOCOLATE_FACTORY" data-name="CHOCOLATE FACTORY"><path class="cls-1" d="M22.67,1.32a5.33,5.33,0,1,1-7.39.85A5.28,5.28,0,0,1,22.67,1.32ZM22.6,2A5.39,5.39,0,0,0,19.46.64a5.19,5.19,0,0,0-5,3.68c0,.15-.13.34.06.42s.23-.15.31-.27a18,18,0,0,1,1.25-1.84,4.13,4.13,0,0,1,2.41-1.21,4.08,4.08,0,0,1,3.79,1.23,3.69,3.69,0,0,1,1.24,2.58,4.26,4.26,0,0,1-1.47,3.48,3.61,3.61,0,0,1-5.24-.44,3,3,0,0,1,1-4.74A2.38,2.38,0,0,1,21.23,4.7,2.05,2.05,0,0,1,21,7a1.75,1.75,0,0,1-2.09.48,1.49,1.49,0,0,1-.93-1.59,1.17,1.17,0,0,1,1.27-1,.82.82,0,0,1,.64,1.27.47.47,0,0,1-.49.26c-.41-.05-.55-.36-.32-.71A.31.31,0,0,0,19,5.23a.3.3,0,0,0-.46.06,1,1,0,0,0-.19,1,1.09,1.09,0,0,0,1.16.75,1.35,1.35,0,0,0,1.12-1,1.55,1.55,0,0,0-1.87-1.86,1.77,1.77,0,0,0-1.4,1.34,1.89,1.89,0,0,0,.51,2A2.49,2.49,0,0,0,22,6.2a3.09,3.09,0,0,0-2.26-3.52,3.7,3.7,0,0,0-4.19,2.45A4.09,4.09,0,0,0,17,9.43a3.93,3.93,0,0,0,3.19.81,4.75,4.75,0,0,0,4-4.76A4.34,4.34,0,0,0,22.6,2Z"/><path class="cls-1" d="M15.13,9.06l1,1-1.25,1.27-3.2,3.27-2.57,2.6a1.64,1.64,0,0,1-.31.28.54.54,0,0,1-.35.06.88.88,0,0,1-.7-.83.54.54,0,0,1,.13-.35c.63-.65,1.27-1.29,1.91-1.93l2.5-2.56L15,9.2Z"/><path class="cls-1" d="M12.17,12.35c.13.28.24.55.38.81a.39.39,0,0,0,.43.18l2-.27c.18,0,.26,0,.31.24l-1.06.15-.93.13a1.61,1.61,0,0,1-.37,0,1.48,1.48,0,0,0,.44.9.34.34,0,0,0,.25,0c.66-.08,1.31-.16,2-.26.19,0,.33,0,.4.23l-.83.14L14,14.75a2,2,0,0,1-.41,0c0,.07.05.18.09.29.24.67.33.72,1,.62.54-.08,1.08-.14,1.62-.23.17,0,.26,0,.29.19a6.45,6.45,0,0,1-2.35.23,1.64,1.64,0,0,0,.36.88c.12.17.29.14.45.12L17,16.55c.18,0,.31,0,.37.23l-1.08.15-1,.13a1.72,1.72,0,0,1-.35,0,1.82,1.82,0,0,0,.44.89.43.43,0,0,0,.32.06c.65-.07,1.3-.15,1.94-.25.18,0,.29,0,.37.23-.4,0-.79.13-1.18.16s-.77.24-1.21,0A1.87,1.87,0,0,0,16,19a.58.58,0,0,0,.37.08l1.89-.26c.19,0,.33,0,.39.25-.78.08-1.55.26-2.35.27.07.18.14.42.25.65a.44.44,0,0,0,.51.26c.63-.1,1.26-.17,1.89-.26.17,0,.31,0,.4.19a1.51,1.51,0,0,0-.44-1,2.58,2.58,0,0,1-.26-.43L18.16,18c0-.06-.11-.12-.12-.18a1.86,1.86,0,0,0-.58-1,.26.26,0,0,1-.09-.14,1.85,1.85,0,0,0-.58-1,.44.44,0,0,1-.1-.19,1.84,1.84,0,0,0-.58-1,.44.44,0,0,1-.1-.16,1.31,1.31,0,0,0-.2-.5A10.12,10.12,0,0,1,15,12.44a.53.53,0,0,0-.63-.26c-.6.11-1.21.18-1.82.25A1.4,1.4,0,0,1,12.17,12.35Z"/><path class="cls-1" d="M13.24,9.71a1.61,1.61,0,0,0-.54-1,.48.48,0,0,1-.12-.21,1.91,1.91,0,0,0-.53-.91.4.4,0,0,0-.28-.08l-2,.26a.89.89,0,0,1-.32-.05c.22.93.35,1,1.3.89l1.42-.2c.17,0,.28,0,.32.24l-1.15.17c-.29,0-.59.09-.88.11a1.25,1.25,0,0,1-.32-.05,1.4,1.4,0,0,0,.42.89.45.45,0,0,0,.35.06c.61-.07,1.21-.16,1.82-.24C12.94,9.52,13.13,9.48,13.24,9.71Z"/><path class="cls-1" d="M8,10.88c0-.06.06-.13,0-.17A2.83,2.83,0,0,0,7.66,10a1.64,1.64,0,0,1-.37-.67c0-.1-.09-.19-.14-.29a.71.71,0,0,0-.92-.43,12.15,12.15,0,0,1-1.62.24,1.87,1.87,0,0,1-.32,0c.08.22.16.47.27.71s.3.26.54.23c.62-.1,1.25-.18,1.87-.27.17,0,.31,0,.35.25L5.83,10c-.17,0-.33.06-.49.07a3.89,3.89,0,0,1-.44,0,7,7,0,0,0,.41.82A.5.5,0,0,0,5.7,11c.66-.07,1.31-.17,2-.26.16,0,.27,0,.3.19Z"/><path class="cls-1" d="M6.6,4.47c-.22-.14-.43,0-.62,0a1.45,1.45,0,0,0-.9.81h0c.15.18.29.37.45.54.36.39.74.76,1.1,1.14a1.56,1.56,0,0,1,.15.34s0,0,0,0a2.82,2.82,0,0,0,.74-1.2c.16-.6.4-1.18.58-1.77.09-.28.3-.23.56-.28C8.53,4,8.46,4,8.37,3.94A2,2,0,0,0,7,4.11a2.3,2.3,0,0,0-.41.36s.09.08.1.13c.13.72.26,1.43.37,2.15,0,.08,0,.18-.08.27L6.9,7,6.27,4.71Z"/><path class="cls-1" d="M8,10.88c-.21,0-.42.11-.64.14-.46.08-.93.15-1.4.2a1.21,1.21,0,0,1-.31-.06,1.43,1.43,0,0,0,.4.9.6.6,0,0,0,.38,0c.63-.07,1.26-.17,1.89-.25a1.17,1.17,0,0,1,.36.08V12L8,12.15l-1.43.19a1.64,1.64,0,0,1-.37-.05,1.84,1.84,0,0,0,.49,1,.44.44,0,0,0,.29.11,1.78,1.78,0,0,0,1.49-.65.92.92,0,0,0,.14-1A1.62,1.62,0,0,0,8,10.88Z"/><path class="cls-1" d="M17,20.51c.11.24.21.51.35.76a.39.39,0,0,0,.44.2l2-.28c.17,0,.29,0,.3.24l-1.2.17c-.27,0-.54.09-.81.12a1.63,1.63,0,0,1-.35,0,1.55,1.55,0,0,0,.53.94.9.9,0,0,0,1,0,2.32,2.32,0,0,0,.89-.84c.18-.27,0-.51-.06-.75a1,1,0,0,0-.15-.31c-.23-.4-.34-.45-.79-.38l-1.67.22A2.35,2.35,0,0,1,17,20.51Z"/><path class="cls-1" d="M8.1,6.57a.86.86,0,0,0,.8.09L10.68,6c.17-.08.29-.06.4.16a22.46,22.46,0,0,1-2.21.8.68.68,0,0,0,.86.52c.57-.07,1.14-.14,1.72-.23.16,0,.32,0,.38.19l.06-.06a3.18,3.18,0,0,0-.21-.54c-.15-.23-.34-.44-.51-.67L11.09,6c-.19-.31-.35-.64-.57-.93s-.24-.23-.47,0c-.46.4-.92.82-1.38,1.21A5.5,5.5,0,0,1,8.1,6.57Z"/><path class="cls-1" d="M6.48,7.87a.29.29,0,0,0,.09-.53L4.78,5.66l.29-.33h0a1.43,1.43,0,0,0-1,.68,2.49,2.49,0,0,0-.16.33c-.11.4,0,.61.4.72l2,.54c.16.05.2.12.15.27Z"/><path class="cls-1" d="M13.9,10.91s0-.09,0-.12a3.17,3.17,0,0,0-.2-.51.73.73,0,0,0-.89-.45,15.64,15.64,0,0,1-1.67.25A1.55,1.55,0,0,1,10.8,10a6,6,0,0,0,.42.84.47.47,0,0,0,.4.11c.6-.06,1.21-.16,1.82-.24.19,0,.38-.07.46.18Z"/><path class="cls-1" d="M13.9,10.91a1.17,1.17,0,0,1-.26.1c-.6.09-1.2.18-1.81.25a.69.69,0,0,1-.29-.09c.09.25.17.5.28.75a.43.43,0,0,0,.49.24c.61-.1,1.22-.17,1.84-.26.18,0,.35-.06.47.15a1.55,1.55,0,0,0-.72-1.14Z"/><path class="cls-1" d="M7.46,6.79a2.51,2.51,0,0,0,.46-.24C8.49,6,9,5.48,9.6,4.93c.18-.17.34-.37.63-.16a1.56,1.56,0,0,0-1.3-.71.33.33,0,0,0-.36.24l-.9,2.07c-.06.13-.15.25-.22.37Z"/><path class="cls-1" d="M6.49,7.87l-1-.2c-.44-.1-.87-.21-1.31-.3-.1,0-.21,0-.31,0A1.8,1.8,0,0,0,4,8.36a.38.38,0,0,0,.45.26c.61-.1,1.22-.17,1.84-.26.19,0,.36-.06.45.19a.5.5,0,0,0-.21-.68Z"/></g></svg>