<svg xmlns="http://www.w3.org/2000/svg" id="ROOMS_LOGOS" data-name="ROOMS LOGOS" viewBox="0 0 28.35 22.68">
  <defs>
    <style>.cls-1,.cls-2{fill:#fff;}</style>
  </defs>
  <g id="HORROR_CIRCUS">
    <path class="cls-1" d="M10.81,14a1.76,1.76,0,0,0,0,.85.42.42,0,0,0,0,.1L11,15s0-.06,0-.09,0-.14-.05-.21a1.37,1.37,0,0,1,.13-.77,3.45,3.45,0,0,1,.14.34,16.15,16.15,0,0,1,.4,1.7c.08.39.2.76.31,1.15a2.88,2.88,0,0,0,.78,1.35,1.3,1.3,0,0,0,.18.15,6.35,6.35,0,0,0,1,.56,2.5,2.5,0,0,0,.71.15h.69A3.6,3.6,0,0,0,16.87,19l.36-.18a1.93,1.93,0,0,0,.7-.69,3.53,3.53,0,0,0,.48-1.21c.08-.35.19-.7.26-1.05a11.74,11.74,0,0,0,.27-1.46,4.28,4.28,0,0,1,.07-.48l.21,0a3.19,3.19,0,0,1,.1,1l.05-.06a2,2,0,0,0,.15-.72,1.48,1.48,0,0,0,0-.19c.14,0,.18.17.23.28.08-.09,0-.31-.2-.52l.19.09a.17.17,0,0,1,.12.19.14.14,0,0,0,0,.07,0,0,0,0,0,0,0l0,0c0-.09,0-.17,0-.26l-.41-.19,0,0,0,.06a1,1,0,0,0-.64-.1c-.22,0-.44,0-.66.07a2.91,2.91,0,0,1-.78,0,.63.63,0,0,1-.43-.21s-.05,0-.07,0,0,.06,0,.08l.15.19.11.13a.92.92,0,0,0,.61.26s0,0,0,0a1.39,1.39,0,0,1-.69.45,3.15,3.15,0,0,1-.43.05,1.86,1.86,0,0,0-.86.25,1.15,1.15,0,0,1-1.2,0,2,2,0,0,0-.93-.22,1.38,1.38,0,0,1-.93-.33L12.34,14a1.47,1.47,0,0,0,.74-.26l.2-.16a.34.34,0,0,0,.12-.34.17.17,0,0,1,0-.1c0,.14,0,.29.07.43a1.39,1.39,0,0,0,.59.87l.18.12s.06.07.09.09a1.34,1.34,0,0,0,1,.26.85.85,0,0,0,.62-.44s0-.05.08-.07a2.06,2.06,0,0,0,.68-.81,1.36,1.36,0,0,0,.06-.93l-.06-.2a2.69,2.69,0,0,0,.32.13,1.2,1.2,0,0,0,.93,0c.28-.14.56-.3.83-.47a1.79,1.79,0,0,1,.84-.25l.21,0c-.1-.13-.43-.14-.76,0a1.86,1.86,0,0,0,.44-1,1.76,1.76,0,0,0-.2-1.07.63.63,0,0,1,.18.06.52.52,0,0,0,.69-.2.73.73,0,0,0,.09-.71s0-.05,0-.08h0a.41.41,0,0,0,0,.11.32.32,0,0,1-.17.33.84.84,0,0,1-.77,0,5.39,5.39,0,0,0-.64-.22.81.81,0,0,0-.67.18,4.5,4.5,0,0,0-.77.74c-.14.16-.28.33-.43.49a2.65,2.65,0,0,1-.26.21,1.81,1.81,0,0,1-.21.18.56.56,0,0,1-.78-.08.32.32,0,0,1-.07-.31,3.28,3.28,0,0,1,.27-.74,1.08,1.08,0,0,1,.11-.18l0-.05,0,0a3.73,3.73,0,0,0-.23.37,7.51,7.51,0,0,0-.27.75,1.55,1.55,0,0,0,0,.43.19.19,0,0,1,0,.07v-.16H15c-.14,0-.16-.06-.17-.2a2.33,2.33,0,0,0-.21-.68,1,1,0,0,0-.12-.26l.24.88h0l0,0,0,.06a.43.43,0,0,1-.57.27,1.05,1.05,0,0,1-.51-.42.61.61,0,0,0-.07-.1h0l.06.11v0l-.18-.13,0,.09,0,0-1-1.14A1.5,1.5,0,0,0,11.89,9a1,1,0,0,0-.6,0s0,0,0,0a1.72,1.72,0,0,0-.56.34.1.1,0,0,0,0,.05s0,0-.05.06a.68.68,0,0,1-.59,0c-.11-.06-.1-.15-.11-.24a1.45,1.45,0,0,1,.45-1.12,1.89,1.89,0,0,1,.81-.52h0v0a2,2,0,0,0-.84.34,1.62,1.62,0,0,0-.52.74h0A4.11,4.11,0,0,1,10,8.15,5.29,5.29,0,0,1,12.08,5.6a5.41,5.41,0,0,1,1.19-.51,6.49,6.49,0,0,1,2.38-.38,6.79,6.79,0,0,1,.89.12,3.47,3.47,0,0,1,.95.23c.32.16.62.35.92.53A4.2,4.2,0,0,1,19.77,7a4.43,4.43,0,0,1,.62,1.32,5.74,5.74,0,0,1,.13,1.24c0,.44,0,.89,0,1.34a.64.64,0,0,1-.06.18c-.05.09-.05.09,0,.18l-.06,0a.31.31,0,0,0-.07-.09s0,0-.06,0,0,.06,0,.08.12.25.17.38a2.38,2.38,0,0,1,.15.64,3.43,3.43,0,0,1-.28,1.61l-.17.41a4.25,4.25,0,0,1-.49.78.43.43,0,0,0,0,.07s0,0,0,.07.06,0,.07,0l.25-.3,0-.06h0l-.18.91-.24,1.26a2.22,2.22,0,0,1-.43.87,6.89,6.89,0,0,1-.92.95c-.34.3-.68.62-1,.91a2.33,2.33,0,0,1-.76.48,3.94,3.94,0,0,1-1.35.29,3.67,3.67,0,0,1-1-.19,2,2,0,0,1-.79-.49c-.53-.5-1.05-1-1.56-1.51-.29-.3-.54-.63-.82-.93a1.28,1.28,0,0,1-.27-.67c-.12-.5-.23-1-.34-1.51,0,0,0-.08,0-.14l0,.06.08,0a.19.19,0,0,0,0-.08c-.05-.11-.12-.21-.17-.31A2.92,2.92,0,0,1,10,14.2a5.13,5.13,0,0,1-.21-1c0-.24-.08-.47-.1-.71a2.38,2.38,0,0,1,.17-1.09,4,4,0,0,1,.16-.39A.15.15,0,0,0,10,11s0,0-.05,0-.11.22-.17.33l-.07.11a.86.86,0,0,1,0-.22.51.51,0,0,0,0-.25c0-.07,0-.14,0-.21,0-.23,0-.46,0-.69s.06-.69.08-1h0c0,.11,0,.22,0,.33a.62.62,0,0,0,.33.48.33.33,0,0,0,.37,0,.84.84,0,0,1,.21-.11,1.31,1.31,0,0,0,.48-.3,1.87,1.87,0,0,0,0,2.35.84.84,0,0,0-.82.23h0a1.32,1.32,0,0,1,.81-.09,1.66,1.66,0,0,1,.67.32,1.67,1.67,0,0,0,1.17.26,3.23,3.23,0,0,0,.51-.14,3.58,3.58,0,0,0-.11.35.65.65,0,0,0,0,.2.37.37,0,0,1-.09.2.92.92,0,0,1-.85.42l-.93,0a1.28,1.28,0,0,0-.39.07.85.85,0,0,1-.22,0,.37.37,0,0,0-.33.17l-.16.29s0,.06,0,.08.07,0,.08,0l.14-.15-.12.17s-.05,0-.05.08,0,.28,0,.43,0,0,0,.06h0s0,0,0-.08a1.17,1.17,0,0,1,.14-.41A2,2,0,0,0,10.81,14ZM16,9.2l0,0a.1.1,0,0,0,.05,0l.51-.6a5.52,5.52,0,0,1,.67-.78,1.1,1.1,0,0,1,.56-.3,3,3,0,0,1,.51-.06,2.74,2.74,0,0,1,1.2.45l.12.08a0,0,0,0,0,0,0,0,0,0,0,0,0,0s0,0,0,0a3.26,3.26,0,0,0-.36-.29A1.76,1.76,0,0,0,18,7.27a1.88,1.88,0,0,0-.48.12,2.11,2.11,0,0,0-.87.88,6.64,6.64,0,0,1-.59.9ZM12.15,7.32l0,0h0a.86.86,0,0,1,.83.26,1.18,1.18,0,0,1,.19.25,3.41,3.41,0,0,0,.71,1l0,0,.26.37c0,.06.09.1.13.16A2.19,2.19,0,0,0,14,8.78l.18.35c-.12-.16-.23-.33-.34-.49s-.14-.2-.2-.3-.21-.4-.33-.6a.89.89,0,0,0-.9-.46Zm1.64.52,0,0,0,0a2.4,2.4,0,0,1,.5.64c.1.18.19.36.29.53a.53.53,0,0,0,.48.3l.05,0s0,0,0,0A.62.62,0,0,1,14.68,9a3.16,3.16,0,0,0-.84-1.08ZM12.61,7a.84.84,0,0,0-.31-.08,2.91,2.91,0,0,0-1.05.19,1.66,1.66,0,0,0-.63.33l0,.07A3.4,3.4,0,0,1,12.61,7Zm.22-1.16v0a2.22,2.22,0,0,1,.31.14,1.5,1.5,0,0,1,.54.58.27.27,0,0,0,.07.08,2.15,2.15,0,0,1,.6.77l.05.06h0l-.12-.24a5.88,5.88,0,0,0-.8-1,1.13,1.13,0,0,0-.6-.4ZM16.37,8.1h0l-.06.05a5.63,5.63,0,0,0-.68.85.66.66,0,0,1-.29.26l0,0v0l.08,0a.76.76,0,0,0,.4-.35,5,5,0,0,1,.57-.79S16.36,8.12,16.37,8.1ZM18.26,7,18.2,7a1.13,1.13,0,0,0-.86.16,4.82,4.82,0,0,0-.43.36c-.08.07-.16.16-.25.25h0a3.82,3.82,0,0,1,.65-.49A1.08,1.08,0,0,1,18,7Zm-2.2.5h0l0,0L16.5,7l.05-.07c.08-.14.17-.29.26-.42s.19-.22.29-.34,0,0,0-.06l-.05,0-.17.17a1.4,1.4,0,0,0-.38.52,1.59,1.59,0,0,1-.26.41l-.16.23ZM17,7c.21-.11.42-.22.64-.32a1.89,1.89,0,0,1,.71-.16,1,1,0,0,0-.24,0A2.12,2.12,0,0,0,17,7Zm-6.24,6.55a.43.43,0,0,0-.34.22,1,1,0,0,0-.12.55c0,.05,0,.1,0,.15h0a1,1,0,0,1,.09-.51C10.48,13.82,10.54,13.64,10.72,13.57ZM13,6.76l.14,0a1,1,0,0,1,.49.24c.13.13.24.28.36.42a1,1,0,0,1,.12.16A1.36,1.36,0,0,0,13,6.76Zm6.32,4.88a.7.7,0,0,1,.45,0l.42.14A.71.71,0,0,0,19.35,11.64ZM10.1,12a1.07,1.07,0,0,1,.83-.35A.72.72,0,0,0,10.1,12Zm.25-2a.6.6,0,0,1-.47-.22c0,.1.06.14.12.19A.32.32,0,0,0,10.35,10Zm9.87-.23-.44.18C19.85,10.05,20.18,9.92,20.22,9.78Zm-5.41-.94c0,.16.24.23.4.14C15.05,9,14.9,9,14.81,8.84Zm-.46-1a.33.33,0,0,0,.22.27Z"/>
    <path class="cls-1" d="M16.09,4.46l0-.08c.08-.15.17-.29.25-.43l.07-.08s0,0,0,0,.06-.19.07-.29A4.54,4.54,0,0,0,16.66,3a3.42,3.42,0,0,0,0-.64,4.85,4.85,0,0,0-.08-.53s0,.07-.08,0l.05.07a.21.21,0,0,0,0,.07,2.06,2.06,0,0,1-.08,1.25,4.29,4.29,0,0,1-.19.5,2,2,0,0,1-.46.64.21.21,0,0,1-.19,0,1.51,1.51,0,0,0,.05-.28,3.61,3.61,0,0,1,.19-.64,3,3,0,0,0,.05-.42,4.57,4.57,0,0,0-.24-1.79.13.13,0,0,0-.05-.06.08.08,0,0,0,0,0c0,.18.08.36.11.54a1.33,1.33,0,0,1,0,.28v1h0c-.07.13,0,.26-.06.38l-.25.75s0,0,0,0,0,.13-.21.14a3.64,3.64,0,0,1-.66,0,.91.91,0,0,1-.37-.13,2.83,2.83,0,0,1-.73-.58c-.08-.11-.14-.23-.21-.34s-.07-.09-.09-.09,0,.06,0,.1.1.23.16.35l.15.28c-.1,0-.22-.08-.28-.17A2.43,2.43,0,0,1,12.72,3a3,3,0,0,1,0-.31.8.8,0,0,1,0-.15.06.06,0,0,1,0-.06,3,3,0,0,1,.65-1.2c.17-.15.32-.32.47-.48l.06,0a2.43,2.43,0,0,1-.08.53,2.35,2.35,0,0,0-.2.82,2.12,2.12,0,0,0,.21,1.13,4.34,4.34,0,0,0,.33.54,2.07,2.07,0,0,0,.48.45h.07a.13.13,0,0,0,0-.06,2.16,2.16,0,0,1-.27-.25,2.24,2.24,0,0,1-.58-1.09,2.7,2.7,0,0,1,0-1.06A3.13,3.13,0,0,1,14,1.1a1.76,1.76,0,0,1,.4-.55s0,0,0,0l-.05.11a1.4,1.4,0,0,0-.19.61,2,2,0,0,0,0,.25s0,0,0,.05.05,0,.05-.05A1.56,1.56,0,0,1,14.46,1a2.39,2.39,0,0,1,.28-.49c.11-.15.2-.31.3-.46,0,.07.09.14.13.22s.19.38.28.57a.85.85,0,0,1,.06.17s0,0,.06.06,0-.05,0-.07a2.76,2.76,0,0,1-.08-.27,2.1,2.1,0,0,1-.06-.24c0-.13,0-.25,0-.36a2.58,2.58,0,0,1,.31.22,2.56,2.56,0,0,1,.68.91c0,.06,0,.12.05.17a.1.1,0,0,0,0,0s0,0,0,0-.06-.25-.08-.38-.05-.22-.08-.34a2.48,2.48,0,0,1,.67.61,3.28,3.28,0,0,1,.43.83s.05,0,.07.07.06-.06.06-.08,0-.18,0-.28a1,1,0,0,1,0-.17h0c.06.09.14.19.2.29a2,2,0,0,1,.29.74,1.45,1.45,0,0,1,0,.8s0,.07,0,.11h0l-.26.26h0c0-.13,0-.27.07-.4s0-.05,0-.08a.14.14,0,0,0,0-.06s0,0,0,.06a1.29,1.29,0,0,1-.4.75,1.32,1.32,0,0,1-.33.2.93.93,0,0,1-.2.08,1.89,1.89,0,0,0,.57-2,.13.13,0,0,0,0,.06,2.1,2.1,0,0,1,0,.75A2.47,2.47,0,0,1,17,4l-.27.35a.23.23,0,0,1-.2.09,2,2,0,0,0,.39-.57h0a.86.86,0,0,0-.07.1,1.76,1.76,0,0,1-.4.47.11.11,0,0,1-.07,0ZM13.17,2.07l.09-.3a.28.28,0,0,0-.09.29.78.78,0,0,0,0,.58.28.28,0,0,0,0-.18,1.88,1.88,0,0,1,0-.33S13.17,2.09,13.17,2.07ZM14.94,3a.21.21,0,0,0,0-.25,0,0,0,0,1,0,0c0-.12,0-.24,0-.35a.14.14,0,0,0,0-.06h0Zm2.17.06a2.67,2.67,0,0,0,0-.49h0ZM14.28,1.85v.34c0-.07,0-.16.06-.24s0,0,0,0Zm1.33.41h0l0-.37h0Zm.9,0h0v.17h0Zm-2.25.21,0,.26C14.23,2.69,14.37,2.59,14.26,2.49ZM15,3.67c0-.07.06-.15,0-.21Zm-.56-.75h0l-.06-.28h0Zm2-.17h0c0,.1-.05.18,0,.2Zm-.89.19h0l0,.19h0Zm-1.21.48h0l-.06-.24h0Zm-1-1.86h0l-.06.17h0ZM17,3.62h0l.06-.19h0Zm-1.81.3h0l0-.16ZM13.3,3.27l-.08,0,.06.1h0Zm1.15.31h0l.08.15h0Zm-.65.13h0l-.19-.11h0ZM15,3l0,.1,0,.09Zm1.16.68h0l.07-.17h0ZM18,3l-.05.09C18,3,18,3,18,3ZM16.54,1.78h0l0-.08h0s0,0,0,0ZM13.15,2.87h0l0,.17h0Z"/>
    <path class="cls-1" d="M23.3,5.24a.16.16,0,0,0,.1,0,3.19,3.19,0,0,0,.31-.33c.08-.11.14-.25.23-.39,0,.14,0,.28.07.42a2.26,2.26,0,0,1-.79,2l-.17.16s0,0,0,.07h.07a3.27,3.27,0,0,0,1-1,3,3,0,0,1,.28-.37.25.25,0,0,1,0,.07A2.61,2.61,0,0,1,24,7.64a3.44,3.44,0,0,1-.35.41l-.13.07h0c.09-.11.19-.22.28-.34a3.36,3.36,0,0,0,.47-.9,3,3,0,0,0,.09-.32.21.21,0,0,0,0-.07s-.06,0-.06,0a1.85,1.85,0,0,1-.43.79,4.33,4.33,0,0,1-.81.79.14.14,0,0,1-.11.05L23,8.12a2.8,2.8,0,0,0,.6-.64s0-.05,0-.08-.06,0-.07,0a3.06,3.06,0,0,1-1.15.93,2.33,2.33,0,0,1-.72.23,1.59,1.59,0,0,1-.8-.13.31.31,0,0,1-.16-.21c-.08-.2-.15-.41-.22-.61,0,0,0-.07,0-.08l.38-.42A.75.75,0,0,1,21,7.06l-.11.1h0l.3-.2h0L21,7.05a3.48,3.48,0,0,1,.38-.23c.33-.15.68-.28,1-.44a2.91,2.91,0,0,0,.93-.6s0,0,0-.08a.79.79,0,0,0,0-.09c-.06.06-.12.11-.17.17l-.15.12-.33.17a3.72,3.72,0,0,1-.65.19,4.31,4.31,0,0,0-.6.22,6.37,6.37,0,0,0-.72.41,3.44,3.44,0,0,0-.41.44l0,0-.48-.75a.11.11,0,0,1,0-.08,2.82,2.82,0,0,1,1.31-1.29l.2-.08.06,0v0l-.24.09s-.07,0-.1,0h-.05c-.21.12-.43.23-.63.36a2.53,2.53,0,0,0-.59.63l-.13.17a1.8,1.8,0,0,1-.26-.3.43.43,0,0,1,0-.25A1.47,1.47,0,0,1,20.1,5a3.62,3.62,0,0,1,1.11-.46l.29-.08-.06,0a5.18,5.18,0,0,0-.84.57.19.19,0,0,0,0,.08h.08a3,3,0,0,1,.76-.43,3.66,3.66,0,0,1,.92-.18,1.35,1.35,0,0,0,.59-.11l.2-.13a.77.77,0,0,1-.42.62c-.09,0-.22,0-.32.07a5.29,5.29,0,0,0-.6.21,2.91,2.91,0,0,0-.73.41l-.05,0s0,0,0,.08l.07,0a3.28,3.28,0,0,1,.37-.22,3.51,3.51,0,0,1,1.2-.28,1,1,0,0,0,.9-.47.23.23,0,0,1-.08.22c0,.06-.1.11-.14.17s0,.08,0,.11L23,5.38l-.32.09v0l.3-.13a.29.29,0,0,0,.1,0Zm-.91,1.22-.23.09a.73.73,0,0,1-.19.07,1,1,0,0,0-.38.18h.05l.57-.23a.81.81,0,0,0,.18-.1l.33-.11v0A.66.66,0,0,0,22.39,6.46Zm-.24-.81c0-.09.06-.06.07-.12l-.31.16,0,0Zm.2,2.27v0c.11,0,.19-.07.29-.08v0Zm1.5-3H23.8l0,.27h0Zm.26,1.71h0L24,6.93h0ZM22.27,4.81v0l.26-.15,0,0Zm-.82,3.25V8h0Zm-.59-1.32,0,0,.22-.14v0ZM21.58,5l-.2,0A.12.12,0,0,0,21.58,5Zm-1,1c.11-.08.11-.08.07-.17l-.08.11h0l.05,0h0ZM22,7.64l0,0,.11,0s0,0,0,0h0ZM20.4,6.16h0L20.54,6l0,0A.35.35,0,0,0,20.4,6.16ZM21,5.49l0,0,.12-.11,0,0Zm2.17,1.25h0L23,6.89l0,0Zm-.4-1.42v0l.19-.1v0Zm.16,1.94v0l-.19.11v0Z"/>
    <path class="cls-1" d="M6.78,5.25s0,0,0,0a3.48,3.48,0,0,0,.42.84,2.81,2.81,0,0,0,1.18,1c.21.09.44.14.66.21s.26.06.39.11a1.68,1.68,0,0,1,.43.3s-.06,0-.09,0c-.25,0-.5.07-.75.08a2.24,2.24,0,0,1-.52,0,2.65,2.65,0,0,1-.3-.11l-.08,0s0,.06.05.07l.61.27a2.73,2.73,0,0,0,.8.18h0c0,.12,0,.15-.11.16-.24,0-.49,0-.73,0a1.4,1.4,0,0,1-.44-.1c-.05,0-.09-.07-.14-.1H8.12s0,.06,0,.08a1.33,1.33,0,0,0,.58.32c.16.06.33.08.45.12a2.57,2.57,0,0,1-1.06-.23c-.23-.11-.45-.24-.67-.37L7.17,8a1.53,1.53,0,0,1-.4-.48.43.43,0,0,0,0-.07l0,0,.08.16h0l-.31-.41,0,0a4.06,4.06,0,0,0,.73,1.07A2.69,2.69,0,0,0,8.26,9a2.73,2.73,0,0,1-1.41-.67c.08-.06,0-.1,0-.15a2.93,2.93,0,0,1-.67-1.09A3.89,3.89,0,0,1,6,6l.16.14.26.18a1.37,1.37,0,0,1,.16.18l.12.1h.07s0-.06,0-.07a2,2,0,0,1-.45-.66,3.33,3.33,0,0,1-.13-.45l0,0,.29.33.06.08s0,0,.07,0,0-.06,0-.08-.11-.17-.15-.26a1.59,1.59,0,0,1,0-1.3c.08.14.14.3.22.44a.83.83,0,0,0,.57.43A2.53,2.53,0,0,0,7.7,5h.39l.09,0s0-.06-.07-.06-.25,0-.37-.06l-.39,0a.16.16,0,0,1-.15-.09.79.79,0,0,1-.14-.44l.09.06a.81.81,0,0,0,.63.21c.27,0,.54,0,.81,0a2.34,2.34,0,0,1,1.08.2,2.42,2.42,0,0,1,1.14,1.07.59.59,0,0,1,.09.32c0,.09-.06.13-.13.19a2.12,2.12,0,0,0-.5-.61,2.88,2.88,0,0,0-.33-.28c-.16-.12-.34-.22-.51-.33l0,0,.08,0a2.82,2.82,0,0,1,.75.75c.12.19.21.4.31.59s0,.12,0,.17A2.67,2.67,0,0,0,10.12,6a2.44,2.44,0,0,0-.9-.72l-.3-.13s0,0-.07,0,0,0,0,.06a2.17,2.17,0,0,1,1.08,1l.15.26,0,.08a.43.43,0,0,1,0,.07,1.08,1.08,0,0,1,.12.24c0,.05-.06.11-.09.17a5.72,5.72,0,0,0-.48-.5h0a.1.1,0,0,0,0,0,1.45,1.45,0,0,1,.34.57.09.09,0,0,1,0,.07l-.1.19L9.8,7.3h.07v0l-.35-.23L9.3,7a.12.12,0,0,1-.1,0,3.65,3.65,0,0,0-.66-.12,1.8,1.8,0,0,1-.85-.37l-.12-.12s-.06,0-.09,0l0,0c-.16-.22-.32-.43-.47-.66a1.92,1.92,0,0,1-.14-.33.18.18,0,0,0,0-.07h0a.26.26,0,0,0-.05-.12s0,0-.06,0v0Zm.67,2.24.17.11v0l-.12-.09H7.45L7.3,7.32l0,0ZM8.81,5.9s0,.09.06.1S9,6,9,6V6L8.81,5.9a.49.49,0,0,0-.34,0C8.6,5.9,8.7,6,8.81,5.9ZM7.68,7A.48.48,0,0,0,8,7.27Zm.66-2v0l.25.07v0l.11,0ZM7.69,6.2l-.34-.28A.72.72,0,0,0,7.69,6.2Zm.94,2.06v0l-.42-.07v0Zm.13-.77v0l-.37-.06v0Zm.08-2.61.3.08v0C9,4.94,9,4.84,8.84,4.88ZM6.94,7.52h0l.23.2h.07ZM6.61,4.77h0l.08.2h0Zm2.1,2v0L9,6.86v0ZM7,6.94,7,7l.16.12h0ZM6.34,5.65s0,.07,0,.08l.12.13h0Zm.74,0,0,0,.15.17h0Zm2.86,1,0,0-.2-.17h0Zm-.69.89h0L9,7.49v0Zm-1.07.1v0l.18,0v0ZM6.23,6.56h0l0,.14h0Zm.45-.4,0,0,.11.13v0Z"/>
    <path class="cls-1" d="M10,15.06l.21,1.22a5.36,5.36,0,0,0-1,.36,8.88,8.88,0,0,0-1.17.55,1.63,1.63,0,0,0-.22.17c-.09.07-.13.07-.2,0a1.22,1.22,0,0,1-.19-.89,3.22,3.22,0,0,1,1.12-2.13c.22-.2.29-.19.47,0a2.39,2.39,0,0,1,.13.21.92.92,0,0,0,.67.51H10Z"/>
    <path class="cls-1" d="M21.26,14.15a3.14,3.14,0,0,1,1,.95,2.15,2.15,0,0,1,.38,1.42,1.53,1.53,0,0,1-.2.72l0,.06a.15.15,0,0,1-.24,0l-.12-.1a3.42,3.42,0,0,0-1.15-.7c-.25-.09-.51-.16-.76-.24l-.15,0,.18-1.39.3,0a.93.93,0,0,0,.67-.53Z"/>
    <path class="cls-1" d="M10.77,17.93,11.86,19c-.18.13-.36.26-.53.4a10.1,10.1,0,0,0-1.15,1,.56.56,0,0,0-.12.61c0,.11.1.22.15.35a.76.76,0,0,1-.16,0,2.48,2.48,0,0,1-1-.68,2.68,2.68,0,0,1-.65-1.26.82.82,0,0,1,0-.27c0-.09.05-.13.13-.1l.4.17.23.08a.13.13,0,0,0,.1,0l.84-.7C10.34,18.36,10.56,18.13,10.77,17.93Z"/>
    <path class="cls-1" d="M18.47,18.94l.84-.84c.06,0,.17.1.26.17l1.26.94a.39.39,0,0,0,.5,0,1.64,1.64,0,0,1,.22-.14.23.23,0,0,1,.25,0c.09.05.09.14.08.23a1.91,1.91,0,0,1-.24.73,2.55,2.55,0,0,1-1.2,1.16.68.68,0,0,1-.44.09,1.72,1.72,0,0,1,.07-.21.63.63,0,0,0-.09-.63,10.39,10.39,0,0,0-1.25-1.32Z"/>
    <path class="cls-1" d="M10.53,20.33a17.71,17.71,0,0,1,1.4-1.22L13,20.17a4,4,0,0,0-.42,1.17.51.51,0,0,0,.14.55c.15.16.32.31.48.45s.1.11,0,.2a.51.51,0,0,1-.54.11,1.54,1.54,0,0,1-.74-.59,6.45,6.45,0,0,1-.52-.87,3.94,3.94,0,0,0-.31-.48A.87.87,0,0,0,10.53,20.33Z"/>
    <path class="cls-1" d="M16.82,22.45l.24-.21.39-.3a.59.59,0,0,0,.22-.59,5.33,5.33,0,0,0-.3-1.3c-.05-.13-.05-.13.05-.22.26-.24.52-.48.79-.71L18.3,19a11.14,11.14,0,0,1,1.33,1.33.82.82,0,0,0-.5.27,2.39,2.39,0,0,0-.42.63c-.07.16-.13.32-.2.47s-.14.29-.21.43a.63.63,0,0,1-.38.28,2.76,2.76,0,0,1-1,.08.42.42,0,0,1-.15,0Z"/>
    <path class="cls-1" d="M16.05,20.69a3.81,3.81,0,0,1,0,1.26,1.53,1.53,0,0,0,0,.37.22.22,0,0,1-.15.24.73.73,0,0,1-.25.08,4,4,0,0,1-1.1,0,1.58,1.58,0,0,1-.36-.14c-.09,0-.1-.12-.08-.22,0-.31.08-.63.13-.94s.06-.35.09-.54A4.58,4.58,0,0,0,16.05,20.69Z"/>
    <path class="cls-1" d="M20.17,14.61a.76.76,0,0,1,.06-.16,2.5,2.5,0,0,0,.47-.9,3.37,3.37,0,0,0,.12-.48,2.67,2.67,0,0,0,0-.4v-.11c.05,0,.1,0,.12.07a.56.56,0,0,1,0,.56.49.49,0,0,1-.14.11s0,0,0,.06,0,0,.05,0a.3.3,0,0,0,.23-.17,2.86,2.86,0,0,0,.12-.35.49.49,0,0,0,.29-.48s0-.09,0-.13a.55.55,0,0,0-.25-.59l0,0,.12-.15c0-.05.09-.05.13,0a.84.84,0,0,1,.18.45,1.07,1.07,0,0,1-.08.66s0,0,0,.05a.46.46,0,0,0,.07-.1.3.3,0,0,0,0-.1l0,0-.22.38,0,0a1.43,1.43,0,0,0,.28-1.35.54.54,0,0,0-.32-.36c.13-.08.15-.28.35-.24a.15.15,0,0,0-.24,0c-.12.09-.23.19-.34.29a1.89,1.89,0,0,0-.2.2l-.14.23a.34.34,0,0,1-.33-.34l0-.1a1,1,0,0,1,.41-.37c.21-.12.42-.23.62-.36a.68.68,0,0,0,.21-.17c0-.05.07,0,.11,0a.62.62,0,0,1,.24.41,4.42,4.42,0,0,1,0,1.7,3.33,3.33,0,0,1-.44,1.09,1.72,1.72,0,0,1-.46.47,1.1,1.1,0,0,0-.35.39A.7.7,0,0,1,20.17,14.61Z"/>
    <path class="cls-1" d="M8.46,11c.1,0,.24,0,.32.12a.28.28,0,0,0-.24.18,1,1,0,0,0-.07.82l0,0a1.42,1.42,0,0,1,0-.2.71.71,0,0,1,.13-.58.28.28,0,0,1,.1-.09.13.13,0,0,1,.22.05l.17.32a.48.48,0,0,0-.27.56c0,.12.06.23.09.35s0,.1.1,0l.23.48a.49.49,0,0,0,.25.24l0,0a4.27,4.27,0,0,0,.3,1,.37.37,0,0,1-.38.06l.05.13A1.92,1.92,0,0,0,9.11,14l-.25-.27a2.59,2.59,0,0,1-.47-.92,6.46,6.46,0,0,1-.22-1.08,2.7,2.7,0,0,1,0-.75c0-.07,0-.14,0-.21s0-.2,0-.3.09-.21.19-.26a.16.16,0,0,1,.2.06,1.3,1.3,0,0,0,.42.32,1.11,1.11,0,0,1,.45.38.14.14,0,0,1,0,.15,1.81,1.81,0,0,0,0,.23.65.65,0,0,1,0,.13.16.16,0,0,1-.17.11l-.16-.3A.74.74,0,0,0,8.85,11,.35.35,0,0,0,8.46,11Z"/>
    <path class="cls-1" d="M20,16.43a8.3,8.3,0,0,1,1.68.73l-.1.08a1,1,0,0,0-.3.48,5.73,5.73,0,0,0-.3,1.22v0a10.15,10.15,0,0,0-1.53-1,6.91,6.91,0,0,0,.36-.72A6.52,6.52,0,0,0,20,16.43Z"/>
    <path class="cls-1" d="M9.28,19c0-.24,0-.47,0-.7a2.39,2.39,0,0,0-.16-.75.68.68,0,0,0-.5-.48,8,8,0,0,1,1.66-.69,3.86,3.86,0,0,0,.49,1.41Z"/>
    <path class="cls-1" d="M12.89,15.41a.51.51,0,0,1-.19-.64l.35.27a.3.3,0,0,1,0,.1.19.19,0,0,0,0,.08h0l.06-.1c.13.08.25.14.35.21a.48.48,0,0,1,.09.14c.06-.1.13,0,.2,0l.18.06c.09,0,.11.07.11.15v.07h0c0-.15.16-.14.29-.12a4.29,4.29,0,0,0,.5.07.18.18,0,0,1,.09.06s.07.1.11.15c.16-.26.08-.19.4-.23l.33,0c.11,0,.14,0,.19.1l0,.07a.71.71,0,0,1,0-.17.23.23,0,0,1,.09-.08l.19-.07c.1,0,.14,0,.18.09s0,0,0,.06a.2.2,0,0,0,0-.08.21.21,0,0,1,.15-.22c.09,0,.16-.09.25-.13l.12,0c.06-.17.28-.24.4-.4a.72.72,0,0,1-.12.5s0,0-.05,0a0,0,0,0,1,0,0,.86.86,0,0,0,0-.17c0,.13.05.28-.08.39l-.06-.24h0a2.79,2.79,0,0,1-.09.34,1,1,0,0,1-.14.28c0,.07-.11,0-.17,0s-.06-.05-.06-.1a.21.21,0,0,0-.05-.13c0,.14,0,.3-.12.42a.77.77,0,0,1-.38.22.1.1,0,0,1,0-.05.64.64,0,0,0,.4-.32l-.43.32,0-.4h0c0,.08,0,.17,0,.25s0,.13,0,.2-.09.17-.21.19l-.06-.55h0l0,.23s0,.07,0,.1,0,.13-.12.16h0v0h.1s0,0-.13.06v-.13h0l0,.15a2.3,2.3,0,0,1-.26,0s-.06-.07-.08-.11a.27.27,0,0,0,.33.06l-.33-.06-.08-.4h0v.07c0,.11,0,.23,0,.34a.14.14,0,0,1-.11.07,3.4,3.4,0,0,1-.45,0s0,0,0,0,0-.06,0-.08,0,.11.12.11l.26,0a.28.28,0,0,0,.19-.07,2.76,2.76,0,0,1-.57-.06l-.15,0,0,.13h0a.41.41,0,0,1,0-.08l.06-.38v0h0l-.13.45-.1-.11.08,0v0l-.09-.12v.12l0-.3a.86.86,0,0,0,0-.17c0,.2-.13.32-.36.23,0,.09.09.09.14.11s.08-.06.13-.1,0,.16-.1.15-.11-.05-.17-.08,0,0,0-.16l-.07.08a1.07,1.07,0,0,1,.13-.47h0l-.16.39c-.07-.14,0-.28,0-.43l0,.05a1.83,1.83,0,0,1-.08.25s-.05,0-.07,0l0-.07-.19,0,0,0a.77.77,0,0,1-.09-.54h0l-.07.28-.13-.12.12,0c0-.09-.1-.11-.16-.15l0,0Zm3.86.39v0c.05,0,.09.07.15,0Zm-.91.61c.08,0,.1,0,.15-.09Z"/>
    <path class="cls-1" d="M12.89,11.75a1.69,1.69,0,0,1-.54-.12.59.59,0,0,1-.3-.28,1.59,1.59,0,0,1-.12-.27.53.53,0,0,1,.08-.41.76.76,0,0,1,1.26-.07c.1.12.2.23.29.36a.45.45,0,0,1-.26.72C13.17,11.72,13,11.72,12.89,11.75Zm.25-.5a.27.27,0,0,0-.05-.31.28.28,0,0,0-.33-.06l.06,0,0,.06-.06,0h-.15s-.05,0-.05,0a.29.29,0,0,0,.26.4s.08,0,.12,0a.18.18,0,0,0,.17-.11l-.15,0s-.06,0-.06,0a.07.07,0,0,1,0-.06Z"/>
    <path class="cls-1" d="M16.61,11.25a.49.49,0,0,1,.14-.37l.32-.39a.22.22,0,0,1,.1-.09,1,1,0,0,1,.78,0,.72.72,0,0,1,.36.46.06.06,0,0,1,0,.06c-.08.15-.14.31-.23.45a.74.74,0,0,1-.49.26,1.42,1.42,0,0,1-.68,0c-.23-.05-.29-.11-.3-.35Zm.51-.3h.06l.08,0a.2.2,0,0,1,0,.08l-.09.06c-.07,0-.07.08,0,.14a.27.27,0,0,0,.42.13.31.31,0,0,0,.15-.29.31.31,0,0,0-.23-.25C17.3,10.79,17.22,10.86,17.12,11Z"/>
    <path class="cls-1" d="M18.57,11.75l.06-.48,0,0c-.13.17-.25.35-.38.5a1,1,0,0,1-.7.34l-.32,0c-.12,0-.25-.05-.38-.06h-.23a.19.19,0,0,1-.17-.11.12.12,0,0,1,0-.17,1.31,1.31,0,0,0,.09-.17c0,.06.05.1,0,.16a.18.18,0,0,0,0,.1c0,.08.06.15.13.12a.36.36,0,0,1,.27,0A1.4,1.4,0,0,0,18,11.9a1.08,1.08,0,0,0,.5-.61.81.81,0,0,0,0-.16,1.11,1.11,0,0,0-.22-.65.84.84,0,0,0-.45-.29l-.05,0v0h.14a.86.86,0,0,1,.39.31,1.27,1.27,0,0,1,.13.22l.05.05s0,0,0-.06a1.06,1.06,0,0,0-.32-.66.87.87,0,0,1,.36-.13.84.84,0,0,1,.52,0,.58.58,0,0,1,.34.46,1.09,1.09,0,0,1-.19.86,4.28,4.28,0,0,1-.45.4Zm0-.93,0,.13a1.14,1.14,0,0,1,.51-.19l.09,0-.08-.06h-.35l.28-.09c-.15-.12-.41,0-.47.26Zm.32.07a.24.24,0,0,0-.3.1Z"/>
    <path class="cls-1" d="M17.47,16l.18-.11c0,.06,0,.16-.1.19s0,0,0,.05-.08.17-.11.25,0,.1-.11.12,0,0,0,0,0,0,0,0,.05,0,.09,0l-.07.09v0h-.11s0,0,0,0-.14.06-.18.13a.3.3,0,0,1-.26.17s0,0-.05,0,0,0,.05,0L17,17a1.56,1.56,0,0,1-.53.36c.05-.09.13-.17.06-.29s0,0-.05,0a.34.34,0,0,1-.39.21.24.24,0,0,0-.19.08.29.29,0,0,1-.3.14s0,0,0,0l.15,0-.48.07s0-.08,0-.1a.12.12,0,0,0-.16,0,.31.31,0,0,1-.31,0h-.05s0,0,0,.05a.39.39,0,0,0,.33.07h.13v0a1.93,1.93,0,0,1-.34,0,6.41,6.41,0,0,1-.88-.27,3.11,3.11,0,0,1-.59-.38c-.13-.1-.24-.22-.37-.33A1.89,1.89,0,0,1,12.5,16a.36.36,0,0,1,0-.14c.1.13.1.13.23.1.1.38.22.52.41.5a2.65,2.65,0,0,0,.25.3.31.31,0,0,0,.37,0,.47.47,0,0,0,.22.35c.14.07.22.05.38-.09,0,.21.1.39.32.45a.32.32,0,0,0,.39-.15.42.42,0,0,0,.75-.22.32.32,0,0,0,.38,0c.13-.07.16-.21.22-.34a.27.27,0,0,0,.34,0,.52.52,0,0,0,.21-.3.49.49,0,0,0,.47-.45A.21.21,0,0,0,17.47,16Zm-3.78,1a.47.47,0,0,0,.39.4c.1,0,.2,0,.28.09s0,0,.06,0a.13.13,0,0,0,0-.06l-.05-.07c-.07-.13-.07-.13-.21-.1a.31.31,0,0,1-.33-.12Zm-.93-.62s0,.08.06.1l.44.35s.05,0,.07,0a.19.19,0,0,0,0-.07l-.14-.18a.24.24,0,0,0-.09-.06c-.11,0-.21,0-.28-.14Z"/>
    <path class="cls-1" d="M16.31,21.6c0-.16,0-.32,0-.48s0-.32-.06-.46c.17-.09.35-.17.51-.27a4.85,4.85,0,0,0,.48-.35l.32,1.31A1.39,1.39,0,0,0,16.31,21.6Z"/>
    <path class="cls-1" d="M12,11.77c-.1-.07-.14-.13-.26-.37a.64.64,0,0,0,.26.45l.42.29c-.11,0-.52-.26-.62-.41a1.29,1.29,0,0,1-.17-.74,1.09,1.09,0,0,0,0,.85,3.13,3.13,0,0,1-.64-.67,1,1,0,0,1-.11-.49.49.49,0,0,1,.55.1.83.83,0,0,0,0-.16.3.3,0,0,0-.26-.1l.11.05a.43.43,0,0,0-.37.06h0c0-.12,0-.24.09-.36a.29.29,0,0,1,.32-.24,2.68,2.68,0,0,1,.4,0s.07,0,.11.05h.08a1.16,1.16,0,0,0-.31.66.14.14,0,0,0,0-.06,1.14,1.14,0,0,1,.35-.51.14.14,0,0,1,.16,0,.91.91,0,0,0-.41.63,4,4,0,0,1,.26-.32.56.56,0,0,1,.35-.2,1,1,0,0,0-.56.68A1,1,0,0,0,12,11.77ZM11,10.9a.74.74,0,0,1,.56.07.24.24,0,0,0-.2-.14A.42.42,0,0,0,11,10.9Zm.32.06h0l-.11.08,0,0a.61.61,0,0,0,.14-.07S11.28,11,11.28,11Zm-.3-.18v0l.18-.05v0Z"/>
    <path class="cls-1" d="M13.18,20.27a2.39,2.39,0,0,0,1,.47l-.2.84a2.23,2.23,0,0,0-1.21-.22Z"/>
    <path class="cls-1" d="M12.06,2.72a.24.24,0,0,0,.06-.08,1.94,1.94,0,0,1,.4-.83c.07-.09.17-.17.25-.26h0a1.77,1.77,0,0,0,0,.2,1.18,1.18,0,0,0,0,.25,1.32,1.32,0,0,1-.13.38,1.39,1.39,0,0,0-.08.83l0,.2a1.83,1.83,0,0,1-.52-.7Zm.34-.45V2.11h0v.08h0S12.32,2.27,12.4,2.27Z"/>
    <path class="cls-1" d="M16.5,16.79a.23.23,0,0,1-.07-.26.49.49,0,0,1,.18-.38c.06,0,.08-.12.12-.19l.11.05a.05.05,0,0,1,0,0l0,.22a.11.11,0,0,0,0,0h0a.68.68,0,0,0,0-.2.29.29,0,0,1,.08-.21,1,1,0,0,0,.16-.29c0-.05,0-.09.11-.09l.05.28h0s0,0,0-.05a.49.49,0,0,0,0-.12.24.24,0,0,1,.15-.28.79.79,0,0,1,0,.48c0,.05,0,.09-.1,0s-.08,0-.1,0a1.68,1.68,0,0,1-.09.32.44.44,0,0,1-.12.15.12.12,0,0,1-.16,0c-.06,0-.09,0-.11.05a.39.39,0,0,1-.15.28l.06-.1-.14.08-.16,0Z"/>
    <path class="cls-1" d="M15.2,11.27l-.13,0h0a.38.38,0,0,0,.15,0,.55.55,0,0,0,.17-.05h.06l-.2.07a.64.64,0,0,1,.49.42,2.65,2.65,0,0,0-1.53.06.5.5,0,0,1,.24-.28,1.73,1.73,0,0,1,.36-.18A2.38,2.38,0,0,1,15.2,11.27Z"/>
    <path class="cls-1" d="M15.69,17.21a.33.33,0,0,1-.27.12.31.31,0,0,1-.29-.33c0-.14,0-.28,0-.4l.59.06c0,.13,0,.28,0,.43s0,.05-.06.08Z"/>
    <path class="cls-1" d="M15.06,16.62a1.84,1.84,0,0,1,0,.41.35.35,0,0,1-.15.26.21.21,0,0,1-.24,0,.53.53,0,0,1-.25-.5v-.21Z"/>
    <path class="cls-1" d="M14.34,17a.17.17,0,0,1-.21.15.41.41,0,0,1-.31-.4h0l0,0c0-.18-.07-.36.15-.46a.42.42,0,0,0,.31.24c.06,0,.09,0,.07.12a1,1,0,0,1-.05.33h-.07A.18.18,0,0,1,14,17a.83.83,0,0,1-.13-.18A.37.37,0,0,0,14,17a.2.2,0,0,0,.31,0Z"/>
    <path class="cls-1" d="M13.26,16.41h0c-.08,0-.16,0-.21-.05a2.46,2.46,0,0,1-.17-.27.61.61,0,0,1,0-.13c0-.06,0-.09-.1-.06s-.13,0-.14-.07a.82.82,0,0,1,.06-.51l.22.21c-.09.1,0,.3-.21.36l.08,0,.09,0,.11-.28h0l.06.1a1.36,1.36,0,0,0,.11.25s.08.06.12.1a.61.61,0,0,0,0,.4Zm-.07-.05c-.07-.07,0-.13,0-.19-.1.1-.14.1-.24,0L12.86,16C13,16.27,13.07,16.42,13.19,16.36Z"/>
    <path class="cls-1" d="M16.36,16.37a3.84,3.84,0,0,1,0,.48.35.35,0,0,1-.45.25.16.16,0,0,1-.07-.07.26.26,0,0,0,.32,0h-.09a.21.21,0,0,1-.25-.23.58.58,0,0,1,0-.19s0,0,.06,0,.18-.05.21-.15,0,0,0,0Z"/>
    <path class="cls-1" d="M13.77,16.65s0,0,0,0a.18.18,0,0,1-.25,0l-.11-.11a.35.35,0,0,1-.05-.41c0-.06,0-.15.15-.13a.8.8,0,0,0,.28.3.08.08,0,0,1,0,.08c0,.1,0,.2,0,.31Z"/>
    <path class="cls-1" d="M16.79,22.19c0-.19,0-.35,0-.52a.05.05,0,0,1,0,0,1.38,1.38,0,0,1,.7,0A5,5,0,0,1,16.79,22.19Z"/>
    <path class="cls-1" d="M12.85,21.6a1.77,1.77,0,0,1,.73.08l-.13.53A3.85,3.85,0,0,1,12.85,21.6Z"/>
    <path class="cls-1" d="M10.88,20.85l-.44.48a3.71,3.71,0,0,1-.13-.5c0-.17.09-.25.25-.21A.68.68,0,0,1,10.88,20.85Z"/>
    <path class="cls-1" d="M19.42,20.71a.45.45,0,0,1,.33-.12c.12,0,.19.12.16.27s-.07.19-.11.29Z"/>
    <path class="cls-1" d="M8.58,18.8,9,18.45l.06.58Z"/>
    <path class="cls-1" d="M21.56,18.83l-.43.25.12-.59Z"/>
    <path class="cls-1" d="M9.45,12.48l.05.64a.61.61,0,0,1-.18-.54C9.33,12.51,9.36,12.46,9.45,12.48Z"/>
    <path class="cls-1" d="M18.53,11.4c0,.22-.28.59-.57.67A1.55,1.55,0,0,0,18.53,11.4Z"/>
    <path class="cls-1" d="M12.11,2.14,12,2.68A.52.52,0,0,1,12.11,2.14Z"/>
    <path class="cls-1" d="M14.28,14.93h.09l.57.19a1.6,1.6,0,0,0,.23,0h.06v0l-.25,0-.12,0a.86.86,0,0,1-.21-.07C14.53,15,14.41,15,14.28,14.93Z"/>
    <path class="cls-1" d="M13.26,16.41l.1.15a.33.33,0,0,0,.36.16s0,0,0-.07h0l.05.07h0a.3.3,0,0,1-.4-.08.33.33,0,0,1-.12-.23Z"/>
    <path class="cls-1" d="M13.49,12a2.26,2.26,0,0,0-.37.11c-.11,0-.19,0-.25,0a1.25,1.25,0,0,0,.51-.1h.11Z"/>
    <path class="cls-1" d="M15.69,17.21l0,0h0a.39.39,0,0,1-.29.23.26.26,0,0,1-.3-.14h0C15.4,17.43,15.52,17.42,15.69,17.21Z"/>
    <path class="cls-1" d="M9.3,7l.23.11.07.06.2.18h0a1.1,1.1,0,0,0-.14-.09L9.31,7S9.28,7,9.3,7Z"/>
    <path class="cls-1" d="M13.81,11.33c0,.08,0,.17,0,.26a2.44,2.44,0,0,1-.1.24.22.22,0,0,1,0-.11Z"/>
    <path class="cls-1" d="M15.84,15l-.53.17v0l.06,0,.45-.14h0Z"/>
    <path class="cls-1" d="M17,14.74l-.14.08c0-.06-.22-.07-.31,0s0-.05.2-.06H17Z"/>
    <path class="cls-1" d="M13.48,14.76l.34,0A.33.33,0,0,1,13.48,14.76Z"/>
    <path class="cls-1" d="M23.5,8.12l.05.11-.22.1h0l.18-.2Z"/>
    <path class="cls-1" d="M11.36,9h.34V9l-.34,0Z"/>
    <path class="cls-1" d="M18.1,13.87a2.57,2.57,0,0,1-.78-.06A3.42,3.42,0,0,0,18.1,13.87Z"/>
    <path class="cls-1" d="M11.86,18.58l.31.26v0l-.3-.28Z"/>
    <path class="cls-1" d="M9.12,12.34a.52.52,0,0,1,0,.37Z"/>
    <path class="cls-1" d="M21.09,11.73c0,.09-.1.15,0,.26L21,12Z"/>
    <path class="cls-1" d="M18.44,9.14c.07,0,.14-.06.2,0Z"/>
    <path class="cls-1" d="M12.67,12.11,12.3,12v0l.36.11Z"/>
    <path class="cls-1" d="M11.88,9.11l-.19,0h0l.06,0h.13Z"/>
    <path class="cls-1" d="M16.05,11.2l.28-.17v0l-.28.17Z"/>
    <path class="cls-1" d="M12.88,17.17l.22.24a.35.35,0,0,1-.21-.24Z"/>
    <path class="cls-1" d="M15.14,18.18c0,.25,0,.28,0,.29Z"/>
    <path class="cls-1" d="M14.91,17.41l.18-.2.06.06h0s-.06,0-.1,0l-.14.14Z"/>
    <path class="cls-1" d="M18.14,16.32l.1-.19C18.23,16.2,18.23,16.28,18.14,16.32Z"/>
    <path class="cls-1" d="M18.77,13.7l.29,0v0l-.28,0Z"/>
    <path class="cls-1" d="M17.4,12.18l.19,0v0l-.19,0Z"/>
    <ellipse class="cls-1" cx="15.05" cy="20.51" rx="0.3"/>
    <path class="cls-1" d="M14.56,17.18c-.07.08,0,.1,0,.16l-.12-.14Z"/>
    <path class="cls-1" d="M21.45,11.24l.2.18h0l-.2-.18Z"/>
    <path class="cls-1" d="M13.77,17.83l-.1.06,0,0,.07,0-.12-.08h0Z"/>
    <path class="cls-1" d="M14.14,14.88l-.17,0c.08,0,.14,0,.22,0l0,0Z"/>
    <path class="cls-1" d="M20.2,9.3l-.12.24h0l.12-.24Z"/>
    <path class="cls-1" d="M13.17,19.87l.17.11s0,.05,0,.07h0l-.18-.18Z"/>
    <path class="cls-1" d="M13.36,20.05s0,0,.05,0a1,1,0,0,1,.21.15l-.26-.15Z"/>
    <path class="cls-1" d="M12.06,15.9l.09.22C12.1,16.09,12.07,16,12.06,15.9Z"/>
    <path class="cls-1" d="M14.91,17.41a.24.24,0,0,1-.23,0l.23,0Z"/>
    <path class="cls-1" d="M14.8,14.7h0Z"/>
    <path class="cls-1" d="M13.18,19.87,13,19.69l0,0,.19.2Z"/>
    <path class="cls-1" d="M16.48,14.85c-.06-.09-.14,0-.21,0C16.44,14.77,16.44,14.77,16.48,14.85Z"/>
    <path class="cls-1" d="M12.89,17.17l-.09-.05a.64.64,0,0,1-.08-.14l.16.19Z"/>
    <path class="cls-1" d="M14.28,20.43l.25.05h0l-.26,0Z"/>
    <path class="cls-1" d="M17.64,11.21l-.12.07s0,0,0,0a0,0,0,0,1,0,0A.11.11,0,0,1,17.64,11.21Z"/>

  </g>
</svg>