<svg id="ROOMS_LOGOS" data-name="ROOMS LOGOS" xmlns="http://www.w3.org/2000/svg" viewBox="0 0 52.44 47.85"><path d="M42.41,24.34a24.8,24.8,0,0,1,.33-3.57,8.43,8.43,0,0,0-.58-5.72,7.38,7.38,0,0,1-1-3.14A51,51,0,0,1,42,5.78a1,1,0,0,1,.52-.57,12.88,12.88,0,0,1,1.57-.58,2.11,2.11,0,0,1,2.54,1,8.38,8.38,0,0,1,1.43,6.77c-.28,1.37-.52,2.74-.8,4.11-.64,3.12-2.4,5.61-4.38,8Z" fill="#fff"/><path d="M9.49,24.54C8.74,23.47,8,22.41,7.24,21.33c-2.22-3.25-2.64-7-3-10.79A6.66,6.66,0,0,1,6.51,4.9c.4-.37,1.36-.23,2.05-.17,1.43.13,2,1,2.14,2.42s.44,2.77.55,4.16A7.15,7.15,0,0,1,11,13.46,6.51,6.51,0,0,1,10.34,15a9.23,9.23,0,0,0-.65,6.12c.16,1.07.15,2.17.21,3.26Z" fill="#fff"/><path d="M35.59,18.51A10.27,10.27,0,0,1,35.51,17a6,6,0,0,0-.87-4.23A4.3,4.3,0,0,1,34,9.35a3.87,3.87,0,0,0,0-.83A6.73,6.73,0,0,1,34,6.85C34.35,5.16,36,5.16,37.22,4.6a1.47,1.47,0,0,1,2,.8c.93,1.73,1.65,3.48,1,5.5a7.25,7.25,0,0,0-.31,1.32A8.42,8.42,0,0,1,35.59,18.51Z" fill="#fff"/><path d="M16.94,18.49c-3-1.62-4-4.16-4.61-7A7.66,7.66,0,0,1,13.1,5.6c.7-1.2,1.09-1.33,2.41-.89.33.11.66.22,1,.36,2.13.94,2,1.19,2,3.52a11.81,11.81,0,0,1-1.36,5.67,7.25,7.25,0,0,0-.2,2.7C16.93,17.44,16.94,17.92,16.94,18.49Z" fill="#fff"/><path d="M12.17,29c0,.89,0,1.57,0,2.25a5.4,5.4,0,0,0,.87,3.5,3.87,3.87,0,0,1,.66,3,6,6,0,0,0,.06,2.1A1.81,1.81,0,0,1,12.67,42c-.67.3-1.35.57-2,.87A1.61,1.61,0,0,1,8.38,42a8,8,0,0,1-.69-6.55C8.55,32.12,9.42,30.64,12.17,29Z" fill="#fff"/><path d="M41.1,29.1c3.36,1.6,4,4.62,4.71,7.67a7.11,7.11,0,0,1-1.2,5.56,1.3,1.3,0,0,1-1.71.61c-.39-.14-.8-.25-1.18-.41-2.35-1-2.42-1.14-2.09-3.7a1,1,0,0,0,0-.42c-.55-1.63.24-2.95.84-4.38a14.09,14.09,0,0,0,.61-3.46A10.25,10.25,0,0,0,41.1,29.1Z" fill="#fff"/><path d="M19.32,9.38a17.88,17.88,0,0,1,.76-3.13,2.13,2.13,0,0,1,3.7-.58,8.71,8.71,0,0,1,1.87,6.9c0,.35-.54.69-.89,1a1.91,1.91,0,0,1-.88.32c-3.76.53-3.88.18-4.32-3.38,0-.35-.06-.7-.09-1.05Z" fill="#fff"/><path d="M33.07,9.43c-.18,1.07-.38,2.13-.55,3.2A1.44,1.44,0,0,1,30.88,14a15.18,15.18,0,0,1-2.61-.25,1.84,1.84,0,0,1-1.57-2,11,11,0,0,1,1.16-5c.76-1.5,1.73-2,3-1.81a3,3,0,0,1,2,2.77c.07.55.07,1.12.09,1.68Z" fill="#fff"/><path d="M17,34.17c.32,0,.64,0,.95,0,1.69.18,2.42.84,2.19,2.5a20.58,20.58,0,0,1-1.24,4.38,2,2,0,0,1-2.18,1.34,2.2,2.2,0,0,1-1.87-1.75,8.08,8.08,0,0,1,.33-5.75c.2-.48,1.09-.68,1.66-1Z" fill="#fff"/><path d="M32.79,38.44c-.32,1.21-.58,2.44-1,3.62A1.93,1.93,0,0,1,30,43.4,2,2,0,0,1,28,42.19a8.67,8.67,0,0,1-.8-5.91,1.45,1.45,0,0,1,1-.93,20.69,20.69,0,0,1,3.52.11c.24,0,.53.53.6.86a20,20,0,0,1,.28,2.08Z" fill="#fff"/><path d="M38.78,38.2a17.67,17.67,0,0,1-.59,2.73,2,2,0,0,1-3.63.54,7.63,7.63,0,0,1-1.38-6c.07-.48,1-.86,1.62-1.24a1.64,1.64,0,0,1,.72-.1c2.56-.08,3,.34,3.09,3,0,.35,0,.7,0,1.06Z" fill="#fff"/><path d="M20.83,38.88v-.63c.05-3,1.66-4,4.44-2.82a2,2,0,0,1,1,1.28,8.67,8.67,0,0,1-.83,5,2.39,2.39,0,0,1-2.32,1.66,2.47,2.47,0,0,1-2.07-2.1c-.17-.78-.22-1.58-.33-2.38Z" fill="#fff"/></svg>