<svg id="ROOMS_LOGOS" data-name="ROOMS LOGOS" xmlns="http://www.w3.org/2000/svg" viewBox="0 0 28.35 22.68"><defs><style>.cls-1{fill:#fff;}</style></defs><title>WINTER IS COMING</title><g id="WINTER_IS_COMING" data-name="WINTER IS COMING"><path class="cls-1" d="M27,10.72c-1.53,2.3-3.06,4.6-4.58,6.92-.18.28-.37.37-.67.23a5.8,5.8,0,0,0-.59-.19.39.39,0,0,1,0-.16,8.23,8.23,0,0,0,.44-1.84,1.66,1.66,0,0,1,.35-.84A.47.47,0,0,0,22,14.6a2.26,2.26,0,0,0-.48-.16s-.13.11-.12.17c.08.83-.48,1.47-.54,2.29l-1.2-.17c0-.5.07-1,.11-1.47,0-.24,0-.48.07-.72s.11-.32.13-.49a.62.62,0,0,0,0-.41.34.34,0,0,0-.36-.05c-.09.07-.1.25-.11.39s.05.21,0,.31c-.16.72-.33,1.45-.5,2.17,0,0,0,.06,0,.1l-1.2-.65c.09-.62.18-1.28.3-1.94a4.21,4.21,0,0,1,.27-.75.74.74,0,0,0-.15-.83.56.56,0,0,0-.71,0c-.25.23-.22.5-.12.83a1.72,1.72,0,0,1-.06.74c-.05.31-.16.6-.22.9s-.07.59-.1.91h-.77l.13-1.07.54-.2a2.81,2.81,0,0,0-2.14-.25l.45.29c0,.39,0,.8-.06,1.2a.3.3,0,0,1-.21.2,3.75,3.75,0,0,1-.59,0c0-.25.05-.47.05-.7,0-.76,0-1.52,0-2.27a2.22,2.22,0,0,1,.25-1.25c.15-.27,0-.39-.22-.42a1.69,1.69,0,0,0-.45,0,.22.22,0,0,0-.2.33,3.42,3.42,0,0,1,.06,2.1c0,.23-.05.47-.07.73a6.4,6.4,0,0,1-.76,0,.38.38,0,0,1-.23-.25c0-.44,0-.87,0-1.3a1.42,1.42,0,0,1,.07-.93.44.44,0,0,0-.22-.6.38.38,0,0,0-.54.14.54.54,0,0,0,0,.7,1.55,1.55,0,0,0,.23.19,2.92,2.92,0,0,0,0,1.78c.07.24-.06.32-.27.34l-1.32.14v.11h.84c.74,0,.65-.14.68.67.06,1.56.13,3.11.19,4.67v.2H12L11.68,16l0,0,.32-.26a1.54,1.54,0,0,0-.46-.11,11.08,11.08,0,0,0-1.14.14c-.11,0-.25,0-.31.12s0,.29,0,.29c.36,0,.35.25.39.5s0,.33.09.55l-.8.28L9.66,17l-.49.13.13.51-1.17.45L8,17.67c.31-.33.84-.27,1.08-.68L9,16.88l-1.19.5c-.24-.69-.47-1.37-.71-2,0-.1-.09-.23-.16-.25a.25.25,0,0,0-.25.1c0,.06,0,.19,0,.28a5.62,5.62,0,0,1,.19.53c.13.5.24,1,.37,1.55L6.19,18c-.94-1-4.74-6.79-4.84-7.47a57.73,57.73,0,0,1,4.51,5.48c-.07-.13-.15-.25-.23-.38C4.75,14.29,3.85,12.92,3,11.53a5.75,5.75,0,0,1-.43-.86,1.37,1.37,0,0,1,0-.36l.11-.09a4.3,4.3,0,0,1,.56.57c.74,1.09,1.47,2.19,2.2,3.28a9.89,9.89,0,0,0,.8,1.12L5.11,13C4.2,11.14,3.28,9.27,2.38,7.38a3.22,3.22,0,0,1-.15-.63l.15-.09a4.06,4.06,0,0,1,.46.55C3.56,8.42,4.27,9.63,5,10.85l2.31,4a.3.3,0,0,0,.18.14c-.19-.48-.37-1-.56-1.45C6.2,11.76,5.5,10,4.81,8.14A8.22,8.22,0,0,1,4.52,7a2.52,2.52,0,0,1,0-.39,1.06,1.06,0,0,1,.61.69c.57,1.38,1.13,2.77,1.69,4.16.31.77.6,1.56.9,2.34a.75.75,0,0,0,.21.3c-.1-.42-.21-.84-.32-1.26q-1-4.08-2.05-8.14a5.43,5.43,0,0,1-.1-.81l.18-.06a6,6,0,0,1,.41.74c.36,1,.7,2,1,3l1.8,5.43a1.92,1.92,0,0,0,.17.39c-.48-2.79-1.19-5.53-1.61-8.34l.15-.05a3.6,3.6,0,0,1,.26.52c.28,1,.56,2,.82,2.95.31,1.19.59,2.4.89,3.6a.65.65,0,0,0,.13.28c-.2-1.87-.4-3.73-.58-5.61C9,5.69,8.94,4.57,8.86,3.45c0,0,0,0,0,0L9,3c.1.13.27.24.3.38.2.91.38,1.81.53,2.73.3,1.71.56,3.42.84,5.13a.85.85,0,0,1,.05.26c0-2.31-.09-4.62-.13-6.93,0,0,.05-.1.13-.15.5,2.16.4,4.39.75,6.57V9.82l.09-8.19c0-.24.07-.48.1-.72h.16a2.69,2.69,0,0,1,.14.54c.13,2,.24,4,.36,6,.05.94.1,1.88.17,2.82a6.25,6.25,0,0,0,.17.84h.14a5.91,5.91,0,0,0,.14-.91c0-2.53,0-5,0-7.58,0-.69,0-1.37.1-2.06A2.63,2.63,0,0,1,13.24,0h.16a6.16,6.16,0,0,1,.22,1.12c.07,1.41.11,2.83.15,4.24s0,2.58.07,3.88c0,.57.14,1.15.21,1.72h.2a6,6,0,0,0,.2-1c.05-1.78.06-3.57.11-5.36,0-1.23.11-2.46.18-3.69a2.28,2.28,0,0,1,.18-.54h.14a2.59,2.59,0,0,1,.16.59c0,.91.06,1.83.08,2.75,0,2,0,4,.06,6.05A6.48,6.48,0,0,0,15.52,11a3.38,3.38,0,0,0,.4-1.62c.07-2,.12-3.91.21-5.87,0-.62.12-1.24.2-1.86a3.1,3.1,0,0,1,.17-.52,1.25,1.25,0,0,1,.3.94c0,1,0,2,0,2.94,0,1.91,0,3.82,0,5.73a.34.34,0,0,0,.1.27c.16-1.17.33-2.35.47-3.53.09-.73.12-1.47.21-2.2a2,2,0,0,1,.33-.77,54,54,0,0,1-.4,7c.64-2.83.86-5.76,1.66-8.55h.21a4.86,4.86,0,0,1,.09.92c-.2,2.1-.42,4.2-.64,6.3-.08.77-.17,1.53-.2,2.31.2-.66.42-1.31.59-2,.4-1.56.78-3.12,1.18-4.68A8.51,8.51,0,0,1,20.73,5l.16,0a6.88,6.88,0,0,1-.07,1.12c-.47,2.19-1,4.37-1.44,6.56a.35.35,0,0,0,0,.22c.1-.26.2-.53.29-.79L22.12,5a2.26,2.26,0,0,1,.76-1.24,2.5,2.5,0,0,1,0,.48c-.33,1.42-.65,2.84-1,4.25-.49,1.89-1,3.78-1.52,5.67a.32.32,0,0,0,0,.21c.16-.37.34-.73.49-1.11.74-1.81,1.47-3.64,2.2-5.45A7.59,7.59,0,0,1,23.43,7a3.74,3.74,0,0,1,.36-.45l.15.07a6.79,6.79,0,0,1-.18,1c-.4,1.13-.83,2.25-1.26,3.36s-.93,2.39-1.4,3.58c0,.1-.07.2-.1.29l.08,0c.5-.9,1-1.8,1.52-2.7.88-1.57,1.76-3.16,2.66-4.73A8.44,8.44,0,0,1,26,6.6l.14.09a5.61,5.61,0,0,1-.19.62c-.75,1.61-1.5,3.21-2.27,4.8-.56,1.17-1.16,2.32-1.69,3.52.05-.08.11-.14.16-.22l3.1-4.62a1.16,1.16,0,0,1,.74-.63,4.35,4.35,0,0,1-.25.79q-.54.95-1.14,1.86c-.64,1-1.3,1.95-1.9,3a1,1,0,0,0,.13-.16c1.13-1.45,2.25-2.9,3.38-4.34a4.77,4.77,0,0,1,.53-.57.66.66,0,0,1,.29-.08ZM11.49,13.4c-.47-.52-1.08-.51-1.39,0a.41.41,0,0,0,0,.26c.3.12.59.37.93.16A3.37,3.37,0,0,0,11.49,13.4Zm-2.65.08-.79.25.66,1.35c.08-.06.26-.15.25-.23C9,14.42,8.89,14,8.84,13.48Zm7.26-1.14.55-.4c-.14-.15-.26-.4-.42-.43a1.36,1.36,0,0,0-.69.17s-.07.24,0,.28S15.86,12.19,16.1,12.34ZM9.36,15.83l-.08-.09-.51.09,0,.1a.84.84,0,0,0,.33.1C9.17,16,9.27,15.9,9.36,15.83Zm1.19-1.35,0,.17.64-.23-.05-.13Zm.79.93v-.14c-.25-.12-.48,0-.72.14Zm-2.64,0,0,.12c.12,0,.25.1.36.06s.13-.18.19-.27l-.08-.06Z"/><path class="cls-1" d="M8.33,22.68l-.64-2.34-.75.28a1.25,1.25,0,0,1-.37.09,1.65,1.65,0,0,1-.36-.11,1.85,1.85,0,0,1,.29-.22c.32-.14.65-.27,1-.42L6.3,18.26l1-.48L8,19.57c.49-.18.49-.18.22-1.09l1.08-.42L10,20.35c-.38,0-.68,0-1,0-.08,0-.19-.1-.24-.19a4.11,4.11,0,0,1-.22-.51l-.42.3,1.19,2.35Z"/><path class="cls-1" d="M20.54,17.76l-.5,2,.49.16.6-2.07.88.35-1.24,1.91,1.13.36a.9.9,0,0,1,.19.15c-.07.05-.15.14-.21.13-.38-.08-.76-.18-1.17-.28l-.46,2L19.11,22l.82-1.58h-.69c0-.06,0-.09,0-.1a1.06,1.06,0,0,0-.06-1.45.42.42,0,0,1-.09-.19,1.11,1.11,0,0,1,0-.26,1.21,1.21,0,0,1,.25.08c.05,0,.07.09.15.19l.15-1.1Z"/><path class="cls-1" d="M18.57,20.35H17.19l.61-3.49,1,.09Z"/><path class="cls-1" d="M13.65,20.34h-.56v-4h.56Z"/><path class="cls-1" d="M15.75,20.32l.4-4.14h.57c-.07.5-.13,1-.2,1.46-.11.81-.24,1.62-.34,2.44C16.14,20.34,16,20.39,15.75,20.32Z"/><path class="cls-1" d="M14.72,20.33h-.37l.15-4h.57Z"/><path class="cls-1" d="M11.14,20.31c-.55.1-.55.1-.68-.44s-.25-1.15-.42-1.71c-.1-.34,0-.48.3-.55a3.19,3.19,0,0,0,.34-.11Z"/><path class="cls-1" d="M13,14.72h.8c0,.34,0,.68,0,1a.33.33,0,0,1-.2.2,3.94,3.94,0,0,1-.6,0Z"/><path class="cls-1" d="M12.41,14.27V12.53a2.24,2.24,0,0,1,.12,1.74Z"/><path class="cls-1" d="M20.57,17.54l-1-.32,0-.16,1.1.06Z"/><path class="cls-1" d="M18.32,12.87a.48.48,0,0,1-.48.46.44.44,0,0,1-.42-.51.42.42,0,0,1,.44-.44A.48.48,0,0,1,18.32,12.87Zm-.07.07v-.17c-.13-.1-.27-.28-.39-.27s-.24.23-.36.35c.12.12.23.32.36.34S18.12,13,18.25,12.94Z"/><path class="cls-1" d="M17.11,15.28l.64.13a1.82,1.82,0,0,1-.23.39c-.05,0-.24,0-.27,0A2.19,2.19,0,0,1,17.11,15.28Z"/><path class="cls-1" d="M17.23,14.65l.66.16a1.7,1.7,0,0,1-.29.37.3.3,0,0,1-.27,0A1.92,1.92,0,0,1,17.23,14.65Z"/><path class="cls-1" d="M17.45,13.51l.57.08a1.5,1.5,0,0,1-.17.4s-.24,0-.28,0A1.89,1.89,0,0,1,17.45,13.51Z"/><path class="cls-1" d="M17.89,14.15c0,.28-.06.47-.31.42s-.24-.24-.18-.46Z"/></g></svg>