<svg id="ROOMS_LOGOS" data-name="ROOMS LOGOS" xmlns="http://www.w3.org/2000/svg" viewBox="0 0 28.35 22.68"><defs><style>.cls-1{fill:#fff;}</style></defs><title>HARRY POTER</title><g id="HARRY_POTER" data-name="HARRY POTER"><path class="cls-1" d="M19.27,12.76c-.13.22-.25.44-.37.67a3.29,3.29,0,0,1-1.21,1.19c-.27.16-.55.29-.83.44s-.24,0-.26-.14-.13-.19-.26-.15a14.07,14.07,0,0,1-2.62.51,14.89,14.89,0,0,1-1.77.06c-.18,0-.19.1-.21.21s-.09.24-.34.17a3.35,3.35,0,0,1-1.72-1,4.39,4.39,0,0,1-.57-.85l-.2.11a3,3,0,0,0,.54,1,3.08,3.08,0,0,0,1.27.9c.22.09.6.17.83.24s.19,0,.19.12c0,.67-.05,1.41-.06,1.88,0,.23-3.17-.14-5-2.83-.06-.1-.19.15-.19.15,1.15,2.89,5,3.16,5,3.18a.23.23,0,0,1,.21.26c0,.29,0,.3.26.31A7.65,7.65,0,0,0,13.38,19c.67-.11,1.34-.21,2-.29s1.38-.22,2-.3c.12,0,.17-.06.11-.19s-.12-.27.14-.39a7.71,7.71,0,0,0,2.17-1.58,3,3,0,0,0,1-1.71,1.63,1.63,0,0,0-.09-.69,6.4,6.4,0,0,0-.55-.93,1.27,1.27,0,0,1-.06-.18,1.41,1.41,0,0,1,.2,0A9.78,9.78,0,0,1,23.43,14a2.28,2.28,0,0,1,1.08,1.32,1.59,1.59,0,0,1-.08,1,7.6,7.6,0,0,1-1.89,2.88,10.36,10.36,0,0,1-2.18,1.54,15.86,15.86,0,0,1-3.68,1.43,19.51,19.51,0,0,1-2.27.37,12.57,12.57,0,0,1-1.62.09,11.72,11.72,0,0,1-2.35-.3,9.73,9.73,0,0,1-3.67-1.57A5.71,5.71,0,0,1,5,19a2.2,2.2,0,0,1-.31-1.45,2.81,2.81,0,0,1,.63-1.31A8.76,8.76,0,0,1,8.41,14a2,2,0,0,1,.3-.14c.11,0,.22,0,.33-.06s.07-.06.11-.09A5.6,5.6,0,0,0,9.41,13c.19-.62.36-1.26.52-1.89a4.53,4.53,0,0,0,0-1.87,8.25,8.25,0,0,1,.57-3,17.54,17.54,0,0,0,.41-2,3.45,3.45,0,0,0-.1-1.1c-.08-.37-.86-.2-1.12.08a2.1,2.1,0,0,0-.22.3l-.2.3H9.2c0-.22-.08-.45-.1-.67a3.87,3.87,0,0,1,0-1A2.28,2.28,0,0,1,10.64.34,4.34,4.34,0,0,1,11.93.09a2,2,0,0,1,.91.26,3.65,3.65,0,0,1,1.57,1.39c.17.31.57.53.67.87a10.35,10.35,0,0,0,.3,1.25,6.43,6.43,0,0,0,.58.92c.43.7.42,1.78.83,2.5a7.33,7.33,0,0,1,.84,2.08,4.77,4.77,0,0,0,.45,1.77c.51.72,1.18.89,1.67,1.63a10.07,10.07,0,0,1,.6,1.12,1.46,1.46,0,0,1-.24,1.31,6.8,6.8,0,0,1-2.62,2.22c-.25.13-.32.12-.4-.15-.17-.62-.15-.82-.3-1.45,0-.17,0-.28.21-.35a4.54,4.54,0,0,0,2.21-1.87,1,1,0,0,0,.2-.66S19.29,12.77,19.27,12.76Z"/><path class="cls-1" d="M16.28,17c.11.65,0,.18.12.68.05.25,0,.35-.31.4s-.69.09-1.1.15-1,.15-1.45.22-.56.08-1,.15c-.15,0-.15,0-.18-.13s0-.72.09-.76l.19,0c.38-.06.76-.11,1.14-.18a.18.18,0,0,0,.17-.17c0-.09.06-.45-.18-.45s-.64.07-1,.1-.32,0-.3-.28v-.46c0-.15.12-.22.28-.24L15,15.72c.3,0,.65-.15.95-.18s.22.53.25.74S16.23,16.67,16.28,17Z"/></g></svg>