<svg xmlns="http://www.w3.org/2000/svg" id="ROOMS_LOGOS" data-name="ROOMS LOGOS" viewBox="0 0 28.35 22.68">
  <defs>
    <style>.cls-6{fill:#fff;}</style>
  </defs>
  <path class="cls-6" d="M9.68,16.53l.19.08c.48.26,1,.52,1.45.77s.73.41,1.11.6a10.29,10.29,0,0,0,1.57.67A9.57,9.57,0,0,0,16,19a.17.17,0,0,0,.12-.05l-.1,0-.72-.21c-.62-.2-1.25-.4-1.87-.62-.46-.17-.91-.34-1.35-.53a8.6,8.6,0,0,1-1.36-.76.57.57,0,0,1-.12-.11,1,1,0,0,1,.78,0c.24.07.46.19.72.29a1.16,1.16,0,0,1-.11-.16c-.1-.21-.22-.42-.31-.64a1,1,0,0,1,0-.64.3.3,0,0,1,0-.1c0-.06.1-.06.15,0s0,.06,0,.09a5.22,5.22,0,0,0,.86,1.5,2.68,2.68,0,0,0,.75.63,1.33,1.33,0,0,0,.21.09l0,0a.27.27,0,0,0-.07-.08l-.31-.27a4,4,0,0,1-1.15-1.64,1.8,1.8,0,0,1,0-1.44s.06-.06.09-.09a.43.43,0,0,1,.09.1l.29.87a8.51,8.51,0,0,0,.53,1.15,4,4,0,0,0,1.46,1.51,3.7,3.7,0,0,0,1,.38l.14,0,.07,0-.23-.11a4.36,4.36,0,0,1-1.43-.93,4.49,4.49,0,0,1-.81-1,4.91,4.91,0,0,1-.59-1.89,2.43,2.43,0,0,1,0-.27c.11,0,.11.07.13.13l.18.5A5.55,5.55,0,0,0,14,16.13a4.88,4.88,0,0,0,.52.59,4.29,4.29,0,0,0,.92.66,4.8,4.8,0,0,0,2.55.53,4.52,4.52,0,0,0,2.09-.64,5.1,5.1,0,0,0,.83-.64,5,5,0,0,0,1.15-1.77,4.59,4.59,0,0,0,.33-1.36s0-.11,0-.11a.17.17,0,0,1,.14,0,.82.82,0,0,1,.24.55,3,3,0,0,1,0,.6c-.1.42-.21.83-.33,1.24a.26.26,0,0,1-.11.16.67.67,0,0,0-.25.37s0,.08,0,.12a.64.64,0,0,1-.26.35c-.23.2-.45.42-.68.64a.41.41,0,0,0,0,.09l.13,0a3.13,3.13,0,0,0,1.23-1.27,6,6,0,0,0,.62-2.19c0-.06,0-.12,0-.17s.12.06.14.11a1.49,1.49,0,0,1,.13.83,5,5,0,0,1-.5,1.64c-.1.22-.22.43-.33.64a.14.14,0,0,0,0,.07c.08,0,.12,0,.16-.06a1.84,1.84,0,0,0,.54-.76A8.24,8.24,0,0,0,23.56,15a1.13,1.13,0,0,1,0-.18.1.1,0,0,1,.07-.06.11.11,0,0,1,.08.05,1.57,1.57,0,0,1,.08.31,2.36,2.36,0,0,1-.1.95c-.07.26-.15.52-.23.78,0,0,0,0,0,.06s0,.07,0,.08.07,0,.09,0a.83.83,0,0,0,.09-.16c.13-.22.26-.27.49-.13a4.19,4.19,0,0,1,.33.26,1.65,1.65,0,0,0,.27.19.19.19,0,0,0,.25,0,1.45,1.45,0,0,1,.68-.41c.22-.09.45-.15.67-.23l.31-.14c.11-.06.13-.06.19.05a1.8,1.8,0,0,0,.37.5,2.57,2.57,0,0,1,.29.35.62.62,0,0,1,0,.75,2.24,2.24,0,0,1-.32.37,7.91,7.91,0,0,1-1.49,1.09c-.37.22-.74.42-1.11.62a6.16,6.16,0,0,1-1.25.5c-.52.15-1.05.25-1.58.38l-.44.11v.05h.18a22.71,22.71,0,0,0,2.59-.36,6.7,6.7,0,0,0,1.32-.4,4.42,4.42,0,0,0,.76-.44,12.33,12.33,0,0,1,1.25-.77,2.88,2.88,0,0,1,.75-.25.65.65,0,0,1,.14,0c0,.1,0,.15-.07.21a3.15,3.15,0,0,1-1.06.89,6.33,6.33,0,0,1-1.27.5c-.48.16-1,.28-1.46.42a10.69,10.69,0,0,0-1.65.56h0a2.56,2.56,0,0,1-1.29.36,31.93,31.93,0,0,1-4,.24h-2a.34.34,0,0,0-.17,0,.24.24,0,0,0,.08.06l.41.08a18,18,0,0,0,2.43.16,22.88,22.88,0,0,0,2.48-.12c.61-.05,1.21-.15,1.81-.24s1.39-.24,2.08-.41c.53-.13,1.05-.26,1.57-.41a13.32,13.32,0,0,0,2-.74,2.25,2.25,0,0,1,.72-.23.49.49,0,0,1,.55.31,1.6,1.6,0,0,1,.1.23c.11.31.22,1-.07,1.1a4.31,4.31,0,0,1-1.18.33c-.44.11-1.2,0-1.63.16H25.24A16.79,16.79,0,0,1,23,22.5c-.57,0-1.13.05-1.69.07s-1,0-1.49,0c-1,0-1.91,0-2.87,0s-1.89,0-2.84-.08a20.16,20.16,0,0,1-2.68-.3l-.78-.13s-.07,0-.11,0l0,.24-.15,0a13.35,13.35,0,0,1-2.19,0,4.13,4.13,0,0,1-1-.19,1.63,1.63,0,0,0-.3-.07.39.39,0,0,0-.18,0,4.59,4.59,0,0,1-.83.21,3.65,3.65,0,0,1-1.19,0,1.42,1.42,0,0,1-.29-.1c-.1-.05-.11-.09-.07-.19.15-.31.28-.62.43-.92.32-.61.63-1.22,1-1.81s.82-1.31,1.23-2l.13-.2a.18.18,0,0,1,.23-.09,4.46,4.46,0,0,1,1,.34l1.2.64c.17.09.34.16.51.23a.47.47,0,0,0,.17,0c0-.09,0-.12-.06-.15a2.34,2.34,0,0,0-.78-.49,7.23,7.23,0,0,1-1-.53,1.56,1.56,0,0,1-.57-.68.17.17,0,0,1,0-.14s.08,0,.12,0a3.63,3.63,0,0,1,1.15.43,11.66,11.66,0,0,0,1.38.78l.06,0s.09,0,.11,0a.2.2,0,0,0,0-.11l-.08-.09-.29-.22-.53-.36C9.7,16.7,9.7,16.69,9.68,16.53Zm3.05,2.59c0,.05,0,.07.07.08.37.2.73.43,1.1.61a6.4,6.4,0,0,0,1.7.56,13,13,0,0,0,2.71.21,19.83,19.83,0,0,0,2.43-.26,14.67,14.67,0,0,0,2.67-.73l1.15-.43a9.38,9.38,0,0,0,1-.44,1.29,1.29,0,0,0,.62-.6.2.2,0,0,0,0-.28.61.61,0,0,0-.79-.09c-.46.31-.91.61-1.39.89a12.05,12.05,0,0,1-1.4.68,14.4,14.4,0,0,1-2.89.8,13.14,13.14,0,0,1-2.66.1,9.51,9.51,0,0,1-2.18-.46c-.65-.19-1.3-.41-1.95-.61ZM9,19.06s0,.05.05.06a3.43,3.43,0,0,0,1,.52.34.34,0,0,1,.18.09,2.35,2.35,0,0,0,1,.6l1.46.43a2.57,2.57,0,0,0,.73.1.48.48,0,0,0,.38-.15c.1-.11.07-.19-.06-.22a5.41,5.41,0,0,0-.55-.12,14.6,14.6,0,0,1-1.85-.43,2.85,2.85,0,0,1-.89-.44.36.36,0,0,0-.25-.08,1.22,1.22,0,0,1-.38-.07c-.21-.08-.42-.19-.63-.28S9.12,19,9,19.06Zm9.58.06v.05l.3,0c.38,0,.76,0,1.15,0a7.38,7.38,0,0,0,4.1-1.32.74.74,0,0,0,.13-.12.09.09,0,0,0,0-.14.17.17,0,0,0-.12,0l-.21.16a5.58,5.58,0,0,1-2,.81c-.45.1-.9.17-1.36.24s-.86.1-1.29.15l-.54,0A.53.53,0,0,0,18.61,19.12ZM17.72,21v0l-.12,0-2.51-.16-.64,0c-.06,0-.13,0-.13.07a.22.22,0,0,0,.06.15.5.5,0,0,0,.13,0l.35.05a10.85,10.85,0,0,0,2.61,0Zm-4.26.82c-.11-.15-.28-.14-.4-.2a3.16,3.16,0,0,0-.43-.16l-.42-.11-.45-.09-.43-.07c-.15,0-.3-.06-.45-.07a.75.75,0,0,0-.42,0,1.59,1.59,0,0,0,.27.12l.56.19a6.54,6.54,0,0,0,1.85.42A.51.51,0,0,0,13.46,21.79Z"/>
  <path class="cls-6" d="M26.18,15.34a.35.35,0,0,1-.13-.05l-.58-.37a2.55,2.55,0,0,1-.69-.66l-.11-.15a1,1,0,0,0-.18-.18c-.65-.4-1.31-.81-2-1.15a13.76,13.76,0,0,0-2.24-.85,10,10,0,0,0-2.83-.33,9.82,9.82,0,0,0-2.35.35,11.16,11.16,0,0,0-2.47,1,10.09,10.09,0,0,0-2,1.54.63.63,0,0,1-.2.13,2.08,2.08,0,0,0-.77.51c-.17.15-.33.31-.51.46a1,1,0,0,1-.78.26c-.17,0-.21-.08-.12-.23a4.75,4.75,0,0,1,.63-.79,3.73,3.73,0,0,0,.36-.43c.11-.15.07-.23-.11-.27s-.18-.1-.1-.24A5.7,5.7,0,0,1,9.64,13,7,7,0,0,1,11,11.88c.32-.21.64-.43,1-.62a11.1,11.1,0,0,1,1.74-.83A11.49,11.49,0,0,1,15.4,10a13.8,13.8,0,0,1,1.81-.24,8.55,8.55,0,0,1,1.89.07,13.71,13.71,0,0,1,2.09.47c.45.15.9.29,1.34.47a7.42,7.42,0,0,1,1.57.84,3.51,3.51,0,0,1,1,1.17c.4.7.67,1.47,1,2.21l.1.21,0,.14Zm-1.82-2,0,0a.7.7,0,0,0-.06-.09L24,12.85a5.73,5.73,0,0,0-1.4-1,9,9,0,0,0-2.09-.77,12.74,12.74,0,0,0-2.22-.3,8.9,8.9,0,0,0-1.55.05,10.42,10.42,0,0,0-2.08.37,9.28,9.28,0,0,0-1.56.6A7.53,7.53,0,0,0,11.31,13a.24.24,0,0,0-.06.08c.09,0,.14,0,.19,0a15.32,15.32,0,0,1,3.28-1.34,11.43,11.43,0,0,1,3.13-.39,11.13,11.13,0,0,1,1.73.16,10.8,10.8,0,0,1,2.22.63c.38.15.75.31,1.12.48l1.29.67Z"/>
  <path class="cls-6" d="M10.37,11.85a.69.69,0,0,1,.05-.13c.12-.29.26-.58.38-.87a11.08,11.08,0,0,1,.81-1.66,3.86,3.86,0,0,1,.9-1,2.09,2.09,0,0,1,.89-.42.61.61,0,0,1,.3,0,1.39,1.39,0,0,0,.73,0l.6-.17a5,5,0,0,1,.53-.11.31.31,0,0,1,.3.08c.08.08.07.17,0,.21a.49.49,0,0,1-.16.05l-.6.13L14.9,8v0h.21c.85-.12,1.7-.13,2.56-.17a15.79,15.79,0,0,1,1.82,0,8.59,8.59,0,0,1,1.44.18,3.62,3.62,0,0,1,1.62.76,2.61,2.61,0,0,1,.58.74,4.82,4.82,0,0,1,.37.91.24.24,0,0,1,0,.08c0,.06,0,.09-.1.08l-.07,0c-.43-.17-.84-.36-1.27-.51s-1.11-.4-1.68-.56a12,12,0,0,0-1.32-.3c-.41-.08-.83-.15-1.25-.2a2.27,2.27,0,0,0-.52,0A15.48,15.48,0,0,0,15,9.53a13.1,13.1,0,0,0-1.63.57,11.88,11.88,0,0,0-1.8,1,5.65,5.65,0,0,0-1,.73l-.17.11Zm2-2,0,0,.14,0a10.23,10.23,0,0,1,1.31-.37c.62-.14,1.24-.28,1.87-.38a21.76,21.76,0,0,1,2.67-.27,14.22,14.22,0,0,1,3.19.25.15.15,0,0,0,.18,0l-.09,0c-.37-.09-.74-.2-1.11-.28a12.19,12.19,0,0,0-2.34-.2,14.47,14.47,0,0,0-3.07.31,8.91,8.91,0,0,0-1.51.42l-1,.44A1.35,1.35,0,0,0,12.34,9.86Z"/>
  <path class="cls-6" d="M15.43,13.19c0,.1,0,.21,0,.31a2.58,2.58,0,0,0,.29,1.19,1.09,1.09,0,0,0,.36.35.13.13,0,0,0,.12,0c.05,0,0-.09,0-.13s-.2-.26-.28-.4a1.28,1.28,0,0,1-.14-.34s0-.09,0-.14a.39.39,0,0,1,.13.06c.05.08.09.16.13.24s.14.27.22.4a.17.17,0,0,0,.2.11.35.35,0,0,0,0-.11,3.23,3.23,0,0,1-.37-1.46,1.25,1.25,0,0,1,.19-.82.53.53,0,0,1,.48-.26c.51,0,1,0,1.53,0,.23,0,.46,0,.69.06a.25.25,0,0,1,.24.19c.05.18.13.35.2.53a2.07,2.07,0,0,1-.93,2.54,2.36,2.36,0,0,1-1.61.2,2,2,0,0,1-1.31-.88.87.87,0,0,1-.14-.27,2.25,2.25,0,0,1-.15-1.06,2,2,0,0,1,.09-.33Z"/>
  <path class="cls-6" d="M19,3.75c0,.07.09.07.15.08l.28,0a.6.6,0,0,1,.48.48c0,.16,0,.2-.16.23a8.2,8.2,0,0,1-1.49.18l-1.94,0c-.23,0-.47,0-.7-.07a.31.31,0,0,1-.12,0s.05-.1.09-.11a5.12,5.12,0,0,1,.53-.25,4.34,4.34,0,0,1,.62-.16,11.8,11.8,0,0,1,1.44-.18h.24l.16,0c0-.11-.09-.12-.15-.15a1.93,1.93,0,0,0-.67-.16,6.25,6.25,0,0,0-1.43.09c-.35.06-.71.09-1.07.14h-.1c-.07,0-.11-.05-.1-.12a.29.29,0,0,1,0-.1,1.44,1.44,0,0,1,.73-.84,6.09,6.09,0,0,1,1.09-.37l1-.31L18,2c.05,0,.12,0,.1-.11s-.07-.07-.11-.09a2.8,2.8,0,0,0-1.31-.26h0c-.22,0-.25,0-.18-.25a1.82,1.82,0,0,1,.07-.25,2.15,2.15,0,0,1,.74-1,.14.14,0,0,1,.21,0,2.06,2.06,0,0,1,.61.82,1.83,1.83,0,0,1,.2.69.25.25,0,0,0,.08.16l.35.39a3.22,3.22,0,0,1,.67,1.33.24.24,0,0,1,0,.08c0,.11,0,.17-.13.18l-.15,0C19.08,3.68,19.08,3.68,19,3.75Z"/>
  <path class="cls-6" d="M19.28,7.39a.84.84,0,0,1,.14-.06A4.11,4.11,0,0,1,21,7.24a2.42,2.42,0,0,1,.36.1.62.62,0,0,1,.17.11c.05,0,.13.08.1.15a.18.18,0,0,1-.16.06c-.32,0-.63,0-.94,0s-.74-.09-1.11-.14C19.38,7.48,19.32,7.49,19.28,7.39Z"/>
  <path class="cls-6" d="M13.26,7.43c-.14-.14.23-.91.61-1.25a3.56,3.56,0,0,1,1.19-.57,7.55,7.55,0,0,1,1.43-.44c.54-.07,1.42,0,2,0a6.69,6.69,0,0,0,.94-.12,1.66,1.66,0,0,1,.46-.16A.19.19,0,0,1,20.1,5l.37.31-.37.07-1.59.23s-1.15.19-1.11.29a7.23,7.23,0,0,0,1.39,0,9.2,9.2,0,0,1,1.92-.12.87.87,0,0,1,.42.49l.19.5a2.06,2.06,0,0,0-.85-.43,1.11,1.11,0,0,0-.72.07,4,4,0,0,1-1,.19,2.22,2.22,0,0,0-1,.31c-.4.21-.77.54-1.05.54s-.22-.14-.37-.28-.37-.11-.7-.12a3,3,0,0,0-.82.12,4.54,4.54,0,0,0-.61.24C14,7.53,13.4,7.57,13.26,7.43Z"/>
</svg>