<svg xmlns="http://www.w3.org/2000/svg" viewBox="0 0 200 200"><defs><style>.cls-1{fill:#fff;}</style></defs><g id="ILLUMINATI"><path class="cls-1" d="M44.57453,139.30176c.59745.23966,1.02617.36774,1.4134.57382q5.44323,2.89677,10.87359,5.81781c2.79835,1.5043,5.56742,3.06483,8.39005,4.52177a77.85585,77.85585,0,0,0,11.82913,4.98,66.35729,66.35729,0,0,0,14.97477,2.78268,1.37369,1.37369,0,0,0,.91625-.30356,4.05742,4.05742,0,0,0-.781-.4308c-1.78883-.52829-3.60356-.97464-5.37593-1.55181-4.71541-1.53555-9.43688-3.05825-14.11107-4.71283-3.43416-1.2156-6.83644-2.54092-10.18183-3.9824a63.239,63.239,0,0,1-10.21943-5.66623,8.94341,8.94341,0,0,1-.90517-.83239,7.7032,7.7032,0,0,1,5.86437-.278,54.52754,54.52754,0,0,1,5.41086,2.24455c-.31852-.51626-.57778-.87874-.77811-1.27127-.80661-1.58055-1.66887-3.13857-2.369-4.76583a7.62344,7.62344,0,0,1-.15215-4.88,2.08072,2.08072,0,0,1,.2946-.69546.61739.61739,0,0,1,1.12607.03891,3.95413,3.95413,0,0,1,.29212.69963,41.455,41.455,0,0,0,6.46888,11.32512,21.8883,21.8883,0,0,0,5.65478,4.68375,11.96547,11.96547,0,0,0,1.5953.67378l.18957-.24517a5.419,5.419,0,0,0-.5577-.66523c-.76514-.66889-1.55841-1.30556-2.32555-1.97224A30.3204,30.3204,0,0,1,63.418,133.04392a14.0748,14.0748,0,0,1,.296-10.90641c.11674-.26884.44773-.44464.67911-.6637.23634.263.58262.4871.6913.79509.76128,2.15771,1.418,4.3534,2.21484,6.49726a55.14933,55.14933,0,0,0,3.9749,8.65993,29.88319,29.88319,0,0,0,11.00956,11.37122,28.16853,28.16853,0,0,0,7.17063,2.88878,6.92958,6.92958,0,0,0,1.00372.15109c.10316.0098.21456-.06732.576-.19265-.69576-.34655-1.19255-.63836-1.72134-.85031a32.9816,32.9816,0,0,1-10.83581-6.99373,35.7416,35.7416,0,0,1-6.09261-7.77787,36.816,36.816,0,0,1-4.39546-14.23584,17.28025,17.28025,0,0,1-.01081-2.026c.78293.00923.82488.5527.971.948.47007,1.27166.86822,2.5709,1.36515,3.8315a42.99846,42.99846,0,0,0,6.80507,11.71922,39.908,39.908,0,0,0,3.96576,4.45835,34.239,34.239,0,0,0,6.89127,4.97937,35.99721,35.99721,0,0,0,19.18775,3.95858,33.62705,33.62705,0,0,0,21.98415-9.654,36.8634,36.8634,0,0,0,8.68881-13.31471,33.75575,33.75575,0,0,0,2.48469-10.216c.02058-.30676.19268-.8367.341-.85357a1.3201,1.3201,0,0,1,.998.32721,5.98944,5.98944,0,0,1,1.80606,4.09079,21.59763,21.59763,0,0,1-.30989,4.55373c-.68884,3.14447-1.571,6.24771-2.42734,9.35315a2.39376,2.39376,0,0,1-.841,1.21217,5.01206,5.01206,0,0,0-1.89782,2.77859c-.08323.28468-.22191.55583-.28147.84428a4.771,4.771,0,0,1-1.95183,2.69337c-1.78673,1.48727-3.41973,3.15967-5.10545,4.76689a3.00826,3.00826,0,0,0-.349.70644,6.03255,6.03255,0,0,0,.99172-.32841,23.742,23.742,0,0,0,9.26706-9.5248c2.7666-5.19144,3.97748-10.78125,4.66949-16.53837a12.63633,12.63633,0,0,1,.27642-1.26153c.78687-.05083.89286.47115,1.08216.87027a11.21568,11.21568,0,0,1,.9435,6.21078,37.01325,37.01325,0,0,1-3.71155,12.3628c-.81527,1.62853-1.6983,3.22309-2.54327,4.8369a2.91755,2.91755,0,0,0-.14979.51638c.59664.19974.93907-.15049,1.26273-.45057a14.33362,14.33362,0,0,0,4.07057-5.74857,58.08811,58.08811,0,0,0,2.57467-10.22013,7.74371,7.74371,0,0,1,.28731-1.36287.77182.77182,0,0,1,.52793-.453.72038.72038,0,0,1,.55932.39289,11.67663,11.67663,0,0,1,.6435,2.312,18.39834,18.39834,0,0,1-.776,7.16655c-.53733,1.96105-1.146,3.90255-1.72308,5.8527-.048.16225-.15632.33442-.131.48409.03849.22743.11568.54527.27676.6271a.69426.69426,0,0,0,.64438-.17389,8.4883,8.4883,0,0,0,.72291-1.18945c.96925-1.7117,1.97089-2.03588,3.64495-1.00753a30.53789,30.53789,0,0,1,2.489,1.96522,17.18646,17.18646,0,0,0,2.06013,1.4608,1.37922,1.37922,0,0,0,1.84245-.34291c1.36-1.64467,3.269-2.39,5.16915-3.11608,1.6615-.63488,3.37665-1.128,5.04955-1.73493a24.92351,24.92351,0,0,0,2.309-1.05026c.83227-.40221,1.00009-.3898,1.40282.39953a14.752,14.752,0,0,0,2.79423,3.75714,23.03526,23.03526,0,0,1,2.21216,2.623,4.683,4.683,0,0,1,.09837,5.68732,19.65932,19.65932,0,0,1-2.4048,2.78562,59.56122,59.56122,0,0,1-11.27023,8.227q-4.11524,2.4098-8.315,4.67461a46.43428,46.43428,0,0,1-9.45741,3.71493c-3.90795,1.11456-7.90828,1.90437-11.86594,2.84595-1.12538.26775-2.24149.57439-3.36186.86319l.04327.34905c.4423,0,.88783.035,1.32642-.00527a174.3255,174.3255,0,0,0,19.52954-2.65083,51.03451,51.03451,0,0,0,9.95909-3.03669,41.05647,41.05647,0,0,0,5.71809-3.29755,98.61917,98.61917,0,0,1,9.3812-5.855,22.631,22.631,0,0,1,5.66446-1.85133,5.33519,5.33519,0,0,1,1.0563-.01c.32129.7817-.20094,1.14858-.50595,1.56845a23.59035,23.59035,0,0,1-8.00236,6.73976,51.14543,51.14543,0,0,1-9.55823,3.79113c-3.64205,1.13159-7.342,2.07731-11.01881,3.09637a86.466,86.466,0,0,0-12.38425,4.22591.65638.65638,0,0,0-.11657.05037c-2.90028,2.08019-6.33658,2.28152-9.68842,2.67427a260.15005,260.15005,0,0,1-30.33413,1.85093c-5.13106-.00083-10.26212-.09168-15.39323-.136a2.747,2.747,0,0,0-1.31187.2737,2.29434,2.29434,0,0,0,.6413.40381c1.03293.231,2.0698.46048,3.11674.61a133.5551,133.5551,0,0,0,18.26334,1.25291c6.23483.02961,12.456-.32873,18.67258-.90757,4.56822-.42535,9.084-1.13947,13.60919-1.82868,5.28192-.80446,10.52646-1.81005,15.71078-3.10341,3.946-.98442,7.90116-1.9487,11.80231-3.09236a100.43668,100.43668,0,0,0,15.285-5.54884,16.39778,16.39778,0,0,1,5.42567-1.73959,3.77983,3.77983,0,0,1,4.128,2.302,16.89762,16.89762,0,0,1,.76649,1.74652c.842,2.34289,1.68265,7.13754-.511,8.30531-3.529,1.87867-5.06732,1.463-8.94224,2.47088-3.24065.84293-8.98894.36133-12.23676,1.17662-.32881.08255-10.50493.053-10.84.101a120.04624,120.04624,0,0,1-16.68141,1.20694c-4.238.107-8.47041.42158-12.70791.56915-3.72921.12985-7.46169.18021-11.19323.22625-7.20869.08894-14.41849.25033-21.62638.1944-7.1238-.05526-14.259-.13437-21.36477-.5865a171.38368,171.38368,0,0,1-20.2184-2.26527c-1.95483-.36035-3.91622-.68591-5.87793-1.0071a3.399,3.399,0,0,0-.84033.10625l.40249,1.767a6.28947,6.28947,0,0,1-1.08956.26722,104.35944,104.35944,0,0,1-16.51863.14964,35.76964,35.76964,0,0,1-7.48547-1.423,14.572,14.572,0,0,0-2.21-.57243,3.09873,3.09873,0,0,0-1.35321.15275,32.61865,32.61865,0,0,1-6.2661,1.61064,26.32557,26.32557,0,0,1-8.98292-.24273,11.50625,11.50625,0,0,1-2.15464-.75546c-.73753-.34007-.84553-.70006-.50564-1.441,1.06013-2.31112,2.06092-4.65452,3.23409-6.90765,2.388-4.5863,4.73477-9.20352,7.35625-13.65629,2.94519-5.00261,6.1742-9.83815,9.28164-14.74516.31759-.50151.66645-.98395.96839-1.4944a1.36853,1.36853,0,0,1,1.71015-.68911,34.176,34.176,0,0,1,7.431,2.58109c3.05214,1.57316,6.0477,3.25581,9.09205,4.8445,1.23869.6464,2.53192,1.19271,3.8211,1.73521a5.80783,5.80783,0,0,0,1.25787.23732c.24312-.64107-.14-.84166-.40437-1.09365a20.34129,20.34129,0,0,0-5.87363-3.73407,47.679,47.679,0,0,1-7.51613-3.99107,12.12423,12.12423,0,0,1-4.2851-5.08912,1.39236,1.39236,0,0,1-.04048-1.03958c.07018-.15172.61455-.17658.91543-.1149a27.10677,27.10677,0,0,1,8.62262,3.29,86.64225,86.64225,0,0,0,10.406,5.86243c.15566.06634.3054.20459.45866.20573.27115.002.65707.01482.78353-.14461a.98331.98331,0,0,0,.013-.81016,1.73533,1.73533,0,0,0-.556-.67893c-.73091-.5749-1.47361-1.137-2.23671-1.66827-1.3213-.91981-2.676-1.79209-3.988-2.72474C44.71373,140.577,44.70236,140.48047,44.57453,139.30176Zm22.91971,19.47406c.3215.34523.40571.49159.53222.56329,2.76642,1.56787,5.47391,3.25683,8.323,4.65763a48.29412,48.29412,0,0,0,12.77571,4.16986,94.8881,94.8881,0,0,0,20.3808,1.59177,140.34525,140.34525,0,0,0,18.32887-1.97727,104.44346,104.44346,0,0,0,20.09-5.473c2.88667-1.10956,5.82062-2.09733,8.69767-3.23036,2.59888-1.0235,5.21-2.04909,7.70215-3.29994a10.0719,10.0719,0,0,0,4.70111-4.50448,1.57445,1.57445,0,0,0-.32287-2.18026,4.53121,4.53121,0,0,0-5.89728-.61992c-3.462,2.29207-6.92114,4.602-10.50541,6.6919a81.29539,81.29539,0,0,1-10.52625,5.083,101.947,101.947,0,0,1-21.77228,6.02254,92.43383,92.43383,0,0,1-20.048.75658c-5.62174-.30378-11.024-1.87819-16.39446-3.45789-4.922-1.44781-9.802-3.03867-14.70365-4.55633A12.79317,12.79317,0,0,0,67.49424,158.77582Zm-27.845-.49192a2.22165,2.22165,0,0,0,.36336.47461c2.28546,1.53387,4.52132,3.156,7.23809,3.90018a2.93083,2.93083,0,0,1,1.324.67513,17.629,17.629,0,0,0,7.9601,4.55377c3.64883,1.10314,7.3059,2.18234,10.98049,3.1954a17.703,17.703,0,0,0,5.51332.81384,3.85126,3.85126,0,0,0,2.862-1.17586c.70377-.79108.53024-1.38337-.5-1.642-1.356-.3404-2.7213-.64753-4.09025-.93223-4.68277-.9739-9.443-1.59055-13.98979-3.18254a22.223,22.223,0,0,1-6.6757-3.326,3.06305,3.06305,0,0,0-1.87275-.6339,9.37345,9.37345,0,0,1-2.84565-.4852c-1.61891-.61359-3.16454-1.41978-4.74489-2.13646C40.7341,158.18425,40.30418,157.8199,39.64925,158.2839Zm72.12835.46007.04823.39168c.74259.09087,1.48346.24059,2.22806.26216,2.87607.08335,5.75487.21657,8.62984.16741a55.18871,55.18871,0,0,0,30.87346-9.90262,5.30007,5.30007,0,0,0,1.03449-.92217c.2599-.30558.35783-.76438-.03253-1.00486a1.02564,1.02564,0,0,0-.88767.09716c-.56528.3651-1.046.8585-1.59906,1.24559-4.52524,3.16732-9.67819,4.84447-14.97394,6.07187-3.37741.7828-6.82085,1.30775-10.25471,1.81185-3.22275.47312-6.47048.779-9.70994,1.13365-1.34624.1474-2.70116.21451-4.04873.35145A10.53243,10.53243,0,0,0,111.7776,158.744Zm-6.69623,13.93745-.03873-.35557c-.31978-.04532-.63816-.11155-.95953-.1329q-9.44984-.62819-18.90057-1.24258c-1.6068-.103-3.2167-.1617-4.82594-.21944-.432-.01551-.96529.05737-.98016.5737a1.69385,1.69385,0,0,0,.52332,1.06459,1.772,1.772,0,0,0,.93123.34324c.876.15345,1.75751.28031,2.64016.39094a85.02926,85.02926,0,0,0,19.66314-.01013A18.75223,18.75223,0,0,0,105.08137,172.68142Zm-32.08106,6.169c-.83912-1.08072-2.0636-1.00478-3.00982-1.47723a21.22809,21.22809,0,0,0-3.20926-1.18431c-1.04923-.32551-2.12292-.57836-3.1953-.82145-1.11349-.25242-2.23558-.46983-3.35893-.67494-1.08188-.19754-2.17079-.35615-3.25549-.53854-1.12639-.1894-2.24529-.4462-3.37886-.56328-1.0399-.1074-2.08476-.51955-3.176-.06952a11.05239,11.05239,0,0,0,2.0433.92207c1.39906.47876,2.81943.8966,4.21124,1.39483a47.18647,47.18647,0,0,0,13.91744,3.19352A4.23211,4.23211,0,0,0,73.00031,178.85045Z"/><path class="cls-1" d="M168.81147,130.3317a5.77755,5.77755,0,0,1-.99765-.38964c-1.47571-.91095-2.91667-1.879-4.40264-2.77238a20.79508,20.79508,0,0,1-5.196-4.99692c-.29382-.35958-.50217-.79029-.8041-1.14167a6.31012,6.31012,0,0,0-1.31818-1.33788c-4.94177-3.05026-9.8895-6.07937-15.1154-8.65026a95.91374,95.91374,0,0,0-16.8581-6.3981,74.88016,74.88016,0,0,0-38.97792.15407,79.99833,79.99833,0,0,0-18.59027,7.83523,76.3398,76.3398,0,0,0-15.26377,11.56416,3.98064,3.98064,0,0,1-1.44479.99085,15.91808,15.91808,0,0,0-5.7987,3.80833c-1.27114,1.18471-2.52337,2.39391-3.85095,3.51279a7.97259,7.97259,0,0,1-5.89259,1.92761c-1.30859-.09419-1.57933-.59767-.88186-1.70849a35.81166,35.81166,0,0,1,4.728-5.97086,29.32784,29.32784,0,0,0,2.67278-3.22635c.84332-1.15789.57761-1.73452-.78146-2.00632-1.14726-.22942-1.37147-.78423-.75662-1.8045A40.2063,40.2063,0,0,1,44.247,112.9741a53.8911,53.8911,0,0,1,10.036-8.75732c2.42235-1.56083,4.80488-3.19136,7.2918-4.64232a77.18275,77.18275,0,0,1,13.061-6.23709,87.59616,87.59616,0,0,1,13.005-3.49323,111.7857,111.7857,0,0,1,13.60974-1.79248,64.04227,64.04227,0,0,1,14.20652.52017,100.6658,100.6658,0,0,1,15.74312,3.55655c3.38048,1.11229,6.7972,2.15355,10.08246,3.50641a59.51193,59.51193,0,0,1,11.85128,6.36969c3.20821,2.27444,5.29645,5.44553,7.19064,8.77679,3.02692,5.32328,5.05379,11.10774,7.62336,16.64232.24975.53792.51311,1.06969.7525,1.6121.14605.33094.2583.6768.38571,1.016ZM155.10078,115.396l.20413-.31229a4.59954,4.59954,0,0,0-.46855-.705q-1.36467-1.41936-2.76254-2.80672a43.51843,43.51843,0,0,0-10.553-7.46775A69.69584,69.69584,0,0,0,125.81242,98.309a94.89537,94.89537,0,0,0-16.74111-2.27377,75.85063,75.85063,0,0,0-11.68767.34815,79.27,79.27,0,0,0-15.6232,2.79082,74.94549,74.94549,0,0,0-11.73128,4.52321,58.52831,58.52831,0,0,0-13.23041,9.18635,3.97932,3.97932,0,0,0-.459.62686c.66847.28346,1.07722-.0971,1.48907-.32947a110.10038,110.10038,0,0,1,11.57861-5.5431,112.28532,112.28532,0,0,1,13.1127-4.48211,83.62554,83.62554,0,0,1,23.52907-2.94817,79.91113,79.91113,0,0,1,13.03931,1.17985,85.14352,85.14352,0,0,1,16.74372,4.72723c2.83514,1.12421,5.64427,2.33365,8.38779,3.66414,3.27728,1.58934,6.47136,3.35019,9.70281,5.03421C154.31127,115.01562,154.708,115.20215,155.10078,115.396Z"/><path class="cls-1" d="M49.71881,104.044c.12744-.33635.24033-.67909.38466-1.008.95333-2.17282,1.96182-4.32285,2.861-6.51773A82.25451,82.25451,0,0,1,59.1157,83.981a28.742,28.742,0,0,1,6.708-7.75242,16.24907,16.24907,0,0,1,6.73665-3.14915,4.92064,4.92064,0,0,1,2.24634.15414,10.20809,10.20809,0,0,0,5.52738-.017c1.51624-.39778,3.00217-.91211,4.52054-1.30047,1.31125-.3354,2.64591-.58391,3.97672-.83661a2.43649,2.43649,0,0,1,2.24027.62512c.62991.60137.54319,1.25732-.23762,1.61656a6.06414,6.06414,0,0,1-1.21621.35929c-1.48836.33214-2.98461.63014-4.46836.98128a9.54071,9.54071,0,0,0-1.32408.52279l.074.2492a11.57018,11.57018,0,0,0,1.59021-.00961c6.39747-.89623,12.85033-1.01949,19.28586-1.322a123.32413,123.32413,0,0,1,13.73021.23639,70.16046,70.16046,0,0,1,10.84168,1.37,27.377,27.377,0,0,1,12.19349,5.73462,19.35669,19.35669,0,0,1,4.35424,5.59107,36.25125,36.25125,0,0,1,2.80349,6.809,2.38638,2.38638,0,0,1,.1489.614c.00867.47423-.24691.71206-.72445.62981a2.93374,2.93374,0,0,1-.59087-.22433c-3.17343-1.30921-6.30658-2.729-9.52962-3.90179-4.18116-1.52142-8.39761-2.9706-12.66752-4.21532-3.24709-.94657-6.58591-1.6058-9.91228-2.24517-3.12-.59972-6.2686-1.07733-9.42251-1.46181a17.58488,17.58488,0,0,0-3.92117.14175,111.97816,111.97816,0,0,0-17.72489,3.383,98.22465,98.22465,0,0,0-12.23462,4.29242A83.92612,83.92612,0,0,0,58.5184,98.0128a45.61938,45.61938,0,0,0-7.181,5.45534,8.081,8.081,0,0,1-1.29425.86728Zm14.8703-15.033.12307.2627a10.07618,10.07618,0,0,0,1.05294-.23642,93.19375,93.19375,0,0,1,9.89754-2.80508c4.67837-1.01535,9.33118-2.12291,14.078-2.818a161.86786,161.86786,0,0,1,20.09211-2.0647,103.06317,103.06317,0,0,1,24.02139,1.9241,1.36243,1.36243,0,0,0,1.35766-.16522,4.80981,4.80981,0,0,0-.68581-.3148c-2.78956-.70874-5.55972-1.51528-8.3774-2.08726A88.13234,88.13234,0,0,0,108.568,79.17609,109.04266,109.04266,0,0,0,85.4632,81.50937,69.79878,69.79878,0,0,0,74.083,84.63609c-2.63172,1.05616-5.23132,2.19405-7.82745,3.33594A13.243,13.243,0,0,0,64.58911,89.011Z"/><path class="cls-1" d="M87.83075,114.0901c.0573.79163.15446,1.58273.16485,2.375a18.47246,18.47246,0,0,0,2.20935,8.91968,7.98213,7.98213,0,0,0,2.65639,2.67682,1.00236,1.00236,0,0,0,.9092.06017c.41263-.29391.11646-.69187-.10345-.99522-.72038-.9936-1.54076-1.92494-2.16687-2.97327a11.20391,11.20391,0,0,1-1.00984-2.59214c-.08511-.28908.15178-.673.2414-1.01347.32214.14364.76229.20134.94226.4485a15.11285,15.11285,0,0,1,.97413,1.77742c.54195,1.00708,1.06258,2.027,1.64488,3.01037a1.3428,1.3428,0,0,0,1.51207.84512,3.52678,3.52678,0,0,0-.20919-.82377,24.98276,24.98276,0,0,1-2.81528-10.99956,9.76368,9.76368,0,0,1,1.47892-6.20439,3.87113,3.87113,0,0,1,3.576-1.93623c3.85516.08948,7.71583-.08682,11.573-.043,1.7297.01963,3.45561.31694,5.1847.47171a1.85078,1.85078,0,0,1,1.79712,1.48305c.4011,1.33441,1.00046,2.60783,1.47529,3.92168,2.38091,6.58806.4183,15.40441-6.959,19.18272A17.78185,17.78185,0,0,1,98.7814,133.1603a15.60218,15.60218,0,0,1-9.90162-6.60255,8.65461,8.65461,0,0,1-1.03979-2.0277,17.0535,17.0535,0,0,1-1.14979-7.97859,17.86161,17.86161,0,0,1,.69387-2.51505Z"/><path class="cls-1" d="M114.6927,43.0193c.20848.52647.71558.52512,1.14877.61277.706.14285,1.43694.18609,2.12716.37924,1.67728.46934,3.40157,1.598,3.60145,3.64545.11127,1.13978-.02294,1.43627-1.17477,1.66738a55.44658,55.44658,0,0,1-11.215,1.38933q-7.31166-.0416-14.62213-.22282c-1.77533-.04652-3.54666-.29893-5.31514-.49877a2.74089,2.74089,0,0,1-.838-.42778c.20013-.28988.33532-.70892.6114-.84768a34.55046,34.55046,0,0,1,4.0423-1.84329,38.11939,38.11939,0,0,1,4.65992-1.241,82.60792,82.60792,0,0,1,10.84518-1.325c.59048-.0458,1.18753-.00438,1.77876-.04436.39391-.02664.78291-.12618,1.19342-.1964-.09675-.80086-.66343-.9157-1.09458-1.099a15.0935,15.0935,0,0,0-5.04422-1.21782,47.57473,47.57473,0,0,0-10.76464.66861c-2.6711.45256-5.37518.711-8.06527,1.05035a3.43169,3.43169,0,0,1-.76038.02733.74766.74766,0,0,1-.75874-.94507,4.23535,4.23535,0,0,1,.20887-.73095,10.89,10.89,0,0,1,5.5528-6.32376A44.0153,44.0153,0,0,1,98.975,32.70233c2.60337-.75694,5.19764-1.54525,7.79433-2.325a4.40167,4.40167,0,0,0,.70908-.28062c.36917-.18567.91026-.33451.77457-.84634-.07478-.28208-.49243-.52921-.80862-.68271a21.12731,21.12731,0,0,0-9.87905-1.97259c-.12715.0029-.25445.00052-.38166-.001-1.66891-.02-1.857-.28915-1.36238-1.90077.18651-.60769.31328-1.23436.51314-1.83718a15.70114,15.70114,0,0,1,5.625-7.80987c.61358-.45895,1.06085-.24408,1.57829.16563a15.87983,15.87983,0,0,1,4.5353,6.20332,13.18965,13.18965,0,0,1,1.51889,5.2181,2.20435,2.20435,0,0,0,.61577,1.19677c.84427,1.00186,1.802,1.91155,2.60907,2.94069a24.51249,24.51249,0,0,1,5.10865,9.98581c.0441.20728.112.41.1484.61834.14984.859-.17868,1.30418-1.04252,1.33366a7.31575,7.31575,0,0,1-1.12907-.15015C115.33448,42.48715,115.334,42.49084,114.6927,43.0193Z"/><path class="cls-1" d="M116.81574,70.42205a6.93175,6.93175,0,0,1,1.06331-.41827c3.99417-.835,8.0069-1.45793,12.08768-.68271a18.18919,18.18919,0,0,1,2.67472.767,4.771,4.771,0,0,1,1.30746.76661c.37955.29835.99106.63557.71693,1.18192-.146.29107-.78433.47571-1.19672.46933-2.366-.03658-4.73983-.04422-7.09375-.25487-2.779-.24871-5.54058-.69277-8.30931-1.05521C117.62348,71.1379,117.1051,71.22765,116.81574,70.42205Z"/><path class="cls-1" d="M71.49026,70.73679c-1.04234-1.088,1.71508-6.82291,4.58878-9.43707s8.95431-4.2358,8.95431-4.2358,6.75842-2.81348,10.81276-3.35334,10.70578.27408,15.17829,0a46.48918,46.48918,0,0,0,7.05967-.88246,12.58891,12.58891,0,0,1,3.51774-1.23544,1.52719,1.52719,0,0,1,1.424.88246l2.74923,2.29439-2.74923.52947L111.0244,57.06392s-8.666,1.37387-8.32034,2.1179,10.43824.17649,10.43824.17649,12.76969-1.8009,14.47232-.88246a6.54,6.54,0,0,1,3.17685,3.70633l1.41193,3.70633s-3.39257-2.80518-6.42834-3.17685-3.63168-.1765-5.3966.52947-2.93244.68936-7.23616,1.41193-4.30372.72258-7.32,2.2944S100.03208,71.025,97.964,71.025s-1.65279-1.01127-2.82386-2.05749-2.774-.876-5.29475-.96109a21.05449,21.05449,0,0,0-6.17721.96109c-2.12413.482-2.46881.99683-4.58879,1.76929S72.5326,71.82476,71.49026,70.73679Z"/></g></svg>