<?xml version="1.0" encoding="utf-8"?>
<!-- Generator: Adobe Illustrator 24.0.2, SVG Export Plug-In . SVG Version: 6.00 Build 0)  -->
<svg version="1.1" id="ROOMS_LOGOS" xmlns="http://www.w3.org/2000/svg" xmlns:xlink="http://www.w3.org/1999/xlink" x="0px"
	 y="0px" viewBox="0 0 28.4 22.7" style="enable-background:new 0 0 28.4 22.7;" xml:space="preserve">
<style type="text/css">
	.st0{fill:#FFFFFF;}
</style>
<title>JACK THE RIPPER</title>
<path class="st0" d="M18.4,12.8l-0.1,0.9c0,0.2,0,0.3,0,0.5l0.1,2.3l0.1,2c0,0.2,0,0.3,0,0.5l0,0.4c0,0.1,0,0.1-0.1,0.1l-0.2,0.1h0
	L18,19.8c-0.1,0.1-0.3,0.1-0.5,0.1l0,0c-0.1,0-0.2,0.1-0.2,0.1l-0.1,1.4c0,0,0,0,0,0l-0.1,0.4c0,0,0,0,0,0.1l-0.3,0.3l0,0l-0.3,0.3
	c0,0,0,0-0.1,0L16,22.6c0,0,0,0,0,0h-0.3c-0.1,0-0.1,0-0.1-0.1v0c0-0.1,0-0.3,0-0.3l0.2-0.2c0.1-0.1,0.2-0.1,0.2-0.2l0.2-0.2v0
	l0-0.5c0,0,0,0,0,0l0-0.2c0-0.1,0-0.1-0.1-0.2l0,0c-0.1,0-0.1-0.1-0.1-0.2l0.1-0.5c0-0.1-0.1-0.2-0.1-0.2c0,0,0,0,0,0h0
	c-0.1,0-0.1,0.1-0.1,0.2l0.1,0.5c0,0,0,0.1,0,0.1l-0.1,0.1c0,0,0,0.1,0,0.2l0,0.3c0,0,0,0,0,0.1v0.1c0,0.1,0,0.1-0.1,0.1l-0.5,0.1
	c0,0,0,0-0.1,0L14,21.7l0,0l-0.6,0h0l-0.3-0.1c-0.1,0-0.1-0.1-0.1-0.1v-0.2c0-0.1,0-0.1,0.1-0.1l0.4-0.1l0.8-0.2c0,0,0.1,0,0.1-0.1
	l0.1-0.1c0,0,0,0,0-0.1l0-0.4l0,0l0-0.1c0-0.1-0.1-0.1-0.1-0.2l-0.4,0h0l-0.5,0.1l-0.3,0c-0.3,0-0.6,0.1-0.8,0l-0.2,0
	c0,0-0.1,0-0.1,0L12,19.7c-0.2-0.2-0.4-0.4-0.7-0.5l0,0c-0.1,0-0.2-0.1-0.3-0.1l-0.3-0.1h0l0,0c-0.4-0.1-0.7-0.3-1-0.6l-0.1-0.1
	l-0.9-0.7c0,0-0.1,0-0.1,0l-0.4,0c-0.1,0-0.2-0.1-0.1-0.2c0,0,0,0,0-0.1l0,0c0.1-0.2,0.3-0.4,0.4-0.5l0.2-0.1
	c0.1-0.1,0.3-0.2,0.4-0.2l0.4-0.2c0,0,0.1,0,0.1-0.1L9.7,16c0-0.1,0-0.1,0-0.2l-0.3-0.4v0l-0.5-0.7c0,0,0,0,0,0l-0.1-0.2
	c0-0.1,0-0.2,0.1-0.2L9.5,14c0.1,0,0.1-0.1,0.2-0.1l0.5-0.4c0.2-0.2,0.4-0.4,0.6-0.6l0.2-0.2c0.2-0.3,0.4-0.6,0.5-0.9l0.1-0.4
	c0,0,0,0,0,0l0.1-0.7c0.1-0.4,0.2-0.7,0.3-1l0.4-0.8v0l0.2-0.6c0-0.1,0-0.2-0.1-0.2l-0.3-0.1h0l-0.1,0c-0.1,0-0.1-0.1-0.1-0.2l0-0.2
	c0-0.3,0.1-0.6,0.2-0.9l0.4-1.4c0.1-0.3,0.2-0.5,0.4-0.7l0.7-0.9l0,0l0.1-0.1c0.1-0.1,0.1-0.2,0-0.2l-0.1-0.1c0,0,0,0,0,0l-0.2-0.4
	c0-0.1-0.1-0.1-0.2-0.1L12.4,3l0-0.1l0.8-0.5c0.1,0,0.1-0.1,0.1-0.2L12.6,1c0-0.1,0-0.2,0.1-0.2l0.8-0.4c0.1-0.1,0.2-0.1,0.4-0.1
	l1-0.2c0.1,0,0.2,0,0.2,0.1l0.5,1.4c0,0.1,0.1,0.1,0.2,0.1l0.8-0.2l0,0.1l-0.7,0.3c-0.1,0-0.1,0.1-0.1,0.2l0.1,0.4c0,0,0,0,0,0.1
	v0.2c0,0.1,0.1,0.2,0.2,0.2h0.5c0.1,0,0.1,0.1,0.1,0.2c0,0,0,0,0,0l-0.1,0.4c0,0.1,0,0.1,0.1,0.2l0,0c0.3,0.3,0.6,0.6,0.9,0.9l0,0.1
	l0,0c0.3,0.4,0.5,0.8,0.6,1.2l0,0c0,0,0,0,0,0l0.1,0.3c0,0,0,0.1,0,0.1c0,0.1,0,0.2,0.1,0.2l0,0.1c0,0.1,0,0.2,0,0.4v0.3
	c0-0.1,0,0,0,0c0,0.1,0,0.2,0,0.3v0.1c0,0,0,0,0,0v0.2c0,0.1,0,0.2,0,0.3l0,0.3c0,0,0,0,0,0c-0.1,0.4-0.1,0.8-0.1,1.2V10
	c0,0.3,0.1,0.6,0.1,0.9l2,1.2l-1.9-0.6l0,0.9C18.4,12.6,18.4,12.7,18.4,12.8z"/>
</svg>
