<?xml version="1.0" encoding="utf-8"?>
<!-- Generator: Adobe Illustrator 23.0.1, SVG Export Plug-In . SVG Version: 6.00 Build 0)  -->
<svg version="1.1" id="Layer_1" xmlns="http://www.w3.org/2000/svg" xmlns:xlink="http://www.w3.org/1999/xlink" x="0px" y="0px"
	 viewBox="0 0 200 200" style="enable-background:new 0 0 200 200;" xml:space="preserve">
<style type="text/css">
	.st0{fill:#FFFFFF;}
</style>
<path class="st0" d="M33.3,90.5c0.1-5.2,1.3-9.9,3.2-14.8c2.3-6,3.3-12.6,4.1-19.1c0.9-7.7,0.7-15.5,1.6-23.2
	c1.4-11.3,7.5-20.2,15.6-27.8c3.3-3.1,7.3-3.2,11.3-1.8c5,1.7,9.9,3.3,15.3,3.8c2.2,0.2,4.3,2,6.3,3.2c3.7,2.2,7.6,4,12,2.7
	c2.3-0.7,4.5-2,6.5-3.3c2.3-1.5,4.2-3.4,6.4-5.1c6.1-4.8,13.1-6,20.6-4.6c5.7,1.1,9.7,4.5,12.9,9.2c5.1,7.3,7.1,15.6,8.1,24.3
	c1.7,14.7,3.9,29.2,8,43.5c2.8,9.7,1,19.3-2.5,28.6c-2.3,6.2-4.9,12.3-7.2,18.5c-2.4,6.5-3.5,13.3-3.6,20.2
	c-0.1,3.1-0.2,6.2-0.2,9.3c0,4.8-1.4,9.1-4.6,12.5c-8.5,9-16.9,18.1-25.8,26.7c-5.4,5.3-12.8,6.3-20.1,6.5
	c-5.7,0.2-11.3-0.6-16.8-2.4c-6.2-2.1-11.2-5.7-15.2-10.8c-4.1-5.1-8.2-10.2-12.4-15.3c-6.8-8.2-9.6-17.8-9.9-28.1
	c-0.3-10.1-2.9-19.5-7.1-28.6c-2.6-5.6-5.5-11.2-6.2-17.5C33.5,95,33.5,92.8,33.3,90.5z M51.5,87.5c-0.7,5.5,0.4,10.3,5,13.8
	c0.5,0.4,0.8,1.5,0.7,2.2c-0.7,5.1-1.8,10.1-2.3,15.1c-0.8,6.6-2.1,13.4-1.5,20c1,10.9,6.1,13.7,13.7,13.6c7.3-0.2,14.7-0.6,22-1.4
	c5.1-0.5,10-1.6,15.2-0.5c8.3,1.8,16.8,2.2,25.3,1.8c10.1-0.5,14.6-4.5,16.4-14.3c1.2-6.7,1-13.3-0.7-19.9
	c-1.3-5.1-2.3-10.2-3.4-15.3c6.7-2.5,10.6-10,8.2-15.1c-3.5,10-4.4,11.3-8.2,12c0.4-2.4,0.8-4.7,1.3-7.1c-2.2,0.8-2.2,0.8-4,7.4
	c-7.8,1-12.7-4.7-18.5-8.3c4.9,5.9,10.6,10.3,18.5,11.1c0.8,7,1.7,13.7,2.2,20.4c0.3,4.8,0.1,9.6-0.2,14.3c-0.3,4.3-2,5.6-6.3,5.2
	c-6.3-0.5-12.6-1-18.9-1.8c-3.3-0.4-5.9-0.1-8.7,2.2c-5.4,4.4-9.7,4.4-15.6,0.6c-1.4-0.9-2.8-1.8-4.2-2.8c-2.3-1.5-4.7-1.9-7.5-1.3
	c-4.8,1-9.5,2-14.4,2.5c-4.5,0.4-7.3-2-7.4-6.5c-0.1-3.8,0.5-7.6,1-11.4c0.9-7.2,2-14.4,2.9-21.4c9.3-1.8,20.5-8.7,20.9-13.1
	c-6.3,5.3-12.5,10.4-21.1,10.3c-1.6-3.7-1.8-8.1-5.8-9.8c-0.4,0.2-0.7,0.3-1.1,0.5c0.9,2.7,1.8,5.4,2.7,8.1
	C53.4,96.1,52.9,91.6,51.5,87.5z M44.4,63.6c0.2,0,0.4,0,0.6,0c0.3-1.1,0.7-2.2,1-3.4c1.1-5.2,3.1-10.1,6.2-14.4
	c4-5.5,8-6.2,13.3-1.9c3,2.4,5.7,5.2,8.3,7.9c3.3,3.4,6.4,6.9,9.6,10.4c2.1,2.3,4,2.5,6.1,0.9c1.5-1.3,1.5-2.7-0.3-5.3
	c-0.5-0.7-1-1.4-1.6-2.1c-3.9-4.2-7.7-8.6-11.9-12.5c-4-3.7-8.3-6.9-12.8-10c-2.8-2-6-1.4-8.7,0.8c-1.1,0.9-2.1,2-3,3.1
	c-6.1,7.4-7.1,16.2-7.2,25.2C44,62.7,44.3,63.2,44.4,63.6z M157,63.8c0.4-0.1,0.8-0.1,1.2-0.2c-0.3-3.2-0.4-6.4-0.9-9.6
	c-1-6.6-3-12.9-7.6-18.1c-3.8-4.2-7.6-4.9-12.3-1.8c-9.9,6.6-17.5,15.6-25.2,24.4c-0.1,0.1-0.1,0.1-0.1,0.2c-1.1,1.5-1,3,0.4,4.3
	c1.4,1.4,3.1,1.8,4.7,0.5c0.9-0.7,1.7-1.7,2.5-2.6c5.5-5.6,10.9-11.5,16.7-16.8c5-4.6,8.6-4.1,13,1.2c3.6,4.3,5.2,9.4,6.6,14.7
	C156.2,61.3,156.6,62.5,157,63.8z M78.2,162.9c14-7.9,27.9-5.6,41.9,0.7C113.6,153.1,85.7,151.9,78.2,162.9z M73.8,81
	c0-3.3-2.4-5.8-5.7-5.8c-3.2,0-5.8,2.5-5.9,5.7c-0.1,3.1,2.7,5.9,6,5.8C71.4,86.7,73.8,84.2,73.8,81z M135.9,80.6
	c0-3.1-2.3-5.4-5.4-5.4c-3.5,0-6,2.6-5.9,6.1c0.1,3.2,2.4,5.4,5.7,5.4C133.6,86.6,135.9,84.2,135.9,80.6z M113.6,76.1
	c0.1,0.1,0.2,0.1,0.4,0.2c0.8-0.9,1.6-1.7,2.4-2.6c5.6-6.7,12.9-9.3,21.5-8.8c4.6,0.3,11.1,3.6,12.4,10.3c0.1,0.6,0.4,1.2,0.8,2.1
	c0.3-0.5,0.5-0.7,0.5-0.8c-0.1-6.3-3.9-11.6-9.9-13.3c-9.8-2.7-20.8,0.6-27.3,11C114,74.7,113.9,75.4,113.6,76.1z M85.7,136.4
	c-1.6-4.4-0.8-8.7,0.4-13c1.7-5.7,3.7-11.4,5.6-17c2.7-7.9,3.2-15.9,1.2-24c-0.2-0.9-0.7-1.8-1-2.6c-0.2,0.1-0.5,0.1-0.7,0.2
	c0.2,1.4,0.3,2.8,0.6,4.1c1.2,6.1,1.2,12-0.7,18c-1.5,4.6-3.1,9.2-4.5,13.9c-1.2,4-2.2,8-2.9,12C83.1,130.9,83.4,134,85.7,136.4z
	 M87.1,75.7c-4.1-10-17.3-16-27.4-12.7c-6.5,2.1-10.7,8.4-9.7,15.1c0.3-0.9,0.5-1.3,0.6-1.8c1.1-5.7,4.4-9.5,10.1-10.9
	c7.6-1.9,14.4,0.1,20.4,4.8C83.3,71.8,85.2,73.9,87.1,75.7z M107,78.8c-0.8,0.6-1.1,0.7-1.1,0.9c-1.6,6.2-3.5,12.2-1.6,18.8
	c2.9,10,5.6,20.1,8.3,30.2c0.2,0.8,0.4,1.6,0.6,2.3c0.2,0,0.5-0.1,0.7-0.1c-0.3-2.7-0.3-5.4-1-8c-2-7.9-4.2-15.7-6.6-23.5
	c-1.5-4.8-1.8-9.5-0.5-14.4C106.2,83.2,106.5,81.3,107,78.8z M52.8,81.9c0.3-1.3,0.6-2.5,0.9-3.8c1.3-6,4.7-8.9,10.9-9
	c5.3-0.1,9.6,2.2,13.4,5.5c1.2,1,2.4,2.1,3.5,3.2c1.2,1.1,2.3,2.1,3.5,3.2c0.1-0.2,0.3-0.3,0.4-0.5c-4.7-6.4-10.3-11.7-18.5-13.1
	C58.2,66,50.9,73.5,52.8,81.9z M148.9,81.9c0.9-10.5-4.6-14.5-12.4-14.2c-9.7,0.4-15.4,6.9-20.8,13.8c0,0,0.1,0.2,0.2,0.4
	c2.2-2.1,4.4-4.2,6.5-6.2c3.1-2.9,6.4-5.2,10.6-6.1c8.3-1.8,13.1,1.1,15.1,9.3C148.4,79.8,148.7,80.8,148.9,81.9z M53.3,84.1
	c1.8,3.3,4.7,5.2,8.3,5.7c8.4,1.2,15.8-1.7,23-5.6c0.1,0,0-0.2,0.1-0.5c-3.9,1.2-7.6,2.6-11.4,3.5C66.2,88.9,59.2,89.7,53.3,84.1z
	 M117.3,83.6c-0.1,0.2-0.1,0.3-0.2,0.5c1,0.6,2,1.4,3.1,1.7c5,1.5,10,3.1,15.2,4.2c4.5,0.9,8.5-0.7,11.8-3.9
	c0.6-0.6,0.9-1.4,1.3-2.1c-1,0.1-1.5,0.4-2,0.8c-3.1,2.9-6.8,4.1-10.8,3.5c-4.2-0.6-8.3-1.6-12.4-2.6
	C121.2,85.2,119.3,84.3,117.3,83.6z M88.9,167.5c6.6-2.3,13.1-2.4,19.5,0.4C104.1,162.9,92.3,162.6,88.9,167.5z M116,126.5
	c3.5,8.1,3.3,8.6-3.1,11.1c2.3,1.1,5.5,0,6.7-2.2C121,132.7,119.6,128.9,116,126.5z M80.1,126.5c-3.6,4.8-3.2,10.5,0.7,11.6
	C78,134.5,79.3,130.8,80.1,126.5z"/>
</svg>
