<svg id="ROOMS_LOGOS" data-name="ROOMS LOGOS" xmlns="http://www.w3.org/2000/svg" viewBox="0 0 28.35 22.68"><defs><style>.cls-1{fill:#fff;}</style></defs><title>LAPLAND</title><g id="LAPLAND"><path class="cls-1" d="M20.67,7.44,22.81,4a.75.75,0,0,0,.12-.44V1.28a.81.81,0,0,0-.81-.82H19.94a.84.84,0,0,0-.85.82V2.5a.33.33,0,0,1-.32.35h-2.2a.35.35,0,0,1-.34-.35V1.28a.82.82,0,0,0-.82-.82H12.75a.82.82,0,0,0-.83.82V2.5a.35.35,0,0,1-.34.35H9.38a.34.34,0,0,1-.32-.35V1.28A.83.83,0,0,0,8.22.46H6a.81.81,0,0,0-.82.82V3.56A.83.83,0,0,0,5.34,4L7.49,7.44a.82.82,0,0,1,.12.43v9.36a.83.83,0,0,1-.4.71l-1.59,1a.83.83,0,0,0-.4.71v2.06a.81.81,0,0,0,.82.81H22.11a.81.81,0,0,0,.82-.81V19.61a.82.82,0,0,0-.39-.71l-1.6-1a.83.83,0,0,1-.4-.71V7.87a.83.83,0,0,1,.13-.43ZM16.23,12.3a.61.61,0,0,1-.61.62H12.53a.61.61,0,0,1-.61-.62V9.64A2.12,2.12,0,0,1,14,7.52h.07a2.12,2.12,0,0,1,2.12,2.12Zm0,0"/></g></svg>