<svg id="ROOMS_LOGOS" data-name="ROOMS LOGOS" xmlns="http://www.w3.org/2000/svg" viewBox="0 0 28.35 22.68"><defs><style>.cls-1{fill:#fff;}</style></defs><title>LAS VEGAS</title><g id="LAS_VEGAS" data-name="LAS VEGAS"><path class="cls-1" d="M2.61,10.93l.07-.52h0c0,.15,0,.31.08.46A3.2,3.2,0,0,0,3.29,12a.58.58,0,0,1,.09.29c0,.63,0,1.26,0,1.88a.47.47,0,0,0,.13.34,6.22,6.22,0,0,0,1.76,1.39l.07,0V13.62a4,4,0,0,1,.93.45,1.14,1.14,0,0,0,.61.24,3.1,3.1,0,0,1,.86.28,1.66,1.66,0,0,0,.35.19s.05,0,.06,0c.23-.16.43,0,.65.05a1.38,1.38,0,0,1,.2,0s.1,0,.1,0c.08.21.28.16.42.19l1.5.22V17.5a19.85,19.85,0,0,0,3.93,0v-.18c0-.62,0-1.23,0-1.85,0-.12,0-.18.15-.17a1.88,1.88,0,0,0,.33-.05,19.48,19.48,0,0,1-4.37-.52l-.06.14a15.14,15.14,0,0,1-5.57-1.56l.5-.15.29-.1c.19-.1.21-.21,0-.35l-1-.82c-.1-.09-.21-.17-.3-.26a.84.84,0,0,0-.88-.2c-.19,0-.38.1-.57.16a.17.17,0,0,1-.24-.08,2.56,2.56,0,0,1-.09-2.83c.09-.17.17-.35.42-.21a18.61,18.61,0,0,1-.13-3.16h.06a2,2,0,0,0,.08.5,8.92,8.92,0,0,0,.44,1,.84.84,0,0,1,.14.48c0,.58,0,1.17,0,1.75a.5.5,0,0,0,.15.4,6.41,6.41,0,0,0,1.69,1.33l.07,0h0V8.52c.15.13.36.08.42.3,0,0,0,0,.08,0L8,9.42l0-.13a10.79,10.79,0,0,1,1.24.45,2.82,2.82,0,0,0,.83.22l.93.16s.08,0,.1,0c.25-.19.51,0,.78,0v2.33a21.28,21.28,0,0,0,3.91,0V10.1a17.39,17.39,0,0,0,4.42-1l0,0-.19.14a3.15,3.15,0,0,0,1.39-.75l0,0v2.29l.81-.52a4.72,4.72,0,0,0,1.09-1,.36.36,0,0,0,.07-.22c0-.65,0-1.29,0-1.94a.4.4,0,0,1,.07-.24,2.66,2.66,0,0,0,.63-1.56l.07,0,.06.66.71-.2a.14.14,0,0,1,.2.07,2.6,2.6,0,0,1,0,3A.18.18,0,0,1,25,9c-.29-.08-.58-.14-.88-.21-.09,0-.14,0-.18.11a4.2,4.2,0,0,1-1.26,1.52l-.13.12.57.17a21.12,21.12,0,0,1-4.64,1.61,18.14,18.14,0,0,1-4.88.54v2a21.39,21.39,0,0,0,3.92,0V12.68l1.27-.18a1.88,1.88,0,0,0,.75-.24,1.6,1.6,0,0,1,.55-.15l.42-.1-.11.14v0l1.85-.62-.14-.08.71-.32,0,.1.33-.16v2.2c.36-.24.69-.44,1-.67a10.73,10.73,0,0,0,.86-.79.4.4,0,0,0,.14-.33q0-.93,0-1.86a.36.36,0,0,1,.07-.22,3.41,3.41,0,0,0,.67-1.71,1.27,1.27,0,0,1,.05.34c0,.49,0,1,0,1.48,0,.33,0,.67-.07,1a3.2,3.2,0,0,1-.76,1.58,6,6,0,0,1-1.17,1l-.15.1.12.2a2.57,2.57,0,0,1-.09,2.86c-.06.09-.11.1-.22.07-.27-.07-.55-.15-.83-.2a.74.74,0,0,0-.58.18l-1.3,1.12c-.18.16-.15.3.07.38s.47.15.75.23a15.09,15.09,0,0,1-5.59,1.57v-.2c0-.26-.08-.36-.33-.41a1.76,1.76,0,0,0-.33,0H12.64c-.32,0-.53.09-.48.53a.77.77,0,0,0,0,.1,15.2,15.2,0,0,1-5.59-1.57l.53-.15a1.84,1.84,0,0,0,.25-.09c.19-.1.21-.21,0-.36s-.52-.46-.79-.68a1,1,0,0,0-.17-.1l-1-.44a.45.45,0,0,0-.28,0,3.06,3.06,0,0,0-.54.15.13.13,0,0,1-.18-.07l-.42-.93-.12-.22H3.86c0,.17,0,.33.07.49a3.22,3.22,0,0,0,.5,1.1.47.47,0,0,1,.08.26c0,.63,0,1.27,0,1.9a.44.44,0,0,0,.12.33,6.24,6.24,0,0,0,1.79,1.4s0,0,.06,0V18.5l.14.06a13.83,13.83,0,0,0,4.21,1.35c.4.07.8.12,1.2.16.11,0,.13.06.13.16,0,.63,0,1.26,0,1.89,0,.14,0,.19.19.19.84,0,1.69.05,2.54.06.39,0,.79-.05,1.2-.07V20.1a15.3,15.3,0,0,0,5.68-1.57V20.7c.23-.13.43-.24.62-.37a6.48,6.48,0,0,0,1.2-1,.56.56,0,0,0,.16-.4c0-.6,0-1.21,0-1.82a.27.27,0,0,1,.05-.18,3.21,3.21,0,0,0,.66-1.73h0a1.11,1.11,0,0,1,.05.25c0,.56,0,1.11-.05,1.67a6.36,6.36,0,0,1-.1,1.07A3.5,3.5,0,0,1,23.17,20,9.78,9.78,0,0,1,19.36,22a17.13,17.13,0,0,1-4.26.67l-.18,0H13.39l-.13,0c-.79-.08-1.58-.12-2.36-.24a13.46,13.46,0,0,1-4-1.22A6.75,6.75,0,0,1,4.61,19.5a3,3,0,0,1-.75-1.69c0-.68-.07-1.37-.1-2.06a2.15,2.15,0,0,1,.05-.51A.19.19,0,0,0,3.75,15a3.36,3.36,0,0,1-1-1.63c-.08-.43-.08-.87-.12-1.31l-.06-1Zm5.33,6.32a7.92,7.92,0,0,0,1.5.72,13.6,13.6,0,0,0,3.89.74A14.18,14.18,0,0,0,18.62,18a6.57,6.57,0,0,0,2.62-1.51A2.68,2.68,0,0,0,22,15.36l-1.1.77.26.09a.56.56,0,0,1-.05.08L20.3,17a.4.4,0,0,1-.45.07,1.23,1.23,0,0,0-1.15,0c-.13.06-.28.08-.41.13l-.12.06.6.52a9.49,9.49,0,0,1-1.74.5h-.1l-.57-.5,1.44-.38v-.05a20.33,20.33,0,0,1-4.32.59h1.68v.62H13.08v-.66c-.38,0-.72,0-1.07,0a.52.52,0,0,0-.46.17.51.51,0,0,1-.62.17c-.12-.05-.26-.06-.39-.1l-1.06-.33.13-.16Zm-.09-4,.05,0V12c0-.12,0-.17-.15-.22-.34-.13-.68-.27-1-.42s-.52-.26-.81-.41a5.46,5.46,0,0,0,0,.58.36.36,0,0,0,.09.24,5.53,5.53,0,0,0,.64.64C7.05,12.73,7.46,13,7.85,13.28Zm14.74.63-1.94.7V15.9l.1-.05a7.43,7.43,0,0,0,1.59-1.21A.72.72,0,0,0,22.59,13.91ZM5.17,10.4l-.08,0,.39.86a4.55,4.55,0,0,0-.17-.66A1.23,1.23,0,0,0,5.17,10.4Z"/><path class="cls-1" d="M6.33,8.21l.52-.15L7.07,8c.19-.1.21-.23,0-.37L6.38,7l-.55-.47a.8.8,0,0,0-.75-.18c-.24,0-.47.13-.71.18a.21.21,0,0,1-.17-.06,2.6,2.6,0,0,1,0-3c.06-.08.11-.08.2-.06.26.07.53.15.8.2a.77.77,0,0,0,.64-.19L7.11,2.25c.17-.15.16-.28-.05-.37s-.38-.12-.57-.18l-.2-.06A15.28,15.28,0,0,1,11.89.07v.3a.22.22,0,0,0,.17.25,1.65,1.65,0,0,0,.43.09c.91,0,1.81,0,2.71,0a1,1,0,0,0,.25,0c.25-.05.39-.12.36-.43a.51.51,0,0,1,0-.17,14.18,14.18,0,0,1,5.54,1.58l-.54.16-.2.07c-.18.1-.2.21,0,.35l1.3,1.13a.86.86,0,0,0,.8.16c.22,0,.43-.12.64-.18a.13.13,0,0,1,.18,0,2.61,2.61,0,0,1,0,3.05.18.18,0,0,1-.17.06c-.31-.06-.61-.15-.92-.2a.64.64,0,0,0-.5.17L20.59,7.61c-.18.16-.15.3.07.38s.46.15.7.22c-.4.51-4.2,1.59-5.55,1.56a1.92,1.92,0,0,1,0-.24.26.26,0,0,0-.2-.3,1.34,1.34,0,0,0-.39-.07H12.29c-.33.06-.44.17-.4.45v.13A14,14,0,0,1,6.33,8.21Zm7.52.68c.67-.05,1.34-.09,2-.17a10.83,10.83,0,0,0,3.6-1,4.74,4.74,0,0,0,1.82-1.41,2.08,2.08,0,0,0,.32-2.2A3.26,3.26,0,0,0,20.7,3,7.08,7.08,0,0,0,18.34,1.7,13.34,13.34,0,0,0,14.64,1a14.07,14.07,0,0,0-5.39.71A6,6,0,0,0,6.57,3.4,2.17,2.17,0,0,0,6,5.23a2.7,2.7,0,0,0,.94,1.58A6.37,6.37,0,0,0,8.9,8,14.17,14.17,0,0,0,13.85,8.89Z"/><path class="cls-1" d="M14.07,7.86A10.3,10.3,0,0,1,10,7.14a4.36,4.36,0,0,1-1.49-1A1.74,1.74,0,0,1,7.94,5a1.84,1.84,0,0,1,.7-1.43,6.33,6.33,0,0,1,3-1.32A10.75,10.75,0,0,1,14.45,2a8.59,8.59,0,0,1,4,1.07,3,3,0,0,1,1,.91,1.6,1.6,0,0,1-.1,2A3.81,3.81,0,0,1,18,7a8.26,8.26,0,0,1-2.71.73C14.78,7.82,14.32,7.85,14.07,7.86Zm-.13-.44a9,9,0,0,0,2.6-.4,4.26,4.26,0,0,0,1.89-1.1,1.39,1.39,0,0,0,0-2,4.05,4.05,0,0,0-1.71-1,9.22,9.22,0,0,0-5.1-.18A4.73,4.73,0,0,0,9.33,3.87a1.38,1.38,0,0,0-.11,2,3.3,3.3,0,0,0,1.24.89A8.51,8.51,0,0,0,13.94,7.42Z"/><path class="cls-1" d="M18.76,2.93l1-.28a.14.14,0,0,1,.11,0,3.39,3.39,0,0,1,.95.82s0,0,0,0l-1,.29a.18.18,0,0,1-.09,0A3.23,3.23,0,0,0,18.81,3S18.79,3,18.76,2.93Z"/><path class="cls-1" d="M6.86,6.33l1-.28a.13.13,0,0,1,.12,0,3.34,3.34,0,0,0,.93.79l.05,0-1,.3H7.83a3.48,3.48,0,0,1-.94-.81S6.88,6.37,6.86,6.33Z"/><path class="cls-1" d="M16.09,2l.57-.49a.11.11,0,0,1,.1,0,8.06,8.06,0,0,1,1.73.5l-.59.51s-.08,0-.12,0A7.08,7.08,0,0,0,16.15,2Z"/><path class="cls-1" d="M9.22,7.87l.58-.49a.11.11,0,0,1,.1,0,7.87,7.87,0,0,0,1.64.47l.08,0L11,8.37a.1.1,0,0,1-.09,0L9.26,7.91Z"/><path class="cls-1" d="M18.72,6.92a3.29,3.29,0,0,0,1-.84.18.18,0,0,1,.13,0l1,.3c-.21.19-.39.36-.56.54a.83.83,0,0,1-1,.19A3.43,3.43,0,0,0,18.72,6.92Z"/><path class="cls-1" d="M6.83,3.52a3.86,3.86,0,0,1,1-.86.2.2,0,0,1,.11,0l1,.29a4.33,4.33,0,0,0-.5.36c-.16.14-.3.3-.45.44a.21.21,0,0,1-.15.07Z"/><path class="cls-1" d="M16.07,7.87c.34-.08.65-.14,1-.23s.47-.17.72-.25a.2.2,0,0,1,.17,0c.19.15.37.31.59.5l-1.06.33c-.18.06-.37.09-.55.14a.34.34,0,0,1-.37-.09C16.4,8.14,16.24,8,16.07,7.87Z"/><path class="cls-1" d="M9.2,2A8.23,8.23,0,0,1,11,1.48a.09.09,0,0,1,.09,0l.58.5-.71.17c-.33.1-.65.2-1,.32a.18.18,0,0,1-.21,0C9.58,2.29,9.4,2.15,9.2,2Z"/><path class="cls-1" d="M14.88,1.82H12.82V1.21h2.06Z"/><path class="cls-1" d="M7.63,4.42a1.29,1.29,0,0,0,0,1H6.41s-.07-.05-.08-.09a1.52,1.52,0,0,1,0-.82s.08-.11.11-.11Z"/><path class="cls-1" d="M20.08,5.44a1.38,1.38,0,0,0,0-1h.45c.21,0,.42,0,.63,0s.25,0,.25.2,0,.49,0,.73a.16.16,0,0,1-.12.1Z"/><path class="cls-1" d="M12.81,8.65V8.07h2.07v.58Z"/></g></svg>