<svg id="ROOMS_LOGOS" data-name="ROOMS LOGOS" xmlns="http://www.w3.org/2000/svg" viewBox="0 0 28.35 22.68"><defs><style>.cls-1{fill:#fff;}</style></defs><title>HUNTERS LODGE</title><g id="HUNTERS_LODGE" data-name="HUNTERS LODGE"><path class="cls-1" d="M12.37,11.07a.5.5,0,0,0-.1-.73c-.46-.4-.92-.81-1.4-1.19a6.19,6.19,0,0,1-1.07-1,2.64,2.64,0,0,0-1.59-1A2.44,2.44,0,0,1,7.07,6.7C6.7,6.38,6.36,6,6,5.7c.67.33,1.22,1,2.06.82l0-.07a2,2,0,0,0-.38-.21,1.56,1.56,0,0,1-1-1.5,9.19,9.19,0,0,1,0-1.05c.14,0,.22.07.23.2a1.22,1.22,0,0,1,0,.33,1.51,1.51,0,0,0,.53,1.26A8.63,8.63,0,0,1,8.22,0h.07c0,.18,0,.36-.08.54-.11.5-.26,1-.33,1.49a9.41,9.41,0,0,0,0,1.5c.18-.42.22-.92.65-1.22-.11.4-.22.78-.31,1.17a3.39,3.39,0,0,0,.18,2.13A2.25,2.25,0,0,0,8.57,6l.08,0c0-.16.08-.32.11-.49.06-.33.11-.66.16-1A3.17,3.17,0,0,1,9.75,3L10,2.65l.06,0a.71.71,0,0,1,0,.2c-.17.36-.36.71-.52,1.08A3,3,0,0,0,9.33,6,3.73,3.73,0,0,0,9.9,7.11c.36.48.79.9,1.19,1.34a.69.69,0,0,0,.22.14,5.11,5.11,0,0,0-.23-1.45l.05,0,.63,1.23c0,.1.07.2.1.3a.76.76,0,0,0,.52.55,3.36,3.36,0,0,1,1.41,1.07,1,1,0,0,1,.17.44.22.22,0,0,0,.22.19h.49a.35.35,0,0,0,.36-.28,1.43,1.43,0,0,1,.39-.63,3.1,3.1,0,0,1,1.45-.87,1.81,1.81,0,0,0,1.26-1.23c.07-.2.12-.39.19-.59a1.88,1.88,0,0,1,.16-.39,4.55,4.55,0,0,1-.09,1.56l0,0A6.37,6.37,0,0,0,19,7.94a3.48,3.48,0,0,0,.72-1.8.74.74,0,0,0-.19-.53c-.27-.34-.53-.68-.77-1a1.92,1.92,0,0,1-.19-.41l.07,0,.29.34c.12.14.23.29.36.42a1.6,1.6,0,0,0,.35.18c0-.39.24-.7.1-1l-.42-.94A2.81,2.81,0,0,1,20,4.27c.11.41.16.82.25,1.23a1.79,1.79,0,0,0,.16.44,1.85,1.85,0,0,0,.43-1,5.53,5.53,0,0,0-.31-2.45,1,1,0,0,0,0-.16l0,0a4,4,0,0,1,.66,1.31A17.76,17.76,0,0,0,20.78,0a6.23,6.23,0,0,1,.82,2.62,11.94,11.94,0,0,1,0,2.8,1.41,1.41,0,0,0,.23-.33c.1-.37.18-.75.27-1.12,0-.11.06-.22.09-.33h.08c0,.13.07.26.08.39a3,3,0,0,1-.43,1.79,1.71,1.71,0,0,1-.49.51,3.62,3.62,0,0,0-1.06,1,7.91,7.91,0,0,1-2.58,2.23,7.89,7.89,0,0,0-1.12.88c-.19.16-.17.29,0,.52.23-.51.72-.65,1.19-.83s.65-.27,1-.41c.08,0,.17-.08.18.07a2.76,2.76,0,0,1-.29,1.67,1.88,1.88,0,0,1-1.68,1,.52.52,0,0,0-.52.42,3.54,3.54,0,0,0-.21.79,5.72,5.72,0,0,0,.16,1.75,17.28,17.28,0,0,0,.72,2.32A4.49,4.49,0,0,1,17.35,20a3.62,3.62,0,0,1-1.28,2,6.25,6.25,0,0,1-.5.4,1.16,1.16,0,0,1-1.24.14,3.61,3.61,0,0,1-.72-.45,8,8,0,0,1-1.81-2.23,2,2,0,0,1-.14-1.34,14.5,14.5,0,0,1,.68-2.27,9.55,9.55,0,0,0,.44-2.42.53.53,0,0,0,0-.2,5.94,5.94,0,0,1-.18-.6.52.52,0,0,0-.38-.47,7,7,0,0,0-.76-.19,1.39,1.39,0,0,1-.93-.63A3,3,0,0,1,10,9.93c0-.14.12-.2.29-.14l.84.35a2.83,2.83,0,0,0,.36.16,1.32,1.32,0,0,1,.8.66Z"/></g></svg>