<svg id="ROOMS_LOGOS" data-name="ROOMS LOGOS" xmlns="http://www.w3.org/2000/svg" viewBox="0 0 28.35 22.68"><defs><style>.cls-1{fill:#fff;}</style></defs><title>MANIAC</title><g id="MANIAC"><path class="cls-1" d="M4.68,22.79c-.11-.44-.22-.88-.32-1.32s-.18-.67-.25-1a1,1,0,0,1,0-.35A2.66,2.66,0,0,1,4.51,19a.71.71,0,0,0,.1-.43,5.29,5.29,0,0,1,.1-1.06A9.1,9.1,0,0,1,5,16.39a4.58,4.58,0,0,1,.25-.56c.14-.28.3-.56.43-.85s.09-.4.16-.59c.39-1.05.79-2.09,1.25-3.11a12.41,12.41,0,0,0,.5-1.49c0-.13.06-.26.09-.4L7.5,9.33c0-.13,0-.16-.12-.21a1.18,1.18,0,0,1-.25-.19.33.33,0,0,1,0-.41.73.73,0,0,0,.12-.33l-.1.18a.63.63,0,0,1,.36-.73l0,.13,0,0L8.16,7,7.74,6.3l-.61-.94C7.05,5.23,7,5.08,6.91,5a3.39,3.39,0,0,0-.4-.45,2,2,0,0,1-.45-.61,1.07,1.07,0,0,0-.27-.37,3.91,3.91,0,0,1-.56-.66,5.67,5.67,0,0,0-.58-.62.21.21,0,0,1,0-.34l-.11-.12a.19.19,0,0,1,.08-.32.51.51,0,0,1,.51.12l.62.53.06,0,0,0a2.43,2.43,0,0,0-.14-.2c-.05-.06-.11-.14,0-.2a.34.34,0,0,1,.23-.1,1.09,1.09,0,0,1,.38.21,6.37,6.37,0,0,1,1,1.05c.15.22.33.41.5.62L8,3.84c.05.06.13.1.16.17a1,1,0,0,0,.66.47l.22.09c.19.08.3,0,.32-.19s0-.47.11-.7A.46.46,0,0,1,10,3.33c.22,0,.38.1.38.32s-.05.67-.08,1-.05.42,0,.63a2.17,2.17,0,0,0,.11.42,2.27,2.27,0,0,1,.06,1.1c-.08.32-.09.65-.14,1,0,.11-.07.24,0,.33s.17.11.27.16l.28.13.05,0c.06.18.25.15.37.22s.22.13.16.3-.2.59-.31.88a.62.62,0,0,1-.11.17c-.05.08,0,.15,0,.16a.63.63,0,0,1,.5.4s.07.08.11.12.14.12.23,0a.84.84,0,0,1,.14,0,1,1,0,0,0-.37-.61.61.61,0,0,1,.45.63.11.11,0,0,0,0,.08,6.08,6.08,0,0,0,.39.47c.11.11.25.2.36.3s.31.36.54.46a1.42,1.42,0,0,0,.33.14,1.19,1.19,0,0,1,.68.29c.07.08.24.06.36.09a.48.48,0,0,0,.23-.05,1.27,1.27,0,0,1,.77-.07.26.26,0,0,0,.15,0,1.6,1.6,0,0,0,.31-.1l.1,0a1.31,1.31,0,0,1,.72-.47.47.47,0,0,0,.09-.06c.08-.07.14-.14.22-.2a.25.25,0,0,0,.12-.29c-.05-.21.17-.48.43-.57l.13,0c0-.52.13-.71.61-.74l-.11-.38L19.14,9a0,0,0,0,1,0,0c.22,0,.15-.16.12-.28a12,12,0,0,0-.55-2,.37.37,0,0,0-.1-.17,1.43,1.43,0,0,1-.39-.71c-.11-.41-.21-.83-.33-1.24s-.24-.68-.38-1c-.05-.12-.17-.2-.24-.32a.35.35,0,0,1-.06-.22.25.25,0,0,1,.24-.2.85.85,0,0,1,.83.34,5.64,5.64,0,0,1,.4.67,1,1,0,0,0,.18.22.22.22,0,0,0,.28,0,5.94,5.94,0,0,1,.6-.18s.09,0,.1,0A1.66,1.66,0,0,0,20,3.34a8.44,8.44,0,0,1,.12-1.81A6.36,6.36,0,0,1,20.31.8a.4.4,0,0,1,.28-.31c.19,0,.29,0,.3.23,0,.51,0,1,.05,1.55a3,3,0,0,0,.07.34l.06-.11c.19-.37.3-.79.46-1.18a7.29,7.29,0,0,1,.52-1,.36.36,0,0,1,.49-.19c.08,0,.13.1.21.17s.3,0,.36.14a.17.17,0,0,1,0,.14c-.06.15-.14.3-.19.45s-.13.38-.19.57-.17.53-.25.8-.07.26-.12.39a3,3,0,0,1-.18.41c-.13.26-.27.52-.41.78v0a1.79,1.79,0,0,1-.32.92h0a.32.32,0,0,1,0,.14c-.1.35-.19.72-.32,1.06a2.06,2.06,0,0,0-.08,1.32c0,.15.08.3.13.45s.09.1.13.09a.5.5,0,0,1,.51.23c.08.16.17.29.37.25s.2.1.25.17a.77.77,0,0,1,.22.58c0,.14,0,.14-.16.22l-.06-.11a2.35,2.35,0,0,0,.1.42c0,.11,0,.15-.09.19a1.78,1.78,0,0,1-.3.17c-.13,0-.09.11-.06.19.17.42.35.83.52,1.25s.18.57.29.85.29.75.44,1.12a2.5,2.5,0,0,0,.09.25c.24.52.49,1,.71,1.55a3.78,3.78,0,0,1,.24.81c.12.65.21,1.3.3,1.95.05.3.06.61.1.92a.53.53,0,0,0,0,.17,1.34,1.34,0,0,1-.07,1.09c-.07.15-.16.29-.24.44a.11.11,0,0,0,0,.08c0,.32,0,.63,0,1a3.51,3.51,0,0,1-.07,1.12H19.79a1.08,1.08,0,0,0,.08-.19.62.62,0,0,0,.07-.23c0-.1,0-.21,0-.32,0-.42.08-.85.11-1.28a7.08,7.08,0,0,0,.12-1.38.23.23,0,0,1,0-.14c.12-.13.09-.29.1-.44s0-.18,0-.28a4.1,4.1,0,0,0,0-.5,2.11,2.11,0,0,0-.1-.38l0,.11c-.08-.2-.13-.36-.2-.51a1.16,1.16,0,0,1,0-.95c.14-.34.31-.68.45-1a.28.28,0,0,0,0-.18c-.06-.32-.13-.63-.17-.95-.1-.82-.18-1.65-.27-2.47,0-.18-.07-.36-.1-.54a2.42,2.42,0,0,0-.35.11.21.21,0,0,1-.26-.05,1,1,0,0,1-.14-.21,1,1,0,0,1-.06-.22.81.81,0,0,1-.7.23.63.63,0,0,1-.52.5.64.64,0,0,0-.37.2l-.23.21a.6.6,0,0,0-.08.08.65.65,0,0,1-.17.22c-.21.12-.4.36-.69.2-.18.1-.44,0-.55.28a.15.15,0,0,1-.13.09,5.7,5.7,0,0,1-.58.06.17.17,0,0,1-.12-.05c-.14-.19-.35-.14-.54-.18l-.13,0a.84.84,0,0,1-.27,0,2.1,2.1,0,0,1-.42-.15.28.28,0,0,1-.14-.1,1.11,1.11,0,0,0-.57-.41,2,2,0,0,1-.63-.49c-.26-.24-.41-.57-.71-.77s-.24-.3-.35-.44a1.81,1.81,0,0,1-.31-.09c-.09,0-.13,0-.18.06s-.12.21-.19.21a2,2,0,0,1-.48-.09,1.57,1.57,0,0,1-.23-.09,1.73,1.73,0,0,0-.12.2,2.8,2.8,0,0,0-.06.28,1.48,1.48,0,0,1,0,.21c0,.46-.11.92-.15,1.38s0,1.06-.09,1.59-.1,1-.17,1.56a.36.36,0,0,0,.07.32,4.07,4.07,0,0,1,.79,1.55A.72.72,0,0,1,10,18a1.37,1.37,0,0,0-.21.46c0,.13-.07.26-.12.42l-.08-.09a2.35,2.35,0,0,0,0,.26,3.14,3.14,0,0,0,0,.53,4.51,4.51,0,0,1,.06,1.37,2.42,2.42,0,0,0,0,.89,1.2,1.2,0,0,1,.05.38c0,.19,0,.39,0,.58Zm14.14-12c-.1-.22-.18-.41-.26-.6a2.26,2.26,0,0,1-.07-.28l-.27.12a.36.36,0,0,0,0,.59c.05,0,.07.09.12.12a.44.44,0,0,0,.18.11A.93.93,0,0,0,18.82,10.83Zm-.53.13-.23-.24a.12.12,0,0,0-.08,0,.57.57,0,0,0-.47.62c.09,0,.18,0,.2.1s.09,0,.13,0A.62.62,0,0,0,18.29,11ZM15.6,12.43,15,12.5l.08.12-.11.1a1.47,1.47,0,0,0,.68-.06Zm1.3-.57-.46.29.07.23.53-.31Zm-3.33.54a1.45,1.45,0,0,0,.56.17l0-.21-.51-.18Zm-1.22-.9.41.36.11-.16-.39-.34Zm0-.27c-.12-.14-.22-.27-.33-.38s-.08,0-.12,0,0,.09,0,.12l.3.37Zm4.79.56,0,.05.41-.37,0,0Z"/><path class="cls-1" d="M18.85,22.79h-8L10.48,22l-.1.05a1.19,1.19,0,0,1-.08-.2c-.09-.24-.17-.49-.25-.73h0v0H10a4.64,4.64,0,0,1,.14-1.85l0,0s-.06-.08-.06-.13,0-.14,0-.14.08-.11.07-.15a1,1,0,0,1,.11-.57,10.57,10.57,0,0,0,.5-1.08,2.45,2.45,0,0,1,.36-.63,4,4,0,0,1,.77-.76,1.94,1.94,0,0,0,.47-.48,1.28,1.28,0,0,1,.59-.54l.53-.24.49-.23a1.24,1.24,0,0,1,.89,0,1.42,1.42,0,0,1,.2,0l.47.28c.14.09.32.11.36.32s.16.14.25.21l.05,0,.09.15c.21-.14.07-.35.1-.55l.09.46a1.58,1.58,0,0,1,.93-.12,1.13,1.13,0,0,1,.83.55c.07.12.15.24.23.36l.54.76a.25.25,0,0,1,0,.09l.06.16s.08.07.1.12.06.21.11.32.19.45.28.68a3.06,3.06,0,0,1,.17.48c0,.17,0,.34,0,.51a5.15,5.15,0,0,1,.07.53,1.22,1.22,0,0,1-.07.47c-.13.3-.3.59-.46.88v0c-.09.15-.17.3-.27.44s0,.4,0,.6l.08,0c-.19.08-.2.18,0,.39ZM18,15.68s0,0,0-.06a1.43,1.43,0,0,0-.75-.39c-.21,0-.59.07-.64.28a3.16,3.16,0,0,0,.69,0,.55.55,0,0,1,.53.11A1.71,1.71,0,0,0,18,15.68Z"/><path class="cls-1" d="M11.56,9.85c-.06-.19,0-.41-.21-.53A.35.35,0,0,1,11.56,9.85Z"/></g></svg>