<svg id="ROOMS_LOGOS" data-name="ROOMS LOGOS" xmlns="http://www.w3.org/2000/svg" viewBox="0 0 28.35 22.68"><defs><style>.cls-1{fill:#fff;}</style></defs><title>MINOTAUR&amp;apos;S LABYRINTH</title><g id="MINOTAUR_S_LABYRINTH" data-name="MINOTAUR&apos;S LABYRINTH"><path class="cls-1" d="M3.88,10.48l.41-.19c.07,0,.16,0,.21-.07A1.17,1.17,0,0,1,5.61,10,.89.89,0,0,0,6.25,10a8.24,8.24,0,0,1,.88-.29A6,6,0,0,0,10,7.76c.37-.52.8-1,1.14-1.54A2.37,2.37,0,0,1,12,5.55l.2-.13L12,5.33A9.85,9.85,0,0,0,11.93,3c0-.19,0-.39-.06-.58a.23.23,0,0,0-.2-.25c-.48-.15-1-.3-1.43-.48a6.6,6.6,0,0,1-.82-.46.11.11,0,0,1-.07-.06c0-.05,0-.12,0-.17s.11,0,.15,0a5.86,5.86,0,0,0,.9.21,13.53,13.53,0,0,0,1.68,0L11.86,1a1.11,1.11,0,0,1-.4-.63c0-.14,0-.27.17-.29A5.45,5.45,0,0,1,12.69,0a.56.56,0,0,1,.51.42.64.64,0,0,0,.7.57A1.37,1.37,0,0,1,15,1.68l.08-.19.77.6s.09,0,.12.06a2.9,2.9,0,0,1,.49.35,1.31,1.31,0,0,0,.4.26A11.72,11.72,0,0,1,19.1,3.87c.83.63,1.69,1.22,2.54,1.81a2.53,2.53,0,0,1,1,1.57c.2.86.44,1.72.59,2.59a4.19,4.19,0,0,1-.05,1.22,2.83,2.83,0,0,0,.12,1.47,1.23,1.23,0,0,1,.05.76.49.49,0,0,1-.44.37.21.21,0,0,0-.16.06c-.2.25-.45.18-.7.12a.47.47,0,0,1-.37-.46s0-.08,0-.09c-.21-.2-.11-.39,0-.58l.48-.8a.46.46,0,0,1,.15-.16c.15-.06.15-.15.14-.28a11,11,0,0,0-.66-2.53c-.15-.45-.23-.92-.34-1.38a.35.35,0,0,0-.14-.2,14.35,14.35,0,0,1-2.07-1.64.28.28,0,0,0-.11-.08l-.68-.08c0,.23.05.45.06.66a7,7,0,0,1-.47,2.72,4.14,4.14,0,0,0-.12,1.85.41.41,0,0,0,.53.34,3.22,3.22,0,0,0,.61-.24,2.08,2.08,0,0,1,1.15-.18.8.8,0,0,1,.72.54,2.58,2.58,0,0,1,.15,1.48,2.27,2.27,0,0,1-.44,1,5.32,5.32,0,0,0-.8,1.88,10.92,10.92,0,0,0-.42,3.06.45.45,0,0,1,0,.16c0,.06,0,.11,0,.2.23,0,.47,0,.7.08l1.4.22c.28.05.36.17.33.46a1.57,1.57,0,0,1-.13.47,2.19,2.19,0,0,0-.15,1.16.39.39,0,0,1-.12.36l-.64.75a.76.76,0,0,1-.82,0,.21.21,0,0,1,.06-.21,2.4,2.4,0,0,1,.46-.21.88.88,0,0,0,.47-1c-.12-.33-.25-.65-.38-1a.31.31,0,0,0-.19-.13h-.65l-.15,1.08-.26-.44-.12,1h-.07c0-.18-.07-.37-.11-.55s-.12-.61-.17-.91-.09-.23-.27-.22c-.81,0-1.62.05-2.44,0s-1.68-.05-2.52-.08a.65.65,0,0,1-.7-.71,12.24,12.24,0,0,1,.31-3.25c.06-.27.09-.55.13-.82,0-.11,0-.23,0-.36a8.14,8.14,0,0,1-2.93-.43c0,.37.09.68.11,1a8.25,8.25,0,0,1,.05,1.11,1.12,1.12,0,0,1-.2.56,3.56,3.56,0,0,0-.63,1.72c-.11.76-.24,1.53-.38,2.29-.08.46-.24.52-.7.4a9.63,9.63,0,0,0-1.39-.24,1.53,1.53,0,0,1-1-.39.47.47,0,0,1-.19-.39c0-.12.06-.14.16-.11l.07,0a2.38,2.38,0,0,0,2.14.12c.16,0,.2-.18.2-.32.05-1,.13-1.93.12-2.9,0-1.3-.08-2.61-.12-3.91,0-.58,0-.58.49-.85s1.13-.64,1.72-.91a5.25,5.25,0,0,1,1.88-.46c.37,0,.74-.14,1.11-.19a2.75,2.75,0,0,1,.5,0,.52.52,0,0,0,0-.48C14.27,10,14.12,9.4,14,8.85c0-.09-.11-.15-.16-.23-.3-.48-.59-1-.88-1.45a.13.13,0,0,1,0-.06,1.72,1.72,0,0,0,.88.3,1.3,1.3,0,0,0,.91,0,6.25,6.25,0,0,0,.81-.57.23.23,0,0,1,.25,0,4,4,0,0,0,.83.2,1.25,1.25,0,0,0,1-.31c.28-.29.54-.6.81-.9a.4.4,0,0,0,0-.13l0,0-.59.74a1.3,1.3,0,0,1-1.12.55,7,7,0,0,1-1-.21.25.25,0,0,0-.17,0c-.32.21-.63.44-.94.66a.37.37,0,0,1-.18,0A3.15,3.15,0,0,1,13,7.09a.68.68,0,0,0-.14,0c-.3-.15-.32-.15-.53.13s-.42.62-.64.92A4.55,4.55,0,0,1,9.75,9.69c-.94.38-1.88.75-2.83,1.11-.25.09-.54.11-.81.18a.44.44,0,0,0-.27.17,1.06,1.06,0,0,1-1.29.28c-.13-.08-.28-.12-.41-.19A.29.29,0,0,1,4,11.13c-.06-.15-.1-.31-.15-.46Zm11.68,8.15a13.07,13.07,0,0,1,1.54,0,12.22,12.22,0,0,1,1.44.29c0-.88,0-1.71,0-2.55a2.57,2.57,0,0,1,.85-2c.21-.19.4-.41.6-.61a2,2,0,0,0,.7-1.54c0-.67-.27-1-1-1a3.66,3.66,0,0,0-1.23.27c-.41.13-.42.13-.41.55a3.91,3.91,0,0,1-.91,2.55,1.53,1.53,0,0,0-.23.46c-.09.3-.17.6-.23.9a5.41,5.41,0,0,1-1,2.43A1.8,1.8,0,0,0,15.56,18.63Zm6.85-4.83a.72.72,0,0,0,.57-.45c.11-.38-.19-.59-.35-.86,0,0-.07,0-.11,0-.25,0-.39.15-.46.46,0,.1,0,.18-.13.24a.27.27,0,0,0-.11.33C21.92,13.78,22.18,13.78,22.41,13.8ZM5.26,10.31c-.37,0-.74,0-1.1.09-.15,0-.21.1-.18.26.09.51.1.52.61.58l.13,0,.46,0c.16,0,.2-.14.17-.3S5.29,10.54,5.26,10.31ZM13,2.82a.29.29,0,0,0-.29-.28.24.24,0,0,0-.27.26,1.14,1.14,0,0,0,0,.32c0,.06.08.17.13.17a.35.35,0,0,0,.27-.08A1.68,1.68,0,0,0,13,2.82Z"/></g></svg>