<svg id="ROOMS_LOGOS" data-name="ROOMS LOGOS" xmlns="http://www.w3.org/2000/svg" viewBox="0 0 28.35 22.68"><defs><style>.cls-1{fill:#fff;}</style></defs><title>MONTEZUMA</title><g id="MONTEZUMA"><path class="cls-1" d="M14.19.31A11,11,0,1,1,3.13,11.23,11,11,0,0,1,14.19.31Zm0,1.2c-.48,0-1,.06-1.46.13A9.81,9.81,0,0,0,5.17,15.28a2.44,2.44,0,0,1,.18.93.72.72,0,0,0,.47.7,1.38,1.38,0,0,1,.58.43A9.82,9.82,0,0,0,22,17.26a1.21,1.21,0,0,1,.47-.34.75.75,0,0,0,.54-.71,3.35,3.35,0,0,1,.22-1.08A10,10,0,0,0,24,11.32,9.84,9.84,0,0,0,14.19,1.51Z"/><path class="cls-1" d="M16.54,11.77c.4-.1.8-.22,1.21-.31,1.24-.25,1.8-1,1.77-2.51a1.86,1.86,0,0,0-2-1.83c-2.19,0-4.38,0-6.57,0A1.92,1.92,0,0,0,8.83,8.86a2.19,2.19,0,0,0,1.84,2.62,5,5,0,0,1,1.11.36,4.85,4.85,0,0,1-3,0A1.14,1.14,0,0,1,8,10.75a4.91,4.91,0,0,1,.23-2.61,5.81,5.81,0,0,1,1-1.43,1.55,1.55,0,0,1,1.25-.45c2.45,0,4.9,0,7.34,0A2,2,0,0,1,19.49,7,4.05,4.05,0,0,1,20.4,10c0,.15,0,.3,0,.45,0,.94-.17,1.33-1.4,1.52a14.77,14.77,0,0,1-2.4,0Z"/><path class="cls-1" d="M14.82,12.68a3.56,3.56,0,0,0-.15.56.45.45,0,0,1-.51.45.46.46,0,0,1-.5-.46,4.9,4.9,0,0,0-.13-.55h-.16c-.08.12-.13.28-.23.35s-.37.25-.51.22-.35-.33-.31-.44a2.45,2.45,0,0,1,.55-1.13,3.06,3.06,0,0,0,.82-2.42,1,1,0,0,0-.47-.66A3.23,3.23,0,0,0,10,8.5a1.73,1.73,0,0,1-.61.07c.12-.22.19-.54.37-.63a4,4,0,0,1,3.35-.21,2.62,2.62,0,0,0,2.16,0,4.17,4.17,0,0,1,3,0,1.06,1.06,0,0,1,.45.22,2.54,2.54,0,0,1,.3.62,1.75,1.75,0,0,1-.57-.07,3.32,3.32,0,0,0-3.26.05.83.83,0,0,0-.51.86,2.94,2.94,0,0,0,.93,2.32,1.62,1.62,0,0,1,.46.92c0,.17-.17.39-.26.59-.21-.11-.42-.2-.61-.32s-.11-.16-.16-.24Z"/><path class="cls-1" d="M12.52,15.25h3.26a12,12,0,0,1-.38,3.49,10.92,10.92,0,0,1-.34,1.11c-.16.41-.4.79-.9.77a.93.93,0,0,1-.86-.76c-.26-1-.49-2.07-.68-3.11A12.06,12.06,0,0,1,12.52,15.25Zm2.85.63c-.4.25-.8.67-1.2.68s-.79-.43-1.19-.67a10.54,10.54,0,0,0,.61,1.41.62.62,0,0,0,1.16,0A11.26,11.26,0,0,0,15.37,15.88ZM13.06,17,13,17c.2.84.36,1.7.61,2.53.07.24.41.59.59.57a1,1,0,0,0,.64-.59c.26-.84.42-1.72.62-2.59-.28.61-.42,1.25-.64,1.86a2.84,2.84,0,0,1-.58.69c-.21-.23-.51-.43-.62-.7A18.48,18.48,0,0,1,13.06,17Z"/><path class="cls-1" d="M16.06,16.32l0-.58c.32,0,.63,0,.92,0a1.27,1.27,0,0,0,1.19-.65c.23-.31.13-.58-.22-.66a3.76,3.76,0,0,0-2.54.06,3.1,3.1,0,0,1-2.66,0,3.53,3.53,0,0,0-2.48,0c-.31.08-.38.34-.19.61a1.26,1.26,0,0,0,1.16.68c.31,0,.61,0,1,0l0,.55A2.5,2.5,0,0,1,9.48,15.2c-.32-.48-.27-.85.25-1.09a5.24,5.24,0,0,1,1.5-.42,11.08,11.08,0,0,1,1.63,0c.31,0,.6,0,.82.32s.87.14,1.09-.11c.07-.08.17-.19.26-.19,1,0,1.93,0,2.89.11a1.13,1.13,0,0,1,1.1.76c.12.54-.34.85-.66,1.19A2.56,2.56,0,0,1,16.06,16.32Z"/><path class="cls-1" d="M15.83,18.24c0-.14,0-.26,0-.38,0-.41.17-.62.64-.71A3.71,3.71,0,0,0,19.22,15c.3-.64.14-1-.49-1.24s-1.08-.53-1.7-.84c.69-.22,1.25-.39,1.79-.59s1.08-.44,1.67-.69a2.06,2.06,0,0,1-.2.33,1.63,1.63,0,0,0,0,2.51.57.57,0,0,1,.16.42A4.91,4.91,0,0,1,16,18.28.54.54,0,0,1,15.83,18.24Z"/><path class="cls-1" d="M7.88,11.67l3.33,1.25c-.49.26-1,.55-1.5.78-.74.32-.9.65-.53,1.37a3.83,3.83,0,0,0,2.72,2.11l.47.11.16,1a5.14,5.14,0,0,1-2.91-1A4.61,4.61,0,0,1,8,14.92.51.51,0,0,1,8,14.49a1.63,1.63,0,0,0,0-2.62A.68.68,0,0,1,7.88,11.67Z"/><path class="cls-1" d="M14.18,2.05A1.83,1.83,0,0,1,16,4a1.81,1.81,0,1,1-3.61-.08A1.81,1.81,0,0,1,14.18,2.05Zm1.39,2.2H12.8C13.2,4.92,15.08,4.93,15.57,4.25Zm.18-.68H12.57A3.87,3.87,0,0,0,15.75,3.57Z"/><path class="cls-1" d="M15.31,20.16c0-.07,0-.09,0-.11a1.3,1.3,0,0,1,1.32-1.23,4.49,4.49,0,0,0,2.92-1.6,2.43,2.43,0,0,1,.93-.59c.33-.13.56.12.46.47a1,1,0,0,1-.21.4A7.88,7.88,0,0,1,15.31,20.16Z"/><path class="cls-1" d="M13.07,20.16a8,8,0,0,1-4.31-1.61,6.87,6.87,0,0,1-1.18-1.17c-.13-.15,0-.46-.07-.69a2,2,0,0,1,.65,0,1.6,1.6,0,0,1,.62.44,5,5,0,0,0,3.35,1.74c.46.06.74.22.78.72A2.53,2.53,0,0,0,13.07,20.16Z"/><path class="cls-1" d="M5.58,15.57c.13-.71.26-1.42.4-2.13a.61.61,0,0,1,1.21.07c.08.83.14,1.66.22,2.48a.57.57,0,0,1-.5.65h0C5.84,16.86,5.59,16.65,5.58,15.57Z"/><path class="cls-1" d="M20.93,15.48c.08-.67.13-1.35.26-2,0-.21.32-.52.49-.52a.81.81,0,0,1,.64.42c.18,1,.28,1.94.37,2.92,0,.1-.15.32-.23.32a6.51,6.51,0,0,1-1.25-.08c-.1,0-.22-.24-.25-.38a3.64,3.64,0,0,1,0-.66Z"/><path class="cls-1" d="M22.77,14.33c0-.42,0-.74,0-1.05,0-.65-.9-1.06-1.62-.73a.73.73,0,0,0-.42,1,3.91,3.91,0,0,1,.07.8,1.3,1.3,0,0,1-.26-2.29,2,2,0,0,1,2.55.19A1.32,1.32,0,0,1,22.77,14.33Z"/><path class="cls-1" d="M7.52,14.34c0-.28.1-.56.14-.85a1.08,1.08,0,0,0,0-.4c-.09-.46-.71-.74-1.34-.62a.83.83,0,0,0-.74,1,.75.75,0,0,1,0,.2c0,.2-.09.39-.14.59a1.19,1.19,0,0,1-.33-1.82,1.91,1.91,0,0,1,2.93,0C8.6,13.05,8.43,13.85,7.52,14.34Z"/><path class="cls-1" d="M11.62,4.33a1.35,1.35,0,0,1-1.26,1.4,1.42,1.42,0,0,1,0-2.82A1.35,1.35,0,0,1,11.62,4.33Zm-.37-.1a.91.91,0,0,0-.95-.86.85.85,0,0,0-.86.91.88.88,0,0,0,.89.85A.93.93,0,0,0,11.25,4.23Z"/><path class="cls-1" d="M19.28,4.4A1.36,1.36,0,0,1,18,5.73a1.4,1.4,0,0,1-1.24-1.48,1.29,1.29,0,1,1,2.57.15Zm-.36-.13a.88.88,0,0,0-.9-.9.9.9,0,0,0-.92.83.92.92,0,0,0,.88.93A.91.91,0,0,0,18.92,4.27Z"/><path class="cls-1" d="M8.73,4a1.91,1.91,0,0,0,1.09,1.9H6.89l-.1-.11L8.58,4Z"/><path class="cls-1" d="M21.44,6H18.5a1.86,1.86,0,0,0,1.07-2l.11-.09,1.87,1.89Z"/><path class="cls-1" d="M13.32,6H10.93a1.88,1.88,0,0,0,.19-3.2l1.44-.32C11.82,4.12,12,5,13.32,6Z"/><path class="cls-1" d="M17.24,2.76a1.84,1.84,0,0,0,.19,3.16H15.1a2.57,2.57,0,0,0,1.11-1.56,2.6,2.6,0,0,0-.47-1.92Z"/><path class="cls-1" d="M20.76,11.58c-.06-.92-.08-1.85-.19-2.76a3.65,3.65,0,0,0-1-2c-.1-.1-.08-.31-.11-.47.17,0,.38,0,.51,0a1.07,1.07,0,0,1,.35.43A6.66,6.66,0,0,1,21,11c0,.23-.11.45-.16.68Z"/><path class="cls-1" d="M7.67,11.69c-.13-.1-.29-.17-.3-.26A7.29,7.29,0,0,1,8,6.75a1.33,1.33,0,0,1,.47-.44.46.46,0,0,1,.36.09c.05,0,0,.24,0,.3A5.56,5.56,0,0,0,7.7,11.47,1.49,1.49,0,0,1,7.67,11.69Z"/><path class="cls-1" d="M23.22,11.92c-.62-.15-.64-.51-.58-1a8,8,0,0,0-.29-3.57.39.39,0,0,1,0-.24A7,7,0,0,1,23.22,11.92Z"/><path class="cls-1" d="M5.12,11.88A7,7,0,0,1,6,7.06a10.45,10.45,0,0,0-.31,4.31c0,.19-.31.4-.47.6Z"/><path class="cls-1" d="M7.91,6.32c-1.11,1.57-.79,3.35-.83,5.25-.19-.17-.38-.25-.39-.36a6.89,6.89,0,0,1,.7-4.52,2.43,2.43,0,0,1,.41-.44Z"/><path class="cls-1" d="M20.56,6.24a3.5,3.5,0,0,1,.44.51,7.19,7.19,0,0,1,.67,4.49c0,.1-.21.18-.39.32-.06-1.86.27-3.65-.83-5.22Z"/><path class="cls-1" d="M21.28,6.29c.11.12.29.22.34.36a11.73,11.73,0,0,1,.73,2.19,11.17,11.17,0,0,1,0,2.24c0,.14-.16.27-.24.4L22,11.4c0-.88,0-1.76,0-2.64a3.73,3.73,0,0,0-.84-2.39Z"/><path class="cls-1" d="M12.47,9.61a1.14,1.14,0,0,1-.8,1.15,2.23,2.23,0,0,1-2-.23c-.13-.07-.17-.29-.25-.45A3.45,3.45,0,0,1,10,10c.09,0,.18.08.27.13A1.54,1.54,0,0,0,11.91,10Z"/><path class="cls-1" d="M15.79,9.71c.22,0,.29,0,.32,0a1.78,1.78,0,0,0,2.28.22c.12-.06.34,0,.51.08,0,.14-.06.33-.16.43a2.07,2.07,0,0,1-2.64-.13A3.49,3.49,0,0,1,15.79,9.71Z"/><path class="cls-1" d="M6.24,11.5c-.09-.09-.24-.19-.25-.29A8.4,8.4,0,0,1,6.3,7.45,3.58,3.58,0,0,1,7.07,6.3c-1,1.61-.75,3.36-.69,5.09Z"/><path class="cls-1" d="M11.38,8.49a5.14,5.14,0,0,1,.82.22c.17.08.28.32.41.48a2.92,2.92,0,0,1-.59,0A4.6,4.6,0,0,1,11.5,9a1.25,1.25,0,0,0-1.35.35c-.07.07-.14.17-.22.19a2,2,0,0,1-.42,0c0-.13,0-.31.1-.38A2.46,2.46,0,0,1,11.38,8.49Z"/><path class="cls-1" d="M17,8.49a2.41,2.41,0,0,1,1.7.63c.09.09.1.25.15.38-.17,0-.33,0-.5,0s-.08-.06-.11-.1a1.46,1.46,0,0,0-1.77-.29,2.44,2.44,0,0,1-.77.05,2.63,2.63,0,0,1,.59-.52A2.66,2.66,0,0,1,17,8.49Z"/><path class="cls-1" d="M11.39,11.29c1.14-.16,1.57-1,2-1.84l.13,0A7.88,7.88,0,0,1,13,11.12C12.68,11.72,12.22,11.74,11.39,11.29Z"/><path class="cls-1" d="M14.89,9.49c.5.84.95,1.64,2,1.79-.81.6-1.45.34-1.75-.56A10.38,10.38,0,0,1,14.89,9.49Z"/><path class="cls-1" d="M17.4,9.05c.1.19.3.4.28.58s-.27.32-.42.47c-.14-.17-.37-.34-.4-.54s.21-.34.33-.51Z"/><path class="cls-1" d="M11.69,9.6c-.29.24-.5.51-.6.47a.74.74,0,0,1-.41-.49c0-.14.25-.44.39-.44S11.41,9.38,11.69,9.6Z"/><path class="cls-1" d="M17.27,13.38h-1l.08-1.13Z"/><path class="cls-1" d="M12.08,13.38h-1L12,12.24C12.05,12.6,12.06,13,12.08,13.38Z"/><path class="cls-1" d="M10.31,3.5c.24.33.5.52.49.69s-.28.34-.44.51c-.17-.15-.44-.29-.47-.47S10.1,3.85,10.31,3.5Z"/><path class="cls-1" d="M18.7,4.23c-.33.22-.54.47-.71.44a.63.63,0,0,1-.44-.47c0-.17.29-.43.47-.45S18.39,4,18.7,4.23Z"/></g></svg>