<svg id="ROOMS_LOGOS" data-name="ROOMS LOGOS" xmlns="http://www.w3.org/2000/svg" viewBox="0 0 51.45 51.45"><path d="M25.73,51.45a25.73,25.73,0,1,1,25.71-25A25.68,25.68,0,0,1,25.73,51.45ZM1.1,25.72A24.62,24.62,0,1,0,25.75,1.11,24.62,24.62,0,0,0,1.1,25.72Z" fill="#fff"/><path d="M23,2.59A23.3,23.3,0,1,1,15,46.4l.73-.69c1.68-1.57,3.37-3.13,5-4.7a.4.4,0,0,1,.45-.1,15.66,15.66,0,0,0,12.91-1.73.71.71,0,0,1,.84,0l6.16,3.46.37.19-.9-2c-.78-1.69-1.55-3.38-2.33-5.06a.3.3,0,0,1,0-.37,15.58,15.58,0,0,0,3-6.6,15.75,15.75,0,0,0-.06-6.45.53.53,0,0,1,.19-.59L46.54,17a2.88,2.88,0,0,1,.27-.22l-.05-.06c-2.2.25-4.4.48-6.6.76a1.11,1.11,0,0,1-1.28-.57,15.48,15.48,0,0,0-9.53-6.62,28,28,0,0,0-2.77-.39c-.15,0-.27,0-.35-.2C25.16,7.36,24.08,5,23,2.67,23,2.66,23,2.64,23,2.59Zm9.09,44.64a2.45,2.45,0,0,0,1.69-1.08,3.68,3.68,0,0,0,.55-1.74c0-.1,0-.24.11-.28a5.77,5.77,0,0,0,2-2.5l.24-.53a3.26,3.26,0,0,0-2.9,1,3.33,3.33,0,0,0-.65-.29A3.44,3.44,0,0,0,31,42a.24.24,0,0,0-.11.2,2.38,2.38,0,0,0,1.24,2c.14.08.14.16.14.3a4.79,4.79,0,0,0,.09.84,2.39,2.39,0,0,1,.1.78A7.3,7.3,0,0,1,32.08,47.23ZM47.9,27a4.56,4.56,0,0,0,0-.82A3,3,0,0,0,46,24a.46.46,0,0,1-.31-.34,6.68,6.68,0,0,0-2.1-3,3.29,3.29,0,0,0,0,3.11,1.61,1.61,0,0,0-.74,1A7.26,7.26,0,0,0,42.62,26c0,.6,0,.61.61.65a2.32,2.32,0,0,0,2-.75,1.79,1.79,0,0,0,1.11.29,2.3,2.3,0,0,1,.94.3A3.6,3.6,0,0,1,47.9,27ZM24.76,48.21,24.6,48a1.72,1.72,0,0,1-.42-1.78,1.39,1.39,0,0,0,0-.67.27.27,0,0,1,.13-.36,2.42,2.42,0,0,0,.94-2.09.32.32,0,0,0-.18-.24,2.79,2.79,0,0,0-2.68.43,3.31,3.31,0,0,0-3.09-.61c.49.63.91,1.23,1.39,1.75a5.67,5.67,0,0,0,1.13.87.59.59,0,0,1,.31.41,4,4,0,0,0,.29.88A2.58,2.58,0,0,0,24.76,48.21Zm15.17-39c0,.22,0,.41,0,.59a1.65,1.65,0,0,1-.6,1.19,5.25,5.25,0,0,0-.53.69c-.07.07-.17.17-.25.17a2.49,2.49,0,0,0-2,1.07.25.25,0,0,0,0,.4,2.81,2.81,0,0,0,2.38,1.21,3.29,3.29,0,0,0,2,2.31A8.17,8.17,0,0,0,40.84,14a4.94,4.94,0,0,1-.35-1,3.35,3.35,0,0,1,.32-1,2.61,2.61,0,0,0,.06-.27A2.54,2.54,0,0,0,39.93,9.18ZM29,8.67a6.71,6.71,0,0,0,.55.81,3.58,3.58,0,0,0,1.66.89.28.28,0,0,0,.23-.11,2.4,2.4,0,0,0,.21-2.32.27.27,0,0,1,.05-.34,1.85,1.85,0,0,0,.41-.7A1.66,1.66,0,0,1,33,5.81c.17-.09.35-.15.52-.22l0-.09a7.93,7.93,0,0,0-1.18-.23A2.94,2.94,0,0,0,30,6.44a.51.51,0,0,1-.46.19,6.71,6.71,0,0,0-3.45,1.09A3.29,3.29,0,0,0,29,8.67ZM46.49,34.25a1.87,1.87,0,0,1-1.92,0,4.42,4.42,0,0,0-.82-.29.41.41,0,0,1-.24-.18,2.49,2.49,0,0,0-1.67-1.61.23.23,0,0,0-.34.11A2.82,2.82,0,0,0,41.07,35a3.3,3.3,0,0,0-1.56,2.63,1.56,1.56,0,0,0,.26,0,16.51,16.51,0,0,0,1.8-.6,11.86,11.86,0,0,0,1.24-.8,1.19,1.19,0,0,1,.44-.17,11.9,11.9,0,0,0,1.58-.15A2.41,2.41,0,0,0,46.49,34.25ZM28.33,48.13a2.92,2.92,0,0,0,.19-5.84,2.92,2.92,0,1,0-.19,5.84Zm13.56-18.3a2.93,2.93,0,1,0,5.85,0,2.93,2.93,0,0,0-5.85,0ZM32.27,9.36a2.92,2.92,0,0,0,2.91,2.93,2.93,2.93,0,0,0,.09-5.85A2.9,2.9,0,0,0,32.27,9.36ZM24.59,4.18c.53,1.57,2.14,2.51,4.34,1.81a2.28,2.28,0,0,0-1.22-1.87A3.23,3.23,0,0,0,24.59,4.18Zm10.83,40c1.38,1.45,3.77.71,4.57-1.18C38.57,42.05,36.69,42.37,35.42,44.2ZM46.11,22.91a2.48,2.48,0,0,0,1.4-2,3.27,3.27,0,0,0-1.07-2.77C45,19.38,44.84,21.09,46.11,22.91Zm-5-10.18c.18,2.52,1.84,3.49,3.28,3.36a3.19,3.19,0,0,0-1-2.84A2.44,2.44,0,0,0,41.14,12.73ZM21.61,46.08c-1.41-1.71-3.29-1.86-4.63-.76A3.13,3.13,0,0,0,19.34,47,2.43,2.43,0,0,0,21.61,46.08Zm21.82-9.51c-2.2.85-2.75,2.66-2.19,4.13A2.78,2.78,0,0,0,43.43,36.57Z" fill="#fff"/><path d="M22.8,2.63c-.13.69-.25,1.37-.38,2.05-.35,1.85-.71,3.7-1.05,5.55a.36.36,0,0,1-.29.34,15.69,15.69,0,0,0-9.6,8.21,18.52,18.52,0,0,0-.74,1.78.34.34,0,0,1-.31.26L6,21.31l-2.47.28c.14.09.22.15.3.19,1.9,1.06,3.79,2.13,5.7,3.18a.6.6,0,0,1,.36.62,15.69,15.69,0,0,0,2.87,9.26,15.27,15.27,0,0,0,3.12,3.3.4.4,0,0,1,.18.43c-.48,2.5-1,5-1.43,7.51l0,.11A23.28,23.28,0,0,1,22.8,2.63ZM8.17,27.69a3.26,3.26,0,0,0-.31-3.08A6.85,6.85,0,0,0,6,27.88c0,.09-.11.17-.18.23a9.93,9.93,0,0,0-1,.74,2.51,2.51,0,0,0-.69,2.52h.06l.09-.14a1.68,1.68,0,0,1,1.53-.92,1.56,1.56,0,0,0,.69-.25.27.27,0,0,1,.36,0,2.37,2.37,0,0,0,2.29.28.3.3,0,0,0,.16-.22A2.78,2.78,0,0,0,8.17,27.69ZM7.3,38.11a2.46,2.46,0,0,0,1,1.09,3.22,3.22,0,0,0,2.32.23.49.49,0,0,1,.45.12,6.69,6.69,0,0,0,3.44,1.14,3.22,3.22,0,0,0-1.78-2.46,5.14,5.14,0,0,0,.05-.93A3.53,3.53,0,0,0,12,35.55a.24.24,0,0,0-.22,0A2.46,2.46,0,0,0,10.26,37c0,.15-.08.32-.13.48a1.69,1.69,0,0,0-1,.42,1.62,1.62,0,0,1-.79.29A5.08,5.08,0,0,1,7.3,38.11ZM15.88,8.87a2.44,2.44,0,0,0,.41,2.44.26.26,0,0,0,.39.09c.83-.44,1.63-.91,1.79-1.94a3.36,3.36,0,0,0,2.78-1.37L20.2,7.74a5.26,5.26,0,0,0-2.64-.23c-.09,0-.23-.06-.32-.13A3.23,3.23,0,0,0,15,6.51,2.4,2.4,0,0,0,13.61,7l.37.09a1.52,1.52,0,0,1,1.13.83A1.56,1.56,0,0,0,15.88,8.87ZM8.42,12.2a2.49,2.49,0,0,0-.72,1.62,3.5,3.5,0,0,0,.6,2,.43.43,0,0,1,.09.31,4.39,4.39,0,0,0-.21,2.06c.05.56.16,1.11.25,1.72a3.22,3.22,0,0,0,1.65-2.14c.07-.3.09-.57.51-.5a.86.86,0,0,0,.39-.13,3.69,3.69,0,0,0,1.43-1.45s0-.17,0-.22a2.42,2.42,0,0,0-2.21-.85.46.46,0,0,1-.27-.13,5.93,5.93,0,0,0-.62-.61,1.61,1.61,0,0,1-.68-.84C8.51,12.8,8.48,12.52,8.42,12.2Zm4.12-3.5a2.93,2.93,0,1,0,0,5.85,2.93,2.93,0,1,0,0-5.85ZM5.24,34A2.9,2.9,0,0,0,8.12,37a2.93,2.93,0,1,0,0-5.85A2.9,2.9,0,0,0,5.24,34Zm-.58-13.6a3.18,3.18,0,0,0,2.88-3.73C5.56,16.42,4.18,18.39,4.66,20.41Zm6.52,20A2.54,2.54,0,0,0,11.3,43a3.25,3.25,0,0,0,2.4,1.45C14.18,42.78,13.34,41.09,11.18,40.42ZM21.54,4.59a2.24,2.24,0,0,0-.26-.1c-.23-.06-.46-.12-.7-.16A2.73,2.73,0,0,0,17.39,6.6c0,.19,0,.27.21.27a13.45,13.45,0,0,0,1.42,0A2.94,2.94,0,0,0,21.54,4.59ZM4.65,23.14A3.15,3.15,0,0,0,3.79,26a2.38,2.38,0,0,0,1.52,1.84C6.49,26,6.14,24.13,4.65,23.14Z" fill="#fff"/><path d="M26.41,31.63,25,30.82l-4.12-2.28a.48.48,0,0,0-.23-.06l4,5-1.4,1.33-4,3.8a.35.35,0,0,1-.5.08c-.23-.12-.16-.27-.13-.45.55-2.88,1.09-5.77,1.64-8.65.46-2.45.93-4.89,1.4-7.34v-.15L18.12,27l-6.86-3.79,0-.09,16.88-1.9v-.06L22.3,19.49l1.61-8.32H24Q27.59,19,31.19,26.81h.06a2.09,2.09,0,0,0,0-.25c0-1.77.1-3.54.13-5.31,0-.26.08-.33.34-.35,1.57-.16,3.14-.34,4.71-.51l2.28-.25-.77.73-9.72,9-1.6,1.47a2.18,2.18,0,0,0-.22.31Z" fill="#fff"/><path d="M26.91,11.1A14.35,14.35,0,0,1,33.08,13,14.73,14.73,0,0,1,38,17.71L35.79,18l-4,.45-1.21.14a.27.27,0,0,1-.33-.17L27,11.25A.75.75,0,0,1,26.91,11.1Z" fill="#fff"/><path d="M21.07,11.83c-.11.58-.21,1.16-.32,1.73-.37,2-.75,3.93-1.11,5.91-.05.24-.12.33-.39.36-1.69.18-3.37.38-5.06.57L12,20.64a14.56,14.56,0,0,1,9.11-8.81Z" fill="#fff"/><path d="M16.31,37A14.82,14.82,0,0,1,11,25.84l.24.11c2.08,1.16,4.16,2.33,6.24,3.48a.29.29,0,0,1,.18.37c-.44,2.29-.86,4.58-1.29,6.87C16.38,36.76,16.35,36.86,16.31,37Z" fill="#fff"/><path d="M37.59,34.39c-.34-.72-.64-1.39-1-2l-1.86-4.06a.29.29,0,0,1,.06-.4L40,23.13a2.16,2.16,0,0,1,.19-.16A14.8,14.8,0,0,1,37.59,34.39Z" fill="#fff"/><path d="M21.92,39.92l1.56-1.46,3.65-3.39c.09-.09.16-.17.32-.08l5.77,3.23.1.08A14.81,14.81,0,0,1,21.92,39.92Z" fill="#fff"/><path d="M26.41,31.64a1.64,1.64,0,0,1,.22-.12l5.69-1.41c.16,0,.25,0,.33.14q1.4,3.12,2.8,6.22s0,.05,0,.13L34.37,36,26.6,31.7l-.19-.07Z" fill="#fff"/><path d="M33.06,42.89l-.51.79a2,2,0,0,1-1.1-1.18c1.09-.4,2.05-.14,2.39,1,.42,0,.47-.07.36-.47a1.09,1.09,0,0,0-.05-.17c-.16-.49-.16-.49.28-.75A3,3,0,0,1,36,41.69c-.09.17-.16.32-.24.45a3.28,3.28,0,0,1-1.71,1.59,2.35,2.35,0,0,1-.69.14c-.47,0-.52.05-.58.61l1.08-.07a1.8,1.8,0,0,1-1.07,2,4.29,4.29,0,0,0,.07-.79,2.63,2.63,0,0,0-.15-.78.84.84,0,0,1,0-.74,7.45,7.45,0,0,1,.46-.77C33.37,43.12,33.29,43,33.06,42.89Z" fill="#fff"/><path d="M43.92,21.51a3.87,3.87,0,0,1,1.29,2.37,2.7,2.7,0,0,1-.08.85c-.11.42-.08.52.4.73l.29-1.09a2,2,0,0,1,1.56,1.72L47.15,26a2.25,2.25,0,0,0-1.39-.33.87.87,0,0,1-.58-.23,11.42,11.42,0,0,1-.79-.88l-.3.15.59.76a1.84,1.84,0,0,1-1.47.66c0-1,.4-2,1.76-2l0-.48a6.85,6.85,0,0,0-.79,0c-.18,0-.23-.05-.28-.19A3.06,3.06,0,0,1,43.92,21.51Z" fill="#fff"/><path d="M20.1,43.2a2.66,2.66,0,0,1,2,.42c.05,0,.06.14.05.21s-.07.26-.1.4c-.07.43-.05.45.41.51a1.56,1.56,0,0,1,.88-1.25,2.61,2.61,0,0,1,1.39-.1,2,2,0,0,1-1,1.34L23.14,44l-.23.26c.21.28.43.53.63.8a.93.93,0,0,1,.16.92,2.06,2.06,0,0,0,.16,1.48,1.75,1.75,0,0,1-1.34-1.83l1.06-.06c0-.48-.2-.61-.59-.54a2.41,2.41,0,0,1-1.48-.34A4.1,4.1,0,0,1,20.1,43.2Z" fill="#fff"/><path d="M37.06,13a2,2,0,0,1,1.37-.53c.17,0,.24.06.23.23s0,.47,0,.77l.37-.1c0-.43,0-.85,0-1.26a.61.61,0,0,1,.19-.42,2.4,2.4,0,0,0,1-1.46,1.78,1.78,0,0,1,0,2.29c-.24-.17-.48-.34-.73-.5a1.07,1.07,0,0,0-.19-.07c-.21.42-.17.54.2.76a2.31,2.31,0,0,1,1.07,1.45,13.64,13.64,0,0,1,.24,1.7l-.11.06a6.9,6.9,0,0,1-.68-.53,2.12,2.12,0,0,1-.38-.46c-.11-.17-.27-.37-.26-.55s.23-.29.36-.44l.31-.34-.28-.35a1.64,1.64,0,0,1-1.31.52A2.68,2.68,0,0,1,37.06,13Z" fill="#fff"/><path d="M31.24,7.33l-.94-.61a1.89,1.89,0,0,1,2.12-1L32.17,6a1.9,1.9,0,0,0-.67,1.1.71.71,0,0,1-.43.57c-.34.16-.69.3-1.06.46l0,.34L31,8.12a1.92,1.92,0,0,1,.18,1.6c-1.07-.35-1.72-1.05-1.33-2.24-.35-.22-.4-.21-.56.15a1,1,0,0,0-.1.31c0,.32-.21.36-.47.33A2.66,2.66,0,0,1,27,7.61a3.73,3.73,0,0,1,2.8-.44,2.46,2.46,0,0,1,.59.28C30.78,7.72,30.85,7.72,31.24,7.33Z" fill="#fff"/><path d="M43.32,35.58l.29-1c-.52-.08-.61,0-.7.4a2.51,2.51,0,0,1-1,1.4,4.82,4.82,0,0,1-1.72.78,2.75,2.75,0,0,1,1.12-1.84c.18.11.35.22.52.31.37.19.38.18.58-.24a1.55,1.55,0,0,1-.89-1.1,2.68,2.68,0,0,1,.32-1.47,1.91,1.91,0,0,1,1,1.33l-.86.34c.06.26.16.37.41.23a3.71,3.71,0,0,1,.55-.22,1.08,1.08,0,0,1,1.14.15,1.87,1.87,0,0,0,1.37.27C45.23,35.57,44.15,35.85,43.32,35.58Z" fill="#fff"/><path d="M28.41,42.79a2.43,2.43,0,0,1,2.44,2.45,2.44,2.44,0,0,1-4.88,0A2.42,2.42,0,0,1,28.41,42.79Z" fill="#fff"/><path d="M42.38,29.86a2.44,2.44,0,1,1,2.42,2.43A2.45,2.45,0,0,1,42.38,29.86Z" fill="#fff"/><path d="M37.61,9.36a2.43,2.43,0,1,1-2.43-2.43A2.42,2.42,0,0,1,37.61,9.36Z" fill="#fff"/><path d="M25.35,4.48a1.84,1.84,0,0,1,2.86,1.16A2.12,2.12,0,0,1,25.35,4.48Z" fill="#fff"/><path d="M36.23,44a2.08,2.08,0,0,1,3-.75,2.16,2.16,0,0,1-1.59,1.25A1.54,1.54,0,0,1,36.23,44Z" fill="#fff"/><path d="M46.41,19a1.88,1.88,0,0,1-.19,3.11A2.1,2.1,0,0,1,46.41,19Z" fill="#fff"/><path d="M42.14,13.25a1.79,1.79,0,0,1,1.73,1.52.28.28,0,0,0,0,.09c.1.68.12.84-.71.57s-1.27-.94-1.44-2C41.71,13.27,41.76,13.25,42.14,13.25Z" fill="#fff"/><path d="M17.73,45.48a2.11,2.11,0,0,1,3.08.49,1.61,1.61,0,0,1-1.37.6A2.13,2.13,0,0,1,17.73,45.48Z" fill="#fff"/><path d="M41.65,40a2,2,0,0,1,1.43-2.71A1.82,1.82,0,0,1,41.65,40Z" fill="#fff"/><path d="M4.63,30.36A1.86,1.86,0,0,1,6,28.5l.38,1c.46-.24.5-.35.32-.74a2.47,2.47,0,0,1-.07-1.61,4.6,4.6,0,0,1,1-1.72,2.72,2.72,0,0,1,.21,2c0,.07-.12.13-.2.15s-.28,0-.42,0c-.41.06-.41.07-.36.52a1.62,1.62,0,0,1,1.47.49A2.75,2.75,0,0,1,8.79,30a2,2,0,0,1-1.57-.51l.51-.79c-.22-.18-.36-.17-.48.08a3.11,3.11,0,0,1-.34.52,1,1,0,0,1-.88.5A2.2,2.2,0,0,0,4.63,30.36Z" fill="#fff"/><path d="M11.67,36.1c.67,1.14.71,1.88-.27,2.61.18.4.22.42.58.18.16-.1.32-.23.48-.35a2.66,2.66,0,0,1,1.32,1.75,11.8,11.8,0,0,1-1.38-.43,2.39,2.39,0,0,1-1.55-1.72c0-.06-.1-.13-.16-.17a.63.63,0,0,0-.24,0l-.32,0L10.55,39a1.79,1.79,0,0,1-2.23-.43,7.1,7.1,0,0,0,.8-.17,1,1,0,0,0,.52-.27,1.13,1.13,0,0,1,1.24-.24,2.72,2.72,0,0,1,.49.13c.26.12.33,0,.38-.27l-.89-.25A1.9,1.9,0,0,1,11.67,36.1Z" fill="#fff"/><path d="M16.57,10.8a1.78,1.78,0,0,1,0-1.63l.86.2c.14-.3.11-.36-.17-.41l-.58-.13a1.1,1.1,0,0,1-.88-.74,2,2,0,0,0-1-1c.75-.39,1.49-.08,2.2.63l-.84.72c.36.34.5.33.81.05a2.63,2.63,0,0,1,2.18-.62c.41,0,.81.17,1.27.27A2.81,2.81,0,0,1,18.52,9c-.05,0-.14-.09-.17-.15-.13-.23-.25-.47-.38-.73l-.43.18C18.07,9.5,17.69,10.15,16.57,10.8Z" fill="#fff"/><path d="M10.24,16.27l-.07-.91a1.89,1.89,0,0,1,1.6.27c-.74,1-1.5,1.35-2.54.66-.3.32-.3.33,0,.59l.27.19.25.14A2.54,2.54,0,0,1,8.64,19c-.32-1-.18-2.75.94-3.45.25-.16,0-.42-.07-.71l-.85.75a1.81,1.81,0,0,1-.36-2.26,4,4,0,0,0,.25.46,2.18,2.18,0,0,0,.6.64,1.28,1.28,0,0,1,.69,1.19,2.54,2.54,0,0,1,0,.39C9.83,16.27,10,16.35,10.24,16.27Z" fill="#fff"/><path d="M12.52,14a2.43,2.43,0,1,1,0-4.85,2.43,2.43,0,1,1,0,4.85Z" fill="#fff"/><path d="M10.58,34a2.44,2.44,0,0,1-2.44,2.44A2.45,2.45,0,1,1,10.58,34Z" fill="#fff"/><path d="M7,17.23a2.21,2.21,0,0,1-1.5,2.49c-.4.11-.44.08-.46-.33a1.91,1.91,0,0,1,1-1.92A4.26,4.26,0,0,1,7,17.23Z" fill="#fff"/><path d="M13.26,43.76a1.84,1.84,0,0,1-1.65-2.62A2.12,2.12,0,0,1,13.26,43.76Z" fill="#fff"/><path d="M18.11,6.39c-.08-1.21,1.4-2,2.69-1.46A2,2,0,0,1,18.11,6.39Z" fill="#fff"/><path d="M5.16,27a1.84,1.84,0,0,1-.4-3A2.1,2.1,0,0,1,5.16,27Z" fill="#fff"/></svg>