<svg id="ROOMS_LOGOS" data-name="ROOMS LOGOS" xmlns="http://www.w3.org/2000/svg" viewBox="0 0 28.35 22.68"><defs><style>.cls-1{fill:#fff;}</style></defs><title>PHANTAZMA</title><g id="PHANTAZMA"><path class="cls-1" d="M13.9,22.68l-.15-.14a10.55,10.55,0,0,1-2.61-3.22c-.24-.47-.46-1-.69-1.45l-.25.29c-.55.65-1.1,1.31-1.67,2a9.71,9.71,0,0,1-1.7,1.49l0-.07a11.73,11.73,0,0,1,1.55-2.38L10.13,17a.13.13,0,0,0,0-.09c-.15-.54-.31-1.07-.44-1.61s-.2-1-.29-1.5S9.3,13,9.24,12.56s-.08-.74-.11-1.11L9,10.34c0-.31,0-.61,0-.91,0-.5,0-1-.05-1.5a.18.18,0,0,0,0-.09L8,6.73l-.71-.84.18-.28L8.93,7.39V7.05l0,0c-.35-.42-.7-.85-1.06-1.27-.08-.09,0-.16,0-.26l1.1,1.34a.25.25,0,0,0,0-.21L7.83,5.32a0,0,0,0,0,0,0l.31-.11.73.89c0-.08,0-.15,0-.21s0-.1.14-.09c.42.06.84.14,1.26.19l1,.1,1.2.08.69,0q1,0,2.1,0l1.1-.06,1-.11,1.25-.17.27,0a.07.07,0,0,1,.09,0c0,.08,0,.16.05.25l.31-.39c.12-.15.25-.3.37-.46a.08.08,0,0,1,.09,0l.26.1-.33.41c-.25.3-.5.6-.74.91a.31.31,0,0,0,0,.17h0L20,5.49a.18.18,0,0,1,0,.25c-.35.42-.7.83-1,1.25a.21.21,0,0,0,0,.1V7.4l1.51-1.79.15.24a.06.06,0,0,1,0,.08L19,7.81a.36.36,0,0,0-.07.18c0,.62,0,1.24-.07,1.86,0,.37,0,.73-.07,1.09s-.06.74-.1,1.1-.08.73-.13,1.09-.13.9-.22,1.35c-.13.69-.29,1.38-.49,2.06l-.12.39a.11.11,0,0,0,0,.11c.39.48.78.95,1.16,1.43s.81,1,1.19,1.51A9.49,9.49,0,0,1,21,21.55l0,.05v0l-.36-.31-.3-.22A12.42,12.42,0,0,1,19,19.69c-.51-.61-1-1.21-1.54-1.81l0,0-.26.6a11.19,11.19,0,0,1-1.76,2.85A11.15,11.15,0,0,1,14,22.62l-.06.06Zm.61-1.12h0l.28-.31a11.38,11.38,0,0,0,1.42-2,15.5,15.5,0,0,0,1.24-3.08c.18-.63.32-1.27.44-1.91.07-.39.13-.78.19-1.17l.12-.9c0-.15,0-.31.05-.48a25,25,0,0,1-3.76.4Zm-1.15,0V12.09a29.79,29.79,0,0,1-3.76-.4c.05.38.09.75.14,1.12s.09.58.13.86a19.71,19.71,0,0,0,.45,2.16,16.9,16.9,0,0,0,.78,2.27A11.88,11.88,0,0,0,13,21.17Zm1.15-10.64h.09l.52,0q.44,0,.87-.06l1.09-.13,1.22-.19c.05,0,.08,0,.08-.07s0-.16,0-.23c0-.53.06-1.05.08-1.58s0-1.32,0-2V6.61a26.63,26.63,0,0,1-4,.34Zm-1.15,0V7a26.5,26.5,0,0,1-4-.34s0,0,0,.06c0,.37,0,.74,0,1.11s0,.92,0,1.38.05.85.07,1.28c0,.07,0,.1.1.11l1,.15,1.38.16q.36,0,.72.06Zm.58,11.28a.65.65,0,0,1-.12-.11c-.26-.26-.52-.52-.76-.79a11.08,11.08,0,0,1-1.22-1.66,14.25,14.25,0,0,1-1.32-3A22.34,22.34,0,0,1,10,14.37c-.06-.35-.12-.7-.17-1s0-.39-.07-.59-.06-.33-.08-.5c-.05-.48-.1-1-.14-1.44s-.07-1-.09-1.54,0-1.3-.06-1.95v-.7l-.11,0c0,.28,0,.57,0,.85,0,.88.06,1.75.1,2.62,0,.52.08,1,.12,1.56s.08.78.13,1.16.14.89.21,1.33a18.81,18.81,0,0,0,.49,2.1A14.22,14.22,0,0,0,11.38,19a11.4,11.4,0,0,0,2.46,3.23l.1.09s0,0,0,0a11.15,11.15,0,0,0,1.65-1.85,12.81,12.81,0,0,0,1.69-3.34A19.31,19.31,0,0,0,18,14.42c.13-.68.23-1.36.31-2.05.06-.46.11-.92.14-1.38s.07-1,.1-1.49,0-.79.05-1.18,0-.79,0-1.19c0-.18,0-.36,0-.54h-.1v.12c0,.35,0,.71,0,1.07,0,.63-.05,1.26-.07,1.9,0,.36,0,.71-.07,1.07s-.07.83-.12,1.25-.1.92-.18,1.37c-.1.64-.23,1.27-.36,1.9A16.75,16.75,0,0,1,17,17.66a11.91,11.91,0,0,1-2.57,4.07Zm0-.62a.13.13,0,0,0,.12-.12.12.12,0,0,0-.24,0A.14.14,0,0,0,13.94,21.58Zm.12-15a.12.12,0,0,0-.12-.12.12.12,0,0,0-.12.12.11.11,0,0,0,.12.11A.12.12,0,0,0,14.06,6.56Zm2,0a.11.11,0,1,0-.22,0,.1.1,0,0,0,.11.11A.11.11,0,0,0,16,6.53Zm-4,.11a.11.11,0,0,0,.11-.11A.13.13,0,0,0,12,6.41a.11.11,0,0,0-.11.12A.11.11,0,0,0,12,6.64Zm-1.46-.27c0-.06,0-.12-.09-.12a.13.13,0,0,0-.11.12.12.12,0,0,0,.11.12C10.48,6.49,10.52,6.43,10.52,6.37Zm6.83,0a.13.13,0,0,0,.1.12.11.11,0,0,0,.1-.11c0-.07,0-.13-.1-.13S17.36,6.31,17.35,6.37Zm.84,4.79a.1.1,0,0,0-.08-.1c-.05,0-.09,0-.09.12a.1.1,0,0,0,.09.11C18.16,11.3,18.19,11.24,18.19,11.16Zm-8.33,0c0-.06,0-.12-.09-.12a.11.11,0,0,0-.09.11c0,.06,0,.11.09.12S9.86,11.24,9.86,11.18Zm8.73-4.95c0-.06,0-.12-.09-.12s-.08.06-.08.12a.09.09,0,1,0,.17,0Zm-9.13,0s0-.11-.09-.11-.08.06-.08.12a.09.09,0,0,0,.08.11C9.44,6.33,9.45,6.28,9.46,6.22Z"/><path class="cls-1" d="M15.4,0c.08.08,0,.17,0,.26s-.06,0-.1,0H12.55c-.1,0-.12,0-.12-.11s0-.14.05-.19Z"/><path class="cls-1" d="M4.39,2.15a1.05,1.05,0,0,1,.17-.29.54.54,0,0,1,.65-.1.55.55,0,0,1-.18,1,.56.56,0,0,1-.63-.41V2.15Zm.9.09a.34.34,0,0,0-.35-.33.34.34,0,0,0,0,.67A.34.34,0,0,0,5.29,2.24Z"/><path class="cls-1" d="M23.49,2.33a.58.58,0,0,1-.86.38.54.54,0,0,1-.25-.58.54.54,0,0,1,.45-.42.56.56,0,0,1,.65.42s0,0,0,0Zm-.9-.08a.33.33,0,0,0,.34.33.34.34,0,0,0,.34-.33.34.34,0,0,0-.34-.34A.34.34,0,0,0,22.59,2.25Z"/><path class="cls-1" d="M15.4.38l.39,1.21c.05.16.09.31.15.46a.65.65,0,0,1,0,.31c0,.28-.1.56-.17.83a4.42,4.42,0,0,1-.54,1.29,2.05,2.05,0,0,1-1.16.88.44.44,0,0,1-.28,0,2.11,2.11,0,0,1-1.17-.94A4.46,4.46,0,0,1,12.08,3c-.07-.27-.11-.56-.16-.83a.15.15,0,0,1,0-.07c.17-.56.35-1.12.53-1.67,0,0,0,0,.06,0ZM13.94.45l-.28.24c-.06.05-.06.08,0,.14l.05.05a.09.09,0,0,1,0,.11l0,.44s0,.07-.07.07l-.22,0-.63.13h0l.91-.13c0,.09,0,.17,0,.24a.15.15,0,0,1-.15.12c-.4,0-.8,0-1.2,0a.07.07,0,0,1-.08-.06l-.06-.1,0,0a1.41,1.41,0,0,0-.17.35c0,.09.06.19.1.29s0,0,0,0l0,.06.06,0s0-.08.1-.07l1.12.14a.16.16,0,0,1,.16.17,2,2,0,0,1,0,.23c0,.32,0,.63.07.94s0,.53.06.8c0,.1,0,.22-.1.26a.31.31,0,0,0,.27.21A.3.3,0,0,0,14.21,5a.15.15,0,0,1-.11-.16c0-.12,0-.25,0-.37,0-.33.05-.66.08-1s0-.48.05-.72a.17.17,0,0,1,.18-.17l.2,0c.27,0,.55-.06.82-.11.11,0,.18,0,.22.1l0,0,.06-.11a1.19,1.19,0,0,0,.1-.28c0-.09-.08-.18-.12-.27l-.07-.13a.5.5,0,0,1-.07.13.08.08,0,0,1-.06,0l-1.22,0a.12.12,0,0,1-.13-.1,2.06,2.06,0,0,1,0-.26l.9.13c-.28-.07-.57-.13-.85-.18-.05,0-.06,0-.06-.07l0-.34c0-.1,0-.2.1-.26s.06-.09,0-.14Zm1.48,2.89-.07-.07s-.06,0-.06.07,0,.05.05.08Zm-.31,0L15,3.3s0,0-.06.07,0,.06,0,.06Zm-2.5,0-.08-.08s0,0,0,.06a.24.24,0,0,0,.06.08ZM15.12,3,15.05,3S15,3,15,3s0,0,0,.06Zm-1.86.39-.08-.08s0,0,0,.06,0,.05.06.08Zm-.48,0,.08.08s.05,0,.05-.06l-.06-.07Zm0,.74.08.07s.06,0,0-.06,0,0-.06-.08Zm2.26-.37L15,3.66s0,0-.06.08L15,3.8Zm-.37-.41h0a.32.32,0,0,0,0,.09s0,0,0,.06a.47.47,0,0,0,.06-.09S14.72,3.33,14.71,3.31Zm.34.77L15,4s-.05.05-.06.08,0,0,.05.06ZM13,3.74l-.08-.08s0,0,0,.07l.06.07Zm0-.72L12.83,3,12.78,3s0,.05.06.08Z"/><path class="cls-1" d="M15.93,1.76c.13,0,.15,0,.2.11a.63.63,0,0,1,0,.66,1.7,1.7,0,0,0-.11.58c0,.32-.06.63-.09.94s-.05.48-.07.72l0,.34a.13.13,0,0,0,.08.13c.06,0,.09,0,.07.1a.11.11,0,0,1-.07.08,3.6,3.6,0,0,1-.91.24,6.45,6.45,0,0,1-1.24.07A5.19,5.19,0,0,1,12,5.43l-.09,0A.1.1,0,0,1,12,5.24a.14.14,0,0,0,.1-.16L12,4.55c0-.24,0-.49-.07-.73s0-.49-.07-.73,0-.28,0-.41,0-.07,0-.1a.35.35,0,0,1,0-.08,2.27,2.27,0,0,0-.06-.25.28.28,0,0,1,0-.25l.06-.12c0-.12.06-.13.19-.12,0,.09-.06.18-.1.27a.31.31,0,0,0,0,.19c.11.44.21.89.33,1.33a3.25,3.25,0,0,0,.66,1.26,2,2,0,0,0,1,.63.75.75,0,0,0,.42-.05,2,2,0,0,0,1-.77,3.94,3.94,0,0,0,.58-1.33c.1-.37.18-.75.27-1.12a.36.36,0,0,0,0-.1Zm-3,3.65s0,.06,0,.08,0,0,0,0l.05,0S13,5.45,12.92,5.41Zm2.1.08s0,0-.07,0,0,0-.06,0l.06,0S15,5.51,15,5.49Zm-1.47.15s.06,0,0-.07a.05.05,0,1,0-.1,0S13.53,5.61,13.55,5.64Zm.78,0,.05-.08a.15.15,0,0,0-.06-.05s-.05,0,0,.05S14.3,5.61,14.33,5.65Zm-2.21-.44s0,0,0,.07,0,0,0,0,.05,0,.06,0A.27.27,0,0,0,12.12,5.21Zm.39.17-.06,0a.07.07,0,0,0,0,0s0,0,0,0Zm3.33-.07,0,0s0,0-.05,0,0,0,0,0l0,0Zm-.42,0s0,.06,0,.08a.12.12,0,0,0,0,0s0,0,0,0S15.45,5.34,15.42,5.3Z"/><path class="cls-1" d="M9.26,4.8l-.12,0a1.2,1.2,0,0,0-.7.11c-.24.1-.46.22-.69.33a.11.11,0,0,0,0,.06l0,.14c0,.1,0,.12-.14.1a.3.3,0,0,0-.3.14c-.14.2-.3.38-.45.59a1,1,0,0,0-.18.59.09.09,0,0,1,0,0,.59.59,0,0,1-.14-.06l-.4-.23C6,6.54,6,6.5,6,6.39s.28-.4.43-.59A4.87,4.87,0,0,1,7.14,5a4.42,4.42,0,0,1,1-.57c.25-.12.51-.23.77-.33s.17,0,.22.08l.15.46S9.25,4.75,9.26,4.8Z"/><path class="cls-1" d="M18.62,4.79a1.55,1.55,0,0,1,0-.21c0-.13.09-.26.14-.38s.08-.11.17-.08A6.93,6.93,0,0,1,20.68,5a4.23,4.23,0,0,1,.68.72c.17.22.32.44.48.67s.07.15,0,.22l-.45.25c-.09,0-.1,0-.1-.06A1.21,1.21,0,0,0,21,6.07l-.43-.53-.06,0h0c-.27,0-.22,0-.28-.23,0,0,0-.06,0-.06l-.8-.38a1,1,0,0,0-.66-.06Z"/><path class="cls-1" d="M7.47,4.68a1.47,1.47,0,0,0-.6.48L5.18,2.88l.35-.28Z"/><path class="cls-1" d="M20.4,4.67a1.54,1.54,0,0,1,.6.47l1.69-2.28-.35-.28Z"/><path class="cls-1" d="M18.85,5.74A30.75,30.75,0,0,1,9,5.75a1.1,1.1,0,0,1,.55,0l.91.11.94.08.69,0C13,6,13.77,6,14.59,6c.5,0,1,0,1.5-.07.34,0,.68,0,1-.08l1.19-.13.27,0Z"/><path class="cls-1" d="M4.84,2,5,2.15,5.11,2l.12.14-.18.11.1.19.06,0-.15.12-.12-.19-.18.12,0,0-.13-.15.19-.12-.13-.17,0,0Z"/><path class="cls-1" d="M22.82,2.51l-.14-.11.16-.14-.19-.12L22.77,2l.15.15L23,2l.15.12,0,0L23,2.23l.18.12-.11.14-.15-.15Z"/><path class="cls-1" d="M12.24,2.25V2.08l1.43,0v.18Z"/><path class="cls-1" d="M14.21,2.31V2.13l1.42,0v.17Z"/><path class="cls-1" d="M13.94,5.05s0-.06,0-.08,0,0,0,0S14,5,14,5,14,5,13.94,5.05Z"/><path class="cls-1" d="M13.94.78s0-.06,0-.08,0,0,0,0,.05,0,.05.06S14,.74,13.94.78Z"/><path class="cls-1" d="M15.83,2.16l0,0s0,0,0,0a.09.09,0,0,1,0-.05Z"/></g></svg>