<svg id="Layer_1" data-name="Layer 1" xmlns="http://www.w3.org/2000/svg" viewBox="0 0 200 200"><defs><style>.cls-1{fill:#fff;}</style></defs><title>Artboard 1</title><g id="PIRATES_EXTENDED"><path class="cls-1" d="M70.05,85.9c3.89-1.32,7.75-2.81,11.7-3.93s7.89-1.84,11.84-2.73l0-.47c-.19-.1-.4-.33-.58-.3-6.65,1-13.36,1.75-19.81,3.89a42,42,0,0,0-10.09,4.51,4.26,4.26,0,0,1-4.09.5c-6-2.22-12.07-4.19-17.92-6.72C34.79,77.92,28.9,74.4,24.23,69.23a62.36,62.36,0,0,1-3.72-5,12.67,12.67,0,0,1,5.1-5.8c1.44-.86,2.83-.45,4.3.18q5.6,2.4,11.32,4.53a33.41,33.41,0,0,0,4.55,1,13.67,13.67,0,0,1-7.42,5.1c-3,.9-5.74-.45-8.6-.72l-.12.38a8.1,8.1,0,0,0,1.15.71c5.42,2.19,10.41,1.49,14.88-2.35a40.77,40.77,0,0,0,8.25-10.2A101.27,101.27,0,0,1,67.63,39.47a35.79,35.79,0,0,1,10.81-8.33,10.4,10.4,0,0,1,8.16-.26A76,76,0,0,0,99,33.93c2,.33,4.22-.33,6.28-.81a50.79,50.79,0,0,0,7.35-2.27,9.14,9.14,0,0,1,8.48.53,44,44,0,0,1,7.06,4.91,104.17,104.17,0,0,1,18.53,22.85,28.42,28.42,0,0,0,9.15,9.8,13.07,13.07,0,0,0,10.66,1.34,37,37,0,0,0,4.07-1.42,6.57,6.57,0,0,0,1.33-.94l-.17-.34c-1.32.42-2.63.88-4,1.24-2.76.76-5.51,1.13-8.29,0a14.26,14.26,0,0,1-6.12-4.62,49.27,49.27,0,0,0,5.26-1.31c3.51-1.3,7-2.69,10.43-4.21,2.57-1.15,4.16-1.11,6.15.86,1.27,1.26,2.34,2.72,3.47,4.06a17.36,17.36,0,0,1-4.13,6.08,49.71,49.71,0,0,1-14.11,9.85,118.46,118.46,0,0,1-20.11,7.78,4.19,4.19,0,0,1-3.77-.23c-5.34-3.47-11.34-5.27-17.49-6.53-3.36-.69-6.79-1-10.18-1.57-.55-.09-1.07-.38-1.62-.47s-1.22-.07-1.83-.1l-.17.62c.81.34,1.62,1,2.41,1,3.21-.14,6.17,1,9.17,1.75a63.63,63.63,0,0,1,16,6.31c1.45.84,2.79,1.85,4,2.63-.13,1.51-.23,2.65-.33,3.85a3.77,3.77,0,0,1-4.15-.65,6,6,0,0,0-1.52-1,99,99,0,0,0-18.55-6c-2-.39-4-.71-6-1.09-.73-.14-1.44-.37-1.8-.46-11.66-.56-23-.63-34.18,1.24ZM90.89,58.19c-.32-2.48-.83-3.23-2.13-3.41-1.53-.22-2.36.49-3.33,2.6l-1.84,2.47c1.07,2,1.84,2.35,3.59,2a5.82,5.82,0,0,1,2.74-.12c2,.6,3.81,1.47,5.8,2.27-2.36,2.26-4.64,2.56-7.16,1.12-2,.24-2.42.69-2.78,2.42.27,1.36.47,2.4.68,3.43a2.33,2.33,0,0,0,2.09,2.1,2.27,2.27,0,0,0,2.37-1.49c.27-.56.47-1.15.7-1.74,2.15-1.12,4.22-2.29,6.37-3.28a3.42,3.42,0,0,1,2.47-.25c2.41,1,4.71,2.3,6.88,3.4,1,2.79,1.86,3.61,3.21,3.38s1.94-1.2,1.84-3.38a7.34,7.34,0,0,0,.76-1.24,2.35,2.35,0,0,0-.81-2.68,1.74,1.74,0,0,0-2.37-.36c-2.63,1.84-4.48-.27-6.62-1.17a32.48,32.48,0,0,1,5.49-2.51,4.58,4.58,0,0,1,2.67,0,2.69,2.69,0,0,0,3.09-.6,2.36,2.36,0,0,0-.66-3.31,3,3,0,0,1-.79-1c-1.26-2.42-2.35-2.67-4.49-1-.41,2.63-.48,2.73-2.85,3.93-1.57.78-3.12,1.61-4.73,2.31a3.26,3.26,0,0,1-2.14.34A32.74,32.74,0,0,1,90.89,58.19ZM95,37.28l.12-.68c-2.64-.82-5.27-1.68-7.92-2.46A12.39,12.39,0,0,0,76.4,35.86,45.2,45.2,0,0,0,64.5,47.72c-4.17,5.93-8,12.11-12.32,17.93-2.68,3.62-6,6.76-10.7,7.82-.65.14-1.29.35-1.93.53l0,.37a5,5,0,0,0,1.69.34,11.42,11.42,0,0,0,4-1,40.69,40.69,0,0,0,7.35-5.11C57.6,63.81,61.1,57.71,65,52A75.8,75.8,0,0,1,75.41,39.46c3.09-2.89,6.71-4.39,11-3.77,2.28.33,4.51,1,6.77,1.47A13.38,13.38,0,0,0,95,37.28Zm9.11,0a7.56,7.56,0,0,0,1.65,0c1.28-.28,2.54-.67,3.81-1,4.27-1.08,8.6-1.47,12.18,1.55a64.38,64.38,0,0,1,8.64,8.83c3.27,4.11,6,8.67,9.09,12.9a102.82,102.82,0,0,0,7.83,9.58,16.66,16.66,0,0,0,10.11,5.33A3.15,3.15,0,0,0,160,74c-.95-.29-1.54-.51-2.14-.64-4.64-.92-8-3.77-10.8-7.34-2.56-3.32-4.87-6.83-7.18-10.34-3.93-6-7.85-11.92-13.11-16.86C119.62,32.14,112.69,32.61,104.06,37.33Zm6.76,8c-3.75,1.38-7.61,2.53-11.51,2.34s-7.6-1.34-11.31-2C94.05,51.27,104.85,51.21,110.82,45.3Zm-.28,38.6v.59c.32.15.64.43.95.42,2.69-.15,5.14.85,7.58,1.7,4.58,1.6,9.1,3.41,13.64,5.14.69.27,1.36.65,2.2-.49-1.17-.62-2.19-1.23-3.27-1.72-6.23-2.82-12.89-4.25-19.48-5.88A4.49,4.49,0,0,0,110.54,83.9Z"/><path class="cls-1" d="M64.29,97.65c-.46-2-.8-3.71-1.25-5.4a2.44,2.44,0,0,1,1.06-2.88c2.05-1.65,4.48-1.58,6.8-1.7,5.57-.27,11.16-.45,16.73-.37,3.93,0,7.84.61,11.76.94.75.06,1.51,0,2.26.1a39.17,39.17,0,0,0,5.36.57c4.48-.15,8.61,1.36,12.79,2.51,4.64,1.28,9.19,2.91,13.77,4.4a11.79,11.79,0,0,1,1.35.63l-.33.34c1,1.18,1.89,2.67,3.16,3.48,3.43,2.2,3,5.31,2.44,8.51A14.15,14.15,0,0,1,137,115.1c-1.74,2.11-1.56,3.77.63,5.5.88.69,1.85,1.26,2.7,1.84-.55,5.79-4.4,10.66-8.63,9-.22-.42-.5-1-.79-1.51a9.26,9.26,0,0,0-7.23-4.84c-3-.42-6.81,1.64-6.53,5.74.13,2,.32,4.08.48,6.11L115.06,139l-1.59-.14-1.5,1.58-2.18-1-1.18,1.86-2.73-1.8-1.66,2.31-2.31-2-2.36,2-2.38-2-2.36,2-1.48-2.4-2.51,1.8c-2-1.88-2-1.88-3.75-.67l-1.67-1.76-1.61.36-2.1-2.28c.13-2.13.37-4.18.36-6.23a5.61,5.61,0,0,0-7.25-5.44,9.64,9.64,0,0,0-6.73,5.25c-.19.38-.45.74-.63,1-4.64,1.7-8.15-4.07-8.53-9.07a16.39,16.39,0,0,0,1.47-.95,13.58,13.58,0,0,0,2.36-2.1c1.19-1.56,1.1-2.29-.17-3.82a15.11,15.11,0,0,1-3.88-10.67,4.63,4.63,0,0,1,1.83-3.71C61.83,100.08,63,98.85,64.29,97.65Zm65.22-1.38-.64-.14c-.77,1.6-1.6,3.21-3.47,3.66s-3.77.77-5.67,1.1c-1.46.26-2.93.44-4.4.68-4,.67-7.8,1.81-10.89,4.63a1.77,1.77,0,0,1-.58.21l-2.2-1-.45.38,1.64,4.15,2.12.55,1.73,2.82c.79,1.28,1.52,2.6,2.38,3.83,2.18,3.12,4.66,4,8.3,3a29.65,29.65,0,0,0,4-1.62c2.6-1.18,4.9-3.1,8-3.13,1.81-1.68,3.76-3.26,5.45-5.09a3.84,3.84,0,0,0,.32-5.33,26.67,26.67,0,0,0-4.1-3.75,20.89,20.89,0,0,0-2-1.36Zm-59.08-.09-.67.25.4,3.34-1.32.93a35.33,35.33,0,0,0-3.48,2.55c-2.74,2.55-2.77,5.41-.11,8,1.53,1.48,3.2,2.81,4.8,4.21a11.46,11.46,0,0,1,3.64.92c1.71.77,3.33,1.74,5,2.55,6.17,2.94,9.2,2,12.7-3.72,1-1.59,1.92-3.2,2.82-4.7L96,110a5.93,5.93,0,0,0,1.68-4.73l-2.2,1.12c-2-1.17-3.77-2.62-5.74-3.19-3.58-1-7.31-1.6-11-2.33C75.51,100.22,71.86,100.3,70.43,96.18Zm31.24,39.29a13.92,13.92,0,0,0,.72-1.49c.63-1.82,1.32-3.63,1.83-5.49,1.16-4.31.46-5.29-2.8-8.53l-1.77,1.36L97.73,120c-3.47,3.29-3.92,5.28-2.36,9.5.46,1.22.77,2.5,1.2,3.73.26.74.62,1.44,1,2.25l2.15-.92Zm21.84-40.33.11-.66c-2.36-1.56-5.3-1.17-7.35-2a25.53,25.53,0,0,1-3.61.42c-4-.14-6.63,2.09-8.82,5a5.57,5.57,0,0,0-.52,1.69l.41.21,1.43-1.15a14.76,14.76,0,0,1,7.08-3.11,85.6,85.6,0,0,1,9.08-.48C122.05,95.11,122.78,95.14,123.51,95.14Zm-48.05-.7.08.47a6.21,6.21,0,0,0,1,.22c2.13,0,4.26-.08,6.38,0,4.24.24,8.33,1,11.54,4.14.26.26.72.31,1.4.59a9.07,9.07,0,0,0-6-6.13c-3.32-1.28-6.8-.92-10.2-.65A7,7,0,0,0,75.46,94.44ZM66,130.83a46,46,0,0,1,4.65-5,45.89,45.89,0,0,1,5.8-3.44c-5.38-1.2-8.68,1.82-11.63,5.86l-2.52-3A4.07,4.07,0,0,0,66,130.83Zm68.58-2.36c-3-4.3-6.32-7.21-11.62-6.13a3,3,0,0,0,1.2,1,18.48,18.48,0,0,1,3.64,1.82c1.56,1.31,2.81,3,4.28,4.4a3.62,3.62,0,0,0,2.1,1.22c2-.06,3.66-3.32,2.8-5.31ZM82.15,124.8l1.9,12C87.1,133.69,85.74,125.9,82.15,124.8Zm33.07,11.83c.64-4,1.25-7.92,1.87-11.87C113.49,126,112.15,134,115.22,136.63Zm-11.13-16.22c.49-2.42-1.46-5.56-3.5-6.19a3,3,0,0,0-3.19.45,9.62,9.62,0,0,0-2.84,6.25,22.6,22.6,0,0,0,2.32-3.06c1.83-2.62,3.61-2.63,5.44,0C102.92,118.68,103.5,119.55,104.09,120.41Z"/><path class="cls-1" d="M181.08,160.9c-3.12.59-3.09-2.48-4.84-3.11,1.55-2.75,1.33-3.57-1.26-5.23a4.54,4.54,0,0,0-2.18,3.9,7.75,7.75,0,0,0-7.14,4.66h-5.82c-3.58,0-7.15,0-10.73,0a2.33,2.33,0,0,1-2.4-1.38,7.38,7.38,0,0,0-4-3.5c2.15,0,4.35-.77,6.39.71a2.17,2.17,0,0,0,2.77-.28,20.26,20.26,0,0,1,1.89-1.16l-3.49-3.3a12,12,0,0,0-1.74,1.65,2.63,2.63,0,0,1-2.57,1.22l-7.51-.52v-4H157c-1.55-1.4-3.76-.19-4.65-2.51a9.83,9.83,0,0,1,1.95-.5c2.26-.08,4.52,0,6.78-.1a20.8,20.8,0,0,0,2.17-.28v-2c1.28-.87,4.34-1.06,7.84-.49,1.31-2.22,2.11-2.89,3.08-2.23a2.79,2.79,0,0,1,1.18,2.06c-.19,1.72-1.69,1.7-3.16,1.57,1,1.07,2.05,1,3.16,0,1.95-1.81,2.8-2,5.72-1.17C181.25,150.06,181.21,155.39,181.08,160.9Z"/><path class="cls-1" d="M28.88,144.69a22.14,22.14,0,0,1,7.87,0l.2,2.58,5.3.18c1.71.07,3.45-.18,5,.3.26,1.46-.51,1.7-1.38,1.79-2,.2-3.94.37-5.91.55v.41H61.56v4.05l-8.67.58c-1.17-1.1-2.09-2-3.14-3L47.14,155l-2.6.28c1.31.57,2.87,1.32,4.49,1.9a2.19,2.19,0,0,0,1.78-.12c2-1.59,4.28-.71,6.49-.77-2.29.74-3.49,2.54-4.62,4.64H34.4c-1.57-2.63-3.81-4.46-7.28-4.42.28-1.87-.79-2.9-2-3.84-2.46,1.13-2.86,2.44-1.36,5.08-1.75.66-1.67,3.85-4.84,3.11-.24-5.38-.17-10.7-.05-16.24h4.37c2.92,2.71,3.84,2.91,5.08,1-2.23.63-3.16.41-3.63-.83a2,2,0,0,1,1.12-2.48C27,141.89,27.87,142.57,28.88,144.69Z"/><path class="cls-1" d="M199.4,135.39c.33,3.3.94,6.22.37,9.42-.61-.13-1.07-.24-1.53-.32-.61-.1-1.32-.41-1.83-.21-3.2,1.26-6.61.25-9.84,1a15.2,15.2,0,0,1-2.61.27,2.82,2.82,0,0,1-1.47-.33c1.47-1.33,3.34-1,5.37-1.43a6.18,6.18,0,0,0-.89-.24c-2.92-.17-5.84-.37-8.77-.46a4.13,4.13,0,0,1-2.9-1c-1.32-1.19-2.23-1.28-3.45-.07a4.74,4.74,0,0,1-3.78,1.21c-1.74,0-3.49,0-5,0l-1.41,1.48L158,146.14c-4.15-1.47-8.4.66-12.79.73,1.79.95,3.77.34,5.73.71a5,5,0,0,1-4.53,1.47,27.86,27.86,0,0,0-4.83.1,5.3,5.3,0,0,1-4.62-1.67c-.44.4-.83.7-1.16,1.06-1.9,2.05-4.42,2.69-7,3.18a36.44,36.44,0,0,0-5.27,1.27,6.2,6.2,0,0,0-2.52,1.85c-1.43,1.66-.54,3.67,1.66,3.92a8.88,8.88,0,0,0,2.06-.06,19.48,19.48,0,0,0,2-.47c.08.35.21.58.14.68-.82,1.12-3.52,1.78-5,1.25-2-.72-3-2-2.8-3.9a5.14,5.14,0,0,1,1.16-2.64,9.13,9.13,0,0,1,5.59-2.78,40.19,40.19,0,0,0,6.72-1.64,4.29,4.29,0,0,0,3.1-4.47c-1.86-.65-3.2,1-4.81,1-1.24-1.71-1.21-2,.2-3.24h3.35l.22-.38-2-1.61c.85-1.1,1.59-1.17,2.75.06a26.07,26.07,0,0,1,2.13,3l2.48-1.73v-3.64c-1.83-.31-2.44,1.44-3.91,2.08.48-3,3.22-3.1,4.66-4.69l1.82,1.41c4.86-.1,9.92.2,15.05-.74,6.37,1,12.83-.08,20-.15,1.48.43,14.83.3,16.76-.43C195.83,136.56,197.45,136.26,199.4,135.39ZM176,137.18H158.91c-1.17,2.08,0,4-.25,5.93l.4.06,1.43-2.13L176,140.2Zm-19.14.74c-1.87-.9-12.77-.61-15.27.43l.41,5.8.44,0,1.52-2.31c1.11-.13,2.28-.34,3.45-.38,2.07-.06,4.14,0,6.21-.06a23.75,23.75,0,0,0,3.24-.58Zm36.84,1.46V137c-1.69-.85-14.35-.41-16.35.65.17,1.41.36,2.92.54,4.44h.49l1-2Z"/><path class="cls-1" d="M41.87,146.1l-3.52-1.44-1-1.12,0-.35c-1.93,0-3.86,0-5.79,0a4.22,4.22,0,0,1-3.24-1.14c-1.31-1.24-2.11-1.06-3.67,0a7.66,7.66,0,0,1-2.69,1,38.1,38.1,0,0,1-4.27.58c-.8.07-1.62,0-2.42,0a17.45,17.45,0,0,0-2.79.14l5,1,0,.64a4.93,4.93,0,0,1-1.29.26c-3.43-.21-6.86-.47-10.29-.71-.06,0-.13,0-.19,0a5.64,5.64,0,0,0-5.41.17c-.75-3.43.14-6.4.23-9.16H5.6v-.1a29.49,29.49,0,0,0,3.49.36c4.76,0,9.52-.28,14.28-.21,5.32.07,10.63.42,16,.58a22.48,22.48,0,0,0,3.22-.38c4.87,1.08,9.94.61,14.91.77l1.72-1.25c4.07,2.11,4.39,2.39,4.94,4.74a24,24,0,0,0-1.87-1.54,23.19,23.19,0,0,0-2.15-1.09v3.86l2.32,1.84c.43-.55.79-1.08,1.23-1.54a17.37,17.37,0,0,1,2.26-2.12c.63-.45,1.3-.25,1.65.57l-2.13,1.64.14.37h3.37c1.48,1.17,1.52,1.61.31,3.35l-4.45-1.45a2.72,2.72,0,0,0,1,3.68,27.89,27.89,0,0,0,4.52,2.12,5.38,5.38,0,0,1,1.56.8c-1.71,1.54-3.29.08-4.69-.4s-2.72-1.88-4.18-3c-1.59,1.78-3.65,1.89-5.92,1.33a6.9,6.9,0,0,0-2.79,0,5.72,5.72,0,0,1-5.52-1.47h6l.1-.4c-.2-.17-.38-.45-.6-.48-2.79-.31-5.59-.67-8.39-.84A25.29,25.29,0,0,0,41.87,146.1ZM24,137.22V140c5.38,1.17,10.78.16,15.74,1.24l1.21,2a10.2,10.2,0,0,0,.78-3.37c.15-2.29-.31-2.79-2.64-2.81-4.46,0-8.92,0-13.37,0A16.41,16.41,0,0,0,24,137.22Zm19,3.67a26.39,26.39,0,0,0,3.21.55c1.87.08,3.76,0,5.63,0,2.39,0,4.88-.16,5.79,3l.46-.24.35-6.51-15.1-.45ZM6.4,139.38c4.68.3,9.5.44,14.11.76l1.27,2,.48-.15a10.28,10.28,0,0,0,0-5c-4.89-.19-9.62-.42-14.37-.55C6.33,136.37,6,137.05,6.4,139.38Z"/><path class="cls-1" d="M146.52,163a6,6,0,0,1-6.14,6c-3-.05-6-3-5.92-5.93a6.15,6.15,0,0,1,6.15-6.1A5.94,5.94,0,0,1,146.52,163Z"/><path class="cls-1" d="M21.79,163.61a6.05,6.05,0,0,1,6-6c3.2.05,6.17,2.92,6.14,6s-3.18,6.24-6.22,6.17A6.16,6.16,0,0,1,21.79,163.61Z"/><path class="cls-1" d="M59.56,169a6,6,0,1,1,6-6A6.13,6.13,0,0,1,59.56,169Z"/><path class="cls-1" d="M178.25,163.6c-.1,4.08-3,5.88-5.91,6.1s-6.38-3.13-6.16-6.14a6.15,6.15,0,0,1,6.33-5.91A5.81,5.81,0,0,1,178.25,163.6Z"/><path class="cls-1" d="M138.3,156.26c-2.51.72-3.54,2.76-4.59,4.7h-5.47v-4.67C131.63,155.51,135,156.28,138.3,156.26Z"/><path class="cls-1" d="M61.77,156.31h9.78c.76,2.24.63,2.92-.89,4.7H66.54C65.25,159.17,64.23,157,61.77,156.31Z"/><path class="cls-1" d="M72.9,150.89a8.85,8.85,0,0,1,7.17,2.86,3.55,3.55,0,0,1,.69,4,4.43,4.43,0,0,1-7.69.58c2.79.27,5.5,1.36,7.12-1.53-.91-2.67-2.94-4.07-5.79-4.5a6.72,6.72,0,0,1-1.81-.88Z"/><path class="cls-1" d="M103.37,149.34l-2.29,1c-1.63-3.65-1.17-7.22.9-8.64C103.56,143.16,104,145.2,103.37,149.34Z"/><path class="cls-1" d="M97.2,141.57c2.37,2.59,1.57,5.45,1.33,8.21-1.33.44-1.33.44-2.26-1.05l-.52.46C95,148.44,95.94,143.12,97.2,141.57Z"/><path class="cls-1" d="M105.59,149.63c-1.15-2-.8-6.28,1-8.37.19.43.33.84.52,1.22.94,1.91.67,3.92.39,5.88A1.58,1.58,0,0,1,105.59,149.63Z"/><path class="cls-1" d="M92.53,141.55c1.81,1.8,2.16,6.76.62,8.28l-1.51-.93C91.85,146.45,90.65,143.93,92.53,141.55Z"/><path class="cls-1" d="M109.9,148.05c-1.28-1.29-1.16-4.74.24-6.82C112,142.81,111.89,146.19,109.9,148.05Z"/><path class="cls-1" d="M89,141.07c.93,2.49,1.32,4.66.5,7C87.32,147.24,87,143.38,89,141.07Z"/><path class="cls-1" d="M125.83,113.78c-3.34,1.4-6.13,2.65-9,3.74a4.62,4.62,0,0,1-5.1-1.1c3.08.31,5.5-.93,7.94-2.09,1.87-.89,3.75-1.74,6.26-1.39l5-5.43c-.73-1.47-1.38-2.76-2-4l.28-.27a8.77,8.77,0,0,1,4.39,4.25C132.25,111.09,129.89,114.27,125.83,113.78Z"/><path class="cls-1" d="M72.81,102c-.83.64-1.69,1.23-2.47,1.92-1.82,1.58-2,3.14-.61,5.1s3.22,3.62,6,3.93c1.85.21,3.62,1.32,5.39,2.11a12.48,12.48,0,0,0,6.23,1.35,4.57,4.57,0,0,1-5,1.1c-1.37-.44-2.66-1.09-4-1.56-2.41-.83-4.82-1.67-7.27-2.35-1.86-.52-5.2-3.81-5.3-5.67a3.24,3.24,0,0,1,.71-2c1.61-2,3.85-3.08,6-4.32Z"/></g></svg>