<svg id="ROOMS_LOGOS" data-name="ROOMS LOGOS" xmlns="http://www.w3.org/2000/svg" viewBox="0 0 28.35 22.68"><defs><style>.cls-1{fill:#fff;}</style></defs><title>PIRATES OF CARIBBEAN</title><g id="PIRATES_OF_CARIBBEAN" data-name="PIRATES OF CARIBBEAN"><path class="cls-1" d="M14.63.62c.26,0,.52.07.79.13a3.07,3.07,0,0,1,1.38.67A4.71,4.71,0,0,1,18.32,3.6a10.71,10.71,0,0,1,.38,1.48,3.72,3.72,0,0,1-.31,2.15.71.71,0,0,1-.12.18c-.12.14-.26.12-.34,0a.84.84,0,0,1-.05-.17c0-.17,0-.33,0-.5s0-.59,0-.89a.2.2,0,0,0-.07-.16.16.16,0,0,0-.17,0,.2.2,0,0,0,0,.18,2.92,2.92,0,0,1,.15,1.31.57.57,0,0,0,.38.6l.1.05a.36.36,0,0,1,.27.39,1.27,1.27,0,0,1-.32.85.58.58,0,0,1-.59.18c-.13,0-.26-.08-.39-.12a.56.56,0,0,0-.76.43,1.11,1.11,0,0,1-.2.55,6.29,6.29,0,0,1-.43.47.26.26,0,0,0-.06.33l.09.22c0,.12.07.26,0,.35a.42.42,0,0,1-.43.08.22.22,0,0,1-.1-.17c0-.17,0-.34.06-.52l-.48,0,.12.55c0,.11,0,.16-.13.18l-.18,0c-.26,0-.33-.06-.31-.32a.56.56,0,0,1,.17-.43h-.44l.12.53c0,.12,0,.18-.15.19a1.22,1.22,0,0,1-.33,0,.14.14,0,0,1-.15-.18c0-.18.07-.36.1-.55l-.36,0,0,.11a.61.61,0,0,1,.07.17c0,.14.08.29-.05.4a.45.45,0,0,1-.45,0,.18.18,0,0,1-.15-.21,1.86,1.86,0,0,1,.07-.34,1.36,1.36,0,0,1,.07-.22l-.36-.06.07.48c0,.09,0,.17-.07.21a.3.3,0,0,1-.33,0,.15.15,0,0,1,0-.21c.08-.17.17-.33.27-.5a1.36,1.36,0,0,1-.51-1,1.23,1.23,0,0,0-.08-.33.47.47,0,0,0-.61-.31,3.39,3.39,0,0,0-.53.2.49.49,0,0,1-.61-.13,1.91,1.91,0,0,1-.42-.73c0-.19,0-.28.16-.37a.72.72,0,0,0,.39-.71c0-.32,0-.65-.05-1a3,3,0,0,1,.33-1.56,1.51,1.51,0,0,0,.18-.75,3.43,3.43,0,0,1,.36-1.47s0-.07,0-.11a1.57,1.57,0,0,0-.37.65,6,6,0,0,0-.18.82,3.51,3.51,0,0,1-.25,1A3.81,3.81,0,0,0,10,6.58a8,8,0,0,1,0,.85.25.25,0,0,1-.13.21c-.1.05-.18,0-.24-.12A1,1,0,0,1,9.44,7c0-.69,0-1.38,0-2.07a2.74,2.74,0,0,1,.19-1,4.63,4.63,0,0,0,.27-.82,2.81,2.81,0,0,1,1.44-1.79A5.44,5.44,0,0,1,13.37.67l.42-.05ZM11,6.42h0c0,.2.05.4.08.6a1.22,1.22,0,0,0,.44.83.51.51,0,0,0,.71.06A3.47,3.47,0,0,0,13,7.2.58.58,0,0,0,13.17,7c0-.23.06-.46.07-.7A.48.48,0,0,0,13,5.85a.91.91,0,0,0-.26-.13,2.84,2.84,0,0,0-1.19-.13.59.59,0,0,0-.57.59ZM17,6.51a.66.66,0,0,0-.23-.6,1.26,1.26,0,0,0-.44-.24,1.77,1.77,0,0,0-1.2.09.63.63,0,0,0-.43.83.84.84,0,0,0,.14.32,2.76,2.76,0,0,0,1,.86,1,1,0,0,0,.68.07.44.44,0,0,0,.38-.38C16.93,7.14,17,6.83,17,6.51Zm-2.2,2.43a.61.61,0,0,1,0-.14A4.86,4.86,0,0,0,14,7.14c-.06-.1-.15-.09-.19,0a1.69,1.69,0,0,0-.19.41c-.12.43-.23.87-.33,1.3a.81.81,0,0,0,0,.31c0,.05.07.14.12.15s.13-.05.17-.1A1.79,1.79,0,0,0,13.71,9c.1-.18.18-.18.28,0l.3.49c.09.12.16.13.27,0A.68.68,0,0,0,14.81,8.94Z"/><path class="cls-1" d="M.24,3.88l.1-.12c0,.05.12.09.15.16a16.64,16.64,0,0,0,1.43,2,28.17,28.17,0,0,0,3.86,4.16,31.32,31.32,0,0,0,7.89,5.06,43.82,43.82,0,0,0,5.94,2.23l.37.11a1.81,1.81,0,0,1-.19.25,1.13,1.13,0,0,1-1.07.25l-1.57-.52A36.74,36.74,0,0,1,13.25,16a26.39,26.39,0,0,1-4.4-2.63A20.43,20.43,0,0,1,6.93,11.8l-.13-.11,0,0a1.46,1.46,0,0,0,.17.24c.33.33.64.68,1,1a24.79,24.79,0,0,0,3.94,2.55,29.7,29.7,0,0,0,5.19,2.22c.57.18,1.13.41,1.7.62a.79.79,0,0,1,.54.79v.43l-1.25-.4a41.79,41.79,0,0,1-6.89-2.84,28.57,28.57,0,0,1-5.78-4A20.38,20.38,0,0,1,2,8.56,13,13,0,0,1,.5,5.69c-.11-.31-.16-.64-.24-1a.14.14,0,0,0,0-.06Z"/><path class="cls-1" d="M28.24,4.8c-.08.31-.15.64-.26,1A14.1,14.1,0,0,1,26.12,9a22.68,22.68,0,0,1-3.49,3.64,27.52,27.52,0,0,1-5.41,3.66.29.29,0,0,1-.27,0l-1.21-.44.16-.08a32,32,0,0,0,3.86-2.31,10.25,10.25,0,0,0,1.62-1.39c.09-.11.17-.23.25-.34a.27.27,0,0,0,0-.08l-.09.06A24,24,0,0,1,18,14.43a23.48,23.48,0,0,1-2.34,1.33.22.22,0,0,1-.22,0l-1-.47.18-.08A33.26,33.26,0,0,0,18.82,13,30.33,30.33,0,0,0,25,7.84a34,34,0,0,0,2.8-3.54c.1-.15.19-.31.29-.47s.11-.1.17,0Zm-1,1.55,0,0-.07.11a16.83,16.83,0,0,1-2.54,3.5c-.38.42-.79.82-1.18,1.23l-.08.1,0,0a3.15,3.15,0,0,0,.29-.22A13.09,13.09,0,0,0,25.36,9.3,13.46,13.46,0,0,0,27,7C27.06,6.79,27.15,6.57,27.24,6.35Z"/><path class="cls-1" d="M12.5,12.5c0-.14,0-.27,0-.4a.17.17,0,0,1,.14-.17h0c.49-.06.48.06.43.45,0,.08-.06.17-.09.27l.39,0-.09-.52c0-.11,0-.16.15-.17h.34c.14,0,.19,0,.17.18s-.07.34-.1.51h.33c0-.16,0-.31,0-.47a.16.16,0,0,1,.16-.2h.34c.12,0,.17.1.15.23s-.06.28-.08.42h.35c0-.1-.07-.18-.09-.26s0-.28.18-.39a.46.46,0,0,1,.44,0,.22.22,0,0,1,.05.14.68.68,0,0,1,0,.19,1.54,1.54,0,0,1,0,.17.94.94,0,0,0,.67-.59c.06-.22.08-.46.13-.69s.09-.56.15-.83A2.06,2.06,0,0,1,17,9.6a.56.56,0,0,1,.24-.13c.22-.05.31,0,.27.25-.11.53-.24,1-.35,1.58-.06.33-.1.66-.14,1a.53.53,0,0,1-.16.38,3.08,3.08,0,0,1-.27.25,3.08,3.08,0,0,0-.72.72,1.47,1.47,0,0,0-.1.13.83.83,0,0,1-.88.32A4.55,4.55,0,0,0,13.73,14l-.68.06a.63.63,0,0,1-.56-.22l-.21-.21a4.62,4.62,0,0,0-.95-.87.94.94,0,0,1-.43-1,2.67,2.67,0,0,0-.24-1.57A1,1,0,0,1,10.6,10a.3.3,0,0,1,.17-.34.29.29,0,0,1,.39.05,1.05,1.05,0,0,1,.23.36,6.09,6.09,0,0,1,.42,1.64A.79.79,0,0,0,12.5,12.5Z"/><path class="cls-1" d="M9.17,18.27,9,18.46a.87.87,0,0,0-.24.62,9.39,9.39,0,0,0,.1,1.18,1.27,1.27,0,0,0,.49.77l.07-.14a.49.49,0,0,1,.85-.15,1.13,1.13,0,0,1,.09,1.15.8.8,0,0,1-.56.31,1.39,1.39,0,0,1-1.72-1.08c-.17-.63-.33-1.26-.51-1.89a6.78,6.78,0,0,0-.81-1.75,1.68,1.68,0,0,0-.18-.21c-.12-.11-.18-.09-.24.07a.53.53,0,0,1-.69.37.71.71,0,0,1-.54-.45A1.1,1.1,0,0,1,5,16.59a.88.88,0,0,1,.86-.8,1.66,1.66,0,0,1,1.26.42,3.09,3.09,0,0,1,.79,1c.07.14.15.28.21.42a.89.89,0,0,0,.8.54l.17,0Z"/><path class="cls-1" d="M19,21a1.25,1.25,0,0,0,.44-.56,3.11,3.11,0,0,0,.16-1.54,1.58,1.58,0,0,0-.23-.47c-.07-.14-.08-.15.06-.22l.37-.17a1,1,0,0,0,.41-.42l.32-.61a2.87,2.87,0,0,1,.77-.89,1.57,1.57,0,0,1,1.12-.35.89.89,0,0,1,.9,1,1.7,1.7,0,0,1-.09.5.74.74,0,0,1-.59.47.5.5,0,0,1-.63-.36c-.07-.18-.13-.2-.27-.07a1.39,1.39,0,0,0-.23.31,8.3,8.3,0,0,0-1,2.5c-.08.34-.16.68-.26,1a1.35,1.35,0,0,1-1,1.08,1.66,1.66,0,0,1-.91,0,.64.64,0,0,1-.46-.57,1.53,1.53,0,0,1,.08-.67.57.57,0,0,1,.57-.35.4.4,0,0,1,.35.23Z"/><path class="cls-1" d="M5.5,19.21l-.3-.65a.66.66,0,0,1,0-.15.21.21,0,0,1,.18-.27,2,2,0,0,1,.54,0,.32.32,0,0,1,.24.28,1.28,1.28,0,0,0,.39.6l.13.1,0,0a1.2,1.2,0,0,1-.13-.21,3.68,3.68,0,0,1-.21-.45.23.23,0,0,1,.06-.28.32.32,0,0,1,.35,0,.45.45,0,0,1,.14.1,2.57,2.57,0,0,1,.58,1.34,1.08,1.08,0,0,1,0,.18.24.24,0,0,1-.26.24l-2,0a.85.85,0,0,1-.77-.45,2.43,2.43,0,0,1-.33-1.12c0-.19.08-.29.28-.31a1.31,1.31,0,0,1,.28,0,.41.41,0,0,1,.37.28c0,.11.07.23.11.34A.68.68,0,0,0,5.5,19.21Z"/><path class="cls-1" d="M21.73,19.08a1.11,1.11,0,0,0,.48-.63.4.4,0,0,1,.38-.33,1.53,1.53,0,0,1,.37,0c.17,0,.25.14.2.3s-.18.5-.27.74a.63.63,0,0,0,.28-.28c0-.12.09-.25.13-.37a.57.57,0,0,1,.8-.31.28.28,0,0,1,.14.2,2,2,0,0,1-.57,1.47.64.64,0,0,1-.41.16,14,14,0,0,1-2.15,0,.19.19,0,0,1-.19-.17,1.3,1.3,0,0,1,0-.44,2.67,2.67,0,0,1,.53-1.13.37.37,0,0,1,.38-.15c.15,0,.23.11.2.25s-.15.38-.22.57Z"/><path class="cls-1" d="M9,19.55c0-.25,0-.47.06-.69a.68.68,0,0,1,.43-.5c.33-.14.67-.26,1-.38l2-.73a.28.28,0,0,1,.22,0l1.16.56A50.93,50.93,0,0,1,9,19.55Z"/><path class="cls-1" d="M26.25,19.44a1.34,1.34,0,0,1-.94,1.33A1.22,1.22,0,0,1,24,20.29a1.09,1.09,0,0,1-.11-.27.18.18,0,0,1,0-.1s.07,0,.1,0a.16.16,0,0,1,.07.07.71.71,0,0,0,.78.18l.11-.05c.08-.07.08-.11,0-.16l-.1,0a1,1,0,0,1-.33-1.51,1,1,0,0,1,1.51.24A1.7,1.7,0,0,1,26.25,19.44Z"/><path class="cls-1" d="M2,19.42a6.17,6.17,0,0,1,.16-.65,1,1,0,0,1,1.26-.55.94.94,0,0,1,.54,1,.77.77,0,0,1-.5.65L3.37,20a.74.74,0,0,0-.13.12c0,.05.09.12.14.14a.65.65,0,0,0,.67-.11l.21-.17.1,0s0,.08,0,.12l0,0a1.52,1.52,0,0,1-.89.72,1.15,1.15,0,0,1-1.19-.57A1.83,1.83,0,0,1,2,19.42Z"/><path class="cls-1" d="M8.45,17.48l1.24-.41,1.49-.5a.22.22,0,0,1,.21,0l.92.49h0l-2.55.82A1.62,1.62,0,0,1,9,18,.64.64,0,0,1,8.45,17.48Z"/></g></svg>