<svg id="ROOMS_LOGOS" data-name="ROOMS LOGOS" xmlns="http://www.w3.org/2000/svg" viewBox="0 0 28.35 22.68"><defs><style>.cls-1{fill:#fff;}</style></defs><title>PRISONERS OF WAR</title><g id="PRISONERS_OF_WAR" data-name="PRISONERS OF WAR"><path class="cls-1" d="M18.62,17.94a1.07,1.07,0,0,1-1.53-.19c-.53-.74-1-1.49-1.5-2.27a.4.4,0,0,0-.26-.16,7.66,7.66,0,0,1-2.62-.88c-.08,0-.17-.13-.24,0a.27.27,0,0,0,0,.23c.3.61.62,1.21.92,1.83A4.59,4.59,0,0,0,14.62,18c.38.32.27.74.26,1.14,0,0-.08.09-.13.11a2.35,2.35,0,0,1-.51.17,12.85,12.85,0,0,1-2.38.39,7.57,7.57,0,0,1-1.23-.29c-.08,0-.19-.17-.17-.22s.12-.29.23-.33a3.12,3.12,0,0,1,.75-.15.64.64,0,0,0,.65-.49,1.1,1.1,0,0,1,.15-.26.61.61,0,0,0,0-.79c-.32-.45-.65-.89-1-1.34-.1-.14-.22-.28-.31-.43a.24.24,0,0,0-.28-.11l-.1,0c-.31,0-.31,0-.39-.27a1.24,1.24,0,0,0-.18-.34c-.08-.13-.17-.24-.24-.36L9,13.18a1.16,1.16,0,0,1-.2-.87,1,1,0,0,1,.36-.6c.23-.18.47-.34.71-.52a.58.58,0,0,0-.59-.45c-.74-.05-1.47-.14-2.2-.22a2.4,2.4,0,0,1-.46,0,3,3,0,0,1-.31-.15,1.56,1.56,0,0,0-.37-.1L4.2,10.05A1.61,1.61,0,0,1,3.91,10V9.89l.15-.06.23-.11c.1-.06.19-.12.26,0a.23.23,0,0,0,.17.1c.51,0,1,.08,1.53.1.35,0,.71,0,1.06,0,.7,0,1.41.12,2.11.18l.82.06A.79.79,0,0,0,10,9.62c-.16-.16-.17-.28,0-.44a1.61,1.61,0,0,1,.37-.32.27.27,0,0,0,.13-.31c0-.19-.09-.37-.12-.56s0-.49,0-.74A.43.43,0,0,0,10.18,7c-.29-.25-.6-.47-.91-.69-.14-.1-.29-.16-.19-.38S9,5.72,8.9,5.7a.4.4,0,0,1-.22-.09c-.09-.1-.13-.22,0-.29a1.7,1.7,0,0,0,.22-.15l0-.1a2.26,2.26,0,0,0-.45,0A1.75,1.75,0,0,0,8,5.26c-.21.12-.26.09-.38-.11a1.64,1.64,0,0,0-.44-.47c0-.14,0-.3-.25-.32,0,0-.06-.12-.06-.19s.05-.28.06-.42,0-.23-.21-.23a5.39,5.39,0,0,1-.7,0c-.27,0-.3-.13-.18-.37A3.53,3.53,0,0,0,6,2.66a5.56,5.56,0,0,1,.36-.91A1.75,1.75,0,0,1,8.7,1a2.12,2.12,0,0,1,.91.78,2,2,0,0,1,1-.9.29.29,0,0,1,.14-.38,3.65,3.65,0,0,0,.29-.37A1.94,1.94,0,0,1,11.31,0l.1.32.68.11,1.31.2a.69.69,0,0,1,.59.52.42.42,0,0,0,.28.3l6.06,2.8.19.1a.27.27,0,0,1,.09.38.25.25,0,0,1-.35.07L18.71,4,16.5,2.9l-.3-.14A2.45,2.45,0,0,1,16,4.26a.26.26,0,0,1-.23.08c-.15,0-.28-.15-.42-.21L15,4c0,.23,0,.42-.06.62a.17.17,0,0,0,.06.12.54.54,0,0,1,.29.51c0,.15.08.23.26.24a3.72,3.72,0,0,1,.65.08.21.21,0,0,1,.18.3c0,.12,0,.17.09.23l.82.54a.82.82,0,0,1,.2.17q.12.11,0,.21a1.41,1.41,0,0,0-.27.36,1.09,1.09,0,0,0,.91-.19.26.26,0,0,1,.4,0,2.15,2.15,0,0,0,.24.18c.08.07.19.12.22.2s-.11.15-.15.19c.14.4.3.8.42,1.2a4.17,4.17,0,0,1,.08.71.35.35,0,0,1-.28.36l-.56.13c-.1.33-.21.64-.3,1-.05.16,0,.23.18.23l1.45.09,2.27.13c.08,0,.21.11.21.17a5.92,5.92,0,0,1,0,.94c0,.17-.15.2-.3.16s-.58-.15-.88-.21a.29.29,0,0,0-.22.07,6.78,6.78,0,0,1-2.35,2l0,0a3.7,3.7,0,0,0,.17.4c0,.05.08.08.13.11a1,1,0,0,1,.25.12,2.36,2.36,0,0,0,.69.53c.1,0,.14.22.19.34a3.92,3.92,0,0,0,.16.36c.61.81,1.21,1.62,1.83,2.42a6,6,0,0,0,.88.94,1.68,1.68,0,0,1,.71,1.34,3.12,3.12,0,0,1-.72.45c-.57.15-1,.54-1.55.73a2.61,2.61,0,0,1-1.61.05c-.09,0-.23-.13-.24-.21a.38.38,0,0,1,.16-.3,3.67,3.67,0,0,1,.73-.32.67.67,0,0,0,.46-.57c0-.15.1-.29.13-.44a.65.65,0,0,0-.14-.61C20.07,19.39,19.35,18.67,18.62,17.94Zm-4.46-5.36c-.43.16-.83.34-1.25.46-.18.06-.28.13-.3.32l0,.11-.27.12a1.79,1.79,0,0,0,.12.24.53.53,0,0,0,.13.13A8,8,0,0,0,15,15.06c.11,0,.24,0,.39.07Zm6.5,0-.52-.13-1.53-.26c-.18,0-.27,0-.26.24,0,.49,0,1,0,1.49v.77A6.35,6.35,0,0,0,20.66,12.58Z"/></g></svg>
