<svg id="ROOMS_LOGOS" data-name="ROOMS LOGOS" xmlns="http://www.w3.org/2000/svg" viewBox="0 0 28.35 22.68"><defs><style>.cls-1{fill:#fff;}</style></defs><title>REACTOR</title><g id="ABANDONED_REACTOR" data-name="ABANDONED REACTOR"><path class="cls-1" d="M17.9,10.44A3.93,3.93,0,0,0,16.06,7.3L20.24.05c3.07,1,6.5,6.9,6,10.39Z"/><path class="cls-1" d="M2,10.44A11.88,11.88,0,0,1,8.07,0l4.2,7.26a4,4,0,0,0-1.84,3.15Z"/><path class="cls-1" d="M20.19,21a12,12,0,0,1-12,0c0-.08.07-.17.12-.26,1.27-2.21,2.56-4.42,3.82-6.64.18-.31.33-.38.66-.23a3.46,3.46,0,0,0,2.85,0c.22-.09.38-.17.54.11C17.48,16.34,18.83,18.67,20.19,21Z"/><path class="cls-1" d="M16.54,10.53a2.38,2.38,0,1,1-2.36-2.41A2.33,2.33,0,0,1,16.54,10.53Z"/></g></svg>