<svg id="ROOMS_LOGOS" data-name="ROOMS LOGOS" xmlns="http://www.w3.org/2000/svg" viewBox="0 0 28.35 22.68"><defs><style>.cls-1{fill:#fff;}</style></defs><title>SAW</title><g id="SAW"><path class="cls-1" d="M4.32,22.88c-.1-.45-.21-.89-.32-1.33s-.17-.66-.24-1a1,1,0,0,1,0-.34,2.44,2.44,0,0,1,.4-1.11.74.74,0,0,0,.1-.44,5.44,5.44,0,0,1,.1-1.06,9,9,0,0,1,.33-1.12,3.53,3.53,0,0,1,.25-.56c.14-.29.3-.56.43-.86s.09-.39.16-.59c.39-1,.79-2.09,1.25-3.1a13,13,0,0,0,.5-1.49c0-.13.06-.27.09-.41l-.22-.06c0-.12,0-.16-.12-.21A1.18,1.18,0,0,1,6.78,9a.33.33,0,0,1,0-.41.69.69,0,0,0,.12-.32l-.1.18a.63.63,0,0,1,.36-.74l0,.14h0l.64-.82c-.12-.2-.26-.43-.41-.66l-.61-.95c-.08-.13-.13-.28-.22-.4a3.39,3.39,0,0,0-.4-.45A1.67,1.67,0,0,1,5.71,4a1.1,1.1,0,0,0-.27-.38A3.85,3.85,0,0,1,4.88,3a4.89,4.89,0,0,0-.58-.62.21.21,0,0,1,0-.35l-.11-.12a.18.18,0,0,1,.08-.31.5.5,0,0,1,.51.11l.62.54.06,0,0,0c0-.06-.09-.13-.14-.2s-.11-.13,0-.2.17-.11.23-.09a.93.93,0,0,1,.38.2A7.34,7.34,0,0,1,6.91,3c.14.22.33.41.49.62l.28.33c.05.06.13.11.16.17a1,1,0,0,0,.66.48l.22.09c.19.07.3,0,.32-.2a5.22,5.22,0,0,1,.11-.69.47.47,0,0,1,.45-.36c.22,0,.38.1.38.32s-.05.67-.08,1-.05.42,0,.62a2.26,2.26,0,0,0,.11.43A2.23,2.23,0,0,1,10,6.88a8.13,8.13,0,0,0-.14,1c0,.11-.07.24,0,.32s.17.12.27.16l.28.13s.05,0,.05,0c.06.17.24.15.37.21s.22.14.16.31-.2.58-.31.88a.82.82,0,0,1-.11.17c-.06.07,0,.15,0,.16a.61.61,0,0,1,.5.4.38.38,0,0,0,.11.11c.07.06.14.12.23,0s.08,0,.13,0a.9.9,0,0,0-.36-.6.58.58,0,0,1,.44.62.12.12,0,0,0,0,.08c.13.16.25.33.39.48s.24.19.36.29a2.72,2.72,0,0,0,.54.47,1.53,1.53,0,0,0,.32.13,1.23,1.23,0,0,1,.69.3c.07.07.24.06.36.08a.38.38,0,0,0,.23,0,1.21,1.21,0,0,1,.77-.08.26.26,0,0,0,.15,0l.31-.1s.08,0,.1-.06a1.28,1.28,0,0,1,.71-.47.21.21,0,0,0,.1-.06l.22-.2a.24.24,0,0,0,.12-.28c-.05-.21.17-.48.42-.58l.14,0c0-.52.13-.7.61-.73l-.12-.38.66-.48,0,0c.22,0,.15-.15.12-.28a12.25,12.25,0,0,0-.55-2,.37.37,0,0,0-.1-.17,1.39,1.39,0,0,1-.39-.71c-.11-.41-.21-.83-.33-1.23s-.24-.68-.38-1a2.43,2.43,0,0,0-.24-.32.35.35,0,0,1-.06-.22.27.27,0,0,1,.24-.21.88.88,0,0,1,.83.34c.15.21.26.45.4.67a1.3,1.3,0,0,0,.18.23.24.24,0,0,0,.28,0c.19-.07.4-.12.59-.18s.1,0,.11,0a1.61,1.61,0,0,0,.17-.54,8.39,8.39,0,0,1,.12-1.81A5.93,5.93,0,0,1,20,.89a.4.4,0,0,1,.28-.31c.19,0,.29,0,.29.22l.06,1.55a3.08,3.08,0,0,0,.07.35.48.48,0,0,1,.06-.11c.19-.38.3-.8.46-1.19a10.46,10.46,0,0,1,.51-1,.38.38,0,0,1,.5-.19,1,1,0,0,1,.21.17c.19,0,.3,0,.36.14a.22.22,0,0,1,0,.14c-.06.16-.14.3-.19.46s-.13.38-.19.57l-.25.79L22,2.87a3.79,3.79,0,0,1-.18.42c-.13.26-.27.52-.41.77V4a1.85,1.85,0,0,1-.32.93h.05a.34.34,0,0,1,0,.14c-.1.36-.19.72-.32,1.06a2,2,0,0,0-.08,1.32c0,.15.08.31.13.45S21,8,21,8a.52.52,0,0,1,.51.23c.08.16.17.29.37.25s.2.1.25.17a.79.79,0,0,1,.22.59c0,.13,0,.13-.16.21l-.06-.1a2.24,2.24,0,0,0,.1.41c0,.11,0,.15-.09.2a2.85,2.85,0,0,1-.3.16c-.13,0-.09.11-.06.19.17.42.35.83.51,1.25s.19.57.3.85.29.75.43,1.13c0,.08.06.16.1.24.23.52.49,1,.71,1.55a4,4,0,0,1,.24.81c.12.65.21,1.3.3,2,0,.31.06.62.1.92a.47.47,0,0,0,0,.17,1.36,1.36,0,0,1-.07,1.1c-.07.15-.16.29-.24.43a.16.16,0,0,0,0,.09c0,.31,0,.63,0,.94a3.89,3.89,0,0,1-.07,1.13H19.44c0-.07,0-.13.08-.19s.06-.16.07-.23,0-.22,0-.32c0-.43.08-.86.1-1.28a7.27,7.27,0,0,0,.13-1.39s0-.11,0-.13.08-.3.1-.45,0-.18,0-.27,0-.34,0-.5a2.58,2.58,0,0,0-.1-.38l0,.1c-.08-.19-.13-.35-.2-.51a1.14,1.14,0,0,1,0-.94c.14-.35.3-.69.45-1a.28.28,0,0,0,0-.18c-.06-.31-.13-.63-.17-.95-.1-.82-.18-1.64-.27-2.47,0-.18-.07-.36-.1-.54a2.42,2.42,0,0,0-.35.11.2.2,0,0,1-.27-.05.74.74,0,0,1-.13-.21.85.85,0,0,1-.06-.22.81.81,0,0,1-.7.23.65.65,0,0,1-.52.51.58.58,0,0,0-.37.19l-.24.21-.07.09c-.06.07-.1.17-.17.22s-.4.35-.69.19c-.18.11-.44,0-.55.29a.21.21,0,0,1-.13.09l-.58.05a.13.13,0,0,1-.12,0c-.14-.2-.36-.15-.54-.18s-.09,0-.13,0a.89.89,0,0,1-.28,0,3.39,3.39,0,0,1-.41-.15.38.38,0,0,1-.14-.11,1.15,1.15,0,0,0-.57-.41,2,2,0,0,1-.63-.48c-.26-.24-.41-.57-.72-.78a1.79,1.79,0,0,1-.34-.43,1.58,1.58,0,0,1-.31-.09c-.09,0-.13,0-.18.05s-.12.21-.19.21a1.57,1.57,0,0,1-.48-.09,1.23,1.23,0,0,1-.23-.09,1.72,1.72,0,0,0-.12.21,1.27,1.27,0,0,0-.06.28,1.27,1.27,0,0,1,0,.2c0,.46-.11.92-.15,1.39S9.07,13.5,9,14s-.1,1-.18,1.56a.37.37,0,0,0,.08.32,4.19,4.19,0,0,1,.79,1.56.71.71,0,0,1-.09.6,1.37,1.37,0,0,0-.21.46c0,.13-.07.27-.12.43l-.08-.1v.26a3.08,3.08,0,0,0,0,.53A4.56,4.56,0,0,1,9.31,21a2.18,2.18,0,0,0,0,.88,1.2,1.2,0,0,1,.05.38c0,.2,0,.39,0,.59Zm14.15-12-.26-.6a2.81,2.81,0,0,1-.08-.29c-.07,0-.17.07-.26.13a.35.35,0,0,0,0,.58c.05,0,.07.09.12.13a.36.36,0,0,0,.18.1A1.25,1.25,0,0,0,18.47,10.92Zm-.53.12-.23-.24a.12.12,0,0,0-.08,0,.58.58,0,0,0-.47.63c.09,0,.18,0,.2.09a.17.17,0,0,0,.13,0A.63.63,0,0,0,17.94,11Zm-2.7,1.47-.6.07.08.12-.11.1a1.48,1.48,0,0,0,.68-.06ZM16.55,12l-.47.28.08.23.53-.31Zm-3.33.53a1.69,1.69,0,0,0,.55.18l0-.21-.51-.18ZM12,11.58l.4.36.12-.16-.39-.34Zm0-.27-.33-.38s-.08,0-.12,0,0,.08,0,.11.2.25.3.37Zm4.79.57,0,0,.41-.36,0-.05Z"/><path class="cls-1" d="M18.5,22.88h-8l-.32-.76-.1.06L9.94,22c-.08-.25-.17-.5-.25-.74h0v0H9.62a4.4,4.4,0,0,1,.14-1.84l0,0c0-.05-.06-.09-.06-.14s0-.13,0-.14.08-.1.07-.15a.88.88,0,0,1,.11-.57,8.73,8.73,0,0,0,.49-1.08,2.55,2.55,0,0,1,.37-.62,3.75,3.75,0,0,1,.77-.77,1.79,1.79,0,0,0,.47-.48,1.29,1.29,0,0,1,.58-.53l.54-.25.49-.23a1.3,1.3,0,0,1,.89,0,1.42,1.42,0,0,1,.2,0l.47.29c.14.08.32.1.36.32s.16.14.25.21l0-.05.09.15c.21-.14.06-.34.1-.55l.09.46a1.65,1.65,0,0,1,.93-.12,1.16,1.16,0,0,1,.83.55c.07.12.15.24.23.36l.54.76a.36.36,0,0,1,0,.09.76.76,0,0,0,.06.16c0,.05.08.08.1.12s.06.22.1.32.2.46.29.69a3.39,3.39,0,0,1,.17.48c0,.16,0,.34,0,.51a4.51,4.51,0,0,1,.07.53,1.25,1.25,0,0,1-.07.47c-.13.3-.3.58-.46.87v0c-.09.14-.17.29-.27.43s0,.41,0,.61l.08,0c-.19.09-.2.19,0,.39Zm-.87-7.11a.26.26,0,0,1,0-.07,1.35,1.35,0,0,0-.75-.38c-.22,0-.59.07-.64.27a2.64,2.64,0,0,0,.69,0,.55.55,0,0,1,.53.11A.75.75,0,0,0,17.63,15.77Z"/><path class="cls-1" d="M11.21,9.93c-.06-.18,0-.41-.21-.53A.36.36,0,0,1,11.21,9.93Z"/></g></svg>