<svg id="ROOMS_LOGOS" data-name="ROOMS LOGOS" xmlns="http://www.w3.org/2000/svg" viewBox="0 0 28.35 22.68"><defs><style>.cls-1{fill:#fff;}</style></defs><title>SPACE WARS</title><g id="SPACEWARS"><path class="cls-1" d="M14.19.35a.81.81,0,0,1,.7.48l2.59,4.61c.29.52.57,1,.87,1.54a.32.32,0,0,1,0,.37c-.64,1.08-1.27,2.17-1.91,3.24a1.39,1.39,0,0,0-.19.74v8.1a.37.37,0,0,1-.16.33c-.35.24-.69.51-1,.76a.26.26,0,0,0-.13.24c0,.37,0,.74,0,1.1a.77.77,0,1,1-1.53,0c0-.35,0-.7,0-1.05a.37.37,0,0,0-.17-.33l-1-.74a.3.3,0,0,1-.14-.28q0-4.07,0-8.13a1.38,1.38,0,0,0-.21-.74C11.26,9.5,10.62,8.4,10,7.31A.24.24,0,0,1,10,7Q11.73,3.93,13.46.82A.82.82,0,0,1,14.19.35Zm0,4.87A3,3,0,0,0,12,6.33a.74.74,0,0,0,.42,1.18.81.81,0,0,0,.79-.25,1.37,1.37,0,0,1,1.12-.48,1.55,1.55,0,0,1,.89.51.75.75,0,0,0,1.07,0,.74.74,0,0,0,.07-1A3,3,0,0,0,14.16,5.22Z"/><path class="cls-1" d="M22.39,14.1V12.15a.77.77,0,1,1,1.53,0c0,1.63,0,3.27,0,4.9a1,1,0,0,1-.14.48c-.41.7-.86,1.38-1.27,2.08a.93.93,0,0,1-1.08.53c-1.2-.2-2.41-.37-3.62-.56a1.34,1.34,0,0,1,0-.2V11.51a.55.55,0,0,1,.05-.26c.47-.81.94-1.62,1.42-2.42a.46.46,0,0,1,.07-.1l3,5.38Z"/><path class="cls-1" d="M6,14.11,9,8.72l.45.77c.34.57.68,1.15,1,1.73a.55.55,0,0,1,.07.25q0,4,0,8s0,.08,0,.14l-1.23.19-2.5.38A.78.78,0,0,1,6,19.79C5.48,19,5,18.28,4.55,17.51a.89.89,0,0,1-.12-.39v-5a.77.77,0,0,1,1.5-.21,1.66,1.66,0,0,1,0,.32v1.84Z"/></g></svg>