<svg id="ROOMS_LOGOS" data-name="ROOMS LOGOS" xmlns="http://www.w3.org/2000/svg" viewBox="0 0 28.35 22.68"><defs><style>.cls-1{fill:#fff;}</style></defs><title>TOP SECRET</title><g id="MISSION_IMPOSSIBLE" data-name="MISSION IMPOSSIBLE"><path class="cls-1" d="M18.56,6.56c.18.25.36.51.56.74a.65.65,0,0,0,.28.12c.31.11.38.22.23.51a1.42,1.42,0,0,0-.15.78,2.73,2.73,0,0,1-.74,2.12.18.18,0,0,0,0,.17s.1,0,.18.06a7,7,0,0,1-.13.73.25.25,0,0,0,.17.34,1.56,1.56,0,0,1,.28.16c.23.13.25.29.15.53a1.49,1.49,0,0,0-.06.43c0,.16,0,.28-.26.19s-.36-.06-.43.21a4.1,4.1,0,0,1-.14.53c0,.1-.15.24-.24.24s-.24.12-.3.26a.56.56,0,0,1-.53.42l.37-1.52-.06,0-.59,1.64s.15.07.17.13-.05.17-.11.22-.36.28-.53.41c-.26-.2,0-.6-.38-.76v.52a4.94,4.94,0,0,1-.55-.2c-.06,0-.09-.15-.1-.23,0-.29,0-.58,0-.87s.08-.42.44-.36a.71.71,0,0,0-.39-.56.75.75,0,0,0-.55.8,7.85,7.85,0,0,0,0,.84c0,.16,0,.23-.2.26-.53.08-1.06.18-1.6.28,0,0-.06.05-.09.08a1.74,1.74,0,0,1-.26.15c-.22.09-.44.16-.67.23l-.51.15-.24.42,2-.71-.1-.16a3.89,3.89,0,0,1,2.77,0l-.3.08c.3.08.57.13.84.21s.53.19.82.3c-.15-.23-.3-.4-.58-.35a.71.71,0,0,1,.7-.38l-.14.32a.57.57,0,0,1,.57.49c0,.07-.07.17-.13.31.17.33.56.63.55,1.18l-.25-.15c-.26-.14-.51-.3-.77-.43s-.23-.19-.05-.33.22-.23,0-.36l-1.15-.52a.26.26,0,0,0-.23.06,1.88,1.88,0,0,0-.18.5c0,.19.08.29.27.32s.41,0,.62.09.34,0,.4.24c0,0,.1.07.15.09l.74.31a1.06,1.06,0,0,1,.61,1.26L18.44,19c-.29-.17-.58-.35-.87-.5s-.24-.16-.22-.33c0-.37-.09-.55-.53-.66l-.63-.13c-.17,0-.21,0-.19.18a.73.73,0,0,1-.11.62c.28,0,.56.07.84.09a.91.91,0,0,1,.78.39l-.69-.12a3,3,0,0,0-1.38-.17v.07l1.39.09a.24.24,0,0,1,.08.06c.05.05.09.11.14.17a.91.91,0,0,1-.23,0,.73.73,0,0,1-.2-.05c-.36-.11-.45-.06-.43.32a2.53,2.53,0,0,0,.14.59l0,.19c-.37,0-.71-.07-1-.12a5.59,5.59,0,0,0-2.51.15,11.63,11.63,0,0,0-1.61.74l0,.07.35-.14a13.72,13.72,0,0,1,1.53-.39,7.28,7.28,0,0,1,1.12.1,8.53,8.53,0,0,0,.85-.1c.07,0,.16,0,.22,0s.37,0,.56.05c.36,0,.71.06,1.07.1.2,0,.39,0,.6.06l-.42-.23.26-.21-.26-.18a.3.3,0,0,1-.16-.4,2.2,2.2,0,0,0,.12-.44.22.22,0,0,1,.29-.21,2.85,2.85,0,0,1,1.37.7.8.8,0,0,1,.13.22.2.2,0,0,1,0,.12c-.23,0-.11.21-.1.32a2.48,2.48,0,0,0,0,.27c0,.2,0,.36-.32.34.1.09.18.12.21.19a.42.42,0,0,1,.06.26c0,.05-.13.1-.2.1-.24,0-.51-.05-.7.2.18.15.53.11.5.51-.18.1-.4.22-.63.32a.22.22,0,0,1-.19-.1c0-.18-.14-.21-.29-.2l-.74.07V22c.26,0,.52,0,.78.07.07,0,.12.08.18.12s-.13.12-.19.12q-.67,0-1.35-.09c-.1,0-.26,0-.15-.23s0-.22-.1-.27a4.15,4.15,0,0,0-.6-.29s-.08.05-.14.09c.19.05.37.07.53.13s.19.13.19.2-.1.16-.17.25c-.18-.3-.22-.3-.39-.06a.22.22,0,0,1-.38,0c-.1-.14-.23-.14-.4-.11l.39.22-.31.09a.39.39,0,0,1-.41.39c-.74-.11-1.48-.22-2.21-.37a1.45,1.45,0,0,1-1-.63.88.88,0,0,1-.12-.82,1.18,1.18,0,0,0,0-.56l0,.51-.08,0c-.21-.22-.44-.42-.62-.65s-.44-.63-.65-.95c-.09-.13-.06-.23,0-.4s.47-.55.39-1a.32.32,0,0,1,.14-.28,1.19,1.19,0,0,1,.42,0s0,.08,0,.12a.53.53,0,0,1-.06.1c-.42.55-.38.34,0,.89.12.16.26.31.39.46l.41-.29c-.17-.4-.15-.77.26-.95l-.13-.62-.23.2c-.46-.36-.49-.55-.11-.84-.18-.43,0-.73.36-.79l-.06-.2a1.24,1.24,0,0,1,.27-.22.34.34,0,0,1,.26,0c.14.11.27.24.44.38L12,15.18l.06,0L11.78,15l0,.47-.05,0-.5-.45,0,.31a1.73,1.73,0,0,1-.64-.55.88.88,0,0,0-.37-.37A.93.93,0,0,1,9.94,14a1.56,1.56,0,0,0-.48-.6A2.37,2.37,0,0,1,9.12,13a.48.48,0,0,1,0-.6A3.68,3.68,0,0,0,9.36,12a1.12,1.12,0,0,1,.17-.21l.06,0c-.07-.46-.15-.91-.21-1.37-.08-.62-.15-1.24-.2-1.86,0-.18-.12-.19-.24-.2a1.39,1.39,0,0,1-1.06-.73A.61.61,0,0,1,8,6.78a.6.6,0,0,1,.42,0c.26,0,.52.13.78.18a1.46,1.46,0,0,0,.4,0v.19a2.48,2.48,0,0,1,.89-1.32A3,3,0,0,1,12,5.07c.51,0,1-.29,1.49,0l.15-1.2h0l.53,0C14.07,4,14,4,14,4.08a.45.45,0,0,0,.05.68s.11.18.09.21a.51.51,0,0,1-.25.16.75.75,0,0,1-.26,0l0,.07c.05,0,.09.06.13.06h.37c.22,0,.45,0,.67,0a.41.41,0,0,1,.45.31c-.44,0-.84,0-1.24,0a1.19,1.19,0,0,1-.34-.13,2.21,2.21,0,0,1-.27-.12v0l.51.44h1.19c.16,0,.25-.08.24-.24s-.05-.39-.07-.58h0a5.16,5.16,0,0,1,2.2.37v.08l-.16,0-.69-.08c-.23,0-.55.32-.49.54,0,0,0,.07.08.1l.2.17a2.45,2.45,0,0,1,2,.17Zm-5.48,2.1c0-.13-.07-.38-.12-.64a.76.76,0,0,0-.09-.18c-.19-.25-.4-.48-.57-.74s-.37-.4-.74-.14a1,1,0,0,1-.37.2.68.68,0,0,0-.59.54c-.14.51-.27,1-.4,1.54a.93.93,0,0,0,0,.23c0,.2,0,.41,0,.61a.25.25,0,0,0,.08.15,1.67,1.67,0,0,0,1.72.34c.06,0,.14-.08.19-.06s.25-.06.34-.16A2.51,2.51,0,0,0,13.08,8.66Zm5.43.59A3.58,3.58,0,0,0,18,7.58a1,1,0,0,0-1.48-.32,3.21,3.21,0,0,0-.3.21.68.68,0,0,0-.23.28,2,2,0,0,0,.2,1.85,1.35,1.35,0,0,0,1.74.76.45.45,0,0,0,.39-.34C18.42,9.77,18.46,9.51,18.51,9.25Zm-4.21-3a3,3,0,0,0-1.77,0,1.76,1.76,0,0,1,.71.79H13l.54,1.32L13.61,8h.07l.2.72s.06,0,.06-.05c.05-.27.37-.15.48-.34a.7.7,0,0,1,.16.09.49.49,0,0,1,.08.18l.18-.4c.29.7.2,1.47.68,2.07A2.86,2.86,0,0,1,15.24,9l.21.18V8l-.24.13a1.89,1.89,0,0,0,.09-.21,2.82,2.82,0,0,0,.07-.31,1,1,0,0,1,.07-.34c.14-.23.3-.44.45-.66l.16-.17a5.3,5.3,0,0,1-1.19,0c-.37-.08-.78.13-1.13-.1V6.29ZM15,10.59l-.07,0,.06.24a2.4,2.4,0,0,1,.14.62.46.46,0,0,0,.3.51.89.89,0,0,1,.21.22l-.29.07s0,0,0,0l.24.25a7,7,0,0,0-1,0,2.09,2.09,0,0,0-1.36.55.81.81,0,0,1-.34.21.35.35,0,0,0-.32.32c0,.15-.08.3-.11.45a1,1,0,0,0,.12.85,2.43,2.43,0,0,1,1.44-2,2.11,2.11,0,0,1,2.37.6c0-.47-.45-.63-.59-1,.49.15.59.61.9.87a2,2,0,0,0-.08-.26,4.44,4.44,0,0,1-.24-.49c-.09-.27,0-.36.25-.41a.73.73,0,0,0,.51-.29c-.25,0-.5-.07-.75-.12s-.19.05-.19.16,0,.34,0,.53a.41.41,0,0,1-.37-.37,1.65,1.65,0,0,0-.1-.51C15.44,11.28,15.2,10.94,15,10.59Zm-3,.91c-.8.21-1.35-.27-2-.68A1.39,1.39,0,0,0,12,11.5Zm1.82,6.62h1.5C15.12,17.88,14.05,17.92,13.8,18.12Zm1.16.25h-1.1C14,18.61,14.63,18.59,15,18.37Zm-1.32-6.86h0l-.4,1.24c.11-.05.24-.13.26-.23C13.54,12.18,13.58,11.84,13.64,11.51Zm1.76,1.75a1.17,1.17,0,0,0-1.26-.16,4.64,4.64,0,0,1,.64,0A3.67,3.67,0,0,1,15.4,13.26Zm2.41-1.63v-.06l-.74-.05.38.26Zm-7,1.94.07,0-.49-.88-.08,0ZM16.14,11l-.05.06.66.4,0-.05Z"/><path class="cls-1" d="M13.63,3.9a1,1,0,0,1-.09-.21c0-.21,0-.41,0-.61l-.46,0,0-.2c0-.06,0-.12.07-.19a1.8,1.8,0,0,0-.5-.05.8.8,0,0,0-.56.78v0c-.2.33-.39.66-.59,1,0,0-.09,0-.16,0l.11-.39a.85.85,0,0,0-.31.83.28.28,0,0,1-.12.33A2.81,2.81,0,0,0,10,6.13l-.09,0a6,6,0,0,1,1.63-3.51,1,1,0,0,1,.37-.23c.32-.13.65-.23,1-.35a1.19,1.19,0,0,1,1,.06,2.13,2.13,0,0,0,.63.09l.72.07V2.16c-.37-.24-.76-.08-1.14-.09-.2,0-.32-.06-.36-.25-.09-.43-.19-.85-.25-1.28a.3.3,0,0,1,.17-.23c.3-.11.62-.2.94-.3A.32.32,0,0,1,14.9.2a.29.29,0,0,1,0,.24s-.13,0-.2,0a.93.93,0,0,0-.92.32l0,.09c.09.07.17.15.27.22a.2.2,0,0,0,.15,0c.49-.24.8-.11.94.42l.11.44a1.81,1.81,0,0,1,.41,0c.27.07.53.17.81.24a3.75,3.75,0,0,1,1.25.94,1.32,1.32,0,0,1,.45.68.78.78,0,0,0,.16.24,1.48,1.48,0,0,1,.36.85c0,.48.12,1,.18,1.42l-.06,0c-.27-.3-.55-.58-.79-.89A.79.79,0,0,1,17.84,5a1.08,1.08,0,0,0-.42-.92c-.19-.17-.35-.33-.3-.62A.27.27,0,0,0,17,3.23a4.37,4.37,0,0,0-.69-.53,1.76,1.76,0,0,0-.58-.11l0,.21-.5-.34s-.07.09-.07.15a7.49,7.49,0,0,1,0,1.16c0,.42.14.82.06,1.23h0a1.28,1.28,0,0,1-.14-.21c-.11-.32-.21-.65-.31-1l-.43-.08.22-.18c.17-.12.16-.26.05-.42l-.36-.58s0,0,0,0c-.38,0-.41,0-.45.36s0,.49-.07.73a.82.82,0,0,1-.1.24Z"/><path class="cls-1" d="M17,4.78l-.24-.91.06,0c.34.45.86.77,1,1.44a4.22,4.22,0,0,1-1.52-.41c-.06,0-.11-.21-.09-.22s.21-.16.3-.13A2.78,2.78,0,0,1,17,4.78Z"/><path class="cls-1" d="M12.41,3.75c-.16.31-.38.62-.05,1l-1,.35c.23-.4.45-.79.69-1.17a1,1,0,0,1,.29-.23Z"/><path class="cls-1" d="M16.25,22.5c-.14.24-.28.19-.43.13a.42.42,0,0,0-.27,0,7.64,7.64,0,0,1-1.07,0s-.08-.08-.07-.09.1-.14.15-.15c.24,0,.47,0,.7,0,0,0,.09,0,.11,0C15.7,22.13,15.93,22.47,16.25,22.5Z"/><path class="cls-1" d="M18.56,6.56l-.22-.18-.77-.72c.37,0,.76.26,1.12.88Z"/><path class="cls-1" d="M13.8,18.12c.25-.2,1.32-.24,1.5,0Z"/><path class="cls-1" d="M15,18.37c-.33.22-.93.24-1.1,0Z"/><path class="cls-1" d="M16.82,18.5l-1.39-.09v-.07a3,3,0,0,1,1.38.17Z"/><path class="cls-1" d="M16.14,11l.65.41,0,.05-.66-.4Z"/><path class="cls-1" d="M14.4,4.86a2.13,2.13,0,0,1,.4-.2.24.24,0,0,1,.2,0,.22.22,0,0,1,0,.17C14.8,5.15,14.63,5.14,14.4,4.86Z"/><path class="cls-1" d="M14.54,4.31h-.31l0-.06c.06,0,.11-.15.16-.15s.16.09.23.13Z"/></g></svg>