<svg id="ROOMS_LOGOS" data-name="ROOMS LOGOS" xmlns="http://www.w3.org/2000/svg" viewBox="0 0 28.35 22.68"><defs><style>.cls-1{fill:#fff;}</style></defs><title>TUTANKHAMUN&amp;apos;S TOMB</title><g id="TUTAKNHAMUNS_TOMB" data-name="TUTAKNHAMUNS TOMB"><path class="cls-1" d="M9.91,6.18l-.43.09.43.55a1.78,1.78,0,0,1,.59-1.49c-.25-.15-.1-.29,0-.43a4,4,0,0,1,1.4-1.3,2,2,0,0,1,1.53-.14c.07,0,.18.09.19.15.06.31.09.63.13.95H13.7l-.15-.19-.39.39a3.86,3.86,0,0,0-.07-.38A.88.88,0,0,0,12,3.83a2.29,2.29,0,0,0-1.29,1c-.06.09-.18.21,0,.33a.66.66,0,0,0,.21-.21,1.48,1.48,0,0,1,1.39-.87.86.86,0,0,1,.64.33.27.27,0,0,1-.16.47c-.38.08-.77.12-1.15.17l-.26,0c-.26,0-.52.09-.51.47-.26-.12-.37.06-.47.22a.93.93,0,0,0-.18.8.33.33,0,0,0,.18.2,1.35,1.35,0,0,0,1.36-.27c.14-.13.24-.1.29.09s0,.2.06.33a1.57,1.57,0,0,0,.31-.18,3.17,3.17,0,0,1,2.69-.44.46.46,0,0,1,.18.1l1.09.73a4.81,4.81,0,0,1,.06-.48c.05-.26.15-.3.32-.11a1.46,1.46,0,0,0,1.39.21.24.24,0,0,0,.12-.17,1.12,1.12,0,0,0-.36-1,.75.75,0,0,0-.28,0c0-.36-.28-.39-.54-.43L15.9,4.91h-.08c-.15-.05-.35,0-.38-.24s.11-.32.24-.43A1.14,1.14,0,0,1,17,4.31a4.78,4.78,0,0,1,.52.58c.05.07.07.15.12.21s.09.06.12,0a.11.11,0,0,0,0-.11.82.82,0,0,0-.1-.26,2.33,2.33,0,0,0-1.25-.93.88.88,0,0,0-1.15.7c0,.06,0,.11,0,.23L14.9,4.4l-.17.23v-.4c0-.17,0-.33,0-.5A.3.3,0,0,1,15,3.45a2.1,2.1,0,0,1,2,.49,10.67,10.67,0,0,1,.91,1c.12.13.19.27,0,.4a1.92,1.92,0,0,1,.56,1.52l.41-.51c-.09-.17-.14-.19-.38-.1-.06-.27-.13-.52-.18-.78a2.3,2.3,0,0,1,0-1.22,1.94,1.94,0,0,1,.34-.52c.1-.13.22-.12.33,0,.24.33.49.66.75,1a.81.81,0,0,0,.31.24.89.89,0,0,1,.48.68.46.46,0,0,0,.23.34,1.18,1.18,0,0,1,.51.75.58.58,0,0,0,.28.36,1,1,0,0,1,.47.72.42.42,0,0,0,.2.27,1.09,1.09,0,0,1,.47.71.44.44,0,0,0,.16.22,1,1,0,0,1,.47.68.46.46,0,0,0,.24.34,1.34,1.34,0,0,1,.56,1c0,.06,0,.14.06.16a1.39,1.39,0,0,1,.67,1,1.1,1.1,0,0,0,.27.51,1.78,1.78,0,0,1,.4,1.16s-.07.12-.12.15a8.23,8.23,0,0,0-2.13,1.81,4.06,4.06,0,0,0-1,2.35.37.37,0,0,1-.2.24c-.32.12-.66.2-1,.3a.78.78,0,0,0-.32.15c-1.48,1.25-2.95,2.51-4.44,3.76a.53.53,0,0,1-.32.12H12.54a.48.48,0,0,1-.29-.1L7.68,18.83a1.17,1.17,0,0,0-.55-.21l-.86-.26A.33.33,0,0,1,6.05,18a4.17,4.17,0,0,0-1.3-2.66,7.8,7.8,0,0,0-1.87-1.46.18.18,0,0,1-.1-.24,1.92,1.92,0,0,1,.6-1.05.49.49,0,0,0,.11-.2,1.64,1.64,0,0,1,.53-1,.27.27,0,0,0,.08-.16,1.49,1.49,0,0,1,.62-1,.23.23,0,0,0,.1-.15,1.44,1.44,0,0,1,.57-.94A.42.42,0,0,0,5.52,9a1.34,1.34,0,0,1,.63-.87A.19.19,0,0,0,6.24,8,2,2,0,0,1,6.87,7a.64.64,0,0,0,.18-.28A1.59,1.59,0,0,1,7.63,6a.81.81,0,0,0,.25-.37,1.12,1.12,0,0,1,.35-.52,4.68,4.68,0,0,0,.85-.93c.11-.14.23-.27.33-.41s.17-.1.27,0a1,1,0,0,1,.43.79A3.9,3.9,0,0,1,9.91,6.18ZM21.36,17.4v-.2h0l-3.26.19c-.33,0-.65,0-1,.07-.05,0-.1.07-.15.11l.16.13h0l4-.21c.06,0,.13-.06.19-.09a4.37,4.37,0,0,0-.24.55c-.07.25-.22.32-.46.36l-3,.43h.12c.6,0,1.21-.07,1.81-.13.43,0,.86-.11,1.29-.19a.49.49,0,0,0,.32-.2c.29-.44.53-.92.83-1.36s.62-.81.93-1.21v0l-.61.57L22.27,16H22l-2.84.17c-.6,0-1.19.07-1.78.12-.05,0-.11.08-.16.12l.17.11h.06l2.82-.12,1.93-.11-.32.37c-.07,0-.12-.08-.17-.08s-.25,0-.37,0l-3.08.18-1,.07c-.06,0-.15.07-.16.12s.08.13.17.12h.13l3.82-.19h.49Zm-2.59,2,0-.07H9.35v.07a.18.18,0,0,0,.05.07,1.64,1.64,0,0,0,1.15.55h6.38l.55,0A1.55,1.55,0,0,0,18.77,19.35Zm-.61-5.19.06.07,6.38-.34a4.26,4.26,0,0,0-.18-.54c-.14-.28-.25-.32-.56-.3l-2.58.19-2.52.17c-.07,0-.18,0-.21.08C18.41,13.7,18.29,13.93,18.16,14.16ZM3.91,13.9l6.37.33c-.09-.21-.17-.37-.24-.54a.46.46,0,0,0-.47-.29c-.28,0-.55,0-.83-.05L4.45,13a.43.43,0,0,0-.19,0A.85.85,0,0,0,3.91,13.9ZM9.78,9.59a1.35,1.35,0,0,0-.16,1.09,8.86,8.86,0,0,0,.9,2.32,10.16,10.16,0,0,1,.54,1.16,14.92,14.92,0,0,1,.74,3.42,2.24,2.24,0,0,1-.09,1.2,5.26,5.26,0,0,0,1.66.28c0-.06-.11-.1-.12-.16-.1-.75-.17-1.51-.28-2.26-.17-1.24-.36-2.47-.54-3.71l-.19-1.23c0,.09-.06.12-.06.15,0,.27,0,.53,0,.8.15,1,.31,2.1.46,3.15s.29,1.91.43,2.87c0,0,0,.09,0,.17l-.83-.15c-.13,0-.17-.09-.17-.22a19.8,19.8,0,0,0-.32-3.35,6.38,6.38,0,0,0-.89-2.31A5.14,5.14,0,0,1,9.78,9.59Zm6.89,9.2a5.93,5.93,0,0,1-.05-.92c.08-.68.16-1.35.3-2a8.78,8.78,0,0,1,.95-2.76,14.19,14.19,0,0,0,.64-1.37,3.52,3.52,0,0,0,.34-1.6,1,1,0,0,0-.23-.6,2.72,2.72,0,0,1-.21,1.63c-.32.67-.7,1.31-1.05,2a7,7,0,0,0-.33.67,10.41,10.41,0,0,0-.56,2.93c0,.63-.07,1.25-.11,1.91l-.93.2c0-.07,0-.12,0-.16l.42-3c.16-1.17.32-2.34.47-3.51a1.11,1.11,0,0,0-.07-.29l-.07,0c0,.25-.07.5-.11.75l-.42,3.14-.36,3a3.3,3.3,0,0,1-.11.34Zm1.14,1.52H13.19l-2.38,0c-.11,0-.17.06-.1.15a1.12,1.12,0,0,0,.87.58c1.73,0,3.46,0,5.19,0C17.28,21,17.52,20.71,17.81,20.31Zm6.2-7.8a.78.78,0,0,0-.8-.84l-4,.44a.25.25,0,0,0-.18.13,3.06,3.06,0,0,0-.15.54c0,.1,0,.17.16.16l4.24-.35Zm-19.6,0,1,.08,3.94.34c.12,0,.17,0,.15-.14s-.07-.35-.11-.51a.25.25,0,0,0-.25-.19c-.45,0-.89-.08-1.33-.13L5,11.7a.27.27,0,0,0-.2,0A1,1,0,0,0,4.41,12.52ZM11,18.75v0l-.48-.05c-.88-.12-1.77-.25-2.66-.34a.68.68,0,0,1-.65-.5,5.44,5.44,0,0,0-.5-.91L8,17l3.18.15c.09,0,.21,0,.21-.11s-.11-.13-.2-.13L8,16.68l-1.37-.07v.13l-.37-.42h.12l4.65.23c.09,0,.21,0,.21-.11s-.11-.12-.2-.13l-2.38-.14L6.18,16l-.07.17-.57-.53a.76.76,0,0,0,.16.26,10.17,10.17,0,0,1,1.47,2.16.53.53,0,0,0,.43.34l2.5.28C10.41,18.73,10.73,18.73,11,18.75ZM9.31,11.38c0-.4-.06-.47-.46-.53h0c-1-.13-2.06-.25-3.09-.4a.46.46,0,0,0-.51.27,1.73,1.73,0,0,0-.14.31c-.06.16,0,.24.17.26L9,11.63C9.27,11.65,9.31,11.62,9.31,11.38Zm9.82,0c0,.1-.05.28.18.26l.85-.08,2.77-.26c.5,0,.56-.13.29-.57a.25.25,0,0,0,0-.07.41.41,0,0,0-.45-.22l-3.12.4C19.18,10.9,19.14,11,19.13,11.38Zm-7.23,10a.78.78,0,0,0,.66.7H16a.74.74,0,0,0,.71-.7Zm10.35-12c-.85.11-1.66.21-2.46.33-.14,0-.37-.07-.4.16a1.28,1.28,0,0,0,.13.48.21.21,0,0,0,.26.13l2.8-.31c.29,0,.32-.08.17-.34a1.76,1.76,0,0,0-.27-.34A.79.79,0,0,0,22.25,9.34ZM9.07,9.8a.59.59,0,0,0-.17-.1c-.18,0-.37,0-.55-.08L6.27,9.36A.38.38,0,0,0,6,9.43a2.81,2.81,0,0,0-.35.48c-.09.14,0,.2.14.22l2.78.29c.29,0,.34,0,.42-.26C9,10.06,9,10,9.07,9.8ZM22.21,9a1,1,0,0,0-.4-.61.41.41,0,0,0-.26-.07c-.61.07-1.23.15-1.84.24-.06,0-.15.07-.16.12a4.53,4.53,0,0,0,0,.52c0,.13.09.17.23.15.56-.09,1.13-.16,1.69-.24ZM8.94,9c0-.36,0-.45-.26-.48l-1.6-.21a.7.7,0,0,0-.81.51c0,.11,0,.16.09.18l2.38.32a.27.27,0,0,0,.16-.12A.41.41,0,0,0,8.94,9Zm5.27-1.45-1.07.19a.84.84,0,0,0-.58.49c0,.07,0,.17,0,.26a.73.73,0,0,0,.22,0,3.67,3.67,0,0,1,1.38-.33,2.78,2.78,0,0,1,1.57.36s.14,0,.15,0a.33.33,0,0,0,.06-.19.34.34,0,0,0-.07-.15,1.05,1.05,0,0,0-.8-.53Zm-5.46.73s.13-.06.16-.13a3.06,3.06,0,0,0,.15-.49c0-.14,0-.21-.16-.23-.37,0-.73-.12-1.09-.18a.77.77,0,0,0-.92.62c0,.09,0,.15.11.16ZM19.34,7.5c.05.23.1.43.16.62s.15.21.32.18l1.59-.23c.16,0,.19-.09.13-.22-.2-.39-.39-.74-.95-.56h-.08Zm-1.73,7.36,6.09-.28c0-.27-.09-.31-.3-.3l-3.59.21-2,.13C17.68,14.63,17.58,14.64,17.61,14.86ZM4.73,14.57l1.55.09,3.2.15,1.21,0c.05,0,.1-.05.16-.07l-.15-.14h-.1l-1.11-.08-4.37-.25C4.81,14.27,4.79,14.29,4.73,14.57Zm18.52.58c0-.22-.1-.32-.31-.29s-.45,0-.67.05l-4.49.27c-.11,0-.31,0-.29.14s.19.1.29.09L22,15.22Zm-18,0,.49,0,1.85.1,3.24.13c.06,0,.13-.06.19-.09s-.11-.12-.17-.13-.39,0-.58,0l-4.69-.28C5.32,14.84,5.21,14.9,5.2,15.14Zm4.94.83h.78c.06,0,.11-.06.17-.1s-.11-.12-.16-.13l-1.27-.08-3.81-.23c-.14,0-.16.06-.18.15s0,.15.15.16Zm8.59,0v0l3.87-.2c.08,0,.19,0,.17-.14s0-.2-.2-.17-.54,0-.81.06l-4.23.25c-.06,0-.12.09-.18.14s.13.09.19.09Zm-6.4-6.43a3.21,3.21,0,0,1,3.86.31c0-.06,0-.09,0-.12a1.56,1.56,0,0,0-1.05-1A3,3,0,0,0,12.75,9,.87.87,0,0,0,12.33,9.55Zm.36,3a4.13,4.13,0,0,1,1.55-.32,3.34,3.34,0,0,1,1.55.4c0-.14,0-.31-.07-.37a2.9,2.9,0,0,0-3.08,0Zm-.33-2.24a4,4,0,0,1,3.75,0,.48.48,0,0,0-.15-.27,2.54,2.54,0,0,0-2.05-.56,5,5,0,0,0-1.61.5ZM7.07,17.19c0,.27,0,.28.26.3l.83.05,3.12.15c.09,0,.21,0,.21-.12s-.11-.12-.2-.13l-3.16-.19Zm8.37-2.3c.13-.34.11-.4-.19-.55a2.59,2.59,0,0,0-2.21,0,.18.18,0,0,0-.08.13c0,.11,0,.21,0,.33A3.24,3.24,0,0,1,15.44,14.89ZM12.85,13.7a3.23,3.23,0,0,1,2.75.07c.09-.35.09-.35-.2-.5a2.75,2.75,0,0,0-2.5,0,.26.26,0,0,0-.09.17A1.38,1.38,0,0,0,12.85,13.7Zm3.07-2.18c.05-.28.06-.28-.17-.41a3.25,3.25,0,0,0-3-.06c-.26.12-.26.12-.19.4A3.69,3.69,0,0,1,15.92,11.52ZM13.17,16a3.12,3.12,0,0,1,2.15.09,1,1,0,0,1,0-.2c.09-.23,0-.32-.21-.39a2.49,2.49,0,0,0-1.93,0,.18.18,0,0,0-.08.13A2.78,2.78,0,0,0,13.17,16ZM7.53,17.77c0,.18.08.29.26.3L9,18.15l2.4.1a.21.21,0,0,0,.18-.11c0-.14-.08-.13-.18-.13l-2.25-.14Zm13.38,0-.52,0L17,18c-.09,0-.21,0-.2.12s.13.13.23.13l1.19-.05,2.42-.14C20.82,18.06,20.89,18,20.91,17.77ZM19.07,6.64a2.12,2.12,0,0,0,.1.36.25.25,0,0,0,.18.12c.44,0,.88-.1,1.32-.16a.15.15,0,0,0,.12-.1c0-.25-.38-.64-.63-.61s-.58.08-.87.12S19.05,6.47,19.07,6.64Zm-9.71,0c0-.23,0-.25-.22-.28s-.43-.06-.65-.11c-.39-.08-.58,0-.76.44-.06.12-.05.18.1.2l1.09.19c.31,0,.37,0,.42-.3C9.35,6.74,9.35,6.68,9.36,6.65Zm5.8,10.5c0-.08,0-.15.05-.22a.29.29,0,0,0-.22-.39,2.4,2.4,0,0,0-1.35-.1c-.46.1-.4,0-.33.47l0,.17A3,3,0,0,1,15.16,17.15Zm-1.69,1,1.57.09a2.67,2.67,0,0,1,.05-.33.18.18,0,0,0-.14-.23,5.73,5.73,0,0,0-.56-.14,2.24,2.24,0,0,0-1,.1ZM12.75,7.24l0,.08A1.07,1.07,0,0,0,13,7.24a1.6,1.6,0,0,1,1.14-.31,2.16,2.16,0,0,1,1.09.19l.28.17a.21.21,0,0,0-.06-.18c-.16-.14-.32-.28-.48-.4a.44.44,0,0,0-.24-.09c-.24,0-.48,0-.72,0A1.79,1.79,0,0,0,12.75,7.24ZM9.51,6.07A1.47,1.47,0,0,0,9.3,5.3a.2.2,0,0,0-.07-.06.59.59,0,0,0-.8.51s.05.14.09.14C8.84,6,9.16,6,9.51,6.07ZM20.1,5.74c-.14-.19-.23-.41-.39-.49s-.44-.07-.51,0a1.76,1.76,0,0,0-.26.66s.08.1.12.1c.29,0,.57-.09.85-.15C20,5.87,20,5.81,20.1,5.74Zm-.77,2.53c-.27.23-.37.22-.53-.06-.07-.12-.13-.25-.19-.37a.59.59,0,0,0-.12-.14,1.62,1.62,0,0,0,.25,1.08A.65.65,0,0,0,19,9a.25.25,0,0,0,.25-.07A.65.65,0,0,0,19.33,8.27Zm-10.27,0a4.15,4.15,0,0,0,0,.56c.06.24.22.29.42.15a1,1,0,0,0,.39-.71c0-.16,0-.32,0-.49H9.88c-.06.14-.13.27-.2.41C9.49,8.48,9.41,8.5,9.06,8.24ZM17,10.37a2.46,2.46,0,0,0,.27-.17,1.78,1.78,0,0,0,.45-.36c.38-.51.57-.81.34-1.26-.07.14-.12.28-.18.41a2.34,2.34,0,0,1-.68,1A.54.54,0,0,0,17,10.37Zm-5.51,0a1.68,1.68,0,0,0-.18-.38c-.17-.23-.39-.42-.55-.66s-.26-.51-.4-.79c0,.16-.12.32-.09.44a1.9,1.9,0,0,0,.86,1.18Zm1.12-2.71c.05-.39-.13-.58-.52-.57C12.05,7.7,12.12,7.76,12.61,7.69Zm.93,11.06a1.8,1.8,0,0,0,1.37.05A2.39,2.39,0,0,0,13.54,18.75ZM9.43,8.27c.06-.06.13-.09.17-.15s.08-.19.06-.21a.41.41,0,0,1,0-.66C9.29,7.29,9.16,7.89,9.43,8.27Zm9.57,0a1,1,0,0,0,.06-.89,1.24,1.24,0,0,0-.21-.18l0,0c.2.31.19.4-.09.71Zm-2.67-.92a.65.65,0,0,0-.7.28l.37.06C16.28,7.74,16.36,7.65,16.33,7.37Z"/><path class="cls-1" d="M9.8,3.38a5.07,5.07,0,0,1,1.43-1.13,6.49,6.49,0,0,1,.88-.43c.32-.12.47-.4.69-.61,0,0,0-.13,0-.18a.17.17,0,0,1,.07-.24l.91-.7a1,1,0,0,1,1,.06c.26.22.54.42.82.62a.22.22,0,0,1,.1.28.26.26,0,0,0,.05.24,1.79,1.79,0,0,0,.8.57,5.45,5.45,0,0,1,2.17,1.49,2.92,2.92,0,0,0-.54,1.5A4.51,4.51,0,0,0,14.78,3V2.83a1.78,1.78,0,0,0,0-.2l-1.15.05V3a4.48,4.48,0,0,0-3.35,1.84A2.89,2.89,0,0,0,9.8,3.38ZM18,4.44l.08,0c0-.11,0-.27,0-.33a4.75,4.75,0,0,0-2.68-1.6c-.27-.06-.43.1-.4.39A4.29,4.29,0,0,1,18,4.44ZM13.47,2.86c0-.31-.16-.43-.42-.38a4.88,4.88,0,0,0-2.68,1.59c-.12.13,0,.24,0,.39A4.21,4.21,0,0,1,13.47,2.86ZM14.88.63c-.09.45-.16.85-.25,1.25a.45.45,0,0,0,.21.57l.48-1.33a.31.31,0,0,0,0-.19A5,5,0,0,0,14.88.63ZM13.38.8h-.1c-.06.09-.19.2-.17.27.14.45.31.89.5,1.39.08-.14.2-.25.18-.33C13.67,1.68,13.52,1.24,13.38.8Zm0,0c.05.05.1.16.16.16.36,0,.71,0,1.07-.06.06,0,.11-.12.15-.2s0-.07,0-.1-.15,0-.2,0a.52.52,0,0,1-.67,0C13.72.51,13.57.57,13.42.76Zm4.51,2.39c-.25.26-.16.54.27.77C18.39,3.51,18.33,3.34,17.93,3.15ZM17,2.44c-.44-.34-.55-.33-.72.08l.57.25Zm-4.77.06c-.14-.11-.1-.36-.34-.29a3.46,3.46,0,0,0-.45.2,2.5,2.5,0,0,0,.14.25.22.22,0,0,0,.16.06C11.88,2.67,12,2.59,12.22,2.5ZM10.33,3.93c.08-.11.13-.19.2-.27s.19-.29,0-.52C10.1,3.35,10.05,3.51,10.33,3.93Zm.58-.67c.44-.3.47-.36.27-.65C10.71,2.77,10.64,2.93,10.91,3.26Zm6.72,0c0-.15.08-.31,0-.38a1.84,1.84,0,0,0-.39-.33C17.06,2.9,17.1,3,17.63,3.29Zm-1.7-.87c.15-.39.11-.45-.36-.53C15.38,2.26,15.38,2.29,15.93,2.42Zm-3.43,0c.54-.06.61-.16.35-.49C12.37,2,12.36,2,12.5,2.38ZM13.8.45c.54.26.43.25.81,0C14.37.19,14.12.19,13.8.45Zm.9.58,0-.07L13.58,1l0,.06s.1.1.14.1c.29,0,.57,0,.86-.06C14.61,1.11,14.65,1.06,14.7,1Zm-1,.25.07.18c.26,0,.51,0,.75-.06a.45.45,0,0,0,.17-.11l0-.07Zm.1.28c.06.11.57.16.75.09,0,0,0-.08.08-.15Zm.78.25,0-.06-.58,0s-.06,0-.09.07.07.06.1.06l.5,0S14.51,1.84,14.54,1.81Zm0,.3V2L13.9,2v.07Z"/><path class="cls-1" d="M15.35,6a2.32,2.32,0,0,0-2.27,0,1.59,1.59,0,0,1,1.06-1,.93.93,0,0,1,.48.15A2.28,2.28,0,0,1,15.35,6Z"/><path class="cls-1" d="M16.33,7.37c0,.28,0,.37-.33.34l-.37-.06A.65.65,0,0,1,16.33,7.37Z"/></g></svg>