<svg id="ROOMS_LOGOS" data-name="ROOMS LOGOS" xmlns="http://www.w3.org/2000/svg" viewBox="0 0 28.35 22.68"><defs><style>.cls-1{fill:#fff;}</style></defs><title>THE WALKING DEATH</title><g id="THE_WALKING_DEATH" data-name="THE WALKING DEATH"><path class="cls-1" d="M19.78,11.76l-.07,0-.11.13c0-.07.07-.16,0-.2v-.11l.12-.06,0,0v0l-.07,0,0,0-.08.09,0,.15a1.22,1.22,0,0,0,0,.27.7.7,0,0,1,0,.25l0,0s0,.06,0,.09,0,.27,0,.4a.76.76,0,0,0,.06.18l.12-.35h0c0,.16-.13.31-.09.48l.06-.12h0s0,0,0,.07,0,.15,0,.24a.73.73,0,0,1,0,.46,2.25,2.25,0,0,1-.12.21s-.06.07,0,.12,0,.09-.06.07l0,0,0-.1-.09.16c.1.05,0,.16.05.23h0a.08.08,0,0,1,0,0,.43.43,0,0,0,0,.05.06.06,0,0,0,0,.1s0,0,0,.11,0,.13,0,.21a.59.59,0,0,1,0,.29,1.43,1.43,0,0,0-.06.35c0,.1,0,.2-.08.3s0,0-.05.05l.08-.46-.07.07,0,0-.1.07,0-.14-.06,0s0,.08,0,.1,0,.21,0,.31a.94.94,0,0,1,0,.09l.05-.06h0l0,.23h0l0-.06c0,.11-.06.19-.08.27l-.06.18,0,0c-.11.06-.13.09-.1.21a.78.78,0,0,0,.05.14c0,.07.06.14,0,.21s0,0,0,0,0,.31,0,.47.08.36.1.54a.57.57,0,0,1,0,.22.34.34,0,0,0,.08.36.35.35,0,0,1,.06.3,2.92,2.92,0,0,0,0,.51c0,.21,0,.42,0,.63a1.17,1.17,0,0,1-.13.58.23.23,0,0,1-.22.14.27.27,0,0,1-.22-.2.79.79,0,0,1,0-.43.87.87,0,0,1,.07-.17,1.34,1.34,0,0,1,.11-.14s0-.06,0-.08a.15.15,0,0,1,.1-.19.8.8,0,0,0-.14-.09.28.28,0,0,1-.18-.19,1,1,0,0,1-.05-.59,2.2,2.2,0,0,0,0-.36.42.42,0,0,1,.05-.22h0a.29.29,0,0,1,.08-.28.07.07,0,0,0,0-.11c-.1,0-.12-.12-.13-.22s0-.22,0-.32,0-.24,0-.35a.43.43,0,0,1,0-.11c0-.05,0-.08-.05-.07a1.42,1.42,0,0,0,.05-.16.3.3,0,0,0,0-.1,0,0,0,0,0,0,0l0,0,0,.07-.11,0,.05-.06-.11-.05h0l0,.05s-.09,0,0-.08a.73.73,0,0,0,.09-.13l0,0,0,0,0,.07a1.67,1.67,0,0,0,.05-.18s0-.08-.05,0h0l-.06.15h0s0-.09.05-.13,0-.1,0-.1-.07,0-.05-.09,0,0,0-.07a1.08,1.08,0,0,0-.19,0s0,0,0,0,0,0-.06,0l0-.06a1.58,1.58,0,0,0-.44.2.12.12,0,0,0,0,.22l.32.23a.55.55,0,0,1,.18.69c-.09.25-.19.51-.29.76a2.91,2.91,0,0,1-.75,1.11,1.28,1.28,0,0,1-.3.17,1.35,1.35,0,0,0-.43.31.42.42,0,0,0-.1.31c0,.23,0,.45,0,.68s0,.18.05.27a.27.27,0,0,1-.08.24c-.06,0-.06.09,0,.15s.15.17.12.29a1.16,1.16,0,0,1,0,.18.78.78,0,0,0,.05.37.86.86,0,0,1,0,.42.19.19,0,0,1-.16.12A.26.26,0,0,1,16,22.3c0-.16,0-.32,0-.48v0c0-.26,0-.51,0-.77a1.51,1.51,0,0,0,0-.3,1,1,0,0,0-.05-.3c0-.1,0-.19,0-.27s0-.09,0-.13,0-.25,0-.37a1.51,1.51,0,0,0-.1-.38.85.85,0,0,0-.38-.37c-.09-.06-.2,0-.3,0a.94.94,0,0,1-.55-.06c-.09,0-.08-.1-.08-.18s.12-.25.13-.38a1.48,1.48,0,0,0,0-.21.48.48,0,0,1,0-.12,1,1,0,0,0,.07-.44c0-.15,0-.3,0-.45v0c.08-.12,0-.22-.08-.33a1.94,1.94,0,0,0,0,.33.7.7,0,0,1,0,.35s0,.05.06.09a.94.94,0,0,1-.1.1c0,.05,0,.08,0,.12s.09.07,0,.16a.38.38,0,0,0-.07.21.89.89,0,0,1-.29.65l0,0h0c-.08.1-.19.1-.28.14l-.37.13a5.44,5.44,0,0,1-.54.15,3.43,3.43,0,0,1-.56.06,3.89,3.89,0,0,1-.47,0,.57.57,0,0,0-.61.48c0,.15-.05.3,0,.45a1.32,1.32,0,0,0,.16.61.21.21,0,0,1-.06.29c-.13.11-.15.19-.07.38a.4.4,0,0,1-.27.59.26.26,0,0,1-.24-.14.66.66,0,0,1,0-.48.76.76,0,0,0,0-.16c0-.21,0-.42,0-.63s0-.3,0-.46a.26.26,0,0,0-.1-.28.23.23,0,0,1-.09-.21.69.69,0,0,0-.07-.34,2.08,2.08,0,0,0-.2-.36.28.28,0,0,0-.13-.11s0,0,0-.05a2.08,2.08,0,0,1-.21-.21c-.06-.09-.08-.2-.14-.29a2.88,2.88,0,0,0-.28-.33.13.13,0,0,0-.12,0s0,.06-.05.1a.55.55,0,0,0,.05.36.94.94,0,0,1,0,.5.81.81,0,0,0,.08.57.64.64,0,0,1,.15.4.34.34,0,0,1-.27.3.35.35,0,0,1-.36-.25.63.63,0,0,1,0-.19.56.56,0,0,0,0-.22,1.1,1.1,0,0,1,0-.51,2.58,2.58,0,0,0,0-.39,1.16,1.16,0,0,0,0-.18,1.93,1.93,0,0,1,0-.24,1.61,1.61,0,0,0,0-.22c0-.22,0-.43,0-.64s-.05-.31-.07-.47,0,0,0-.05a.15.15,0,0,1,0-.07A1,1,0,0,0,9,16.2l-.11-.06L8.82,16s0,0-.08-.15l0,.18-.13-.17-.06-.07c0-.05,0-.1,0-.16a1,1,0,0,0,0-.12l-.08.11,0,0c-.07.11.05.19,0,.28L8.41,16s0-.09-.06-.09-.06-.14-.13-.17h0c.07,0,0-.11.07-.15s0,0,0-.06a.59.59,0,0,0-.06-.14l-.06.05,0,.06h0A.15.15,0,0,0,8,15.45s-.06,0-.08,0l-.06-.12c.08,0,.06-.07,0-.12A1,1,0,0,1,7.83,15l.1.08-.08-.21h.09v-.07H8l0-.13.12,0v-.13c0-.1-.15-.17-.08-.3l.05.13s0-.08,0-.12l.06,0-.21-.09.09,0,0-.33.08.08.07-.09v0l.09,0-.07,0-.1.07-.1-.31s-.06.06,0,.12.05.09.07.13h0l0,0v.08h0l-.1-.36c-.11,0,0,.09,0,.14l-.09-.09s0-.07-.09,0-.08,0-.12,0a.1.1,0,0,0-.09,0,.16.16,0,0,0-.06.08c0,.07-.1.07-.13.11s-.13.07-.12.16,0,.06,0,.08l0-.17c0-.05,0-.1,0-.16h0c.09,0,0-.17.14-.16l0-.07h0l0,.05.07,0a.12.12,0,0,0,0-.05,1.13,1.13,0,0,1,0-.18l0,.2.13-.15.09.1,0,0,0-.06,0-.15v0c.07,0,.12,0,.09.12s0,.07,0,.11,0-.15.14-.13V13l.09.27H8l0-.1h0l.07.2,0-.11h0L8.1,13.1h0l0,.07.17.05c0-.05,0-.12,0-.18A.15.15,0,0,1,8.42,13s0,0,.06,0a.6.6,0,0,1,.13.43s0,.05.05.08.05.09,0,.13l-.07,0a.14.14,0,0,0-.08.16c0,.1,0,.12-.12.15l.16.46a1.57,1.57,0,0,1,.23-.09.88.88,0,0,0,.41-.29A.41.41,0,0,1,9.49,14h.15c.06,0,.11.07.18,0l-.09.44a.38.38,0,0,0,.32-.15.57.57,0,0,1,.29-.26.54.54,0,0,1,.31,0,1.3,1.3,0,0,0,.22,0,.27.27,0,0,1-.07-.08,1.27,1.27,0,0,0-.12-.1c-.06-.05-.12-.1-.07-.19a.41.41,0,0,0,0-.08.12.12,0,0,1-.05.05h0l-.09-.17a1,1,0,0,1,.46.05,4.42,4.42,0,0,0,.5.1.22.22,0,0,0,.22-.13s0,0,0-.06h-.11v-.1l.13,0h-.22v0l-.15-.11,0-.12-.13,0,.06-.05a.27.27,0,0,1,.23,0s.05,0,.08,0v0h-.07a.42.42,0,0,0,0-.12s-.06,0-.12,0,0,.08-.07.11a.23.23,0,0,1-.14,0l.06-.05-.06,0v0l.07,0c.06,0,.12,0,.12-.07a1.2,1.2,0,0,0,0-.19L11,12.45v0l.2,0,.07,0,.1-.07.14-.1v.13h0l.06-.15c-.07,0-.13-.07-.17,0l-.05-.13.05,0c-.05-.07-.09-.06-.13,0a.74.74,0,0,1-.13-.08.61.61,0,0,1-.07-.14l-.05.09v-.06l-.22-.17.13-.11v0l0,0s0,0,0,0a.69.69,0,0,1,.42-.1c.15,0,.14,0,.14-.14a2.82,2.82,0,0,1,.07-.31.36.36,0,0,0,0-.1l-.1-.05,0,.07h0l0-.13.06,0c0-.05.07-.11,0-.15s-.08,0-.12,0V10.5h-.11l.06.07h0s0-.08,0-.11a2.72,2.72,0,0,1,.11-.25h0l.17-.37h0l0,.05-.06,0,0,.07-.06-.06h0c0-.08-.05-.1-.11-.12a1.48,1.48,0,0,1,0-.21s0,0,0,0a.61.61,0,0,0,.05-.12c0-.05,0-.07.06-.06h0l0-.25.07.05,0-.07.07,0,0-.15h0l0-.11h0l.07.15,0-.16.06,0v0h-.07l-.34.06a.22.22,0,0,1-.14,0s0,0,0,0l0,0,.14-.06,0,0-.32-.16V8.14L11.09,8c.09,0,.06-.09,0-.14l-.05-.05a1.16,1.16,0,0,0,0-.18A1.27,1.27,0,0,1,11,7.2a.31.31,0,0,1,.3-.3l.1,0a.28.28,0,0,0-.2-.15l-.2,0a.2.2,0,0,1-.12-.26A.75.75,0,0,1,11.2,6L11.33,6V5.83h0l0,.1c.09,0,.15-.09.25-.06V5.75l-.18.11c0-.08-.07-.08-.14-.07H11a.29.29,0,0,1,.24-.14.17.17,0,0,0,.16-.13l0,.08h.1a.64.64,0,0,0,0-.07l0,0-.26-.17v0a1.15,1.15,0,0,1-.06-.17,2.67,2.67,0,0,1,0-.4,2,2,0,0,1,0-.24s0,0,0-.06,0-.08,0-.1l-.06-.12,0,0,0,0V4.2h-.07C11.13,4.1,11,4.1,11,4l0,.06-.06,0h0a1.19,1.19,0,0,1-.08-.2s0-.06,0-.1a.36.36,0,0,0-.12-.16s0-.06,0-.07,0-.1,0-.16a.15.15,0,0,1,.05-.14c-.11-.09,0-.11.06-.18l-.09,0L10.66,3a.13.13,0,0,0,.08-.17.87.87,0,0,1,0-.23.41.41,0,0,0-.05-.09l.07,0v0l-.11,0,.15-.14H10.7c0-.08,0-.16,0-.24a1.29,1.29,0,0,1,0-.19l.15-.57a.7.7,0,0,1,.33-.47.75.75,0,0,1,1.05.3,1.56,1.56,0,0,1,.17.64.25.25,0,0,1,0,.07s0,0,0,0,0,.27,0,.4a.31.31,0,0,1,0,.13.78.78,0,0,0,0,.4c0,.06,0,.12,0,.18V3s0,.09,0,.12a.28.28,0,0,0,0,.22v0c0,.09,0,.09,0,.14s0,0,0,.06v.06a.86.86,0,0,0-.08.47,1.09,1.09,0,0,1,0,.18v.16a.32.32,0,0,1,0,.09l0,.09.06,0L12.29,5l0-.08h0v.2l0-.1c0,.17,0,.32,0,.47a.08.08,0,0,1,0,0c-.06,0-.07.07,0,.12s0,0,0,0a1.31,1.31,0,0,1,0,.28l0,0h0l.07.21.06-.07h0l0,.1a1.35,1.35,0,0,1,0,1h-.05s0,.06,0,.08,0,.09.06.07,0,0,0,.07,0,0,0,.08.09.13.05.23,0,.12,0,.18a2.08,2.08,0,0,1,0,.25c0,.08-.05.16-.07.24s0,.1,0,.15a1.67,1.67,0,0,1,0,.32c0,.15-.05.3-.07.45a.68.68,0,0,0-.05.07l.07-.75h0l-.05.14h0s-.08.06-.11.1,0,.11,0,.17l0,0c-.05,0-.06.15,0,.33a.57.57,0,0,0,.37-.16.34.34,0,0,1,.36-.06.19.19,0,0,1,.07.12c0,.15,0,.18.17.26s.19,0,.28,0a2.27,2.27,0,0,1,.34-.19.36.36,0,0,1,.18,0,.3.3,0,0,0,.31-.18.23.23,0,0,1,.21-.16.32.32,0,0,1,.3.17,1.69,1.69,0,0,0,.17.29.28.28,0,0,0,.17.09.53.53,0,0,0,.38-.11s0,0,0,0a.7.7,0,0,0,.14,0,.38.38,0,0,1,.37.06c.06,0,.1.08.16.11l.17.07s.19.22.29.25h0c.06.1.09.11.18,0h.06c-.13.12.05.16,0,.24h0V9.82a1,1,0,0,1,.06.21,1.48,1.48,0,0,1,0,.21l-.12.12.09.15-.11-.06a.36.36,0,0,0,0,.09s0,.05,0,.05a.16.16,0,0,1,.08.16s0,.08,0,.09a.09.09,0,0,0,0,.12h-.09a1.08,1.08,0,0,0-.12.24,1,1,0,0,0,0,.19c.15-.05.17-.2.25-.28L16.77,11h.08l0-.07s.05,0,.05,0,0-.16.05-.24a.42.42,0,0,1,.36-.25h.11l0-.06a.89.89,0,0,0,.4.11l.39.31c.06,0,.08.05.13.06s.08-.1.12-.1.11,0,.16,0,.1,0,.1,0l.1,0,0,0c0,.06.07.05.1.06s.08,0,.12,0a.45.45,0,0,0,.12.06h.08l.05.11c0-.08,0-.11.1-.06v-.12l.06,0,0-.12h.16l.07-.14.07.11a.6.6,0,0,1,.08-.08c.06,0,0-.07,0-.11s0-.1.06-.13v.13h0l0-.17-.13,0,0-.11h0c.06,0,.11.05.15,0s0-.12,0-.18h0v.09l.12,0h0l.07,0v0h-.13l0-.23c-.12,0,0,.11-.05.15l-.09,0,.05-.29-.07,0s0,0,0,.07-.07,0-.12,0l-.08.1,0,0a1,1,0,0,0,0,.16h0l0,0-.08-.05c0,.06-.09.05-.14.05l0,.09.07,0,0-.07,0,.05,0-.09h0l0,.15s0,.06,0,.09v-.11l-.14.07v-.08h0l-.12.49-.09.05-.14-.08c-.08,0-.1-.08-.06-.16v0L19,10.6h0a.66.66,0,0,1,.05-.15c0-.07,0-.17.13-.2s0-.06,0-.09a.56.56,0,0,0-.05-.08l.12-.11a.39.39,0,0,1,0-.09.13.13,0,0,1,0-.06.14.14,0,0,1,0-.06h-.07c.08,0,.07-.09.06-.15a.81.81,0,0,1,.07-.53c.09-.13.2-.24.3-.36a.73.73,0,0,0,.09-.08l.12-.16v.09s.08,0,.08-.07,0-.05,0-.08,0-.11,0-.17l-.08,0,0,0h0V8.18s0,0,0,0h-.05l0,0,0,0A.78.78,0,0,1,19.73,8s0,0,0-.06.05-.15,0-.22l0,0-.08,0a.22.22,0,0,1-.05-.08.34.34,0,0,1,0-.1.48.48,0,0,0,0-.12s0-.06-.05-.09l.2-.24h0L19.84,7s.1-.09,0-.16h.06l-.08,0H20l-.08,0,.19-.18,0-.13h0S20,6.35,20,6.32a1.16,1.16,0,0,1,0-.49s0-.08,0-.12l.15-.55,0-.1,0,0c-.06-.12,0-.21.07-.29a.54.54,0,0,1,.87-.16,1.56,1.56,0,0,1,.49.67,1.23,1.23,0,0,1,0,.6,3.85,3.85,0,0,1-.07.49,3.86,3.86,0,0,0-.1.49,2.33,2.33,0,0,0,0,.53c0,.14.05.27.06.4s0,.17,0,.26,0,.09.07.13a.27.27,0,0,1-.13.37c-.08,0-.12,0-.16-.08A.66.66,0,0,1,21.45,8a1.58,1.58,0,0,0,.1-.48,2.09,2.09,0,0,0-.05-.21,3.23,3.23,0,0,1-.06.33.65.65,0,0,1-.16.32s0,.08-.06.11l-.1.09a.41.41,0,0,0-.22.34c0,.22,0,.45,0,.67a.35.35,0,0,1-.06.18.18.18,0,0,0,0,.23.67.67,0,0,1,.07.55s0,.05,0,.07a5.33,5.33,0,0,0,.09,1,5.29,5.29,0,0,1,.09,1.06s0,0,0,0c-.12.17,0,.33,0,.5s.09.27,0,.41l-.07.15a.29.29,0,0,0,0,.16,3.63,3.63,0,0,1,.16.71c0,.16,0,.32-.13.43a.26.26,0,0,1-.41-.13.83.83,0,0,1,0-.54.21.21,0,0,0,0-.14.09.09,0,0,1,0-.14.22.22,0,0,0,0-.32.41.41,0,0,1,0-.4.18.18,0,0,0,0-.21.17.17,0,0,1,0-.18.27.27,0,0,0,0-.23,1,1,0,0,1,.07-.52.1.1,0,0,0,0-.13.23.23,0,0,1-.08-.25,2.05,2.05,0,0,0,0-.7,2.33,2.33,0,0,1,0-.38c0-.07,0-.14,0-.21a1.84,1.84,0,0,0-.06-.4.63.63,0,0,1,.05-.55.3.3,0,0,0,0-.28,1.27,1.27,0,0,0-.08-.23l0,.09.07,0L20.6,9s0,0-.07,0a.1.1,0,0,0,0,0c0,.05,0,.05,0,.07s0,0,0,.06,0,.13,0,.19h0V9.21l-.06,0c0-.07,0-.17-.11-.16s.05.19,0,.29h0l0-.05,0-.06h0c0,.09,0,.19-.07.29s0,0-.07,0-.09.05-.09.09l.2-.07V9.8h0l.07-.15c.05.09-.11.19,0,.26l-.06.08s.08,0,.05.11,0,.14,0,.21h0c-.1.08-.07.2-.11.3s0,.14-.05.21a.94.94,0,0,1-.06.15h0l.08-.4-.07.06s0,0-.08.1l0-.1s0,0,0,0,0,.15,0,.24,0,.11,0,.17l.06-.06c.05.07.06.18,0,.18s-.05,0-.06.07a1.36,1.36,0,0,0,0,.17c0,.07,0,.14-.06.23l0-.06,0,.05.06.05v0l-.13,0,0-.2h0c0,.1,0,.16-.07.23s0,0,0,0Zm-5,.09c0-.09-.1,0-.16,0v.12l.15-.09c-.06.13,0,.24.06.35s.21,0,.31,0a.25.25,0,0,0,.22,0l.18.09a1.12,1.12,0,0,0-.17-.2.14.14,0,0,1,0-.06c0-.07,0-.13.07-.21s.11,0,.14.08l-.13.17c.2,0,.3-.12.21-.29a.1.1,0,0,0-.08-.06c-.06,0-.14,0-.19,0h-.05a.23.23,0,0,0-.24.05l-.22-.16-.05-.07c0-.09-.07-.17-.17-.2a0,0,0,0,1,0,0c0-.11-.07-.14-.14-.17h0L14.26,11a.14.14,0,0,0,.09.14.26.26,0,0,1,.18.21l0,0,.06.07c.07.07.08.19.18.22A.33.33,0,0,1,15,12s-.08-.05-.09-.08S14.87,11.85,14.82,11.85Zm1.71,1-.23-.17s0,.06,0,.06l.24.11.06.09h-.16s-.06,0-.06,0,0,0,0,.06l.05,0-.09,0s-.07.08-.12.1a.44.44,0,0,1-.23.09,3.12,3.12,0,0,1-.39-.15l-.13-.06,0,0,0,.08h-.09l0,.07h-.08l0-.16c.09,0,.1,0,.12,0a.2.2,0,0,0-.26.11c0,.1-.07,0-.11,0a.14.14,0,0,1-.08,0s-.07-.05,0-.1l-.1,0V13H15c0-.15.12,0,.13-.11h-.17l.08-.15-.09-.06h-.05l.06-.06s0,0,0,0h-.14s0,0,0,.07l.06,0s0,.06,0,.09-.05,0-.05.07,0,.13-.08.17l-.13-.09h.12c0-.15,0-.15-.1-.16l-.05-.11a.43.43,0,0,1-.09.13.13.13,0,0,1-.22,0,.17.17,0,0,0-.11-.11c0,.08,0,.07.08.07v0l-.2,0,0-.07-.08.05-.11-.07-.1.15L14,13s0,0-.06,0-.21.05-.19.17-.07.07-.09.11.07.13.21.18v-.2h0a.16.16,0,0,0,.22.07l.07,0a.14.14,0,0,1,.2.07c-.18.11-.15.12-.07.27.08-.05.17-.09.24,0l.17-.22-.14-.27s0,0,0,0,0-.1.06-.17c0,.08.07.13.06.22a.24.24,0,0,0,.16.28h.1v-.1h0v0l-.1,0-.07.1h0l0-.23.35.14,0,0,0,0s0,0,0,.06a.36.36,0,0,0,.08.3.48.48,0,0,0,.47.15.17.17,0,0,1,.14.05,1.43,1.43,0,0,1,.32.49,2.5,2.5,0,0,0,.21.35c.11.15.24.29.36.43l.06.1a.29.29,0,0,0,0-.14.6.6,0,0,0-.2-.27.42.42,0,0,1-.21-.26.61.61,0,0,0,0-.13c-.11-.17-.23-.34-.35-.5s-.16-.2-.24-.3c.12-.08.18-.06.21.07l0,.1h0c0-.11.1-.06.15-.07s0-.09.1-.1l.46-.07h0l0,.22h-.05v0h.06v.16c.14,0,.17-.08.23-.16l.11.08c.07,0,.12,0,.14-.07a.23.23,0,0,1,0-.11l.11.11.1-.13h-.1l.13-.13a1.11,1.11,0,0,0,.76.2s0,0-.05,0l-.57-.25s-.07-.05-.1-.08v0h-.11s0,0,0,0a1.09,1.09,0,0,0,.26,0,.7.7,0,0,0,.24-.09c.09-.08.07-.24,0-.26a1.09,1.09,0,0,0-.26-.05.47.47,0,0,1-.3-.1c-.07-.06-.13-.07-.19,0l0,0-.36-.08Zm-3.37.58,0,0a1.73,1.73,0,0,1,.17.21s0,.07,0,.11a.25.25,0,0,0,.1.21.51.51,0,0,1,.2.26.85.85,0,0,0,.06.17,3.07,3.07,0,0,1,.33.79c.05.25.14.49.21.73,0,.09,0,.17,0,.26h0c0-.11,0-.21-.06-.32a3.43,3.43,0,0,0-.09-.44c0-.14-.07-.27-.11-.41l0,0a.35.35,0,0,1-.1-.21,1.82,1.82,0,0,0-.07-.25.31.31,0,0,1,0-.08c0-.06,0-.15-.07-.17a.5.5,0,0,1-.22-.28.22.22,0,0,0-.1-.14.17.17,0,0,1-.1-.2c0-.1,0-.15-.1-.22S13.2,13.45,13.16,13.45Zm4.09-1.89c-.22,0-.31.09-.36.29A.16.16,0,0,0,17,12a.12.12,0,0,0,.17,0,1.43,1.43,0,0,1,.14-.2.11.11,0,0,0,0-.12ZM15.15,11a.7.7,0,0,0,.08-.14c0-.07,0-.14-.07-.16a.5.5,0,0,0-.21,0c-.11,0-.14.12-.18.2s0,.16.1.17.14-.09.18-.17Zm-1.36-.82v0h.13v0c-.12-.05-.2,0-.3,0l.08.14.05,0c0,.09.13.11.17.18l0,.06s0,0,0,.08,0,.08.12.06l-.06-.08L14,10.63l-.06-.23c.09,0,.14-.1.09-.19S13.87,10.18,13.79,10.16Zm-.8.6a.16.16,0,0,0,.07.21s0,0,0,.09a.07.07,0,0,0,0,.07,1.11,1.11,0,0,0,.09.19c0,.07.08.13,0,.19s0,.06,0,.08l.05.05a.11.11,0,0,0,.07-.06.2.2,0,0,0,0-.22s-.09-.11,0-.18a.38.38,0,0,0,0-.27C13.19,10.75,13.15,10.73,13,10.76Zm1.77,5.93a1.16,1.16,0,0,0,0-.18.38.38,0,0,0,0-.24.58.58,0,0,1-.08-.22c0-.09,0-.18-.13-.21.08.19,0,.41.17.59C14.59,16.61,14.59,16.61,14.76,16.69Zm-1.2-5.79c0,.07.06.13.11.12s.26-.13.15-.32a.1.1,0,0,0-.18,0A1.19,1.19,0,0,0,13.56,10.9Zm7.91-3.71h0c0-.12.05-.24.07-.36a.22.22,0,0,0,0-.11s-.05-.07-.09,0a.76.76,0,0,1-.09.09.13.13,0,0,0,0,.2.28.28,0,0,1,.07.09A1.17,1.17,0,0,0,21.47,7.19Zm-8.84,4.66a.54.54,0,0,0,0-.1c0-.1,0-.21,0-.31a.29.29,0,0,0-.11-.27A.86.86,0,0,0,12.63,11.85Zm1.76.49a.91.91,0,0,0,0-.17c0-.06,0-.1-.1-.09a.39.39,0,0,1-.24,0s0,0-.07.06l0,.06.1.07C14.21,12.18,14.28,12.31,14.39,12.34Zm.18,3.43a.13.13,0,0,0,0-.2.62.62,0,0,1-.13-.34.19.19,0,0,0,0-.07.1.1,0,0,0-.05-.06.25.25,0,0,1-.11-.21.45.45,0,0,0,0-.16,1.77,1.77,0,0,0-.12-.17h0a1.14,1.14,0,0,1,.1.19.27.27,0,0,1,.05.11,1,1,0,0,0,.15.44Zm.46-3c0,.06,0,.08,0,.08v0l.15,0s0,0,0,0l.06,0-.1.06c.14,0,.22,0,.21-.11s0-.1.09-.1l-.05-.08c-.07.08-.14,0-.21,0l0,.07c-.1-.05-.1-.05-.14,0s.15,0,.15.08Zm-.51-2.07c0-.06,0-.13-.1-.14a.13.13,0,0,0-.13.13.14.14,0,0,0,.13.14C14.48,10.85,14.52,10.8,14.52,10.72ZM8.33,13.29v.1a.13.13,0,0,1,0,.09c-.05,0,0,.08,0,.12a.69.69,0,0,0,0,.13C8.5,13.57,8.49,13.33,8.33,13.29Zm6-4a.14.14,0,0,0,.14-.14.08.08,0,0,0-.11-.08c-.09,0-.14,0-.14.11A.1.1,0,0,0,14.35,9.33Zm-6.14,6-.09-.43.06,0h0l0-.07L8.07,15s0,.06,0,.08a.83.83,0,0,0,0,.15,1.2,1.2,0,0,0,0,.2h0v-.08Zm7.4-4.09a1.3,1.3,0,0,0,.1.15.07.07,0,0,0,0,0,.11.11,0,0,0,0-.15C15.76,11.22,15.72,11.21,15.61,11.28Zm-2.5-.93h0s0,.07.05.07a.24.24,0,0,0,.25-.06c-.11-.08-.23-.1-.25,0l0,0h0Zm6.11,4.41s0,.09.05.09.08,0,.06-.09h-.06V14.5c-.07,0-.06,0-.06.08l0,.12-.07,0v.19ZM8.38,14.38c.11,0-.05.08,0,.13l0-.15c-.05.06,0,.18.08.25s.12-.08.07-.18a.55.55,0,0,1-.06-.18h0Zm4.35-4.59-.08.15.15,0a.24.24,0,0,0,.1-.05l-.05-.05Zm.73.76,0,0s-.09,0-.12,0a.16.16,0,0,0-.07.07s0,.07,0,.07.07,0,.09,0A.58.58,0,0,0,13.46,10.55Zm-4.6,5c0,.09,0,.11.09.14l-.13,0v0s.07,0,.1,0,.07-.09.07-.15,0-.07-.06-.11l0,0,0,.08h0ZM12,5.6l.07,0a.14.14,0,0,1,.09-.13s0,0,0-.07l0,0s0,0,0,0A1.12,1.12,0,0,0,12,5.6Zm6.2,7.85.08-.11a.34.34,0,0,0-.11-.07s-.08.05-.07.06S18.15,13.4,18.2,13.45Zm-4.9-3.38c0-.05.08-.07.08-.1s0-.09-.09-.09-.08,0-.08.08S13.26,10,13.3,10.07Zm3.82.79c0-.12-.11,0-.15,0a.69.69,0,0,0,0,.13s0,0,0,0H17s.05-.05,0-.07S17.06,10.86,17.12,10.86Zm-4.84,1.59.09-.25h0l-.2.23Zm-.62-6.61h.26s0,0,0,0h-.23Zm.21,4.89-.11,0s0,0,0,.08l.06,0,0,.18c.06,0,.07,0,.07-.15S11.86,10.79,11.87,10.73ZM12.11,18h0a.4.4,0,0,0,0-.11.24.24,0,0,0-.06-.08s0,0,0,0a.18.18,0,0,0,0,.1S12.08,17.91,12.11,18Zm1.81-5.51v0c.19.1.19.13.25,0Zm-.2-1,.1-.08-.1-.08a.47.47,0,0,0-.06.09S13.69,11.42,13.72,11.45Zm2.73,2.47-.08-.09-.06.06s.06.08.09.13Zm-5.2,1.62s.05.09.08.09.05,0,.05-.07,0-.11-.06-.1S11.28,15.51,11.25,15.54Zm3.95-5.25v0l-.09-.13-.14.09ZM16,17.42l0,0h.07v0s0,0,0,.06,0,0,0-.06a.63.63,0,0,0,0-.14Zm-.39-6.27,0,0,.12,0s0-.07,0-.07a.11.11,0,0,0-.09,0S15.59,11.12,15.57,11.15Zm4.91-2.3.11-.3h0a.39.39,0,0,0-.08.1.94.94,0,0,0,0,.16h0Zm-8.94,7.92a.49.49,0,0,0,.15,0s0,0,0,0-.08-.06-.08-.05A.73.73,0,0,0,11.54,16.77Zm4.84-2.53a.1.1,0,0,0-.14,0s0,.07,0,.07S16.35,14.3,16.38,14.24Zm.84,4.37s-.08.07,0,.13,0,0,.06,0S17.27,18.66,17.22,18.61Zm-5.76-8.8h0l0-.06s0-.1.07-.11,0,0,0-.07l-.06,0V9.55h0Zm5.15.9c.05.14.14.16.23.07C16.77,10.76,16.67,10.8,16.61,10.71Zm.28,7.56c-.08,0-.11.06-.1.15S16.9,18.36,16.89,18.27ZM11.59,5.59h.22l0,0h-.19ZM14,13.53l0,0-.14.08v0h.11S14,13.55,14,13.53ZM12.08,5.7c-.09,0-.08.06-.07.1s0,0,.05.06h0ZM11.9,11l0,0s.06-.07.06-.11a.51.51,0,0,0-.05-.12Zm5.82,0-.14-.1,0,0,.06.13Zm1.72.26v0l0,.09.06-.06,0-.06h-.06Zm-7.68-2-.14.07.08.07v-.1l.07.11Zm1.1,8.21,0-.05-.1.06,0,.06Zm3.7-5.66,0,0s0,.07.05.07l.08,0v0Zm0,.78,0,.06.09.05h.06l0-.05Zm-.73-.46v.05h.11s0-.07,0-.07ZM12.49,18h0s0-.06,0-.07-.09,0-.1,0S12.5,17.91,12.49,18Zm3.26-4.79,0,0,.07-.07,0,0Zm-1.94-.8.13,0s0,0,.06,0v0h-.2Zm-.27,5.71L13.42,18s.13.08,0,.12a0,0,0,0,0,0,0h0ZM16,12.59l.19.08C16.24,12.6,16.14,12.56,16,12.59Zm.21.4-.09.09.05,0C16.26,13.1,16.27,13.07,16.24,13Zm4.25-4h0a.5.5,0,0,1-.07.08c-.07.06,0,.07,0,.08Zm-8,9.65h0l0,.09v0l.09,0Zm4.36.37,0,0a.15.15,0,0,0,0-.06s-.05,0-.08,0Zm-3.47-1.26.12.14C13.51,17.75,13.51,17.74,13.41,17.75Zm3.48-6.11c.06,0,.08,0,0-.08l-.07,0ZM13.3,18.35l-.09,0s0,0-.05,0,0,0,.06,0S13.26,18.37,13.3,18.35Zm.9-5.9s0-.08,0-.08l-.15,0Zm5.17-1.21h0l0-.15-.08,0ZM12.22,19h0s0-.06,0-.07,0,0-.08,0Z"/><path class="cls-1" d="M17.48,8.28l-.19.07c0,.23,0,.47,0,.71s.07.19.09.29a.44.44,0,0,1,0,.32.33.33,0,0,1-.36.15c-.06,0-.06-.09,0-.15a1.55,1.55,0,0,1,.06-.23.24.24,0,0,0,0-.26.23.23,0,0,1,0-.25.26.26,0,0,0,0-.23l-.11-.16A1.29,1.29,0,0,1,16.71,8a1.4,1.4,0,0,1,0-.41,1.83,1.83,0,0,1,.06-.25.1.1,0,0,0,0-.11.3.3,0,0,1-.13-.35s0,0,0-.07h0c.12,0,.16-.11.21-.19h0a1.16,1.16,0,0,1,.18-.2A.21.21,0,0,0,17,6.32h0l.42-.25.11.06V6l-.12,0V6l-.12.1,0,0s.09-.1,0-.16,0,.11-.05.1v-.1l-.13,0,0-.08h0L17.07,6s0,0,.1-.23l-.05,0,.14,0-.07,0c.07,0,0-.12,0-.18h0V5.22L17,5.28h0a1,1,0,0,1,.17-.1s0-.06.05,0,.06,0,.07,0a1.36,1.36,0,0,0,.06-.29c0-.13,0-.27,0-.41a.38.38,0,0,1,.05-.15A.42.42,0,0,0,17.44,4h-.05l0-.16-.07,0,0-.1h0l0-.08s-.06-.1-.11-.13A1.19,1.19,0,0,1,17,3.15a1.17,1.17,0,0,1-.08-.36,2.44,2.44,0,0,1,0-.54,1.34,1.34,0,0,1,.31-.8,1,1,0,0,1,.68-.34.65.65,0,0,1,.13,0s.06,0,.09,0a.48.48,0,0,1,.29.17.66.66,0,0,1,.14.2,1.72,1.72,0,0,1,.16.43,4.62,4.62,0,0,1,.06.65,2,2,0,0,1,0,.43,1,1,0,0,1-.11.27,1.21,1.21,0,0,0-.05.18,2,2,0,0,0-.06.26s0,0,0,0,0,.07,0,.1l-.09.19,0-.07,0,0v.12l.06,0,0,.31c-.05,0-.1,0,0,.1s0,.1-.07.09a.34.34,0,0,1-.06.32V4.75h0a.14.14,0,0,0,0,.06l-.06.34L18,5.19a.14.14,0,0,1,0-.06.06.06,0,0,0,0,0l0,.18.14,0,0,.21h0l.08-.09s0,.08,0,.1,0,.09.06.13l-.12.1h0l0,0c.08.08,0,.15,0,.22a.41.41,0,0,1-.07.15,1.77,1.77,0,0,1-.16.22.12.12,0,0,0,0,.14,1,1,0,0,1,.09.48c0,.1,0,.21,0,.32s0,.1-.1.09v0c.09.07,0,.14,0,.22a.84.84,0,0,1-.34.4c-.08.06-.12.12,0,.25a.45.45,0,0,1,0,.12Zm.67-4,.06,0,.06-.35a.19.19,0,0,0-.08.07.13.13,0,0,0,0,.05c.07.07,0,.14,0,.21l0-.07s-.07.12,0,.15a.07.07,0,0,0,0,0S18.15,4.26,18.15,4.24Zm-.7-.38,0,0h.09c0-.05,0-.12-.06-.11S17.47,3.83,17.45,3.86ZM17.2,5.8v0l.08,0,0-.11Zm.26-4.5v.1l.09,0h0a.1.1,0,0,0,0,0Z"/><path class="cls-1" d="M15.43,2.78s0,.05,0,.05a.14.14,0,0,1,.11.15l-.06.67c0,.14,0,.28,0,.42s0,.2-.06.3a1.7,1.7,0,0,1-.12.34c-.06.09,0,.19-.09.27l.13.09c-.14,0-.14,0-.16.14.16,0,.15,0,.2.18a1.48,1.48,0,0,0,.12.29.73.73,0,0,1,0,.46c0,.15-.07.3-.11.44a.74.74,0,0,1-.38.5.26.26,0,0,0-.15.28.65.65,0,0,0,0,.14l0,.1,0-.15h0a.17.17,0,0,1,0,.07c0,.08,0,.14,0,.21a.65.65,0,0,1,0,.2S15,8,15,8s.07.05,0,.12v-.1l0,0a.2.2,0,0,1-.25.09c-.08,0-.11-.13-.12-.22s0-.36,0-.54a.52.52,0,0,0-.26-.34.47.47,0,0,1-.25-.36c0-.11,0-.22,0-.33s0-.34.08-.51.11-.24.09-.38h0c.14,0,0-.13.09-.18l0,0,.05-.17,0,.1.05-.1c.13.05,0-.08.09-.11h-.13s-.08,0-.09-.05,0-.07,0-.09,0-.15.11-.18,0,0,0-.06l-.06.1V4.67h0l-.06.2h0a.62.62,0,0,1,0-.13s0-.07,0-.11a.05.05,0,0,0,0,0v0l.08-.07a.28.28,0,0,1,0,.09s0,.08.06.07,0-.05.06-.08l.12.07.11,0-.05.2h0s-.08,0,0,.06.07,0,.1.06l0-.14h0V4.9h0l0,0V4.73l-.13,0,0-.1h0s.1,0,.11-.06-.08-.07-.12-.12l0,.11,0-.07-.06,0,0-.1h0l0,.07h0V4.38l0,0,.11.13s0-.06,0-.08-.07-.08-.11-.12l0,0,0,0c0-.15-.09-.25-.11-.4l0,.07c-.15-.06-.25,0-.35.11v0l.2-.2,0,0,.16-.12a1.12,1.12,0,0,1,.08-.46.11.11,0,0,0,0-.08l.07,0v0h-.06v0l.08,0,0-.1h0v.08a1.53,1.53,0,0,0,.11-.39.6.6,0,0,0,0-.37l-.05.16h0l0-.13H14.5l0-.08a1.62,1.62,0,0,1,0-.19.55.55,0,0,0-.11-.3.19.19,0,0,1,0-.08c0-.1,0-.19,0-.27s0-.09,0-.1.05-.11.07-.16.05-.2.09-.29L14.68.5A.71.71,0,0,1,15,.21a.63.63,0,0,1,.81.14s0,.09.06.12.07.07.11.11.09.06.07.14,0,.05,0,.07a.54.54,0,0,1,.17.38c0,.16,0,.33-.07.49s-.06.11-.08.17A1,1,0,0,1,16,2c-.08.13-.18.25-.27.38l-.06.09s0,0-.05.05,0,0,0,0-.07.11-.08.18l-.05,0ZM15,5.26c.12,0,.13,0,.09-.16H15M15.46.24c-.08,0-.14.1-.23,0V.36h.2Zm-.21,2.51.08,0,.06-.14h0Z"/><path class="cls-1" d="M6.94,11.43l-.07,0,0,.08,0-.06h0a.17.17,0,0,0,0,.07c.08.07.08.07,0,.19,0,0,0-.17-.1-.16s0-.1,0-.15-.11,0-.1-.06l0,0a.29.29,0,0,1,0-.09l0,0H6.58a.61.61,0,0,0-.07.14.14.14,0,0,0,0,.09.3.3,0,0,1,0,.29.14.14,0,0,0,0,.11,2.45,2.45,0,0,0,.08.29.41.41,0,0,1,0,.08,5.86,5.86,0,0,1,0,.59,1.17,1.17,0,0,1-.08.36.35.35,0,0,0,.09.34.28.28,0,0,1,.09.27.62.62,0,0,0,.1.44.49.49,0,0,1-.1.63.19.19,0,0,1-.2,0,.7.7,0,0,1-.23-.11.21.21,0,0,1-.08-.26l.1-.27a.19.19,0,0,0,0-.07l-.06-.49c0-.05,0-.09,0-.14,0-.28,0-.57,0-.85a3,3,0,0,1,.07-.79,1.34,1.34,0,0,0,0-.49A4.3,4.3,0,0,1,6,10.42c0-.15,0-.29-.07-.44s0-.27,0-.41S6,9.45,6,9.4l.08-.08v0H6a.09.09,0,0,1-.13-.07.12.12,0,0,0,0-.05l0,0L5.8,9.08S5.73,9,5.79,9s0-.07,0-.09A1.73,1.73,0,0,1,6,8.6a.9.9,0,0,1,.68-.34.75.75,0,0,1,.3,0,1.56,1.56,0,0,1,.37.17,1.42,1.42,0,0,1,.31.29,1.87,1.87,0,0,1,.34.6A2.7,2.7,0,0,1,8,9.75a.31.31,0,0,1,0,.08.73.73,0,0,1,0,.44c0,.06-.1.12,0,.2s0,.1-.06.14,0,.12,0,.18,0,.23,0,.34a.25.25,0,0,0,0,.12l-.05.08a.54.54,0,0,1,0,.1,1.13,1.13,0,0,1,0,.18.09.09,0,0,0,0,.05.36.36,0,0,0,0,.1.21.21,0,0,0,.06.08l-.05,0,.11,0a1.06,1.06,0,0,1,.07,1H8l-.07-.13c-.1,0-.06.13-.07.21a.14.14,0,0,1,0,.06h0c0-.08,0-.16,0-.23a.37.37,0,0,0,0-.11,1.14,1.14,0,0,0-.15-.23.28.28,0,0,1-.09-.1s0-.06,0-.08l-.06-.06h0c0-.1-.11-.05-.18-.09l0,.3,0,0,0-.36h-.1c0-.14-.05-.27-.07-.4s0,0,0-.07a.26.26,0,0,0,0-.17S7,11.46,6.94,11.43ZM6.46,8.5h0s.06-.08.06-.1a.12.12,0,0,0-.14-.08Z"/><path class="cls-1" d="M11.36,9.08h.06v0l-.07.08h0l0,.12h0l0-.21h0l0,.08s0-.2.07-.28v.06l.05-.06C11.44,8.94,11.39,9,11.36,9.08Z"/><path class="cls-1" d="M7.66,14.57s-.06,0-.06-.05a2.1,2.1,0,0,0-.06-.24s0,0-.09-.08,0,0,0,0a.73.73,0,0,1,.11.09c.08,0,0-.08,0-.13,0,.13.14.09.18.17l0,.05-.08-.08,0,.13-.06-.11h0Z"/><path class="cls-1" d="M14.13,4.22l.16,0-.07.07a.1.1,0,0,0,0,.07l0,0v.07h-.09c.06.06,0,.12,0,.18l0,.19h0l.06-.45-.08-.12,0,0,0,.09Z"/><path class="cls-1" d="M7.64,14v-.12l.16.08v-.32h0l.13.31,0,0-.06,0v.15l0-.07,0,.07,0-.11-.06,0Z"/><path class="cls-1" d="M7.74,14.93l0,0,0,0a.57.57,0,0,0,0,.14L7.67,15l0,.09h0c0-.08-.1-.15,0-.24l0,0c.09-.05,0-.11,0-.16Z"/><path class="cls-1" d="M19.87,10.28l-.07.1,0,0v0c0-.07,0-.13,0-.2h0L20,10s0,0,0,0,0,.12,0,.19l-.09,0v.13Z"/><path class="cls-1" d="M16.83,6.25l0,0s0-.14.09-.18l.09,0-.05.11,0,0,0,0-.08.07,0-.15Z"/><path class="cls-1" d="M14.1,5.23c0-.05,0-.08,0-.1s0-.08.06-.09a.1.1,0,0,1,.09,0s0,.07,0,.11l0,0-.09.1V5.16Z"/><path class="cls-1" d="M17.8,19.13c-.05,0-.05-.07,0-.11a.24.24,0,0,0,.05-.1c0-.06,0-.09.08-.11s0,0,0-.07h0l-.09.19,0,.12S17.81,19.11,17.8,19.13Z"/><path class="cls-1" d="M17,5.53a.38.38,0,0,1-.14.28L17,5.59l-.07,0V5.48l0,.06L17,5.47l0,.12L17,5.53Z"/><path class="cls-1" d="M7.24,14.11l0-.15-.06,0v0l0,0v0l0,0,.06,0h0s0,0,0,0S7.26,14,7.24,14.11Z"/><path class="cls-1" d="M18.62,17.5c0,.18-.18.3-.25.46h0l.07-.15a1.4,1.4,0,0,1,.1-.16A1.34,1.34,0,0,1,18.62,17.5Z"/><path class="cls-1" d="M17.52,9.41l.05.06,0,0c0,.08,0,.18,0,.26s0,.05,0,.08h0a.42.42,0,0,1,0-.1s0,0,0,0S17.54,9.48,17.52,9.41Z"/><path class="cls-1" d="M7.25,14.14l.09.07c-.06,0,0,.1,0,.15s0,.13.05.19h0l-.15-.41Z"/><path class="cls-1" d="M11.13,9.44s0,0,0,.05,0,.17-.05.25a.28.28,0,0,1-.07.09c0-.05,0-.1,0-.13a.11.11,0,0,0,0-.08C11,9.55,11,9.47,11.13,9.44Z"/><path class="cls-1" d="M15.07,8.31l.06,0c0,.11.07.19.1.29h-.07C15.14,8.53,15,8.44,15.07,8.31Z"/><path class="cls-1" d="M17,5.53a.1.1,0,0,0,0-.14s0,0,0,0v0l.2.06h0l-.14.11-.06,0Z"/><path class="cls-1" d="M7.64,14c0,.11-.07.13-.15.15l0,0s0,0,.05-.14l.07.05Z"/><path class="cls-1" d="M17.48,8.29l.05-.08h0l-.08.41h0c0-.11,0-.22,0-.34Z"/><path class="cls-1" d="M19.87,12l-.05-.13a.52.52,0,0,1,0-.11l0-.05s0,0,0,0a.06.06,0,0,1,0,.06A2.07,2.07,0,0,1,19.87,12Z"/><path class="cls-1" d="M7.7,15.65a.62.62,0,0,0,0-.13l0,0c0-.06-.08-.11,0-.17h0a2.76,2.76,0,0,1,.08.27s0,0,0,.06Z"/><path class="cls-1" d="M14,5.67l0,.07h0l0-.17H14c0-.07-.06-.14.06-.19Z"/><path class="cls-1" d="M7.67,13v0l-.06.07c-.08-.06-.07-.09.05-.2S7.68,13,7.67,13Z"/><path class="cls-1" d="M14.43,3.07l-.06.38h0l.06-.38Z"/><path class="cls-1" d="M16.56,6.81s0-.1,0-.1,0,0,0-.06a.28.28,0,0,1,0-.09s0,0,0,0,0,.05,0,.07,0,0,0,.06,0,.12-.07.16Z"/><path class="cls-1" d="M7.87,14.07l0,.27h0c0-.07-.06-.13-.07-.19s0-.07,0-.1Z"/><path class="cls-1" d="M7,11.86c-.06.06,0,.16,0,.22C6.89,12,6.91,11.86,7,11.86Z"/><path class="cls-1" d="M7.57,13.85s0-.11,0-.17l.08,0v.22Z"/><path class="cls-1" d="M14.52,4.52c-.09,0-.1,0-.15-.08s.09,0,.12,0v0S14.53,4.43,14.52,4.52Z"/><path class="cls-1" d="M11.06,12.49l.1.08-.07,0,0,.09C11,12.61,11.06,12.57,11.06,12.49Z"/><path class="cls-1" d="M19.78,11.76a.37.37,0,0,0,0,.11.29.29,0,0,0,0,.09h-.06l0-.12.07-.07Z"/><path class="cls-1" d="M19.56,14.4l-.13-.16C19.55,14.24,19.56,14.26,19.56,14.4Z"/><path class="cls-1" d="M16.71,6.13l.11-.21h0l-.09.22Z"/><path class="cls-1" d="M11.23,8.73v.08a.29.29,0,0,1,0,.09s0,0,0,0l0,0,.06-.16Z"/><path class="cls-1" d="M18.36,5l-.12.09V5Z"/><path class="cls-1" d="M7.79,15.39a.18.18,0,0,1,0-.23Z"/><path class="cls-1" d="M11,9V8.79h0V9Z"/><path class="cls-1" d="M6.94,12.22h.11L7,12.32l0,.06,0,0Z"/><path class="cls-1" d="M14.58,2.67l0,0,0,.12s0,0,0,0a.06.06,0,0,1,0,0A1.31,1.31,0,0,1,14.58,2.67Z"/><path class="cls-1" d="M6.93,12.38l.05.21h0l0-.21Z"/><path class="cls-1" d="M11.42,9.88a.43.43,0,0,1-.05.3l.05-.3Z"/><path class="cls-1" d="M7.05,13.9v.21A.14.14,0,0,1,7.05,13.9Z"/><path class="cls-1" d="M14,4.42s.14.07.06.17Z"/><path class="cls-1" d="M20.56,9.49l-.12.08V9.44Z"/><path class="cls-1" d="M7,12.68l0,.18H7l0-.19Z"/><path class="cls-1" d="M7.23,14.35l-.09-.13.07,0,0,.14Z"/><path class="cls-1" d="M12.2,8.73s0,.07,0,.1,0,.05,0,.08c0-.13,0-.13.06-.18Z"/><path class="cls-1" d="M8.15,15.52l.06.17h0l-.1-.19h.06Z"/><path class="cls-1" d="M16.77,6.62s0,0,0,0a.36.36,0,0,1,0-.1h.07l-.08.16Z"/><path class="cls-1" d="M7.49,14.75l0,.16h0s0-.11,0-.16Z"/><path class="cls-1" d="M19.84,8.24c0,.1,0,.14-.1.15a1.17,1.17,0,0,0,.05-.11.1.1,0,0,1,.05,0Z"/><path class="cls-1" d="M19.1,10c0-.14,0-.14.08-.1Z"/><path class="cls-1" d="M16.57,9.81l0-.06c.09,0,.1,0,.14.09l-.1,0Z"/><path class="cls-1" d="M17.31,13.62l-.17.1,0-.13.07-.06Z"/><path class="cls-1" d="M17.13,13.38h.19l-.08.1-.12-.07Z"/><path class="cls-1" d="M15.77,13.46s-.07.1-.11,0h-.08s0,0,0-.05h0Z"/><path class="cls-1" d="M13.94,12.88h.22l0,.07-.25-.06Z"/><path class="cls-1" d="M14.31,13.23l-.26,0A.26.26,0,0,1,14.31,13.23Z"/><path class="cls-1" d="M14.89,13l-.09,0-.05,0,.07,0s.06,0,.09.07Z"/></g></svg>