<svg id="ROOMS_LOGOS" data-name="ROOMS LOGOS" xmlns="http://www.w3.org/2000/svg" viewBox="0 0 52.44 47.85"><path d="M32.53,18a8,8,0,0,1,1.67-1.46,45.77,45.77,0,0,1,4.16-2.45c1.82-1,3.67-1.87,5.41-3Q45.89,9.79,48,8.4C48.52,8,49,7.59,49.56,7.19A1,1,0,0,1,49.94,7a.63.63,0,0,1,.68.5,1.16,1.16,0,0,1-.14.94,5,5,0,0,1-1.39,1.49c-1.11.83-2.25,1.63-3.39,2.42-.77.53-1.56,1-2.35,1.5a3.71,3.71,0,0,1-1.75.58,1.23,1.23,0,0,0-.22.08l.17.16a.51.51,0,0,1,0,.89,12.77,12.77,0,0,1-1.28.77,7.69,7.69,0,0,1-.72.28.68.68,0,0,0-.26.18.2.2,0,0,0,0,.2s.12.05.17,0l1.7-.64c.28-.11.44-.11.55,0a.49.49,0,0,1,0,.66,4.1,4.1,0,0,1-.77.54,11.72,11.72,0,0,1-1.32.53c-.12.05-.17.12-.14.22a.29.29,0,0,0,.2.16,1.6,1.6,0,0,0,.93-.24,1.42,1.42,0,0,1,1-.17.42.42,0,0,1,.28.66,1,1,0,0,1-.42.33,4.75,4.75,0,0,1-1.79.34,1.12,1.12,0,0,0-.32,0,.82.82,0,0,0-.2.12c.06.06.12.18.18.18.43,0,.87,0,1.3,0,.16,0,.28,0,.35.16a.32.32,0,0,1-.09.45,1.73,1.73,0,0,1-.66.23,3.05,3.05,0,0,1-1.34-.18l-.23,0,0,0a.79.79,0,0,0,.14.18,1.65,1.65,0,0,0,1.12.43c.35,0,.41.07.47.37a.56.56,0,0,1-.32.67,2,2,0,0,1-1.43,0c-.19-.06-.37-.12-.56-.16a1.31,1.31,0,0,0-.28,0l0,.07a1.07,1.07,0,0,0,.22.15,10.82,10.82,0,0,0,1.09.38,1.1,1.1,0,0,1,.66.37c.2.29.12.51-.22.59a1.92,1.92,0,0,1-1.18-.15c-.14-.05-.26-.13-.4-.17a.59.59,0,0,0-.22.05c0,.07,0,.17.07.2a6.19,6.19,0,0,0,.67.36,2.09,2.09,0,0,0,.35.13c.3.1.39.23.36.47a.53.53,0,0,1-.49.54,1.5,1.5,0,0,1-1-.24,2.6,2.6,0,0,1-.81-.87c-.07-.12-.14-.24-.22-.35a1,1,0,0,0-.18-.17.69.69,0,0,0,0,.57,2.68,2.68,0,0,0,1.05,1.21.54.54,0,0,1,.16.62.41.41,0,0,1-.48.3,1.88,1.88,0,0,1-.56-.2,2.82,2.82,0,0,1-1.15-1.07c0-.05-.12-.06-.18-.09s0,.13,0,.18a2.58,2.58,0,0,0,1,1.41.4.4,0,0,1,.16.62.37.37,0,0,1-.48.23,2.55,2.55,0,0,1-1.66-1.24s0-.09-.08-.11-.12,0-.14,0a.22.22,0,0,0-.06.16,2,2,0,0,0,.71,1,.66.66,0,0,1,.21.79c-.06.17-.16.24-.3.14a2.66,2.66,0,0,1-.6-.51,8.19,8.19,0,0,1-.54-.77.55.55,0,0,0-.17-.13c0,.07-.08.15-.07.22a1.67,1.67,0,0,0,.16.4,1.63,1.63,0,0,1,.15,1.24c-.06.2-.13.26-.32.17a5.7,5.7,0,0,1-.61-.39.32.32,0,0,0,0,.36.78.78,0,0,0,.54.46.52.52,0,0,1,.21.14c.39.47.76,1,1.15,1.41.08.1.21.16.27.26a.83.83,0,0,1,.17.4.26.26,0,0,0,.11.23c.4.32.8.64,1.18,1a1,1,0,0,1,.25.42c.12.28.1.32-.23.42l.34.45a.62.62,0,0,1,.1.35,1.14,1.14,0,0,0,.22.56c.28.36.3.45,0,.81a.2.2,0,0,0,0,.08c0,.31,0,.31-.34.32,0,.24-.08.48-.1.72a.16.16,0,0,0,.07.14,2.07,2.07,0,0,0,1,.4.44.44,0,0,0,.28-.09c.22-.1.44-.2.65-.32a.5.5,0,0,0,.22-.21q.32-.9.6-1.8c.44-1.39.87-2.78,1.31-4.17a1.18,1.18,0,0,0,0-.2c0-.1.07-.21,0-.29s-.16,0-.25-.07-.17-.13-.06-.27c.26-.33.54-.65.77-1,.35-.52.68-1.05,1-1.58.05-.07.08-.15.13-.21a.48.48,0,0,1,.14-.09c0,.06.08.13.07.18,0,.25-.09.5-.13.75s0,.23,0,.37c.37-.09.46-.47.75-.69a1,1,0,0,1,.08.24l-.12,1.16a1.2,1.2,0,0,0,0,.19c.43-.17.56-.66.93-.87l.06,0L44,29.23a1.54,1.54,0,0,0,.24-.17c.23-.28.45-.58.68-.86a.48.48,0,0,1,.14-.09c0,.06.07.12.06.17-.1.61-.21,1.21-.31,1.81,0,.14-.06.18-.19.13s-.23-.08-.26.17-.1.74-.16,1.11-.15.3-.35.13a2.45,2.45,0,0,1-.2-.18,2.5,2.5,0,0,0-.16.24c-.56,1-1.11,2-1.66,3l-1.2,2.19a.49.49,0,0,0,0,.47.56.56,0,0,1-.12.72.65.65,0,0,0-.14.44,2.21,2.21,0,0,1-.09,1c-.06.17-.1.34-.16.51a.72.72,0,0,1-.62.58l-.22.06a.76.76,0,0,1-.67,0,2,2,0,0,0-.91-.24c-.2,0-.32-.16-.4-.33a.92.92,0,0,0-.48-.49c-.13-.06-.13-.14-.09-.26a1.21,1.21,0,0,1,.48-.59l.21-.15a1.89,1.89,0,0,0-.38-.37c-.39-.2-.81-.38-1.21-.56,0,0-.1,0-.13,0a.41.41,0,0,1-.47-.07c-.17-.1-.25-.07-.32.12s-.17.19-.3.09l-.39-.3c-.22.15-.22.15-.48,0s-.25-.18-.39,0a.12.12,0,0,1-.14,0c-.11-.11-.26-.23-.29-.37a.61.61,0,0,0-.31-.44l-.31-.22a.6.6,0,0,0-.06.11,2.21,2.21,0,0,1-1.27,1.29c-.32.14-.66.24-1,.37a.24.24,0,0,0-.13.13,2.91,2.91,0,0,0-.05,1.28,3.49,3.49,0,0,0,.39.74c.67,1,1.36,2,2,3.07.34.52.64,1.06,1,1.6.21.37.18.5-.12.82a1.54,1.54,0,0,1-.73.42A.38.38,0,0,1,31.8,46c-.52-1.28-1.24-2.47-1.88-3.7-.29-.57-.62-1.12-.93-1.68a1.48,1.48,0,0,0-.25-.3s-.14,0-.2,0,0,.14,0,.19c.25.48.52.95.77,1.43.38.75.76,1.5,1.13,2.25.23.48.43,1,.67,1.45a.71.71,0,0,1-.14.88,1.78,1.78,0,0,1-1.95.47.3.3,0,0,1-.16-.2c-.05-.23-.06-.48-.11-.71-.17-.83-.34-1.66-.53-2.48s-.42-1.66-.63-2.5c0,0,0-.11,0-.14a1,1,0,0,0-.17-.12c0,.06-.1.12-.09.17.06.34.13.67.2,1,.31,1.35.61,2.7.93,4a.94.94,0,0,1-.5,1.14,2,2,0,0,1-1.51.24.67.67,0,0,1-.21-.09c-.24-.13-.28-.25-.25-.52.06-.71.12-1.41.16-2.12.05-1,.09-2,.13-3,0-.21,0-.42,0-.63s-.06-.15-.09-.23H26.1a5.58,5.58,0,0,0-.08.57c-.09,1-.17,2-.24,3-.05.72-.07,1.44-.1,2.16a.79.79,0,0,1-1.06.77c-.48-.1-.65-.37-.53-.88s.28-1.17.41-1.75c.22-1,.43-2,.64-3a1.29,1.29,0,0,0,0-.34.54.54,0,0,0-.1-.18H25c-.13.42-.27.85-.37,1.28-.32,1.4-.62,2.8-.93,4.19-.07.33-.14.38-.47.42A1.44,1.44,0,0,1,22,46.5a.53.53,0,0,1-.13-.67c.32-.73.65-1.46.95-2.21.38-.95.74-1.91,1.1-2.87,0-.06.06-.11.05-.17a.8.8,0,0,0-.07-.2c-.05,0-.13.07-.16.12-.16.32-.31.65-.45,1-.57,1.29-1.13,2.59-1.69,3.89-.08.2-.13.41-.2.61a.4.4,0,0,1-.66.23,1.86,1.86,0,0,1-.74-.65.65.65,0,0,1,0-.72c.28-.47.59-.92.85-1.39.6-1.12,1.18-2.25,1.78-3.37a1.15,1.15,0,0,0,.11-1c-.11-.35-.25-.69-.39-1,0-.06-.11-.1-.17-.13-.32-.18-.65-.33-1-.53a2.61,2.61,0,0,1-.9-1.17L20.19,36h-.06c0,.14,0,.27-.05.41s0,.28,0,.42a.36.36,0,0,1-.38.4.22.22,0,0,0-.14.09,1.49,1.49,0,0,0-.13.25s-.08.12-.13.14c-.24.11-.49.21-.75.31-.05,0-.13,0-.2,0s-.19-.07-.28-.12a.37.37,0,0,1-.13-.12,2.55,2.55,0,0,1-.13-.29l-2.65,1a1.71,1.71,0,0,0-.23.13.49.49,0,0,0-.1.78c.64.66,1.26,1.35,1.88,2a3.83,3.83,0,0,0,1,.78c.06,0,.14.12.13.17a.27.27,0,0,1-.13.22,1,1,0,0,1-1.16-.14c-.44-.48-.9-.94-1.34-1.42s-.72-.84-1.07-1.26a.31.31,0,0,0-.37-.12.64.64,0,0,1-.7-.09.81.81,0,0,0-.27-.11.84.84,0,0,1-.6-.77c0-.27-.09-.55.22-.78h-.17a3,3,0,0,1-2.46-.6c-.35-.27-.66-.59-1-.89a.53.53,0,0,1-.13-.27c-.06-.21,0-.3.26-.27.62.1,1.24.17,1.85.3a4.18,4.18,0,0,1,1.54.61.2.2,0,0,0,.08,0s0,0,.06,0a1,1,0,0,0-.06-.16c-.18-.34-.37-.67-.55-1a.19.19,0,0,0-.26-.11,3.39,3.39,0,0,1-2.28-.28,3,3,0,0,1-1.08-.79c-.18-.2-.37-.4-.54-.6a.58.58,0,0,1-.08-.22.68.68,0,0,1,.23-.05c.68.11,1.36.22,2,.36a4.27,4.27,0,0,1,1.34.69l.19.13a.94.94,0,0,0-.05-.17c-.17-.36-.35-.72-.53-1.07a.18.18,0,0,0-.17-.08,1.44,1.44,0,0,1-1,0,3.9,3.9,0,0,1-1.78-.95c-.28-.26-.58-.5-.86-.76,0-.05-.13-.15-.11-.19a.28.28,0,0,1,.21-.13,3.61,3.61,0,0,1,2,.23,2.33,2.33,0,0,1,1.1.72s.09.06.13.09l.06,0-.7-1.54a2.72,2.72,0,0,1-2.93-.73,7.46,7.46,0,0,1-.67-.8.2.2,0,0,1,0-.15s.08-.05.13-.05a4.71,4.71,0,0,1,1.9.22,4.24,4.24,0,0,1,.77.46.51.51,0,0,0,.48.08c-.13-.31-.25-.6-.38-.89a.26.26,0,0,0-.32-.13,3.12,3.12,0,0,1-3.11-1.3c-.17-.21-.13-.28.14-.32a4,4,0,0,1,1.47,0A2.74,2.74,0,0,1,8.42,28l.09.08.06,0c0-.05,0-.09,0-.11-.15-.31-.3-.63-.47-.93A.22.22,0,0,0,7.91,27,2.78,2.78,0,0,1,6,26.48a5.79,5.79,0,0,1-.61-.5l-.59-.5a.86.86,0,0,1-.14-.13.23.23,0,0,1,.12-.4,1.56,1.56,0,0,1,1,.1,5.12,5.12,0,0,1,1.64,1.13.69.69,0,0,1,.13.11l.07,0a1,1,0,0,0-.34-.53,3.94,3.94,0,0,1-1.53-1.91,14.13,14.13,0,0,1-.42-1.58.28.28,0,0,1,0-.24s.15,0,.22,0a3.88,3.88,0,0,1,1.59,1.36A2.53,2.53,0,0,1,7.4,24a1,1,0,0,0,.13.3A3,3,0,0,1,8,22.75a1,1,0,0,1,.38.72c.1.57.23,1.14.28,1.72a3.2,3.2,0,0,1-.15.9,1.48,1.48,0,0,1-.1.27c0,.13-.17.28-.14.39a2.85,2.85,0,0,0,.37.74,3.08,3.08,0,0,1,.24-1.31c.19-.39.41-.78.63-1.2a1.08,1.08,0,0,1,.16.26A4.29,4.29,0,0,1,10,26.7a10.68,10.68,0,0,1-.2,1.13,1.53,1.53,0,0,1-.32.57c-.21.25-.24.33,0,.68l.14.19c0-.23.07-.42.1-.61a2.31,2.31,0,0,1,.73-1.4l.3-.29s.12-.08.16-.06a.24.24,0,0,1,.11.15c0,.44.07.87.06,1.31a4.11,4.11,0,0,1-.42,1.85,1.66,1.66,0,0,1-.22.3c-.26.28-.21.47.08.87a1.6,1.6,0,0,0,.08-.23,3.24,3.24,0,0,1,.84-1.81c0-.05.11-.07.2-.13a8.23,8.23,0,0,1,.2.87,5.5,5.5,0,0,1,0,1.62,2,2,0,0,1-.47.94c-.25.32-.12.58,0,.92a1.23,1.23,0,0,0,.08-.22,3.81,3.81,0,0,1,1.05-2.14.44.44,0,0,1,.16-.1c0,.06,0,.12,0,.17a2.71,2.71,0,0,0,.09.41,2.58,2.58,0,0,1-.36,2.59,1.11,1.11,0,0,0-.14,1.16c0,.07.13.1.19.15s.11-.14.11-.2A2.57,2.57,0,0,1,13.08,34c.21-.31.38-.63.58-.94a.7.7,0,0,1,.16-.14c.09.5.19,1,.25,1.44a4.16,4.16,0,0,1-.19,1.4c-.06.24-.12.49-.19.75a1.3,1.3,0,0,1,.75.56.68.68,0,0,0,.82.23c.41-.14.81-.3,1.21-.47s.28-.18.23-.48c-.19.09-.34.06-.38-.17,0,0-.09,0-.13-.05a3.7,3.7,0,0,1-.48-.09c-.08,0-.18-.12-.18-.18,0-.35-.09-.7.18-1-.35-.25-.2-.53-.06-.81a1.62,1.62,0,0,1,.1-.18.78.78,0,0,0,.16-.57.54.54,0,0,1,.21-.49c.17-.17.31-.37.48-.54s.49-.48.74-.73a7.73,7.73,0,0,0,.9-.91,3.94,3.94,0,0,0,.37-.92.9.9,0,0,0,0-.16c.06-.25.1-.27.33-.18a.78.78,0,0,0,.84-.26c0-.06.05-.16,0-.19a.43.43,0,0,0-.2-.06.33.33,0,0,0-.13,0,.36.36,0,0,1-.56-.21.8.8,0,0,1,0-.69c.2-.39.35-.81.52-1.21,0,0,0-.08,0-.11a1.72,1.72,0,0,0-.07-.21c-.06,0-.15.06-.19.11-.21.35-.4.72-.61,1.07-.1.16-.22.31-.33.47a.39.39,0,0,1-.46.16.52.52,0,0,1-.35-.43,1.6,1.6,0,0,1,.24-.9c.15-.25.29-.5.43-.76s.26-.41,0-.66a3.58,3.58,0,0,1,.48-.09.23.23,0,0,1,.15.11c.1.14.17.3.27.44a.45.45,0,0,0,.66,0,.2.2,0,0,0,0-.15s-.08-.06-.12-.07c-.38,0-.44-.12-.44-.48v-.31c0-.19-.05-.21-.22-.12s-.34.17-.51.24-.38,0-.42-.24a.93.93,0,0,1,.26-.76.88.88,0,0,0,.07-.23.65.65,0,0,0-.24,0,3.81,3.81,0,0,1-.44.15,2.09,2.09,0,0,1-.61,0,.44.44,0,0,1-.31-.71c0-.06.08-.11.11-.17s.13-.26.18-.4,0-.25-.2-.2a6.1,6.1,0,0,1-.72.14,1.11,1.11,0,0,1-.5-.09.23.23,0,0,1-.15-.32c.09-.23.21-.44.32-.66a1.29,1.29,0,0,0,.07-.21.83.83,0,0,0-.22,0,2.36,2.36,0,0,1-1.09-.06c-.38-.12-.44-.35-.18-.65a1.65,1.65,0,0,1,.9-.58c.07,0,.16-.09.16-.14a.23.23,0,0,0-.18-.27l-.19,0A1.54,1.54,0,0,1,14,19.18a.31.31,0,0,1-.1-.35.91.91,0,0,1,.89-.72s.08,0,.11,0,.15-.1.15-.15-.08-.13-.14-.17-.37-.15-.55-.24a.38.38,0,0,1-.16-.17c-.12-.27,0-.43.26-.46a2.46,2.46,0,0,1,.26,0c.14,0,.16-.11.06-.2a.79.79,0,0,0-.91-.1.64.64,0,0,0-.09.86.78.78,0,0,1,.11.2.3.3,0,0,1,0,.36,1.5,1.5,0,0,0-.41.94.79.79,0,0,0,.66.8c.25.06.3.18.13.39l-.34.41a.54.54,0,0,0,.07.8,1.72,1.72,0,0,0,.88.37c.17,0,.2.1.18.24a.76.76,0,0,1,0,.21c-.14.48.15.76.61.89a2.49,2.49,0,0,0,.47,0c.23,0,.27.06.24.29a1.72,1.72,0,0,0,0,.45.55.55,0,0,0,.19.32,1.57,1.57,0,0,0,.93.22c.33,0,.38.09.28.41s0,.44.26.56c.13,0,.15.12.07.22-.38.47-.75.95-1.14,1.4a.54.54,0,0,1-.53.19.44.44,0,0,1-.42-.42,1.94,1.94,0,0,1,0-.24.37.37,0,0,1,.18-.36,2.49,2.49,0,0,0,1.1-1.29,1.23,1.23,0,0,0,0-.19.53.53,0,0,0-.19.06c-.28.26-.54.53-.82.78a3.7,3.7,0,0,1-.65.47.51.51,0,0,1-.7-.15.59.59,0,0,1,.14-.75,4.09,4.09,0,0,0,.9-1,1,1,0,0,0,.06-.2.69.69,0,0,0-.25,0c-.08,0-.14.1-.21.15-.35.29-.69.58-1,.85a.8.8,0,0,1-1,0c-.22-.13-.27-.31-.08-.49a2.41,2.41,0,0,1,.49-.31c.37-.23.74-.46,1.1-.7.06,0,.12-.17.1-.2a.23.23,0,0,0-.32-.06l-1.15.52a.82.82,0,0,1-.65,0,.48.48,0,0,1-.34-.47.57.57,0,0,1,.38-.54l1-.36a.82.82,0,0,0,.25-.12,1.1,1.1,0,0,0,.14-.21c-.08,0-.17-.1-.25-.09a2.19,2.19,0,0,0-.4.11,5.48,5.48,0,0,1-.79.23A.89.89,0,0,1,12,21.8a.88.88,0,0,1-.08-.46c0-.16.13-.24.3-.26S12.71,21,13,21a.92.92,0,0,0,.27-.08c.1,0,.27-.07.23-.22s-.2-.11-.31-.08a2.2,2.2,0,0,1-1.11,0l-.19-.07c-.15-.1-.32-.22-.27-.4a.6.6,0,0,1,.34-.28,2.52,2.52,0,0,1,.56-.09c.2,0,.41,0,.6,0s.15-.11.22-.17a.8.8,0,0,0-.21-.15,1.23,1.23,0,0,0-.28,0,8.64,8.64,0,0,1-1.14-.12,1.26,1.26,0,0,1-.74-.62.24.24,0,0,1,.19-.36,3.33,3.33,0,0,1,.77,0c.28,0,.56.15.84.21a.65.65,0,0,0,.31,0c.06,0,.1-.09.15-.14s-.09-.1-.15-.12c-.29-.1-.59-.18-.88-.27a3.82,3.82,0,0,1-1.47-.69,1.26,1.26,0,0,1-.31-.34c-.12-.18,0-.33.18-.37a2.94,2.94,0,0,1,1.68.22,6.26,6.26,0,0,0,.61.21,1.85,1.85,0,0,0,.33,0l0-.09a3.11,3.11,0,0,0-.44-.3,8.27,8.27,0,0,0-1.08-.41,1.35,1.35,0,0,1-1-1.27c0-.34-.07-.48-.39-.54a6.61,6.61,0,0,1-2.15-.91,26.1,26.1,0,0,1-4-2.71,13.65,13.65,0,0,1-2.13-2A1.14,1.14,0,0,1,1.9,7.44a.7.7,0,0,1,.88-.39,1.24,1.24,0,0,1,.74.49A7.88,7.88,0,0,0,5,9c1,.7,1.88,1.44,2.86,2.09a41.61,41.61,0,0,0,4.59,2.51c1.52.74,3,1.48,4.57,2.26A21,21,0,0,1,18.92,17a6.4,6.4,0,0,1,.73.65,2.94,2.94,0,0,1,.23.29,3.25,3.25,0,0,1,.91-1.08c.17-.17.17-.25,0-.46a3.3,3.3,0,0,0-1.1-1,18.18,18.18,0,0,0-3.29-1.45L11.05,12a4.92,4.92,0,0,1-1.74-1A1,1,0,0,1,9,9.66c.05-.12.11-.24.18-.38l-.38-.2A3.39,3.39,0,0,1,7.6,8.17a.74.74,0,0,1-.21-.53c0-.49.07-1,.1-1.47,0-.2,0-.39,0-.59a1.29,1.29,0,0,1,.62-1.1,1.64,1.64,0,0,1,.95-.34c.28,0,.41.13.41.4s0,.67,0,1c0,.18.08.23.22.26.64.14,1.28.26,1.91.42s1.46.39,2.18.62a1.19,1.19,0,0,1,.79.86.46.46,0,0,1-.05.41c-.17.25-.33.51-.49.76s-.11.22.11.28a37.76,37.76,0,0,1,4.63,1.48,14.68,14.68,0,0,1,2.56,1.23s0,0,0,0c-.23-.35-.45-.71-.69-1.06a.62.62,0,0,0-.27-.21,2.34,2.34,0,0,1-1.26-2c0-.26-.07-.52-.12-.78a.37.37,0,0,0-.11-.19,1.16,1.16,0,0,1-.29-1.06A2.48,2.48,0,0,1,19,5.44s0-.07.07-.09a.8.8,0,0,0,.33-.72,2.32,2.32,0,0,1,1.1-1.84,2.16,2.16,0,0,0,.61-.63A2.36,2.36,0,0,1,22.83,1,4.91,4.91,0,0,1,23.5,1a1,1,0,0,0,.58-.18A1.86,1.86,0,0,1,25.44.52c.27,0,.53.08.79.13a2,2,0,0,0,.95-.12,2.48,2.48,0,0,1,2.54.66.57.57,0,0,0,.28.14,1.22,1.22,0,0,0,.34,0,2,2,0,0,1,2,1.6.51.51,0,0,0,.28.37,2.1,2.1,0,0,1,.94,1.39,1.68,1.68,0,0,1,.07.5,1.18,1.18,0,0,0,.33.89,1.11,1.11,0,0,1,.27.67,1.91,1.91,0,0,1-.47,1.6c-.06.06-.06.2-.06.3s0,.41,0,.61A1.38,1.38,0,0,1,33,10.4a1.36,1.36,0,0,0-.5.61,3.39,3.39,0,0,1-.37.5,1.4,1.4,0,0,0,.17-.09A13.36,13.36,0,0,1,36.17,9.8l1.7-.46a1.58,1.58,0,0,0,.31-.13,4.68,4.68,0,0,1-.32-.41A.94.94,0,0,1,38,7.47a3.71,3.71,0,0,1,1.44-.89A9.46,9.46,0,0,1,41.93,6l.64-.06c.16,0,.27-.09.26-.26,0-.36,0-.72,0-1.08A.51.51,0,0,1,43.45,4a1.53,1.53,0,0,1,1.28,1.49c0,.65.06,1.3.1,2a1.47,1.47,0,0,1-.89,1.47,7.52,7.52,0,0,1-1,.36.65.65,0,0,0-.21.07.2.2,0,0,0-.08.17,1.73,1.73,0,0,0,.14.31,1.22,1.22,0,0,1-.25,1.4,4.38,4.38,0,0,1-1.76,1c-1,.36-2.08.68-3.1,1s-2.28.81-3.39,1.26a7.69,7.69,0,0,0-2,1.21,2.18,2.18,0,0,0-.62.82.41.41,0,0,0,.09.5C32,17.38,32.25,17.69,32.53,18Zm-4.38-5.44a2.46,2.46,0,0,0,2.06-.81,1,1,0,0,1,.41-.2c.15-.05.31-.06.46-.1a1.5,1.5,0,0,0,1.15-.84,1.58,1.58,0,0,1,.56-.69,1.13,1.13,0,0,0,.48-1,1.62,1.62,0,0,1,0-.44.65.65,0,0,1,.15-.36,1.58,1.58,0,0,0,0-1.88.89.89,0,0,1-.31-.75,2,2,0,0,0-.94-1.8L32,3.6a.46.46,0,0,1-.21-.39.82.82,0,0,0-.14-.44A3.59,3.59,0,0,0,31,2.18,1.24,1.24,0,0,0,30,2a.51.51,0,0,1-.57-.22,1.06,1.06,0,0,0-.27-.25,2.71,2.71,0,0,0-2.08-.26,1.44,1.44,0,0,1-1,0,2.29,2.29,0,0,0-2,.21c-.12.06-.25.15-.36.13a2.5,2.5,0,0,0-1.09.11,1.6,1.6,0,0,0-1.16.89A1,1,0,0,1,21,3a3.08,3.08,0,0,0-.68.56A3.05,3.05,0,0,0,19.74,5a1,1,0,0,1-.19.46,1.39,1.39,0,0,0-.43.72,1.32,1.32,0,0,0,.22,1.25.8.8,0,0,1,.17.33c0,.17,0,.35.08.52a7.52,7.52,0,0,0,.28,1.18,1.46,1.46,0,0,0,1,.88c.25.07.31.11.35.37a1.26,1.26,0,0,0,1.1,1.07,6.09,6.09,0,0,0,.85.07.41.41,0,0,1,.4.25,1,1,0,0,0,1.1.64,2,2,0,0,1,1.22.14h0a2.38,2.38,0,0,0,1.48-.2A1.37,1.37,0,0,1,28.15,12.57Zm3.71-.85a2.61,2.61,0,0,1-1.19.31.4.4,0,0,0-.32.16,2.09,2.09,0,0,1-1.77.85H28a.66.66,0,0,0-.25.07,2.44,2.44,0,0,1-2.3.12.35.35,0,0,0-.2,0,2.05,2.05,0,0,1-2.14-.76.22.22,0,0,0-.12-.09l-1.07-.21a.25.25,0,0,0-.12,0s0,.1,0,.13a2.9,2.9,0,0,0,.34.36A2.4,2.4,0,0,1,23,13.8a1.72,1.72,0,0,1-.12,1.28,3.33,3.33,0,0,1-1.4,1.78.48.48,0,0,0,0,.85.72.72,0,0,0,.24.14,2.65,2.65,0,0,0,1.8.14.8.8,0,0,0,.19-.13,1.43,1.43,0,0,0-.22-.15.91.91,0,0,0-.23,0,1.92,1.92,0,0,1-.24,0c-.11,0-.17-.06-.14-.19a1.06,1.06,0,0,1,.76-.84,2.23,2.23,0,0,1,.77-.06,1.55,1.55,0,0,0,1.15-.21,1,1,0,0,1,.57-.07,2.2,2.2,0,0,1,.55.13,10.47,10.47,0,0,0,2.08.48l.82.07c-.07.23-.11.45-.19.65a.22.22,0,0,0,.13.33,1.7,1.7,0,0,0,1.69,0,.52.52,0,0,0,.13-.84,2.64,2.64,0,0,0-.39-.36,5.81,5.81,0,0,1-1.38-1.42,1.23,1.23,0,0,1-.17-.53,2.47,2.47,0,0,1,.72-1.69,7.45,7.45,0,0,1,1.53-1.26Zm-2.06,3a.93.93,0,0,0,.26.76l1,.94c.11.09.2.08.28-.05a4.54,4.54,0,0,1,1.35-1.41,9,9,0,0,1,2.38-1.23c1.18-.41,2.36-.83,3.55-1.21a17.45,17.45,0,0,0,2.72-1,4.83,4.83,0,0,0,.83-.56.71.71,0,0,0,.26-.8A7.26,7.26,0,0,0,42,9.17a4.93,4.93,0,0,0-.44-.68c-.09-.12-.18-.14-.31,0a2.31,2.31,0,0,1-.52.31A20.77,20.77,0,0,1,37,10a17.5,17.5,0,0,0-4.71,2,7.35,7.35,0,0,0-1.92,1.55A2.06,2.06,0,0,0,29.8,14.69Zm-19-6.49L9.63,9.88a.5.5,0,0,0,0,.62,2.91,2.91,0,0,0,1.17.92c.39.18.8.31,1.2.45,1.78.63,3.56,1.25,5.33,1.89A11,11,0,0,1,20,15a3.12,3.12,0,0,1,1.15,1.16.24.24,0,0,0,.42,0,8.52,8.52,0,0,0,.78-1.11,1.27,1.27,0,0,0,0-1.43c-.1-.14-.19-.29-.29-.42a5.38,5.38,0,0,0-1.72-1.39,11.71,11.71,0,0,0-1.25-.57c-.84-.32-1.67-.67-2.52-.94-1.33-.42-2.68-.77-4-1.16a4,4,0,0,1-1.28-.51ZM29.94,23.52l.08,0a1.79,1.79,0,0,0,0-.89,7.48,7.48,0,0,1-.53-2A4.82,4.82,0,0,0,29,18.7a.77.77,0,0,1,0-.34c.05-.34.11-.69.17-1.07l-.24,0c-.1,0-.2,0-.3,0a3.76,3.76,0,0,1-1.4-.28c-.12,0-.21-.05-.29.08s-.08.08-.11.07a4.34,4.34,0,0,1-.47-.16.12.12,0,0,1-.05-.12c0-.14-.07-.18-.16-.21a.62.62,0,0,0-.78.18,1.12,1.12,0,0,0-.17.21c-.06.1-.12.1-.22,0A1.8,1.8,0,0,0,23.75,17a1.27,1.27,0,0,0-.46.21s-.05.11-.08.17l.18,0c.21,0,.42,0,.63.06A2.67,2.67,0,0,1,25,18a.55.55,0,0,0,.15.08c.23,0,.24,0,.2.24,0,.06,0,.12,0,.18-.34,0-.32,0-.28.35A5.94,5.94,0,0,1,25.14,20a5.18,5.18,0,0,1-.81,2.24,1.77,1.77,0,0,0-.16.84l0,0,.51-.36.22.27.13-.09c.21-.16.25-.15.29.1s0,.34.08.51,0,.13.09.14.12,0,.16-.06a1,1,0,0,0,.15-.2l.29-.42c.11-.15.21-.15.31,0s.16.29.24.42a1.87,1.87,0,0,0,.26.35.18.18,0,0,0,.32-.07,4.89,4.89,0,0,0,.19-.62c.12-.51.12-.51.59-.31.19-.25.24-.25.43,0l.27.38h.06l.21-.72a.66.66,0,0,1,.49.38C29.64,23.09,29.8,23.3,29.94,23.52Zm-3.71,1.35v0H20.48c-.33,0-.36,0-.36.34,0,1.43,0,2.87.05,4.3,0,1.63,0,3.26,0,4.88a3.27,3.27,0,0,0,1.3,2.74,6.1,6.1,0,0,0,2.28,1,5.58,5.58,0,0,1,2.48.95c.08.06.14,0,.23,0a2.36,2.36,0,0,1,.67-.48,13.89,13.89,0,0,1,1.55-.48,9.55,9.55,0,0,0,2-.6,2.92,2.92,0,0,0,1.13-.93,3.52,3.52,0,0,0,.55-2c0-2.48,0-5,0-7.45,0-.68,0-1.36,0-2,0-.16,0-.23-.21-.22l-1.56,0ZM21.13,20a.77.77,0,0,0,0,.15,7.23,7.23,0,0,1-.37,1.95.73.73,0,0,0,.48,1,2.51,2.51,0,0,0,3-1.05,4.44,4.44,0,0,0,.71-2.29,4.15,4.15,0,0,0-.07-.7c0-.17-.11-.19-.25-.08l-.28.22a4.05,4.05,0,0,1-2.45.88C21.61,20,21.37,20,21.13,20ZM44.31,7.05h0c0-.34,0-.69-.06-1s-.12-.3-.33-.15a2.72,2.72,0,0,1-1.44.48c-.31,0-.62.07-.93.12A7.38,7.38,0,0,0,39,7.34a6.36,6.36,0,0,0-.69.46c-.11.09-.21.24-.12.37a.46.46,0,0,0,.34.14,5.2,5.2,0,0,0,1-.16,6.32,6.32,0,0,1,1.4-.38,1,1,0,0,1,1,.45c.12.2.25.4.38.59,0,0,.1.1.14.09a3.82,3.82,0,0,0,1.66-.63.51.51,0,0,0,.21-.44Zm-6.94,9.86.74,0c.13,0,.25,0,.27.17a.24.24,0,0,1-.2.27l-.69.25a1.25,1.25,0,0,0-.28.15c-.12.11-.11.19,0,.26a4.24,4.24,0,0,0,.5.18l.71.25a.39.39,0,0,1,.25.42.5.5,0,0,1-.44.5,3.63,3.63,0,0,1-.87,0c-.15,0-.25,0-.32.15a.3.3,0,0,0,0,.39c.19.18.38.36.55.55a2,2,0,0,1,.29.42c.12.29,0,.44-.33.43l-.11,0-.57-.05c-.13,0-.27,0-.3.16a.65.65,0,0,0,0,.39c0,.1.16.18.25.26a.66.66,0,0,1,.23.5c0,.22-.08.3-.29.25a2.14,2.14,0,0,1-.54-.23c-.26-.14-.5-.32-.75-.48,0,0-.15,0-.16,0a.26.26,0,0,0,0,.19,3.12,3.12,0,0,0,.15.39,1.6,1.6,0,0,1,.14.94c0,.29-.1.33-.36.2l-.69-.38a.29.29,0,0,0-.4.07c-.12.15-.06.25,0,.38a1,1,0,0,1,.12.9c-.07.21-.14.25-.34.18a6,6,0,0,1-.58-.26c-.15-.08-.25-.06-.28.11a.92.92,0,0,0,0,.37.48.48,0,0,1-.39.6c-.06,0-.15.06-.15.09a.3.3,0,0,0,.08.2.53.53,0,0,0,.82-.25c0-.09.07-.18.09-.27s.12-.25.33-.19c.51.13.78-.07.86-.6,0-.19,0-.39.06-.61l.26.08a3.31,3.31,0,0,0,.41.14c.38.09.55,0,.52-.45,0-.23,0-.47,0-.7s.07-.27.3-.19a3.42,3.42,0,0,0,.77.17.36.36,0,0,0,.43-.4,1.93,1.93,0,0,0-.1-.63,2.4,2.4,0,0,0-.23-.45,1.3,1.3,0,0,0,.28,0,4.6,4.6,0,0,0,.74-.14c.25-.07.32-.23.26-.49a1.85,1.85,0,0,0-.69-1.1l-.15-.13a2,2,0,0,1,.33-.06,1.75,1.75,0,0,0,1.2-.44.51.51,0,0,0,.11-.64,1.7,1.7,0,0,0-.23-.3,1.91,1.91,0,0,0-.84-.42l-.3-.11,0-.06a1.52,1.52,0,0,0,.28-.09,2.62,2.62,0,0,0,.53-.33.41.41,0,0,0-.09-.66,1.47,1.47,0,0,0-1-.06C37.52,16.68,37.35,16.7,37.37,16.91ZM8.08,5.67A.46.46,0,0,0,8,5.81C8,6.4,7.91,7,7.87,7.58a.61.61,0,0,0,.27.56c.35.21.72.37,1.09.55.17.08.28,0,.39-.13.26-.34.54-.67.81-1a.57.57,0,0,1,.67-.2c.7.2,1.41.39,2.12.55a3,3,0,0,0,.73,0,.23.23,0,0,0,.16-.38.83.83,0,0,0-.26-.19,9,9,0,0,0-2.27-.63A9.94,9.94,0,0,1,8.08,5.67Zm24.68,18.5a2.09,2.09,0,0,0,.36-.09A1.22,1.22,0,0,0,34,23.2a3.44,3.44,0,0,0,0-1c-.07-.75-.16-1.5-.23-2.26a1.48,1.48,0,0,1,.21-.87,3.6,3.6,0,0,1,1.14-1.22c.8-.52,1.6-1.05,2.43-1.52,1.14-.66,2.32-1.24,3.47-1.9.66-.38,1.29-.84,1.92-1.28a2.15,2.15,0,0,0,.78-1.07.74.74,0,0,0,0-.21c-.07,0-.17,0-.22,0a1.18,1.18,0,0,0-.3.29A4,4,0,0,1,42,13.32c-.72.45-1.46.86-2.2,1.27-1,.57-2,1.11-3,1.67A15.44,15.44,0,0,0,34.21,18a2.63,2.63,0,0,0-.93,2.63c.11.57.2,1.15.26,1.74a1.46,1.46,0,0,1-.81,1.52c-.06,0-.1.1-.15.15ZM9.23,12.38c-.17.18-.19.29-.07.45s.19.25.3.37A8,8,0,0,0,12.07,15c1.67.82,3.32,1.66,5,2.5A5,5,0,0,1,18.83,19a2.44,2.44,0,0,1,.42,2.1c-.11.4-.23.79-.32,1.19a1.19,1.19,0,0,0,.53,1.48q.38.21.75.39a.4.4,0,0,0,.24,0c.07,0,.13-.06.2-.09A.58.58,0,0,0,20.5,24c-.21-.14-.45-.24-.64-.39a1.06,1.06,0,0,1-.46-1c0-.14.07-.28.1-.42a8.47,8.47,0,0,0,.31-1.3,3.28,3.28,0,0,0-1.5-3A27.34,27.34,0,0,0,14,15.46c-.89-.45-1.8-.87-2.69-1.32a5.32,5.32,0,0,1-1.77-1.43C9.44,12.6,9.33,12.5,9.23,12.38Zm20.5,7.54a2.43,2.43,0,0,0,0,.27c.18.81.36,1.63.56,2.44a.83.83,0,0,0,.28.39,1,1,0,0,0,1,.13c.66-.22.86-.42.83-1.08A8.08,8.08,0,0,0,32.22,21c-.08-.45-.18-.9-.28-1.4A2.84,2.84,0,0,1,29.73,19.92Zm-7.87-.28a10.2,10.2,0,0,0,1.08-.21,4,4,0,0,0,1.8-1.15.3.3,0,0,0,.08-.18.77.77,0,0,0-.25-.14c-.05,0-.11,0-.16.06a3.71,3.71,0,0,1-1.93.44,1.86,1.86,0,0,1-1.62-.86.19.19,0,0,0-.11-.07.57.57,0,0,0-.41.76c.16.32.31.64.49.95a.7.7,0,0,0,.34.3A3.07,3.07,0,0,0,21.86,19.64Zm8.9-.05a1.27,1.27,0,0,0,1.36-1,.53.53,0,0,0-.2-.62c-.2-.18-.23-.16-.4,0a1.87,1.87,0,0,1-.53.52,1.48,1.48,0,0,1-.93.15l-.43-.08c-.1,0-.21,0-.24.11a.88.88,0,0,0,.45.73C30.14,19.48,30.45,19.53,30.76,19.59ZM29.42,38.74c-.21,0-.24.11-.29.22a.59.59,0,0,1-.63.44,1.9,1.9,0,0,1-.58-.23L27.55,39a2.6,2.6,0,0,0-.1.4,1,1,0,0,1-.33.74.44.44,0,0,1-.74-.18s0-.09,0-.11a1,1,0,0,0-.18-.1c0,.06-.06.13,0,.18a1.05,1.05,0,0,0,.17.39.67.67,0,0,0,1.18,0,2.65,2.65,0,0,0,.27-.53c.05-.14.11-.17.25-.13a5,5,0,0,0,.76.11.51.51,0,0,0,.54-.34A3.89,3.89,0,0,0,29.42,38.74Zm-6.24.43c-.09.6.17.86.72.75l.14,0a.16.16,0,0,1,.22.11,1,1,0,0,0,1.15.59.52.52,0,0,0,.46-.36.49.49,0,0,0,0-.23c-.06,0-.13,0-.18.07a.58.58,0,0,1-.79,0,.93.93,0,0,1-.3-.86c0-.13,0-.24-.16-.28a1.67,1.67,0,0,1-.12.16,2.24,2.24,0,0,1-.33.36.4.4,0,0,1-.6-.07A2.38,2.38,0,0,0,23.18,39.17Zm15.3.64.16.08.52.11c.35.07.38,0,.44-.31a1.89,1.89,0,0,1,.32-.94s0-.12,0-.18c0-.3,0-.59,0-.89a1.39,1.39,0,0,1,0-.27l-.09,0a1.17,1.17,0,0,0-.44,1.13.3.3,0,0,1-.08.37c-.12.11-.26.19-.39.29a1.15,1.15,0,0,0-.22.22A3.2,3.2,0,0,0,38.48,39.81ZM35,31.87c0,.08-.07.16-.06.22.07.3.1.62.43.77l.06,0c.26.3.51.6.78.9a1.28,1.28,0,0,0,.23.14,3.16,3.16,0,0,0,0-.32s-.06-.06-.09-.1c-.14-.22-.28-.44-.41-.67,0,0,0-.12,0-.18a.45.45,0,0,0-.07-.24c-.22-.17-.46-.33-.69-.49ZM42,30.48,40.6,34.42l0,0a.83.83,0,0,0,.08-.12c.23-.47.46-.93.68-1.4s.45-.94.67-1.42c.06-.12.08-.25-.11-.29s-.06-.07-.08-.09l.46-.51ZM16.41,19.14a.4.4,0,0,0,.17-.14c.06-.12,0-.2-.14-.25L16,18.59a.24.24,0,0,1-.14-.37A3.13,3.13,0,0,0,16,17.9a1.93,1.93,0,0,0,0-.24.61.61,0,0,0-.24,0,1.26,1.26,0,0,0-.47.71.32.32,0,0,0,.12.36A1.56,1.56,0,0,0,16.41,19.14ZM32.73,33.29c0,.24.05.42.08.6a3.84,3.84,0,0,0,.41,1.44c.1.18.18.19.3,0a.33.33,0,0,0,0-.22c-.09-.34-.19-.67-.28-1L33,33.29c0-.08,0-.21-.16-.16S32.76,33.26,32.73,33.29ZM16.14,34.92h-.06a.88.88,0,0,0,.12.21c.07.08.15.07.19,0l.36-1.19c.07-.26.15-.51.22-.76A.23.23,0,0,0,17,33a.12.12,0,0,0-.1,0,1.85,1.85,0,0,0-.66,1A6.11,6.11,0,0,0,16.14,34.92Zm.64.17c.2,0,.28-.08.35-.21.17-.3.32-.61.52-.9s.44-.55.65-.83a.33.33,0,0,0,0-.14c-.06,0-.12,0-.16,0a.58.58,0,0,0-.25.15,11.15,11.15,0,0,0-.83,1A1.86,1.86,0,0,0,16.78,35.09Zm19-15.94a1.05,1.05,0,0,0,1,.15.56.56,0,0,0,.43-.83,1,1,0,0,0-.83-.63.39.39,0,0,0-.15,0,.48.48,0,0,0,.09.14,4.73,4.73,0,0,1,.4.37.42.42,0,0,1-.25.69,1.67,1.67,0,0,1-.39,0ZM16.9,20.73l0,0h-.06a.52.52,0,0,1-.47-.29c-.09-.19,0-.33.13-.47a.28.28,0,0,0,.09-.1s0-.11,0-.14a.21.21,0,0,0-.15-.07.65.65,0,0,0-.55.43.74.74,0,0,0,.21.73.92.92,0,0,0,.83.27c.09,0,.16-.15.23-.23Zm.37,11.85.24-.14.77-.47c.17-.1.35-.17.52-.27a.83.83,0,0,0,.23-.26c0-.05,0-.13,0-.19a.49.49,0,0,0-.21,0c-.35.17-.71.34-1.05.52a1.47,1.47,0,0,0-.63.58.23.23,0,0,0,0,.16S17.21,32.55,17.27,32.58ZM35.69,21.21a.51.51,0,0,0,.12.09.84.84,0,0,0,1.09-.71.87.87,0,0,0-.32-.8.33.33,0,0,0-.17,0s0,.11,0,.16.06.27.08.41a.67.67,0,0,1-.39.74A3.3,3.3,0,0,1,35.69,21.21Zm-2.77,9.9c0,.05-.08.09-.07.12a.35.35,0,0,0,.06.19,2.86,2.86,0,0,0,1.16,1,.48.48,0,0,0,.24,0c0-.08,0-.19,0-.24a4.83,4.83,0,0,0-.51-.5l-.68-.53Zm2,4.2c-.08-.63-.56-1.31-1.06-1.35,0,.1,0,.22,0,.28.26.35.54.68.82,1C34.72,35.29,34.82,35.29,34.91,35.31ZM18.78,34.07s-.11,0-.14,0a1.5,1.5,0,0,0-.57.93c0,.18-.08.37-.11.55a1.41,1.41,0,0,0,0,.2c.08,0,.18,0,.22-.06a1.36,1.36,0,0,0,.21-.37C18.53,34.93,18.65,34.52,18.78,34.07Zm22.76-.26,0,0s.08,0,.1-.06l1.08-2a.21.21,0,0,0,0-.16.37.37,0,0,0-.21,0,.49.49,0,0,0-.1.16l-.57,1.27C41.75,33.33,41.65,33.57,41.54,33.81Zm-21.61-.64c-.16-.06-.2,0-.24.13-.15.36-.29.72-.43,1.09a.37.37,0,0,0,0,.18c.06,0,.14,0,.18-.06A1.47,1.47,0,0,0,19.93,33.17Zm15.32.77c-.15-.36-.31-.72-.47-1.09,0,0,0,0,0,0s-.23-.07-.27.08a.33.33,0,0,0,0,.17,2.54,2.54,0,0,0,.53,1s.09.06.11,0S35.2,34,35.25,33.94Zm1.34,1.42a3.64,3.64,0,0,0-.78-.91.39.39,0,0,0,0,.45c.11.24.21.49.32.74,0,0,.06.09.08.08s.11-.06.1-.09C36.27,35.43,36.4,35.37,36.59,35.36Zm-18-2.16a.32.32,0,0,0,.08.13s.12,0,.14-.08c.19-.29.36-.59.53-.89,0,0,0-.1,0-.16a.48.48,0,0,0-.17,0A1.09,1.09,0,0,0,18.63,33.2Zm19.75,5.12c.06,0,.1.11.14.11a.18.18,0,0,0,.13-.08c0-.31.19-.43.39-.57l.37-.26c.1-.08.09-.18,0-.29s-.15-.1-.26-.06c-.27.11-.34.34-.42.57a1.11,1.11,0,0,1-.17.27Zm4.72-7.56a4.52,4.52,0,0,0,.91-.89c-.17,0-.17,0-.22.12s-.13.2-.31.1a.22.22,0,0,0-.21,0A.91.91,0,0,0,43.1,30.76Zm-5.28,8.52c0,.2.12.36.24.36s.18-.17.19-.28a.35.35,0,0,0-.07-.28.26.26,0,0,0-.24,0C37.87,39.07,37.85,39.2,37.82,39.28Zm-3.93-3.41a.38.38,0,0,0,.25.33s.14,0,.14,0a1.71,1.71,0,0,0,0-.32,0,0,0,0,0,0,0c-.07-.06-.16-.17-.2-.15S34,35.8,33.89,35.87Zm8.55-5.43.05,0c.11-.14.22-.27.32-.41s.07-.16,0-.18a.31.31,0,0,0-.22-.07.2.2,0,0,0-.15.13A4.4,4.4,0,0,0,42.44,30.44ZM36.3,34.1a.57.57,0,0,0,.54.69C36.75,34.49,36.5,34.33,36.3,34.1Zm5-2.92,0,0c.13-.25.26-.48.38-.73,0,0,0-.08,0-.13s-.11,0-.12.05ZM19.12,35.33c-.25,0-.35.16-.33.52C19.09,35.79,19,35.51,19.12,35.33ZM33,30.3c-.08-.15-.15-.27-.22-.38a.23.23,0,0,0-.15.07.33.33,0,0,0,.26.36S32.94,30.32,33,30.3Zm8.3-.06c-.19,0-.39.56-.34.81Zm1.28-.74.09,0,.25-.33-.28-.13Z" fill="#fff"/><path d="M42.36,16.71c0-.16,0-.3-.06-.43a.46.46,0,0,0-.12-.23c-.19-.15-.18-.29-.08-.49a2.58,2.58,0,0,0,.23-.54.66.66,0,0,1,.41-.42,21.63,21.63,0,0,0,5.11-3.2.53.53,0,0,1,.15-.11c.2-.11.35-.06.38.16a1.47,1.47,0,0,1,0,.59,2.9,2.9,0,0,1-1.15,1.69,30.41,30.41,0,0,1-3.33,2.2c-.47.27-1,.5-1.44.75Z" fill="#fff"/><path d="M10.65,15.81a1.06,1.06,0,0,1-.15.15c-.17.09-.36.16-.52.26a.32.32,0,0,1-.35,0c-1-.53-1.9-1.05-2.84-1.6a10.31,10.31,0,0,1-1.95-1.39,2.14,2.14,0,0,1-.75-1.16,1.36,1.36,0,0,1,0-.45c.06-.29.25-.36.48-.18a25.44,25.44,0,0,0,3.17,2.08c.71.41,1.47.72,2.21,1.08a.47.47,0,0,1,.18.19c.12.22.23.45.35.68S10.59,15.68,10.65,15.81Z" fill="#fff"/><path d="M5.16,14.68c0-.4.23-.53.51-.35s.47.37.73.51c.74.42,1.49.83,2.23,1.23l.68.34A1.16,1.16,0,0,1,10,17a.91.91,0,0,0,.21.23c.14.14.29.26.43.41a.31.31,0,0,1,0,.44.46.46,0,0,1-.48.24,8.53,8.53,0,0,1-1.78-.62A9.37,9.37,0,0,1,7,16.86a5.08,5.08,0,0,1-1.55-1.44A1.61,1.61,0,0,1,5.16,14.68Z" fill="#fff"/><path d="M41.55,17.71c.25-.17.44-.32.65-.44,1.11-.64,2.24-1.27,3.33-1.93a13.92,13.92,0,0,0,1.3-1c.08,0,.19-.12.27-.1s.19.16.18.3a1.77,1.77,0,0,1-.08.4,3.07,3.07,0,0,1-1.42,1.71c-1,.54-2,1.1-3,1.65-.26.13-.35.06-.53-.17a1.77,1.77,0,0,0-.47-.32Z" fill="#fff"/><path d="M11.29,19.5c-.07.25-.14.47-.2.68s-.06.16-.18.15a6.52,6.52,0,0,1-3.17-1.07A2.1,2.1,0,0,1,7,18.43a1.89,1.89,0,0,1-.14-.58c0-.19.11-.29.29-.23.41.14.81.32,1.22.46.56.19,1.13.35,1.71.53l.24,0s.09.05.1.09a1,1,0,0,0,.62.63Z" fill="#fff"/><path d="M13.26,29.41a2.23,2.23,0,0,1-.36-.05,1,1,0,0,1-.76-1.3.29.29,0,0,1,.25-.23,4.7,4.7,0,0,0,2.33-1.17.85.85,0,0,1,.71-.11s.07.08.09.13c.06.27.13.54.19.81a.23.23,0,0,1,0,.16,7,7,0,0,1-1.76,1.59,4,4,0,0,1-.64.21Z" fill="#fff"/><path d="M41.55,22.29H41a.24.24,0,0,1-.24-.33.8.8,0,0,0-.06-.78.21.21,0,0,1,.07-.19,3.56,3.56,0,0,1,.65-.38A2.93,2.93,0,0,1,42,20.5l1.09-.23a1,1,0,0,1,.76.08.92.92,0,0,1,.06,1.54,1.71,1.71,0,0,1-1,.32l-1.32.11Z" fill="#fff"/><path d="M39.23,29.29a5.73,5.73,0,0,1-.81-.33A5.58,5.58,0,0,1,37,27.75a.41.41,0,0,1-.09-.51,1.13,1.13,0,0,0,.09-.49.21.21,0,0,1,.16-.22.9.9,0,0,1,.81.13,6.82,6.82,0,0,0,2,1,.49.49,0,0,1,.32.62,2.77,2.77,0,0,1-.35.6.84.84,0,0,1-.74.33Z" fill="#fff"/><path d="M11.61,22.27a5.91,5.91,0,0,1-.63.13,3.6,3.6,0,0,1-1.66-.22,1.71,1.71,0,0,1-.84-.68,1,1,0,0,1,.08-1.15c0-.05.15-.11.21-.09a18.61,18.61,0,0,0,2.56.48l.13,0c.13,0,.16.09.12.23A1.65,1.65,0,0,0,11.61,22.27Z" fill="#fff"/><path d="M45.49,18a1.76,1.76,0,0,1-.88,1.33,3.41,3.41,0,0,1-.89.41c-.53.17-1.06.29-1.59.42-.12,0-.24,0-.36.05a.28.28,0,0,1-.36-.24.2.2,0,0,0,0-.11c-.08-.16,0-.23.14-.33a6.4,6.4,0,0,0,.71-.55,1.51,1.51,0,0,1,.37-.25A17.62,17.62,0,0,0,45,17.57C45.32,17.38,45.49,17.49,45.49,18Z" fill="#fff"/><path d="M35.41,27.45c.37.05.73.08,1.09.15.09,0,.18.12.24.21A4.61,4.61,0,0,0,38,29.17a3.21,3.21,0,0,0,.45.24.31.31,0,0,1,.21.4.85.85,0,0,1-1,.7,1.73,1.73,0,0,1-.89-.55c-.28-.31-.53-.64-.8-1-.13-.15-.27-.29-.39-.44a.66.66,0,0,1-.17-.79A.86.86,0,0,0,35.41,27.45Z" fill="#fff"/><path d="M17.16,27.81a1.79,1.79,0,0,1-.3.89,4.3,4.3,0,0,1-1.31,1.56,1.4,1.4,0,0,1-1.29.27.6.6,0,0,1-.44-.49.57.57,0,0,1,.37-.6,5.2,5.2,0,0,0,1.63-1.5.5.5,0,0,1,.36-.19,3.51,3.51,0,0,0,.69-.18C17.11,27.5,17.17,27.53,17.16,27.81Z" fill="#fff"/><path d="M36.43,31.39a4,4,0,0,1-.59-.27A6.61,6.61,0,0,1,34,29.19s0,0,0,0a.54.54,0,0,1-.1-.62,1.5,1.5,0,0,0,.09-.42c0-.14.08-.19.22-.12s.54.27.8.43a1,1,0,0,1,.3.28c.36.46.71.94,1.07,1.4.15.19.34.34.5.52s.16.17.16.25a.47.47,0,0,1-.28.41,1.63,1.63,0,0,1-.3.07Z" fill="#fff"/><path d="M39.24,25.25a1.37,1.37,0,0,0,.28-1c0-.16,0-.25.2-.25a1.45,1.45,0,0,1,.51,0,5.16,5.16,0,0,0,1.66.22c.24,0,.54.37.51.64a1,1,0,0,1-1.16.95,6,6,0,0,1-1.78-.43Z" fill="#fff"/><path d="M16.33,31.4a.56.56,0,0,1-.62-.56.48.48,0,0,1,.2-.38,13.5,13.5,0,0,0,1-1,3.58,3.58,0,0,0,.43-.74.17.17,0,0,1,.2-.1c.22,0,.44,0,.65,0s.2,0,.19.15a3.25,3.25,0,0,1-.94,2.2A1.61,1.61,0,0,1,16.33,31.4Z" fill="#fff"/><path d="M14.47,25.82a1.15,1.15,0,0,1-.42.86,3.4,3.4,0,0,1-1.67.75,1.08,1.08,0,0,1-1-.36.56.56,0,0,1-.13-.67.4.4,0,0,1,.37-.3A6.15,6.15,0,0,0,12.71,26c.43-.11.83-.29,1.25-.43l.08-.05C14.34,25.36,14.47,25.44,14.47,25.82Z" fill="#fff"/><path d="M40.05,22.64a.39.39,0,0,1,.39-.13,10.7,10.7,0,0,0,1.48.19,6.21,6.21,0,0,0,1.13-.13c.4-.05.56.11.49.51a.89.89,0,0,1-.84.78,9.58,9.58,0,0,1-2.27-.08c-.1,0-.19-.05-.16-.16a1,1,0,0,0-.21-.92S40.05,22.67,40.05,22.64Z" fill="#fff"/><path d="M11,24.1l-.7-.06a1.48,1.48,0,0,1-1.12-.7.41.41,0,0,1,0-.45.35.35,0,0,1,.36-.18l.53,0a5.25,5.25,0,0,0,1.43-.09,2.49,2.49,0,0,1,.61,0c.3,0,.37.17.23.43a.9.9,0,0,0-.06.7c0,.14,0,.19-.14.2Z" fill="#fff"/><path d="M41.21,26.7c0,.08,0,.16,0,.24-.1.44-.37.61-.86.45A11.83,11.83,0,0,1,39,26.87c-.27-.13-.52-.3-.77-.45a.19.19,0,0,1-.11-.23c0-.17,0-.35,0-.53a.24.24,0,0,1,.23-.25.88.88,0,0,1,.69.13,4,4,0,0,0,1.7.58c.31,0,.39.12.42.42A.81.81,0,0,0,41.21,26.7Z" fill="#fff"/><path d="M12.9,24.14a.94.94,0,0,0,.46,1.15.77.77,0,0,1-.55.34A3.62,3.62,0,0,1,11,25.56a1.46,1.46,0,0,1-.86-.64.55.55,0,0,1-.07-.28c0-.21.07-.26.29-.26.5,0,1,0,1.49,0a6.85,6.85,0,0,0,.76-.16Z" fill="#fff"/><path d="M31.36,4.11a1.07,1.07,0,0,0,.47,1c.17.13.33.28.5.4s.13.15.06.26l-.14.24A1.65,1.65,0,0,0,32.5,8c.19.2.17.25,0,.43a5.43,5.43,0,0,0-.57.49,1.27,1.27,0,0,0-.37.79c0,.28-.06.28-.33.3a1.29,1.29,0,0,0-1.18.88.34.34,0,0,1-.41.25,2.06,2.06,0,0,0-1.55.52.45.45,0,0,1-.5.12,1.74,1.74,0,0,0-1.61.22c-.25.14-.24.12-.45-.08a5.1,5.1,0,0,0-.67-.56,1.2,1.2,0,0,0-1.09-.13c-.35.12-.38.09-.49-.26a2.08,2.08,0,0,0-.26-.59,1.38,1.38,0,0,0-1.5-.63c-.23,0-.25,0-.21-.21a1.74,1.74,0,0,0-.64-1.69c-.27-.23-.27-.24-.15-.57a2,2,0,0,0,.18-1.09,3.23,3.23,0,0,0-.2-.57c-.1-.28-.1-.26.14-.43a5.17,5.17,0,0,0,.62-.52,1.56,1.56,0,0,0,.43-.89c.05-.26.09-.3.35-.33a2.24,2.24,0,0,0,1.85-1.15.28.28,0,0,1,.4-.15,3.58,3.58,0,0,0,1.13.2A2.37,2.37,0,0,0,26.62,2a.27.27,0,0,1,.37,0,1.87,1.87,0,0,0,2.2.47.29.29,0,0,1,.39.1,2,2,0,0,0,1.33.79C31.37,3.5,31.37,3.52,31.36,4.11ZM24.6,8.66v.06a.84.84,0,0,0,.16.24.36.36,0,0,1,.07.5.47.47,0,0,0,0,.17l.19,0a.37.37,0,0,0,.12-.07.48.48,0,0,1,.56,0,1.45,1.45,0,0,0,.29.11l0,0c-.16-.32-.18-.6.2-.76,0,0,.06-.09.05-.1a.14.14,0,0,0-.11-.07h-.31a.25.25,0,0,1-.28-.22,1.28,1.28,0,0,0-.11-.24l-.06,0C25.3,8.61,25,8.73,24.6,8.66Zm1.29-4.4.07,0c.13-.1.26-.18.38-.29s.2-.11.3,0a1.58,1.58,0,0,0,.23.22.16.16,0,0,0,.15,0s.05-.09,0-.13c-.1-.26,0-.43.21-.59s.05-.09.07-.14a1.22,1.22,0,0,0-.17-.07.38.38,0,0,0-.15,0,.23.23,0,0,1-.3-.16A.27.27,0,0,0,26.65,3l-.14-.14L26.38,3a.36.36,0,0,0,0,.09.27.27,0,0,1-.33.21,1.11,1.11,0,0,0-.29.07l-.06.06C26.1,3.63,26,4,25.89,4.26ZM28,8.31a.74.74,0,0,1-.82.57c.09.11.13.17.18.19.23.12.21.28.12.48a.86.86,0,0,0-.05.23l.05,0a1.18,1.18,0,0,0,.18-.13.39.39,0,0,1,.58,0,1.78,1.78,0,0,0,.41.18c-.07-.22-.18-.4-.15-.53s.22-.24.37-.4a2.47,2.47,0,0,0-.36,0,.28.28,0,0,1-.3-.2A2.11,2.11,0,0,0,28,8.31Zm1.74.42v.08A2.78,2.78,0,0,0,30,9a.19.19,0,0,1,.07.27c-.06.11-.09.23-.14.34l.06.06c.11-.07.23-.12.34-.2a.25.25,0,0,1,.36,0,2.2,2.2,0,0,0,.26.15L31,9.59c0-.1-.05-.2-.09-.3s0-.24.12-.31a1.5,1.5,0,0,0,.24-.2l0-.07c-.44.14-.59-.17-.75-.53C30.29,8.56,30.13,8.84,29.7,8.73ZM26,4.85l0,0a1.9,1.9,0,0,0-.25,0,.35.35,0,0,1-.37-.26.61.61,0,0,0-.05-.12c-.07-.12-.15-.13-.23,0s0,.08-.07.13a.32.32,0,0,1-.36.22c-.07,0-.15,0-.28,0,.15.15.29.23.35.35a1.38,1.38,0,0,1,0,.46,1.42,1.42,0,0,1,.44-.17c.15,0,.29.12.48.2a1.3,1.3,0,0,0,0-.26A.26.26,0,0,1,25.73,5,1.5,1.5,0,0,0,26,4.85Zm1.69.73.06,0L28,5.38c.18-.15.23-.15.42,0l.26.19a.81.81,0,0,0,0-.24.38.38,0,0,1,.19-.42,1,1,0,0,0,.17-.23h-.19c-.24,0-.42,0-.49-.29,0,0,0-.08-.05-.08s-.17,0-.18,0a.55.55,0,0,1-.63.4l0,0C27.84,5,27.74,5.27,27.67,5.58Zm1.9-.87c.12.12.27.2.31.32a1,1,0,0,1,0,.42l.05,0,.22-.18a.26.26,0,0,1,.37,0,2.79,2.79,0,0,0,.43.23.64.64,0,0,0-.05-.22A.26.26,0,0,1,31,4.88c.06,0,.1-.11.17-.2a1.31,1.31,0,0,0-.31,0,.25.25,0,0,1-.3-.22,1.21,1.21,0,0,0,0-.14c-.07-.14-.17-.16-.24,0a.63.63,0,0,1-.62.4ZM23.66,8.65V8.59c-.37.1-.53-.09-.64-.38,0,0-.07-.07-.09-.06a.18.18,0,0,0-.11.1c-.08.22-.19.38-.46.37a.6.6,0,0,0-.21.08c.05.06.09.14.15.17a.27.27,0,0,1,.14.38,1.38,1.38,0,0,0,0,.25,3.44,3.44,0,0,0,.36-.26.22.22,0,0,1,.33,0,3.3,3.3,0,0,0,.41.26A1.71,1.71,0,0,1,23.43,9,1.4,1.4,0,0,1,23.66,8.65Zm6-1.14a1,1,0,0,0-.05-.16c-.14-.33-.13-.33.15-.57a.39.39,0,0,0,.06-.13.65.65,0,0,0-.13,0c-.37,0-.37,0-.5-.36,0,0-.07-.08-.1-.12a1.42,1.42,0,0,0-.12.13.67.67,0,0,0-.06.12.3.3,0,0,1-.34.24.74.74,0,0,0-.23,0c.12.14.27.24.29.37s-.07.28-.11.44c.27,0,.37-.21.56-.29ZM22,5.64l.06,0c.07-.06.16-.11.23-.18s.27-.19.49,0l.26.17,0,0c0-.15-.11-.3-.07-.42s.19-.21.34-.35a1.41,1.41,0,0,1-.48-.09,1.21,1.21,0,0,1-.3-.41l-.15.24a.31.31,0,0,1-.35.22,1.17,1.17,0,0,0-.3,0c.13.14.29.23.33.36S22.05,5.49,22,5.64Zm2.33,1.9.05,0-.09-.22c-.07-.15-.07-.26.09-.36a.9.9,0,0,0,.15-.18V6.67c-.43.13-.59-.12-.7-.47a.51.51,0,0,0-.11.2.35.35,0,0,1-.4.31.91.91,0,0,0-.21,0c.12.13.27.23.3.35s-.06.28-.11.46c.21-.09.37-.23.53-.23A1.55,1.55,0,0,1,24.34,7.54Zm2.84,2.9,0-.06a.87.87,0,0,0-.22-.05.35.35,0,0,1-.34-.24,1.39,1.39,0,0,0-.17-.25,1.69,1.69,0,0,1-.23.43,1.62,1.62,0,0,1-.47.15c.11.1.26.18.3.3a1.1,1.1,0,0,1,0,.44c.18-.07.33-.2.49-.2a1.58,1.58,0,0,1,.51.2C27,10.87,26.72,10.58,27.18,10.44ZM25.82,6.68a1.42,1.42,0,0,1,.25.4,1.28,1.28,0,0,1,0,.43l0,0,.2-.15c.22-.17.23-.17.45,0l.25.17a.68.68,0,0,0,0-.15.4.4,0,0,1,.13-.53c.05,0,.06-.12.09-.19a.63.63,0,0,0-.19,0,.33.33,0,0,1-.38-.23,1.15,1.15,0,0,0-.14-.23A.54.54,0,0,1,25.82,6.68Z" fill="#fff"/><path d="M39.11,10.76l-.19.86-.82-.48c.08.19.14.34.21.49a.19.19,0,0,1-.07.27.19.19,0,0,1-.29-.08l-.67-1.19c-.07-.13,0-.2.11-.25a.49.49,0,0,1,.48,0c.21.14.44.26.7.42,0-.27,0-.48.08-.69A.33.33,0,0,1,39,9.84a.22.22,0,0,1,.27.12c.19.35.4.7.6,1,.06.1.08.21-.06.27s-.24.08-.33-.06-.18-.32-.28-.47Z" fill="#fff"/><path d="M34.18,12.46c0-.06,0-.13-.08-.19s-.13-.22-.18-.33-.06-.18.06-.24a.16.16,0,0,1,.25.07c.18.32.38.64.56,1,.09.17,0,.3-.16.3a2.72,2.72,0,0,1-.56-.09l-.39-.1,0,.05.21.34c.09.14.06.23-.08.31a.16.16,0,0,1-.24-.06c-.21-.35-.42-.7-.61-1.05-.07-.11,0-.24.19-.23a1.92,1.92,0,0,1,.4.09l.62.22Z" fill="#fff"/><path d="M36.9,11.81a.79.79,0,0,1-.41.69.58.58,0,0,1-.64-.05.75.75,0,0,1-.27-.23c-.17-.25-.33-.52-.48-.79a.22.22,0,0,1,.12-.33c.15-.08.24,0,.3.13s.19.41.31.6a.59.59,0,0,0,.27.25.29.29,0,0,0,.26,0,.31.31,0,0,0,.06-.28c-.09-.23-.21-.45-.32-.67s-.11-.24,0-.33.25,0,.33.12.24.43.34.65A1.48,1.48,0,0,1,36.9,11.81Z" fill="#fff"/><path d="M32.16,14.55a.51.51,0,0,1-.47-.24c-.17-.25-.33-.52-.48-.79s0-.18.11-.24.19-.07.26,0,.14.25.22.37a1.18,1.18,0,0,0,.26.32.29.29,0,0,0,.28,0,.27.27,0,0,0,0-.28,3.1,3.1,0,0,0-.29-.5c0-.08-.1-.15-.13-.23s-.14-.17,0-.24.24-.15.34,0a5.7,5.7,0,0,1,.5.9A.67.67,0,0,1,32.16,14.55Z" fill="#fff"/><path d="M18.32,13.42c-.24-.11-.48-.2-.71-.32a.25.25,0,0,1-.05-.24c.15-.37.32-.75.5-1.11a.19.19,0,0,1,.27-.1,2.79,2.79,0,0,1,.37.14c.4.18.41.49.18.79a.67.67,0,0,0-.14.39A.45.45,0,0,1,18.32,13.42Zm.41-1.17a3.28,3.28,0,0,0-.36-.19s-.12.11-.11.15.19.13.3.17S18.63,12.32,18.73,12.25Zm-.56.28c-.07.12-.13.18-.13.23s.16.14.26.17.11-.08.11-.09S18.28,12.67,18.17,12.53Z" fill="#fff"/><path d="M16.71,11.31a.64.64,0,0,1-.31.51.27.27,0,0,0-.15.36.41.41,0,0,1,0,.22.29.29,0,0,1-.18.15c-.05,0-.15-.07-.17-.13a3.49,3.49,0,0,1-.07-.37l-.07-.15a.46.46,0,0,0-.16.11c0,.05-.07.13-.12.19a.16.16,0,0,1-.24.05.15.15,0,0,1-.06-.23c.16-.36.3-.72.46-1.08,0-.07.13-.16.18-.15a1.19,1.19,0,0,1,.74.3A1,1,0,0,1,16.71,11.31Zm-.62.27.19-.19a.83.83,0,0,0-.25-.18s-.15.13-.14.19S16,11.51,16.09,11.58Z" fill="#fff"/><path d="M12.9,10.08a.67.67,0,0,1-.83.64c-.15,0-.26-.07-.34.12s-.18.09-.26,0-.12-.15-.1-.2a4.06,4.06,0,0,1,.27-.6c.07-.16.17-.3.25-.45s.18-.25.44-.19A.64.64,0,0,1,12.9,10.08Zm-.75.23c.22,0,.39-.14.38-.26s-.13-.2-.26-.21-.25.22-.23.35S12.13,10.29,12.15,10.31Z" fill="#fff"/><path d="M21.14,13.52c.06.21.12.41.16.62.07.37-.13.59-.51.56a.71.71,0,0,1-.63-.38.59.59,0,0,1,0-.35c0-.06.12-.11.19-.13s.09.08.12.13.13.2.21.29a.21.21,0,0,0,.2,0s.06-.13,0-.19a2.78,2.78,0,0,0-.16-.4.41.41,0,0,1,.07-.48.39.39,0,0,1,.41-.1,1,1,0,0,1,.57.34c.12.15.05.24-.06.32s-.2,0-.26-.09A.26.26,0,0,0,21.14,13.52Z" fill="#fff"/><path d="M19.55,14.06c-.18-.1-.35-.17-.5-.27a.27.27,0,0,1-.09-.36c.18-.34.37-.66.55-1a.19.19,0,0,1,.3-.06c.12.08.1.17,0,.28s-.24.43-.36.64-.11.22,0,.29.18,0,.23-.13l.39-.69c.06-.09.11-.15.23-.1s.16.12.1.24a9.93,9.93,0,0,1-.51.9A1.31,1.31,0,0,1,19.55,14.06Z" fill="#fff"/><path d="M14.37,12c-.38,0-.63-.27-.55-.58a8,8,0,0,1,.38-1c.06-.12.17-.1.28,0s.11.14.06.24-.22.47-.31.71c0,.06,0,.18.06.2a.25.25,0,0,0,.22,0,.43.43,0,0,0,.14-.2l.24-.57a.16.16,0,0,1,.24-.1c.11,0,.18.12.12.23a6.44,6.44,0,0,1-.44.87A.57.57,0,0,1,14.37,12Z" fill="#fff"/><path d="M10.85,9.05s-.12.09-.14.15,0,.11.1.15.24.08.19.25-.16.19-.35.09-.18-.12-.26,0-.05.17,0,.22.1,0,.13.07.11.16.09.19-.16.13-.21.11A2.81,2.81,0,0,1,9.9,10a.19.19,0,0,1,0-.19c.21-.36.44-.71.67-1.06a.2.2,0,0,1,.32-.07c.12.08.26.13.37.21a.23.23,0,0,1,0,.21c0,.1-.13.11-.22,0Z" fill="#fff"/><path d="M13.08,11.1l.21.11c.09,0,.2.09.13.23s-.13.18-.27.12l-.4-.15a.18.18,0,0,1-.12-.26c.09-.23.19-.46.29-.69l.21-.44c.07-.15.19-.14.31-.09s.12.15.06.26Z" fill="#fff"/><path d="M17.25,11.32c.21,0,.31.14.24.29l-.45,1c0,.1-.09.19-.22.14s-.2-.14-.15-.26c.15-.38.32-.76.49-1.14A.18.18,0,0,1,17.25,11.32Z" fill="#fff"/><path d="M28.53,20.57l.42.24c0-.2,0-.36-.07-.51s-.15-.55-.21-.83a.75.75,0,0,1,0-.2c.06,0,.14.06.17.11a3.26,3.26,0,0,1,.36,1.32,2.2,2.2,0,0,1,0,.36c0,.16-.14.25-.26.16a4,4,0,0,1-.42-.4A.6.6,0,0,1,28.53,20.57Z" fill="#fff"/><path d="M27.62,20.22l.44.34.06,0c-.06-.21-.12-.42-.2-.63s-.15-.28-.22-.42a.61.61,0,0,1,0-.14s.12,0,.15,0,.18.11.19.18a11.58,11.58,0,0,1,.21,1.15c0,.08,0,.22-.12.24s-.19,0-.26-.09A.57.57,0,0,1,27.62,20.22Z" fill="#fff"/><path d="M25.66,19.64c0,.15,0,.29,0,.43a2.47,2.47,0,0,0,.11.36s.09.06.14.09a.84.84,0,0,0,.06-.14,1.15,1.15,0,0,1,0-.19.37.37,0,0,1,.07-.14h.08c0,.27,0,.53-.06.79a.38.38,0,0,1-.24.18c-.05,0-.16-.1-.19-.17a1.93,1.93,0,0,1-.13-1.11.75.75,0,0,1,.07-.12Z" fill="#fff"/><path d="M25.86,17.05l.65.18a.19.19,0,0,1,.1.1.35.35,0,0,1-.12.17,1.31,1.31,0,0,1-.21.08c-.09,0-.21.12-.25.09a3.35,3.35,0,0,1-.49-.43s.06-.12.11-.15.13,0,.2,0Z" fill="#fff"/><path d="M26.58,20a.59.59,0,0,1,.1.17,1.7,1.7,0,0,0,.09.24c0,.05.08.07.12.1s.07-.09.07-.14,0-.31,0-.47a.65.65,0,0,1,.07-.21s.07,0,.07.07c0,.26,0,.53,0,.79s0,.27-.21.29a.27.27,0,0,1-.31-.24c0-.19-.08-.38-.13-.58Z" fill="#fff"/><path d="M27.06,21.63c.14.15.07.45.37.44l.09-.5h.07a1.44,1.44,0,0,1,0,.65c-.06.13-.26.14-.4,0A.53.53,0,0,1,27.06,21.63Z" fill="#fff"/><path d="M29.72,22.51c-.14.08-.23.08-.27-.09s-.12-.43-.17-.64.06-.13.1-.2.13.1.15.16C29.6,22,29.65,22.24,29.72,22.51Z" fill="#fff"/><path d="M25.32,21.31c0,.06,0,.13,0,.19s-.06.19,0,.29,0,.15-.06.22-.14-.05-.17-.11A.54.54,0,0,1,25.32,21.31Z" fill="#fff"/><path d="M28.79,22.1a.57.57,0,0,1-.27-.74A1.44,1.44,0,0,1,28.79,22.1Z" fill="#fff"/><path d="M25.88,21.41a.74.74,0,0,1-.46.81Z" fill="#fff"/><path d="M26.58,22.29l.29.78C26.69,23.05,26.51,22.63,26.58,22.29Z" fill="#fff"/><path d="M28,21.87a.28.28,0,0,1,.22.33s-.05.08-.09.09-.08,0-.08-.08S28,22,28,21.87Z" fill="#fff"/><path d="M24.57,22.48a.39.39,0,0,1,.22-.45C24.89,22.26,24.66,22.31,24.57,22.48Z" fill="#fff"/><path d="M26.34,21.65l.05-.45A.28.28,0,0,1,26.34,21.65Z" fill="#fff"/><path d="M27.48,20.66V21C27.32,20.93,27.32,20.85,27.48,20.66Z" fill="#fff"/><path d="M20.49,29.37h2.26l6.57,0,2.51,0c.13,0,.14.07.15.17,0,.87,0,1.74,0,2.6s0,1.87,0,2.81a2.51,2.51,0,0,1-1.76,2.42,11.29,11.29,0,0,1-2.21.6,3.73,3.73,0,0,0-1.61.72.22.22,0,0,1-.31,0,5,5,0,0,0-2.29-.88,5.61,5.61,0,0,1-2-.74,2.7,2.7,0,0,1-1.19-2,15.9,15.9,0,0,1-.08-2c0-1.21,0-2.42,0-3.63C20.48,29.47,20.49,29.43,20.49,29.37Zm5.25,8.7c0-.22,0-.41,0-.59l0-7.34c0-.49,0-.51-.52-.47-.15,0-.21.08-.21.23,0,1.17,0,2.34,0,3.51,0,.66,0,1.33,0,2v2.13c0,.06,0,.15.06.17Zm-2-8.38h-.51c-.18,0-.21.07-.21.23s0,.49,0,.74c0,1.29,0,2.59,0,3.88,0,.77,0,1.54,0,2.32a.62.62,0,0,0,.13.4,2.42,2.42,0,0,0,.6.24ZM27,38l.45-.15a.23.23,0,0,0,.18-.26c0-2.5,0-5,0-7.5,0-.42,0-.42-.42-.39-.25,0-.25,0-.25.27,0,.92,0,1.85,0,2.77,0,1.55,0,3.1,0,4.65C26.92,37.58,27,37.78,27,38Zm1.8-4.45h0v2.74c0,.31,0,.62,0,.93,0,.1,0,.23.15.23.37,0,.54-.15.54-.51,0-1.51,0-3,0-4.54,0-.77,0-1.55,0-2.33,0-.11.11-.28-.06-.35a1.64,1.64,0,0,0-.39,0c-.17,0-.25.06-.24.25Zm1.75-.29h0v3.34s0,.12.06.14.1,0,.14,0a1.88,1.88,0,0,0,.36-.27.35.35,0,0,0,.12-.25c0-2.07,0-4.13,0-6.2,0-.26,0-.28-.29-.27h-.11c-.17,0-.25.08-.25.28C30.53,31.07,30.53,32.16,30.53,33.25ZM22,36.79v-.43c0-2.15,0-4.3,0-6.45,0-.11,0-.22-.15-.2s-.34-.1-.37.16a5,5,0,0,0,0,.55c0,.82,0,1.64,0,2.46,0,1.11,0,2.22,0,3.32A.7.7,0,0,0,22,36.79Z" fill="#fff"/><path d="M26.25,25.37H31.6c.27,0,.27,0,.27.27l.06,3c0,.28,0,.29-.28.3l-4.93,0-5.86,0h-.23c-.15,0-.21-.05-.21-.21,0-.57,0-1.15,0-1.72s0-.94,0-1.41c0-.13.05-.2.18-.21l.49,0h5.13Zm5.34.83v-.08a.7.7,0,0,0-.14,0l-2.89,0c-.59,0-1.18,0-1.78,0-.06,0-.11-.06-.17-.09s.09-.12.15-.15a.57.57,0,0,1,.19,0l4.3-.05c.1,0,.2,0,.3,0v-.08a1.38,1.38,0,0,0-.2,0l-7,.05-3.26,0c-.32,0-.33,0-.33.31v2.07c0,.51,0,.47.48.47h10.3c.13,0,.23,0,.22-.18s-.07-.21-.21-.2h-1.9c-.07,0-.14-.06-.21-.09l0-.07.21,0c.62,0,1.24,0,1.86,0,.1,0,.18,0,.13-.16-.88,0-1.77.09-2.67,0,0-.19.15-.19.26-.19h2.26c.05,0,.11-.05.17-.09l-.17-.07s0,0-.06,0l-2.67.05a.76.76,0,0,1-.21,0,.14.14,0,0,1-.05-.08s0-.06.07-.07a.27.27,0,0,1,.13,0l2.75,0,.19,0v-.06h-.2l-3,0a1.72,1.72,0,0,1-.32,0,.42.42,0,0,1-.14-.09.42.42,0,0,1,.14-.09,3,3,0,0,1,.42,0l2.92,0a1.42,1.42,0,0,0,.2,0l0-.08c-.1,0-.21,0-.31,0l-3.34,0a1.33,1.33,0,0,1-.28,0s-.11-.08-.1-.1a.23.23,0,0,1,.12-.12.42.42,0,0,1,.16,0l3.57,0,.22,0v-.07a.85.85,0,0,0-.17,0H29.81l-2.47,0c-.08,0-.15-.08-.23-.13.08,0,.15-.12.23-.12l4-.05Z" fill="#fff"/></svg>