<?xml version="1.0" encoding="utf-8"?>
<svg x="0" y="10%"style="position:relative;width:1359px;height:768px;" >
	<g class="firstg"  transform="translate(200 0)"  >
		<text transform="matrix(1 0 0 1 0 100)" class="st4 st8 st9"> NETWORK</text>
		<text transform="matrix(1 0 0 1 4 140)" class="st4 st5 st10">GAME OVER around the world</text>
		<text transform="matrix(1 0 0 1 83 180)" class="st4 st11 st12 st13">See all   &gt;</text>
		<g id="clients" >
			<path class="st4" d="M961.4,324.4l-0.2,0.5h-0.9v0.4h0.2c0,0,0,0.1,0,0.2l0.5,0l0.3-0.2l0.1-0.4l0.4,0l0.2-0.3l-0.4-0.1
				L961.4,324.4z M961.4,324.4"/>
			<path class="st4" d="M959.1,325.2l0,0.4l0.6-0.1l0.1-0.4l-0.4-0.3L959.1,325.2z M959.1,325.2"/>
			<path class="st4" d="M990.5,326l0.2-0.2c0.3,0.5,0.5,1,0.7,1.5l-0.3,0l-0.6,0.1V326z M985.7,320.3v-1.4c0.5,0.5,1,1.1,1.5,1.7
				l-0.6,0.9l-2.1,0l-0.1-0.4L985.7,320.3z M946.2,316.7L946.2,316.7l0.7-0.1l0.1-0.2h1.1v0.5l-0.3,0.4h-1.5V316.7z M947.2,318.1
				c0,0,0.7-0.1,0.7-0.1c0.1,0,0,0.7,0,0.7l-1.5,0.1l-0.3-0.3L947.2,318.1z M992.6,331h-2.4l-1.5-1.1l-1.5,0.1v0.9h-0.5l-0.5-0.4
				l-2.7-0.7v-1.7l-3.4,0.3l-1.1,0.6h-1.3l-0.7-0.1l-1.6,0.9v1.7l-3.3,2.4l0.3,1h0.7l-0.2,1l-0.5,0.2l0,2.5l2.9,3.2h1.3l0.1-0.2h2.2
				l0.7-0.6h1.3l0.7,0.7l1.9,0.2l-0.2,2.5l2.1,3.7l-1.1,2.1l0.1,1l0.9,0.9v2.4l1.1,1.5v2h1c-5.5,6.7-13.9,11-23.4,11
				c-16.6,0-30.1-13.3-30.1-29.8c0-4.1,0.9-8.1,2.4-11.6v-0.9l1.1-1.3c0.4-0.7,0.8-1.4,1.2-2l0,0.5l-1.2,1.5
				c-0.4,0.7-0.7,1.5-1.1,2.2v1.7l1.2,0.6v2.4l1.2,2l1,0.1l0.1-0.7l-1.2-1.8l-0.2-1.7h0.7l0.3,1.8l1.7,2.4l-0.4,0.8l1,1.6l2.6,0.6
				V337l1.1,0.1l-0.1,0.7l0.8,0.1l1.3,0.3l1.8,2l2.3,0.2l0.2,1.9l-1.6,1.1l-0.1,1.7l-0.2,1l2.3,2.8l0.2,1c0,0,0.8,0.2,0.9,0.2
				c0.1,0,1.9,1.3,1.9,1.3v5.1l0.6,0.2l-0.4,2.3l1.1,1.4l-0.2,2.3l1.4,2.4l1.8,1.5l1.8,0l0.2-0.6l-1.3-1.1l0.1-0.5l0.2-0.7l0.1-0.7
				l-0.9,0l-0.4-0.6l0.7-0.7l0.1-0.5l-0.8-0.2l0-0.5l1.2-0.2l1.8-0.9l0.6-1.1l1.9-2.4l-0.4-1.9l0.6-1l1.7,0.1l1.2-0.9l0.4-3.6
				l1.3-1.6l0.2-1l-1.2-0.4l-0.8-1.3l-2.7,0l-2.1-0.8l-0.1-1.5l-0.7-1.2l-1.9,0l-1.1-1.7l-1-0.5l0,0.5l-1.8,0.1l-0.7-0.9l-1.8-0.4
				l-1.5,1.7l-2.4-0.4l-0.2-2.7l-1.7-0.3l0.7-1.3l-0.2-0.7l-2.3,1.5l-1.5-0.2l-0.5-1.1l0.3-1.2l0.8-1.5l1.8-0.9h3.6l0,1.1l1.3,0.6
				l-0.1-1.8l0.9-0.9l1.9-1.2l0.1-0.9l1.8-1.9l2-1.1l-0.2-0.1l1.3-1.2l0.5,0.1l0.2,0.3l0.5-0.5l0.1-0.1l-0.6-0.1l-0.6-0.2v-0.5
				l0.3-0.2h0.7l0.3,0.1l0.3,0.5l0.3-0.1v0l0.1,0l0.9-0.1l0.1-0.5l0.5,0.1v0.5l-0.5,0.3l0.1,0.5l1.7,0.5c0,0,0,0,0,0l0.4,0l0-0.7
				l-1.3-0.6l-0.1-0.3l1.1-0.4l0.1-1l-1.2-0.7l-0.1-1.8l-1.6,0.8h-0.6l0.1-1.3l-2.1-0.5l-0.9,0.7v2l-1.6,0.5l-0.6,1.3l-0.7,0.1v-1.7
				l-1.5-0.2l-0.7-0.5l-0.3-1.1l2.7-1.6l1.3-0.4l0.1,0.9l0.7,0l0.1-0.4l0.8-0.1l0-0.2l-0.3-0.1l-0.1-0.5l0.9-0.1l0.6-0.6l0,0h0
				l0.2-0.2l2-0.2l0.9,0.7l-2.3,1.2l2.9,0.7l0.4-1h1.3l0.4-0.8l-0.9-0.2v-1.1l-2.8-1.2l-2,0.2l-1.1,0.6l0.1,1.4l-1.2-0.2l-0.2-0.8
				l1.1-1l-2-0.1l-0.6,0.2l-0.3,0.7l0.8,0.1l-0.1,0.7l-1.3,0.1l-0.2,0.5l-1.8,0.1c0,0-0.1-1-0.1-1c-0.1,0,1.5,0,1.5,0l1.1-1.1
				l-0.6-0.3l-0.8,0.8l-1.3-0.1l-0.8-1.1h-1.7l-1.8,1.3h1.6l0.2,0.5l-0.4,0.4l1.8,0l0.3,0.6l-2-0.1l-0.1-0.5l-1.3-0.3l-0.7-0.4
				l-1.5,0c5-3.6,11.1-5.7,17.7-5.7c7.6,0,14.6,2.8,19.9,7.4l-0.4,0.6l-1.4,0.5l-0.6,0.6l0.1,0.7l0.7,0.1l0.4,1.1l1.2-0.5l0.2,1.4
				h-0.4l-1-0.1l-1.1,0.2l-1.1,1.5l-1.6,0.2l-0.2,1.3l0.7,0.1l-0.2,0.9l-1.5-0.3l-1.4,0.3l-0.3,0.8l0.2,1.6l0.8,0.4l1.4,0l1-0.1
				l0.3-0.7l1.5-1.9l1,0.2l1-0.9l0.2,0.7l2.3,1.6l-0.3,0.4l-1.1-0.1l0.4,0.6l0.7,0.1l0.8-0.3l0-0.9l0.3-0.2l-0.3-0.3l-1.6-0.9
				l-0.4-1.2h1.3l0.4,0.4l1.1,0.9l0.1,1.2l1.2,1.2l0.4-1.7l0.8-0.4l0.1,1.4l0.8,0.9l1.6,0c0.3,0.8,0.6,1.6,0.8,2.4L992.6,331z
				 M948.9,321.6l0.8-0.4l0.7,0.2l-0.2,0.9l-0.8,0.2L948.9,321.6z M953.1,323.8v0.6h-1.8l-0.7-0.2l0.2-0.4l0.9-0.4h1.2v0.4H953.1z
				 M954,324.6v0.6l-0.4,0.3l-0.6,0.1v-1H954z M953.5,324.4v-0.7l0.6,0.6L953.5,324.4z M953.7,325.8v0.6l-0.4,0.4h-1l0.2-0.7l0.5,0
				l0.1-0.2L953.7,325.8z M951.3,324.6h1l-1.3,1.8l-0.5-0.3l0.1-0.7L951.3,324.6z M955.4,325.6v0.6h-1l-0.3-0.4v-0.5h0.1L955.4,325.6
				z M954.5,324.8l0.3-0.3l0.5,0.3l-0.4,0.3L954.5,324.8z M993.1,332.5l0.1-0.1c0,0.2,0.1,0.3,0.1,0.5L993.1,332.5z M993.1,332.5"/>
			<path class="st4" d="M936.2,326.7v0.9c0.3-0.8,0.7-1.5,1.1-2.2L936.2,326.7z M936.2,326.7"/>
		</g>
	</g>
</svg>
<svg version="1.1" id="GAMEOVER_x5F_MAP" xmlns="http://www.w3.org/2000/svg" xmlns:xlink="http://www.w3.org/1999/xlink" x="0px"
	 y="0px" viewBox="0 0 1920 960" style="position:absolute; left:0px; top:0px;" xml:space="preserve">
<style type="text/css">
	.st0{display:none;}
	.st1{fill:#DA1A35;stroke:#231F20;stroke-width:0.2;stroke-miterlimit:10;}
	.st2{fill:none;stroke:#231F20;stroke-width:0.2;stroke-miterlimit:10;}
	.st3{stroke:#231F20;stroke-width:0.2;stroke-miterlimit:10;}
	.st4{fill:#FFFFFF;}
	.st5{font-family:'Raleway';}
	.st6{font-size:15.129px;}
	.st7{font-size:36.0947px;}
	.st8{font-family:'Raleway-Bold';}
	.st9{font-size:89.1205px;}
	.st8{font-size:2.5rem;}
	.st11{font-family:'Raleway-ExtraBold';}
	.st12{font-size:20px;}
	.st13{letter-spacing:-1;}
</style>

<rect class="st0" width="1920" height="960"/>
<g id="NEDERLANDS" class="animated zoomIn delay-1s">
	<polygon class="st1" points="387.9,472.9 389.6,472.4 388.4,470.7 385.3,471.9 387.4,472.1 	"/>
	<polygon class="st1" points="389.4,469.2 389.9,470.2 391.8,470.7 392.5,469.9 389.3,468.5 386.9,468.5 387.4,469.9 	"/>
	<polygon class="st1" points="383.3,481.1 385.8,481.1 387.7,483 389.4,481.1 392.7,480.4 393.5,479.4 395.9,479.1 396.9,476.7
		402.7,476.7 404.8,478.7 407.7,478.7 409.4,481.1 414,480.8 415.5,483.7 415.4,485.9 418.3,486.8 419.6,483 420.8,477.4
		419.8,472.3 422,469.5 424.1,466.1 428.7,464.9 433.1,465.9 435.5,464.6 433.6,461.3 435.8,459.8 436.3,456 437.4,454 435.7,452.3
		431.4,452.5 430.9,450.2 432.4,446.8 436,448.5 438.2,446.7 438.4,443.3 439.8,440.2 439.9,438.3 441,437.1 441,436.3 437.7,435.2
		435.2,433 430.2,430.5 425.3,431.3 422.2,433.9 419.3,432.7 417.6,433.9 413.3,434 409.4,438.3 403.2,441.7 401.9,440.7
		398.3,442.2 398.1,446.3 394.7,448.9 395.7,453 395.1,456.6 393.5,459.6 392.3,461.7 389.8,463.7 389.9,466.3 393.9,469.9
		397.3,470.9 393.4,470.9 391.6,472.4 390.5,473.5 392,475.3 393.9,475.7 394,477.4 391,477.5 388.1,474.5 385.2,473.1 382.3,474.1
		383.3,475.8 386,476 388.4,478.4 389.4,478.1 392.7,480.3 389.6,479.1 387.6,479.1 382.9,477.5 379.9,477.5 379.7,477.7
		381.8,478.6 	"/>
</g>
<g id="DENMARK" class="animated zoomIn delay-1s" >
	<line class="st2" x1="492.3" y1="388.1" x2="492.3" y2="388"/>
	<polygon class="st1" points="511.4,392.9 511.9,394.3 513.5,392.1 515.9,391.6 515.3,389.7 512.8,390.7 	"/>
	<polygon class="st1" points="497.1,377.7 498.5,379.8 498.3,383.4 500.2,385.8 502.4,385.8 506.3,386.9 507,388.5 505.5,390.2
		506.8,392.1 509.4,391.9 510.7,390.2 510.6,387.8 514.2,386.3 515.9,384.6 515.3,382.5 512.3,380.5 512.3,379.3 515.9,377.4
		516.9,373.3 516.5,369.7 515.5,366.8 511.6,367 507,368 505.5,371.1 506.6,372.6 509.2,374.5 509,376.2 507.2,375.9 506.5,376.7
		503.4,374.5 503.2,373 501.7,370.9 500,372.1 498.6,374.7 496.6,375.2 	"/>
	<polygon class="st1" points="517.9,375 516.7,378.6 518.9,379.3 	"/>
	<polygon class="st1" points="557.7,389.3 554.8,384.6 551.5,382.7 550.7,387.3 551.5,390.4 557,392.2 	"/>
	<polygon class="st1" points="490.9,387.5 490.1,384.7 487.9,380 485.5,380.3 481.7,378.2 476.6,379.3 475.8,383.5 477.6,387.3
		480.7,390.5 483.6,391 485.5,392.2 488.9,391.6 	"/>
	<polygon class="st1" points="496.6,396.5 494.7,397.4 496.1,399.2 501,400.9 505.8,400.4 507.5,398.4 508.4,400.9 509.2,401.4
		509.2,398.7 510.7,395.6 510.1,393.3 509.5,393.8 506.6,393.6 505.6,396.2 503.9,396.2 501.7,396.8 498.5,392.4 496.9,392.9
		495.6,395 	"/>
	<polygon class="st1" points="527.6,404.2 526.8,406.6 527.8,407.8 531.4,409 533.6,405.9 535.7,406.6 535.8,405 534.5,402.5
		535.1,399.6 532.6,399.1 531.4,399.6 530.4,398.9 527.6,399.6 527.8,401.8 530.5,402 529.9,402.8 	"/>
	<polygon class="st1" points="490.4,336.1 493,336.1 495.7,334.1 492,334.1 	"/>
	<polygon class="st1" points="459.4,348.9 459.7,352.5 461.4,351.6 464.2,348.4 464.7,346.2 461.9,346.3 	"/>
	<path class="st1" d="M492.7,394.6l2-3.9c0,0-2-2-2.2-2.6l-0.9,4.8l-1.4,2.7l0.7,1.7L492.7,394.6z"/>
	<polygon class="st1" points="486.7,324 482.1,328.6 477.6,330.5 474.6,331 472.5,334.2 470.8,338.1 467.4,340.5 463.6,340.5
		459.4,343.9 458,343.1 455.6,343.3 454.4,346.8 451.9,349.6 453.6,350.9 454.9,350.1 458.5,354.2 457.8,349.6 458.5,347.4
		464.3,343.8 465,344.3 467.9,343.8 471.7,344.6 474.1,343.8 477.5,343.8 480.4,345 482.2,344.1 485.5,338.3 484.8,334.6
		485.5,333.2 484.6,329.6 487.2,325.2 	"/>
	<polygon class="st1" points="487,396.2 488.4,395 484.5,393.6 	"/>
	<polygon class="st1" points="489.2,372.3 488,367.8 487.9,372.6 486.3,375.2 488.9,374.7 	"/>
	<polygon class="st1" points="468.6,394.5 470.5,395.3 473.4,394.8 473.2,394.6 474.2,392.6 471.8,390.2 470.5,390.2 470.6,387.8
		472.7,386.1 472.9,383.5 471.2,382.9 471.3,380.5 478,377 476.4,375.9 479,373.1 480.4,374 484,372.8 483.8,368 482.2,364.9
		484.3,362.9 487.4,362.5 489.4,364.8 490.6,363.9 492,364.4 493,362.7 494,359.8 491.1,356.6 489.4,357.9 485.3,357.8 483.4,355.7
		481.6,353 479.9,352.7 481.4,350.8 481.4,347.2 478.2,345 473,345.5 470.5,346.5 467.7,346.2 466.5,347.4 469.3,351.3 468.6,352.7
		471.3,355.9 471,357.1 468.4,355.9 465.5,356.6 465,355 466.9,353.2 465,349.8 464.2,349.8 461.4,353.7 463,355.9 459.7,358.1
		457.7,355.9 454.9,355.9 452.9,354.9 450.7,357.4 454.3,360.2 454.3,363.4 452,361.7 450.7,362 451.2,366.3 453.6,367.7
		453.6,371.6 455.6,373.5 450.9,375.7 449,380.6 450.9,382.3 453.8,380.6 457.7,384.2 458.4,389.5 457,390.4 457.7,392.9
		462.3,392.7 	"/>
</g>
<g id="FRANCE" class="animated fadeInUpBig" >
	<polygon class="st1" points="450.7,633.5 445.6,633.5 440.1,629.7 439.3,620.9 435,616.3 437.5,613.5 441.5,613 442.5,607.4
		439.3,604.3 438.7,600.2 440.3,598.3 440.6,598.5 439.9,595.6 438.1,594.1 436.9,589.8 435,586.6 430,586.4 427.6,588.4
		429.2,592.7 424.9,594.4 421.3,594.1 420.8,591.4 422.9,590.3 424.9,590.5 424.9,587.1 425.6,581.8 430,574.8 432.8,573.8
		436,569.5 439.1,568.1 438.6,564.9 435,563 437.2,560.3 441.1,560 442.2,562.2 445.2,562.7 450.9,560.8 449.1,557.6 446.2,555.7
		445.9,550.7 447.8,544.8 450,542.6 450,540 451.9,534.7 455.8,530.8 452.4,528.6 449.1,528.6 445.1,526.7 442,527.7 439.8,526.9
		436.9,526.9 434,527.7 430.9,525.3 430.9,523.1 427.8,520.7 425.3,521.2 420.8,520.4 418.9,517.3 418.6,517.3 416.2,517.3
		414.7,518.2 411.6,515.9 408.2,515.8 404.1,510.8 401.9,510.3 400.5,508.6 398.3,508.6 396.4,509.8 392.8,507.9 392.7,503.1
		390.3,502.1 388.1,500.4 386,500.4 381.2,496.5 380.6,493.6 376.6,492.2 375.9,486.2 373.9,484.7 373.4,485.7 367.2,487.8
		365.9,486.6 360.9,489.5 359.7,492.9 360.4,496.8 359.4,503.3 354.5,508.1 354.5,510.1 349,511.7 346.1,511.8 343,510.8
		336.5,514.4 335,517.3 336.2,519.3 339.1,520.4 335,523.3 330.1,524.3 323.4,523.4 320.3,521.9 317.9,523.3 316.9,520.9
		314.7,519.3 315.7,516.6 313,515.3 310.1,516.3 306,516.1 304.3,515.4 305.3,519.3 304.8,520.9 310.4,526.3 309.4,528 310.3,530.6
		309.6,533.2 311.5,535.6 311.8,538.6 305.8,537.8 303.1,538.6 300.7,537.9 297.6,538.8 296.6,537.6 292.7,540.8 287.9,534.4
		285.2,533.5 281.1,534.4 277.8,537.4 276.1,536.4 274.3,538.3 272.6,537.1 269,537.4 266.8,539.7 261.6,540.2 259.2,542.9
		260.6,545.1 263.5,544.1 266.6,544.9 267.4,546.1 264,545.5 262.1,545.8 263.3,549 264.4,546.5 266.4,547.3 266.9,549.5 265,550.2
		261.8,551.4 262,552.3 265,552.3 266.2,556 265.9,558.1 269.5,555.7 271.9,556.4 273.9,556 279.5,558.2 280.6,560.1 282.8,560.1
		286.7,562.7 289.4,560.1 291,560.6 290.5,562.5 291.3,563.7 294.2,562 295.9,563.7 294.6,567.1 296.1,569.5 298.1,569.7
		301.6,567.6 305,568 307.2,571 304.5,569.3 301.4,569.5 299.3,572.2 301.2,573.1 301.9,576.5 300.4,579.2 300.9,581.5 303.8,582
		308,587.3 312.3,587.9 316.4,590.3 316.2,593.2 317.8,595.8 316.4,599 315.7,599.5 314.9,602.4 317.8,603.1 322.9,607.2 327,616.9
		322.5,612.7 321.4,608.4 317.9,606.7 316.2,607.9 314.5,616.4 314.7,622.7 317.4,624.5 315.2,626.2 314.2,637.9 311.1,648
		307.2,650.4 310.1,652.1 310.4,652.9 312.6,653.3 313.2,656.9 312.6,659.6 317.8,659.1 324.6,661.8 327.8,665.2 331.2,663.7
		335.2,667.6 339.9,667.4 342.2,668.6 345.2,665.6 353.1,665.4 356,666.9 360.8,666.4 365.7,669.2 373.7,668.5 379.5,671.9
		381.6,672.7 381.4,671 380.2,666.1 381.4,660.1 381.9,657.4 385.7,653.8 391.6,647.5 393.7,647.3 395.6,648.7 399.5,649.2
		403.8,651.8 406.5,651.8 409.2,649.7 411.6,649.4 422,655.8 424.9,658.4 432.6,658.7 435.8,656 435.2,654.3 438.2,650.6 449,642.5
		449.7,642.4 448.5,638.6 	"/>
	<polygon class="st1" points="465.7,675.1 466.4,677.5 468.8,678.9 468.8,680.1 467.6,680.9 468.6,682.6 471,683.8 470.8,686.2
		472,686.2 472.9,687.8 471.5,687.6 470.5,689.3 471.3,691 476.4,693.2 479.9,691.5 481.6,686 481.4,681.6 483.6,673.8 481.7,666.8
		482.1,662.3 481.2,657.4 479.5,657.4 478.8,660.5 479.9,662.7 479.3,665.7 478.2,665.7 475.9,663.5 473.9,665.7 468.8,667.4
		466.4,671.7 468.3,673.4 467.7,675.1 	"/>
</g>
<g id="SWEDEN" class="animated zoomIn delay-1s">
	<polygon class="st1" points="500.3,314.3 497.9,314.8 497.8,317.3 499.7,317.2 	"/>
	<polygon class="st1" points="601.2,285.4 601.2,281.2 604.6,278.3 604.6,275.4 600.5,275.4 597.2,280.3 599.8,284.2 	"/>
	<polygon class="st1" points="663.3,135.8 660.4,129.5 657.1,136.1 655.4,131.2 656.5,128.6 656.5,122 655.8,119.4 656.6,124.4
		655.6,118.2 653.6,115.3 653,110.7 654.6,108.2 653.6,104.1 649.1,103.9 648.6,100.3 650.3,96.4 649.3,91.4 650.7,96.2 648.9,93.6
		646.6,93.5 643.7,89.4 642.5,89.7 640.9,89.6 639.7,86.3 636.3,90.2 633.9,89.6 631.4,88 624.7,87.5 620.1,84.1 614.1,77.1
		609.7,74.9 606.8,71.5 605.6,72.1 601.7,72.8 597.8,71.6 597.9,75.1 600.7,76.6 601.5,80.2 598.8,81.7 598.3,87 600.1,89.7
		600.1,94 598.6,93 596.9,93.6 594.7,91.8 590.6,91.4 587.2,89 581.4,87.5 577.8,89.6 572.8,89.4 571,90.4 573.7,94.8 572.8,96.7
		572.8,98.6 571,100.5 573,104.1 570.5,106.3 568.2,106.8 566.5,104.9 562.8,103.2 559.2,105.9 556.5,103.7 554.2,105.1
		553.2,109.2 551,112.1 548.8,113.3 549,113.3 551,115.5 552.9,112.8 551.2,116.9 546.4,123.5 541.6,124 541.5,127.4 538.7,129.8
		532.8,131 527.3,134.3 527.3,137.8 529.7,140.2 529.9,145.2 528.1,149.6 526.4,157.3 526.1,165.5 520.3,179.8 520.1,176.2
		521.7,178.8 522.2,177.4 519.1,181.5 513.3,181.2 508.7,180.2 505.1,182.4 501.2,189.2 500,181.3 501.5,190.2 502.6,199.3
		501,196.7 502.9,201.5 503.7,208.3 502.7,214.8 502.9,221.1 507.8,223.7 513.8,230.1 512.3,234.1 512.1,239.7 504.3,242.3
		504.1,245.2 507.3,251.5 508.5,251.5 510.9,254.9 508.5,260.2 508.7,263.9 507.3,266.5 501.9,267 500.8,268.9 502.6,272.5
		500.2,273.7 498.8,276.6 501.4,281.2 502.2,291.9 500.3,295.3 498.3,291.9 496.2,290.4 495.9,290.7 493.3,292.4 493.8,299.8
		495.2,301.8 495.6,307.3 498.1,308.6 499,310 498.5,313.6 502.2,311.9 499.8,309.5 500.3,306.8 502,306.9 501.2,308.6 504.1,310.3
		504.9,312 501.5,314.9 501,317.7 502,320.4 501.5,324.2 500,325.7 501.9,328.6 504.8,329.3 506.5,333.7 508,334.9 511.1,341.4
		511.6,346.2 515,347.5 516,350.9 519.3,354.2 522.9,352 523.9,356.2 521.5,360.8 517.2,361.4 516.5,363.2 518.9,364.8 519.4,367.8
		522.9,368.9 524.4,376.9 522.5,380.1 524.4,381.8 527.6,381.8 536.5,379.4 540.8,381 544.2,377.9 543.8,375.2 542,373.5
		544.2,367.8 549.6,367.2 550.8,361.7 551.7,364.3 557.8,365.3 561.8,363.1 564.8,364.6 566.7,366.8 570.5,362.4 571.7,355.6
		574.4,352.7 575.1,344.3 576.6,341.6 573.5,338.8 573.9,335.4 576.8,332.2 574,328.6 577.1,325.9 573.4,323.5 575.1,320.6
		572.8,317.3 576.6,318.7 580.7,317.8 577.1,314.6 578.8,310.7 578.6,308.5 573.5,306.8 580,306.4 576.6,303 573.7,302.5
		575.6,300.3 577.5,300.3 578,301 580,299.2 579.8,297 582.6,299.2 583.1,295.7 585.5,293.1 587.7,292.8 587.2,290.5 588.5,288.8
		589.7,290.4 589.1,293.4 590.9,293.6 594,289 596.4,289 598.6,287.1 598.3,283.9 596.2,282 592,280.8 589.1,282.5 587.3,281.7
		584.6,283.2 582.4,280.3 578.8,279.6 576.6,278.3 572,278.3 571.7,280 570.3,278.9 565.2,278.4 565,277.2 567.4,276 570.3,277.6
		572.8,274.3 574.2,275.7 576.8,275 578,272.8 581,273.3 582.4,275 584.4,274.8 584.6,272.8 586.3,274.5 590.3,275.9 589.9,278.1
		592.6,279.6 597.4,278.4 598.6,275 602.9,270.2 605.1,265.1 601.7,261.9 601.7,259.2 596.6,256.2 597.6,254.2 591.4,257.3
		590.6,254.4 588.2,252.5 585.3,256.1 583.4,253 581.7,254 581.7,250.8 579.3,250.3 577.6,247.5 575.7,245.5 578.1,242.6
		576.3,238.7 577.8,237.8 577.8,235.8 575.2,234.8 577.8,231.5 576.8,226.4 577.6,225.4 579.8,227.2 580.2,223.8 577.6,221.1
		578.5,216.2 577.8,212.2 578.8,210.9 578.3,206.6 574.4,201.7 577.1,202.5 582.1,201.7 584.8,197.6 583.4,194.7 584.3,192.8
		587.3,193.6 592,189.5 592.3,187.5 589.9,187 590.9,184.2 593.3,181.9 594.9,183.7 596.4,183.2 597.2,179.6 598.6,179.6
		600.1,181.9 602.5,179.8 602.5,175.9 604.1,172.3 606.6,172.3 607,174.9 609,174.9 610.7,171.5 615,169.1 613.6,173.7 614.1,170.8
		616,173.2 619.6,169.7 621.6,169.9 625.1,164.1 624.5,166.3 627.1,163.3 629.3,163.3 632.7,166.7 630.2,166.7 628.3,163.9
		630.3,163.3 629.3,161 626.6,160.5 623.2,157.8 627.3,157.1 626.6,154.6 628.6,156.4 629.7,154.6 628,152.3 625.9,152.3
		624.4,157.6 625.6,156.4 627.6,157.5 628.3,158.7 629.7,158.3 629.8,156.3 626.6,154.7 629.3,153.4 632.2,153.5 635,151
		632.7,149.4 630.7,145.3 632.9,146 634.4,147.9 637,147.4 638.2,144.7 638.5,141.3 640.4,139.9 642.5,143.6 645.2,140.2
		646.6,143.1 649.3,144.3 650.8,141.4 653.6,143 657.5,140.4 659.5,142.8 662.8,143 665,141.4 665.2,141.6 665.3,137.8 	"/>
	<polygon class="st1" points="602.9,340.2 604.2,339.7 603.4,342.6 601.5,345 601.9,346.5 605.8,345.5 606.6,343.4 605.4,342.6
		605.9,340.4 610,337.3 610.4,335.1 612.9,332 612.6,330.5 610.2,328.3 611.6,325.4 611.9,323.5 613.3,322.1 611.4,321.1
		609.5,322.1 605.8,322.1 603.6,325 602,328.1 599.6,330.5 600.7,334.4 599.5,335.2 	"/>
	<polygon class="st1" points="577.3,347.5 576.1,356.9 576.6,360.2 576.6,362.4 577.6,363.6 579,360.5 580.9,355 581.4,349.4
		583.1,343.6 583.8,338.5 581.9,336.4 579.8,339.7 580.4,341.2 579.2,346.3 	"/>
	<polygon class="st1" points="613.6,319.9 614.8,321.6 616.7,319.7 619.8,318.9 618.9,317.7 615.5,317.8 	"/>
	<polygon class="st1" points="612.3,304 613.8,306.9 615.5,304.7 613.8,303.2 	"/>
</g>
<g id="FINLAND" class="animated zoomIn delay-1s">
	<path class="st1" d="M659.7,257.3l1.4-0.3l-1-2.4L659.7,257.3z"/>
	<polygon class="st1" points="665.3,260.9 664.6,258.3 663.4,260 661.7,260.9 663.1,262.4 	"/>
	<polygon class="st1" points="632.9,173.2 630.9,171.3 630.3,173.5 631.5,174.5 	"/>
	<polygon class="st1" points="649.5,248.4 645.9,253.2 645.9,248.2 647.2,249.8 	"/>
	<polygon class="st1" points="652.4,253.2 654.7,254.5 657.8,252 658.3,250.1 653,251.1 	"/>
	<path class="st1" d="M638.2,254.7l1.4-6.7l1.9,7L638.2,254.7z"/>
	<polygon class="st1" points="615.2,251.8 614,253.5 616,255.1 618.1,257.3 621.5,258.5 624.2,261.2 626.6,259.8 625.7,256.8
		623.2,257.1 621.5,254.2 622.7,252.8 625.1,253.2 624.5,250.6 619.4,254.9 617.7,255.1 617.5,249.9 620.3,251.6 619.3,253.2 	"/>
	<path class="st1" d="M754.6,227.6l4.6-8.2l4.8-7.2l3.6-8.5l7-11.8l4.9-12.3l-1.2,2.6l-7.5-8.5l-4.4-1.5l-8-11.1l1.4-5.1l3.2-4.4
		l-0.3-5.1l-5.1-3.6l-1.9-3.9l-0.2,1.5l1.4-1.5l-1.5-3.2l-4.3-0.7l-2.2-2.9v9.9l2.4-3.1l-3.4-0.9l0-3.2l0.7-11.1l3.1-0.7l-7.7-10.1
		l-7,2.6l-1.5-4.8l-4.1-4.4l2.9-8.2l3.4-5.6l1.7,2.7l-2-2l-7.8-4.9l-1.4-3.2l-2.6-3.9l-4.8-2.6l-2.4-0.3h-2.9l-2.4-2.9l1.2-5.8
		l0.7-4.6l-2.7-0.9l2.7-1.9l4.6-1.9V60l-0.7,0.9l3.1-4.8l0.5-3.6l-3.4-3.6l-1-2.7l-5.8-0.7l-3.8-1.4l-2.4-2.6l-4.1-5.3l-3.2-2.2
		l-7.2,0l-2.9,3.1l0.3,1.5l-2.6,0.7l-4.4-0.9l-3.6,1.5l0.2,2l-2.7,3.8l-2,1.2l1.5,2.6l-1,2.7l-0.9,8.9l1.5,5.3l1.2,2.9l-1.2,2.2
		l-2.9,2l-2.9-0.2l-2.7,2.6l-2.2,1.2l-2,3.8l-3.8-0.7l-5.6-3.9l-3.6-0.2l-2.4,2.6l-4.3,4.1l-8-0.3l-4.8-2l-3.1-3.8l-1.4-3.6l-7.3-6
		l-2.6-3.9l-3.2-0.5l-2.4,2l-0.7,2.9l1,2.6l-1.2,0.9l-1.5-0.7l-0.7,1l2.9,3.4l4.4,2.2l6.1,7l4.4,3.4l6.7,0.5l2.6,1.5l2.4,0.7
		l3.4-3.9l1.2,3.2l1.5,0.2l1.2-0.3l2.9,4.1l2.4,0.3l1.5,2.6l-1.2-4.8l0.9,4.9l-1.5,3.9l0.3,3.4l4.6,0.3l1,3.9l-1.5,2.6l0.5,4.8
		l1.9,2.7l1.2,6.1l-0.9-4.9l0.7,2.6v6.7l-1.2,2.6l1.7,4.9l3.2-6.7l2.9,6.3l1.9,2l-0.2,3.8l1.2,1.4l3.2,0.2l3.1,3.2h6.5l4.4-3.6
		l-2.4,1.2l1.7,2.4l0.3-2.6l-1.2,1l5.3-3.1l-3.8,7l-1.4,0.5l4.4-4.1l0.2,2l-5.3-2.9l-4.3,0.2l-4.6,2.9l0.2,2.7l-3.1,3.2v2.4l-1.4,1
		l-5.3-2.2l-0.9-2.2l-1.4,0.3l-0.9,6.1l-1.5,0.3l1.2-4.4l-0.9,2.7l-3.6,0.3l-2,2.9l0.9,4.3l2.4,1.7l-4.1-1.4l-1.2-1.5l-2.4,0.9
		l-1.4,3.6l0.5,1.7l-2.4-1l-0.9,1.4l2.4,2.4v1.7l-2,2.2l-1,1.9l-3.1,1.9l-1.7-1.2l-0.3-1.2l-2.2-0.7l-2.4,0.9l0.9,3.1l-1.9,1.7
		l1.4,3.2l-1.4,3.2l-1.5,0.3l-1.7,2.9l1.4,3.4l0.9,0.7l-1,3.4l0.7,2.2l2.2-1l1.9,1.9l-0.5,3.8l-0.9,1.9l1.2,3.2l-0.7,1.5l3.4,5.6
		l1.7,1.4l-1.2,2l2.6,4.1l-2.4,1l0.5,5.3l-1.2,2l-0.2,7l1.9,2.6l-1.9,3.8v2.6l1.4,1.9l4.6-2l1.7,1.4l0.9-2l3.9,4.1l2.4-0.3l2.4-5.8
		l4.9,7.3l1.4-7.2l-1.4,2.4h1.9l4.1-2.9v2.4l-2,2.9l4.3,6.1l0.9,2l-1.2,3.6l1.2,0.7l1.9-5.1l2-1l0.3,2.2l3.1-1.4l2.4-0.2l5.6-4.1
		h3.1l6.8-4.4l0.3-1.9l4.4,1.4l3.1-0.5l2.7,3.6l0.7-6.3l-1.4,2.9l1.9,0.9l1.9,3.6l1.5,0.3l-1.4-3.6l1.4-1.4l1.7,3.4l1.9-7.5l0.9,5.3
		l1.7-4.1l2.2-0.9l0.3-2.4l1.9,0.5l0.9,1.9l2.2-2l4.4-0.9l2.4,2.2l5.3-0.9l0.3-1.9l-1.4-1.4l1.5-0.9l2.4,0.9l0.5,2l3.4,0.9
		c0,0,0.7-1.7,1.4-2.9l-0.7-4.9l8-7.5L754.6,227.6z"/>
	<polygon class="st1" points="680.7,144.5 675.4,143.6 672.1,146 674.5,149.4 677.6,149.6 678.8,148.1 677.3,146.2 680.3,146 	"/>
	<polygon class="st1" points="627.8,178.4 629.8,180.8 632.9,179.1 633.1,176.2 631,177.3 629,175.5 	"/>
</g>
<g id="GERMANY" class="animated zoomIn delay-100ms">
	<polygon class="st1" points="439.9,438.3 439.8,440.2 438.4,443.3 438.2,446.7 436,448.5 432.4,446.8 430.9,450.2 431.4,452.5
		435.7,452.3 437.4,454 436.3,456 435.8,459.8 433.6,461.3 435.5,464.6 433.1,465.9 428.7,464.9 424.1,466.1 422,469.5 419.8,472.3
		420.8,477.4 419.6,483 418.3,486.8 418.6,486.9 417.6,489.5 420.1,494.8 420,496.8 422.2,500.1 420.1,504.8 421.3,504.8 425.4,510
		426.1,513.5 428,515.3 427.6,520.7 427.8,520.7 430.9,523.1 430.9,525.3 434,527.7 436.9,526.9 439.8,526.9 442,527.7 445.1,526.7
		449.1,528.6 452.4,528.6 455.8,530.8 451.9,534.7 450,540 450,542.6 447.8,544.8 445.9,550.7 446.2,555.7 449.1,557.6 450.9,560.8
		450.7,561 453.6,561.8 456.7,560 460.9,561.5 462.1,559.4 461.8,557.2 465.2,556 466.4,559.4 468.6,560 470.3,558.4 472.7,558.6
		477.3,562 479,563.2 480,563.2 481.9,562.2 485,561 487.4,563.5 491.8,564.7 492.8,563.4 492.5,561 497.1,560.5 501.9,561.2
		504.3,562.7 507.3,562 510.1,562.9 513,562.2 518.4,558.6 521.1,558.2 525.1,559.4 529,558.2 532.8,560.5 534.6,559.3 534.1,556
		529.9,554 529.9,551.8 534.5,545.8 538.4,543.9 540.4,540.5 543.2,540.5 543,537.1 543.5,534 543.5,533.9 536.7,525.8 533.3,523.6
		527.5,519.5 524,517.6 523.2,515.1 523.4,511 519.8,505.4 515.2,502.6 515,500.1 516.5,499 518.2,500.4 521,501.8 527.1,496.1
		530,495.8 533.4,492 537.2,491.9 539.1,489 544.7,489 547.3,489.5 550,487.8 550,484.7 555.4,485.9 557.7,484.4 560.1,485.7
		560.7,484.7 561.8,483.2 561.4,474 559.4,471.2 557.1,470 554.1,463 555.4,460 553.9,456.4 553.9,453.8 551.5,450.6 552,447.2
		546.7,441.4 546.7,439 551.5,436.6 552,430.8 550.2,423.1 547.1,423.3 545,421.4 542.1,421.9 539.1,419.4 539.7,416.1 537.7,413.1
		534.3,413.7 529.9,409.5 526.9,409 525.8,407.1 524.2,407.9 520.5,408.3 516.9,410.8 515.5,409.5 517.4,407.8 517.9,408.1
		519.3,406.7 522.9,405.4 518.4,404.9 516.9,405.7 516.4,407.4 513,409.1 512.8,410.7 506.5,411.7 504.1,415.1 503.6,417.5
		500,417.8 498.8,416 495.7,415.6 494.2,416.3 489.8,415.1 492.8,412.9 495,413.2 497.3,410.5 497.1,407.6 495.7,406.9 493,409
		492.1,410.2 487.9,407.1 486.5,405.2 485,406.2 484,408.1 481.4,410 480.4,407.1 477.6,406.4 476.6,404.3 478.3,402.6 480.2,398.7
		476.8,398.4 473.4,394.8 470.5,395.3 468.6,394.5 462.3,392.7 457.7,392.9 457.8,393.8 457.7,396.7 459.9,398.2 461.8,398.2
		461.6,400.8 465.4,404.3 462.1,405.4 459.4,405.4 459.4,408.4 462.5,407.1 462.5,411.2 465.5,413.1 462.8,415.3 462.8,417.7
		465.2,419.2 469.3,419.4 474.7,425 481.9,428.1 474.4,426.5 468.9,420.6 465.4,421.9 462.6,420.6 459.9,421.1 457.7,424.5
		458.4,427.4 458.5,432.3 460.1,435.6 456.3,431.3 456.7,427.4 454.1,425.2 452.6,425.8 452.6,428.2 454.1,431.3 452.4,433
		449.5,429.6 449.5,425.8 445.7,423.1 443.5,424.1 435.8,426.2 435.2,429.6 436.9,432.5 440.6,433.2 441.3,436.4 441,436.3
		441,437.1 	"/>
</g>
<g id="SWITZERLAND" class="animated zoomIn delay-100ms">
	<polygon class="st1" points="496.9,571.7 494.2,571.7 491.3,574.5 487.7,571 485.5,571.9 482.8,571.7 481.1,571.7 480,569.7
		480.9,567.5 481.2,564.6 477.3,562 472.7,558.6 470.3,558.4 468.6,560 466.4,559.4 465.2,556 461.8,557.2 462.1,559.4 460.9,561.5
		456.7,560 453.6,561.8 450.7,561 445.2,562.7 442.2,562.2 441.1,560 437.2,560.3 435,563 438.6,564.9 439.1,568.1 436,569.5
		432.8,573.8 430,574.8 425.6,581.8 424.9,587.1 424.9,590.5 422.9,590.3 420.8,591.4 421.3,594.1 424.9,594.4 429.2,592.7
		427.6,588.4 430,586.4 435,586.6 436.9,589.8 438.1,594.1 439.9,595.6 440.6,598.5 444.2,599.9 451,594.9 455.5,597 461.6,586.2
		465.7,588.8 465.2,592.7 470.6,595.4 472.4,598.9 475.8,592.7 475.8,587.9 483.3,590 486.3,589.6 489.2,592.2 489.9,585.7
		496.7,584.2 495,578.7 498.3,574.6 	"/>
</g>
<g id="UK" class="animated slideinleft delay-100ms">
	<polygon class="st1" points="236.2,342.2 237.6,345 238.8,343.9 237.9,342.1 	"/>
	<polygon class="st1" points="243.7,370.1 246.3,364.3 240.5,369.7 241.7,372.8 	"/>
	<polygon class="st1" points="238.9,326.9 237.2,327.6 237.6,331.5 234,328.9 234.2,332 233,331.2 231.6,332.3 234.7,334.7
		234.8,333.4 236,334.4 235.7,335.4 237.9,339.5 241.8,339.2 242.2,342.4 243.5,342.2 244.6,339.2 246.8,338 245.6,337 243.7,337.5
		240.3,335.6 240.6,329.8 	"/>
	<polygon class="st3" points="282.6,291.1 280.9,291.2 282.3,292.8 	"/>
	<polygon class="st1" points="346.1,475.5 344.9,476.2 346.9,477.2 348.8,476.9 347.8,475.7 	"/>
	<polygon class="st1" points="231.1,321.1 229.7,321.8 229,323.1 227.9,323.8 230.1,325.5 233.8,322.1 	"/>
	<polygon class="st3" points="239.5,366.1 238.9,364.4 237.9,367.7 	"/>
	<polygon class="st1" points="228.4,357.1 231.3,354.7 228.5,354.5 	"/>
	<polygon class="st1" points="233.1,315.1 229.6,313.4 227.7,315.8 229.6,317.7 228,318.9 229.6,320.2 232.6,319.7 235.5,320.6
		237.7,317.5 236.7,316.6 237.6,314.3 240.5,311.5 240,307.1 232.3,312.6 	"/>
	<polygon class="st1" points="223.2,331.3 223.2,332.3 225.3,333.2 226.3,330.8 	"/>
	<polygon class="st1" points="279.4,294.8 279.5,297.4 282.6,296.9 284.5,298.1 284.5,295.5 280.7,295.8 282.1,294.3 280.1,292.3
		277.5,292.6 277.5,295.7 278.5,296.9 	"/>
	<polygon class="st1" points="244.6,330.1 245.3,333.9 245.1,335.1 249.3,334.4 246.6,335.9 246.3,336.6 247.1,337.1 249.9,336.3
		249.3,337 250.4,338.3 248.3,337.5 247.6,338 247,339.9 248.2,340.5 246.4,340.9 245.4,342.4 247.3,343.1 247.8,344.6 244.6,343.4
		244.1,345.5 245.3,346.3 244.6,347.7 243.2,348.7 240.1,348.7 238.8,350.1 240,350.8 242.5,350.6 244.2,351.1 243.9,352 241.8,352
		244.6,354.5 245.4,354.2 246.8,355.6 253.8,348.6 252.6,350.6 253.6,351.3 251.6,352 249.9,356.1 250,357.1 248,361.2 248.8,361.7
		247,366.6 247.5,369.7 246.1,371.6 247.1,373.3 248.3,372.6 246.1,376.2 245.8,381 244.1,382.7 244.2,383.9 248,383.9 247.5,381.3
		249,377.7 248.8,375.3 250.7,373.1 249.3,367 250.7,367 255,361.9 251.7,366.6 251.2,370.2 252.6,371.2 252.8,369 255,367.3
		256,370.6 257.7,366.6 257.4,363.9 258.7,363.1 258.2,366.6 261.8,369.5 258.7,368.7 257.5,373.1 258.2,376.5 260.1,377 261.3,380
		258.4,382.9 255.7,390.2 256.3,393.6 253.8,392.1 254,395.6 257.4,400.4 256.3,396 258.6,395.3 264.7,399.6 264.7,396.2
		262.3,394.3 263.9,393.8 268.6,396.8 272,396.3 272,394.8 275.3,395 276.1,392.1 284.7,392.4 279,393.9 275.6,403.7 279.7,411.2
		281.9,410 281.9,413.9 284.7,410.7 288.1,411.2 286.9,415.3 287.9,416 284.5,418.5 285.5,423.1 283.8,426.7 285.9,429.4
		288.3,431.5 290.3,431.8 288.9,432.7 286.7,432.8 284.7,430.1 282.8,430.8 284.3,433.5 286,434.5 283.5,434 281.3,431.8
		275.8,433.5 273.2,433.2 267.6,436.1 264.7,440.2 260.6,442.7 258.9,445.3 261.5,444.8 262.8,445.3 263.2,443.8 269,442.2
		268.5,445.1 270.5,447.3 268.3,448.9 269.5,451.3 270.8,451.6 267.1,458.8 264.4,459.6 261.6,461.8 260.3,461.8 256.9,464.1
		254.3,464.1 250.2,466.6 253.4,467.1 253.6,469.5 251.2,470.7 255.5,471.4 254.3,472.4 256,473.3 258.4,472.6 261.1,470.9
		265.6,469.5 265.9,471.6 269.5,472.4 266.6,473.1 266.2,474.8 271,475 271,474 273.4,473.3 276,476.2 278.2,478.7 283.6,478.7
		285,476.5 287.6,475.5 291.2,474.1 292.5,472.1 295.6,470.7 291.5,475.5 287.4,479.4 287.1,484 284.3,483.9 282.1,484.7
		279.5,483.3 272.4,482.5 267.3,483.9 267.4,486.4 265.2,488.5 262.5,488.6 262,494.4 258.9,497.2 258.2,498.7 254.8,499.4
		254,502.6 252.6,502.6 251.7,504.5 247.8,507.4 245.9,506.7 243.2,508.8 243.2,511.3 246.3,511.5 246.3,509.3 250,510.1
		251.6,512.9 253.4,511.2 252.6,509.8 254.3,507.6 255.2,508.6 257.2,506.6 258.6,506.6 259.6,504.2 262.8,505 265.4,503.8
		267.3,504.2 268.8,503.3 270.2,505.2 271.9,505.2 274.3,507.1 277,506.9 276.5,505.2 278.5,504.2 279.2,502.5 278.5,499.6
		280.4,497.7 282.1,497.5 282.6,496.3 288.8,494.9 292,495.1 295.8,497.7 297.1,497.2 301,497.3 303.3,498.2 304.3,495.5 308,493.6
		310.6,494.4 314.2,492 316.7,492.6 317.9,492.4 319.8,491 320.3,492.4 322.4,493.6 324.9,491.9 330.6,491.9 334,491 337.4,492.2
		339.1,492.6 341.7,490.5 344.4,490 346.9,487.6 348.7,487.4 350.4,488 350,485.9 353.9,483.2 356.5,482.7 356.7,480.1 356,478.4
		356.7,476.4 352.2,476.5 349,477.7 347.1,478.1 344.2,476.9 343,476.7 344,475.7 345.1,475.5 345.2,475 342.7,474.3 340.3,475.2
		343.5,472.9 345.7,473.1 348.3,471.7 347.6,469.5 344.9,469.5 346.9,467.8 348.3,466.5 349.8,467.8 352.4,465.9 353.3,464.6
		352.1,464.2 352.9,463 350.2,462.7 351.2,460.8 352.9,461.3 353.4,462.7 355.5,460 357.5,459.1 357.9,454.2 359.6,449.6
		358.2,447.7 357.4,443.4 351.7,439 343.7,438.6 338.8,438.8 338.4,442.4 337,444.6 334.5,441.7 331.2,440.9 336.2,435.9 336.2,433
		332.3,426.5 330.7,426.4 327.3,424.3 326,421.9 324.1,422.3 322.9,422.6 320.8,421.9 319.6,421.9 321.9,421.2 323.4,421.8
		326,421.1 327.5,421.9 328.9,423.3 330.6,422.9 332.3,423.3 327.7,417.5 325.6,414.8 327,412.5 328.2,412.2 326,410.8 324.9,409.1
		323.9,409.1 321.2,404 317.3,402 311.5,400.6 311.1,398.4 309.9,397.5 308,391.4 306,388 304.5,380 302.8,377.4 301.2,377.4
		296.4,370.2 293.5,369.5 291.3,367.7 287.6,366.3 286.2,367.7 283.3,369.5 279.2,368.2 277.3,368.3 274.1,367.3 273.1,365.6
		275.1,366.6 279,366.8 282.3,365.8 283.3,363.2 286.5,363.4 289.6,361 286.5,359.6 286.2,357.9 285,356.9 280.7,359.1 280.1,358.3
		283.3,355.9 287.2,356.1 289.6,354.2 290,352.3 291.5,351.3 293.7,346.8 295.2,344.8 295.1,343.4 296.6,340.4 296.1,339.3
		297.5,335.2 300.2,332.9 300.2,330.3 296.1,326.5 295.4,327.2 288.4,327.6 284.2,326.7 283,327.6 280.9,327.6 278.4,326.7
		276.5,326.7 276.1,327.7 273.6,328.4 270.8,330 269.7,330 267.8,331.5 267.3,330.8 269.7,327.9 272.4,323.6 270.5,324.7
		268.1,323.8 269.5,322.8 270,320.9 276.6,315.8 278.7,312.6 280.9,311.7 282.1,308.6 280.9,307.4 282.1,305.2 282.1,304 278.7,304
		277.3,305.4 275.1,304.7 271.9,306.2 269,305.9 266.4,306.9 264.9,306.9 263.3,308.5 263.7,306.9 262.3,306.2 259.6,308.8
		260.4,306.6 256.5,304.7 256,307.1 254.6,308.1 255,310.3 254.3,310.3 254.3,313.1 251.6,313.7 252.9,316 251.7,318.4 250.4,318.4
		253.8,321.4 254.8,323.5 251.6,321.8 250.2,322.8 247.8,321.3 247.6,322.5 248.3,324 247.5,325.2 246.3,322.6 245.1,325.4
		246.3,326.7 245.3,328.3 247.3,330.5 249.3,330.5 247,331.5 	"/>
	<polygon class="st1" points="227,329.3 227.3,327.4 223.1,326.9 221.7,327.6 224.1,330 	"/>
	<polygon class="st1" points="219.1,392.9 218.1,395.8 214.5,396.3 211,404 218.1,410.8 220.5,410.3 221.5,405.5 223.6,404
		228.5,406.6 231.8,413.1 234.3,413.6 237.9,416 238.6,416.1 238.4,413.6 240,413.9 242.5,411.9 242.9,409.5 247,410 247.5,407.1
		244.9,406.6 245.9,404 244.9,402 246.8,401.6 248.8,407.6 247.6,400.1 243,399.7 245.6,397.9 240.6,390.9 240.3,387.6 237.7,386.3
		232.6,385.8 229.2,387.8 227.3,388.1 226.3,389.3 223.1,389.8 221.4,391.7 	"/>
	<polygon class="st1" points="259.4,410.5 258.1,414.9 261,414.4 265,410.3 264.4,408.6 265,405.7 	"/>
	<polygon class="st1" points="240.8,375 239.5,369.5 234.5,371.4 234.5,375.9 237.7,373.8 237.2,377.2 	"/>
	<polygon class="st1" points="232.6,353.5 234.7,352.7 235.5,349.9 	"/>
	<path class="st1" d="M261.3,433.2l4.8,2.4l4.1-3.2l-2.9,0.3l-1.4-2.9l-3.6,0.5C262.1,430.3,261.3,433,261.3,433.2z"/>
	<polygon class="st1" points="314.2,493.4 309.7,495.8 312,496.3 314.2,498 316.6,497.7 316.6,496.5 317.6,494.4 315.9,494.6 	"/>
	<polygon class="st1" points="249.9,376.5 250.7,381.5 254,382.9 255,379.4 252.6,374.7 	"/>
	<polygon class="st1" points="243.4,360.5 246.4,358.3 245.3,355.4 243,355 240.3,352 237.2,354.2 241.7,356.4 239.1,357.8
		239.8,358.8 236.9,360.8 243.2,359.5 	"/>
	<polygon class="st1" points="279.9,299.6 278.7,297.9 277.2,298.2 279,301.1 	"/>
	<polygon class="st1" points="222.4,341.6 221,343.3 220.9,345 223.1,343.6 	"/>
	<polygon class="st1" points="225.1,333.9 223.4,333.5 223.4,335.6 222.6,337.6 223.2,339.9 225.3,340.4 224.6,337.5 225.5,335.9
		"/>
</g>
<g id="ITALY" class="animated flipInY delay-2s">
	<polygon class="st1" points="567,809.1 570.6,812.1 572.5,810.1 572.3,807.4 567.2,806.7 	"/>
	<polygon class="st1" points="499.1,663.7 498.6,661.8 497.1,659.9 496.2,661.1 492.5,662.5 490.9,664 492.8,664.9 496.4,663.7 	"/>
	<polygon class="st1" points="584.3,766.4 585,762 582.4,758.7 578.1,763 576.3,762.7 572.5,760.6 568.9,764.5 561.1,764
		554.6,765.9 550.2,765 546.9,762.8 543,763.2 540.9,764.9 539.7,763.3 535.7,765.2 535.1,770.8 538.7,774.3 542.5,773.6 549,778
		552.4,779 555.8,782.4 563.5,785.3 565,784.3 568.4,786.7 568.9,789.6 576.9,792.7 580.2,792.2 580,787.9 581.5,785.7 581.2,781.9
		578.1,777.7 581.2,769.3 	"/>
	<polygon class="st1" points="546.6,592.9 545.4,590.2 549.3,584.5 546.9,582.3 541.1,582.8 530.7,580.8 522.3,575.8 522.9,572.2
		516.9,572.8 513.1,571.9 504.1,577 498.5,574.6 495,578.7 496.7,584.2 489.9,585.7 489.2,592.2 486.3,589.6 483.3,590 475.8,587.9
		475.8,592.7 472.4,598.9 470.6,595.4 465.2,592.7 465.7,588.8 461.6,586.2 455.5,597 451,594.9 444.2,599.9 440.3,598.3
		438.7,600.2 439.3,604.3 442.5,607.4 441.5,613 437.5,613.5 435,616.3 439.3,620.9 440.1,629.7 445.6,633.5 450.7,633.5
		448.5,638.6 449.7,642.4 457.8,641 460.9,637.1 461.1,634.3 469.8,629.4 481.4,632.3 484.8,634.5 489.8,636.1 491.3,638.8
		492.1,640.7 493.5,643.2 496.7,648.3 496.9,651.4 499.7,652.9 499.5,657.9 503.4,659.8 506.1,663 510.7,667.4 511.3,670.7
		516.2,670.7 519.4,675 520,677.7 522.2,678.4 529.3,687.4 536,692.5 539.2,693 542.1,694.9 542.8,697.8 545.9,697.8 548.1,695.8
		551.7,697.1 555.1,697.5 558.7,704.1 560.9,705.7 562.8,704.8 565.7,705.8 565.5,708.2 568.4,708.1 571.7,708.4 573.9,711.3
		573.4,714.7 572.7,716.1 574.4,717.8 577.8,718 579.3,720.9 583.8,721.9 585.6,720.7 588.2,722.4 589.7,727.8 590.4,733
		592.3,735.4 593.7,741.5 595.7,744.4 595.5,747.5 593.7,749.7 592.3,749.7 591.4,750.4 591.8,753.8 591.4,757 589.4,759.2
		587.3,760.4 586.5,761.8 586.5,764.4 590.4,768.1 595.4,767.8 597.8,764.4 598.4,760.8 603,757 603.6,749 606.3,745.9 609.4,745.3
		610.6,742.7 609.7,741.2 610.2,736.7 609.2,734.8 604.4,730.2 601.7,729.9 600.5,728.2 600.5,725.6 603,723.9 603.6,721.4
		603.4,719.1 605.3,716.9 606.5,712.8 608,711.8 610.4,711.5 614,713.2 615,714.7 620.3,714.9 622.2,715.9 621.6,718.5 623.2,721.7
		625.6,724.8 628.6,726 628.8,724.9 629.7,724.3 629.3,721.4 630.7,719.3 631.2,714.9 630,712.7 627.1,710.6 621.5,709.1
		618.1,705.5 612.8,701.6 599.1,694.2 592.6,692.7 589.2,692.7 587.5,690 587.7,688.4 592,685.5 592.6,683.1 589.6,681.6
		585.5,682.1 582.6,681.4 576.1,681.4 573.9,680.1 570.8,679.6 568.2,677 563.3,673.1 560.7,669.3 557.7,666.1 555.3,662.7
		555.1,659.1 553.7,658.4 553.6,655.3 542.3,644.1 540.3,641.2 536,639 528.5,634.9 526.6,632.3 526.1,627.4 524.2,623.1
		525.8,621.7 528.3,617.8 525.9,614.9 524.2,611.1 525.4,608.6 529.3,608.1 532.8,605 536.5,605 539.1,602.4 541.5,601.2
		545.2,602.3 544.4,596.5 	"/>
	<polygon class="st1" points="464.3,711.3 465,714 467.1,715.9 467.1,720 464.7,722.6 465.7,724.6 469.1,724.9 469.1,726.3
		467.1,728.9 465.5,734.8 466.9,737.1 468.6,744.1 471.2,746.8 472.5,745.9 474.2,746.8 476.6,745.8 477,741.8 478,739.4
		481.2,739.8 483.3,741.8 485.3,741.8 486.5,739.4 486.5,733 487.2,731.3 486.3,724.3 487.7,718 483.3,714.2 487,711.6 487.5,709.1
		486.7,705 484.5,702.6 481.9,698 480.7,699.4 477.6,697 475.1,697.1 468.8,704.6 466,704.8 462.1,702.4 462.1,706.2 461.6,708.6
		"/>
</g>
<g id="PORTUGAL" class="animated flipiny delay-2s">
	<polygon class="st1" points="212.8,771.4 216.9,763.8 221,760.4 221.5,757.2 217.8,757 215.4,752.1 220.9,746.6 220.5,739.6
		216.6,737.1 212.2,728.7 216.4,727.7 219.3,728.2 223.8,721.9 220.9,719 224.6,715.2 225.1,704.3 224.3,699.9 230.8,693.6
		233.3,693.6 234.3,690.1 230.8,685.2 230.2,680.9 222,679.9 218.8,683.1 209.4,681.1 203.6,684.2 202.3,681.6 202.8,678
		199.9,677.2 192.2,678.4 192.5,681.9 195.1,687.8 193.9,698.7 194.6,700.4 193.2,705.2 195.8,708.1 193.9,710.4 191.8,714.9
		191.5,720.5 187.6,726.1 187.6,729.4 183.1,735.9 180.8,745.9 180.9,748.3 184.3,748.3 186,745.9 189.6,743.7 189.1,745.9
		190,747.6 184.9,750.2 184.7,753.8 186.2,755.5 188.8,753.1 193.2,753.3 191.3,755.5 192.5,760.1 190.8,764.2 191.2,773.2
		189.5,779.7 188.1,781.8 189.5,782.8 194.6,779.2 201.7,782.1 205,784 210.1,781.3 214.5,780.7 215.4,779.4 215.6,779.4
		215.4,775.5 	"/>
</g>
<g id="GREECE" class="animated bounceInup">
	<path class="st1" d="M766.7,795.1l2.2-1l1.2-1.9l-1.4-0.7l-2.7,1l-0.9,1.2L766.7,795.1z"/>
	<polygon class="st1" points="732.9,704.6 731.4,705.2 730.5,708.4 732.4,708.2 733.2,708.9 735.4,707.7 735.1,705.8 	"/>
	<polygon class="st1" points="769.2,771.2 770.6,772.9 772.3,772.9 773.2,771.9 775,771 774.7,769.6 773.8,769.5 773.2,770.2
		771.1,768.5 769.2,768.3 766.3,770.7 765.5,771.9 767.4,771.4 	"/>
	<path class="st1" d="M732.7,780.2c0.2,0,1.5-0.9,1.5-0.9v-1.5l-1.5-0.3V780.2z"/>
	<polygon class="st1" points="735.3,793.5 735.8,791.7 733.6,791.7 731.9,794 733.4,794.2 	"/>
	<polygon class="st1" points="734.8,784.5 734.8,782.3 733.2,783.3 	"/>
	<polygon class="st1" points="730.5,775.1 731,776.1 732.7,775.5 731.5,773.7 	"/>
	<polygon class="st1" points="797.7,798 798.9,796.9 799.1,795.2 796.9,796.1 792.9,797.8 789.2,800.9 789,802.7 789.5,803.4
		788.7,805.3 789.7,806.3 791.2,806.2 792.8,804.3 794.7,802.4 796.2,802.4 796.2,801.2 797,799.8 	"/>
	<polygon class="st1" points="710,800.9 710,802.6 711.6,803.4 712.8,801 711.1,798.7 710.5,796.4 710,797.1 709,799.2 	"/>
	<polygon class="st1" points="709.7,793.9 709.5,795.2 710.7,795.4 	"/>
	<polygon class="st1" points="669.4,767.8 668.9,769.6 671.3,771.9 673.2,772.4 673.7,771.4 675.7,771.7 674.4,770.2 672.8,768.1
		670.8,767.1 	"/>
	<polygon class="st1" points="779.1,811.1 780.2,813.2 780.7,816.7 781.7,816.2 783.1,813 781.3,810.8 781,808.7 	"/>
	<polygon class="st1" points="760.7,697.8 759.8,694.1 764.3,691.3 764.6,687.1 761,685.7 761.9,681.1 759.8,681.1 755.8,684.2
		755.4,688.3 756.8,691.2 754.6,693 747.2,692.5 743.8,694.1 740.9,692.4 737.5,692.4 735.3,694.2 732,694.1 731.5,691.2
		727.1,691.3 722.8,690.5 719.8,693.4 715.5,694.6 709.7,694.4 708,693.6 708,693.6 705.8,695.6 702.7,695.6 698.8,698.2
		690.2,697.8 686.5,699.7 686.3,701.2 681.5,702.9 674.7,707.2 674.5,707.5 673.9,712 671.1,716.9 664.3,719.1 664.1,723.2
		661.7,728.2 659.5,729.4 659.9,729.7 660,734.7 666.3,739.3 669.9,744.4 671.6,744.9 671.3,746.4 676.1,753.3 677.3,757.9
		679.5,758.7 682.2,755.3 684.9,758.6 688.9,759.1 690.6,756.5 693.5,756.7 698.1,759.4 700.8,758.2 701.3,760.4 703.5,760.3
		705.4,761.8 709,762.5 706.4,764 704.1,766.4 701.7,764.4 698.6,763.7 691.8,759.2 688.9,760.3 686,762 682.9,760.4 680.5,763.7
		678.6,764.2 677.4,767.1 681.2,771.4 684.9,773.1 688.5,776.5 688.9,779 687.5,780.7 687.7,784 690.9,787.9 693,790.3 693.8,788.1
		693.1,786.4 694.3,783.5 695.5,787.2 700.1,789.1 701.2,791.7 700.5,794.4 702.5,796.8 702.5,792 704.2,788.1 707.1,788.1
		708.3,791.1 713.4,794.6 711.4,791.1 711.9,788.8 710,785.3 707.6,779.7 705.6,776.5 705.8,775.1 707.8,774.9 711.6,776.8
		710.4,778.4 711.6,779.5 713.6,777.5 717.5,778.9 717.5,777.5 716,776.3 715.7,774.9 714.3,774.6 711.4,772.7 711.7,771
		708.3,768.5 711.6,766.9 714.6,767.1 716.3,765.6 721.1,768.8 721.6,770.3 724.9,770.7 725.7,768.6 723,764.5 723.7,760.6
		722.5,758.4 714.6,753.4 712.1,752.8 710.9,750.9 708.7,751.1 707.3,749.2 703.9,748.8 700.5,745.8 704.2,745.3 706.3,742.7
		706.1,741 702.7,740 704.6,737.7 704.4,735.7 707.1,736.7 709.2,738.4 708.3,740.3 708.7,742.2 710.5,741.7 711.7,737.7 709.3,735
		704.2,728.5 702,726.8 701.5,724.6 697.4,721.2 698.8,719.3 698.3,712.5 700.5,709.1 704.6,708.1 705.1,711.5 703.2,711.5
		703.5,713.3 708.8,715.7 709.3,720 712.8,722.7 716.5,722.6 713.8,720.7 712.4,718.1 712.9,715.7 716.3,716.9 719.1,720.7
		721.5,721.7 722.8,719.5 720.3,717.4 717.9,716.6 718,714.7 724.4,714.9 726.7,717.3 727.8,716.1 724,712.7 720.3,712.1
		717.2,708.6 719.1,706.3 722.5,707.5 725.2,705.8 726.4,701.4 729,700.4 732.7,703.3 735.6,703.6 738.7,700.4 738.9,698.7
		740.2,698.7 742.6,701.4 749.6,701.4 754.9,702.8 758.7,701.7 	"/>
	<polygon class="st1" points="781.9,807.2 781.9,805.7 781,807.2 781.5,807.9 	"/>
	<polygon class="st1" points="707.5,744.1 705.1,746.1 706.6,746.4 709.5,746.3 711.2,747.6 711.9,748.8 713.4,749.5 714.8,751.4
		716.9,751.9 718.2,754 721.3,755.7 723.7,755.5 724.5,756.9 726.6,760.3 727.9,761.5 727.8,763.3 728.6,765 731.2,766.7
		732.5,765.9 734.3,766.9 735.4,763.3 732.4,763 731.4,763.8 729.1,761.6 729.5,759.1 729,757.2 728.8,755.8 727.4,753.3
		723.3,749.2 723,749.7 720.8,749.5 720.4,748.8 717.4,747.3 714.5,746.1 711.9,743.4 	"/>
	<polygon class="st1" points="764.1,734.7 760.5,735.2 758.7,736.4 754.9,737.7 753.4,740.5 755.9,742.5 756.9,742.7 758.5,742.2
		758.8,740.1 759.7,738.3 762.2,738.1 761.9,740.3 760.5,741.5 759.5,742.9 761.9,743.9 765.3,743.7 765.5,740.1 764.8,737.6
		764.1,737.4 764.8,735.5 	"/>
	<polygon class="st1" points="756.4,759.2 758.3,760.6 760.7,759.4 761.2,756.7 760.5,752.4 759.7,751.7 757.6,750.7 755.6,751.9
		755.6,752.9 757.8,754.6 758,757.2 756.4,757.9 	"/>
	<polygon class="st1" points="719.2,742.5 718.7,740.3 717,739.6 715.8,740 718.7,743.5 	"/>
	<polygon class="st1" points="750.6,785.7 752.3,785.9 753.9,783.8 753.5,781.9 752,781.6 749.4,783.8 	"/>
	<polygon class="st1" points="669.8,752.4 670.8,751.1 670.4,748.2 669.2,748.3 667.7,751.1 667.9,752.2 668.7,752.6 	"/>
	<polygon class="st1" points="714,739.1 712.8,740 714,741.5 714.8,739.8 	"/>
	<polygon class="st1" points="664.5,758.2 664.5,761.8 666.2,763.5 667,762.5 667,760.8 667.9,761.6 667.9,763.5 670.3,763.8
		672.3,765 673.3,763.3 672.7,762.3 672.1,760.8 670.8,759.2 671.1,757.7 670.1,755.3 668.2,753.8 668.1,757.9 666.7,757.7 	"/>
	<polygon class="st1" points="652.9,726.8 650,728 650.1,729.7 652,730.4 652.2,731.4 655.3,734.7 658.2,736 658.8,735.4
		658.5,734.2 656.3,733.3 654.4,731.3 654.4,727.8 	"/>
	<polygon class="st1" points="762.7,774.4 763.3,772.7 759.7,773.4 759.2,775.3 760.2,776.6 	"/>
	<polygon class="st1" points="745,785 746.5,786.4 748.1,784.2 747.4,782.3 745.7,782.3 	"/>
	<polygon class="st1" points="743.6,721 742.4,720 739.7,720 738.9,721.4 739.7,723.9 741.3,725.3 742.6,724.9 744.7,725.8
		745,722.6 747.2,720.3 745.3,719.3 	"/>
	<polygon class="st1" points="734.9,745.1 733.4,743.4 732.4,743.9 734.1,746.8 734.9,747 735.8,749 737,748.5 736.6,745.6 	"/>
	<polygon class="st1" points="749.8,778.2 751.3,777.2 749.8,776.8 	"/>
	<polygon class="st1" points="744.8,773.7 746.2,775.5 748.1,776.3 747.9,774.8 746.4,773.2 	"/>
	<polygon class="st1" points="737.2,767.1 736.3,768.5 737.8,769.8 741.6,773.4 743,773.6 743.1,771.7 740.1,769 738.7,766.9 	"/>
	<polygon class="st1" points="722.3,812.5 722.1,815 720.9,817.3 721.3,819.8 723.8,820.8 729.6,820.2 731.9,820.8 734.3,820
		737.7,821 741.4,823.1 741.8,825.4 746,825.1 749.6,822.9 753.5,823.4 760,823.1 764.3,823.2 766.8,821.7 767.9,819.3 767.4,816.9
		767.4,815.4 766.3,816.7 766.2,818.4 764.1,820.3 762.6,819 760.9,819.6 759,819.5 759.3,817.8 758.5,815.5 756.9,815.5 752.2,815
		748.6,813.3 743.6,813.5 739.7,816.1 736.5,816.9 733.9,815.5 732.7,814.2 730.7,814.5 732,813.2 730.8,811.1 728.1,811.3
		728.6,812.6 729.5,812.8 728.5,813.7 725.9,813.8 725.4,811.3 724.5,811.1 724.2,812.5 724.7,814.2 723.3,814.7 	"/>
	<polygon class="st1" points="789,792 787.8,793.2 789.4,793.7 790.9,793.4 790.6,792 	"/>
</g>
<g id="ISRAEL">
	<polygon class="st1" points="921.6,923.4 923.1,921.7 923.1,917.7 924.5,913.5 924.3,908.4 925.5,907.7 925.5,904.1 926.2,900.2
		926.2,897.4 926.9,890.1 925.5,890.4 923.5,890.4 920.6,892 919,890.3 919.7,885 919.7,877 918.7,875.1 919.5,870.5 923.6,870.5
		924,873.2 925.9,873.4 927.9,871.5 927.7,869.6 928.3,869.6 927.4,868.1 926.7,865 927.7,860.1 928.6,855.6 929.4,853.6
		927.7,853.8 925.9,857.3 920.4,857.5 918.4,857 914.8,861.1 913.4,873.7 908.5,883.6 903.2,890.8 905,891.6 908.5,896.6
		910.2,902.9 915.1,910.4 918.9,919.3 917.3,923.5 919.5,929.4 921.6,926.3 921.8,925.8 	"/>
</g>
<g id="AUSTRALIA_1_" class="animated bounceinright delay-2s">
	<path class="st1" d="M1587.2,735.9L1587.2,735.9"/>
	<polygon class="st1" points="1565.5,308 1567.2,307.5 1570,308 1570.8,306.2 1570,305.7 1569,306 1568.5,305.4 1570.5,303.7
		1570.3,303.2 1568.2,303.7 1568.2,301.9 1567,302.7 1566.7,303.7 1565,303.4 1565.5,303.9 1565,304.4 1565.7,307 1564.7,308 	"/>
	<polygon class="st1" points="1729.8,490.7 1730,488 1728.5,483.9 1727.7,482.6 1727.7,480.4 1728.5,479.4 1728.5,476.8
		1730.5,473.3 1730.3,472.3 1730.3,466 1731.5,463.7 1730.5,462.4 1730,460.4 1730,455.9 1729,455.6 1730.3,453.3 1728,452.3
		1727,450 1727,447.5 1724.5,445.5 1722.9,442.2 1722.4,439.2 1720.9,436.6 1719.4,436.4 1717.9,437.1 1716.4,435.9 1716.1,432.8
		1714.8,432.3 1714.6,430.8 1712.1,428.6 1710.8,427.3 1711.3,425.8 1709.8,423 1711.8,420.5 1712.3,416.9 1711.8,415.4
		1712.1,413.4 1710.6,412.4 1710,413.6 1710.8,414.6 1710,415.9 1705,411.4 1704,408.8 1703,409.1 1703,410.6 1702.5,412.4
		1703.7,415.9 1701.2,412.9 1700.2,414.1 1700.2,412.1 1699.2,410.4 1698.7,404.3 1699.4,403.5 1699.4,402 1697.4,400.7 1698.2,399
		1696.6,397.7 1697.2,395.7 1693.6,392.7 1692.6,390.4 1692.4,387.9 1694.4,388.4 1694.4,386.1 1692.6,383.1 1691.6,383.6
		1689.8,383.3 1687.5,380.3 1685.8,380 1684,378.2 1682.7,379.5 1681.7,378.2 1679.5,377.5 1677.9,379 1679.2,377 1681.2,376.5
		1681.5,374.7 1680.7,373.4 1678.2,373.7 1676.4,373.7 1675.9,372.2 1674.7,372.2 1670.1,369.7 1668.1,365.6 1667.8,361.8
		1666.3,359 1666.6,357 1667.6,356.5 1668.6,352.2 1667.3,346.4 1665.8,343.6 1667.1,343.1 1665.6,341.8 1664,341.8 1662,337.6
		1661.8,332 1662.8,331.5 1662.8,330.2 1661.8,329 1661.3,322.1 1661.8,320.4 1661.3,318.1 1662,317.3 1662.3,315.8 1658.5,312.3
		1656,310.8 1656.7,309.7 1654.2,307.2 1651.9,308.7 1650.9,308 1649.6,310.5 1647.9,310.5 1645.6,307.2 1645.8,305.2 1644.3,302.2
		1645.3,298.1 1644.8,293.3 1643.8,293.6 1643.1,291.5 1644.1,289.8 1642.3,287.5 1642.3,285.5 1641,284.7 1641,281.9 1642.6,280.7
		1641,279.9 1639.3,280.2 1637.8,278.9 1638.5,273.6 1638,272.6 1637.2,269.6 1635,269 1635,267.5 1632.4,268.5 1631.2,270.3
		1631.2,274.1 1629.9,277.6 1629.9,278.4 1629.4,280.7 1628.1,280.4 1626.9,284.2 1624.9,286.7 1626.6,288.3 1628.7,290 1627.4,291
		1625.9,290.8 1625.1,292.8 1623.8,295.1 1625.4,297.6 1625.6,299.4 1624.1,298.9 1622.8,299.6 1621.8,305.2 1622.8,308.7
		1622.1,312.8 1623.1,315.6 1622.8,318.8 1620.8,320.9 1620.8,322.6 1618.5,326.9 1618,333 1616.3,335.3 1616.8,337.6 1615.5,340.8
		1613.5,342.9 1613.2,347.2 1609.9,349.7 1602.9,352.5 1600.1,350.4 1597.1,350.2 1595.8,348.2 1593,346.1 1593,344.9 1592.3,343.9
		1591.5,341.3 1589,340.8 1586.7,340.1 1583.4,339.8 1580.1,337.8 1579.6,336 1577.1,332.7 1574.3,332.5 1571.5,331 1571.5,329.5
		1570,329.5 1568.7,328.5 1566.5,328.5 1564.4,327.9 1565,326.9 1562.2,324.9 1561.7,322.6 1558.9,319.6 1557.1,319.4 1554.6,316.6
		1554.6,313.8 1556.6,310.5 1557.1,308 1559.4,306.5 1559.9,303.2 1560.9,301.4 1558.9,302.7 1557.4,299.6 1559.6,298.1
		1559.1,295.8 1560.4,295.8 1561.7,295.3 1562.4,296.1 1564.2,296.6 1567,295.3 1568,292.8 1566,291.3 1567.5,290 1569.2,290.5
		1570.3,286.7 1571.5,286 1573,284 1573.3,283 1571,281.9 1569.5,283.5 1568.2,283 1567.7,279.2 1566,279.9 1563.4,283.2
		1564.7,283.7 1564.7,285.2 1562.9,286 1561.2,285 1560.7,283.7 1559.9,282.4 1559.1,284 1557.6,284.2 1557.6,283 1558.9,281.4
		1559.4,280.4 1557.9,281.2 1556.6,282.4 1554.1,283.2 1553.8,284.2 1552.6,284.5 1551.8,283.5 1549.8,283.5 1549.5,282.4
		1548,279.9 1547,279.7 1544.5,281.2 1542.7,280.4 1541.4,281.2 1540.7,279.4 1539.7,279.2 1538.4,276.9 1535.9,278.1 1533.4,277.6
		1530.8,276.6 1531.1,275.1 1529.3,272.8 1528.3,273.1 1528.6,274.1 1525.3,275.1 1524.5,273.1 1522.7,272.3 1519.7,270.8
		1519.2,271.6 1517.7,270.6 1515.9,271.8 1518.2,273.6 1517.4,274.1 1519.5,274.6 1521.5,273.9 1524.5,276.6 1524.3,278.1
		1525,281.4 1522.7,281.7 1522,284.2 1521.2,282.7 1519.5,282.2 1517.7,283.5 1511.4,283.7 1509.1,281.7 1508.6,282.4 1506.1,283.5
		1506.3,285.5 1504.3,285.2 1505,288 1504.3,287 1501.8,286 1500.7,287.5 1501.8,289 1501.5,290 1498.7,289 1497.2,290.5
		1498.5,291.8 1497.2,292.3 1495.4,293.3 1495.4,294.6 1497.2,296.3 1497.7,297.6 1495.7,296.6 1494.2,297.9 1492.2,297.9
		1490.4,300.9 1488.6,304.4 1487.1,304.9 1486.6,307.7 1484.8,309 1486.3,310.5 1489.9,311 1488.6,311.5 1487.6,313 1492.2,314.5
		1490.4,315.3 1487.6,315.1 1486.8,313.8 1486.8,315.1 1488.6,316.6 1488.6,318.8 1490.4,321.4 1487.6,319.1 1485.8,316.1
		1483.8,315.8 1483.8,317.1 1482.8,318.6 1482.5,316.8 1478,313.8 1474.5,314.5 1475.7,315.8 1474.5,316.8 1473.2,315.8
		1472.4,315.8 1471.4,317.1 1472.9,319.4 1472.4,320.6 1472.2,319.6 1471.2,319.9 1471.2,320.9 1468.9,322.1 1465.9,322.9
		1468.4,321.6 1469.9,319.4 1469.9,316.1 1471.7,313.8 1470.4,312.3 1468.6,312 1465.4,306.5 1463.8,303.9 1460.8,303.2
		1458.5,301.7 1457.3,302.7 1458.3,303.7 1457,304.2 1455.8,306.5 1454.2,306.2 1454.7,304.9 1452.7,305.4 1452.2,306.7
		1450.7,303.7 1449.4,303.2 1448.9,305.2 1450.7,306 1448.4,307.7 1447.7,309.7 1448.4,311.3 1446.1,312.5 1445.1,311 1443.9,310.8
		1443.6,309.7 1445.1,308 1443.4,308 1442.6,310.3 1440.3,310.8 1439.3,312.3 1438.8,314.5 1442.4,315.6 1439.6,317.8 1437.3,316.8
		1434.8,318.6 1435.3,320.1 1438.3,320.6 1437.3,322.4 1435.8,322.6 1433.5,320.1 1431.7,322.1 1429.5,322.4 1430,324.2
		1430.5,325.7 1430.5,326.9 1432,326.4 1430.2,328.7 1431.5,330.2 1429.5,331.2 1428.5,332.7 1432.2,333.3 1429.7,334.5
		1429.2,335.5 1427.2,335 1425.9,333.5 1424.4,332.5 1422.6,333.8 1421.9,332.2 1419.9,331 1418.3,332.2 1421.1,334 1420.1,334.5
		1418.8,336.8 1421.1,338.8 1423.4,338.6 1422.4,340.3 1422.4,342.4 1421.4,341.6 1420.1,341.6 1420.6,343.9 1419.6,346.4
		1419.4,349.2 1415.8,341.6 1413.5,337 1412.3,335.3 1412.8,332.7 1412,334 1409.7,335.8 1409.2,338.6 1407.5,339.1 1407.2,340.3
		1404.9,340.1 1403.7,341.8 1401.9,343.4 1402.4,346.1 1402.4,352 1403.4,352.5 1403.4,354.5 1401.4,355.5 1400.1,357.8
		1397.1,358.5 1397.4,359.8 1394.8,361.6 1395.1,364.3 1393.6,365.6 1390,370.4 1383.5,374.5 1377.9,375 1375.6,375.7 1372.1,376
		1369.6,376.7 1366.8,376 1363.5,377.2 1363,379.3 1360.7,380.3 1353.6,380 1351.9,381.3 1351.1,383.1 1346.8,385.1 1343.3,385.1
		1341.5,384.3 1339.7,384.3 1339,383.1 1337.2,384.1 1335.4,386.6 1330.9,387.6 1330.4,388.6 1329.1,388.6 1325.6,391.9
		1320.8,393.9 1314.4,395.9 1311.7,399.7 1311.7,403.3 1309.1,405.5 1307.4,404.3 1308.1,403 1307.9,401.3 1309.1,398.5
		1308.9,396.4 1305.3,399.2 1304.6,402.5 1302.1,407.3 1303.8,410.6 1302.6,413.4 1302.8,418.4 1298.5,423.7 1296.8,431.1
		1298,434.6 1297.5,439.9 1301.3,446.5 1301.6,449 1303.1,450.8 1301.6,454.1 1302.6,456.9 1300,457.9 1299,456.1 1299,452.3
		1297.5,454.3 1296.8,453.6 1297,450 1294.7,445.2 1293.5,447.8 1294,452.6 1296.8,455.6 1299,459.6 1296,460.1 1293.5,456.9
		1292.7,453.1 1291.7,454.6 1290.4,455.3 1292.5,458.9 1296.2,463.7 1298.5,470 1298,481.1 1299.8,483.2 1300.8,489.5 1304.1,497.8
		1303.1,500.6 1303.3,513 1302.8,514.7 1304.1,518 1303.8,521.8 1306.4,527.4 1306.4,529.9 1304.3,531.4 1305.3,532.7 1304.6,535.5
		1304.1,540.3 1302.3,542 1302.8,543.6 1302.3,546.6 1300.3,547.9 1300.8,550.6 1297.3,553.4 1295.5,552.2 1293,556.2 1293,563
		1294.5,564.3 1296.2,564.5 1300.8,569.1 1300.8,570.9 1301.6,571.9 1304.1,572.4 1305.1,573.6 1308.4,574.1 1309.6,573.9
		1310.2,574.9 1312.7,575.2 1315.5,574.7 1316.2,576.2 1317.5,575.2 1318.2,575.7 1321.3,575.2 1324.1,574.9 1324.3,573.6
		1326.1,573.1 1327.8,570.4 1331.1,570.9 1331.1,569.1 1333.2,567.8 1334.9,567.8 1336.4,569.6 1338.2,567.1 1339.2,567.6
		1340.2,567.1 1341,564.3 1347.1,560.5 1349.3,561 1350.8,561.8 1352.9,560.5 1358.7,559.2 1359.4,560.5 1363.2,559.5 1364.2,560.2
		1366,560.5 1368.3,559.7 1369,562 1370.3,562 1372.1,561 1373.1,562.3 1374.9,561 1379.2,561 1378.9,562.8 1379.7,563.3
		1382.2,561 1384.5,561.5 1387.5,559.5 1388.5,557 1389.5,556.5 1392.1,554.2 1393.3,550.4 1395.8,548.1 1399.1,547.4 1400.4,548.1
		1404.9,546.6 1410.8,542.8 1414.3,539.5 1416.1,539 1417.6,539 1419.4,539 1422.6,540.3 1425.7,540.5 1427.7,539.8 1432.2,540
		1438.3,537.7 1441.8,537 1444.6,535 1446.1,535 1449.2,532.7 1454,532.4 1465.9,531.4 1469.9,532.7 1472.4,532.7 1476,531.4
		1478.5,531.9 1481.8,535 1484.6,539.5 1486.6,540 1487.9,539 1489.1,538.5 1490.1,539.5 1491.4,539 1493.9,539.5 1495.9,542.3
		1498.7,542.8 1500,542 1504.8,545.6 1504.3,547.6 1505.8,547.6 1507.6,549.4 1506.8,550.9 1505,550.9 1504.5,552.4 1506.6,556.7
		1508.6,557 1510.6,559.2 1511.4,562.3 1511.1,564.8 1513.4,570.1 1512.6,572.4 1513.6,573.9 1513.1,576.7 1512.4,578.2
		1510.9,577.4 1510.4,578.2 1512.1,580.5 1513.6,581.2 1514.6,583.5 1516.4,583 1518.2,584.5 1518.4,582.5 1517.4,580.7
		1518.4,579.5 1519.7,577.2 1521.5,576.9 1522.5,575.2 1524.3,574.1 1525,572.4 1526.8,569.9 1531.6,567.3 1532.1,566.1
		1533.1,566.1 1536.6,564.3 1537.7,561.3 1540.4,556.7 1543.7,555.9 1545,554.2 1544,551.9 1544.5,549.1 1546,552.2 1546,554.9
		1546,557.7 1544.7,559.5 1544,565 1539.4,568.1 1538.7,570.6 1537.4,572.4 1537.7,574.9 1534.9,578.4 1535.6,579.7 1533.9,585
		1528.6,584.5 1527.5,587.3 1526,589.6 1526,590.6 1529.3,589.6 1532.6,588.3 1536.4,589.6 1539.9,583.5 1540.9,577.7 1544,574.7
		1545,575.7 1545,580.7 1546.2,584 1545.2,584.3 1545.5,589.6 1543,593.9 1538.9,595.6 1539.7,597.2 1542.2,596.9 1545,596.9
		1546.2,595.6 1548.3,595.1 1550.5,593.1 1552.6,593.9 1553.8,593.6 1552.8,595.4 1551.6,597.2 1549.5,597.2 1549,598.4 1551,601.2
		1551.8,603.5 1553.3,607 1553.6,611.1 1553.1,616.1 1550.3,619.1 1550.8,620.7 1550.3,624.5 1552.3,626 1554.1,629 1554.6,632.5
		1558.4,637.8 1561.4,638.6 1563.4,640.1 1564.4,642.7 1566.7,642.9 1567.2,641.9 1568.7,641.4 1571.5,642.4 1573.8,645.2
		1576.3,645.4 1579.1,648 1579.4,650.2 1581.6,651 1583.9,653.8 1585.4,653.8 1586.2,652.3 1590.5,650.2 1591.7,648.2 1594.5,648.2
		1597.3,645.4 1599.3,645.7 1600.3,644.7 1599.6,643.7 1597.3,642.9 1598.1,641.4 1602.4,638.6 1605.9,641.1 1605.9,643.4
		1601.4,645.9 1602.6,648 1603.9,648.2 1605.4,646.7 1607.4,645.2 1609.4,646.4 1609.4,648.7 1607.9,648.5 1606.2,650.2
		1609.2,653.8 1609.7,657.6 1610.7,656.8 1612.2,657.1 1612.5,659.3 1614,661.6 1615.8,658.8 1615.5,655.8 1613.7,657.1
		1613.2,655.8 1614.7,654.3 1620.1,654.5 1620.8,655.5 1621.6,654.3 1624.4,650.7 1629.9,647.2 1632.9,644.4 1631.4,644.4
		1630.2,645.2 1630.7,644.4 1628.7,643.9 1630.9,643.7 1633.7,643.7 1637.8,642.4 1646.3,640.6 1653.2,642.1 1656,640.4 1656,638.6
		1658,638.6 1660,637.1 1662,633.3 1661.3,629 1661,626.5 1664.8,622.9 1664.8,616.4 1666.6,613.8 1667.3,609.3 1669.6,608.5
		1669.3,606.3 1675.9,597.9 1677.9,597.7 1679,593.1 1681.7,589.6 1683.3,584.8 1686,582.2 1685.8,579.7 1687.5,578.7 1689.3,574.7
		1688.1,573.1 1691.3,571.6 1693.9,568.1 1695.1,566.8 1696.9,563 1700.2,562 1702,561.3 1698.7,561.3 1699.7,560 1703.5,559.7
		1707,557.2 1707.8,554.7 1707.3,553.4 1707.8,551.1 1711.3,548.4 1711.3,546.1 1713.8,545.1 1716.4,541 1716.1,539 1717.1,535.5
		1716.4,534.5 1716.6,532.7 1719.7,525.6 1720.4,521.8 1724.5,514.5 1724.5,512 1726.5,506.7 1729.5,504.1 1730.5,501.1
		1729.8,498.1 1731.5,495.8 	"/>
	<polygon class="st1" points="1607.2,648.5 1606.7,647.5 1605.4,648 1606.7,649.2 	"/>
	<polygon class="st1" points="1625.4,682.3 1624.1,683.1 1624.9,684.6 1628.1,684.6 1629.9,685.4 1630.2,684.1 1627.9,682.1 	"/>
	<polygon class="st1" points="1567.2,273.1 1568.7,273.9 1569.2,272.1 1571,270.3 1570.3,269.3 1568,271.8 	"/>
	<polygon class="st1" points="1595.8,344.4 1597.1,343.9 1596.8,342.6 1595.3,343.4 	"/>
	<polygon class="st1" points="1566.2,275.6 1566,274.6 1565,275.1 	"/>
	<polygon class="st1" points="1571.3,326.4 1570,324.7 1569.2,326.7 1570,327.9 	"/>
	<path class="st1" d="M1598.6,336.3l-2.8-0.8l-2.8,1.5l-0.5,1.5l1,1l1.3-0.5l1.3-1.8l2.5-0.3L1598.6,336.3z"/>
	<polygon class="st1" points="1588.7,680.6 1588.2,682.3 1589.5,683.3 1590.2,681.8 1590.2,679.8 	"/>
	<polygon class="st1" points="1564.7,275.9 1563.2,275.9 1563.9,276.6 	"/>
	<polygon class="st1" points="1590.7,686.4 1592,686.9 1593,685.6 1591.7,684.4 1590.2,684.6 	"/>
	<polygon class="st1" points="1630.7,264 1630.7,266.8 1631.7,266 1632.9,266 1631.9,264.2 	"/>
	<polygon class="st1" points="1618.5,655.3 1616.5,655.5 1617.8,656.3 	"/>
	<polygon class="st1" points="1592.3,680.1 1591.2,680.6 1591.2,682.3 1592.5,682.1 	"/>
	<path class="st1" d="M1622.3,690.7l-1.3,2l-0.5-0.5h-1.3l-1.5,1.3l-1.3,0.8l-6.6-0.5l-1.5,1v2l-1.8-1.5h-2.3l-1.5,1l-2-1.5l-3-2.8
		l-3.8-2v-3.3l-1,1l-0.3,1.3l-1.8-1.3l-2-1l-2.3-1.5l-0.8,1l-0.3,2.5l-0.8,0.5v2.3l0.5,4.3l-0.5,2.8l0.3,4.8l0.5,3.8l-0.5,3l1,0.8
		v1.5l2,2l-2.3-0.3l-1.8-2l-1,2.3l0.3,3.8l1.5,1.3l-0.5,1.3v6.1l1.3,1l-0.5,1l0.5,2.8l2,0.8l-1.3,1.5v2.3l1,0.5l2-0.5l1.5,1.5
		l1.8-2.3v1.8l1,2h1.8l2-3l0.3-2l1-3.5l1.5,1.5l0.8-1.3l2-1.5l0.8-2.3v2.3l1.5,0.5l1-2l1.8-0.3l1.3,1l-0.3,1.8l-2.3-1v3.3l2-1l1,0.3
		l2.5-3.5v-1.8l-1.8-1.3l1.5-2v-2.5h1.8l1-1l0.3-4.8l1.5-1l1.3-2l0.8,3.3l0.5,1.5l1-2.5v-2l0.5-1l-0.5-2.8l1.5-2.3l0.3-4l2-2.3
		l1-5.6l0.8-2l-2.5-1.8h-1V690.7z"/>
	<polygon class="st1" points="1601.9,731.6 1601.9,733.7 1600.3,736.2 1601.6,736.9 1602.4,733.9 1603.4,732.4 1602.9,731.1 	"/>
	<polygon class="st1" points="1586.2,673.2 1587.7,671 1586.9,669.4 1587.4,666.2 1585.9,665.1 1584.9,666.2 1583.4,667.9
		1583.7,670 1582.1,671.7 1582.6,673.7 1582.4,675.3 1583.9,676 1585.7,674.5 	"/>
	<polygon class="st1" points="1614.2,724 1615.5,723.3 1614.2,722 	"/>
	<polygon class="st1" points="1710.3,411.6 1710,410.4 1709.3,411.4 	"/>
	<polygon class="st1" points="1560.7,276.9 1559.4,277.9 1560.7,278.1 	"/>
	<polygon class="st1" points="1734.3,444.7 1733.8,446.5 1734.3,448 1733,450.3 1731.3,452.6 1731,454.6 1730.5,456.9 1731.5,459.9
		1732.8,460.4 1732.3,458.1 1732.8,453.8 1735.3,450.5 1735.8,447.3 1735.3,444.7 	"/>
	<polygon class="st1" points="1625.1,674 1625.6,675.8 1624.9,677.8 1625.6,679.1 1626.1,680.6 1630.2,678.8 1630.2,677
		1626.6,673.5 	"/>
	<polygon class="st1" points="1556.4,279.9 1556.6,281.2 1557.6,279.9 1559.6,279.7 1560.1,278.7 1558.4,278.7 	"/>
	<polygon class="st1" points="1553.8,282.7 1555.9,281.7 1555.6,281.2 1553.1,281.9 	"/>
	<polygon class="st1" points="1523.7,270.8 1525,273.1 1525,271.1 1525.8,269 1524.3,269.3 	"/>
	<polygon class="st1" points="1730.5,487.7 1731.8,485.9 1731.3,483.7 	"/>
	<polygon class="st1" points="1714.6,427.5 1713.6,426.8 1713.1,427.3 1715.1,430.1 1716.4,432.1 1716.6,430.1 1715.9,429.1
		1716.1,427.5 	"/>
	<polygon class="st1" points="1439.1,311.3 1439.3,310 1438.6,310 1437.8,311.3 	"/>
	<polygon class="st1" points="1626.1,688.4 1626.6,686.6 1625.1,687.1 	"/>
	<polygon class="st1" points="1632.2,258.4 1632.7,259.7 1633.7,258.7 	"/>
	<polygon class="st1" points="1669.3,364.3 1670.4,362.1 1670.1,358.5 1669.3,358.8 1667.6,359.3 1669.1,361.1 1668.3,363.1 	"/>
	<polygon class="st1" points="1561.9,303.7 1562.7,303.2 1562.9,304.4 1564.2,302.9 1563.2,301.4 1561.9,302.7 	"/>
	<polygon class="st1" points="1287.9,448.3 1289.4,452.6 1290.2,449.5 1288.9,445.7 	"/>
	<polygon class="st1" points="1322.3,386.8 1323.5,385.3 1323.8,383.1 1321.8,385.8 	"/>
	<polygon class="st1" points="1507.3,279.9 1510.9,275.9 1511.9,276.1 1512.1,274.9 1513.1,274.1 1512.1,273.3 1511.6,271.8
		1510.6,271.8 1509.3,272.6 1506.3,272.6 1505,274.1 1503.8,273.6 1503.5,272.8 1502.3,272.6 1500.7,271.1 1500.2,271.1
		1500.5,271.8 1500.7,274.6 1502.5,276.6 1504.3,278.7 	"/>
	<polygon class="st1" points="1536.1,599.4 1534.4,599.4 1535.1,598.4 1533.6,598.4 1533.1,597.4 1533.6,595.6 1531.8,596.1
		1529.8,595.9 1524,597.7 1521.5,598.9 1521.2,600.2 1522.7,601.4 1525.5,601.4 1526.3,601.2 1528,601.4 1529.6,600.9 1530.3,602.2
		1531.3,602.2 1531.6,601.4 1532.8,601.4 1533.6,600.4 1537.7,600.9 1538.9,599.7 1537.4,598.9 	"/>
	<path class="st1" d="M1290.7,442.5l-0.3-3l-0.8,4.8C1289.4,444.2,1290.7,442.5,1290.7,442.5z"/>
	<path class="st1" d="M1429.5,319.9l0.8,1l1.8-0.3l-1.5-2C1430.5,318.6,1429.2,320.1,1429.5,319.9z"/>
	<polygon class="st1" points="1430,327.4 1429.7,325.2 1428.7,323.4 1428.7,326.7 	"/>
	<polygon class="st1" points="1500.2,277.1 1502.8,277.6 1502.5,276.9 1500.7,276.4 1499.7,272.3 1498.2,273.1 1498.5,273.6
		1498.5,274.6 1499,274.9 1499,275.6 1498,275.4 1497.2,275.4 1497.2,276.6 1499.5,277.1 	"/>
</g>
<g id="SPAIN">
	<polygon class="st1" points="361.3,745.9 363.2,744.1 361.8,741.8 357.4,743.2 356.8,746.4 359.4,748.7 	"/>
	<polygon class="st1" points="398.5,727.7 399.5,726 395.9,722.4 391,723.4 390.3,725.8 395.7,726.3 	"/>
	<path class="st1" d="M373.7,668.5l-8,0.7l-4.9-2.7l-4.8,0.5l-2.9-1.5l-7.8,0.2l-2.9,3.1l-2.4-1.2l-4.8,0.2l-3.9-3.9l-3.4,1.5
		l-3.2-3.4l-6.8-2.7l-5.1,0.7l0.5-2.7l-0.7-3.6l-2-0.3l-0.3-0.9l-2.9-1.7l-1.5,0.9l-2.4,0.3l-1.7,2.4l-9-5.3h-3.1l-3.1,3.1l-6.1-1.2
		L279,648l-6.3-0.5l-8.4,3.6l-5.6-1.4l-12.3-1.9l-4.4-2.4l-1.2-1.5l-5.5,1.5l-4.4,1.9l-4.1-1.7h-3.6l-3.1,2.6l-3.6-4.6l-4.3-0.9
		l-2.6,1.9l-0.9-1.2l-6.3,3.6l0.3,2.4l2,1.4l-2.6,1.9l-5.5,0.7l-2.2-1l-6.5,2.4l-1.9,3.8l1.5,3.6l2.2-0.9L190,663l1.4,0.7l-0.9,4.8
		l1.4,0.5l2.7-2.6l-0.9,3.6l1.4,1.4l-1.9,2l2.9,0.5l-4.1,3.6v1l7.7-1.2l2.9,0.9l-0.5,3.8l1.5,2.6l5.8-2.9l9.4,2l3.2-3.2l8.2,1
		l0.5,4.3l3.4,4.9l-1,3.4h-2.4l-6.5,6.1l0.7,4.4l-0.5,10.9l-3.8,3.8l2.9,3.1l-4.4,6.1l-2.9-0.5l-4.3,1l4.4,8.5l3.9,2.6l0.2,7
		l-5.5,5.5l2.6,4.9l3.8,0.2l-0.5,3.2l-4.3,3.4l-3.9,7.5l2.6,3.9l0.2,4.1l2.7,0.7l5.1,0.5l7,6.8l-0.7,1l3.2,7.8l5.6,5.6l5.6,0.9
		l5.1-2.7l0.2-2.7l2.4-2.2l6.3-0.9l5.5-5.5l6.1-0.9l2.9-1.5l7,1.9l4.6,0.5l1.2-1.4l3.1,0.2l2.9,2.2l2.7-2.4l1.7-3.1l3.2,2.9l3.6,1.7
		l4.1-6.5v-3.6l10.4-4.9l5.8-0.3l1.4-2.2l-1.4-1.4l0.7-5.1l5.5-7.7l-0.2-4.1l5.8-1.4l3.8-3.6l-4.3-5.8l-2.6-1.4l-0.9-3.4l-2.9-4.9
		l1.9-2.4l6.7-11.1l3.6-1.7l4.9-8.5l1.9,0.7l-0.7,0.5l0.3,0.3l2.4-1.5l0.9-4.1l-1.9-1.5l3.9-2l4.3-3.1l6.7,0.3c0,0,5.1-2,5.5-2.2
		c0.3-0.2,2.9-3.8,2.9-3.8l6.5-3.9l1.7-3.2l0.5-4.3l-0.9-5.5l2.7-1.9l-0.2-1.9l-2.2-0.7L373.7,668.5z"/>
	<polygon class="st1" points="380.4,737.2 381.8,732.8 385.7,729.4 382.1,729 378.2,728.5 374.9,730.7 374.1,733.6 377.7,734.8 	"/>
</g>
<polygon id="POLAND" class="st1" points="551.5,436.6 546.7,439 546.7,441.4 552,447.2 551.5,450.6 553.9,453.8 553.9,456.4
	555.4,460 554.1,463 557.1,470 559.4,471.2 561.4,474 561.8,483.2 560.7,484.7 562.1,487.4 563.5,485.6 566.5,486.2 568.2,485.4
	575.2,486.4 574.9,488.5 578,491.4 580.7,491 583.3,493.2 581.5,497 582.9,499 584.3,499.7 584.1,503.1 586.5,504 588,502.3
	590.3,502.3 586.3,497.2 587.9,496 596.1,500.4 601,499.9 600.1,502.8 603.9,505.9 610.4,504.3 615.5,505.9 625.9,513.5 629.2,519
	632.1,519.2 633.6,517.5 638.2,517.6 640.8,520.4 641.8,524.8 642.6,525.1 645.9,525.1 647.9,522.1 650.7,521.1 653.4,521.4
	657.5,521.4 659.9,523.1 662.1,520.9 664.8,520.4 667.5,521.7 669.8,520.7 676.2,520.9 683.4,525.1 687,525.3 687.3,520.2
	686.5,515.4 697.1,503.7 698.6,498.5 701.2,495.8 704.1,495.6 705.1,490.5 703.7,488.5 703.2,485.7 704.7,483.7 700.6,481.1
	698.6,476.2 696.4,473.8 696.2,465.9 696.5,463 696.5,461.3 693.1,455.7 691.8,450.8 694.3,446.5 697.9,445.3 697.7,434.4
	695.7,432.7 695,428.4 692.6,424.8 690.1,417 687,412.2 687.3,408.1 685.5,401.6 683.1,401.4 679.3,398.4 675.9,398.7 656.5,400.6
	634.6,399.4 632.7,400.1 626.8,405.4 621.8,406.6 620.6,405.4 625.6,402.6 630,397.9 628.5,398 624.9,401.6 618.4,404.7
	611.1,402.6 609.5,398.5 610.7,395.6 614.6,396.2 616.4,397.4 616.5,396.2 611.7,393.8 603,391.7 596.2,395.1 591.3,394.8
	586.2,396.7 583.1,400.9 578.1,401.1 575.1,404.7 575.1,407.4 569.6,407.6 561.6,412 556.1,412.4 554.1,416.5 552.9,420.7
	551.7,421.4 551.9,423.1 550.2,423.1 552,430.8 "/>
<g>
	<g id="ITALY_1_" class="animated flipiny delay-2s">

			<rect x="536.3" y="671.9" transform="matrix(0.9991 -4.174025e-02 4.174025e-02 0.9991 -27.9259 24.3399)" width="65.2" height="17.9"/>
		<text transform="matrix(0.9991 -4.173992e-02 4.173992e-02 0.9991 551.1498 687.0807)" class="st4 st5 st6">ITALY</text>
	</g>
	<g id="SPAIN_1_">

			<rect x="270.5" y="743.2" transform="matrix(0.9991 -4.174025e-02 4.174025e-02 0.9991 -31.1313 13.3084)" width="65.2" height="17.9"/>
		<text transform="matrix(0.9991 -4.173992e-02 4.173992e-02 0.9991 280.8974 758.3284)" class="st4 st5 st6">SPAIN</text>
	</g>
	<g id="GREECE_1_">

			<rect x="730.6" y="741.4" transform="matrix(0.9991 -4.174025e-02 4.174025e-02 0.9991 -30.6452 33.004)" width="88.8" height="17.9"/>
		<text transform="matrix(0.9991 -4.173992e-02 4.173992e-02 0.9991 745.5115 757.0242)" class="st4 st5 st6">GREECE</text>
	</g>
	<g id="FRANCE_1_" class="animated fadeInUpBig">

			<rect x="297.9" y="577" transform="matrix(0.9991 -4.174025e-02 4.174025e-02 0.9991 -24.1601 14.8)" width="88.8" height="17.9"/>
		<text transform="matrix(0.9991 -4.173992e-02 4.173992e-02 0.9991 312.8197 592.6221)" class="st4 st5 st6">FRANCE</text>
	</g>
	<g id="PORTUGAL_1_">

			<rect x="175.6" y="695.7" transform="matrix(0.9991 -4.174025e-02 4.174025e-02 0.9991 -29.2117 10.2065)" width="108.4" height="17.9"/>
		<text transform="matrix(0.9991 -4.173992e-02 4.173992e-02 0.9991 190.4718 711.7086)" class="st4 st5 st6">PORTUGAL</text>
	</g>
	<g id="UK_1_" class="animated slideinleft delay-1s">

			<rect x="189.9" y="426.6" transform="matrix(0.9991 -4.174025e-02 4.174025e-02 0.9991 -17.9455 11.6563)" width="160.6" height="17.9"/>
		<text transform="matrix(0.9991 -4.173992e-02 4.173992e-02 0.9991 204.7708 443.7249)" class="st4 st5 st6">UNITED KINGDOM</text>
	</g>
	<g id="SWITZERLAND_1_">

			<rect x="437.8" y="563.8" transform="matrix(0.9991 -4.174025e-02 4.174025e-02 0.9991 -23.4663 21.6503)" width="137.8" height="17.9"/>
		<text transform="matrix(0.9991 -4.173992e-02 4.173992e-02 0.9991 452.7101 580.4531)" class="st4 st5 st6">SWITZERLAND</text>
	</g>
	<g id="NETHERLANDS">

			<rect x="348.7" y="449.6" transform="matrix(0.9991 -4.174025e-02 4.174025e-02 0.9991 -18.7749 17.8296)" width="137.8" height="17.9"/>
		<text transform="matrix(0.9991 -4.173992e-02 4.173992e-02 0.9991 363.5602 466.1996)" class="st4 st5 st6">NETHERLANDS</text>
	</g>
	<g id="GERMANY_1_" class="animated rollin delay-1s">

			<rect x="454.2" y="501.4" transform="matrix(0.9991 -4.174025e-02 4.174025e-02 0.9991 -20.8602 21.5959)" width="105" height="17.9"/>
		<text transform="matrix(0.9991 -4.173992e-02 4.173992e-02 0.9991 469.1265 517.3369)" class="st4 st5 st6">GERMANY</text>
	</g>
	<g id="DENMARK_1_" class="animated zoomIn delay-1s">

			<rect x="387.5" y="354.7" transform="matrix(0.9991 -4.174025e-02 4.174025e-02 0.9991 -14.7956 18.6786)" width="104.7" height="17.9"/>
		<text transform="matrix(0.9991 -4.173992e-02 4.173992e-02 0.9991 402.4116 370.6412)" class="st4 st5 st6">DENMARK</text>
	</g>
	<g id="SWEDEN_1_" class="animated slideinleft delay-1s">

			<rect x="479.6" y="249.3" transform="matrix(0.9991 -4.174025e-02 4.174025e-02 0.9991 -10.3223 22.213)" width="94.4" height="17.9"/>
		<text transform="matrix(0.9991 -4.173992e-02 4.173992e-02 0.9991 494.472 265.0699)" class="st4 st5 st6">SWEDEN</text>
	</g>
	<g id="POLAND_1_">

			<rect x="605.2" y="439.7" transform="matrix(0.9991 -4.174025e-02 4.174025e-02 0.9991 -18.1609 27.6206)" width="94.4" height="17.9"/>
		<text transform="matrix(0.9991 -4.173992e-02 4.173992e-02 0.9991 620.9017 455.4841)" class="st4 st5 st6">POLAND</text>
	</g>
	<g id="FINLAND_1_" class="animated zoomIn delay-1s">

			<rect x="681" y="166.6" transform="matrix(0.9991 -4.174025e-02 4.174025e-02 0.9991 -6.6927 30.5504)" width="94.5" height="17.9"/>
		<text transform="matrix(0.9991 -4.173992e-02 4.173992e-02 0.9991 695.8893 182.3191)" class="st4 st5 st6">FINLAND</text>
	</g>
	<g id="ISRAEL_1_">

			<rect x="910.7" y="871.9" transform="matrix(0.9991 -4.174025e-02 4.174025e-02 0.9991 -35.9413 40.3961)" width="77.4" height="17.9"/>
		<text transform="matrix(0.9991 -4.173992e-02 4.173992e-02 0.9991 925.5598 887.312)" class="st4 st5 st6">ISRAEL</text>
	</g>
	<g id="AUSTRALIA_2_">

			<rect x="1490.1" y="436.7" transform="matrix(0.9991 -4.174025e-02 4.174025e-02 0.9991 -17.7049 68.2952)" width="273" height="42.8"/>
		<text transform="matrix(0.9991 -4.173992e-02 4.173992e-02 0.9991 1525.6221 475.2518)" class="st4 st5 st7">AUSTRALIA</text>
	</g>
</g>

</svg>
