<?xml version="1.0" encoding="utf-8"?>
<!-- Generator: Adobe Illustrator 25.4.1, SVG Export Plug-In . SVG Version: 6.00 Build 0)  -->
<svg version="1.1" xmlns="http://www.w3.org/2000/svg" xmlns:xlink="http://www.w3.org/1999/xlink" x="0px" y="0px"
	 viewBox="0 0 1920 960" style="enable-background:new 0 0 1920 960;" xml:space="preserve">
<style type="text/css">
	.st0{fill:#DA1A35;}
	.st1{fill:#FFFFFF;}
	.st2{font-family:'Raleway';}
	.st3{font-size:15.129px;}
	.st4{font-size:15.7267px;}
	.st5{font-size:12.6179px;}
	.st6{font-size:20.749px;}
	.st7{font-size:25.4161px;}
	.st8{font-size:16.1871px;}
	.st9{font-family:'Raleway-Medium';}
</style>
<g id="LOCATIONS_1_">
	<path id="LOCATION_x5F_SWEDEN" class="st0" d="M971.6,296.4l-1.8-0.1l0.5-2.5l2.3-0.3L971.6,296.4z M1077.6,275.5l0.5-4.3l3.7-2.6
		l0.4-2.8l-4.1-0.4l-3.9,4.5l2.1,4.4L1077.6,275.5z M1156.7,131.3l-2.3-6.7l-4,6.4l-1.2-5.2l1.4-2.4l0.7-6.8l-0.5-2.7l0.3,5.1
		l-0.5-6.3l-1.6-3l-0.1-4.8l1.9-2.4l-0.6-4.1l-4.6-0.8l0-3.5l2-3.8l-0.4-5.1l0.8,4.9l-1.4-2.7l-2.3-0.5l-2.6-4.5l-1.3,0.2l-1.5-0.4
		l-0.9-3.4l-3.8,3.6l-2.3-0.9l-2.5-1.9l-6.7-1.2l-4.1-3.9l-5.4-7.8l-4.3-2.7l-2.5-3.7l-1.4,0.5l-4,0.3l-3.9-1.7l-0.1,3.5l2.6,1.8
		l0.5,3.7l-2.9,1.2l-1.1,5.3l1.6,3l-0.5,4.3l-1.5-1.2l-1.8,0.4l-2.1-2.1l-4-0.8l-3.3-2.8l-5.6-2.1l-4,1.6l-5-0.7l-1.9,0.9l2.3,4.7
		l-1.1,1.8l-0.2,1.9l-2.2,1.7l1.7,3.9l-2.9,2.1l-2.3,0.1l-1.4-2.1l-3.7-2.2l-3.9,2.4l-2.4-2.4l-2.5,1l-1.5,4.1l-2.4,2.7l-2.4,0.9
		l0.1,0.1l1.8,2.5l2.2-2.5l-2.1,3.8l-5.6,6.2l-4.8,0l-0.6,3.5l-3,2.1l-6,0.6l-5.9,2.7l-0.5,3.5l2.2,2.8l-0.4,5l-2.2,4.2l-2.6,7.7
		l-1.2,8.2l-7.4,13.8l0.1-3.6l1.3,2.8l0.6-1.3l-3.5,3.8l-5.8-1l-4.5-1.5l-4,1.8l-4.6,6.5l-0.4-8.1l0.7,9.1l0,9.2l-1.2-2.7l1.4,5
		l0.1,7.1l-1.8,6.3l-0.5,6.5l4.7,3l5.3,7.3l-2.1,3.7l-0.7,5.6l-8.2,1.8l-0.6,2.9l2.6,6.7l1.2,0.1l2.1,3.8l-3.1,5.1l-0.1,3.7L985,246
		l-5.4-0.1l-1.3,1.9l1.4,3.7l-2.5,1l-1.7,2.8l2.1,4.9l-0.4,10.8l-2.3,3.3l-1.6-3.7l-2-1.7l-0.3,0.3l-2.9,1.3l-0.2,7.5l1.2,2.2
		l-0.3,5.7l2.3,1.6l0.8,1.4l-0.9,3.6l4-1.2l-2.1-2.7l0.7-2.6l1.6,0.2l-1,1.6l2.7,2l0.7,1.9l-3.8,2.5L973,297l0.8,2.8l-0.9,3.8
		l-1.8,1.5l1.7,3l2.8,1l1.2,4.7l1.4,1.5l2.4,6.8l-0.1,4.9l3.4,1.8l0.6,3.4l2.9,3.6l3.9-1.7l0.6,4.3l-3,4.5l-4.4,0.1l-0.8,1.8
		l2.2,1.7l0.2,3.2l3.4,1.4l0.7,8.3l-2.3,2.9l1.7,1.9l3.4,0.4l9.1-1.4l4.2,2l3.8-2.8l0-2.8l-1.8-1.9l3-5.4l5.5-0.1l1.8-5.4l0.7,2.6
		l6.2,1.7l4-1.7l3,1.8l1.6,2.6l4.3-4.2l1.9-6.7l3.1-2.6l1.6-8.5l1.9-2.6l-2.7-3l0.8-3.5l3.3-3l-2.4-3.8l3.3-2.4l-3.5-2.8l2-2.8
		l-1.7-3.5l3.7,1.9l4.1-0.3l-3.3-3.8l2.3-3.7l0-2.1l-4.9-2.4l6.5,0.4l-3-3.9l-2.9-0.7l2.2-2.1l1.8,0.2l0.4,0.9l2.2-1.6l0.1-2.2
		l2.6,2.5l0.8-3.5l2.6-2.4l2.4,0l-0.3-2.3l1.5-1.7l1,1.7l-1,3.1l2,0.3l3.5-4.3l2.4,0.3l2.6-1.7l0-3.3l-1.9-2.1l-4.1-1.6l-3.2,1.4
		l-1.6-1l-2.9,1.3l-1.9-3.3l-3.6-1.1l-2.1-1.7l-4.6-0.4l-0.6,1.7l-1.2-1.2l-5.2-1.1l0-1.3l2.6-0.8l2.7,1.8l2.9-3l1.3,1.6l2.7-0.5
		l1.4-2.1l3,1l1.3,1.7l2.1,0.1l0.4-2.1l1.5,1.9l3.8,1.9l-0.6,2.2l2.7,1.9l4.9-0.7l1.6-3.4l4.8-4.3l2.8-5l-3.1-3.7l0.3-2.6l-4.8-3.6
		l1.1-1.9l-6.5,2.5l-0.5-3.1l-2.2-2.2l-3.4,3.3l-1.5-3.3l-1.8,0.9l0.4-3.3l-2.3-0.8l-1.4-2.8l-1.7-2.3l2.7-2.8l-1.4-4l1.7-0.8
		l0.2-2.1l-2.5-1.3l3-3l-0.5-5.2l0.9-1l2,2.2l0.8-3.4l-2.3-3l1.5-5l-0.2-4l1.1-1.2l0-4.4l-3.4-5.5l2.6,1.3l5.1-0.3l3.3-3.9l-1.1-3.2
		l1.1-1.7l2.9,1.1l5.2-3.6l0.5-1.9l-2.3-0.8l1.4-2.8l2.6-2.1l1.2,2l1.6-0.2l1.3-3.6l1.4,0.2l1.2,2.4l2.6-1.8l0.4-3.9l2-3.4l2.6,0.3
		l0.1,2.5l2.1,0.4l2.1-3.4l4.5-1.9l-1.8,4.6l0.9-3l1.6,2.6l3.9-3l2.2,0.4l4.1-5.4l-0.8,2.2l2.8-2.8l2.2,0.1l3,3.9l-2.5-0.3l-1.7-3
		l2.2-0.6l-0.8-2.3l-2.7-0.8l-3.1-3l4.3-0.3l-0.5-2.6l1.9,2.1l1.3-1.9l-1.4-2.3l-2.1-0.3l-2.1,5.2l1.2-1.1l2,1.3l0.6,1.3l1.4-0.3
		l0.4-2l-3-1.8l2.8-1.2l2.9,0.5l3.2-2.3l-2.1-1.8l-1.7-4.4l2.2,1l1.4,2.1l2.6-0.3l1.5-2.6l0.7-3.3l2-1.2l1.7,4l3.1-3.1l1,3l2.8,1.5
		l1.7-2.7l2.6,1.9l4.3-2.2l1.7,2.6l3.3,0.6l2.4-1.3l0.1,0.2l0.6-3.8L1156.7,131.3z M1073.3,330.9l1.4-0.3l-1.1,2.8l-2.3,2.3l0.2,1.6
		l4.1-0.7l1-2l-1.1-1l0.9-2.1l4.3-2.7l0.8-2.2l2.8-2.7l-0.2-1.6l-2.2-2.5l1.7-2.8l0.6-1.9l1.6-1.2l-1.9-1.3l-1.9,0.9l-3.7-0.5
		l-2.6,2.7l-2,2.9l-2.6,2.2l0.6,4.1l-1.3,0.7L1073.3,330.9z M1046.8,335.5l-2.3,9.3l0.1,3.3l-0.3,2.4l1,1.3l1.6-2.9l2.5-5.3l1.3-5.7
		l2.4-5.7l1.2-5.1l-1.7-2.2l-2.5,3l0.3,1.5l-1.7,5L1046.8,335.5z M1086.4,311.7l1,1.8l2.1-1.6l3.2-0.5l-0.6-1.3l-3.6-0.3
		L1086.4,311.7z"/>
	<path id="LOCATION_x5F_AUSTRALIA" class="st0" d="M1591.5,740.2C1591.5,740.2,1591.5,740.2,1591.5,740.2 M1571.7,517.8l0.9-0.4
		l1.5,0.2l0.3-0.9l-0.4-0.2l-0.5,0.1l-0.3-0.3l0.9-0.9l-0.1-0.2l-0.9,0.3l-0.1-0.9l-0.6,0.3l-0.2,0.5l-0.9,0l0.3,0.3l-0.2,0.3
		l0.4,1.3l-0.6,0.5L1571.7,517.8z M1660.9,609.7l0.1-1.4l-0.9-2.1l-0.4-0.7l-0.1-1.2l0.4-0.5l0-1.3l0.9-1.8l-0.1-0.5l-0.2-3.3
		l0.6-1.2l-0.5-0.6l-0.3-1.2l0-2.3l-0.5-0.2l0.6-1.3l-1.1-0.4l-0.6-1.1l0-1.3l-1.3-1.1l-0.9-1.6l-0.4-1.6l-0.8-1.4l-0.7,0l-0.9,0.4
		l-0.8-0.7l-0.2-1.5l-0.6-0.2l-0.2-0.8l-1.4-1.2l-0.7-0.6l0.3-0.9l-0.8-1.4l1-1.4l0.2-1.7l-0.4-0.8l0.1-1.1l-0.8-0.4l-0.2,0.6
		l0.4,0.5l-0.4,0.6l-2.6-2.2l-0.6-1.3l-0.5,0.3l0,0.8l-0.3,0.9l0.7,1.8l-1.3-1.5l-0.6,0.7l0-1.1l-0.5-0.9l-0.3-3.2l0.3-0.4l0-0.8
		l-1.1-0.7l0.4-1l-0.8-0.6l0.2-1l-1.9-1.5l-0.6-1.1l-0.1-1.3l1.1,0.2l0-1.1l-1-1.6l-0.5,0.3l-1-0.1l-1.2-1.6l-0.9,0l-1.1-0.9
		l-0.6,0.7l-0.5-0.6l-1.3-0.4l-0.8,0.8l0.6-1.1l1.1-0.3l0.1-0.8l-0.4-0.6l-1.3,0.2l-1-0.1l-0.3-0.7l-0.6,0l-2.4-1.3l-1.1-2.1
		l-0.3-2.1l-0.7-1.3l0-1.1l0.6-0.2l0.4-2.3l-0.8-3l-0.7-1.4l0.6-0.3l-0.8-0.7l-0.9,0l-1.2-2.2l-0.1-2.8l0.4-0.4l0-0.6l-0.5-0.6
		l-0.4-3.6l0.3-1l-0.3-1.1l0.4-0.4l0.1-0.8l-2.1-1.8l-1.2-0.7l0.3-0.5l-1.4-1.3l-1.1,0.8l-0.6-0.4l-0.6,1.3l-1,0.1l-1.2-1.7l0.1-1
		l-0.8-1.6l0.3-2.1l-0.4-2.5l-0.5,0.2l-0.5-1l0.5-1l-0.9-1.1l-0.1-1l-0.6-0.4l0-1.4l0.7-0.7l-0.8-0.4l-0.9,0.3l-0.8-0.7l0.3-2.8
		l-0.4-0.6l-0.4-1.6l-1.2-0.2l0-0.7l-1.3,0.6l-0.6,0.9l0.1,2l-0.5,1.8l0,0.5l-0.2,1.2l-0.7-0.1l-0.7,1.9l-0.9,1.4l0.9,0.8l1.1,0.8
		l-0.7,0.5l-0.7-0.1l-0.4,1.1l-0.6,1.2l0.9,1.3l0.2,1l-0.9-0.3l-0.6,0.5l-0.4,2.8l0.6,1.9l-0.3,2.1l0.6,1.5l-0.1,1.7l-1,1l0,1
		l-1.1,2.3l-0.1,3.3l-1,1.2l0.4,1.2l-0.6,1.8l-1,1.1l0,2.2l-1.7,1.4l-3.6,1.6l-1.5-1l-1.5-0.1l-0.8-1l-1.5-1.1l-0.1-0.7l-0.4-0.5
		l-0.4-1.2l-1.4-0.2l-1.1-0.4l-1.8-0.1l-1.7-1l-0.3-0.9l-1.3-1.6l-1.5-0.1l-1.4-0.8l-0.1-0.7l-0.7-0.1l-0.7-0.5l-1.3,0.1l-1.1-0.2
		l0.3-0.5l-1.5-1.1l-0.3-1.1l-1.5-1.5l-1-0.1l-1.3-1.4l-0.1-1.4l1-1.8l0.2-1.4l1.1-0.8l0.3-1.6l0.4-1.1l-1,0.8l-0.9-1.5l1.1-0.8
		l-0.3-1.2l0.6,0l0.7-0.3l0.3,0.4l1.1,0.2l1.4-0.7l0.4-1.3l-1-0.8l0.8-0.6l0.8,0.2l0.5-2l0.7-0.4l0.7-1.1l0-0.6l-1.2-0.5l-0.7,0.9
		l-0.8-0.3l-0.2-1.9l-0.9,0.5l-1.3,1.7l0.7,0.3l0,0.8l-0.9,0.5l-0.9-0.5l-0.2-0.7l-0.5-0.6l-0.4,0.7l-0.8,0.2l0-0.7l0.6-0.7l0.2-0.6
		l-0.8,0.4l-0.6,0.7l-1.3,0.5l-0.2,0.5l-0.7,0.2l-0.4-0.5l-1.1,0l-0.1-0.5l-0.9-1.2l-0.5-0.1l-1.3,0.8l-1-0.4l-0.6,0.4l-0.5-0.8
		l-0.5-0.1l-0.7-1.2l-1.3,0.7l-1.4-0.2l-1.3-0.5l0.1-0.8l-0.9-1.1l-0.5,0.1l0.1,0.5l-1.7,0.6l-0.5-1l-1-0.3l-1.6-0.8l-0.2,0.4
		l-0.8-0.5l-0.9,0.8l1.2,0.8l-0.3,0.3l1.1,0.2l0.9-0.5l1.7,1.3l-0.1,0.8l0.4,1.8l-1.2,0.1l-0.4,1.3l-0.4-0.8l-0.9-0.2l-0.9,0.6
		l-3.3,0.3l-1.3-1l-0.2,0.5l-1.3,0.5l0.2,1.1l-1.1-0.2l0.4,1.5l-0.4-0.5l-1.4-0.4l-0.5,0.8l0.5,0.7l-0.1,0.5l-1.4-0.4l-0.7,0.8
		l0.6,0.6l-0.6,0.3l-0.9,0.6l0.1,0.7l0.9,0.9l0.3,0.6l-1-0.5l-0.8,0.7l-1,0l-0.9,1.6l-0.8,1.9l-0.7,0.2l-0.3,1.5l-0.9,0.6l0.8,0.8
		l2,0.3l-0.7,0.2l-0.4,0.8l2.4,0.7l-0.9,0.4l-1.5-0.1l-0.5-0.7l0.1,0.7l1,0.7l0,1.3l1.1,1.3l-1.5-1.1l-1-1.7l-1.1-0.1l0,0.7
		l-0.4,0.8l-0.2-0.9l-2.5-1.5l-1.8,0.4l0.6,0.6l-0.6,0.6l-0.6-0.5l-0.5,0l-0.5,0.7l0.9,1.1l-0.2,0.7l-0.2-0.5l-0.6,0.2l0,0.6
		l-1.1,0.7l-1.6,0.4l1.3-0.7l0.8-1.2l-0.2-1.8l0.9-1.2l-0.6-0.7l-1-0.1l-1.8-2.9l-0.9-1.3l-1.6-0.3l-1.1-0.7l-0.7,0.5l0.6,0.5
		l-0.6,0.2l-0.7,1.2l-0.8-0.1l0.2-0.7l-1,0.3l-0.2,0.7l-0.8-1.6l-0.7-0.1l-0.1,1l0.8,0.5l-1.1,0.9l-0.3,1.2l0.4,0.7l-1.1,0.7
		l-0.6-0.8l-0.7,0l-0.2-0.6l0.8-1l-0.9,0.1l-0.4,1.2l-1.2,0.3l-0.5,0.7l-0.2,1.3l1.8,0.4l-1.4,1.3l-1.2-0.6l-1.3,1l0.3,0.8l1.6,0.2
		l-0.5,0.9l-0.8,0.2l-1.2-1.3l-0.9,1.1l-1.1,0.2l0.3,0.8l0.2,0.8l0.1,0.7l0.7-0.3l-0.8,1.2l0.6,0.8l-0.9,0.5l-0.6,0.8l2,0.3
		l-1.2,0.7l-0.2,0.5l-1.1-0.2l-0.6-0.8l-0.9-0.6l-0.8,0.8l-0.4-0.8l-1.1-0.7l-0.8,0.7l1.5,0.9l-0.5,0.3l-0.6,1.2l1.2,1l1.2-0.1
		l-0.5,1l0,1l-0.5-0.4l-0.6,0l0.3,1.2l-0.4,1.3l-0.1,1.4l-2-3.8l-1.3-2.3l-0.7-0.9l0.3-1.4l-0.4,0.7l-1.2,1l-0.2,1.5l-0.9,0.3
		l-0.1,0.7l-1.1,0l-0.6,0.9l-0.9,0.9l0.3,1.5l0.1,3l0.6,0.3l0,1l-1,0.6l-0.6,1.1l-1.5,0.5l0.2,0.6l-1.3,0.9l0.1,1.5l-0.7,0.7
		l-1.7,2.5l-3.3,2.2l-3,0.4l-1.2,0.5l-1.7,0.2l-1.4,0.4l-1.4-0.3l-1.8,0.8l-0.2,1.1l-1.2,0.6l-3.7,0l-0.9,0.6l-0.3,1l-2.3,1
		l-1.8,0.1l-1-0.4l-0.9,0.1l-0.4-0.6l-0.9,0.5l-0.9,1.4l-2.4,0.5l-0.2,0.5l-0.7,0l-1.8,1.8l-2.4,1.3l-3.2,1.1l-1.4,2l0,1.8l-1.3,1.2
		l-0.9-0.6l0.4-0.7l-0.2-0.9l0.6-1.5l-0.1-1l-1.8,1.5l-0.4,1.7l-1.2,2.5l0.9,1.7l-0.6,1.5l0.2,2.6l-2.1,2.9l-0.7,3.8l0.7,1.9
		l-0.2,2.7l2.1,3.3l0.1,1.3l0.9,0.9l-0.7,1.7l0.5,1.5l-1.2,0.5l-0.6-0.9l-0.2-2l-0.7,1.1l-0.4-0.4l0-1.8l-1.3-2.5l-0.7,1.3l0.4,2.5
		l1.6,1.5l1.2,2.1l-1.6,0.3l-1.4-1.7l-0.4-2l-0.5,0.9l-0.6,0.4l1.1,1.9l2.1,2.4l1.3,3.2l0,5.8l0.9,1.1l0.7,3.2l1.9,4.2l-0.5,1.5
		l0.4,6.4l-0.2,0.9l0.7,1.8l0,2l1.3,2.8l0.1,1.4l-1.1,0.8l0.6,0.6l-0.3,1.5l-0.1,2.5l-1,1l0.3,0.7l-0.3,1.5l-1,0.8l0.3,1.5l-1.8,1.5
		l-0.9-0.7l-1.3,2.2l0.2,3.6l0.8,0.7l0.9,0l2.5,2.4l0,0.9l0.5,0.5l1.3,0.2l0.6,0.7l1.7,0.2l0.6-0.2l0.4,0.5l1.3,0.1l1.5-0.4l0.4,0.8
		l0.6-0.5l0.4,0.2l1.6-0.4l1.4-0.2l0.2-0.7l0.9-0.2l0.9-1.5l1.7,0.2l0-1l1.1-0.7l0.9,0l0.9,0.9l0.9-1.3l0.5,0.2l0.6-0.3l0.3-1.4
		l3.1-2.1l1.2,0.1l0.8,0.4l1-0.7l3-0.8l0.4,0.6l1.9-0.5l0.6,0.4l0.9,0.1l1.2-0.5l0.5,1.2l0.7,0l0.9-0.5l0.5,0.6l0.9-0.6l2.3-0.1
		l-0.1,1l0.4,0.2l1.2-1.3l1.3,0.3l1.5-1.1l0.5-1.4l0.6-0.2l1.2-1.3l0.6-2.1l1.3-1.1l1.6-0.5l0.6,0.4l2.4-0.9l3-2l1.8-1.8l0.9-0.4
		l0.8,0l1-0.1l1.7,0.7l1.6,0l1.1-0.4l2.3,0l3.1-1.2l1.9-0.5l1.4-1.1l0.9,0l1.6-1.2l2.4-0.3l6.3-0.7l2.1,0.5l1.4,0l1.7-0.7l1.4,0.1
		l1.8,1.6l1.4,2.3l1.1,0.3l0.7-0.6l0.7-0.3l0.5,0.5l0.6-0.3l1.2,0.3l1.1,1.4l1.5,0.2l0.6-0.4l2.6,1.7l-0.2,1.1l0.8,0l0.9,0.9
		l-0.3,0.8l-1,0l-0.2,0.8l1.1,2.2l1,0l1.2,1.2l0.5,1.6l-0.2,1.2l1.4,2.7l-0.4,1.3l0.5,0.7l-0.2,1.5l-0.4,0.9l-0.7-0.4l-0.3,0.4
		l1,1.1l0.9,0.4l0.5,1.2l0.9-0.4l1,0.7l0-1l-0.6-0.9l0.6-0.7l0.5-1.2l0.9-0.2l0.5-1l1-0.5l0.3-1l1-1.4l2.4-1.3l0.2-0.7l0.5,0l1.9-1
		l0.4-1.6l1.4-2.4l1.6-0.4l0.6-1l-0.5-1.2l0.2-1.4l0.8,1.6l0.1,1.5l0.1,1.4l-0.7,0.9l-0.2,2.9l-2.3,1.7l-0.3,1.3l-0.7,0.9l0.1,1.3
		l-1.3,2l0.5,0.5l-0.9,2.8l-2.7-0.2l-0.5,1.5l-0.6,1.2l0,0.4l1.7-0.5l1.6-0.8l2,0.6l1.8-3.3l0.4-3l1.5-1.7l0.5,0.5l0.1,2.7l0.7,1.6
		l-0.5,0.2l0.3,2.7l-1.2,2.4l-2.1,1l0.4,0.8l1.4-0.2l1.5,0l0.6-0.7l1-0.3l1.2-1l1,0.2l0.7-0.1l-0.5,1l-0.5,1l-1,0l-0.3,0.6l1.1,1.5
		l0.5,1.2l0.8,1.8l0.2,2.1l-0.1,2.7l-1.4,1.6l0.3,0.7l-0.1,2l1,0.8l0.9,1.5l0.3,1.9l2.1,2.7l1.6,0.3l1.1,0.7l0.6,1.4l1.2,0l0.2-0.5
		l0.7-0.3l1.5,0.4l1.3,1.4l1.3,0.1l1.5,1.3l0.2,1.2l1.1,0.3l1.2,1.3l0.9,0l0.4-0.8l2.2-1.1l0.6-1l1.4-0.1l1.4-1.5l1.1,0.2l0.5-0.6
		l-0.3-0.6l-1.3-0.3l0.4-0.8l2.2-1.6l1.9,1.3l0,1.3l-2.2,1.3l0.6,1.1l0.7,0.2l0.8-0.9l0.9-0.7l1.2,0.6l-0.1,1.1l-0.7,0l-0.9,0.9
		l1.6,1.7l0.4,1.9l0.6-0.4l0.8,0.1l0.1,1.2l0.9,1.2l0.8-1.5l-0.1-1.6l-0.9,0.7l-0.2-0.6l0.7-0.8l2.8,0l0.4,0.5l0.4-0.7l1.4-2
		l2.9-1.9l1.6-1.5l-0.9,0l-0.6,0.4l0.2-0.4l-1-0.3l1.1-0.1l1.5-0.1l2.1-0.7l4.4-1l3.6,0.6l1.4-0.9l0-1l1,0l1.1-0.8l0.9-2.1l-0.5-2.2
		l-0.1-1.2l1.9-2l-0.1-3.4l0.9-1.3l0.3-2.3l1.1-0.6l-0.1-1.1l3.3-4.5l0.9-0.2l0.5-2.4l1.3-1.9l0.8-2.5l1.3-1.4l-0.2-1.2l1-0.6
		l0.8-2.2l-0.8-0.7l1.7-0.9l1.1-1.9l0.7-0.8l0.8-1.9l1.7-0.6l1-0.6l-1.7,0.1l0.4-0.6l2-0.2l1.8-1.4l0.3-1.4l-0.3-0.7l0.2-1.2
		l1.8-1.5l0-1.2l1.3-0.6l1.2-2.2l-0.2-1.1l0.6-1.8l-0.5-0.5l0.1-0.9l1.5-3.8l0.3-2l1.9-3.8l-0.1-1.4l1-2.7l1.5-1.4l0.5-1.6l-0.5-1.7
		l0.9-1.2L1660.9,609.7z M1600.2,694.3l-0.4-0.5l-0.6,0.3l0.7,0.6L1600.2,694.3z M1610.3,711.6l-0.6,0.5l0.4,0.7l1.7,0l0.9,0.3
		l0.2-0.7l-1.2-1L1610.3,711.6z M1572,499.6l0.8,0.3l0.2-0.9l1-1l-0.5-0.5l-1.1,1.3L1572,499.6z M1588.3,536.2l0.6-0.4l-0.1-0.6
		l-0.8,0.5L1588.3,536.2z M1571.5,501l-0.1-0.6l-0.6,0.3L1571.5,501z M1575.1,527.3l-0.7-0.8l-0.3,1l0.4,0.7L1575.1,527.3z
		 M1589.6,531.9l-1.5-0.3l-1.4,0.9c0,0-0.3,0.8-0.2,0.8l0.5,0.5l0.7-0.3l0.7-0.9l1.3-0.2L1589.6,531.9z M1591.2,711.4l-0.3,0.9
		l0.8,0.4l0.3-0.8l-0.1-1L1591.2,711.4z M1570.6,501.1l-0.7,0l0.3,0.4L1570.6,501.1z M1592.3,714.4l0.7,0.2l0.5-0.6l-0.8-0.7
		l-0.7,0.2L1592.3,714.4z M1604.8,493.6l0.1,1.4l0.5-0.3l0.6-0.1l-0.4-0.9L1604.8,493.6z M1606.2,697.6l-1,0.1l0.6,0.4L1606.2,697.6
		z M1593.1,711.1l-0.6,0.3l0.1,0.8l0.6-0.1L1593.1,711.1z M1608.8,716l-0.6,1.1l-0.3-0.2l-0.7,0l-0.8,0.6l-0.6,0.4l-3.4-0.1
		l-0.7,0.5l0.1,1l-0.9-0.8l-1.1,0.1l-0.7,0.6l-1.1-0.7l-1.6-1.4l-2-1l0-1.7l-0.5,0.6l-0.1,0.6l-0.9-0.7l-1.1-0.5l-1.2-0.8l-0.3,0.6
		l0,1.3l-0.3,0.3l0,1.2l0.3,2.2l-0.2,1.5l0.2,2.5l0.3,2l-0.2,1.6l0.5,0.3l0.1,0.7l1.1,1l-1.2,0l-1-1l-0.4,1.1l0.2,2l0.8,0.6
		l-0.2,0.6l0.2,3.2l0.6,0.5l-0.2,0.5l0.3,1.5l1.1,0.3l-0.6,0.8l0,1.2c0.1,0,0.5,0.2,0.5,0.2l1-0.3l0.8,0.7l0.9-1.2l0,1l0.6,1l0.9,0
		l1-1.7l0.1-1l0.5-1.9l0.8,0.7l0.3-0.6l1-0.9l0.4-1.2l0,1.2l0.7,0.2l0.5-1l0.9-0.2l0.7,0.5l-0.1,1l-1.2-0.4l0.1,1.7l1-0.5l0.5,0.1
		l1.2-1.9l0-0.7l-0.9-0.6l0.8-1.1l-0.1-1.3l0.9,0l0.5-0.5l0-2.5l0.7-0.5l0.6-1.1l0.4,1.6l0.2,0.8l0.5-1.3l-0.1-1l0.3-0.5l-0.4-1.4
		l0.8-1.2l0-2.1l1-1.2l0.4-3l0.4-1l-1.4-0.9L1608.8,716z M1599,737.8l0,1l-0.8,1.3l0.8,0.4l0.3-1.7l0.5-0.8l-0.3-0.6L1599,737.8z
		 M1589.7,707.7l0.7-1.2l-0.4-0.8l0.2-1.7l-0.7-0.5l-0.6,0.5l-0.7,1l0.2,1l-0.7,1l0.3,0.9l-0.1,0.8l0.8,0.4l0.9-0.8L1589.7,707.7z
		 M1605.4,733.5l0.6-0.4l-0.7-0.6L1605.4,733.5z M1649.2,569l-0.1-0.6l-0.5,0.5L1649.2,569z M1568.6,501.7l-0.6,0.5l0.7,0
		L1568.6,501.7z M1662.4,585.7l-0.3,0.9l0.4,0.8l-0.6,1.3l-0.9,1.2l-0.1,1l-0.2,1.2l0.6,1.7l0.7,0.2l-0.4-1.1l0.2-2.3l1.2-1.8
		l0.2-1.6l-0.3-1.3L1662.4,585.7z M1609.9,707.2l0.4,0.9l-0.4,1.1l0.4,0.7l0.4,0.8l2-1l0-1l-1.9-1.8L1609.9,707.2z M1566.4,503.3
		l0.1,0.7l0.6-0.6l1-0.1l0.3-0.6l-1,0.1L1566.4,503.3z M1565.2,504.8l1-0.5l-0.1-0.4l-1.4,0.5L1565.2,504.8z M1549.3,499.3l0.7,1.1
		l0-1.1l0.3-1.1l-0.9,0.2L1549.3,499.3z M1661.3,608.1l0.6-0.8l-0.3-1.3L1661.3,608.1z M1651.8,577.1l-0.6-0.4l-0.2,0.3l1.1,1.4
		l0.6,1l0.2-1l-0.4-0.5l0.1-0.7L1651.8,577.1z M1506,522l0.1-0.6l-0.5,0l-0.3,0.6L1506,522z M1610.9,714.7l0.2-0.9l-0.8,0.3
		L1610.9,714.7z M1605.5,490.6l0.3,0.7l0.5-0.6L1605.5,490.6z M1627,545.1l0.4-1.2l-0.2-1.9l-0.4,0.2l-0.9,0.3l0.9,0.9l-0.4,0.9
		L1627,545.1z M1569.9,515.6l0.3-0.2l0.2,0.6l0.6-0.7l-0.6-0.8l-0.6,0.6L1569.9,515.6z M1430,596.4l0.8,2.2l0.4-1.7l-0.7-1.9
		L1430,596.4z M1446.7,563.7l0.6-0.8l0.1-1.3l-1,1.5L1446.7,563.7z M1540.8,504.3l1.9-2.1l0.5,0.1l0.1-0.6l0.5-0.5l-0.5-0.4
		l-0.4-0.7l-0.5,0l-0.7,0.4l-1.6,0.1l-0.6,0.8l-0.7-0.3l-0.2-0.4l-0.7-0.1l-0.7-0.7l-0.3,0l0.2,0.4l0.2,1.4l1,1.1l0.8,1
		L1540.8,504.3z M1562.3,670.1l-1,0l0.4-0.5l-0.7,0l-0.3-0.5l0.2-0.9l-0.9,0.3l-1-0.1l-3,1l-1.3,0.8l0,0.7l0.8,0.6l1.3,0l0.4-0.1
		l1,0.1l0.7-0.3l0.5,0.6l0.6,0l0.1-0.4l0.6,0l0.4-0.6l2.1,0.2l0.7-0.7l-0.8-0.4L1562.3,670.1z M1431.2,593.2l-0.2-1.6l-0.4,2.5
		C1430.7,594.1,1431.2,593.2,1431.2,593.2z M1501.1,526.7l0.4,0.6l0.9-0.2l-0.8-1C1501.6,526,1501,526.7,1501.1,526.7z
		 M1501.5,530.6l-0.2-1.2l-0.6-0.8l0.1,1.7L1501.5,530.6z M1537.2,503l1.3,0.2l-0.2-0.3l-1-0.3l-0.6-2l-0.8,0.4l0.2,0.2l0,0.6
		l0.3,0.1l0,0.3l-0.6-0.1l-0.4,0.1l0,0.6l1.2,0.3L1537.2,503z"/>
	<polygon id="LOCATION_x5F_KUWAIT" class="st0" points="1378.4,338.2 1374.7,337 1370.1,339.2 1368.1,344.4 1365.9,348.9 
		1367.3,348.9 1376.9,351.4 1377.7,355.2 1383.9,352 1382.8,350.7 1383.2,350.4 1383.6,350.4 1382.3,349.1 1382.2,347.4 
		1381.4,345.9 1381,346.8 1376.8,344.3 1382.7,342.9 1381.5,338.3 1381.8,337.7 1380.7,337.3 	"/>
	<polygon id="LOCATION_x5F_SAUDI_x5F_ARABIA" class="st0" points="1376.9,351.4 1367.3,348.9 1365.9,348.9 1346.3,349.3 
		1296.4,317.4 1286.6,316.5 1283,320.6 1267.7,326 1279.9,338.3 1275.7,343.7 1275.6,346.7 1267.7,348.2 1260.4,355.9 1249.8,353.3 
		1246.6,353.5 1246.4,357.4 1246.8,361.8 1245.8,364.8 1246.1,365.9 1247.5,365.3 1248,366 1249.3,365 1251.7,366.3 1251.1,366.7 
		1255.9,371.7 1256.4,373.8 1257.5,374.3 1258,376.4 1260.3,378.3 1261.4,378.4 1264.6,383.4 1264.7,385 1265.6,386.8 1267.3,387.1 
		1267.8,389.6 1268.9,391 1271.3,391.9 1273.4,396.8 1274.9,397.8 1275.7,400.9 1275.1,402.3 1275.1,403.8 1277.4,405.3 1277.5,407 
		1279,407.8 1280.5,406.2 1282.8,407.9 1286.1,409.3 1288.8,411.8 1289.7,414.1 1290.5,414.2 1290.9,416.8 1292,417.6 1293,421.1 
		1295.1,422.9 1295.9,426.5 1296.5,427.6 1295.9,431 1295.1,431.8 1296,433.4 1297.1,437.1 1297.7,441.1 1299.7,442.6 1300,444.1 
		1305.5,449.5 1307.3,450.2 1309.4,450.3 1310.9,452.3 1311.9,452.2 1315.1,454.7 1315.3,456.3 1317.9,456.7 1317.6,458.2 
		1319,458.7 1321.7,467.5 1324,468.8 1324.3,471.5 1332.4,479.1 1333.6,479.1 1334.5,483.5 1337.8,484.3 1339.9,489.6 1341.7,489.7 
		1343.3,490.3 1344.4,488.2 1347.1,486.3 1345.1,482.8 1346.2,477.8 1349,476.5 1352.2,479 1358.7,478.9 1367.8,482.2 1377.2,486.3 
		1378.1,495.8 1396,469.5 1434.8,456.3 1464.1,446.3 1464.7,423.6 1462,415.3 1462,415.2 1458.7,418.6 1428,415.1 1425.4,407 
		1422.8,404.2 1422.8,400.6 1422.7,400.6 1422.2,400.8 1421.2,399.2 1421.2,398.2 1422.1,396.9 1420.4,397.2 1420.1,396.7 
		1418.4,396.8 1414.9,395.1 1414.5,394.1 1413.9,394.5 1412.1,392.1 1411.5,389.5 1406,383.1 1404.5,380.6 1405.7,380.9 
		1405.7,379.7 1403.6,374.7 1403.6,373.6 1402.2,371.6 1401.2,371.6 1397.6,366.8 1396.4,366.8 1394.8,365.2 1395,364.5 
		1395.6,364.3 1396.5,364.8 1395.6,363.6 1393.8,363.4 1390.2,362.6 1388.1,357.4 1386.9,355 1385.5,354.3 1385.4,352.6 1384.8,353 
		1383.9,352 1377.7,355.2 	"/>
	<path id="LOCATION_x5F_USA" class="st0" d="M504.5,496.6l-0.5,0.8l1.4-0.6l0.8,0.3l1.2-0.4l-0.8,0.7l-2,0.6l-0.6-0.1l-0.5,0.5
		l-2.1-0.1l-1.1,0.6l-2.4,0.1l-1.5,0.5l-1.6,0.1l-0.5,0.5l-1.1,0.3l0.6-0.6l-0.9-0.1l-0.2-0.7l0.8-1l1.6-0.2l2.1-0.9l1.5,0.4
		l1.9-0.6l2.3,0l2.1-1.1l0.1,0.4L504.5,496.6z M188,564l-0.3,0.6l25,11.4l21,0.6l0.1-2.7l11.9,0.4l1.4,0.8l1.2,1.7l0.6,0.8l0.1,0.7
		l0.8,0l0.7,1l-0.2,0.7l1.1,0.4l1.1,0.9l-0.1,0.7l-0.4,0.6l0.9,0.3l1,0.7l0.7,1.1l0.2,1.6l0.5,0.6l0.4,0.1l0.2,0.6l0.8,0.8l0.1,1.1
		l-0.4,0.3l-0.8,0.2v0.5l1.3,1.5l1,1.2l0.3,1l-0.1,0.4l0.5,0l0.6,0.6l0.5,0l0.7,0.3l0.3,0.5l0.1,0.5l0.5,0.5l0.8,0l1.5,0.8l0.2,0.5
		l1.2,0.4l1.5,0.8l0.4,0.5l0.6,0.1l0.7-0.3l0.1-0.5l1-0.8l0.7-0.2l0.2-0.6l-0.1-0.4l0.6-0.8l1.1-2l0.8-0.8l0.8-0.3l0.5,0.1l0.1,0.2
		l0.6-0.1l0.4-0.9l1.3,0l1.3,0.2l1.4-0.1l0.6,0.3l0.3,0.4l0.9-0.2l1,0.5l0.6,1.1l1.4,1.2l1.1,1.8l0.6,1.5l0.4,0.6l0.2,1.1l0.1,1.7
		l0.8,0.4l0.4,1l1,2.7l0.6,0.4l0.3,0.9l1.1,0.6l0.3,1.4l0.7,1.2l1.2,1.3l-0.1,1.3l-0.1,1.4l0,0.4l0.1,0.4l1.5,4.3l-0.1,1.9l0.6,0.7
		l0.2,0.2l0.9,0.3l0.9-0.1l0.9,0.5l1.2,1.2l2.4,0.8l1.4,0.7l1.3,0.3l0.5,0.9l0.6,0.3l0.8-2.2l0.5-1.6l-0.4-1l0.2-3.2l-0.6-1.1
		l0.8-1.8l0.6-2.1l1-1.4l-0.5-2.8l1.1-0.5l1.5-1.2l-0.8-1l1.3-1.6l0.7,0.5l1.3-0.6l-0.1-1.9l0.8,0.6l1.5-0.6l-0.8-0.7l1.4-0.8
		l0.5,0.4l0.7-0.4l1.1,0.8l-1.3,1.1l1-0.1l1.4-1.2l1,0.1l3.1-1.5l2.3-2.1h1l1-0.8l-0.3-1.5l0.1-1.5l-0.8-2.2l0.8,1.1h0.7l1.4-1.2
		l0.1-0.9l0.5,1.5l-0.8,1.2l0.4,1.1l-0.3,1.3l1.6-0.2l1.2-1.7l1.1-0.1l1-0.7l2.5-0.5h1.9l3.4,0.8l0.6,0.7l4.2,0.4l1.3-0.2l-0.2-0.9
		l0.1-0.7l1.5-0.6l0.8,0.3l-0.6,0.8l0.8,0.3l1-0.4l0.5,0.5v1.1l0.5,0.6l1.5-0.2l0.5,0.8l-1,0.8l-0.6,0.7l0.8,0.3l1.2-0.2l1,0.6
		l1.8,0.6l0.7-0.8l1.1-0.8l1.2,0.9l0.6,0.9l1.1-0.6l0.1-1.8l-0.6-1.2l1.3-0.1l1.1,1.6l1.1,0.4l0.7,1l0.8-0.1l0.7,0.5l0.1,1.4
		l0.5-0.9l1.1-0.3l0.1-0.5l-1.7-1.3l-2.3-0.8l-0.4-1.1l-0.1-1.3l2.3-0.9l0.5-0.5l-1.3-0.5l-0.5-0.7l-0.5-0.1l-0.8,0.8l-1,0.4v-1
		l1.3-1.4l2.4-1l1.2-1.1l4.3-0.8l1.6,0.3l0.9-0.3l1.1,0.2l0.7-1.2l0.6-1.3l0.9,0.1l-0.2,1l0.1,0.8l1.4,1.2l1.2-0.5l2.1,0.1l1.1-0.4
		l0.9,0.6l2.2-0.3l0.7,0.3l1.6-1.1l1.6,0.1l0.3,0.5l-0.9,0.3l-1.7-0.1l-0.3,0.4l1.9,0.3h1.9l1.1,1l1.1,0.6l-0.7-1l0.2-0.7l0.6,0.1
		l0.3,0.8l1.4,1l-0.2,0.5l-1-0.5l-0.2,0.1l1.8,1.2l0.7,1l0.4,0.7l-0.3,0.1l-0.2-0.5l-0.2,0.6l0.3,0.5l2.1-0.3l1.4-0.2l1.9-1.9
		l0.6,0.3l0.2-0.2v-0.3l1-0.8l1.5-0.2l1,0.5l1.7,0.6l0.7,2.6l0.8,0.8l0.5,0.2l0.2,1.5l1.1,0.8h0.6l0,0.5l0.7,1.1l1.1,0.2l1,1.8
		l-0.1,1.7l-1,3.4l-1.4,2.7l-0.1,1.1l0.9,1.5l0.4-0.4l0.8-1.2l-0.3-0.6l0.6-0.5l1.1,0.5l0.1,1.4l-1.8,2.6l0.4,0.9l0.1,1.4l0.9,1.1
		l0.3,0.7l0.6-0.2l0.4,1.4l0.5-0.7v-0.6l0.6,0.4l1.4-0.4l-1.1,1.1l-0.3,1.2l-0.6,0.7l0.1,0.9l1.8,1.4l0.2,1.5l-0.1,1.9l0.6,0.5
		l1.3,0.1l0.5,1l-0.2,1.2l1.8,1.4l-0.8,0.4l1.5,0.4l0.7,0.9l1.4,0.4l1.4-0.5l1.2-0.4l0.2-1.8l0.9-1.3l0.7-1.7l1.3-2.6l-0.2-1.3
		l0.4-0.7l0.3-2.6l-0.4-0.5l0.8-0.8l-0.5-2.2l-1.5-0.9l-0.8-4.7l-0.5-0.7l0.2-2.2l0.6-1.7l-0.5-1.3l-1-1.3l-0.7-3.6l-0.6-1.3
		L427,597l-0.8-2l0.4-3.2l-0.2-2.1l0.4-4.6v-2.5l1.1-2.1l1.3-2.1l1.2-0.3l0.6-0.9l0.6-0.1l1-1.4l0.2-1.2l-0.5-0.4l0.4-0.4h1.7
		l0.3-0.9l1.4,0.1l0.4-0.8l2.2-0.3l0.8-1.1l1.5,0.2l0.4-0.7l0.8-0.2l0.8,0.4l1.3-1.4l0.1-1l0.7,0.1l1.2-1v-0.8l2.8-3.7l1.4-1.3
		l2.1-0.3l0.7,0.5l0.6-0.1l1.2-2.3l3.7-3l3.4-2.1l1.8-0.2l0.5-0.4l0.9-0.1l0.2,0.5l1.3-0.1l1.4-1.6l-0.5-0.2l-0.3-0.5l-1.3,1.2
		l-1.9-0.2l-1.1-1.1l1.3,0.5l2-0.8l-0.3-0.5l0.7-0.6l-0.5-0.7l-1.7-0.3l-0.8-1l1,0.1l1,0.5l1-0.4l0.2-1l0.6,1.6l1-0.2l1,0.6l0.6-0.5
		l0.5-1.1l1.5-1.3l0.5,0l0.3-1.6l-0.6-1.2l-0.4,0.1l-0.8,1.5l-0.1,0.9l-0.7-0.3l-0.2-2.2l-0.6-0.3l-3,0.5l-1.5,0.5l0.3-0.9l0.1-2.2
		l0.5-0.3l0.7,1.5l0.9,0.3l0.7-0.7l2-0.5l0.3-0.4h1l0.4-0.8l-0.3-1.6l-0.6-0.6l0.1-0.7l0.8,0.4l0.6-1.4l-0.4-1.4l-0.7-0.6l-1,0.3
		l-1.3-0.3l-0.6-1.8l-0.9,0l-1.2-0.4l-1-1.2l1.2,0.6l1.8,0.1l0.7,1.3l0.9,0.4l0.6-1l-1.9-1.6l1.5,0.3l0.1-0.7l0.5-0.4l-0.4-1l-1.6-1
		l-0.6-1.8l0.7,0.3l0.5,1.3l1.1,0.1l0.4-1.5l-0.2-1.3l-1.1-0.6l-1.6-2l-1.6-0.6l-0.8-1.4l-1.1-0.5v-1.3l1.1-1.4l-0.6,1.5l0.3,0.7
		l0.7,0.1l0.9,1.6l1.4,0.2l1.7,2.1l0.4-0.1l0.2-2.9l-0.1-1.4l0.2-1l-0.3-0.8l0.2-2.1l0.3-0.9l-0.7-1l0.6,0.1l1-0.7l1.5-1.2l0.4-1.4
		l-0.1-0.4l0.4,0.6l-0.3,1.4l0.4,0.5l-1.2,0.7l-0.8,1.6l1.2,1.9l-0.3,2.1l-1,1.5l0,1.4l1.2,1.5l0.5-0.6l0.2,0.6l0.7-0.1l0.1,0.3
		l-0.4,0.7l0.5,1l1.8,0l-1.3,0.7l0.2,0.3l-0.9,1.2l0.2,0.9l-0.8,1.4l-0.4,1.6l0.2,1.4l0.4-0.6l0.2-0.7l1.5-2.6l0.2,0.5l0.1,0.6
		l0.4-0.6V528l0.8-1.4l1.2-3l1.6-1l1.2-2.8l0.1-1.9l-0.9-2.5l-0.7-0.8l-0.2-2l-0.7-0.7l-0.2-1.5l0.7-1.4l1.3-1.2l1.6-0.8l-2.4,2.6
		l-0.4,1.1l0.6,1.1l1.7,1.7l1.1-0.3l0.6,0.7l-0.8,2l1.1-0.8l0.1,0.4l1.2-1.5l0.2-0.9l0.6,0l0.6-0.9l1-0.3l0.6-2.2l0.7-0.8h0.6
		l0.6-1.5l0.6-0.9l-0.2-0.7l0.6-1.4l-0.1-0.5l0.8-1l-0.2-0.9l-0.9-0.8l-0.6-1l2-1.1l0.1-1l1.2-1l1.3-0.4l2.3-1.2l1.6-0.1l2.3-1.6
		l0.8-0.1l0.6,0.5l2.9-0.2l1.4,0.4l1.9-0.4l3-0.2l0.8-0.3l-0.6-0.7l0.2-2v-1.7l1.5,1.6v1.4l-0.2,1l1,0.2l1.3-1.4l1.4-2.5l0.7,1.4
		l-0.1,1l0.9,0.3l3.4-1.7l0.9-1.5l-0.7-2.5l-0.7,0.2l0.2,1.3l-0.6,1.6l-2.1,0.1l-0.2-1.2l-0.8-2.4l-1.9-1.1v-0.7l2.6-2.3l-0.1-1.1
		h-1l0.2-0.9l0.7-0.6l0.3-1.1l0.9-1.1l1-2.6l2.7-2.1l0.9-2h0.8l0.8-1.3l0.1,1l1,0.3l0.7-0.9l0.8-1.5l0.2,1.5h0.8l0.8-1.6l0.4,0.7
		l0.8-0.6l1.4-2.3l1.9-2.4l-0.4,1.4l0.4,1.2l1.4-0.2l1.3-1.4h1.6l0.4,1.6h1l1.2-1.6l1.1,0.5l0.8-0.4l1.3-0.9l1.1,0.1l1.8-1l0.5,0.9
		l1.3-0.2l1-1.2l-1.4-0.8l-0.6,1l-1-1.1l0.5-1.6l-2.8-1.6l0,0l-0.1,0l-0.3-0.5l0.4-0.6l-0.2-0.7l0.2-0.7l0.1-1.2l-0.6-0.8l-0.5-0.8
		l-0.6-0.2l0.4-1.1l1.6-9.3l-0.1-2.4l-2.9-2.7l-0.6,0.6l-2-0.5l-1.5,0.4l-1-1l-0.9-0.6l-0.5,0.1l-1.2,1.2l-0.6,1.2l-2.6,2.9
		l-1.3,1.6l0.1,1.2l-1.9,1l-0.2,1.6l-0.6,1.6l-1.9,2.3l-0.9,0.3l-2.4,2.5l-0.4,1.1l-0.9,0.6l-1.3-0.3l-0.9,0.1l-0.7,0.5l-0.6,0.1
		l-1.6,1.6l-21.4-0.4l-2.6,0.4l-1.2,1.2l-1.8,0.8l-1.4,1.2l-3.3,3.1l-2,0.4l-1.4,1l-6.1,4.6l-13.8,4l-0.6,3.6l-3.2,1l-25.2,6.8
		l-1.3-2.2l1.4-1.8l2.8-1.4l1.1-1.6l0.8-1.6l0.7-1.8l0.6-9.8l-4.8-22.5l-4.5-3.6l-1.9-2.3l-29.3-13.8l-1.1-0.8l-1.8-0.4l-0.8-0.7
		l-3.5-0.2l-0.6-1.2l-0.8-0.7l-1.2,0.7l-2.4,0.1l-1.1-0.5l-1-1.1l-1.5-0.4l-2.5-0.8l-0.7-1.6h-0.9l-1.7-1.4l-1.4,0.1l-1.1-0.4
		l-1.4,0.4l-0.6,0.2l-0.7-1l-1.5-0.4l-0.2-0.4l-1.5-0.5l-0.3-0.2l-1-1l-0.1-0.5l-1.6-1.4l-1.7,0.1l-1.4-0.2l-190.9-19l0.6,2.6
		l1.6,1.2l-0.2,1l-1.3,1l0.2,1.2l1.1,0.7l-0.5,0.6l-0.8,1.2l0.5,0.4l0.1,1l0.7,0.8l-1.2,1.5l-1.2,0.8l-0.4,1.9l-0.8,0.7l-0.1,1.6
		l-0.8,0.9l-0.5,1.3l-1.6,1.1l-1.2-0.6l-0.4-0.7l1.1-1.3l0.3,0.6l1-0.8l0.2,1.1l0.5-0.5l0.1-1.8l0.8-1.8l1.1-0.9l-0.2-1.2l-0.7,0.2
		l-1.5,1.3l-0.5,0.9h-1.2l0.1-0.7l1.4-1.4l1.5-0.6l0.4-0.8l-0.5-0.9l-0.7-0.1l-0.7,0.3l-0.7-1.3l-1.2-0.6l-3.3-0.2l-1.8-1.2l-3.4-3
		l-0.5,0.2l-0.2,1.5l-1.2,2.7l0.1,1.3l0.8,2.7l-0.7,3.8l0.4,1.9l-0.3,1.9l0.1,1l1,0.3l0.1,0.5l-0.6,0.8h-0.7l-0.4,1.2l0.5,0.6
		l1.2,0.5l-0.4,1.1l-0.1,1.4l-0.8,1l-0.5-0.2l-0.5,0.6l0.2,0.8l2,0.5l2,0.2l1.2,1l1.5,0.3l0.7,1l0.3,1.8l-0.7-1.6l-1.3-0.8l-0.9,0.2
		l-1.1-0.7l-2.5-0.1l-0.8-0.6l-0.5,0.4l0.1,1.2l-1.5,1.9v1.1l0.2,1.1l-1.2,2l-0.7,1.6l-2,4.5l-0.3,3.3l-1.8,3.5l-0.5,3.9l-1,1.9
		l-1.4,1.6l-0.8,2.4l-0.7,0.7l-0.4,1.5l-1.9,2.4l-0.5,1.3l0.2,2.8l-0.7,2.8l-0.1,1.9l1,1.6l-0.6,0.8l-0.1,1.2l0.5,1.8l-0.3,3
		l-0.8,1.6l-0.8,0.8l0.2,1l0.5,0.3l-0.7,2l-2.2,1.5l-0.8,1.7v1.6l1.3,1.7l1.2,2.7l0.1,3l-0.3,1.6l-0.8,1.3v0.7l0.6,1.3l0.2,1.5
		l-0.6,1.1l-0.3,1l0.3,0.8l3.1,4.7l0.2,1.4l-0.4,0.9l0.4,1.1l1.7,1.6l0.3,0.7l0.6-0.1l0.4,0.2v-1.6l0.1-1.6l1,0.6l0.4-0.3l0.2,0.6
		l1.2,0.1l0.4,0.5l1.9,0.2l-1.3,0.3l-1.3,0.4l-0.5-0.5h-0.6l-0.1,1l0.6,0.4l0.2,1.9l0.5,1.1l0.5,0.6l-1.2-0.6l-0.6-1.3l-0.6-0.4
		l-0.5,0.7l0.2,0.9l-0.7,0.7l0.2,0.7l-0.4,1.3l0.2,1.2l0.7,0.4l0.3,1.4l1.1,0.7l0.8,0.8l0.1,1.2l-1,1.1l-0.6-0.1l-0.1,0.6l0.4,1.5
		l-0.1,1.4l0.2,0.9l1.2,0.8l0.3,2.5l1.5,3.3l1.1,1.5l0.6,0.5l-0.3,0.5l0.1,0.4l1.2,1.4l0.5,1.5l-0.5,2.2l-0.4,1.2l-0.3,0.2l0.4,1.2
		l0.7,0.5l2.5,0l1.5,0.4l1.2,0.7l1.1,0.2h2l0.9,1v1.3l2,1.1l1.2,0.1l1.8,0.5l0.3,0.8l-0.1,1.3l0.5,0.3l0.7-0.1l1-0.2l1.6,1.7
		l2.5,3.9l0.3,2.2l-0.4,1.8l0.1,1.2l17.6-0.3L188,564z M516.9,492.9l-0.3,0.4l-0.6,0.4l0.3,0.6l0.8-0.1l0.6-0.6l1,0l-0.7-0.7
		L516.9,492.9z"/>
	<path id="LOCATION_x5F_NEW_x5F_ZEALAND" class="st0" d="M1744.2,657.3l0.7-0.1l0,0.5l-0.5-0.1L1744.2,657.3z M1680.2,725.5l0.4-0.1
		v-0.6l-0.8,0l-0.2,0.3l0.1,0.1L1680.2,725.5z M1729.7,690.2h-0.3l0-0.6l-0.7-0.2l-0.6,1.2l0.2,0.3l0.4,0.1l-0.9,0.6l-0.5-0.5
		l0.1-0.6l-0.4,0l-0.6-0.2l-0.6,0.4l-0.7,0.9l-0.6-0.3l-0.5-1.4l0.4-0.3l0.5-0.6l0.2-0.5l-0.3-0.1l0.1-0.4l-0.3-0.3l-0.5,0.4
		l-0.4-0.2l-0.4-0.5l0.1-0.6l0.6-0.8l-0.8-0.1l-1.3,0.9l-0.7,0.3l-0.9,0.7l-0.2,1.3l-0.9,2.3l-0.9,1.2l-0.4,0.2l-1.1,1.4l-0.3,0.7
		l-0.9,0.3l-1-0.1l-0.8,0.6l-0.3,0.9l-0.1,1l-0.5,0.3l-0.8,0.9l0,1.1l-0.5,0.6l-0.1,0.8l-1.8,2.1l-2,1.4l-1.1,0.1l-1.3,0.6l-0.1,0.7
		l-0.8,0l-1.9,0.9l-1.6,1.5l-1,0.2l-1.8,1.1l-0.2,0.6l0.3,0.8l0.1,1l-0.9-0.8l-0.4-0.2l-0.8,0.3l-0.9,0.2l-0.4-0.4l-0.8,0.1
		l-1.6,1.4l-0.6,0.7l-1.2,1l-0.8,0.2l-0.9,1.1l-0.2,1.2l-0.1-0.6l-0.4-0.4l-0.6,0.6l-0.6,0.4l0,1.2l-0.4,0.5l-0.5-0.3l-1.5,1.6h-0.4
		l-0.5,0.6l-0.1,1.7l-0.4,0.5l-0.4-0.9l-0.4-0.2l-0.4,0.6l-0.3,0.2l-0.9,1.5l0.1,0.6l0.8,0.7l0.4,0.5l-0.4,0.3l-0.8,0l-1,0.1
		l-1.2,1.3l0.6,0.1l0.5,0.1l-0.5,0.3l-0.1,0.9l0.7,0.7l0.4,0.2l1.3,0.1l0.1,0.3l0.4,0.1l0.1-0.6l0.5-0.1l0.8,0.4l0.3,0.8l-0.3,0.3
		l0.5,0.5l0.8,0l0.4,0.4l0.1,0.9l1,0.8l0.7,0.5l-1,0.6l0.5,0.1l1.3-0.6v0.5l0.8,0.2l1.2-0.2l1.7-0.7l1.4-1.3l0.9-0.4l0.1-0.5
		l-0.2-0.8l0.6,0.5l-0.2,0.7l1.2-0.5l0.3-1.1l0.6-0.9l1.5-0.6l1.3,0l0.4-0.3l-0.1-0.3l-0.8,0.2l0.5-0.3l0.2-0.3l-0.2-0.2l1.1-1.3
		l0.8-1.4l0.4-1.5l0.7-0.8l2.2-1.6l0.5-0.9l0.2-1l1-1.6l0.5-0.8l0-0.9l0.9-1l0.8-0.4l0.2-0.9l0.7,0.5h0.6l0.3-0.8l0.8,0l0.5-0.1
		l0.6-0.8l-0.1-0.8l-0.6-0.7l0.8,0.4l0.4,1l0.4,0.1l0.6-0.2l0-0.4l0.6-0.5l0.7,0.3v0.4l-0.9,0.4l1,0l0.8,0.3l0.3-0.5l0-0.7l0.3-0.3
		l0.3,0.2l-0.1,1l0.3,0.3l0.5-0.4l0.1-1.3l-0.4-0.7l-0.7-0.1l0.3-0.4l-0.1-1.2l0.4-1.6l0.7-0.3l1.4-0.4l1.5-0.9l0.2-0.6l1.1-1.3
		l0.1-0.9l1.1-1.1l0.8,0.1l-0.1-0.4l1.8-1.8l0.1-0.6l2.6-2.2l0.9-0.5l-0.5-0.2l-0.1-1l-0.4-1l0.1-0.9l0.3-0.8l0.3,0.1l0.9-1.3
		l-0.8,0.2l-0.7,0.1l1.1-0.6L1729.7,690.2z M1758.3,664.9l-0.4-0.6l0.4-0.1l0.1-0.3l-1.1-0.2l-1,0.7l-1.8,1.9l-1.2,0.1l-0.6,0.3
		l-0.9-0.4l-2-2.1l-0.6,0.1l-0.8-1.1l-0.3-0.7l0.5-0.5l0.2-1.1l-0.8-1.6v-0.8l-0.3-0.5l0.1-1l0.3-0.7l-0.5-0.1l-0.1-1.1l-0.3-0.6
		l-0.4,0.3l-0.8-0.5l-0.3,0.4l0.7,0.7l0,1l0.1,0.4l-0.8,0.7l0,0.7l0.7,0.8v0.6l-0.8,0.3l-0.6-0.7l-0.1-0.8l-1-0.1v-0.5l-0.8-0.4
		l-0.6,0.1l-0.1-0.5l0.8-0.4l0.3-0.7l-0.8-0.7l0.6-1.1l0.8-0.2l0.2-1l-0.3-0.8l0.2-0.5l-0.3-0.8l0.1-1.1l-1.1-0.8l0.1-0.5l0.6,0.4
		l0.8-0.2l0.2-1.1l0.4-0.4v-1.4l-0.4-1.3l0.1-0.8l-0.4,0.2l-1.2,0.5l-0.9-0.9l0.5-0.5l-0.5-0.5l-0.4-0.1l0.4-0.6l0.8-0.4l-0.1-0.5
		l-0.9-0.2l-0.6-0.6l-0.6,0.3l-0.1-0.9h0.4l0.3-0.6l-0.5-0.1l-0.5,0.4l0,0.5l-0.4,0.7l-0.7-0.3l0.3-0.8l-0.4-0.7l-0.3-1.3l0.1-0.9
		v-0.3l0.3-0.1l-0.5-0.5l-0.5,0.3l-1.3-0.1l0,0.3l0.6,0.7l1.1,2.6l0.2,0.9l-0.2,1.7l-0.4,0.4h-0.4l-0.2,0.3l0.6,2.1l0.3,0.3l0.8-0.5
		h1l-0.7,0.2l-0.7,0.8l0.3,1.2l0.6,1.4l0.2,2.5l0,1.5l0,1.1l0.5-0.3l0.2-0.9l-0.3-0.6l0.3-0.3l0.4,0.6v0.9l0.5-0.1l0.1-0.4l-0.1-0.3
		l0.3-0.1l0.1,0.7l-0.5,1l-0.3,0.8l-0.1,0.5l-0.4,0.1l-0.4-0.6h-0.4l0.2,1.5l0.7,1.9l0.4,0.1l0.3-0.2l0.4,0.7l0.1,0.5l0.5,0.3
		l-1,0.7l0,0.4l0.3,0.3l-0.3,0.7l-0.6,1.7l0,0.9l-0.3,0.3l0.5,0.5l-0.2,0.4l-0.7,0.1l-0.4,0.8l0,0.5l0.6,0.6l-0.6,0.3l-0.6,0
		l-0.4,1.1l-0.7,3.6l-0.1,0.8l-0.7,0.5l-0.7,0.1l-0.9-0.3l-0.9,0.1l-1.9,0.9l-0.9,1l-0.3,1.1l0.2,1.6l0.8,0.7l1.4,0.9l0.7,1.3
		l1.3,0.4l0.5,0.5l0.2,2.2l0.1,0.2l-0.3,0.2v1.2l-0.4,0.9l-2,2.5l-1.4,1.5l-1.5,1.3l-0.5,0.6l0.1,0.5l1,0.2l0.2-0.6l0.4,0l0,0.7
		l-0.1,0.5l0.3,0.1l0.4-0.1l0.3,0.4l-0.1,0.8l0.2,0.3l0.8-0.1l1.8-1.3l1.6-1.3l1.5-1.5l1.4-1.6l1.7-2.1l0.9-0.6l0.6-0.1l0.4-0.5
		l0.1-0.8l0.4-0.5l1-0.4l0.6-1.9l1-1.5v-0.4l0.5-0.5l-0.8-0.7l-0.8-0.1l-0.7,0.1l0.7-0.6l0.6-0.2l2.2-2.4l1-0.4l1.6,0.3l0.8,0.1
		l-0.2,0.6l0.1,0.7l0.8-0.8l0.6-0.3l-1.2-0.5l0.1-1l0.6-1.6l0.6-0.6l0.8,0l0.2,0.3l0.4-0.4l0.5-0.8l1.3-2.1l0-0.7l0-0.7l0.4-1.2
		l0.8-0.9l0.9-0.5l-0.1-0.2L1758.3,664.9z M1686,736.6l0.1-0.5l-0.6,0.3L1686,736.6z M1683.6,736.6l0.6-0.1l0.1-0.2l-0.2-0.3
		l-0.4-1.1l-0.9-0.9l-0.9,0.3l-0.1,0.7l0.1,1l-0.3,0.9l-0.7,0.1v0.6l-0.4,0.3l-1,1l0.1,0.4l0.5,0l0.7-0.9l0.3-0.1l0.3,0.2l0.5,0
		l0.5-0.4l1.1-0.4l0.4,0.1l0.3-0.4l-0.1-0.4l-0.5-0.2l-0.4-0.4l-0.3-0.1l0.5-0.2L1683.6,736.6z M1729,688l0.2-0.5l-0.8-0.2l-0.6,0.8
		l0,0.7l-0.1,0.3l0.2,0l0.5-0.7L1729,688z M1728.3,689.6l-0.5,0.1l-0.4,0.5l0.5,0L1728.3,689.6z M1727.6,689.7l0-0.3l-1,0.5l0.5,0
		L1727.6,689.7z M1747.5,653.3l-0.1-0.5l0.3-0.2l-0.3-0.5l-0.1-0.8l-0.6,1.3l0.6,0.7L1747.5,653.3z M1745.8,652.6l-0.4,0.2l0.2,0.3
		L1745.8,652.6z"/>
	<path id="LOCATION_x5F_NETHERLANDS" class="st0" d="M838.1,439.1l-2-0.4l3.2-1l1.1,2l-1.8,0.3L838.1,439.1z M840.7,436.4l0.4,1.1
		l1.8,0.6l0.8-0.8l-3.1-1.7l-2.5-0.4l0.4,1.6L840.7,436.4z M832.9,447.9l2.7,0.3l1.6,2.1l2.1-1.7l3.4-0.3l0.9-1.1l2.6,0l1.3-2.4
		l6,0.8l1.8,2.3l3.1,0.4l1.4,2.6l4.7,0.3l1.3,3.1l-0.5,2.2l2.9,1.3l1.9-3.7l1.8-5.7l-0.5-5.3l2.6-2.5l2.6-3.3l4.8-0.6l4.3,1.5
		l2.7-1.1l-1.5-3.5l2.5-1.4l0.9-3.8l1.3-2l-1.6-1.9l-4.3-0.4l-0.2-2.3l1.9-3.3l3.5,2.1l2.5-1.6l0.5-3.4l1.8-2.9l0.5-1.9l1.2-1.2
		l0.2-0.7l-3.3-1.5l-2.4-2.7l-4.7-3.1l-5.3,0.2l-3.4,2.3l-2.8-1.5l-2,1l-4.3-0.4l-4.5,4l-6.8,2.7l-1.2-1.1l-3.9,1l-0.6,4.3l-3.8,2.3
		l0.6,4.3l-1.2,3.6L846,427l-1.4,2l-2.9,1.7l-0.2,2.7l3.6,4.1l3.5,1.5l-4-0.5l-2.1,1.4l-1.3,0.9l1.4,2.2l2,0.5l-0.1,1.7l-3.2-0.2
		l-2.6-3.4l-2.9-1.8l-3.1,0.9l0.9,1.7l2.8,0.6l2.3,2.7l1-0.3l3.1,2.6l-3.1-1.6l-2-0.1l-4.6-2.2l-3.1-0.4l-0.1,0.1l1.9,1.2
		L832.9,447.9z"/>
	<path id="LOCATION_x5F_DENMARK" class="st0" d="M955.7,365.3l0-0.1 M974.7,372.5l0.4,1.4l1.9-2.1l2.4-0.2l-0.3-2l-2.7,0.8
		L974.7,372.5z M961.7,355.3l1.1,2.3l-0.6,3.6l1.7,2.7l2.2,0.3l4,1.6l0.4,1.7l-1.7,1.7l1.1,2l2.7,0.2l1.6-1.7l0.2-2.4l3.9-1.1l2-1.5
		l-0.4-2.2l-2.9-2.5l0.1-1.3l3.9-1.4l1.6-4.1l0.1-3.9l-0.7-3l-4.1-0.3l-4.8,0.6l-2,2.9l1,1.7l2.5,2.2l-0.5,1.8l-1.8-0.7l-0.9,0.8
		l-2.9-2.5l0.1-1.7l-1.4-2.3l-1.8,1l-1.7,2.5l-2.2,0.4L961.7,355.3z M983.5,354.9l-1.7,3.6l2.3,1L983.5,354.9z M1022.6,374.4
		l-2.5-5.3l-3-2.3l-1.4,4.6l0.5,3.4l5.4,2.6L1022.6,374.4z M954.4,364.6l-0.6-2.9l-1.7-5.2l-2.4,0.1l-3.6-2.5l-5.5,0.4l-1.3,4.2
		l1.3,4l2.9,3.8l2.9,0.7l1.8,1.5l3.5-0.2L954.4,364.6z M959.1,374.5l-2.1,0.5l1.2,2.1l4.8,2.3l5,0.1l2-2l0.6,2.8l0.8,0.5l0.2-2.8
		l1.9-2.9l-0.3-2.6l-0.7,0.4l-2.9-0.5l-1.5,2.5l-1.8-0.2l-2.3,0.5l-2.7-5l-1.8,0.3l-1.7,2.1L959.1,374.5z M990,385.9l-1.1,2.5
		l0.9,1.3l3.4,1.6l2.6-2.9l2,0.9l0.4-1.6l-1.2-2.8l1.1-2.8l-2.5-0.8l-1.3,0.5l-1.1-0.8l-2.8,0.4l-0.1,2.2l2.7,0.6l-0.9,0.8
		L990,385.9z M959.8,311.8l2.6,0.2l3.1-1.8l-3.8-0.4L959.8,311.8z M926.5,321.2l-0.1,3.7l1.9-0.6l3.2-2.9l0.8-2.2l-2.8-0.1
		L926.5,321.2z M955.2,372l2.5-3.8c0,0-1.9-2.3-2-2.8l-1.4,4.7l-1.7,2.6l0.4,1.7L955.2,372z M957.4,298.9l-5.2,4.2l-4.7,1.5l-3.2,0
		l-2.6,3l-2.2,3.9l-3.7,2l-3.8-0.4l-4.9,3.1l-1.2-1l-2.6-0.2l-1.6,3.7l-3,2.4l1.5,1.6l1.6-0.7l3.2,4.6l-0.2-4.7l1-2.3l6.3-3l0.7,0.7
		l3-0.2l3.7,1.2l2.6-0.6l3.4,0.4l2.8,1.6l2-0.7l4.1-5.6l-0.4-3.8l0.8-1.4l-0.4-3.7l3.1-4.3L957.4,298.9z M949.4,373l1.4-1l-3.7-1.9
		L949.4,373z M954.4,348.8l-0.8-4.7l-0.6,4.8l-2,2.6l2.8-0.3L954.4,348.8z M930.6,369.1l1.8,1.1l3.2-0.2l-0.2-0.2l1.2-2l-2.1-2.7
		l-1.3-0.2l0.4-2.4l2.2-1.5l0.6-2.6l-1.6-1l0.4-2.4l7.2-2.7l-1.3-1.4l2.9-2.5l1.4,1.1l3.8-0.9l0.4-4.8l-1.2-3.4l2.4-1.9l3.1-0.1
		l1.9,2.6l1.3-0.8l1.3,0.7l1.4-1.6l1.4-2.8l-2.7-3.7l-1.9,1.1l-4.1-0.6l-1.8-2.4l-1.6-3l-1.7-0.6l1.7-1.7l0.4-3.6l-3.1-2.7l-5.3-0.2
		l-2.7,0.9l-2.8-0.7l-1.5,1l2.5,4.3l-1,1.2l2.4,3.8l-0.4,1l-2.5-1.4l-3,0.3l-0.4-1.7l2.1-1.8l-1.5-3.6l-0.9-0.1l-3.2,3.6l1.3,2.5
		l-3.6,2l-1.8-2.5l-2.9-0.3l-1.9-1.3l-2.7,2.3l3.4,3.2l-0.4,3.3l-2.1-2l-1.5,0.2l0.2,4.5l2.3,1.6l-0.5,4l1.8,2.2l-5.1,1.7l-2.6,4.8
		l1.8,1.8l3.1-1.3l3.6,4.1l0.2,5.4l-1.6,0.8l0.4,2.8l4.7,0.3L930.6,369.1z"/>
	<path id="LOCATION_x5F_FRANCE" class="st0" d="M881.2,617.1l0.8,3.9l-0.6,0l-12,7l-3.5,3.5l0.5,1.8l-3.7,2.4l-7.8-1.3l-2.6-2.9
		l-9.9-7.9l-2.6,0l-2.9,1.8l-2.9-0.3l-4-3l-3.9-1l-1.8-1.7l-2-0.1l-6.9,5.8l-4.4,3.2l-0.7,2.9l-2,5.9l0.7,5.2l0,1.7l-2.1-1l-5.4-4.2
		l-8.4-0.2l-4.8-3.4l-4.9,0l-2.9-2l-8-0.7l-3.4,2.8l-2.3-1.5l-4.9-0.4l-3.5-4.5l-3.8,1.2l-2.9-3.9l-6.7-3.6l-5.3,0l0.8-2.7l-0.2-3.8
		l-2.1-0.6l-0.3-0.9l-2.8-2l4.4-2l4.4-10l2.3-11.9l2.5-1.5l-2.6-2.2l0.6-6.4l2.7-8.6l1.9-1l3.4,2.3l0.7,4.4l4,4.9l-3-10.5l-4.9-4.8
		l-2.9-1l1.1-3l0.9-0.3l1.7-3.3l-1.3-2.7l0.5-3.1l-3.9-2.9l-4.2-1.2l-3.8-6l-2.9-0.7l-0.4-2.3l1.9-2.8l-0.3-3.6l-1.8-1l2.3-2.6
		l3.2,0.2l2.6,1.9l-1.9-3.3l-3.6-0.8l-3.6,1.8l-2.1-0.4l-1.3-2.7l1.7-3.3l-1.5-1.9l-3.1,1.4l-0.8-1.3l0.9-1.9l-1.7-0.6l-3.1,2.2
		l-3.6-3l-2.3-0.3l-1-2.1l-5.3-2.9l-2.2,0.2l-2.5-1l-3.9,2l0.6-2.1l-0.9-3.9l-3.1-0.4l0-1l3.3-0.8l2.1-0.6l-0.3-2.3l-2-1l-1.4,2.4
		l-0.8-3.5l2,0l3.3,1.1l-0.7-1.3l-3-1.3l-3.2,0.7l-1.1-2.4l2.7-2.5l5.4,0.2l2.5-2l3.7,0l1.6,1.4l2.2-1.6l1.6,1.1l3.7-2.7l4.3-0.5
		l2.7,1.3l4.2,7.1l4.2-2.8l1.1,1.3l3.2-0.4l2.5,1l2.8-0.6l6.1,1.5l0-3.1l-1.6-2.6l1-2.6l-0.5-2.8l1.3-1.6l-5.2-6.2l0.9-1.7l-0.7-4.1
		l1.8,1l4.1,0.6l3.1-0.7l2.6,1.7l-1.4,2.7l2.1,2l0.8,2.5l2.7-1.2l2.9,2l6.8,1.7l5.2-0.5l4.5-2.5l-3-1.4l-1-2.3l1.9-2.9l7.1-2.8
		l3.1,1.4l2.9,0.2l5.8-1l0.2-2.1l5.6-4.4l1.8-6.4l-0.3-4.2l1.6-3.3l5.4-2.4l1.3,1.4l6.5-1.4l0.6-0.9l1.9,1.7l0.1,6.2l3.9,2l0.3,3
		l4.5,4.6l2.2,0.1l2,2l2.3,1.4l-0.3,4.9l3.5,2.3l2.1-1.1l2.2,0.2l1.3,2l2.2,0.8l3.5,5.6l3.5,0.7l2.9,2.7l1.6-0.8l2.5,0.3l0.3,0
		l1.7,3.5l4.4,1.4l2.6-0.3l3,2.9l-0.2,2.2l2.8,2.9l3-0.7l3.1,0.4l2.2,1.1l3.3-0.7l4,2.4l3.3,0.4l3.2,2.7l-4.4,3.6l-2.5,5.1l-0.3,2.7
		l-2.7,2l-2.5,5.9l-0.3,5.1l2.8,2.2l1.3,3.6l-5.9,1.1l-3.1-0.7l-0.8-2.4l-4.1-0.2l-2.6,2.5l3.5,2.3l0.2,3.4l-3.3,1l-3.9,4.1
		l-2.8,0.7l-5.4,6.7l-1.4,5.2l-0.3,3.4l-2.1-0.4l-2.2,0.8l0.1,2.8l3.8,0.8l4.5-1.3l-1.2-4.5l2.7-1.9l5.2,0.8l1.4,3.5l0.8,4.5
		l1.8,1.9l0.2,3l-0.3-0.1l-1.7,1.6l0,4.4l3,3.4l-1.7,5.8l-4.1,0l-2.9,2.5l3.8,5.1l-0.3,9.3l5.2,4.5l5.4,0.6L881.2,617.1z
		 M894.6,656.5l0.4,2.6l2.4,1.6l-0.2,1.3l-1.4,0.7l0.9,1.9l2.3,1.6l-0.4,2.4l1.2,0.1l0.8,1.7l-1.3-0.4l-1.4,1.7l0.8,1.7l5.1,2.9
		l3.5-1.2l2.5-5.4l0.4-4.6l3.1-7.9l-1.1-7.3l0.9-4.5l-0.3-5.2l-1.7-0.2l-1,3l0.8,2.4l-0.9,3.1l-1.3-0.2l-1.9-2.5l-2.4,1.9l-5.6,1.3
		l-2.9,4l1.8,2.1l-0.9,1.5L894.6,656.5z"/>
	<path id="LOCATION_x5F_GERMANY" class="st0" d="M897.2,409.5l0.2-0.7l0.3,0.2l-0.4-3.4l-3.8-1.1l-1.3-3.3l1.1-3.4l8.1-1.2l2.4-0.8
		l3.6,3.2l-0.5,4l2.5,3.8l1.9-1.7l-1.2-3.3l0.3-2.5l1.7-0.5l2.3,2.6l-0.7,4l3.4,4.9l-1.2-3.5l0.4-5.1l-0.3-3l2.5-3.2l2.9-0.2
		l2.6,1.8l3.9-1l4.9,6.8l7.5,2.4l-6.9-3.9l-4.9-6.4l-4.2-0.8l-2.2-1.7l0.3-2.5l3-1.8l-3-2.4l0.5-4.1l-3.2,1l0.2-3.1l2.9,0.3l3.3-0.8
		l-3.5-4l0.6-2.5l-1.9-0.3l-2.2-1.9l0.6-2.9l-0.1-0.8l4.7,0.3l6.3,2.5l1.8,1.1l3.2-0.2l3,4.1l3.4,0.8l-2.3,3.8l-1.9,1.5l0.7,2.1
		l2.7,1.1l0.7,3.1l3-1.7l1.1-1.8l1.8-0.8l1.1,2l4.1,3.7l1.1-1.1l3.1-1.9l1.3,1l-0.3,3l-2.7,2.5l-2.1-0.6l-3.4,1.8l4.3,1.8l1.7-0.5
		l3.2,0.7l0.9,2.1l3.7,0.1l0.9-2.5l2.9-3.1l6.6-0.3l0.4-1.6l3.7-1.4l0.6-1.8l1.6-0.6l4.5,1l-3.8,1l-1.5,1.3l-0.5-0.5l-2,1.6l1.2,1.5
		l3.9-2.1l3.9,0l1.7-0.6l1,2l3,0.9l3.9,4.9l3.7-0.3l1.7,3.3l-1.1,3.3l2.9,2.9l3-0.1l1.9,2.1l3.2,0.2l1,8.1l-1.2,5.8l-5.2,2l-0.3,2.4
		l4.8,6.5l-1,3.5l2.2,3.6l-0.3,2.7l1.1,3.9l-1.8,2.9l2.4,7.6l2.2,1.6l1.8,3l-0.8,9.4l-1.1,1.4l-0.8,1l-2.4-1.6l-2.5,1.3l-5.3-1.9
		l-0.4,3.2l-3.1,1.4l-2.5-0.9l-5.9-0.5l-2.2,2.7l-3.8-0.3l-3.9,3.5l-3.1-0.1l-6.9,5l-2.8-1.7l-1.5-1.6l-1.7,1l-0.1,2.6l4.3,3.3
		l3,6.2l-0.8,4.3l0.7,2.7l3.2,2.3l5.6,4.8l3.2,2.7l6.1,9l0,0.1l-1,3.1l-0.2,3.5l-2.8-0.3l-2.4,3.3l-4.3,1.5l-5.4,5.4l-0.3,2.3
		l4.1,2.7l0.1,3.4l-1.9,1.1l-3.7-2.7l-4.1,0.7l-3.9-1.6l-2.8,0.1l-6,3l-3.1,0.3l-2.7-1.2l-3.1,0.4l-2.4-2l-4.8-1.3l-4.8,0.1l0.1,2.5
		l-1.3,1.3l-4.3-1.7l-2.1-3l-3.3,0.8l-2.2,0.8l-0.9-0.1l-1.6-1.4l-4.4-4.1l-2.4-0.4l-2,1.4L909,538l-0.9-3.6l-3.7,0.9l0.1,2.2
		l-1.5,2l-4.1-2l-3.4,1.4l-2.8-1.2l0.1,0l-1.3-3.6l-2.8-2.2l0.3-5.1l2.5-5.9l2.7-2l0.3-2.7l2.5-5.1l4.4-3.6l-3.2-2.7l-3.3-0.4
		l-4-2.4l-3.3,0.7l-2.2-1.1l-3.1-0.4l-3,0.7l-2.8-2.9l0.2-2.2l-3-2.9l-0.1,0l1-5.6l-1.7-1.9l-0.3-3.9l-3.6-5.7l-1.2-0.1l2.6-4.6
		l-1.8-3.5l0.4-2.2l-2-5.8l1.4-2.4l-0.4-0.2l1.9-3.7l1.8-5.7l-0.5-5.3l2.6-2.5l2.6-3.3l4.8-0.6l4.3,1.5l2.7-1.1l-1.5-3.5l2.5-1.4
		l0.9-3.8l1.3-2l-1.6-1.9l-4.3-0.4l-0.2-2.3l1.9-3.3l3.5,2.1l2.5-1.6l0.5-3.4l1.8-2.9l0.5-1.9L897.2,409.5z"/>
	<path id="LOCATION_x5F_SWITZERLAND" class="st0" d="M939.9,557.4l-4,3.8l1.1,5.8l-7.1,0.7l-1.5,6.5l-2.8-2.9l-3.1-0.1l-7.4-2.9
		l-0.6,4.9l-4.3,5.9l-1.4-3.8l-5.3-3.4l1-4l-3.8-3l-7.6,10.2l-4.4-2.6l-7.5,4.3l-3.6-1.9l-0.2-3l-1.8-1.9l-0.8-4.5l-1.4-3.5
		l-5.2-0.8l-2.7,1.9l1.2,4.5l-4.5,1.3l-3.8-0.8l-0.1-2.8l2.2-0.8l2.1,0.4l0.3-3.4l1.4-5.2l5.4-6.7l2.8-0.7l3.9-4.1l3.3-1l-0.2-3.4
		l-3.5-2.3l2.6-2.5l4.1,0.2l0.8,2.4l3.1,0.7l5.8-1.1l2.8,1.2l3.4-1.4l4.1,2l1.5-2l-0.1-2.2l3.7-0.9l0.9,3.6l2.1,0.9l2-1.4l2.4,0.4
		l4.4,4.1l3.6,3.1l-0.6,2.9l-1.3,2.2l0.9,2.2l1.8,0.3l2.8,0.5l2.3-0.6l3.3,4l3.4-2.5l2.8,0.3L939.9,557.4z"/>
	<path id="LOCATION_x5F_UK" class="st0" d="M700.2,288.1l0.7,2.1l-1.3,1l-1.1-2.9L700.2,288.1z M702.9,317.5l3.4-5.6l-6.6,4.9
		l0.8,3.3L702.9,317.5z M703,272.6l-1.8,0.6l-0.1,4l-3.4-3l-0.2,3.1l-1.1-0.9l-1.5,1.1l2.9,2.7l0.3-1.3l1.2,1.1l-0.6,1l1.9,4.5
		l4.1,0l-0.1,3.4l1.4,0l1.4-2.9l2.6-1.1l-1.2-1.1l-2.1,0.2l-3.3-2.3l1.1-5.9L703,272.6z M752,241l-1.7,0.1l1.2,1.7L752,241z
		 M795.5,437.8l-1.3,0.5l2,1.3l1.9-0.3l-0.9-1.4L795.5,437.8z M695.7,265.8l-1.6,0.6l-0.8,1.4l-1.3,0.5l2,1.9l4.3-3L695.7,265.8z
		 M698.9,313.1l-0.3-1.8l-1.5,3.2L698.9,313.1z M688.6,302.4l3.3-2l-2.8-0.5L688.6,302.4z M698.6,259.9l-3.5-2.1l-2.2,2.2l1.6,2.2
		l-1.7,1l1.5,1.5l3.1-0.2l3,1.2l2.6-2.9l-1-0.9l1.3-2.5l3.3-2.4l0-4.6l-8.5,4.7L698.6,259.9z M686.4,275.3l-0.1,1.1l2.1,1.1l1.2-2.3
		L686.4,275.3z M748.2,244.6l-0.1,2.5l3.3,0l1.7,1.4l0.4-2.6l-3.9-0.1l1.4-1.3l-1.8-2.3l-2.6-0.1l-0.4,3.2l1,1.4L748.2,244.6z
		 M708.5,276.7l0.1,3.9l-0.2,1.3l4.5-0.2l-3,1.1l-0.4,0.8l0.9,0.7l2.9-0.7l-0.7,0.6l1,1.5l-2-1.1l-0.9,0.5l-0.8,1.8l1,0.9l-1.7,0.1
		l-1.3,1.5l1.8,0.9l0.3,1.5l-3-1.6l-0.8,2l1.2,1l-0.9,1.3l-1.6,0.9l-3.1-0.3l-1.5,1.2l1.1,0.9l2.6,0.1l1.7,0.7l-0.5,0.7l-2-0.2
		l2.4,2.9l0.9-0.2l1.2,1.6l8-6.4l-1.4,2l1,0.8L713,300l-2.2,4l0.1,1l-2.7,4l0.9,0.6l-2.5,4.8l0.1,3.3l-1.5,1.8l0.8,1.7l1.3-0.5
		l-2.7,3.3l-1,5l-1.9,1.4l0,1.2l3.7,0.4l-0.2-2.6l2-3.5l0.1-2.3l2.2-2.2l-0.8-6.4l1.4,0.2l5-4.8l-3.9,4.6l-0.8,3.6l1.2,1.1l0.5-2.1
		l2.4-1.6l0.6,3.5l2.3-3.9l-0.1-2.9l1.6-0.6l-1,3.6l3.4,3.3l-3.1-1.2l-1.7,4.6l0.3,3.6l1.9,0.7l0.8,3.2l-3.2,2.6l-3.8,7.3l0.3,3.5
		l-2.4-1.9l-0.3,3.7l2.9,5.3l-0.6-4.6l2.5-0.4l5.6,5.2l0.5-3.5l-2.3-2.3l1.7-0.2l4.6,3.7l3.5-0.2l0.2-1.5l3.2,0.5l1.3-2.9l8.7,1.4
		l-5.9,0.9l-4.6,9.5l3.4,8.2l2.3-1l-0.5,4.1l3.2-3.1l3.4,0.9l-1.7,4.1l1,0.8L739,372l0.5,4.9l-2.3,3.4l1.8,3l2.3,2.5l2.1,0.4
		l-1.5,0.9l-2.4-0.1l-1.7-3.1l-2,0.5l1.3,3l1.6,1.3l-2.7-0.9l-2-2.5l-5.8,1.1l-2.5-0.7l-6.1,2.2l-3.5,3.9l-4.5,2.2l-2.1,2.4l2.7-0.2
		l1.3,0.6l0.6-1.5l6.1-0.9l-0.9,3.1l1.8,2.4l-2.4,1.4l1,2.5l1.4,0.5l-4.7,7l-2.9,0.6l-3,1.8l-1.4-0.1l-3.9,1.8l-2.6-0.3l-4.5,2.2
		l3.3,0.8l-0.1,2.5l-2.5,0.9l4.2,1.2l-1.2,0.9l1.6,1.1l2.5-0.4l3-1.4l4.7-1l0.2,2.1l3.5,1.3l-3,0.5l-0.5,1.7l4.9,0.7l0.1-1l2.5-0.4
		l2.2,3.2l2,3l5.7,0.6l1.6-2.1l2.8-0.9l3.8-1l1.6-1.9l3.2-1.1l-4.8,4.4l-4.7,3.5l-0.7,4.7l-2.9-0.5l-2.4,0.6l-2.4-1.7l-7.3-1.6
		l-5.4,0.8l-0.2,2.7l-2.4,1.9l-2.9-0.3l-1.2,6l-3.4,2.4l-1,1.5l-3.5,0.2l-1.3,3.4l-1.5-0.1l-1,1.7l-4.5,2.5l-1.8-0.9l-3.1,1.7
		l-0.3,2.6l3.1,0.5l0.4-2.4l3.7,1.4l1.2,3l2.1-1.6l-0.6-1.4l2-2.1l0.7,1.2l2.4-1.8l1.4,0.1l1.4-2.4l3.2,1.2l2.7-0.9l2,0.6l1.6-0.6
		l1.2,2.1l1.8,0.1l2.2,2.3l2.8,0.2l-0.3-1.9l2.3-0.8l0.8-1.6l-0.3-3.1l2.2-1.7l1.6,0l0.8-1.1l6.4-0.7l3.2,0.6l3.5,3.1l1.5-0.4
		l4.1,0.7l2.1,1.1l1.4-2.5l4-1.5l2.5,1l4-2l2.5,0.9l1.4-0.1l2-1.2l0.4,1.4l2.1,1.5l2.7-1.4l5.8,0.6l3.7-0.3l3.3,1.5l1.7,0.5l2.8-1.8
		l2.9-0.2l2.8-2.1l1.8,0.1l1.8,0.6l-0.2-2l4.4-2.3l2.6-0.3l0.5-2.6l-0.5-1.9l1-2l-4.6-0.4l-3.4,0.9l-1.9,0.1l-2.9-1.5l-1.1-0.4
		l1.2-0.9l1,0l0.4-0.6l-2.7-1l-2.5,0.6l3.6-2l2.2,0.5l2.9-1l-0.5-2.4l-2.7-0.3l2.2-1.5l1.6-1.3l1.5,1.5l2.7-1.5l1.2-1.4l-1.2-0.4
		l0.9-1.1l-2.8-0.7l1.3-1.8l1.7,0.7l0.4,1.4l2.4-2.5l2.1-0.6l0.9-5.1l2.4-4.6l-1.3-2.1l-0.3-4.4l-5.4-5.3l-8.1-1.3l-5.1-0.4
		l-0.8,3.8l-1.6,2l-2.3-3.3l-3.1-1.2l5.7-4.5l0.4-3.1l-3.3-7l-1.6-0.5l-3.3-2.5l-1.2-2.7l-1.8,0.1l-1.3,0.3l-2.1-1l-1.3-0.1l2.5-0.3
		l1.5,0.6l2.7-0.3l1.5,0.9l1.2,1.6l1.8-0.1l1.7,0.6l-4.1-6.4l-1.9-3.1l1.7-2.1l1.3-0.3l-2.2-1.5l-0.8-1.9l-1-0.2l-2.2-5.4l-3.9-2.6
		l-5.7-2l0-2.3l-1.3-1l-1.1-6.6l-1.7-3.8l-0.5-8.3l-1.4-2.9l-1.6-0.2l-4.1-7.9l-2.9-1l-2.1-2.2l-3.6-1.9l-1.6,1.2l-3.2,1.6l-4-1.8
		l-2,0l-3.2-1.5l-0.8-1.9l1.9,1.2l4,0.8l3.5-0.7l1.3-2.5l3.4,0.5l3.3-2l-3-1.8l0-1.9l-1.2-1.2l-4.6,1.8l-0.6-1l3.6-2.1l4,0.7
		l2.6-1.8l0.6-1.8l1.7-0.8l2.9-4.3l1.7-1.9l0-1.5l2-2.9l-0.5-1.2l1.9-4.1l3.1-2.1l0.3-2.7l-3.7-4.3l-0.9,0.6l-7.1-0.6l-4.3-1.3
		l-1.4,0.7l-2.1-0.2l-2.6-1.2l-1.9-0.1l-0.4,0.9l-2.8,0.5l-3.1,1.2l-1.1-0.2l-2.1,1.4l-0.5-0.7l2.9-2.7l3.2-4.1l-2.1,0.9l-2.4-1.2
		l1.6-0.8l0.8-2l7.5-4.4l2.4-3.2l2.4-0.6l1.5-2.9l-1-1.5l1.6-2l0-1.4l-3.5-0.4l-1.6,1.3l-2.1-0.9l-3.5,1.1l-3-0.7l-2.7,0.8l-1.5-0.2
		l-1.7,1.2l0.5-1.5l-1.3-0.8l-3.2,2.2l1.1-2.1l-3.7-2.3l-1,2.4l-1.5,0.9l0.1,2.3l-0.8,0l-0.2,2.8l-2.9,0.3l1.1,2.5l-1.5,2.2
		l-1.4-0.1l3.1,3.4l1,2.3l-3.3-2.1l-1.4,0.9l-2.3-2l-0.3,1.2l0.5,1.7l-0.9,1.1l-1-2.8l-1.5,2.6l1.2,1.6l-1.2,1.3l1.8,2.6l2,0.3
		l-2.4,0.6L708.5,276.7z M690.6,273.7l0.4-1.9l-4.3-1l-1.4,0.6l2.1,2.7L690.6,273.7z M674.9,338l-1.4,2.9l-3.6,0.1l-4.7,7.5l6.6,7.7
		l2.6-0.2l1.6-4.7l2.2-1.3l4.8,3.1l2.6,7l2.5,0.8l3.5,3l0.7,0.2l0-2.6l1.6,0.6l2.9-1.9l0.6-2.4l4.1,1l0.9-2.9l-2.5-0.8l1.3-2.6
		l-0.8-2.1l2-0.1l1.3,6.3l-0.2-7.9l-4.7-0.8l2.8-1.6l-4.3-7.9l0-3.3l-2.4-1.7l-5.3-1.1l-3.6,1.8l-2,0l-1.2,1.1l-3.4,0.3l-1.9,1.6
		L674.9,338z M714.2,360.9l-1.9,4.4l3-0.2l4.7-3.7l-0.5-1.9l0.9-2.9L714.2,360.9z M699.3,322.3l-0.8-5.9l-5.2,1.5l-0.4,4.5l3.4-1.7
		l-0.8,3.3L699.3,322.3z M693.4,299.3l2.4-0.8l1-2.6L693.4,299.3z M713.5,384.3l4.5,3l4.5-2.8l-3,0l-1.1-3.1l-3.7,0.1
		C714.7,381.5,713.4,384.2,713.5,384.3z M760.6,452.4l-5,1.9l2.2,0.7l2.2,2l2.4-0.1l0.1-1.2l1.4-1.8l-1.8,0L760.6,452.4z
		 M708.5,324.9l0.3,5.2l3.2,1.7l1.4-3.4l-1.8-5.2L708.5,324.9z M703.7,307.7l3.3-2l-0.9-3l-2.2-0.6l-2.4-3.5l-3.5,1.9l4.3,2.7
		l-2.7,1.1l0.5,1.2l-3.3,1.8l6.6-0.7L703.7,307.7z M748.2,249.5l-0.9-1.9l-1.6,0.2l1.6,3.3L748.2,249.5z M684.3,285.7l-1.6,1.6
		l-0.3,1.8l2.5-1.2L684.3,285.7z M688.1,278.3l-1.8-0.5l-0.1,2l-1.2,2.1l0.4,2.4l2,0.7l-0.3-3l1.1-1.5L688.1,278.3z"/>
	<path id="LOCATION_x5F_ITALY" class="st0" d="M983.1,803.4l5.2,1.4l-0.2,2.7l-2.2,1.8l-3.2-3.4L983.1,803.4z M930.1,648.8l-0.2-2
		l-1.4-2.2l-1,1.1l-4.1,1.1l-1.7,1.4l1.8,1l3.8-0.9L930.1,648.8z M1005.5,764.2l1.2-4.6l-2.3-3.5l-4.9,3.8l-1.8-0.5l-3.6-2.6
		l-4.2,3.6l-8-1.4l-6.8,1.2l-4.6-1.5l-3.1-2.6l-3.9,0l-2.3,1.5l-1-1.7l-4.5,1.5l-1.2,5.7l3.3,3.9l3.8-0.2l6.1,5.3l3.5,1.4l2.9,4
		l7.5,3.8l1.7-0.9l3.2,2.9l0.3,2.9l7.8,4.1l3.4-0.1l0.2-4.4l2-1.9l0-3.9l-2.7-4.8l4.2-8.2L1005.5,764.2z M987.3,581.8l-1-3l4.7-5.4
		l-2.3-2.6l-5.9-0.2l-10.5-3.3l-8.1-6.1l0.9-3.5l-6.2-0.2l-3.7-1.5l-9.8,4.3l-5.6-3.2l-4.1,3.9l1.1,5.8l-7.1,0.7l-1.5,6.5l-2.8-2.9
		l-3.1-0.1l-7.4-2.9l-0.6,4.9l-4.3,5.9l-1.4-3.8l-5.3-3.4l1-4l-3.8-3l-7.6,10.2l-4.4-2.6l-7.5,4.3l-3.9-2l-1.7,1.6l0,4.4l3,3.4
		l-1.7,5.8l-4.1,0l-2.9,2.5l3.8,5.1l-0.3,9.3l5.2,4.5l5.4,0.6l-2.9,5.1l0.8,3.9l8.6-0.5l3.5-3.5l0.5-2.9l9.7-4l11.4,4.4l3.2,2.7
		l5,2.1l1.1,3l0.8,2l1.1,2.9l2.6,5.6l-0.2,3.1l2.6,2.1l-0.7,4.9l3.9,2.5l2.3,3.6l4.3,5.1l0.2,3.3l5.1,0.7l2.7,4.6l0.3,2.9l2.2,1.1
		l6.2,10l6.4,6l3.3,0.9l2.7,2.3l0.3,3l3.2,0.4l2.5-1.9l3.4,1.9l3.4,0.7l2.9,7.4l2.1,1.7l2.1-0.6l2.8,1.4l-0.5,2.4l3.1,0.2l3.2,0.6
		l1.9,3.2l-0.8,3.4l-1,1.4l1.5,1.9l3.6,0.7l1.1,3.1l4.4,1.6l2.1-1l2.4,1.9l1,5.8l0.2,5.4l1.6,2.6l0.8,6.4l1.7,3.2l-0.5,3.2l-2.1,2.1
		l-1.4-0.1l-1.1,0.5l0,3.5l-0.8,3.3l-2.4,2.2l-2.3,0.9l-1,1.3l-0.2,2.7l3.4,4.3l5.1,0.2l2.9-3.2l1.1-3.7l5.3-3.3l1.3-8.1l3.3-2.7
		l3.2-0.4l1.5-2.4l-0.7-1.7l1.1-4.5l-0.7-2.1l-4.4-5.2l-2.8-0.7l-1-1.9l0.3-2.6l2.7-1.4l0.9-2.6l0.1-2.3l2.2-1.9l1.7-4.1l1.7-0.8
		l2.4,0l3.4,2.1l0.9,1.7l5.4,0.7l1.8,1.4l-0.7,2.6l1.1,3.4l2.1,3.4l3,1.7l0.3-1l1-0.7l-0.1-2.9l1.8-2l1-4.5l-1.1-2.5l-2.7-2.4
		l-5.6-2.1l-3.1-4.1l-5-4.7l-13-9.1l-6.5-2.4l-3.6-0.4l-1.4-3l0.3-1.6l4.8-2.6l0.9-2.3l-2.9-2l-4.3,0.2l-2.7-1.1l-6.7-0.7l-2.1-1.6
		l-3.2-1l-2.2-2.9l-4.7-4.6l-2.1-4.2l-2.8-3.6l-2-3.7l0.3-3.6l-1.4-1l0.1-3.1l-10.1-12.9l-1.8-3.2l-4-2.8l-7.3-5l-1.6-2.9l0-5.1
		l-1.5-4.6l1.8-1.1l3.1-3.7l-2-3.3l-1.4-4l1.6-2.5l3.9-0.1l4-2.8l3.9,0.4l2.8-2.2l2.5-0.9l3.9,1.5l-0.2-6.1L987.3,581.8z
		 M889.2,682.1l0.5-1.6l1.7-1.5l-1.3-1.4l-0.8,1.7l-1.2,0.5l-0.1,2.3L889.2,682.1z M888.8,693.5l0.4,2.7l2,2.3l-0.5,4.1l-2.8,2.4
		l0.8,2.3l3.4,0.7l-0.2,1.5l-2.4,2.3l-2.3,6l1.2,2.4l0.9,7.4l2.4,3.1l1.4-0.7l1.7,1l2.7-0.8l0.7-4l1.3-2.3l3.3,0.7l1.9,2.4l2,0.2
		l1.6-2.4l0.8-6.5l0.9-1.8l0-7.2l2.1-6.2l-4.1-4.5l4.2-2.1l0.8-2.6l-0.5-4.3l-2-2.8l-2-5l-1.5,1.2l-2.8-2.8l-2.7,0l-7.3,6.9
		l-2.8-0.2l-3.7-2.9l-0.4,3.9l-1,2.5L888.8,693.5z"/>
	<path id="LOCATION_x5F_PORTUGAL" class="st0" d="M626,729.8l-0.3,4.1l-0.1,0l-1,1.4l-4.7-0.1l-5.6,2.3l-3.1-2.4l-7-3.8l-5.6,3
		l-1.2-1.2l1.6-1.8l2.5-6.5l0.8-9.4l2.2-3.9l-0.7-4.8l2.1-2.2l-4.5-0.7l-3,2.2l-1.4-1.9l0.7-3.7l5.5-1.9l-0.7-2l0.8-2.2l-3.9,1.9
		l-2,2.3l-3.6-0.4l0.2-2.6l3.6-10l5.4-6.1l0.4-3.3l4.7-5.3l0.9-5.7l2.7-4.3l2.2-2.3l-2.2-3.2l1.9-4.8l-0.5-1.8l2.5-11l-2-6.3
		l0.1-3.7l8-0.3l2.9,1.2l-0.9,3.8l1.2,2.7l6.2-2.4l9.5,3.2l3.7-2.9l8.3,2l0,4.4l3,5.5l-1.4,3.4l-2.6-0.3l-7.4,5.6l0.2,4.7l-1.8,11.2
		l-4.3,3.4l2.7,3.4l-5.3,5.8l-3-0.9l-4.4,0.5l3.6,9.2l3.8,3l-0.6,7.2l-6.3,5l2,5.4l3.8,0.7l-0.9,3.3l-4.7,3.1l-5,7.2L626,729.8z"/>
	<path id="LOCATION_x5F_GREECE" class="st0" d="M1187.5,813.6l1-1.2l2.9-0.7l1.3,0.8l-1.4,1.7c0,0-2.4,0.7-2.3,0.8L1187.5,813.6z
		 M1165,718.4l-1.5,0.4l-1.4,3.1l2,0.2l0.9,0.7l2.4-0.8l-0.1-2L1165,718.4z M1194.5,790.9l1.3,1.8l1.7,0.3l0.9-0.9l2.1-0.7l-0.2-1.4
		l-0.9-0.3l-0.7,0.6l-1.9-2l-2-0.4l-3.2,2l-0.9,1.2l1.9-0.3L1194.5,790.9z M1155.9,795.7c0.1,0,1.6-0.7,1.6-0.7l0.3-1.6l-1.6-0.6
		L1155.9,795.7z M1157.1,809.7l0.7-1.8l-2.3-0.3l-2,2.2l1.5,0.4L1157.1,809.7z M1157.7,800.4l0.3-2.3l-1.7,1L1157.7,800.4z
		 M1154.3,790.2l0.4,1.2l1.9-0.6l-1.1-1.9L1154.3,790.2z M1220.5,821.6l1.3-0.8l0.4-1.8l-2.3,0.7l-4.2,1.2l-4.2,2.7l-0.4,1.8
		l0.5,0.8l-1.1,1.8l1,1.3l1.5-0.1l1.8-1.7l2.1-1.6l1.7,0.1l0.1-1.1l1.1-1.4L1220.5,821.6z M1130.3,814.2l-0.3,1.9l1.6,1.1l1.5-2.4
		l-1.5-2.6l-0.3-2.4l-0.7,0.7l-1.2,2L1130.3,814.2z M1130.8,807.1l-0.5,1.4l1.3,0.2L1130.8,807.1z M1092.5,775.5l-0.7,1.9l2.1,2.7
		l1.9,0.7l0.6-1.1l2.1,0.6l-1.2-1.7l-1.3-2.3l-2-1.3L1092.5,775.5z M1199.9,832.9l0.8,2.3l0.2,3.6l1.1-0.4l1.7-3.2l-1.4-2.4
		l-0.2-2.2L1199.9,832.9z M1194.3,714.6l-0.3-3.9l4.9-2.3l0.8-4.3l-3.4-1.9l1.3-4.6l-2.1-0.2l-4.6,2.7l-0.7,4l1.1,3.2l-2.5,1.7
		l-7.5-1.4l-3.6,1.3l-2.9-2.1l-3.4-0.4l-2.6,1.6l-3.3-0.6l-0.2-3l-4.6-0.4l-4.2-1.3l-3.4,2.6l-4.6,0.6l-5.8-0.8l-1.7-1.1l-0.1,0.1
		l-2.4,1.7l-3.2-0.2l-4.4,2.1l-8.7-1.4l-3.9,1.6l-0.4,1.5l-5.2,1.2l-7.5,3.5l-0.1,0.4l-1.2,4.5l-3.4,4.8l-7.3,1.5l-0.7,4l-3,4.9
		l-2.4,0.9l0.3,0.3l-0.3,5.1l5.9,5.6l3,5.7l1.7,0.6l-0.6,1.6l4.1,7.5l0.6,4.9l2.2,1.2l3.4-3.3l2.3,3.6l4.1,1l2.1-2.5l2.9,0.6
		l4.4,3.3l3-1l0.2,2.5l2.3,0.1l1.7,1.7l3.7,1.1l-2.9,1.3l-2.7,2.1l-2.2-2.3l-3.1-1.2l-6.4-5.3l-3.2,0.7l-3.1,1.4l-2.9-1.8l-2.9,2.9
		l-1.9,0.3l-1.6,2.9l3.2,4.7l3.7,2.3l3.3,3.9l0.1,2.6l-1.7,1.6l-0.1,3.4l2.7,4.5l1.9,2.7l1.2-2.2l-0.6-1.8l1.7-2.9l0.8,4l4.4,2.5
		l0.8,2.7l-1,2.9l1.7,2.6l0.6-5l2.2-3.8l3,0.3l1,3.4l4.8,4.1l-1.7-3.9l0.8-2.3l-1.5-3.7l-1.8-6l-1.7-3.6l0.3-1.3l2.2,0l3.6,2.5
		l-1.4,1.3l1,1.5l2.3-1.9l3.9,1.8l0.3-1.3l-1.5-1.4l-0.2-1.5l-1.4-0.6l-2.7-2.2l0.5-1.7l-3.2-3.1l3.5-1.1l3.1,0.5l2.1-1.4l4.4,3.9
		l0.4,1.5l3.3,0.8l1.2-1.9l-2.4-4.6l1.3-3.9l-0.9-2.4l-7.6-6l-2.5-0.9l-1-2.1l-2.3-0.1l-1.3-2l-3.4-0.8l-3.1-3.5l3.8-0.1l2.4-2.3
		l0.1-1.9l-3.4-1.3l2.2-2.2l0.1-2l2.6,1.3l2,2l-1.1,1.8l0.1,1.9l2-0.2l1.7-4l-2-3.1l-4.6-7.2l-2.1-2l-0.3-2.5l-3.7-3.9l1.7-1.7
		l0.1-7l2.7-3.3l4.4-0.5l0.1,3.5l-2-0.2l0.2,1.9l5.2,3.2l0,4.3l3.2,3.2l3.9,0.3l-2.6-2.2l-1.2-2.8l0.8-2.3l3.5,1.6l2.4,4.2l2.3,1.2
		l1.6-2.1l-2.4-2.3l-2.3-1.2l0.4-2l6.5,1l2.1,2.7l1.2-1.1l-3.3-3.9l-3.8-1l-2.8-4.1l2.1-1.9l3.3,1.5l3-1.3l1.9-4.5l2.6-0.6l3.5,3.4
		l2.9,0.6l3.6-3l0.3-1.7l1.5,0.2l2.1,3.1l7.2,0.8l5.2,2l4-0.5L1194.3,714.6z M1203.2,829.3l0.2-1.7l-1.1,1.5l0.4,0.8L1203.2,829.3z
		 M1134.4,755.7l-2.7,1.9l1.5,0.5l3.1,0.2l1.5,1.6l0.6,1.2l1.5,0.9l1.2,2.1l2.1,0.8l1.1,2.3l3,2.1l2.3,0.1l0.7,1.6l1.8,3.6l1.3,1.5
		l-0.5,1.9l0.8,1.9l2.4,2l1.6-0.7l1.6,1.1l1.7-3.4l-3.1-0.7l-1.1,0.6l-2.1-2.6l0.6-2.6l-0.3-1.9l0.1-1.5l-1.2-2.9l-3.7-4.7l-0.5,0.5
		l-2.3-0.4l-0.3-0.7l-2.8-1.9l-2.9-1.5l-2.3-3.2L1134.4,755.7z M1193.6,752.8l-3.8,0.1l-2,1l-4.1,0.9l-1.9,2.5l2.4,2.5l1.1,0.3
		l1.7-0.2l0.6-2.1l1.1-1.9l2.6,0.2l-0.5,2.2l-1.6,1l-1.1,1.3l2.3,1.4l3.6,0.2l0.5-3.7l-0.3-2.6l-0.8-0.2l0.9-1.9L1193.6,752.8z
		 M1182.8,777l1.8,1.7l2.6-0.9l1-2.8l-0.3-4.4l-0.7-0.9l-2.1-1.1l-2.2,0.9l-0.1,1.1l2.1,2l-0.2,2.6l-1.7,0.5L1182.8,777z
		 M1146.7,755.5l-0.3-2.3l-1.8-0.9l-1.1,0.2l2.5,4.1L1146.7,755.5z M1173.8,803.5l1.7,0.3l1.8-1.9l-0.2-1.9l-1.5-0.5l-2.7,1.9
		L1173.8,803.5z M1094.8,759.8l1.2-1.2l-0.1-3.1l-1.2,0.1l-1.9,2.7l0.1,1.2l0.9,0.5L1094.8,759.8z M1141.7,751.4l-1.4,0.8l1,1.7
		l1.1-1.6L1141.7,751.4z M1088.7,765.2l-0.4,3.7l1.4,1.8l1-0.9l0.3-1.8l0.7,1l-0.2,2l2.4,0.6l2,1.4l1.3-1.6l-0.6-1l-0.2-1.7
		l-1.4-1.8l0.6-1.4l-0.8-2.6l-1.8-1.9l-0.5,4.3l-1.5-0.4L1088.7,765.2z M1080.5,731.6l-3.2,0.8l0.1,1.8l1.8,1l0.1,1l2.7,3.7l2.7,1.7
		l0.9-0.5l-0.3-1.3l-2.2-1.1l-1.7-2.5l0.5-3.4L1080.5,731.6z M1187.4,793.4l0.8-1.7l-3.8,0.3l-0.7,1.9l1,1.6L1187.4,793.4z
		 M1168,802.2l1.4,1.5l1.9-2.2l-0.6-1.9l-1.7-0.2L1168,802.2z M1174.2,736.3l-1.1-1.2l-2.8-0.3l-1,1.2l0.5,2.8l1.4,1.5l1.5-0.1
		l1.9,1.1l0.8-3.3l2.4-2.1l-1.7-1.2L1174.2,736.3z M1162.4,759.9l-1.3-1.8l-1.3,0.3l1.5,3.1l0.9,0.4l0.7,2.1l1.2-0.3l0-3
		L1162.4,759.9z M1173.7,795.6l1.7-0.8l-1.5-0.6L1173.7,795.6z M1169.1,790.6l1.3,1.8l1.9,1.1l-0.1-1.7l-1.3-1.6L1169.1,790.6z
		 M1162.2,782.8l-1.1,1.4l1.4,1.5l3.3,4.1l1.5,0.2l0.3-1.9l-2.7-3l-1.1-2.3L1162.2,782.8z M1141.5,827.7l-0.5,2.5l-1.4,2.1l0,2.7
		l2.4,1.4l6-0.1l2.3,0.9l2.5-0.5l3.4,1.4l3.6,2.7l0.2,2.3l4.4,0.3l3.9-1.9l4,0.9l6.5,0.6l4.5,0.6l2.7-1.3l1.4-2.4l-0.3-2.5l0.2-1.5
		l-1.1,1.3l-0.3,1.8l-2.4,1.6l-1.4-1.5l-1.9,0.5l-1.8-0.5l0.6-1.6l-0.6-2.4l-1.7-0.1l-4.7-1.2l-3.6-2.1l-5-0.4l-4.4,2.1l-3.3,0.5
		l-2.5-1.7l-1.1-1.6l-2.1,0.1l1.6-1.2l-1-2.3l-2.8-0.1l0.4,1.4l0.9,0.4l-1.1,0.8l-2.6-0.2l-0.3-2.7l-0.8-0.4l-0.5,1.4l0.2,1.8
		l-1.4,0.3L1141.5,827.7z M1212.4,814.5l-1.4,1.1l1.5,0.7l1.6-0.3l-0.2-1.3L1212.4,814.5z"/>
	<polygon id="LOCATION_x5F_SLOVENIA" class="st0" points="995.5,597.1 999.2,596.5 1005.5,600.4 1009.2,600.5 1010.9,594.5 
		1016.9,592.3 1018.2,587.8 1029.6,583.4 1037.3,584.3 1037.3,577.6 1033.4,572 1028.9,572.9 1020.7,576.3 1018.8,575.9 
		1016.2,575.9 1012,577.3 1008.1,576.9 1003.7,578 1001.7,575 993.8,574.1 991,573.5 986.3,578.9 987.2,581.9 984.5,585.2 
		984.7,591.3 984.9,591.4 988.2,593.4 987.8,595.9 984.8,596.3 984.3,599.5 990.6,599.9 	"/>
</g>
<g id="NAMES">
	<g id="NAME_x5F_ITALY">
		
			<rect x="967.3" y="701.2" transform="matrix(0.9968 -7.949034e-02 7.949034e-02 0.9968 -53.3568 82.0396)" width="72.8" height="20"/>
		<text transform="matrix(0.9968 -7.949000e-02 7.949000e-02 0.9968 985.1794 717.6174)" class="st1 st2 st3">ITALY</text>
	</g>
	<g id="NAME_x5F_GREECE">
		
			<rect x="1173.1" y="746.8" transform="matrix(0.9968 -7.949034e-02 7.949034e-02 0.9968 -56.2939 99.5817)" width="99.1" height="20"/>
		<text transform="matrix(0.9968 -7.949000e-02 7.949000e-02 0.9968 1193.5875 764.4257)" class="st1 st2 st3">GREECE</text>
	</g>
	<g id="NAME_x5F_FRANCE">
		
			<rect x="688" y="560.3" transform="matrix(0.9968 -7.949034e-02 7.949034e-02 0.9968 -43.0044 60.4315)" width="99.1" height="20"/>
		<text transform="matrix(0.9968 -7.949000e-02 7.949000e-02 0.9968 707.1391 577.7495)" class="st1 st2 st3">FRANCE</text>
	</g>
	<g id="NAME_x5F_PORTUGAL">
		
			<rect x="617.7" y="682.6" transform="matrix(0.9968 -7.949034e-02 7.949034e-02 0.9968 -52.9129 56.1042)" width="121.1" height="20"/>
		<text transform="matrix(0.9968 -7.949000e-02 7.949000e-02 0.9968 637.1722 700.8375)" class="st1 st2 st3">PORTUGAL</text>
	</g>
	<g id="NAME_x5F_SWITZERLAND_1_">
		
			<rect x="899.1" y="544.2" transform="matrix(0.9968 -7.949034e-02 7.949034e-02 0.9968 -40.9643 79.3374)" width="153.9" height="20"/>
		<text transform="matrix(0.9968 -7.949000e-02 7.949000e-02 0.9968 922.0701 563.6605)" class="st1 st2 st3">SWITZERLAND</text>
	</g>
	<g id="NAME_x5F_GERMANY">
		
			<rect x="903.7" y="478.7" transform="matrix(0.9968 -7.949034e-02 7.949034e-02 0.9968 -35.8014 78.0363)" width="117.2" height="20"/>
		<text transform="matrix(0.9968 -7.949000e-02 7.949000e-02 0.9968 924.8331 497.2121)" class="st1 st2 st3">GERMANY</text>
	</g>
	<g id="NAME_x5F_UK">
		
			<rect x="621.6" y="386.8" transform="matrix(0.9968 -7.949034e-02 7.949034e-02 0.9968 -29.2932 57.7897)" width="179.3" height="20"/>
		<text transform="matrix(0.9589 -7.806236e-02 7.790000e-02 0.997 645.9724 407.9398)" class="st1 st2 st4">UNITED KINGDOM</text>
	</g>
	<g id="NAME_x5F_NETHERLANDS">
		
			<rect x="826.9" y="384" transform="matrix(0.9968 -7.949034e-02 7.949034e-02 0.9968 -28.4622 73.0947)" width="153.9" height="20"/>
		<text transform="matrix(0.9968 -7.949000e-02 7.949000e-02 0.9968 847.6413 404.0255)" class="st1 st2 st3">NETHERLANDS</text>
	</g>
	<g id="NAME_x5F_DENMARK">
		
			<rect x="880.8" y="300.9" transform="matrix(0.9968 -7.949034e-02 7.949034e-02 0.9968 -21.7458 75.6503)" width="116.9" height="20"/>
		<text transform="matrix(0.9968 -7.949000e-02 7.949000e-02 0.9968 904.3206 319.4059)" class="st1 st2 st3">DENMARK</text>
	</g>
	<g id="NAME_x5F_KUWAIT">
		
			<rect x="1352.2" y="346.3" transform="matrix(0.9968 -7.949034e-02 7.949034e-02 0.9968 -23.7797 111.8906)" width="82.7" height="16.7"/>
		<text transform="matrix(0.9968 -7.949000e-02 7.949000e-02 0.9968 1370.3148 361.0201)" class="st1 st2 st5">KUWAIT</text>
	</g>
	<g id="NAME_x5F_SAUDI_x5F_ARABIA">
		
			<rect x="1265.1" y="450.8" transform="matrix(0.9968 -7.949034e-02 7.949034e-02 0.9968 -32.3239 106.3978)" width="110.2" height="16.7"/>
		<text transform="matrix(0.9968 -7.949000e-02 7.949000e-02 0.9968 1278.3124 467.0316)" class="st1 st2 st5">SAUDI ARABIA</text>
	</g>
	<g id="NAME_x5F_NEW_x5F_ZEALAND">
		
			<rect x="1644.4" y="682.1" transform="matrix(0.9968 -7.999274e-02 7.999274e-02 0.9968 -49.8441 140.066)" width="157.7" height="20"/>
		<text transform="matrix(0.9589 -7.806236e-02 7.790000e-02 0.997 1668.7759 702.4393)" class="st1 st2 st4">NEW ZEALAND</text>
	</g>
	<g id="NAME_x5F_AUSTRALIA">
		
			<rect x="1539.4" y="562.9" transform="matrix(0.9968 -7.949034e-02 7.949034e-02 0.9968 -40.6955 131.2346)" width="177.2" height="27.8"/>
		<text transform="matrix(0.9968 -7.949000e-02 7.949000e-02 0.9968 1572.5188 588.7347)" class="st1 st2 st6">AUSTRALIA</text>
	</g>
	<g id="NAME_x5F_USA">
		<polygon points="441.3,400.1 357.6,406.6 360.2,438.9 443.9,432.4 		"/>
		<text transform="matrix(0.9589 -7.806317e-02 7.790000e-02 0.997 376.926 430.5301)" class="st1 st2 st7">USA</text>
	</g>
	<g id="NAME_x5F_SWITZERLAND">
		
			<rect x="990.6" y="599.8" transform="matrix(0.9996 -2.718240e-02 2.718240e-02 0.9996 -16.192 28.5284)" width="101.2" height="20"/>
		<text transform="matrix(0.9996 -2.718000e-02 2.718000e-02 0.9996 1005.6057 615.9282)" class="st1 st2 st3">SLOVENIA</text>
	</g>
	<g id="NAME_x5F_SWEDEN_1_">
		
			<rect x="926.5" y="194.7" transform="matrix(0.9968 -7.949026e-02 7.949026e-02 0.9968 -13.1451 78.3085)" width="101" height="19.2"/>
		<text transform="matrix(0.9968 -7.949000e-02 7.949000e-02 0.9968 942.7448 212.8183)" class="st1 st2 st8">SWEDEN</text>
	</g>
	<polygon class="st0" points="828.7,460.4 828.9,463.4 833.4,468 835.6,468.2 837.6,470.2 839.9,471.6 839.6,476.5 843,478.8 
		845.1,477.8 847.3,478 848.6,480 850.8,480.7 854.3,486.3 857.8,486.9 860.7,489.6 862.4,488.8 864.9,489.1 865.2,489.1 
		866.8,492.6 871.2,494 873.7,493.7 874.7,488.1 873,486.2 872.7,482.3 869.1,476.6 867.9,476.5 870.5,471.9 868.7,468.4 
		869.1,466.2 867.1,460.4 868.5,458 868.1,457.8 865.2,456.5 865.6,454.3 864.4,451.2 859.6,450.9 858.3,448.3 855.2,448 
		853.4,445.7 847.5,444.9 846.1,447.3 843.6,447.3 842.7,448.3 839.3,448.6 837.2,450.3 830.6,450.1 824.7,452.2 824.8,458.4 	"/>
	<g id="NETHERLANDS_2_">
		
			<rect x="796.2" y="446.4" transform="matrix(0.9968 -7.949034e-02 7.949034e-02 0.9968 -33.6144 68.5036)" width="94.8" height="20"/>
		<text transform="matrix(0.9968 -7.949000e-02 7.949000e-02 0.9968 808.9398 464.4748)" class="st1 st9 st3">BELGIUM</text>
	</g>
</g>
</svg>
