<svg id="GAMEOVER_MAP" style="font-weight: 600" xmlns="http://www.w3.org/2000/svg" viewBox="0 0 960 1920"><g id="SWEDEN"><polygon points="546.71 337.94 543.92 338.3 543.32 341.26 545.49 341.4 546.71 337.94" fill="#da1a35"/><polygon points="673.61 316.04 674.24 310.88 678.73 307.69 679.19 304.28 674.18 303.74 669.52 309.22 672.09 314.49 673.61 316.04" fill="#da1a35"/><polygon points="769.33 141.74 766.53 133.63 761.71 141.37 760.24 135.09 761.94 132.21 762.83 124.03 762.26 120.75 762.67 126.92 762.11 119.25 760.13 115.58 760.07 109.73 762.38 106.83 761.62 101.83 756.12 100.84 756.12 96.62 758.53 92.04 758.06 85.83 758.99 91.76 757.34 88.52 754.51 87.89 751.41 82.5 749.85 82.8 748.06 82.3 746.98 78.2 742.37 82.6 739.57 81.52 736.59 79.21 728.49 77.72 723.5 73.04 717 63.61 711.86 60.29 708.88 55.82 707.23 56.42 702.43 56.82 697.76 54.79 697.6 59.05 700.74 61.23 701.31 65.73 697.79 67.18 696.47 73.63 698.38 77.2 697.82 82.35 696 80.93 693.78 81.46 691.3 78.89 686.52 77.91 682.58 74.58 675.82 72 671.02 73.93 664.99 73.12 662.72 74.25 665.47 79.92 664.17 82.06 663.92 84.34 661.24 86.35 663.34 91.02 659.85 93.54 657.08 93.71 655.36 91.22 650.89 88.59 646.15 91.44 643.25 88.53 640.2 89.73 638.43 94.74 635.48 97.95 632.62 99.02 632.75 99.18 634.88 102.17 637.51 99.1 635 103.71 628.22 111.25 622.4 111.23 621.64 115.44 618.01 117.96 610.72 118.7 603.64 121.91 603.02 126.14 605.72 129.5 605.22 135.56 602.52 140.62 599.36 149.93 597.97 159.89 588.97 176.53 589.14 172.12 590.77 175.5 591.55 173.9 587.38 178.5 580.31 177.27 574.85 175.46 570 177.7 564.41 185.51 563.94 175.66 564.75 186.63 564.76 197.8 563.28 194.59 564.91 200.59 565.07 209.17 562.86 216.75 562.3 224.65 568.03 228.33 574.43 237.15 571.94 241.62 571.06 248.42 561.18 250.56 560.49 254.01 563.6 262.15 565.11 262.32 567.67 266.89 563.94 273.07 563.77 277.5 561.61 280.47 555.03 280.37 553.41 282.65 555.07 287.12 552.02 288.32 549.97 291.77 552.53 297.71 552.02 310.83 549.29 314.82 547.34 310.32 544.95 308.27 544.56 308.68 541.11 310.22 540.92 319.34 542.33 321.97 541.98 328.83 544.81 330.74 545.76 332.44 544.63 336.81 549.45 335.33 546.92 332.01 547.82 328.81 549.8 329.12 548.63 331.08 551.89 333.51 552.76 335.85 548.19 338.88 547.1 342.13 548.02 345.5 546.98 350.04 544.84 351.82 546.86 355.49 550.24 356.74 551.74 362.39 553.47 364.19 556.44 372.39 556.27 378.32 560.38 380.52 561.05 384.63 564.6 389.03 569.32 386.97 570.04 392.19 566.4 397.58 561.08 397.65 560.05 399.79 562.73 401.85 562.94 405.73 567.1 407.47 567.95 417.52 565.14 421.08 567.14 423.39 571.27 423.84 582.23 422.13 587.26 424.6 591.8 421.25 591.84 417.86 589.68 415.55 593.29 409.03 599.89 408.93 602.04 402.41 602.83 405.56 610.31 407.66 615.19 405.61 618.82 407.77 620.75 410.87 625.95 405.81 628.28 397.7 631.99 394.57 633.91 384.33 636.17 381.21 632.87 377.63 633.81 373.39 637.74 369.8 634.87 365.15 638.88 362.22 634.59 358.85 637.05 355.42 634.94 351.17 639.36 353.42 644.37 353 640.38 348.39 643.12 343.87 643.09 341.27 637.13 338.39 644.95 338.92 641.28 334.19 637.83 333.31 640.54 330.71 642.75 330.95 643.29 331.98 645.91 330.02 646.05 327.3 649.24 330.38 650.19 326.14 653.39 323.27 656.29 323.26 655.95 320.5 657.78 318.45 658.99 320.51 657.8 324.24 660.16 324.65 664.43 319.49 667.28 319.8 670.39 317.73 670.35 313.7 668.05 311.2 663.11 309.22 659.25 310.88 657.28 309.7 653.74 311.25 651.44 307.31 647.07 306.03 644.56 303.99 638.97 303.54 638.28 305.56 636.82 304.11 630.55 302.8 630.55 301.18 633.72 300.24 637.01 302.37 640.47 298.72 642.03 300.66 645.32 300.05 647.03 297.51 650.61 298.7 652.15 300.79 654.71 300.91 655.13 298.39 656.97 300.68 661.56 302.94 660.79 305.59 664.07 307.87 669.95 307.08 671.84 302.93 677.7 297.79 681.1 291.72 677.39 287.3 677.73 284.13 671.96 279.8 673.32 277.54 665.43 280.53 664.88 276.77 662.26 274.08 658.14 278.13 656.32 274.08 654.12 275.13 654.55 271.16 651.77 270.21 650.04 266.8 647.94 264 651.19 260.67 649.46 255.82 651.51 254.91 651.78 252.37 648.73 250.75 652.35 247.13 651.75 240.8 652.85 239.63 655.28 242.29 656.2 238.22 653.4 234.54 655.17 228.47 654.9 223.6 656.17 222.15 656.16 216.86 652 210.23 655.19 211.78 661.41 211.41 665.37 206.72 664.05 202.9 665.41 200.8 668.96 202.15 675.2 197.85 675.79 195.5 673.01 194.56 674.64 191.19 677.82 188.64 679.33 191.06 681.28 190.79 682.88 186.46 684.62 186.65 686.08 189.54 689.21 187.31 689.73 182.55 692.11 178.47 695.28 178.81 695.42 181.87 697.95 182.31 700.49 178.24 705.89 175.93 703.67 181.49 704.71 177.9 706.63 181 711.36 177.33 714.03 177.79 718.93 171.25 718 173.88 721.42 170.54 724.13 170.68 727.79 175.42 724.78 175.1 722.77 171.5 725.4 170.82 724.42 167.98 721.16 166.99 717.38 163.36 722.56 162.96 721.94 159.84 724.24 162.34 725.77 160.09 724.02 157.32 721.5 156.97 718.97 163.3 720.47 161.94 722.87 163.49 723.59 165 725.24 164.69 725.73 162.28 722.04 160.11 725.4 158.69 728.94 159.33 732.77 156.53 730.2 154.34 728.14 148.98 730.82 150.24 732.46 152.75 735.63 152.36 737.42 149.19 738.32 145.22 740.73 143.72 742.76 148.61 746.55 144.83 747.77 148.5 751.11 150.3 753.22 147 756.37 149.27 761.62 146.63 763.7 149.74 767.63 150.49 770.55 148.88 770.7 149.09 771.4 144.53 769.33 141.74" fill="#da1a35"/><polygon points="668.48 383.1 670.22 382.68 668.84 386.07 666.09 388.84 666.28 390.72 671.27 389.88 672.53 387.47 671.21 386.24 672.25 383.75 677.5 380.47 678.41 377.8 681.84 374.49 681.59 372.54 678.91 369.56 680.98 366.18 681.68 363.88 683.6 362.46 681.33 360.92 678.98 361.96 674.51 361.39 671.32 364.65 668.95 368.18 665.82 370.83 666.6 375.76 664.97 376.57 668.48 383.1" fill="#da1a35"/><polygon points="636.33 388.69 633.59 399.88 633.77 403.88 633.46 406.75 634.66 408.27 636.57 404.79 639.57 398.37 641.09 391.5 643.97 384.61 645.4 378.49 643.39 375.82 640.4 379.48 640.81 381.36 638.78 387.42 636.33 388.69" fill="#da1a35"/><polygon points="684.27 359.85 685.49 361.98 688.01 360.02 691.83 359.37 691.08 357.81 686.75 357.5 684.27 359.85" fill="#da1a35"/><polygon points="684.79 340.23 686.15 343.91 688.65 341.42 686.65 339.35 684.79 340.23" fill="#da1a35"/></g><path id="NEDERLANDS" d="M376.56,523.83l-2.6-.46,4.08-1.25,1.42,2.58-2.26.32Zm3.22-3.39.52,1.43,2.22.77,1-1-3.95-2.16-3.13-.45.54,2ZM369.94,535l3.39.39,2,2.68,2.69-2.14,4.29-.32,1.13-1.35,3.27,0,1.67-3.08,7.58,1,2.27,2.88,3.88.45,1.74,3.31,6,.36,1.59,3.94-.57,2.81,3.66,1.63,2.44-4.7,2.32-7.28-.57-6.67,3.31-3.21,3.26-4.21,6.13-.77,5.52,2,3.43-1.42-1.94-4.47,3.15-1.77,1.2-4.77,1.62-2.6-2-2.37-5.5-.46-.31-3,2.44-4.14,4.43,2.64,3.19-2.09.58-4.38,2.23-3.69.6-2.47,1.47-1.49.23-.94-4.15-1.87-3-3.44-5.9-3.95-6.72.26-4.29,2.95-3.57-2-2.53,1.26-5.45-.46-5.73,5-8.63,3.46-1.56-1.38-5,1.32-.79,5.4-4.8,2.88.76,5.42-1.57,4.63-2.31,3.67-1.83,2.55L381,513.21l-.22,3.42,4.56,5.16,4.41,1.88-5.08-.58-2.6,1.76L380.36,526l1.73,2.79,2.51.63-.09,2.22-4.09-.29L377.15,527l-3.69-2.31-3.9,1.11,1.12,2.18,3.52.75,2.87,3.42,1.24-.37,3.91,3.36-3.88-2-2.57-.14-5.87-2.73-3.9-.45-.17.12,2.38,1.48Z" fill="#d71a35" stroke="#000" stroke-miterlimit="10" stroke-width="0.05"/><path id="DENMARK" d="M525.69,430.24l0-.14m24,9.26.52,1.79,2.37-2.69,3.06-.22-.37-2.5-3.39,1Zm-16.4-21.91,1.43,3-.75,4.59,2.21,3.45,2.84.33,5,2,.57,2.12L542.47,435l1.44,2.54,3.42.22,2-2.18.19-3.08,4.91-1.4,2.5-1.85-.5-2.82-3.72-3.22.19-1.61,4.93-1.73,2.08-5.16.07-4.89-.88-3.86-5.19-.35-6.07.77-2.56,3.73,1.31,2.12,3.2,2.76-.58,2.31-2.27-.85-1.11,1-3.72-3.21.08-2.12-1.8-2.92-2.27,1.23-2.17,3.18-2.77.52Zm27.56-.49-2.15,4.51,3,1.32Zm49.63,24.72L607.38,435l-3.76-2.89-1.81,5.77.65,4.27,6.84,3.25ZM524,429.25l-.71-3.68-2.19-6.63-3.1.14-4.56-3.15-6.93.52-1.61,5.37,1.71,5.11,3.69,4.83,3.66.92,2.26,1.9,4.44-.32Zm6.05,12.62-2.63.68,1.49,2.71,6.13,2.93,6.39.16,2.5-2.51.74,3.53,1,.7.31-3.58,2.48-3.65-.36-3.25-.89.56-3.63-.59-1.84,3.24-2.26-.26-3,.57-3.45-6.31-2.23.32-2.11,2.63Zm39.21,14.51-1.42,3.13,1.11,1.67,4.36,2.07,3.35-3.64,2.59,1.13.55-2-1.55-3.62,1.4-3.6-3.23-1-1.64.63-1.35-1.06-3.5.5-.08,2.79,3.45.72-1.1,1Zm-38.37-94,3.33.29,3.94-2.24-4.84-.56Zm-42.25,11.9-.12,4.67,2.38-.81,4-3.65,1-2.83-3.58-.17Zm36.42,64.45,3.16-4.88s-2.43-2.9-2.55-3.58l-1.8,6-2.2,3.34.57,2.2Zm2.8-92.75-6.65,5.29-6,1.93-4.07,0-3.25,3.87L505.1,362l-4.71,2.57-4.84-.56-6.17,3.88-1.49-1.32-3.25-.22-2,4.68-3.79,3,1.9,2,2.06-.89,4.07,5.85-.29-5.93,1.31-2.94,8-3.84.88.93,3.79-.22,4.73,1.51,3.36-.76,4.35.5,3.54,2,2.55-.84,5.25-7.09-.45-4.79,1-1.84-.46-4.65,3.89-5.43Zm-10.22,94,1.78-1.26-4.72-2.43Zm6.4-30.7-1-5.93-.79,6.07-2.56,3.24,3.56-.34ZM493.8,435l2.3,1.4,4-.23-.21-.29,1.5-2.57-2.71-3.4-1.7-.2.52-3,2.8-1.91.74-3.35L499,420.16l.5-3,9.15-3.41L507,412l3.64-3.19,1.72,1.4,4.78-1.17.52-6.12L516,398.61l3-2.41,4-.06,2.35,3.36,1.66-1,1.62.87,1.77-2,1.79-3.58-3.42-4.69-2.39,1.45-5.24-.77-2.23-3-2-3.84-2.14-.76L517,380l.52-4.57L513.61,372l-6.68-.25L503.54,373l-3.49-.91-1.88,1.33,3.15,5.51-1.22,1.58,3,4.81-.49,1.32-3.24-1.75-3.82.41-.44-2.1,2.67-2.27-1.89-4.51-1.19-.14-4.12,4.51,1.7,3.11-4.58,2.57-2.23-3.18-3.71-.42-2.39-1.66L476,384l4.33,4.1-.49,4.24-2.62-2.54-1.92.3.2,5.7,2.86,2-.59,5.09,2.25,2.84L473.59,408l-3.29,6.14,2.32,2.33,4-1.61,4.55,5.17.24,6.88-2,1,.54,3.55,5.92.39Z" fill="#d71a35" stroke="#000" stroke-miterlimit="10" stroke-width="0.05"/><path id="FRANCE" d="M431.18,749.72l1,5-.82,0-15.29,8.89-4.46,4.47.6,2.31-4.64,3.07-9.95-1.66-3.35-3.65-12.59-10-3.25,0-3.71,2.32L371,760l-5.06-3.84-5-1.28-2.32-2.14-2.57-.13L347.27,760l-5.59,4-.95,3.66-2.56,7.44.94,6.63v2.18l-2.71-1.26-6.91-5.38-10.6-.23-6.05-4.29-6.21-.06L303,770.17l-10.21-.84-4.34,3.58-2.88-2-6.16-.54L275,764.67l-4.76,1.58-3.68-5-8.48-4.56-6.7,0,1.05-3.48-.27-4.78-2.69-.8-.35-1.18-3.61-2.58,5.53-2.48,5.58-12.75,2.93-15.11,3.15-1.88-3.29-2.78.77-8.15,3.48-10.93,2.38-1.28,4.31,2.9.89,5.59,5.13,6.26L272.57,690l-6.18-6-3.62-1.26,1.45-3.79,1.08-.4,2.2-4.21-1.66-3.44.62-3.89-4.9-3.65-5.33-1.47-4.8-7.59-3.66-.94-.52-3,2.46-3.49-.34-4.51L247.12,641l2.94-3.28,4.09.3,3.34,2.45L255,636.29l-4.51-1L246,637.47,243.3,637l-1.67-3.45,2.19-4.21-1.94-2.46-4,1.78-1-1.66,1.13-2.45-2.14-.77L232,626.59l-4.55-3.79-2.88-.33-1.24-2.71-6.78-3.7-2.78.19L210.62,615l-4.93,2.52.82-2.65L205.36,610l-3.9-.44,0-1.21,4.24-1.06,2.66-.72-.34-3-2.6-1.32-1.73,3.07-1-4.42,2.58,0,4.15,1.34-.85-1.64-3.76-1.64-4.05.9-1.37-3.07,3.46-3.2,6.84.27,3.21-2.56,4.64,0,2,1.78,2.81-2.07,2.06,1.43,4.68-3.42,5.4-.57,3.43,1.59,5.32,9,5.37-3.5,1.35,1.69,4-.57,3.12,1.23,3.52-.81,7.68,1.91-.06-3.94-2-3.33,1.23-3.29-.62-3.51,1.61-2-6.65-7.81,1.09-2.11-.94-5.26,2.26,1.29,5.23.78,3.88-.93,3.36,2.1-1.76,3.4,2.62,2.54,1,3.2,3.44-1.49,3.66,2.49,8.68,2.19,6.59-.62,5.69-3.12-3.75-1.8-1.21-2.88,2.48-3.67,9-3.6L317,569.4l3.74.26,7.36-1.21.31-2.71,7.16-5.54,2.32-8.14-.43-5.37,2-4.23,6.87-3,1.69,1.74,8.27-1.8.81-1.15,2.37,2.2.07,7.86,4.94,2.53.38,3.8,5.7,5.89,2.77.15,2.48,2.59,2.91,1.79-.38,6.18,4.4,3,2.61-1.34,2.75.32,1.66,2.48,2.84,1,4.43,7.06,4.49.85,3.69,3.36,2.08-1.06,3.23.38.33,0,2.09,4.5,5.54,1.77,3.32-.44,3.82,3.71-.32,2.75,3.51,3.68,3.86-.86,3.88.44,2.77,1.45,4.19-.82,5,3,4.21.48,4,3.4L451.2,615l-3.2,6.52-.38,3.38-3.4,2.56-3.16,7.49-.42,6.5,3.59,2.84,1.6,4.61-7.52,1.43-4-.95-1-3.07-5.2-.25-3.3,3.22,4.4,2.94.31,4.3-4.24,1.31-5,5.16-3.54.9-6.87,8.54L408.18,679l-.43,4.37-2.64-.46-2.73,1,.08,3.61,4.78,1L413,687l-1.47-5.74,3.38-2.38,6.59,1.07,1.77,4.47,1,5.67,2.34,2.39.27,3.84-.34-.17-2.2,2,0,5.57,3.76,4.36-2.16,7.3-5.25,0-3.63,3.18,4.83,6.47-.37,11.74,6.55,5.68,6.79.78Zm17,49.9.47,3.31,3,2.06-.2,1.69-1.8.83,1.09,2.37,2.86,2-.53,3,1.54.18,1,2.17-1.67-.54-1.8,2.21.95,2.17,6.45,3.66,4.49-1.55,3.16-6.84.5-5.79,3.92-10-1.35-9.25,1.16-5.71-.44-6.58-2.2-.25-1.3,3.8,1,3-1.14,4-1.69-.19-2.39-3.2-3,2.4-7.05,1.6-3.69,5.06,2.29,2.67-1.09,1.94Z" fill="#d71a35" stroke="#000" stroke-miterlimit="10" stroke-width="0.05"/><path id="GERMANY" d="M451.5,486.26l.23-.94.41.2-.54-4.35-4.8-1.41-1.59-4.14,1.36-4.31,10.31-1.56,3-1,4.51,4.12-.58,5.07,3.23,4.85,2.47-2.13-1.59-4.12.37-3.22,2.13-.62,2.9,3.25-.93,5,4.28,6.16-1.55-4.47.56-6.45-.42-3.83,3.23-4.09,3.62-.26,3.35,2.26,4.95-1.31,6.19,8.57,9.49,3-8.79-4.91-6.19-8.16-5.38-1-2.83-2.2.37-3.22,3.86-2.31-3.79-3,.61-5.25-4.1,1.25.3-3.92,3.73.43,4.23-1.06-4.38-5.13.71-3.19-2.36-.44-2.82-2.38.78-3.68-.15-1,5.92.39,8,3.21,2.3,1.4,4-.23,3.79,5.16,4.36,1-3,4.82-2.45,1.95.89,2.67,3.44,1.43.92,3.9,3.75-2.14,1.45-2.22,2.26-1,1.43,2.56,5.18,4.7,1.37-1.46,3.87-2.38,1.67,1.21-.35,3.82-3.37,3.2-2.65-.74-4.28,2.26,5.46,2.34,2.12-.69,4,.87,1.16,2.63,4.7.1L537,467l3.63-3.94,8.36-.33.46-2L554.2,459l.78-2.23,2.07-.79,5.76,1.27-4.87,1.31-1.89,1.61-.69-.69-2.59,2.08,1.5,1.89,5-2.7,5,.06,2.14-.78,1.26,2.55,3.8,1.13,5,6.22,4.68-.32,2.1,4.18-1.34,4.15,3.7,3.69,3.78-.08,2.44,2.69,4.09.24L597,494.79l-1.51,7.36-6.66,2.5-.35,3.07,6.08,8.23-1.32,4.43L596,525l-.39,3.39,1.39,4.89-2.23,3.67,3,9.67,2.79,2,2.28,3.79-1.06,11.95-1.45,1.81-1,1.26-3-2L593.15,567l-6.77-2.42-.46,4-4,1.84-3.13-1.18-7.46-.69L568.53,572l-4.87-.38-4.93,4.49-3.91-.11-8.75,6.36-3.51-2.21-1.94-2-2.12,1.23-.13,3.36,5.49,4.23,3.86,7.83-1,5.39.84,3.47,4.08,2.94,7.1,6.14,4,3.42,7.79,11.4-.05.15-1.24,4-.28,4.48-3.56-.41-3.1,4.16-5.45,2-6.85,6.89-.34,2.9L554.9,655l.15,4.27-2.44,1.36L548,657.15l-5.18.89-5-2.06-3.6.07-7.65,3.87-4,.37-3.42-1.54-4,.54-3-2.5-6-1.67-6.06.13.12,3.12L498.54,660l-5.48-2.1-2.68-3.75-4.18,1-2.74,1-1.16-.11-2.07-1.77-5.63-5.23-3.05-.51-2.49,1.83-2.65-1.11-1.12-4.55-4.71,1.1.17,2.8-1.93,2.56-5.26-2.59-4.3,1.81-3.55-1.51.12,0-1.6-4.61-3.59-2.84.42-6.5,3.16-7.49,3.4-2.56.38-3.38,3.2-6.52,5.61-4.59-4-3.4-4.21-.48-5-3-4.19.82-2.77-1.45-3.88-.44-3.86.86-3.51-3.68.32-2.75-3.82-3.71h-.1L423,586l-2.18-2.38-.41-4.95-4.56-7.25-1.46-.16,3.3-5.84L415.37,561l.47-2.74-2.58-7.34,1.82-3.06-.54-.23,2.44-4.7,2.32-7.28-.57-6.67,3.31-3.21,3.26-4.21,6.13-.77,5.52,2,3.43-1.42-1.94-4.47,3.15-1.77,1.2-4.77,1.62-2.6-2-2.37-5.5-.46-.31-3,2.44-4.14,4.43,2.64,3.19-2.09.58-4.38,2.23-3.69.6-2.47Z" fill="#d71a35" stroke="#000" stroke-miterlimit="10" stroke-width="0.05"/><path id="SWITZERLAND" d="M505.64,673.89l-5,4.85,1.45,7.38-8.95.93-1.95,8.29-3.49-3.68-3.93-.12-9.41-3.71-.7,6.16-5.46,7.55-1.74-4.78-6.7-4.36,1.23-5.11-4.8-3.84-9.67,13L441,693.19l-9.47,5.46-4.61-2.37-.27-3.84-2.34-2.39-1-5.67-1.77-4.47-6.59-1.07-3.38,2.38L413,687l-5.76,1.62-4.78-1-.08-3.61,2.73-1,2.64.46.43-4.37,1.75-6.66,6.87-8.54,3.54-.9,5-5.16,4.24-1.31-.31-4.3-4.4-2.94,3.3-3.22,5.2.25,1,3.07,4,.95,7.4-1.4,3.55,1.51,4.3-1.81,5.26,2.59,1.93-2.56-.17-2.8,4.71-1.1,1.12,4.55,2.65,1.11,2.49-1.83,3.05.51,5.63,5.23,4.61,4-.75,3.68-1.63,2.75,1.15,2.75,2.28.39,3.51.6,2.88-.81,4.15,5.07,4.27-3.12,3.56.41Z" fill="#d71a35" stroke="#000" stroke-miterlimit="10" stroke-width="0.05"/><path id="UK" d="M201.51,332.26l.9,2.63-1.68,1.21-1.38-3.73ZM205,369.6l4.25-7.1-8.44,6.21,1.06,4.22Zm.11-57-2.32.77-.07,5.06-4.37-3.8-.19,3.91-1.42-1.21-1.88,1.45,3.73,3.46.35-1.62,1.48,1.4-.76,1.3L202,329l5.23.05-.15,4.35,1.81-.06,1.72-3.73,3.25-1.39-1.48-1.39-2.61.24-4.21-2.91,1.37-7.42Zm62.23-40.1-2.15.11,1.56,2.09Zm55.14,249.68-1.66.7,2.5,1.65,2.38-.34-1.12-1.73ZM195.84,303.92l-2,.73-1.05,1.72-1.63.69,2.55,2.46,5.42-3.77Zm4,60-.34-2.31-1.84,4.08Zm-13-13.57,4.24-2.49-3.53-.65Zm12.63-53.86L195,293.8l-2.82,2.83,2.08,2.75-2.12,1.33,1.84,2,3.89-.19,3.77,1.46,3.26-3.64-1.23-1.18,1.64-3.14,4.22-3.1,0-5.85-10.81,6ZM184.05,316l-.16,1.37,2.67,1.44,1.55-3Zm78.43-39-.11,3.23,4.21-.07,2.12,1.72.48-3.35-4.89-.11,1.82-1.7-2.33-2.88-3.33-.11-.47,4,1.26,1.79Zm-50.37,40.71.12,5-.28,1.63,5.7-.25-3.86,1.41-.52,1,1.1.86,3.69-.9-.94.81,1.22,2-2.49-1.37-1.13.59-1,2.3,1.32,1.19-2.15.1-1.6,1.92,2.35,1.11L214,337l-3.83-2-1.07,2.58,1.48,1.29-1.13,1.64-2.05,1.16-3.94-.35-1.89,1.58,1.37,1.1,3.36.16,2.16.92-.62.94-2.57-.3,3.08,3.67,1.15-.31,1.57,2.09,10.12-8.13-1.76,2.6,1.27,1-2.84.65-2.81,5,.11,1.32-3.41,5,1.11.82-3.11,6.11.12,4.19-2,2.24,1,2.19,1.7-.59-3.4,4.25-1.25,6.31L203.58,386l0,1.56,4.76.54-.3-3.36,2.58-4.5.16-2.95,2.81-2.74-1-8.13,1.78.2,6.37-6.09-5,5.89-1,4.6,1.47,1.38.65-2.7,3.07-2,.78,4.44,2.88-4.91-.09-3.67,2-.74-1.29,4.57,4.33,4.14L224.58,370l-2.14,5.78.43,4.51,2.4.86,1,4-4.06,3.29-4.8,9.23.36,4.41-3-2.42-.35,4.68,3.71,6.7-.71-5.85,3.16-.53,7.17,6.57.68-4.46-2.93-3,2.1-.29,5.84,4.67,4.5-.2.22-1.89,4.06.62,1.64-3.66,11,1.74-7.53,1.09L241.42,418l4.31,10.44,2.9-1.25-.59,5.18,4.06-3.92,4.34,1.18-2.14,5.18,1.27,1-4.8,2.94.66,6.18-2.9,4.3,2.31,3.82,2.89,3.2,2.61.56-1.94,1.09-3-.15-2.12-3.9-2.58.67,1.64,3.75,2,1.62L247,458.75l-2.47-3.16-7.39,1.46-3.17-.87L226.19,459l-4.42,4.91L216,466.65l-2.67,3,3.46-.23,1.63.79.73-1.93,7.78-1.14-1.12,3.89,2.3,3.05-3,1.75,1.26,3.19,1.73.62-6,8.85-3.69.8-3.87,2.28-1.79-.1-4.91,2.32-3.3-.36-5.75,2.85,4.17,1.06-.1,3.14-3.22,1.12,5.33,1.54-1.52,1.14,2,1.45,3.16-.52,3.79-1.77,6-1.24.2,2.72,4.45,1.63-3.85.61-.67,2.1,6.26.88.14-1.21,3.22-.52,2.8,4.07,2.49,3.76,7.22.72,2-2.66,3.56-1.08,4.87-1.21,2.07-2.39,4.11-1.37-6.06,5.6-5.92,4.49-.95,6-3.62-.59-3,.71-3.1-2.17-9.21-2.07-6.81,1-.3,3.37L215.2,527l-3.64-.4-1.47,7.6-4.31,3.08-1.24,1.88-4.42.29-1.61,4.26-1.87-.19-1.28,2.21-5.69,3.2-2.27-1.13-4,2.19-.38,3.35,4,.7.51-3,4.69,1.83,1.58,3.76,2.63-2-.82-1.83,2.55-2.7.9,1.5,3-2.28,1.78.18,1.73-3.1,4,1.57,3.39-1.11,2.58.73,2-.83,1.58,2.7,2.23.08,2.75,2.92,3.58.22-.42-2.4,3-1,1-2.06-.33-4,2.74-2.14,2.06,0,1-1.46,8.17-.92,4.12.81,4.44,3.89,1.87-.49,5.21.84,2.7,1.34,1.73-3.2,5.12-1.87,3.2,1.3,5-2.57,3.21,1.14,1.73-.08,2.49-1.46.48,1.79,2.61,1.94,3.46-1.79,7.31.72,4.69-.44,4.24,1.95,2.15.68,3.62-2.3,3.73-.29,3.56-2.67,2.23.09,2.23.78-.22-2.56,5.57-3,3.31-.34.63-3.23-.66-2.42,1.32-2.57-5.87-.48-4.34,1.09-2.46.15-3.72-1.84-1.38-.54,1.48-1.1,1.21,0,.46-.73L318,520l-3.16.78,4.59-2.48,2.8.61,3.64-1.27-.67-3-3.4-.39,2.79-2,2.08-1.61,1.84,2,3.39-1.89,1.51-1.83-1.49-.52,1.19-1.43-3.58-.84,1.71-2.25,2.22.86.48,1.8,3-3.15,2.67-.76,1.16-6.43,3.07-5.78-1.59-2.62-.39-5.64-6.81-6.69-10.32-1.68-6.47-.55L317.2,478l-2,2.57-3-4.18-4-1.48,7.2-5.68.46-4-4.16-8.85-2-.58-4.19-3.12-1.49-3.38-2.34.17-1.67.33-2.61-1.25-1.61-.18L299,448l1.89.73,3.39-.33,1.93,1.17,1.57,2,2.33-.16,2.16.74L307.11,444,304.72,440l2.11-2.64,1.68-.43-2.78-2-1-2.39-1.25-.3-2.78-6.88-5-3.36-7.29-2.55v-3l-1.59-1.23L285.4,407l-2.2-4.78-.68-10.58-1.82-3.7-2-.21-5.23-10-3.63-1.27-2.61-2.73-4.55-2.43-2.06,1.51-4,2-5.07-2.3-2.55,0-4.08-1.84-1-2.47,2.4,1.58,5,1,4.38-.91,1.67-3.21,4.3.65,4.23-2.5-3.76-2.33v-2.35l-1.46-1.47-5.85,2.32-.8-1.23,4.59-2.63,5.06.91,3.25-2.26.78-2.27,2.19-1.06,3.63-5.44,2.18-2.46-.05-1.91,2.57-3.64-.61-1.47,2.48-5.15,3.91-2.6.39-3.44-4.7-5.4-1.2.73-9-.73-5.4-1.65-1.73.94-2.71-.31-3.25-1.57-2.39-.18-.48,1.17-3.51.66-3.87,1.57-1.43-.25L242,323l-.67-.85,3.74-3.43,4.12-5.21-2.7,1.1-3-1.56,2-1,1-2.52,9.48-5.57,3-4,3.09-.72L264,295.5l-1.32-1.89,2-2.56,0-1.75-4.4-.49-2,1.71-2.7-1.18-4.45,1.42-3.85-.86-3.47,1-1.87-.2-2.15,1.59.64-1.93-1.69-1-4,2.79,1.43-2.71-4.74-2.89-1.2,3-1.85,1.09.18,2.91-1,0-.25,3.55-3.73.36,1.44,3.21-1.89,2.85-1.78-.11,3.88,4.35,1.22,2.93L222.25,308l-1.77,1.2-3-2.51-.35,1.53.61,2.16-1.19,1.44-1.32-3.55-1.93,3.35,1.48,2.1-1.57,1.65,2.29,3.31,2.54.36-3.11.79ZM189.36,314l.54-2.46-5.44-1.22-1.81.75,2.69,3.44Zm-19.89,81.6-1.74,3.74-4.61.13-6,9.46,8.37,9.8,3.31-.26,2-6,2.81-1.64,6.09,4,3.24,8.9,3.16,1,4.45,3.76.88.23,0-3.32,2,.75,3.72-2.39.7-3.07,5.19,1.28,1.17-3.62L201,417.28l1.67-3.3-1-2.72,2.5-.07,1.67,7.95-.23-10-6-1,3.58-2.05-5.46-10,.05-4.18-3.1-2.17-6.7-1.46-4.56,2.29H180.9l-1.54,1.4-4.31.34-2.43,2Zm49.78,28.95-2.37,5.58,3.82-.19,5.94-4.74-.58-2.43,1.2-3.7Zm-18.86-48.91-1-7.43-6.66,1.88-.57,5.68,4.37-2.12-1,4.24Zm-7.55-29.18,3-1,1.33-3.26Zm25.55,107.9,5.76,3.77,5.72-3.56-3.86,0-1.36-3.91-4.73.08S218.33,454.17,218.39,454.36Zm59.82,86.3-6.28,2.44,2.81.92,2.79,2.59,3-.19.18-1.55,1.72-2.34h-2.23ZM212,378.93l.35,6.57,4,2.21,1.78-4.26-2.33-6.62ZM206,357.07l4.25-2.48-1.2-3.8-2.76-.75-3.09-4.43L198.76,348l5.44,3.48-3.42,1.37.69,1.47-4.13,2.33,8.43-.9Zm56.49-73.76-1.18-2.4-2,.22,2,4.15Zm-81.11,45.94-2,2-.44,2.3,3.17-1.48Zm4.78-9.5-2.23-.69-.13,2.6-1.51,2.64.52,3,2.56.9-.43-3.8,1.34-1.95Z" fill="#d71a35" stroke="#000" stroke-miterlimit="10" stroke-width="0.05"/><path id="ITALY" d="M560.5,986l6.64,1.8-.3,3.39-2.76,2.34L560,989.23ZM493.26,789.9l-.29-2.49-1.81-2.75L489.93,786l-5.15,1.37-2.17,1.8,2.3,1.26,4.81-1.08Zm95.6,146.42,1.53-5.84L587.48,926l-6.22,4.77-2.35-.61-4.6-3.27L569,931.45l-10.09-1.84-8.61,1.59-5.79-1.87L540.61,926l-5-.06-3,1.89-1.29-2.2-5.73,1.9-1.51,7.22,4.24,4.94,4.85-.29,7.8,6.73,4.45,1.72,3.71,5.06,9.57,4.87,2.18-1.1,4,3.72.45,3.65,9.86,5.26,4.31-.19.31-5.63,2.51-2.47.06-5-3.43-6,5.32-10.39ZM565.76,704.9l-1.21-3.75,6-6.83L567.67,691l-7.51-.21-13.27-4.14-10.26-7.74,1.16-4.44-7.83-.26-4.7-1.84-12.42,5.44-7.07-4.07-5.16,5,1.45,7.38-8.95.93-1.95,8.29-3.49-3.68-3.93-.12-9.41-3.71-.7,6.16-5.46,7.55-1.74-4.78-6.7-4.36,1.23-5.11-4.8-3.84-9.67,13L441,693.19l-9.47,5.46-5-2.54-2.2,2,0,5.57,3.76,4.36-2.16,7.3-5.25,0-3.63,3.18,4.83,6.47-.37,11.74,6.55,5.68,6.79.78-3.69,6.45,1,5L443.1,754l4.46-4.46.59-3.71,12.26-5.11,14.48,5.61,4.07,3.39,6.35,2.68,1.45,3.79,1,2.54,1.41,3.66,3.31,7.08-.27,3.92,3.3,2.6-.9,6.26,5,3.15,2.91,4.62,5.43,6.47.21,4.13,6.41.92,3.45,5.89.44,3.66,2.76,1.34L529,825.22l8.07,7.62,4.15,1.16,3.43,3,.42,3.83,4.07.46,3.19-2.38,4.36,2.4,4.37.85,3.73,9.35,2.66,2.2,2.65-.74,3.59,1.8-.69,3,3.91.27,4,.81,2.44,4.06-1,4.34L581.15,869l2,2.46,4.55.88,1.41,3.93,5.62,2,2.71-1.23,3,2.4,1.21,7.36.24,6.88,2,3.33,1,8.18,2.11,4-.64,4-2.69,2.62-1.8-.13-1.36.61.06,4.49-1,4.16-3,2.74-2.88,1.2-1.28,1.59-.22,3.41,4.34,5.49,6.52.21,3.71-4L608,931l6.66-4.22,1.71-10.28,4.17-3.47,4-.57,1.88-3-.93-2.18,1.38-5.67-.93-2.69-5.6-6.66-3.51-.91-1.23-2.44.36-3.33,3.48-1.83,1.15-3.29.08-2.91,2.85-2.43,2.15-5.25,2.18-1,3.1-.07,4.32,2.73,1.12,2.19,6.9.89,2.28,1.74-.94,3.29,1.4,4.33,2.65,4.26,3.78,2.11.34-1.27,1.32-.84-.13-3.69,2.22-2.53,1.33-5.69-1.36-3.2-3.41-3-7.08-2.71-3.92-5.19-6.28-5.93L619,844.65l-8.24-3-4.58-.53-1.79-3.82.42-2,6-3.26,1.19-2.95-3.68-2.48-5.52.22-3.45-1.42-8.46-.93-2.68-2.08-4.07-1.28-2.78-3.63-6-5.83-2.64-5.37-3.6-4.62-2.55-4.75.37-4.6-1.75-1.23.1-3.94-12.86-16.41-2.3-4-5.08-3.5-9.23-6.38-2-3.66,0-6.52L532,740.74l2.22-1.46,4-4.69-2.6-4.24-1.82-5,2.09-3.2,5-.11,5-3.53,4.91.56,3.6-2.85,3.23-1.18,4.9,1.84-.21-7.76ZM441.33,832.12l.61-2,2.14-1.88-1.61-1.75-1,2.11-1.46.61-.18,2.94Zm-.48,14.56.47,3.49L443.9,853l-.6,5.25-3.61,3,1,2.86,4.36.86-.21,1.86-3.08,2.9-2.93,7.57,1.54,3.09,1.15,9.41,3,3.95,1.8-.83,2.1,1.27,3.36-1,.92-5,1.71-2.9,4.2.83,2.4,3,2.55.29,2.05-3,1-8.31,1.11-2.27,0-9.1,2.63-7.93-5.17-5.74,5.29-2.67,1.06-3.31-.58-5.39-2.51-3.56-2.54-6.3L464,833.38l-3.54-3.5-3.43,0-9.25,8.73-3.57-.25-4.74-3.63-.56,4.91-1.22,3.12Z" fill="#d71a35" stroke="#000" stroke-miterlimit="10" stroke-width="0.05"/><path id="PORTUGAL" d="M107.42,892.72,107,898l-.16-.06-1.24,1.75-6-.17-7,3-3.93-3-8.89-4.8-7.14,3.81-1.53-1.55,2-2.34,3.18-8.24,1-11.88,2.81-5-.85-6.12L82,860.55l-5.74-.83-3.76,2.82-1.77-2.42.88-4.71,7-2.47-.91-2.51,1-2.79L73.73,850l-2.58,3-4.57-.52.19-3.24,4.56-12.69,6.91-7.8.49-4.24,5.91-6.7,1.17-7.25,3.38-5.45,2.74-2.94L89.14,798l2.42-6.09-.6-2.29,3.15-13.9-2.51-8,.12-4.72,10.13-.44,3.65,1.48-1.2,4.76,1.56,3.47,7.89-3,12,4,4.69-3.71L141,772.07v5.57l3.79,7L142.94,789l-3.24-.37-9.35,7.11.31,5.94-2.27,14.16L123,820.12l3.43,4.33-6.75,7.42-3.81-1.1-5.64.66,4.56,11.67,4.8,3.83-.72,9.09-7.93,6.29,2.49,6.83,4.81.89-1.13,4.14-6,3.89-6.29,9.1Z" fill="#d71a35" stroke="#000" stroke-miterlimit="10" stroke-width="0.05"/><path id="GREECE" d="M819.88,999.07l1.24-1.5,3.64-.9,1.69,1-1.75,2.18a27.16,27.16,0,0,0-3,1Zm-28.62-120.9-1.86.44-1.76,3.91,2.5.2,1.14.88,3-1.06-.14-2.48Zm37.43,92,1.63,2.34,2.16.33,1.2-1.19,2.66-.92-.29-1.76-1.2-.37-.82.79-2.42-2.48-2.57-.55L825,969l-1.15,1.51,2.43-.38Zm-48.89,6.12a17.08,17.08,0,0,0,2.07-.9l.33-2-2-.79Zm1.41,17.73.93-2.27-2.9-.42-2.48,2.85,1.92.46Zm.78-11.81.33-2.92-2.18,1.24Zm-4.33-12.89.56,1.55,2.37-.72-1.36-2.38Zm84.09,39.79,1.67-1,.51-2.23-3,.88-5.33,1.53-5.33,3.49-.57,2.32.61,1-1.4,2.31,1.21,1.61,1.9-.11,2.28-2.19,2.7-2.08,2.12.16.09-1.46,1.42-1.82ZM747.28,999.8l-.39,2.36,2.05,1.35,1.94-3-1.9-3.27-.39-3.07-.88.85-1.49,2.56Zm.66-9-.61,1.81,1.61.22Zm-48.61-40.1-.92,2.37,2.7,3.42,2.44.94.73-1.4,2.72.73-1.48-2.15-1.71-3L701.22,950Zm136.27,72.78,1.07,2.93.2,4.62,1.43-.49,2.13-4-1.8-3-.27-2.74Zm-7.12-150.08-.4-5,6.23-2.9,1-5.45L831,857.58l1.61-5.78-2.69-.31-5.8,3.43-.92,5.13,1.34,4.07-3.18,2.1-9.46-1.75-4.6,1.6-3.62-2.71-4.35-.5-3.35,2.08-4.16-.81-.22-3.79-5.83-.51-5.38-1.59-4.3,3.27-5.83.8-7.4-1-2.13-1.4-.16.12-3,2.14-4.05-.31-5.54,2.64-11.06-1.77-5,2-.55,1.9-6.57,1.53-9.5,4.47-.12.46-1.57,5.74-4.3,6L700,886.8l-.93,5.12-3.82,6.26-3.09,1.2.44.38-.42,6.49,7.46,7,3.83,7.18,2.14.77-.74,2,5.26,9.54L711,939l2.75,1.51,4.26-4.14,2.9,4.63,5.16,1.27,2.6-3.13,3.7.77,5.52,4.24,3.75-1.28.31,3.13,2.92.15,2.16,2.14,4.65,1.4L748,951.35l-3.4,2.69-2.75-2.88-4-1.48-8.17-6.77-4,.89-4,1.78L718,943.27l-3.69,3.7-2.45.4-2,3.73,4.11,6L718.7,960l4.22,5,.14,3.27-2.1,2-.16,4.28,3.48,5.73,2.35,3.36,1.52-2.75-.76-2.32,2.14-3.71,1,5.09,5.64,3.23,1,3.37-1.27,3.64,2.19,3.34.72-6.28,2.78-4.83,3.74.44,1.21,4.25,6.12,5.18-2.19-4.89,1-3-1.87-4.69-2.23-7.63-2.2-4.54.36-1.7h2.75l4.61,3.11-1.73,1.69,1.32,1.87,2.87-2.42,4.89,2.27.36-1.67-1.86-1.77-.2-1.92-1.73-.7-3.45-2.8.59-2.16-4-3.9,4.45-1.37,3.88.62,2.61-1.75,5.6,4.92.48,1.95,4.17,1,1.49-2.41-3.1-5.87,1.6-5-1.2-3.06-9.6-7.63-3.12-1.21-1.24-2.72-2.9-.15-1.59-2.58-4.34-1-4-4.4,4.81-.14,3.08-2.9.11-2.39-4.27-1.71,2.73-2.77.11-2.56L753,916l2.52,2.6-1.38,2.33.08,2.4,2.51-.3,2.12-5.06L756.26,914l-5.83-9.1-2.62-2.54-.32-3.13-4.75-5,2.13-2.16.17-8.92,3.41-4.24,5.55-.57.17,4.49-2.53-.29.23,2.43,6.58,4,0,5.5,4,4.07,4.93.4-3.28-2.78-1.48-3.61,1-3,4.4,2,3,5.33,2.91,1.53,2-2.69-3.11-2.92L770,891.37l.46-2.52,8.27,1.3,2.68,3.4,1.55-1.37-4.25-5L773.89,886l-3.5-5.2,2.69-2.44,4.23,1.85,3.79-1.61,2.4-5.74,3.32-.82,4.5,4.29,3.7.77,4.55-3.77.43-2.18,1.86.22,2.63,3.9,9.17,1,6.64,2.58,5-.65Zm11.33,145.57.25-2.19-1.46,1.87.56,1.06Zm-87.35-93.42L749,927.9l1.88.61,3.91.29,1.91,2,.72,1.56,1.91,1.12,1.49,2.64,2.69,1,1.45,2.95,3.8,2.66,2.94.1.92,2,2.33,4.62,1.59,1.91-.69,2.38,1,2.41,3.06,2.57,2-.84,2,1.37,2.14-4.35L782,954l-1.4.81L778,951.57l.79-3.26-.37-2.35.11-1.87L777,940.47l-4.72-6-.57.68-2.89-.5-.4-1-3.56-2.46-3.7-1.9-3-4.12Zm75.14-3.69-4.77.19-2.6,1.26-5.21,1.2-2.41,3.19,3,3.12,1.36.32,2.14-.24.79-2.62,1.35-2.47,3.26.29-.66,2.73-2,1.32-1.42,1.63,2.9,1.81,4.5.19.61-4.69-.36-3.31-1-.28,1.19-2.42Zm-13.76,30.77,2.22,2.13,3.23-1.12,1.22-3.53-.33-5.62-.94-1.19-2.61-1.44-2.74,1.08-.16,1.46,2.63,2.52-.27,3.33-2.13.57Zm-45.79-27.35-.4-2.91-2.25-1.08-1.41.23,3.16,5.21Zm34.37,61,2.11.33,2.31-2.36-.21-2.41-2-.65-3.49,2.41ZM702.15,930.74l1.56-1.53-.19-3.88-1.58.1-2.4,3.38.08,1.53,1.12.58Zm59.52-10.66-1.81,1,1.3,2.13,1.37-2.06Zm-67.23,17.48-.54,4.7,1.78,2.32L697,943.5l.34-2.27.93,1.27-.29,2.51,3,.75,2.51,1.77,1.62-2-.76-1.31L704,942l-1.72-2.23.79-1.81-1-3.32-2.27-2.39-.68,5.42-1.91-.55ZM684,895l-4,1,.07,2.3,2.24,1.24.15,1.33,3.48,4.67,3.45,2.12,1.15-.69-.32-1.6L687.41,904l-2.18-3.11.66-4.37Zm135.71,78.38,1-2.18-4.79.36-.93,2.35,1.24,2Zm-24.57,11.21,1.75,1.93,2.46-2.76-.71-2.38-2.19-.25ZM803,900.93l-1.38-1.47-3.57-.33-1.33,1.58.66,3.51,1.81,1.94,1.84-.11,2.46,1.42,1-4.23,3.1-2.68-2.12-1.47Zm-15,30-1.63-2.24-1.6.38,1.84,4,1.09.45.93,2.67,1.53-.41,0-3.78Zm14.39,45.31,2.15-1-1.87-.78Zm-5.83-6.33,1.62,2.32,2.37,1.43-.09-2.16-1.71-2.09Zm-8.86-10-1.36,1.83,1.83,1.93,4.23,5.24,1.85.29.38-2.41-3.43-3.85-1.45-3Zm-26.25,57-.58,3.17-1.73,2.68v3.41l3.07,1.82,7.59-.1,3,1.16,3.13-.7,4.3,1.79,4.51,3.4.26,3,5.59.41,5-2.38,5.09,1.08,8.28.7,5.66.82,3.46-1.66,1.75-3-.37-3.15.22-2-1.43,1.64-.42,2.24-3,2-1.75-1.94-2.44.63-2.3-.59.73-2.06-.82-3L806,1026l-6-1.52-4.51-2.65-6.34-.48-5.64,2.72-4.16.59-3.19-2.17-1.43-2-2.71.09,2.06-1.47-1.31-2.87-3.52-.16.46,1.78,1.1.46-1.42,1-3.35-.22-.42-3.4-1-.46-.62,1.83.31,2.32-1.72.39Zm90-16.74-1.73,1.45,1.88.86,2-.34-.3-1.68Z" fill="#d71a35" stroke="#000" stroke-miterlimit="10" stroke-width="0.05"/><g id="ITALY-2" data-name="ITALY"><rect x="540.48" y="856.37" width="92.42" height="25.42" transform="translate(-67.23 49.39) rotate(-4.56)"/><text transform="matrix(1, -0.08, 0.08, 1, 563.13, 877.23)" font-size="19.2" fill="#fff" font-family="Raleway">I<tspan x="4.78" y="0" letter-spacing="-0.07em">T</tspan><tspan x="15.2" y="0">A</tspan><tspan x="28.24" y="0" letter-spacing="-0.12em">L</tspan><tspan x="37.32" y="0" letter-spacing="-0.04em">Y</tspan></text></g><g id="GREECE-2" data-name="GREECE"><rect x="801.52" y="914.31" width="125.76" height="25.42" transform="translate(-70.95 71.64) rotate(-4.56)"/><text transform="matrix(1, -0.08, 0.08, 1, 827.56, 936.63)" font-size="19.2" fill="#fff" font-family="Raleway">GREECE</text></g><g id="FRANCE-2" data-name="FRANCE"><rect x="186.01" y="677.67" width="125.76" height="25.42" transform="translate(-54.09 21.97) rotate(-4.56)"/><text transform="matrix(1, -0.08, 0.08, 1, 210.34, 699.76)" font-size="19.2" fill="#fff" font-family="Raleway">F<tspan x="11.23" y="0" letter-spacing="-0.01em">R</tspan><tspan x="23.75" y="0" letter-spacing="0em">ANCE</tspan></text></g><g id="PORTUGAL-2" data-name="PORTUGAL"><rect x="96.84" y="832.84" width="153.61" height="25.42" transform="translate(-66.66 16.48) rotate(-4.56)"/><text transform="matrix(1, -0.08, 0.08, 1, 121.56, 855.94)" font-size="19.2" fill="#fff" font-family="Raleway">PO<tspan x="26.43" y="0" letter-spacing="-0.02em">R</tspan><tspan x="38.78" y="0">TUGA</tspan><tspan x="91.95" y="0" letter-spacing="-0.03em">L</tspan></text></g><g id="SWITZERLAND-2" data-name="SWITZERLAND"><rect x="453.87" y="657.16" width="195.24" height="25.42" transform="translate(-51.5 45.96) rotate(-4.56)"/><text transform="matrix(1, -0.08, 0.08, 1, 483.05, 681.89)" font-size="19.2" fill="#fff" font-family="Raleway"><tspan letter-spacing="-0.02em">S</tspan><tspan x="11.46" y="0">WITZERLAND</tspan></text></g><g id="GERMANY-2" data-name="GERMANY"><rect x="459.68" y="574.05" width="148.69" height="25.42" transform="translate(-44.95 44.31) rotate(-4.56)"/><text transform="matrix(1, -0.08, 0.08, 1, 486.56, 597.57)" font-size="19.2" fill="#fff" font-family="Raleway">GERMAN<tspan x="83.02" y="0" letter-spacing="-0.04em">Y</tspan></text></g><g id="UK-2" data-name="UK"><rect x="101.75" y="457.49" width="227.48" height="25.42" transform="translate(-36.69 18.62) rotate(-4.56)"/><text transform="matrix(0.96, -0.08, 0.08, 1, 132.75, 484.27)" font-size="19.95" fill="#fff" font-family="Raleway">UNITED KINGDOM</text></g><g id="NETHERLANDS"><rect x="362.31" y="453.95" width="195.24" height="25.42" transform="matrix(1, -0.08, 0.08, 1, -35.64, 38.04)"/><text transform="matrix(1, -0.08, 0.08, 1, 388.61, 479.33)" font-size="19.2" fill="#fff" font-family="Raleway">NETHERLAN<tspan x="116.21" y="0" letter-spacing="0em">D</tspan><tspan x="129.98" y="0">S</tspan></text></g><g id="DENMARK-2" data-name="DENMARK"><rect x="469.43" y="349.58" width="148.36" height="25.42" transform="translate(-27.08 44.36) rotate(-4.56)"/><text transform="matrix(1, -0.08, 0.08, 1, 499.22, 373.01)" font-size="19.2" fill="#fff" font-family="Raleway">DENMAR<tspan x="82.95" y="0" letter-spacing="-0.01em">K</tspan></text></g><path id="AUSTRALIA" d="M481.31,1798h0m-25.08-282.11,1.14-.5,1.93.25.38-1.16-.53-.21-.61.16-.32-.36,1.16-1.2-.17-.32-1.19.39-.07-1.16-.8.43-.22.67h-1.13l.33.36-.25.32.56,1.61-.74.66Zm113.19,116.58.1-1.77-1.15-2.72-.48-.87-.11-1.48.48-.67,0-1.71,1.19-2.25-.14-.66-.27-4.24.77-1.47-.63-.79-.45-1.48-.05-2.86-.62-.2.71-1.62-1.45-.55-.77-1.41V1604l-1.7-1.38-1.13-2.05-.52-2-1-1.73-.94,0-1.08.54-1-.9-.3-1.87-.72-.29-.21-1-1.82-1.47-.86-.74.35-1.12-1.06-1.72,1.31-1.82.24-2.21-.47-1,.16-1.44-1-.51-.24.78.46.64-.52.79-3.37-2.85-.78-1.68-.59.36,0,1-.34,1.11.85,2.23-1.67-1.87-.74.92-.05-1.38-.65-1.14-.42-4.06.42-.46,0-1-1.41-.83.5-1.23-1.08-.79.29-1.28-2.44-1.94-.72-1.42-.18-1.69,1.34.28-.06-1.44-1.23-2-.59.36-1.28-.12-1.51-2h-1.1l-1.37-1.1-.74.85-.63-.8-1.62-.49-1,1,.78-1.36,1.41-.43.08-1-.47-.81-1.65.23-1.27-.07-.42-.86-.71,0L527,1554l-1.42-2.6-.38-2.62-.94-1.68v-1.38l.71-.3.49-2.94-1-3.82-1-1.73.76-.42-1-.84-1.1,0-1.49-2.82-.19-3.57.53-.46,0-.78-.69-.8-.5-4.5.34-1.22-.44-1.43.47-.45.13-1.06-2.62-2.33-1.58-.87.41-.68-1.71-1.59-1.45,1.05-.74-.47-.76,1.63-1.21.1-1.57-2.2.12-1.22-1-2,.44-2.72-.45-3.23-.59.3L507,1503l.62-1.29-1.16-1.45-.1-1.26-.79-.47,0-1.82.85-.92-1-.51-1.2.32-1-.84.43-3.49-.47-.76-.52-2-1.56-.28,0-.94-1.69.73-.78,1.18.1,2.59-.69,2.23,0,.61-.28,1.5-.83-.08-.85,2.41-1.2,1.8,1.14,1,1.42,1.06-.86.64-.94-.13-.55,1.45-.72,1.46,1.11,1.67.22,1.21-1.12-.4-.81.64-.52,3.6.75,2.4-.4,2.66.79,1.85-.08,2.15-1.33,1.32.05,1.21-1.39,2.87-.11,4.14-1.22,1.47.5,1.47-.74,2.3-1.27,1.37-.06,2.76-2.2,1.79-4.55,2-1.93-1.25-1.93-.1-1-1.23-1.87-1.36-.08-.88-.52-.64-.51-1.58-1.72-.21-1.45-.56-2.26-.08-2.15-1.24-.43-1.2-1.67-2-1.94-.1-1.75-1-.14-.94-.94-.07-.85-.63-1.6.12L456,1529l.36-.62L454.5,1527l-.38-1.42-1.95-1.86-1.21-.12-1.67-1.81-.12-1.82,1.29-2.25.26-1.78,1.4-1,.36-2.06.56-1.34-1.23,1-1.12-1.93,1.45-1-.34-1.54.77,0,.87-.42.4.53,1.34.23,1.78-.9.55-1.68-1.31-1,1-.81,1.06.24.62-2.51.92-.53.94-1.36,0-.71-1.51-.66-.9,1.13-.95-.35-.31-2.47-1.2.6-1.62,2.1.89.35,0,1-1.19.65-1.19-.66-.3-.88-.64-.8-.46,1-1,.32,0-.94.79-.91.31-.73-1,.47-.73.92-1.64.61-.19.62-.87.2-.47-.6-1.38-.06-.08-.66-1.16-1.49-.61-.14-1.67,1-1.23-.46-.7.47-.6-1-.66-.14-.88-1.51-1.63.83-1.77-.21-1.62-.65.06-1.05-1.15-1.34-.65.19.18.6-2.17.75-.61-1.3-1.22-.4-2-1-.25.56-1-.68-1.17,1,1.48,1-.43.39,1.39.28,1.19-.59,2.15,1.68-.12,1,.52,2.29-1.48.18-.49,1.67-.53-1-1.11-.28-1.13.8-4.17.39-1.66-1.33-.19.63-1.63.67.22,1.36-1.39-.22.51,1.91-.52-.7-1.73-.49-.62,1,.7.91-.1.62-1.83-.49-.9,1,.74.74-.76.41-1.18.74.14.9,1.15,1.09.33.8-1.32-.68-1,.92-1.27,0-1.19,2.09-1.07,2.36-.93.31-.36,2-1.13.76,1,1,2.5.35-.93.31-.51,1.07,3,.88-1.14.54-1.88-.15-.64-.86.09.88,1.25.89v1.6l1.34,1.66-1.93-1.42-1.24-2.1-1.39-.12,0,.89-.51,1-.21-1.15-3.16-1.86-2.24.51.75.81-.75.8-.79-.64-.6,0-.63.9,1.09,1.34-.24.84-.24-.6-.71.2,0,.71-1.4.88-2.07.47,1.62-.84,1-1.53-.19-2.25,1.1-1.47-.75-.91-1.22-.13-2.24-3.72-1.16-1.61-2.05-.41-1.42-.84-.86.59.74.69-.81.31-.93,1.52-1-.13.3-.84-1.31.44-.3.89-1.07-2-.83-.19-.18,1.22,1.07.57-1.39,1.1-.44,1.5.53.86-1.46.94-.7-1-.82,0-.31-.75,1-1.26-1.11.1-.49,1.57-1.52.44-.61.9-.21,1.6,2.25.55-1.81,1.65-1.46-.72-1.67,1.23.37,1,2.06.2-.67,1.17-1,.27-1.49-1.65-1.17,1.42-1.44.28.34,1.06.32,1,.14.93.87-.34-1,1.47.76,1-1.19.65-.73,1,2.55.34-1.57.89-.31.67-1.39-.28-.81-1-1.18-.72-1.07,1-.53-1-1.41-.83-1,.86,1.86,1.2-.64.35-.72,1.47,1.54,1.26,1.48-.11-.61,1.24,0,1.32-.62-.53-.77,0,.34,1.53-.55,1.68-.15,1.82-2.5-4.87-1.66-3-.87-1.12.32-1.77-.52.84L354,1538l-.32,2-1.15.32-.13.83-1.44,0-.78,1.13-1.17,1.09.34,1.86.15,3.81.73.35,0,1.32-1.29.77-.73,1.45-1.95.63.19.82-1.66,1.17.12,1.87-.9.91-2.14,3.22-4.25,2.76-3.79.48-1.47.6-2.19.25-1.75.51-1.78-.37-2.22,1-.23,1.33-1.46.77H318l-1.19.76-.33,1.28-2.93,1.33-2.25.08-1.24-.45-1.15.16-.47-.81-1.19.65-1.09,1.8-3.07.68-.24.67-.83,0-2.34,2.23-3.09,1.61-4.08,1.42-1.72,2.6,0,2.32-1.6,1.49-1.18-.72.51-.85-.26-1.15L289,1582l-.11-1.31-2.25,1.85-.47,2.17-1.53,3.2,1.19,2.16-.7,1.85.23,3.35-2.67,3.63-.92,4.84.86,2.45-.25,3.48,2.69,4.2.18,1.65,1.09,1.17-.86,2.18.62,1.9-1.51.67-.71-1.13-.21-2.52-.88,1.41-.46-.48,0-2.32-1.61-3.14-.88,1.63.45,3.19,2.06,1.91,1.48,2.69-2,.41-1.74-2.14-.48-2.58-.62,1.14-.81.47,1.36,2.37,2.65,3,1.64,4.07v7.39l1.09,1.34.93,4.1,2.41,5.36-.7,2,.53,8.14-.28,1.12.85,2.23,0,2.53,1.68,3.52.12,1.76-1.34,1,.75.74-.43,2-.15,3.21-1.22,1.2.42.92-.32,1.94-1.23,1,.35,1.87-2.3,1.91-1.09-.9-1.7,2.82.28,4.52,1,.84h1.1l3.21,3v1.17l.57.64,1.61.2.75.86,2.1.25.82-.2.47.6,1.6.15,1.86-.45.53,1,.81-.69.45.31,2.08-.46,1.8-.23.2-.89,1.09-.27,1.14-1.86,2.16.2,0-1.27,1.34-.82,1.1,0,1.15,1.11,1.1-1.64.61.25.7-.41.32-1.77,3.93-2.64,1.55.16,1,.57L322,1688l3.82-1,.53.74,2.45-.64.74.47,1.16.07,1.47-.62.61,1.53.88,0,1.13-.66.69.75,1.13-.81,2.86-.11-.12,1.21.51.21,1.53-1.61,1.62.38,1.88-1.39.64-1.79.72-.25,1.48-1.59.78-2.63,1.71-1.44,2.07-.69.79.47,3-1.16,3.77-2.52,2.28-2.29,1.08-.48,1.05,0,1.27-.1,2.18.84,2,0,1.35-.55,2.93.05,4-1.57,2.35-.65,1.71-1.33,1.1,0,2-1.57,3-.33,8-.91,2.62.62h1.76l2.17-.86,1.78.16,2.28,2,1.82,2.85,1.34.4.9-.81.88-.37.69.69.8-.41,1.56.32,1.45,1.77,1.88.26.75-.53,3.28,2.14-.22,1.39,1,0,1.14,1.1-.4,1.07-1.21,0-.24,1,1.37,2.77,1.33,0,1.54,1.54.58,2-.22,1.55,1.73,3.47-.49,1.62.69.85-.2,1.88-.57,1.13-.9-.52-.42.45,1.21,1.45,1.13.57.61,1.46,1.19-.48,1.3.94v-1.27l-.76-1.13.8-.91.65-1.46,1.15-.26.62-1.24,1.24-.6.34-1.28,1.26-1.75,3-1.67.29-.94.61,0,2.38-1.25.53-2.07,1.81-3,2.07-.51.78-1.25-.6-1.52.26-1.77,1,2,.12,1.87.07,1.82-.84,1.19-.29,3.71-3,2.09-.38,1.62-.84,1.18.18,1.66-1.67,2.54.57.7-1.13,3.56-3.48-.24-.64,2-.83,1.57,0,.55,2.13-.63,2.06-1,2.51.79,2.27-4.17.52-3.78,2-2.16.57.64.19,3.47.85,2-.65.25.35,3.46-1.49,3-2.71,1.21.48,1,1.75-.3,1.89,0,.79-.88L452,1706l1.49-1.32,1.24.31.93-.18-.69,1.3-.67,1.21-1.32,0-.33.78,1.36,1.84.6,1.56,1,2.28.21,2.7-.15,3.37-1.74,2,.37.92-.19,2.54,1.31,1.06,1.18,1.89.42,2.35,2.72,3.37,2,.42,1.42.94.72,1.73,1.5.06.3-.67.93-.37,1.89.54,1.61,1.81,1.66.1,1.88,1.64.28,1.48,1.45.44,1.56,1.71,1.09,0,.46-1,2.76-1.43.82-1.29,1.76-.13,1.79-1.93,1.36.22.58-.74-.39-.72-1.61-.38.49-1,2.78-2,2.46,1.59,0,1.59-2.85,1.71.74,1.34.91.19,1-1.17,1.15-1,1.51.77-.08,1.41h-.88l-1.13,1.19,2,2.18.47,2.46.71-.46,1,.07.17,1.48,1.1,1.5,1-1.85-.18-2-1.12.92-.31-.81.84-1,3.58,0,.47.7.47-.84,1.72-2.56,3.66-2.39,2-2-1.1,0-.81.53.32-.45-1.29-.39,1.37-.17,1.88-.07,2.72-.93,5.58-1.31,4.54.71,1.83-1.18,0-1.2,1.33,0,1.33-1,1.17-2.64-.66-2.85-.12-1.54,2.39-2.56-.16-4.3,1.1-1.7.39-2.92,1.41-.72-.17-1.42,4.21-5.69,1.2-.26.66-3,1.68-2.38,1-3.13,1.7-1.83-.25-1.57,1.25-.72,1-2.85-1-.85,2.21-1.13,1.46-2.37.9-1,1-2.42,2.12-.74,1.3-.71-2.2.08.52-.74,2.59-.26L556,1677l.42-1.73-.36-.88.27-1.49,2.31-1.91v-1.55l1.62-.72,1.51-2.76-.28-1.36.74-2.24-.63-.69.18-1.17,1.86-4.81.4-2.55,2.46-4.84-.18-1.76,1.25-3.47,1.92-1.72.64-2-.63-2.12,1.16-1.54Zm-77,107.27-.5-.64-.75.34.91.8Zm12.82,22-.8.59.47.91,2.21,0,1.12.39.19-.83-1.54-1.33Zm-48.61-268.92,1,.41.22-1.11,1.21-1.21-.6-.66-1.43,1.66Zm20.63,46.36.75-.45-.14-.79-1.05.58Zm-21.3-44.67-.13-.78-.7.39Zm4.61,33.39-.86-1.06-.42,1.21.56.9Zm18.35,5.84-1.9-.37-1.75,1.09a5.55,5.55,0,0,0-.28,1l.65.63.86-.35.83-1.14,1.59-.29Zm2,227.82-.36,1.14,1,.55.43-1-.1-1.27Zm-26.06-266.93-.87,0,.44.55Zm27.5,270.64.94.25.67-.72-1-.87-.93.26ZM498.2,1485.1l.1,1.78.67-.41.72-.08-.56-1.17ZM499.94,1744l-1.26.15.79.49ZM483.29,1761l-.73.36.09,1.07.82-.11Zm20,6.22-.78,1.35-.39-.25-.83,0-1,.81-.75.52-4.36-.11-.91.64.1,1.32-1.14-1-1.43.11-.91.75-1.4-.94-2.06-1.74-2.59-1.28,0-2.16-.58.74-.19.78-1.14-.84-1.35-.61-1.48-1-.43.71-.05,1.67-.43.35.06,1.51.44,2.84-.29,1.86.29,3.2.43,2.56-.31,2.06.68.41.09.94,1.38,1.28-1.55-.07-1.28-1.32-.54,1.45.2,2.53,1,.79-.31.78.22,4.08.79.58-.31.61.4,1.87,1.4.44-.79,1,.06,1.54c.07,0,.61.26.61.26l1.31-.33,1,.95,1.1-1.58.05,1.21.76,1.29,1.16,0,1.29-2.14.12-1.33.57-2.4,1,.91.41-.79,1.28-1.1.5-1.56.06,1.54.94.29.67-1.29,1.21-.27.84.69-.14,1.24-1.51-.56.16,2.13,1.27-.68.59.17,1.56-2.43,0-.88-1.18-.73,1-1.36-.11-1.65,1.15,0,.58-.63.05-3.15.91-.69.72-1.41.52,2.08.31,1,.66-1.62-.11-1.32.37-.67-.46-1.81,1-1.58V1775l1.21-1.58.52-3.77.45-1.29-1.75-1.15Zm-12.47,27.66.05,1.27-1,1.69,1,.52.41-2.12.63-1-.36-.76ZM479,1756.7l.91-1.57-.53-1,.24-2.13-.87-.68-.81.69-.94,1.25.24,1.25-.91,1.28.37,1.19-.12,1.06,1,.45,1.15-1Zm19.89,32.76.81-.46-.85-.75Zm55.63-208.77-.19-.8-.58.62ZM452.21,1495.4l-.82.67.85,0Zm119,106.49-.37,1.16.45,1-.73,1.6-1.2,1.52-.11,1.31-.2,1.48.76,2.13.85.22-.48-1.39.26-3,1.54-2.26.24-2.06-.32-1.66Zm-66.52,154.27.49,1.19-.5,1.35.52.85.48,1,2.55-1.26-.05-1.27-2.46-2.28Zm-55.24-258.75.16.85.74-.81,1.23-.18.42-.81-1.21.1Zm-1.56,1.87,1.27-.57-.12-.45-1.74.62Zm-20.19-7,.86,1.42.06-1.34.4-1.37-1.1.25Zm142.13,138.07.8-1.06-.41-1.62Zm-12-39.33-.71-.45-.3.38,1.39,1.77L559,1594l.24-1.3-.56-.66.07-.93Zm-185-69.88.13-.79-.61-.06-.39.78Zm133.07,244.53.29-1.18-1,.38Zm-6.8-284.34.42.93.58-.81Zm27.22,69.07.55-1.48-.27-2.38-.49.28-1.18.36,1.13,1.17-.46,1.2ZM453.85,1513l.39-.28.23.7.78-.94-.75-1-.81.83ZM276.36,1615.46l1,2.85.5-2.17-.88-2.38ZM297.54,1574l.75-1,.09-1.64-1.29,1.95ZM417,1498.66l2.37-2.7.64.08.07-.77.66-.6-.6-.45-.45-.93-.63,0-.88.48-2,.1-.77,1.06-.89-.42-.2-.47-.87-.09-.93-.91h-.42l.25.46.25,1.74,1.24,1.34,1.07,1.29Zm27.17,210.43H442.9l.47-.62-.89,0-.34-.7.19-1.17-1.11.42-1.3-.09-3.85,1.23-1.69,1-.05.85,1.07.7h1.69l.5-.13,1.31.15.89-.37.58.72.71-.06.14-.45.76,0,.47-.7,2.64.27.89-.89-1-.45ZM278,1611.51l-.24-2-.46,3.16S278,1611.51,278,1611.51Zm88.65-84.44.55.71,1.18-.29-1.08-1.24S366.52,1527.12,366.6,1527.07Zm.51,5-.2-1.55-.75-1,.19,2.13Zm45.28-35,1.67.3-.19-.44-1.23-.38-.7-2.58-1,.54.19.24,0,.78.35.15v.39l-.71-.18-.48.1,0,.81,1.54.34Z" fill="#d71a35" stroke="#000" stroke-miterlimit="10" stroke-width="0.05"/><polygon id="KUWAIT" points="210.87 1287.87 206.23 1286.33 200.43 1289.23 197.81 1295.81 195.09 1301.47 196.87 1301.43 209.08 1304.68 210.03 1309.5 217.94 1305.44 216.49 1303.77 216.98 1303.45 217.47 1303.43 215.9 1301.79 215.73 1299.6 214.76 1297.64 214.19 1298.86 208.88 1295.66 216.41 1293.88 214.89 1288.04 215.19 1287.31 213.88 1286.81 210.87 1287.87" fill="#da1a35" stroke="#000" stroke-miterlimit="10" stroke-width="0.05"/><polygon id="USA" points="209.08 1304.68 196.87 1301.43 195.09 1301.47 170.21 1302 106.88 1261.48 94.44 1260.43 89.88 1265.55 70.49 1272.4 85.96 1288.02 80.68 1294.9 80.45 1298.72 70.42 1300.63 61.24 1310.31 47.77 1307.01 43.68 1307.34 43.5 1312.21 43.91 1317.8 42.66 1321.64 43.01 1323.02 44.88 1322.26 45.52 1323.23 47.17 1321.97 50.23 1323.55 49.44 1324.09 55.48 1330.36 56.19 1333.12 57.5 1333.67 58.11 1336.35 61.1 1338.84 62.5 1338.87 66.54 1345.23 66.72 1347.32 67.8 1349.57 69.91 1349.89 70.64 1353.16 72 1354.91 75.04 1356.09 77.68 1362.3 79.63 1363.52 80.57 1367.49 79.84 1369.21 79.91 1371.11 82.78 1372.99 82.96 1375.18 84.8 1376.22 86.72 1374.13 89.6 1376.33 93.87 1378.08 97.3 1381.34 98.4 1384.19 99.39 1384.36 99.93 1387.64 101.26 1388.69 102.53 1393.14 105.22 1395.33 106.2 1399.9 107.05 1401.32 106.22 1405.69 105.27 1406.63 106.33 1408.68 107.81 1413.42 108.55 1418.41 111.01 1420.41 111.48 1422.24 118.47 1429.16 120.75 1430 123.42 1430.13 125.32 1432.65 126.61 1432.6 130.63 1435.75 130.8 1437.73 134.12 1438.2 133.79 1440.13 135.51 1440.76 139.04 1452.02 141.9 1453.61 142.23 1457 152.59 1466.69 154.09 1466.63 155.2 1472.29 159.44 1473.33 162.04 1480 164.39 1480.14 166.43 1480.92 167.76 1478.2 171.18 1475.8 168.63 1471.41 170.11 1465.08 173.58 1463.42 177.68 1466.51 185.97 1466.47 197.47 1470.61 209.46 1475.88 210.49 1487.83 233.22 1454.5 282.54 1437.7 319.62 1425.09 320.43 1396.25 316.98 1385.7 317.02 1385.57 312.75 1389.87 273.87 1385.42 270.62 1375.25 267.32 1371.61 267.23 1367.05 267.15 1367.02 266.46 1367.33 265.19 1365.3 265.24 1363.99 266.38 1362.45 264.19 1362.73 263.82 1362.12 261.63 1362.2 257.27 1360.09 256.67 1358.86 255.97 1359.34 253.65 1356.33 252.92 1352.96 245.92 1344.83 244.1 1341.7 245.61 1342.05 245.56 1340.55 242.92 1334.25 242.87 1332.76 241.08 1330.23 239.87 1330.27 235.35 1324.24 233.75 1324.21 231.77 1322.18 231.94 1321.27 232.73 1321.05 233.86 1321.71 232.7 1320.15 230.48 1319.83 225.96 1318.9 223.21 1312.31 221.69 1309.18 219.95 1308.34 219.87 1306.14 218.99 1306.68 217.94 1305.44 210.03 1309.5 209.08 1304.68" fill="#da1a35" stroke="#000" stroke-miterlimit="10" stroke-width="0.05"/><polygon points="844.61 1236.16 844.54 1235.68 841.92 1237.13 838.99 1237.17 836.6 1237.87 834.65 1237.4 831.99 1238.52 829.94 1238.82 828.9 1240.13 829.16 1240.96 830.34 1241.02 829.57 1241.73 830.91 1241.31 831.52 1240.71 833.57 1240.6 835.46 1240.03 838.52 1239.97 839.93 1239.16 842.59 1239.26 843.26 1238.64 844.05 1238.8 846.56 1238.01 847.57 1237.07 846.03 1237.61 845.05 1237.17 843.23 1237.94 843.9 1236.96 844.61 1236.16" fill="#da1a35" stroke="#000" stroke-miterlimit="10" stroke-width="0.05"/><polygon points="442.37 1322.49 442.03 1323.23 473.74 1337.73 500.41 1338.54 500.59 1335.13 515.67 1335.61 517.42 1336.68 518.9 1338.81 519.71 1339.78 519.88 1340.63 520.85 1340.66 521.7 1341.9 521.39 1342.82 522.84 1343.35 524.26 1344.54 524.15 1345.37 523.68 1346.09 524.83 1346.42 526.11 1347.26 526.95 1348.62 527.15 1350.67 527.79 1351.44 528.33 1351.55 528.63 1352.25 529.71 1353.27 529.77 1354.68 529.24 1355.09 528.16 1355.35 528.16 1356.03 529.77 1357.95 531.05 1359.47 531.47 1360.78 531.4 1361.29 531.97 1361.27 532.75 1362.04 533.33 1362.01 534.23 1362.37 534.56 1363.04 534.68 1363.63 535.3 1364.27 536.36 1364.29 538.26 1365.25 538.52 1365.88 540.08 1366.4 541.97 1367.36 542.52 1368 543.31 1368.13 544.19 1367.78 544.37 1367.19 545.7 1366.13 546.63 1365.88 546.83 1365.1 546.64 1364.61 547.45 1363.58 548.8 1361.06 549.77 1360.09 550.85 1359.7 551.54 1359.87 551.73 1360.16 552.46 1360.02 552.99 1358.9 554.67 1358.92 556.27 1359.15 558.04 1359.02 558.74 1359.37 559.14 1359.91 560.34 1359.69 561.58 1360.31 562.39 1361.69 564.2 1363.21 565.65 1365.44 566.36 1367.39 566.86 1368.2 567.1 1369.61 567.23 1371.81 568.24 1372.31 568.71 1373.59 569.92 1376.99 570.7 1377.5 571.1 1378.68 572.55 1379.45 572.99 1381.28 573.86 1382.83 575.41 1384.45 575.24 1386.1 575.06 1387.83 575.06 1388.31 575.21 1388.87 577.09 1394.33 576.99 1396.75 577.78 1397.69 578.01 1397.94 579.1 1398.35 580.28 1398.18 581.46 1398.84 582.98 1400.34 586.04 1401.37 587.79 1402.25 589.48 1402.65 590.05 1403.79 590.87 1404.2 591.82 1401.44 592.42 1399.43 591.95 1398.15 592.15 1394.12 591.35 1392.71 592.42 1390.42 593.23 1387.74 594.51 1385.92 593.9 1382.37 595.24 1381.76 597.13 1380.28 596.05 1379.07 597.73 1376.99 598.67 1377.59 600.35 1376.79 600.22 1374.44 601.22 1375.24 603.17 1374.51 602.16 1373.56 603.91 1372.56 604.58 1373.03 605.45 1372.56 606.86 1373.56 605.25 1374.98 606.53 1374.84 608.27 1373.36 609.49 1373.43 613.45 1371.48 616.4 1368.8 617.61 1368.8 618.82 1367.78 618.42 1365.9 618.49 1364.03 617.41 1361.27 618.42 1362.61 619.36 1362.61 621.18 1361.07 621.31 1359.93 621.98 1361.88 620.9 1363.35 621.38 1364.77 621.04 1366.44 623.12 1366.18 624.66 1363.96 626.01 1363.82 627.29 1362.95 630.44 1362.28 632.86 1362.28 637.23 1363.35 637.97 1364.23 643.34 1364.77 645 1364.54 644.7 1363.39 644.83 1362.44 646.72 1361.74 647.73 1362.18 647.02 1363.26 648.03 1363.6 649.31 1363.12 649.91 1363.8 649.91 1365.18 650.49 1365.88 652.37 1365.68 653.01 1366.69 651.76 1367.67 651.02 1368.61 652 1369.06 653.55 1368.79 654.83 1369.56 657.15 1370.27 658.09 1369.19 659.47 1368.18 661.02 1369.29 661.75 1370.47 663.16 1369.66 663.23 1367.39 662.42 1365.84 664.1 1365.7 665.44 1367.71 666.78 1368.26 667.73 1369.54 668.8 1369.4 669.74 1370 669.81 1371.82 670.41 1370.68 671.82 1370.27 671.96 1369.66 669.74 1367.99 666.78 1366.98 666.25 1365.64 666.18 1364.03 669.14 1362.89 669.74 1362.21 668.13 1361.54 667.46 1360.67 666.85 1360.53 665.78 1361.61 664.57 1362.08 664.57 1360.8 666.25 1359.06 669.33 1357.78 670.88 1356.44 676.39 1355.43 678.47 1355.77 679.61 1355.36 680.96 1355.63 681.83 1354.15 682.64 1352.55 683.78 1352.73 683.51 1353.95 683.58 1355.02 685.39 1356.57 686.87 1355.96 689.49 1356.1 690.83 1355.54 691.92 1356.31 694.71 1355.94 695.55 1356.38 697.6 1354.93 699.62 1355.06 700.06 1355.64 698.95 1355.98 696.76 1355.84 696.42 1356.31 698.85 1356.65 701.24 1356.65 702.68 1357.93 704.1 1358.74 703.19 1357.49 703.42 1356.65 704.23 1356.75 704.57 1357.73 706.32 1358.97 706.02 1359.58 704.8 1359.01 704.5 1359.11 706.79 1360.69 707.7 1362.01 708.17 1362.89 707.73 1363.05 707.46 1362.44 707.23 1363.16 707.66 1363.83 710.36 1363.43 712.07 1363.22 714.46 1360.83 715.23 1361.17 715.54 1360.86 715.54 1360.42 716.78 1359.45 718.64 1359.14 719.85 1359.82 721.97 1360.56 722.9 1363.8 723.88 1364.77 724.52 1364.98 724.76 1366.89 726.11 1367.87 726.91 1367.87 726.85 1368.54 727.69 1369.89 729.07 1370.13 730.28 1372.46 730.11 1374.61 728.86 1378.96 727.05 1382.37 726.98 1383.75 728.09 1385.64 728.59 1385.17 729.67 1383.65 729.33 1382.87 730.04 1382.3 731.39 1382.87 731.45 1384.59 729.17 1387.86 729.71 1389.01 729.84 1390.79 730.99 1392.14 731.36 1393.05 732.1 1392.85 732.57 1394.57 733.17 1393.73 733.17 1392.95 733.91 1393.49 735.66 1393.02 734.28 1394.37 733.95 1395.92 733.2 1396.8 733.37 1397.9 735.66 1399.66 735.93 1401.54 735.83 1404.01 736.53 1404.65 738.12 1404.72 738.79 1405.96 738.55 1407.54 740.81 1409.37 739.74 1409.84 741.69 1410.38 742.56 1411.52 744.3 1411.99 746.05 1411.39 747.6 1410.85 747.87 1408.5 749.01 1406.81 749.88 1404.6 751.49 1401.31 751.29 1399.7 751.76 1398.82 752.1 1395.54 751.63 1394.86 752.7 1393.78 752.1 1391.03 750.21 1389.82 749.21 1383.84 748.54 1382.9 748.8 1380.08 749.61 1377.93 748.94 1376.25 747.73 1374.64 746.79 1370.14 745.98 1368.46 745.58 1364.43 744.57 1361.88 745.11 1357.85 744.84 1355.22 745.31 1349.45 745.31 1346.29 746.65 1343.6 748.27 1340.98 749.81 1340.58 750.62 1339.44 751.42 1339.31 752.7 1337.49 752.9 1335.95 752.23 1335.47 752.76 1335.01 754.99 1335.01 755.32 1333.86 757.13 1334 757.6 1333 760.43 1332.65 761.43 1331.31 763.38 1331.51 763.85 1330.64 764.86 1330.37 765.93 1330.84 767.54 1329.02 767.68 1327.82 768.62 1327.89 770.1 1326.61 770.1 1325.54 773.59 1320.9 775.41 1319.29 778.09 1318.95 779.03 1319.56 779.84 1319.42 781.38 1316.54 786.08 1312.7 790.45 1310.08 792.73 1309.88 793.34 1309.41 794.48 1309.28 794.68 1309.88 796.3 1309.81 798.04 1307.8 797.37 1307.53 796.97 1306.86 795.29 1308.4 792.94 1308.2 791.53 1306.86 793.21 1307.53 795.69 1306.46 795.29 1305.79 796.23 1304.98 795.63 1304.04 793.41 1303.64 792.4 1302.42 793.68 1302.49 794.95 1303.1 796.23 1302.56 796.43 1301.28 797.17 1303.3 798.45 1303.1 799.72 1303.9 800.51 1303.26 801.18 1301.87 803.14 1300.23 803.74 1300.19 804.18 1298.21 803.48 1296.62 803 1296.76 802.03 1298.61 801.93 1299.78 801.02 1299.38 800.75 1296.62 800.01 1296.28 796.24 1296.86 794.39 1297.43 794.73 1296.35 794.79 1293.56 795.43 1293.15 796.34 1295.1 797.52 1295.51 798.46 1294.63 800.95 1293.95 801.39 1293.45 802.6 1293.45 803.17 1292.47 802.84 1290.45 802.06 1289.67 802.13 1288.77 803.1 1289.24 803.82 1287.44 803.35 1285.72 802.48 1284.96 801.2 1285.3 799.59 1284.89 798.85 1282.61 797.73 1282.59 796.23 1282.07 794.95 1280.53 796.5 1281.27 798.79 1281.34 799.72 1283.01 800.87 1283.55 801.6 1282.27 799.25 1280.26 801.2 1280.66 801.33 1279.78 801.94 1279.26 801.4 1277.97 799.39 1276.7 798.58 1274.41 799.45 1274.82 800.06 1276.43 801.4 1276.56 801.94 1274.62 801.67 1273 800.33 1272.2 798.24 1269.65 796.16 1268.84 795.09 1267.09 793.75 1266.49 793.75 1264.88 795.09 1263.06 794.28 1265.01 794.61 1265.95 795.49 1266.02 796.63 1268.1 798.45 1268.37 800.66 1270.99 801.2 1270.86 801.4 1267.23 801.27 1265.41 801.54 1264.13 801.14 1263.06 801.42 1260.35 801.76 1259.27 800.88 1257.96 801.65 1258.06 802.87 1257.18 804.72 1255.7 805.22 1253.94 805.16 1253.4 805.66 1254.11 805.22 1255.87 805.7 1256.47 804.15 1257.42 803.1 1259.41 804.59 1261.87 804.15 1264.53 802.84 1266.45 802.87 1268.2 804.38 1270.12 804.99 1269.38 805.22 1270.16 806.07 1270.09 806.13 1270.5 805.56 1271.37 806.2 1272.69 808.42 1272.65 806.8 1273.53 807.11 1273.96 805.96 1275.45 806.24 1276.63 805.18 1278.42 804.69 1280.47 804.89 1282.27 805.37 1281.54 805.56 1280.66 807.45 1277.3 807.65 1277.97 807.78 1278.72 808.32 1277.97 808.32 1276.83 809.4 1275.02 810.87 1271.26 812.96 1270.05 814.5 1266.55 814.57 1264.2 813.37 1261.09 812.46 1260.11 812.22 1257.59 811.38 1256.69 811.15 1254.79 812.02 1253.04 813.69 1251.5 815.72 1250.47 812.69 1253.75 812.17 1255.12 812.93 1256.47 815.08 1258.63 816.43 1258.29 817.21 1259.14 816.2 1261.63 817.58 1260.62 817.74 1261.13 819.22 1259.27 819.43 1258.09 820.2 1258.13 820.9 1257.05 822.22 1256.64 823.03 1253.85 823.94 1252.8 824.75 1252.8 825.48 1250.84 826.19 1249.67 825.92 1248.82 826.73 1247.07 826.66 1246.4 827.7 1245.09 827.43 1243.95 826.26 1242.98 825.52 1241.73 828 1240.33 828.07 1239.08 829.58 1237.81 831.23 1237.27 834.12 1235.72 836.13 1235.66 839.09 1233.57 840.16 1233.5 840.9 1234.11 844.6 1233.84 846.34 1234.31 848.69 1233.78 852.52 1233.5 853.6 1233.11 852.85 1232.23 853.13 1229.74 853.13 1227.59 855.01 1229.61 855.01 1231.42 854.8 1232.7 856.01 1232.9 857.7 1231.16 859.44 1227.93 860.31 1229.67 860.25 1230.95 861.39 1231.36 865.76 1229.21 866.9 1227.26 866.02 1224.1 865.15 1224.37 865.35 1225.99 864.61 1228.07 861.92 1228.13 861.66 1226.59 860.65 1223.56 858.3 1222.22 858.3 1221.35 861.59 1218.39 861.46 1216.98 860.25 1216.98 860.45 1215.84 861.39 1215.1 861.79 1213.76 862.93 1212.35 864.14 1209.05 867.57 1206.37 868.71 1203.88 869.72 1203.88 870.79 1202.2 870.93 1203.41 872.2 1203.81 873.08 1202.68 874.09 1200.79 874.36 1202.74 875.43 1202.74 876.5 1200.66 877.04 1201.53 878.12 1200.79 879.86 1197.91 882.28 1194.88 881.74 1196.69 882.21 1198.17 883.96 1197.91 885.57 1196.16 887.65 1196.16 888.19 1198.24 889.47 1198.24 891.01 1196.16 892.42 1196.76 893.43 1196.22 895.11 1195.08 896.52 1195.22 898.78 1193.91 899.42 1195.03 901.07 1194.79 902.31 1193.24 900.53 1192.19 899.76 1193.48 898.45 1192.06 899.08 1189.97 895.58 1187.96 895.62 1187.97 895.52 1187.93 895.08 1187.32 895.56 1186.52 895.35 1185.64 895.56 1184.7 895.62 1183.16 894.82 1182.15 894.21 1181.08 893.41 1180.88 893.88 1179.53 895.89 1167.77 895.75 1164.75 892.13 1161.26 891.32 1161.99 888.77 1161.32 886.83 1161.86 885.51 1160.62 884.4 1159.84 883.83 1160.02 882.25 1161.57 881.54 1163.05 878.21 1166.76 876.6 1168.85 876.7 1170.43 874.34 1171.68 874.03 1173.77 873.22 1175.86 870.84 1178.79 869.66 1179.2 866.66 1182.43 866.16 1183.82 865.08 1184.55 863.4 1184.15 862.22 1184.22 861.38 1184.86 860.61 1185.02 858.52 1187.02 831.31 1186.54 828.04 1187.03 826.47 1188.6 824.15 1189.57 822.33 1191.09 818.17 1194.98 815.61 1195.45 813.87 1196.73 806.07 1202.58 788.52 1207.68 787.75 1212.26 783.69 1213.58 751.66 1222.19 750.08 1219.39 751.9 1217.12 755.47 1215.4 756.91 1213.42 757.94 1211.39 758.87 1209.13 759.66 1196.66 753.58 1168.07 747.89 1163.52 745.48 1160.57 708.25 1143.1 706.8 1142.08 704.58 1141.58 703.6 1140.66 699.2 1140.4 698.45 1138.88 697.48 1138 696 1138.94 692.97 1139.01 691.55 1138.37 690.27 1136.96 688.42 1136.46 685.23 1135.44 684.28 1133.35 683.11 1133.35 680.92 1131.63 679.17 1131.8 677.72 1131.33 675.97 1131.8 675.23 1132 674.32 1130.79 672.37 1130.28 672.07 1129.81 670.19 1129.17 669.83 1128.86 668.6 1127.55 668.42 1126.86 666.34 1125.12 664.19 1125.18 662.42 1124.97 420.26 1100.82 421 1104.13 423.01 1105.61 422.81 1106.88 421.19 1108.09 421.46 1109.64 422.81 1110.58 422.2 1111.32 421.13 1112.8 421.73 1113.32 421.87 1114.61 422.74 1115.68 421.19 1117.56 419.65 1118.57 419.11 1120.92 418.04 1121.86 417.97 1123.95 416.96 1125.08 416.36 1126.7 414.34 1128.04 412.8 1127.24 412.26 1126.3 413.61 1124.62 414.01 1125.35 415.22 1124.35 415.48 1125.76 416.09 1125.08 416.16 1122.81 417.23 1120.58 418.64 1119.38 418.44 1117.9 417.5 1118.1 415.55 1119.71 414.88 1120.85 413.4 1120.85 413.47 1119.91 415.22 1118.17 417.16 1117.43 417.7 1116.35 417.1 1115.21 416.22 1115.14 415.35 1115.55 414.48 1113.87 413 1113.13 408.83 1112.86 406.55 1111.38 402.25 1107.63 401.58 1107.82 401.31 1109.7 399.83 1113.13 399.9 1114.81 400.91 1118.23 399.97 1123 400.44 1125.42 400.03 1127.77 400.17 1128.98 401.38 1129.32 401.51 1129.99 400.77 1131.07 399.83 1131.07 399.36 1132.54 400.03 1133.35 401.51 1133.95 400.98 1135.36 400.91 1137.17 399.83 1138.45 399.23 1138.19 398.56 1138.92 398.76 1139.93 401.31 1140.6 403.86 1140.81 405.41 1142.08 407.36 1142.42 408.3 1143.63 408.63 1145.91 407.76 1143.83 406.08 1142.82 404.94 1143.02 403.6 1142.08 400.44 1141.95 399.36 1141.14 398.76 1141.61 398.83 1143.09 396.94 1145.51 396.94 1146.92 397.15 1148.26 395.68 1150.82 394.74 1152.84 392.18 1158.49 391.78 1162.66 389.49 1167.09 388.82 1172.08 387.61 1174.5 385.86 1176.52 384.78 1179.61 383.84 1180.55 383.3 1182.43 380.88 1185.53 380.22 1187.16 380.49 1190.72 379.55 1194.28 379.41 1196.69 380.69 1198.71 379.88 1199.78 379.81 1201.26 380.49 1203.54 380.08 1207.38 379.08 1209.45 378.07 1210.47 378.34 1211.68 378.94 1212.08 378 1214.56 375.25 1216.44 374.24 1218.59 374.24 1220.67 375.85 1222.89 377.33 1226.32 377.46 1230.08 377.13 1232.16 376.05 1233.84 376.05 1234.71 376.86 1236.33 377.06 1238.21 376.26 1239.62 375.92 1240.83 376.32 1241.9 380.22 1247.88 380.49 1249.69 379.95 1250.84 380.42 1252.18 382.57 1254.19 382.9 1255.13 383.64 1255.07 384.11 1255.34 384.11 1253.33 384.18 1251.24 385.39 1251.98 385.86 1251.57 386.06 1252.32 387.54 1252.38 388.01 1253.05 390.36 1253.33 388.68 1253.72 387.07 1254.19 386.4 1253.59 385.59 1253.59 385.46 1254.87 386.19 1255.4 386.46 1257.83 387.07 1259.23 387.67 1260.04 386.13 1259.23 385.32 1257.55 384.52 1257.01 383.85 1257.96 384.05 1259.1 383.17 1259.97 383.38 1260.84 382.9 1262.53 383.11 1264 383.98 1264.47 384.38 1266.29 385.79 1267.16 386.8 1268.17 386.87 1269.65 385.66 1270.99 384.85 1270.86 384.79 1271.66 385.26 1273.61 385.12 1275.36 385.39 1276.49 386.87 1277.57 387.27 1280.8 389.22 1284.96 390.63 1286.91 391.42 1287.52 391.05 1288.16 391.19 1288.66 392.7 1290.38 393.27 1292.3 392.6 1295.13 392.13 1296.66 391.73 1296.92 392.23 1298.47 393.17 1299.15 396.37 1299.12 398.25 1299.65 399.74 1300.56 401.11 1300.82 403.6 1300.82 404.74 1302.09 404.74 1303.7 407.22 1305.05 408.77 1305.11 411.05 1305.79 411.46 1306.79 411.39 1308.4 411.99 1308.74 412.93 1308.67 414.14 1308.4 416.22 1310.56 419.44 1315.46 419.85 1318.28 419.38 1320.57 419.57 1322.07 441.9 1321.68 442.37 1322.49" fill="#da1a35" stroke="#000" stroke-miterlimit="10" stroke-width="0.05"/><polygon points="859.73 1232.34 859.36 1232.83 858.62 1233.37 858.99 1234.08 860.01 1233.99 860.82 1233.2 862.12 1233.22 861.28 1232.33 859.73 1232.34" fill="#da1a35" stroke="#000" stroke-miterlimit="10" stroke-width="0.05"/><g id="NEW_ZEALAND"><polygon points="675.34 1693.32 675.92 1693.41 675.96 1692.77 675.06 1692.84 675.34 1693.32" fill="#da1a35" stroke="#000" stroke-miterlimit="10" stroke-width="0.1"/><polygon points="593.86 1779.31 594.34 1779.18 594.34 1778.44 593.29 1778.39 593.05 1778.83 593.24 1778.97 593.86 1779.31" fill="#da1a35" stroke="#000" stroke-miterlimit="10" stroke-width="0.1"/><polygon points="656.71 1734.49 656.37 1734.49 656.32 1733.75 655.4 1733.54 654.62 1735.01 654.92 1735.33 655.45 1735.49 654.3 1736.3 653.68 1735.66 653.82 1734.92 653.26 1734.94 652.49 1734.72 651.68 1735.24 650.83 1736.42 650.01 1736.01 649.41 1734.19 649.94 1733.79 650.56 1733.06 650.77 1732.44 650.42 1732.3 650.49 1731.77 650.1 1731.38 649.46 1731.89 649 1731.63 648.47 1730.99 648.61 1730.17 649.37 1729.11 648.33 1728.97 646.63 1730.09 645.79 1730.44 644.66 1731.36 644.45 1732.94 643.31 1735.82 642.16 1737.36 641.6 1737.56 640.16 1739.33 639.73 1740.28 638.65 1740.71 637.36 1740.6 636.33 1741.36 635.98 1742.51 635.91 1743.77 635.23 1744.12 634.21 1745.24 634.16 1746.62 633.57 1747.4 633.43 1748.41 631.14 1751.1 628.57 1752.94 627.24 1753.13 625.64 1753.95 625.46 1754.86 624.45 1754.82 622.07 1756.01 620.01 1757.95 618.77 1758.23 616.55 1759.61 616.34 1760.32 616.78 1761.33 616.94 1762.62 615.86 1761.61 615.38 1761.4 614.32 1761.72 613.2 1762 612.64 1761.54 611.68 1761.61 609.69 1763.33 608.95 1764.27 607.42 1765.52 606.43 1765.81 605.33 1767.21 605.05 1768.71 604.87 1767.93 604.32 1767.47 603.51 1768.2 602.76 1768.71 602.78 1770.23 602.23 1770.85 601.65 1770.43 599.8 1772.5 599.27 1772.5 598.69 1773.28 598.58 1775.46 598.1 1776.09 597.61 1774.98 597.11 1774.73 596.65 1775.51 596.22 1775.81 595.12 1777.65 595.21 1778.43 596.17 1779.35 596.63 1779.95 596.17 1780.34 595.12 1780.32 593.8 1780.5 592.31 1782.17 593.07 1782.29 593.67 1782.44 592.98 1782.85 592.8 1784.05 593.67 1784.96 594.23 1785.26 595.84 1785.39 596 1785.75 596.49 1785.82 596.64 1785.07 597.3 1784.98 598.26 1785.45 598.65 1786.45 598.3 1786.89 598.97 1787.49 600 1787.46 600.46 1787.99 600.62 1789.16 601.84 1790.22 602.69 1790.84 601.45 1791.58 602.07 1791.71 603.74 1790.91 603.74 1791.58 604.78 1791.85 606.34 1791.65 608.54 1790.75 610.35 1789.16 611.55 1788.66 611.66 1788.02 611.36 1786.98 612.14 1787.62 611.91 1788.47 613.4 1787.86 613.84 1786.45 614.64 1785.26 616.51 1784.46 618.16 1784.49 618.72 1784.09 618.58 1783.72 617.51 1783.92 618.16 1783.52 618.38 1783.11 618.11 1782.92 619.46 1781.33 620.47 1779.51 620.92 1777.63 621.84 1776.58 624.59 1774.6 625.23 1773.51 625.46 1772.18 626.69 1770.12 627.38 1769.11 627.43 1768.01 628.53 1766.73 629.49 1766.27 629.76 1765.13 630.63 1765.81 631.37 1765.81 631.73 1764.86 632.79 1764.81 633.47 1764.62 634.25 1763.57 634.16 1762.6 633.33 1761.74 634.38 1762.19 634.85 1763.48 635.31 1763.61 636.08 1763.34 636.13 1762.79 636.96 1762.19 637.82 1762.51 637.82 1763.02 636.68 1763.48 638.01 1763.52 638.97 1763.89 639.34 1763.3 639.29 1762.38 639.61 1761.97 639.98 1762.28 639.84 1763.57 640.25 1763.89 640.85 1763.43 641.03 1761.74 640.48 1760.87 639.61 1760.68 639.98 1760.14 639.84 1758.66 640.3 1756.65 641.22 1756.29 642.96 1755.73 644.83 1754.55 645.11 1753.81 646.53 1752.12 646.71 1750.93 648.04 1749.55 649.05 1749.65 648.91 1749.14 651.16 1746.85 651.34 1746.12 654.64 1743.26 655.79 1742.58 655.14 1742.37 655.01 1741.13 654.48 1739.89 654.57 1738.78 654.89 1737.72 655.31 1737.84 656.5 1736.2 655.53 1736.48 654.64 1736.62 655.97 1735.82 656.71 1734.49" fill="#da1a35" stroke="#000" stroke-miterlimit="10" stroke-width="0.1"/><polygon points="692.92 1702.4 692.37 1701.66 692.85 1701.5 692.94 1701.14 691.5 1700.86 690.17 1701.73 687.84 1704.15 686.33 1704.29 685.51 1704.71 684.37 1704.2 681.8 1701.55 681.02 1701.68 680.06 1700.31 679.69 1699.44 680.33 1698.75 680.56 1697.33 679.6 1695.36 679.6 1694.36 679.19 1693.67 679.32 1692.43 679.65 1691.56 679 1691.42 678.82 1690.01 678.5 1689.22 678.04 1689.54 677.04 1688.95 676.72 1689.46 677.63 1690.37 677.59 1691.61 677.77 1692.07 676.8 1692.98 676.85 1693.85 677.68 1694.9 677.68 1695.63 676.67 1695.96 675.94 1695.13 675.8 1694.08 674.52 1693.89 674.52 1693.3 673.51 1692.85 672.73 1692.98 672.64 1692.34 673.6 1691.79 673.97 1690.92 672.96 1690.1 673.7 1688.68 674.65 1688.45 674.93 1687.16 674.52 1686.2 674.79 1685.52 674.38 1684.45 674.47 1683.04 673.14 1682.08 673.28 1681.43 674.06 1681.9 675.11 1681.67 675.34 1680.29 675.8 1679.84 675.8 1678.05 675.34 1676.4 675.52 1675.35 674.97 1675.57 673.46 1676.22 672.32 1675.07 673 1674.48 672.32 1673.84 671.81 1673.74 672.27 1673.01 673.28 1672.55 673.1 1671.87 671.91 1671.59 671.13 1670.86 670.35 1671.18 670.17 1670.08 670.67 1670.08 671.08 1669.34 670.44 1669.25 669.8 1669.71 669.81 1670.36 669.29 1671.28 668.46 1670.91 668.8 1669.9 668.3 1669.05 667.98 1667.41 668.05 1666.32 668.05 1665.92 668.39 1665.78 667.81 1665.14 667.17 1665.58 665.47 1665.46 665.43 1665.85 666.23 1666.75 667.58 1670.04 667.79 1671.21 667.58 1673.33 667.08 1673.85 666.6 1673.85 666.37 1674.2 667.11 1676.84 667.47 1677.21 668.43 1676.52 669.74 1676.52 668.85 1676.8 667.95 1677.87 668.27 1679.41 669.03 1681.16 669.33 1684.38 669.31 1686.31 669.35 1687.64 670.02 1687.32 670.29 1686.19 669.97 1685.41 670.36 1685.07 670.82 1685.78 670.82 1686.86 671.51 1686.77 671.63 1686.24 671.46 1685.85 671.83 1685.76 671.95 1686.65 671.26 1687.87 670.93 1688.88 670.87 1689.5 670.41 1689.64 669.92 1688.91 669.4 1688.91 669.68 1690.81 670.55 1693.27 671.08 1693.45 671.51 1693.22 671.97 1694.06 672.08 1694.65 672.66 1695.09 671.4 1695.94 671.37 1696.4 671.81 1696.84 671.42 1697.71 670.68 1699.89 670.71 1701 670.36 1701.39 671.01 1702.05 670.75 1702.52 669.88 1702.59 669.33 1703.57 669.31 1704.19 670.02 1704.9 669.29 1705.3 668.5 1705.36 667.95 1706.74 667.11 1711.25 666.97 1712.33 666.07 1712.99 665.15 1713.06 664.08 1712.65 662.88 1712.81 660.47 1713.96 659.37 1715.17 659.03 1716.63 659.3 1718.6 660.38 1719.54 662.19 1720.65 663.06 1722.3 664.76 1722.85 665.45 1723.53 665.72 1726.28 665.86 1726.56 665.54 1726.87 665.54 1728.35 664.99 1729.54 662.49 1732.71 660.7 1734.58 658.82 1736.28 658.15 1737.09 658.34 1737.72 659.62 1738.02 659.9 1737.31 660.45 1737.34 660.49 1738.23 660.38 1738.88 660.73 1739.03 661.23 1738.88 661.6 1739.33 661.53 1740.34 661.8 1740.71 662.77 1740.6 665.09 1738.9 667.12 1737.25 669.01 1735.29 670.77 1733.27 672.93 1730.58 674.11 1729.82 674.88 1729.75 675.41 1729.09 675.5 1728.08 675.99 1727.43 677.22 1726.92 678.04 1724.45 679.32 1722.52 679.32 1721.98 679.97 1721.38 679 1720.46 677.95 1720.28 677.13 1720.41 677.99 1719.68 678.77 1719.46 681.62 1716.43 682.86 1715.97 684.91 1716.29 685.97 1716.39 685.76 1717.2 685.9 1718.07 686.95 1717.04 687.71 1716.63 686.22 1716.01 686.38 1714.76 687.18 1712.79 687.89 1711.98 688.95 1712.03 689.25 1712.46 689.8 1711.92 690.47 1710.92 692.12 1708.28 692.1 1707.41 692.05 1706.54 692.53 1705.04 693.52 1703.89 694.62 1703.2 694.44 1702.9 692.92 1702.4" fill="#da1a35" stroke="#000" stroke-miterlimit="10" stroke-width="0.1"/><polygon points="601.24 1793.35 601.38 1792.77 600.67 1793.21 601.24 1793.35" fill="#da1a35" stroke="#000" stroke-miterlimit="10" stroke-width="0.1"/><polygon points="598.21 1793.35 598.92 1793.21 598.99 1792.93 598.78 1792.53 598.24 1791.18 597.13 1790.06 596.03 1790.38 595.85 1791.25 595.94 1792.48 595.6 1793.63 594.65 1793.81 594.65 1794.61 594.15 1794.93 592.91 1796.2 593.1 1796.75 593.7 1796.8 594.63 1795.69 595.05 1795.6 595.41 1795.85 596.08 1795.9 596.74 1795.42 598.1 1794.96 598.55 1795.14 598.95 1794.64 598.86 1794.13 598.28 1793.86 597.77 1793.37 597.36 1793.28 597.94 1793.05 598.21 1793.35" fill="#da1a35" stroke="#000" stroke-miterlimit="10" stroke-width="0.1"/><polygon points="655.73 1731.8 655.97 1731.2 654.97 1730.93 654.25 1731.9 654.19 1732.83 654.05 1733.17 654.34 1733.12 654.92 1732.27 655.73 1731.8" fill="#da1a35" stroke="#000" stroke-miterlimit="10" stroke-width="0.1"/><polygon points="654.88 1733.75 654.31 1733.91 653.78 1734.51 654.37 1734.49 654.88 1733.75" fill="#da1a35" stroke="#000" stroke-miterlimit="10" stroke-width="0.1"/><polygon points="654.02 1733.91 654.07 1733.57 652.78 1734.23 653.45 1734.19 654.02 1733.91" fill="#da1a35" stroke="#000" stroke-miterlimit="10" stroke-width="0.1"/><polygon points="679.2 1687.74 679.04 1687.13 679.43 1686.86 679.04 1686.28 678.95 1685.3 678.21 1687 678.95 1687.91 679.2 1687.74" fill="#da1a35" stroke="#000" stroke-miterlimit="10" stroke-width="0.1"/><polygon points="677.07 1686.79 676.59 1687.02 676.86 1687.41 677.07 1686.79" fill="#da1a35" stroke="#000" stroke-miterlimit="10" stroke-width="0.1"/></g><g id="KUWAIT-2" data-name="KUWAIT"><rect x="177.62" y="1298.15" width="104.89" height="21.2" transform="matrix(1, -0.08, 0.08, 1, -103.3, 22.43)"/><text transform="matrix(1, -0.08, 0.08, 1, 200.65, 1316.85)" font-size="16.01" fill="#fff" font-family="Raleway">KU<tspan x="22.35" y="0" letter-spacing="-0.06em">W</tspan><tspan x="38.2" y="0">AI</tspan><tspan x="53.06" y="0" letter-spacing="-0.03em">T</tspan></text></g><g id="SAUDI_ARABIA"><rect x="67.22" y="1430.83" width="139.77" height="21.2" transform="matrix(1, -0.08, 0.08, 1, -114.15, 15.46)"/><text transform="matrix(1, -0.08, 0.08, 1, 83.92, 1451.36)" font-size="16.01" fill="#fff" font-family="Raleway"><tspan letter-spacing="-0.01em">S</tspan><tspan x="9.57" y="0" letter-spacing="-0.03em">A</tspan><tspan x="19.98" y="0">UDI</tspan><tspan x="47.55" y="0" letter-spacing="-0.03em"> </tspan><tspan x="51.15" y="0">A</tspan><tspan x="62.02" y="0" letter-spacing="-0.01em">R</tspan><tspan x="72.46" y="0">ABI</tspan><tspan x="98.01" y="0" letter-spacing="-0.03em">A</tspan></text></g><g id="NEW_ZEALAND-2" data-name="NEW_ZEALAND"><rect x="625.2" y="1724.29" width="200.12" height="25.42" transform="translate(-136.62 63.58) rotate(-4.59)"/><text transform="matrix(0.96, -0.08, 0.08, 1, 656.16, 1750.03)" font-size="19.95" fill="#fff" font-family="Raleway">NE<tspan x="27.66" y="0" letter-spacing="-0.03em">W</tspan><tspan x="47.83" y="0" xml:space="preserve"> ZEALAND</tspan></text></g><g id="AUSTRALIA-2" data-name="AUSTRALIA"><rect x="415.22" y="1572.98" width="224.8" height="35.25" transform="translate(-124.77 46.97) rotate(-4.56)"/><text transform="matrix(1, -0.08, 0.08, 1, 457.22, 1605.78)" font-size="26.33" fill="#fff" font-family="Raleway"><tspan letter-spacing="-0.03em">A</tspan><tspan x="17.11" y="0">U</tspan><tspan x="36.99" y="0" letter-spacing="-0.01em">S</tspan><tspan x="52.89" y="0" letter-spacing="0em">T</tspan><tspan x="69.06" y="0" letter-spacing="-0.01em">R</tspan><tspan x="86.22" y="0">ALI</tspan><tspan x="126.18" y="0" letter-spacing="-0.03em">A</tspan></text></g><g id="USA-2" data-name="USA"><polygon points="763.78 1114.59 657.55 1122.87 660.82 1163.82 767.05 1155.54 763.78 1114.59"/><text transform="matrix(0.96, -0.08, 0.08, 1, 682.12, 1153.2)" font-size="32.25" fill="#fff" font-family="Raleway">U<tspan x="24.35" y="0" letter-spacing="-0.01em">S</tspan><tspan x="43.63" y="0" letter-spacing="-0.03em">A</tspan></text></g><g id="SWITZERLAND-3" data-name="SWITZERLAND"><rect x="570.07" y="727.51" width="127.94" height="25.33" transform="translate(-19.89 17.51) rotate(-1.56)"/><text transform="translate(589.04 747.92) rotate(-1.56)" font-size="19.13" fill="#fff" font-family="Raleway">S<tspan x="11.71" y="0" letter-spacing="-0.04em">L</tspan><tspan x="22.14" y="0" letter-spacing="-0.02em">O</tspan><tspan x="36.12" y="0">VENI</tspan><tspan x="80.36" y="0" letter-spacing="-0.03em">A</tspan></text></g><polygon points="576.27 724.08 580.94 723.32 588.91 728.18 593.48 728.39 595.69 720.78 603.21 718.04 604.87 712.34 619.3 706.8 629.01 707.94 629.01 699.42 624.15 692.29 618.47 693.43 608.02 697.79 605.7 697.27 602.42 697.3 597.04 699.05 592.19 698.48 586.6 699.97 584.1 696.14 574.05 695.04 570.55 694.23 564.53 701.05 565.73 704.8 562.29 708.99 562.49 716.76 562.85 716.91 567.01 719.45 566.5 722.49 562.65 723.07 562.01 727.13 569.95 727.61 576.27 724.08" fill="#d71a35" stroke="#000" stroke-miterlimit="10" stroke-width="0.05"/><rect x="488.05" y="223.74" width="122.11" height="23.22" transform="translate(-16.97 44.39) rotate(-4.56)"/><text transform="matrix(1, -0.08, 0.08, 1, 507.66, 245.69)" font-size="19.58" fill="#fff" font-family="Raleway"><tspan letter-spacing="-0.02em">S</tspan><tspan x="11.69" y="0">WEDEN</tspan></text></svg>