<svg id="GAMEOVER_MAP"
    xmlns="http://www.w3.org/2000/svg" viewBox="0 0 960 1920">
    <path id="NEDERLANDS" d="M376.56,415l-2.6-.46,4.08-1.25,1.42,2.57-2.26.33Zm3.22-3.4.52,1.44,2.22.76,1-1-3.95-2.16-3.13-.45.54,2Zm-9.84,14.52,3.39.39,2,2.68L378,427l4.29-.32,1.13-1.35,3.27.06,1.67-3.09,7.58,1,2.27,2.88,3.88.44,1.74,3.31,6,.37,1.59,3.94-.57,2.81,3.66,1.62L417,434l2.32-7.29-.57-6.66,3.31-3.21,3.26-4.21,6.13-.77,5.52,1.95,3.43-1.41L438.44,408l3.15-1.77,1.2-4.78,1.62-2.6-2-2.36-5.5-.47-.31-3,2.44-4.14,4.43,2.64,3.19-2.09.58-4.37,2.23-3.69.6-2.48,1.47-1.48.23-.94-4.15-1.87-3-3.44-5.9-4-6.72.27-4.29,2.95-3.57-2-2.53,1.26-5.45-.46-5.73,5-8.63,3.47-1.56-1.39-5,1.33-.79,5.39-4.8,2.89.76,5.41L388.79,396l-2.31,3.68-1.83,2.55L381,404.34l-.22,3.42,4.56,5.16,4.41,1.88-5.08-.59L382,416l-1.68,1.18,1.73,2.78,2.51.64-.09,2.22-4.09-.3-3.27-4.33-3.69-2.31-3.9,1.1,1.12,2.19,3.52.75,2.87,3.42,1.24-.38,3.91,3.36-3.88-2-2.57-.13-5.87-2.73L366,421l-.17.11,2.38,1.49Z" fill="#d71a35" stroke="#000" stroke-miterlimit="10" stroke-width="0.05"/>
    <path id="DENMARK" d="M525.69,321.37l0-.15m24,9.26.52,1.79,2.37-2.69,3.06-.21-.37-2.5-3.39,1Zm-16.4-21.9,1.43,3-.75,4.59,2.21,3.45,2.84.32,5,2,.57,2.12-2.22,2.12,1.44,2.55,3.42.22,2-2.18.19-3.09,4.91-1.39,2.5-1.85-.5-2.83-3.72-3.21.19-1.62,4.93-1.72,2.08-5.16L560,301l-.88-3.85-5.19-.35-6.07.77-2.56,3.73,1.31,2.12,3.2,2.75-.58,2.32-2.27-.85-1.11,1-3.72-3.21.08-2.13-1.8-2.91-2.27,1.23-2.17,3.18-2.77.51Zm27.56-.49-2.15,4.51,3,1.32Zm49.63,24.71-3.18-6.68-3.76-2.89L601.81,329l.65,4.27,6.84,3.24ZM524,320.38l-.71-3.68-2.19-6.63-3.1.13-4.56-3.14-6.93.51L504.92,313l1.71,5.1,3.69,4.84,3.66.92,2.26,1.9,4.44-.32ZM530.07,333l-2.63.67,1.49,2.72,6.13,2.92,6.39.16L544,337l.74,3.53,1,.69.31-3.57,2.48-3.66-.36-3.24-.89.55-3.63-.58-1.84,3.23-2.26-.26-3,.58-3.45-6.32-2.23.33-2.11,2.63Zm39.21,14.51-1.42,3.12,1.11,1.68,4.36,2.07,3.35-3.64,2.59,1.12.55-2-1.55-3.61,1.4-3.61-3.23-1-1.64.62-1.35-1.05-3.5.5-.08,2.78,3.45.73-1.1,1Zm-38.37-94,3.33.3,3.94-2.25-4.84-.55Zm-42.25,11.91-.12,4.66,2.38-.81,4-3.65,1-2.83-3.58-.17Zm36.42,64.45,3.16-4.88s-2.43-2.91-2.55-3.58l-1.8,6-2.2,3.34.57,2.21Zm2.8-92.76-6.65,5.29-6,1.93-4.07,0-3.25,3.87-2.84,4.92-4.71,2.57-4.84-.56L489.38,259l-1.49-1.32-3.25-.21-2,4.67-3.79,3,1.9,2,2.06-.9,4.07,5.86-.29-5.93,1.31-2.94,8-3.85.88.93,3.79-.22,4.73,1.52,3.36-.76,4.35.5,3.54,2,2.55-.83,5.25-7.1-.45-4.79,1-1.84-.46-4.64,3.89-5.43Zm-10.22,94,1.78-1.26-4.72-2.44Zm6.4-30.71-1-5.92-.79,6.07-2.56,3.23,3.56-.34ZM493.8,326.13l2.3,1.41,4-.24-.21-.28,1.5-2.57L498.71,321l-1.7-.19.52-3,2.8-1.91.74-3.34L499,311.29l.5-3,9.15-3.41L507,303.1l3.64-3.18,1.72,1.39,4.78-1.16.52-6.13L516,289.74l3-2.41,4-.07,2.35,3.36,1.66-1,1.62.87,1.77-2,1.79-3.57-3.42-4.69-2.39,1.44-5.24-.77-2.23-3L517,274l-2.14-.75,2.16-2.16.52-4.58-3.91-3.37-6.68-.25-3.39,1.15-3.49-.9-1.88,1.33,3.15,5.5-1.22,1.58,3,4.82-.49,1.32L499.42,276l-3.82.41-.44-2.1,2.67-2.27-1.89-4.52-1.19-.13-4.12,4.5,1.7,3.12-4.58,2.56-2.23-3.17-3.71-.43-2.39-1.65L476,275.17l4.33,4.1-.49,4.24L477.22,281l-1.92.29.2,5.7,2.86,2-.59,5.08,2.25,2.84-6.43,2.19-3.29,6.14,2.32,2.33,4-1.6,4.55,5.16.24,6.89-2,1,.54,3.55,5.92.39Z" fill="#d71a35" stroke="#000" stroke-miterlimit="10" stroke-width="0.05"/>
    <path id="FRANCE" d="M431.18,640.84l1,5-.82,0-15.29,8.89-4.46,4.46.6,2.31-4.64,3.07L397.6,663l-3.35-3.64-12.59-10-3.25,0-3.71,2.32-3.72-.43-5.06-3.84-5-1.27-2.32-2.15-2.57-.12-8.76,7.41-5.59,4-.95,3.67-2.56,7.44.94,6.62v2.19l-2.71-1.26-6.91-5.38-10.6-.23-6.05-4.3-6.21,0L303,661.3l-10.21-.84L288.45,664l-2.88-1.95-6.16-.54L275,655.79l-4.76,1.58-3.68-5-8.48-4.56-6.7.05,1.05-3.48-.27-4.78-2.69-.81-.35-1.18L245.51,635l5.53-2.48,5.58-12.76,2.93-15.11,3.15-1.87L259.41,600l.77-8.14,3.48-10.94,2.38-1.28,4.31,2.9.89,5.6,5.13,6.26-3.8-13.31-6.18-6-3.62-1.27,1.45-3.78,1.08-.4,2.2-4.22L265.84,562l.62-3.88-4.9-3.65L256.23,553l-4.8-7.59-3.66-1-.52-3,2.46-3.49-.34-4.52-2.25-1.28,2.94-3.27,4.09.3,3.34,2.45L255,527.42l-4.51-1L246,528.6l-2.69-.49-1.67-3.45,2.19-4.2L241.88,518l-4,1.78-1-1.67,1.13-2.44-2.14-.77L232,517.72l-4.55-3.79-2.88-.33-1.24-2.71-6.78-3.71-2.78.2-3.11-1.22-4.93,2.53.82-2.66-1.15-4.93-3.9-.45,0-1.2,4.24-1.07,2.66-.72-.34-3-2.6-1.33-1.73,3.07-1-4.42,2.58,0,4.15,1.34-.85-1.65L204.74,490l-4.05.9-1.37-3.07,3.46-3.21,6.84.27,3.21-2.55,4.64,0,2,1.77,2.81-2.07,2.06,1.43,4.68-3.41,5.4-.58,3.43,1.59,5.32,9,5.37-3.5,1.35,1.69,4-.56,3.12,1.22,3.52-.8,7.68,1.9-.06-3.94-2-3.33,1.23-3.28-.62-3.51,1.61-2-6.65-7.81,1.09-2.11-.94-5.27,2.26,1.29,5.23.79,3.88-.93,3.36,2.1-1.76,3.4,2.62,2.53,1,3.21,3.44-1.49,3.66,2.49,8.68,2.19,6.59-.62,5.69-3.12-3.75-1.8L301.6,466l2.48-3.67,9-3.6,3.91,1.83,3.74.26,7.36-1.22.31-2.71,7.16-5.53,2.32-8.15-.43-5.37,2-4.23,6.87-3,1.69,1.74,8.27-1.79.81-1.16,2.37,2.21.07,7.86,4.94,2.53.38,3.79,5.7,5.9,2.77.15,2.48,2.58,2.91,1.8-.38,6.18,4.4,3,2.61-1.34,2.75.32,1.66,2.48,2.84,1,4.43,7.05,4.49.85,3.69,3.37,2.08-1.06,3.23.37.33,0,2.09,4.49,5.54,1.78,3.32-.44,3.82,3.7-.32,2.75,3.51,3.68,3.86-.86,3.88.45,2.77,1.45,4.19-.83,5,3,4.21.49,4,3.4-5.61,4.59-3.2,6.51-.38,3.39-3.4,2.56L441.06,526l-.42,6.49,3.59,2.85,1.6,4.61-7.52,1.42-4-.95-1-3.06-5.2-.26-3.3,3.22,4.4,2.95.31,4.3-4.24,1.3-5,5.16-3.54.91-6.87,8.54-1.75,6.66-.43,4.37-2.64-.47-2.73,1,.08,3.61,4.78,1,5.76-1.62-1.47-5.74,3.38-2.39L421.5,571l1.77,4.47,1,5.67,2.34,2.39.27,3.84-.34-.18-2.2,2,0,5.57,3.76,4.36L426,606.5l-5.25,0-3.63,3.19,4.83,6.46-.37,11.75,6.55,5.68,6.79.78Zm17,49.91.47,3.3,3,2.07-.2,1.69-1.8.83,1.09,2.36,2.86,2-.53,3,1.54.18,1,2.16-1.67-.53-1.8,2.2.95,2.17,6.45,3.66,4.49-1.54,3.16-6.84.5-5.79,3.92-10-1.35-9.26,1.16-5.71-.44-6.57-2.2-.25-1.3,3.8,1,3-1.14,4-1.69-.2-2.39-3.2-3,2.4-7.05,1.61-3.69,5.06,2.29,2.66L450.7,691Z" fill="#d71a35" stroke="#000" stroke-miterlimit="10" stroke-width="0.05"/>
    <path id="GERMANY" d="M451.5,377.39l.23-.94.41.19-.54-4.35-4.8-1.41-1.59-4.13,1.36-4.31,10.31-1.56,3-1,4.51,4.12-.58,5.07,3.23,4.84,2.47-2.12-1.59-4.13.37-3.22,2.13-.61,2.9,3.25-.93,5,4.28,6.16-1.55-4.47.56-6.46-.42-3.82,3.23-4.1,3.62-.26,3.35,2.27,4.95-1.31,6.19,8.57,9.49,3-8.79-4.9-6.19-8.16-5.38-1-2.83-2.2.37-3.22,3.86-2.31-3.79-3,.61-5.24-4.1,1.25.3-3.92,3.73.43,4.23-1.06-4.38-5.14.71-3.18-2.36-.45-2.82-2.38.78-3.68-.15-1,5.92.39,8,3.2,2.3,1.41,4-.24,3.79,5.16,4.36,1-3,4.81-2.45,2,.89,2.68,3.44,1.43.92,3.9,3.75-2.15,1.45-2.22,2.26-1L517,345.4l5.18,4.71,1.37-1.46,3.87-2.38,1.67,1.21-.35,3.81-3.37,3.21-2.65-.74L518.44,356l5.46,2.35,2.12-.69,4,.86,1.16,2.63,4.7.11,1.12-3.12,3.63-3.95,8.36-.33.46-2,4.74-1.76.78-2.23,2.07-.79,5.76,1.26-4.87,1.32-1.89,1.6-.69-.68-2.59,2.08,1.5,1.89,5-2.7,5,.06,2.14-.78,1.26,2.55,3.8,1.12,5,6.23,4.68-.32,2.1,4.18-1.34,4.15,3.7,3.69,3.78-.09,2.44,2.7,4.09.24L597,385.91l-1.51,7.37-6.66,2.5-.35,3.06,6.08,8.23-1.32,4.43,2.75,4.58-.39,3.39,1.39,4.9L594.79,428l3,9.67,2.79,2,2.28,3.78-1.06,12-1.45,1.81-1,1.25-3-2-3.14,1.61-6.77-2.41-.46,4-4,1.83-3.13-1.17-7.46-.7-2.83,3.43-4.87-.39-4.93,4.5-3.91-.12-8.75,6.37-3.51-2.22-1.94-2-2.12,1.23-.13,3.35,5.49,4.24,3.86,7.83-1,5.39.84,3.46,4.08,2.94,7.1,6.15,4,3.41,7.79,11.41-.05.15-1.24,4-.28,4.48-3.56-.4-3.1,4.16-5.45,2-6.85,6.9-.34,2.9,5.18,3.39.15,4.27-2.44,1.35L548,548.28l-5.18.88-5-2-3.6.07-7.65,3.87-4,.37-3.42-1.55-4,.54-3-2.49-6-1.67-6.06.12.12,3.12-1.65,1.62L493.06,549l-2.68-3.74-4.18,1-2.74,1-1.16-.11-2.07-1.78-5.63-5.22-3.05-.51-2.49,1.82-2.65-1.1-1.12-4.55-4.71,1.09.17,2.81-1.93,2.56-5.26-2.59-4.3,1.81L445.71,540l.12,0-1.6-4.61-3.59-2.85.42-6.49,3.16-7.49,3.4-2.56.38-3.39,3.2-6.51,5.61-4.59-4-3.4-4.21-.49-5-3-4.19.83-2.77-1.45-3.88-.45-3.86.86-3.51-3.68.32-2.75-3.82-3.7h-.1l1.22-7.07-2.18-2.39-.41-4.95-4.56-7.24-1.46-.17,3.3-5.83-2.27-4.5.47-2.73L413.26,442l1.82-3.06-.54-.24L417,434l2.32-7.29-.57-6.66,3.31-3.21,3.26-4.21,6.13-.77,5.52,1.95,3.43-1.41L438.44,408l3.15-1.77,1.2-4.78,1.62-2.6-2-2.36-5.5-.47-.31-3,2.44-4.14,4.43,2.64,3.19-2.09.58-4.37,2.23-3.69.6-2.48Z" fill="#d71a35" stroke="#000" stroke-miterlimit="10" stroke-width="0.05"/>
    <path id="SWITZERLAND" d="M505.64,565l-5,4.86,1.45,7.37-8.95.94-1.95,8.28-3.49-3.67-3.93-.12L474.33,579l-.7,6.16-5.46,7.55-1.74-4.78-6.7-4.37,1.23-5.11-4.8-3.83-9.67,13L441,584.31l-9.47,5.46-4.61-2.36-.27-3.84-2.34-2.39-1-5.67L421.5,571,414.91,570l-3.38,2.39,1.47,5.74-5.76,1.62-4.78-1-.08-3.61,2.73-1,2.64.47.43-4.37,1.75-6.66L416.8,555l3.54-.91,5-5.16,4.24-1.3-.31-4.3-4.4-2.95,3.3-3.22,5.2.26,1,3.06,4,.95,7.4-1.4,3.55,1.52,4.3-1.81,5.26,2.59,1.93-2.56-.17-2.81,4.71-1.09,1.12,4.55,2.65,1.1,2.49-1.82,3.05.51,5.63,5.22,4.61,4-.75,3.68-1.63,2.76,1.15,2.75,2.28.39,3.51.59,2.88-.8,4.15,5.06,4.27-3.11,3.56.41Z" fill="#d71a35" stroke="#000" stroke-miterlimit="10" stroke-width="0.05"/>
    <path id="UK" d="M201.51,223.39l.9,2.62-1.68,1.21-1.38-3.72ZM205,260.73l4.25-7.11-8.44,6.22,1.06,4.22Zm.11-57-2.32.78-.07,5.06-4.37-3.8-.19,3.9-1.42-1.2-1.88,1.45,3.73,3.46.35-1.62,1.48,1.4-.76,1.3,2.36,5.67,5.23.05-.15,4.34,1.81-.05,1.72-3.73,3.25-1.4L212.35,218l-2.61.24-4.21-2.91,1.37-7.43Zm62.23-40.09-2.15.1,1.56,2.1Zm55.14,249.68-1.66.69,2.5,1.66,2.38-.34-1.12-1.73ZM195.84,195l-2,.74-1.05,1.72-1.63.68,2.55,2.47,5.42-3.77Zm4,60-.34-2.31-1.84,4.07Zm-13-13.57,4.24-2.49-3.53-.66Zm12.63-53.87L195,184.93l-2.82,2.82,2.08,2.76-2.12,1.32,1.84,2,3.89-.19,3.77,1.46,3.26-3.64-1.23-1.18,1.64-3.13,4.22-3.11,0-5.84-10.81,6Zm-15.39,19.56-.16,1.37,2.67,1.44,1.55-3Zm78.43-39-.11,3.22,4.21-.06L268.7,173l.48-3.35-4.89-.1,1.82-1.71L263.78,165l-3.33-.12-.47,4,1.26,1.8Zm-50.37,40.71.12,5-.28,1.62,5.7-.24-3.86,1.41-.52,1,1.1.87,3.69-.9-.94.8,1.22,2L215.85,219l-1.13.58-1,2.31,1.32,1.19-2.15.09-1.6,1.92,2.35,1.12.34,1.94-3.83-2-1.07,2.57,1.48,1.3-1.13,1.64-2.05,1.16-3.94-.36-1.89,1.59,1.37,1.09,3.36.17,2.16.92-.62.93-2.57-.29,3.08,3.66,1.15-.31,1.57,2.1,10.12-8.13-1.76,2.59,1.27,1-2.84.65-2.81,5,.11,1.31-3.41,5,1.11.82-3.11,6.11.12,4.19-2,2.24,1,2.19,1.7-.59-3.4,4.24-1.25,6.32-2.35,1.83,0,1.56,4.76.53-.3-3.35,2.58-4.51.16-2.95,2.81-2.73-1-8.13,1.78.19,6.37-6.08-5,5.89-1,4.6,1.47,1.38.65-2.71,3.07-2,.78,4.44,2.88-4.91-.09-3.67,2-.74-1.29,4.56,4.33,4.14-3.94-1.56-2.14,5.78.43,4.51,2.4.85,1,4-4.06,3.3-4.8,9.23.36,4.41-3-2.42-.35,4.67,3.71,6.71-.71-5.85,3.16-.53,7.17,6.57.68-4.47-2.93-2.95,2.1-.29,5.84,4.66,4.5-.2.22-1.88,4.06.62,1.64-3.66,11,1.73L247.29,297l-5.87,12.11,4.31,10.44,2.9-1.25-.59,5.19,4.06-3.92,4.34,1.18-2.14,5.18,1.27,1-4.8,2.93.66,6.18-2.9,4.3,2.31,3.83,2.89,3.2,2.61.55L254.4,349l-3-.15-2.12-3.9-2.58.66,1.64,3.76,2,1.62L247,349.87l-2.47-3.15-7.39,1.45L234,347.3l-7.79,2.79L221.77,355,216,357.78l-2.67,3,3.46-.22,1.63.79.73-1.93,7.78-1.14-1.12,3.89,2.3,3.05-3,1.75,1.26,3.18,1.73.63-6,8.84-3.69.81-3.87,2.28-1.79-.11-4.91,2.33-3.3-.37-5.75,2.85,4.17,1.07-.1,3.14-3.22,1.12,5.33,1.54-1.52,1.14,2,1.45,3.16-.53,3.79-1.76,6-1.25.2,2.73,4.45,1.63-3.85.6-.67,2.11,6.26.88.14-1.22,3.22-.51,2.8,4.07,2.49,3.75,7.22.72,2-2.65,3.56-1.09,4.87-1.2,2.07-2.39,4.11-1.38L251.23,405l-5.92,4.49-.95,6-3.62-.58-3,.71-3.1-2.18-9.21-2.07-6.81,1-.3,3.36-3.11,2.36-3.64-.39-1.47,7.59-4.31,3.09-1.24,1.87-4.42.3-1.61,4.26-1.87-.19-1.28,2.2L189.67,440l-2.27-1.13-4,2.19-.38,3.35,4,.69.51-3,4.69,1.82,1.58,3.77,2.63-2-.82-1.82,2.55-2.7.9,1.49,3-2.28,1.78.19,1.73-3.11,4,1.57L213,438l2.58.72,2-.82,1.58,2.7,2.23.07,2.75,2.92,3.58.23-.42-2.4,3-1,1-2.07-.33-4,2.74-2.14,2.06,0,1-1.45,8.17-.92,4.12.81,4.44,3.89,1.87-.49,5.21.84,2.7,1.34L265,433l5.12-1.87,3.2,1.3,5-2.57,3.21,1.14,1.73-.07,2.49-1.46.48,1.79,2.61,1.93,3.46-1.78,7.31.72,4.69-.44,4.24,1.95,2.15.67,3.62-2.29,3.73-.3,3.56-2.66,2.23.09,2.23.78-.22-2.56,5.57-3,3.31-.34.63-3.24-.66-2.42,1.32-2.57-5.87-.47-4.34,1.08-2.46.16-3.72-1.84-1.38-.54,1.48-1.11,1.21,0,.46-.72L318,411.1l-3.16.78,4.59-2.48,2.8.6,3.64-1.26-.67-3-3.4-.39,2.79-2,2.08-1.61,1.84,2,3.39-1.9L333.4,400l-1.49-.52L333.1,398l-3.58-.83,1.71-2.25,2.22.85.48,1.81,3-3.16,2.67-.75,1.16-6.43,3.07-5.78-1.59-2.63-.39-5.64-6.81-6.69-10.32-1.68-6.47-.55-1.07,4.79-2,2.57-3-4.17-4-1.48,7.2-5.68.46-4-4.16-8.86-2-.58-4.19-3.11-1.49-3.39-2.34.18-1.67.33-2.61-1.25-1.61-.19,3.14-.42,1.89.73,3.39-.32,1.93,1.16,1.57,2,2.33-.17,2.16.75-5.16-8.17-2.39-3.91,2.11-2.65,1.68-.42-2.78-2-1-2.39-1.25-.31-2.78-6.87-5-3.36-7.29-2.55v-3l-1.59-1.23-1.45-8.38-2.2-4.78-.68-10.57L280.7,279l-2-.22-5.23-10-3.63-1.27-2.61-2.74-4.55-2.43-2.06,1.52-4,2-5.07-2.3-2.55.05-4.08-1.85-1-2.47,2.4,1.59,5,1,4.38-.91,1.67-3.21,4.3.65,4.23-2.51-3.76-2.32v-2.35l-1.46-1.47-5.85,2.31-.8-1.22,4.59-2.63,5.06.91,3.25-2.27.78-2.26,2.19-1.06,3.63-5.44,2.18-2.46-.05-1.91,2.57-3.65-.61-1.46,2.48-5.15,3.91-2.61.39-3.43-4.7-5.4-1.2.72-9-.73-5.4-1.65-1.73,1-2.71-.31-3.25-1.58-2.39-.17-.48,1.17-3.51.65-3.87,1.58-1.43-.26L242,214.1l-.67-.85,3.74-3.43,4.12-5.22-2.7,1.11-3-1.56,2-1,1-2.51,9.48-5.58,3-4,3.09-.72,1.88-3.71-1.32-1.9,2-2.55,0-1.75-4.4-.5-2,1.72-2.7-1.18-4.45,1.42-3.85-.86-3.47,1-1.87-.2-2.15,1.58.64-1.93-1.69-1-4,2.79,1.43-2.71-4.74-2.89-1.2,3-1.85,1.1.18,2.9-1,0-.25,3.55-3.73.37,1.44,3.21-1.89,2.85-1.78-.11,3.88,4.35,1.22,2.92-4.16-2.72-1.77,1.19-3-2.5-.35,1.53.61,2.16-1.19,1.43-1.32-3.54-1.93,3.35,1.48,2.09-1.57,1.66,2.29,3.31,2.54.36-3.11.79Zm-22.75-3.74.54-2.46-5.44-1.23-1.81.76,2.69,3.44Zm-19.89,81.6-1.74,3.74-4.61.12-6,9.47,8.37,9.8,3.31-.27,2-6,2.81-1.64,6.09,4,3.24,8.9,3.16,1,4.45,3.76.88.23,0-3.32,2,.74,3.72-2.39.7-3.06,5.19,1.28,1.17-3.62L201,308.41l1.67-3.3-1-2.72,2.5-.08,1.67,7.95-.23-10-6-1,3.58-2-5.46-10,.05-4.18-3.1-2.18-6.7-1.45-4.56,2.28H180.9l-1.54,1.4-4.31.34-2.43,2Zm49.78,28.94-2.37,5.59,3.82-.2,5.94-4.74-.58-2.42,1.2-3.7Zm-18.86-48.9-1-7.44-6.66,1.88-.57,5.68,4.37-2.12-1,4.24Zm-7.55-29.18,3-1,1.33-3.26Zm25.55,107.89,5.76,3.78,5.72-3.56-3.86,0-1.36-3.91-4.73.08S218.33,345.3,218.39,345.48Zm59.82,86.31-6.28,2.43,2.81.93,2.79,2.58,3-.18.18-1.56,1.72-2.33h-2.23ZM212,270.06l.35,6.57,4,2.21,1.78-4.26L215.88,268ZM206,248.2l4.25-2.49-1.2-3.8-2.76-.74-3.09-4.44-4.39,2.4,5.44,3.48L200.78,244l.69,1.47-4.13,2.33,8.43-.9Zm56.49-73.76-1.18-2.4-2,.21,2,4.15Zm-81.11,45.93-2,2-.44,2.31,3.17-1.49Zm4.78-9.49-2.23-.69-.13,2.59-1.51,2.64.52,3,2.56.9-.43-3.81,1.34-1.94Z" fill="#d71a35" stroke="#000" stroke-miterlimit="10" stroke-width="0.05"/>
    <path id="ITALY" d="M560.5,877.16l6.64,1.79-.3,3.4-2.76,2.34L560,880.36ZM493.26,681l-.29-2.49-1.81-2.75-1.23,1.33-5.15,1.37-2.17,1.8,2.3,1.26,4.81-1.08Zm95.6,146.41,1.53-5.83-2.91-4.46-6.22,4.78-2.35-.62-4.6-3.27L569,822.58l-10.09-1.84-8.61,1.58-5.79-1.87-3.89-3.36-5-.06-3,1.9-1.29-2.21-5.73,1.9-1.51,7.22,4.24,4.95,4.85-.3,7.8,6.73,4.45,1.72,3.71,5.06,9.57,4.87,2.18-1.1,4,3.72.45,3.66,9.86,5.25,4.31-.19.31-5.62,2.51-2.47.06-5-3.43-6,5.32-10.39ZM565.76,596l-1.21-3.75,6-6.84-2.88-3.28-7.51-.21-13.27-4.15-10.26-7.73,1.16-4.45-7.83-.26-4.7-1.84L512.84,569l-7.07-4.08-5.16,5,1.45,7.37-8.95.94-1.95,8.28-3.49-3.67-3.93-.12L474.33,579l-.7,6.16-5.46,7.55-1.74-4.78-6.7-4.37,1.23-5.11-4.8-3.83-9.67,13L441,584.31l-9.47,5.46-5-2.54-2.2,2,0,5.57,3.76,4.36L426,606.5l-5.25,0-3.63,3.19,4.83,6.46-.37,11.75,6.55,5.68,6.79.78-3.69,6.44,1,5,10.94-.66,4.46-4.46.59-3.72,12.26-5.11,14.48,5.62,4.07,3.38,6.35,2.69,1.45,3.79,1,2.54,1.41,3.65,3.31,7.09-.27,3.91,3.3,2.61-.9,6.26,5,3.14,2.91,4.63,5.43,6.47.21,4.13,6.41.91,3.45,5.89.44,3.66,2.76,1.35L529,716.34l8.07,7.63,4.15,1.16,3.43,3,.42,3.82,4.07.47,3.19-2.38,4.36,2.39,4.37.85,3.73,9.36,2.66,2.19,2.65-.73,3.59,1.8-.69,3,3.91.27,4,.82,2.44,4.06-1,4.34-1.22,1.75,2,2.45,4.55.88,1.41,3.94,5.62,2,2.71-1.24,3,2.4,1.21,7.36.24,6.89,2,3.32,1,8.19,2.11,4-.64,4L603.59,807l-1.8-.12-1.36.6.06,4.5-1,4.15-3,2.75-2.88,1.2-1.28,1.59-.22,3.41,4.34,5.49,6.52.2,3.71-4L608,822.1l6.66-4.22,1.71-10.28,4.17-3.48,4-.56,1.88-3-.93-2.17,1.38-5.68L626,790l-5.6-6.66-3.51-.91L615.63,780l.36-3.34,3.48-1.82,1.15-3.3.08-2.91,2.85-2.42,2.15-5.25,2.18-1.05,3.1-.06,4.32,2.72,1.12,2.19,6.9.9,2.28,1.74-.94,3.29,1.4,4.32,2.65,4.26,3.78,2.12.34-1.28,1.32-.83-.13-3.69,2.22-2.53,1.33-5.69-1.36-3.21-3.41-3-7.08-2.71-3.92-5.19-6.28-5.93L619,735.78l-8.24-3-4.58-.52-1.79-3.82.42-2,6-3.26,1.19-3-3.68-2.48-5.52.23-3.45-1.43-8.46-.93-2.68-2.07-4.07-1.29-2.78-3.63-6-5.83-2.64-5.37-3.6-4.61L566.59,688l.37-4.6-1.75-1.22.1-3.94-12.86-16.42-2.3-4-5.08-3.5-9.23-6.39-2-3.65,0-6.53L532,631.86l2.22-1.45,4-4.69-2.6-4.25-1.82-5,2.09-3.2,5-.11,5-3.54,4.91.57,3.6-2.85,3.23-1.18,4.9,1.84-.21-7.76ZM441.33,723.25l.61-2,2.14-1.88-1.61-1.75-1,2.1-1.46.62-.18,2.93Zm-.48,14.56.47,3.48,2.58,2.88-.6,5.24-3.61,3,1,2.86,4.36.86-.21,1.86-3.08,2.9-2.93,7.57,1.54,3.09,1.15,9.41,3,3.94,1.8-.83,2.1,1.28,3.36-1,.92-5,1.71-2.9,4.2.83,2.4,3,2.55.3,2.05-3,1-8.31,1.11-2.28,0-9.1,2.63-7.93-5.17-5.74,5.29-2.66,1.06-3.31-.58-5.4-2.51-3.55-2.54-6.3L464,724.5l-3.54-3.5-3.43,0-9.25,8.74-3.57-.26-4.74-3.63-.56,4.92-1.22,3.12Z" fill="#d71a35" stroke="#000" stroke-miterlimit="10" stroke-width="0.05"/>
    <path id="PORTUGAL" d="M107.42,783.85l-.41,5.26-.16-.06-1.24,1.75-6-.18-7,3-3.93-3-8.89-4.81-7.14,3.82L71.09,788l2-2.34,3.18-8.24,1-11.88,2.81-5-.85-6.12L82,751.68l-5.74-.83-3.76,2.82-1.77-2.43.88-4.7,7-2.47-.91-2.51,1-2.79-4.91,2.34-2.58,3-4.57-.53.19-3.24,4.56-12.69,6.91-7.8.49-4.24,5.91-6.7,1.17-7.24,3.38-5.46,2.74-2.93-2.79-4.1,2.42-6.08-.6-2.3,3.15-13.9-2.51-8,.12-4.73,10.13-.43,3.65,1.48L104.3,660l1.56,3.47,7.89-3,12,4,4.69-3.72L141,663.2v5.56l3.79,7-1.81,4.37-3.24-.37-9.35,7.11.31,5.94L128.39,707,123,711.24l3.43,4.34L119.66,723l-3.81-1.11-5.64.67,4.56,11.67,4.8,3.82-.72,9.09-7.93,6.3,2.49,6.83,4.81.89-1.13,4.13-6,3.9-6.29,9.1Z" fill="#d71a35" stroke="#000" stroke-miterlimit="10" stroke-width="0.05"/>
    <path id="GREECE" d="M819.88,890.2l1.24-1.51,3.64-.89,1.69,1L824.7,891a29.49,29.49,0,0,0-3,1ZM791.26,769.3l-1.86.44-1.76,3.9,2.5.21,1.14.88,3-1.07-.14-2.48Zm37.43,92,1.63,2.34,2.16.34,1.2-1.19,2.66-.92-.29-1.76-1.2-.38-.82.79-2.42-2.47-2.57-.55L825,860.09l-1.15,1.51,2.43-.38Zm-48.89,6.13a18.75,18.75,0,0,0,2.07-.91l.33-2-2-.78Zm1.41,17.73.93-2.28-2.9-.41-2.48,2.84,1.92.46Zm.78-11.81.33-2.92-2.18,1.23Zm-4.33-12.89.56,1.54,2.37-.71-1.36-2.38Zm84.09,39.79,1.67-1,.51-2.24-3,.89-5.33,1.53-5.33,3.49-.57,2.32.61.95-1.4,2.32,1.21,1.61L852,910l2.28-2.2,2.7-2.07,2.12.16.09-1.46,1.42-1.82Zm-114.47-9.35-.39,2.36,2.05,1.35,1.94-3-1.9-3.26-.39-3.08-.88.85-1.49,2.57Zm.66-9-.61,1.81,1.61.22Zm-48.61-40.1-.92,2.37,2.7,3.41,2.44.95.73-1.4,2.72.73-1.48-2.16-1.71-3-2.59-1.61ZM835.6,914.57l1.07,2.93.2,4.62,1.43-.5,2.13-4-1.8-3-.27-2.74Zm-7.12-150.09-.4-5,6.23-2.89,1-5.46L831,748.7l1.61-5.77-2.69-.31-5.8,3.43-.92,5.12,1.34,4.08-3.18,2.1-9.46-1.75-4.6,1.59-3.62-2.7-4.35-.5-3.35,2.08-4.16-.82-.22-3.78-5.83-.51-5.38-1.59-4.3,3.26-5.83.81-7.4-1L760.68,751l-.16.11-3,2.14-4.05-.3-5.54,2.63-11.06-1.77-5,2.06-.55,1.89-6.57,1.54-9.5,4.47-.12.46L713.52,770l-4.3,6-9.2,1.88-.93,5.13-3.82,6.26-3.09,1.19.44.38-.42,6.5,7.46,7,3.83,7.18,2.14.77-.74,2,5.26,9.54.82,6.26,2.75,1.52,4.26-4.14,2.9,4.62,5.16,1.28,2.6-3.13,3.7.77,5.52,4.24,3.75-1.28.31,3.13,2.92.15,2.16,2.14,4.65,1.39L748,842.47l-3.4,2.69-2.75-2.87-4-1.49L729.75,834l-4,.9-4,1.77L718,834.4l-3.69,3.7-2.45.4-2,3.73,4.11,6,4.65,2.93,4.22,5,.14,3.27-2.1,2-.16,4.28,3.48,5.72,2.35,3.37,1.52-2.76-.76-2.31,2.14-3.71,1,5.09,5.64,3.22,1,3.38-1.27,3.63L738,884.6l.72-6.28,2.78-4.83,3.74.43,1.21,4.26,6.12,5.18-2.19-4.89,1-3-1.87-4.7-2.23-7.62-2.2-4.55.36-1.69h2.75l4.61,3.11-1.73,1.68,1.32,1.87,2.87-2.42,4.89,2.28.36-1.67L758.71,860l-.2-1.92-1.73-.7-3.45-2.81.59-2.15-4-3.91,4.45-1.36,3.88.62,2.61-1.76,5.6,4.92.48,1.95,4.17,1,1.49-2.4-3.1-5.87,1.6-5-1.2-3.06-9.6-7.64-3.12-1.2L755.91,826l-2.9-.15-1.59-2.58-4.34-1-4-4.41,4.81-.13,3.08-2.9.11-2.4-4.27-1.7,2.73-2.77.11-2.56,3.27,1.67,2.52,2.6L754.1,812l.08,2.4,2.51-.31,2.12-5.06-2.55-3.89-5.83-9.1-2.62-2.54-.32-3.13-4.75-5,2.13-2.15.17-8.93,3.41-4.23,5.55-.57.17,4.49-2.53-.29.23,2.42,6.58,4,0,5.5,4,4.07,4.93.39-3.28-2.77-1.48-3.62,1-3,4.4,2.06,3,5.32,2.91,1.54,2-2.69-3.11-2.92L770,782.5l.46-2.52,8.27,1.3,2.68,3.39,1.55-1.36-4.25-5-4.84-1.24-3.5-5.2,2.69-2.44,4.23,1.85,3.79-1.61,2.4-5.75,3.32-.81,4.5,4.29,3.7.77,4.55-3.77.43-2.18,1.86.21,2.63,3.91,9.17,1L820.3,770l5-.65Zm11.33,145.57.25-2.19-1.46,1.88.56,1Zm-87.35-93.42L749,819l1.88.62,3.91.29,1.91,2,.72,1.55,1.91,1.13,1.49,2.63,2.69,1,1.45,3,3.8,2.66,2.94.1.92,2,2.33,4.61,1.59,1.92-.69,2.38,1,2.41,3.06,2.57,2-.84,2,1.36L786,846l-3.93-.86-1.4.82L778,842.7l.79-3.27-.37-2.34.11-1.88L777,831.59l-4.72-6-.57.68-2.89-.51-.4-.95-3.56-2.45-3.7-1.91-3-4.11ZM827.6,813l-4.77.19-2.6,1.26L815,815.6l-2.41,3.18,3,3.13,1.36.32,2.14-.24.79-2.62,1.35-2.47,3.26.28-.66,2.74-2,1.31-1.42,1.64,2.9,1.8,4.5.2.61-4.69-.36-3.32-1-.27,1.19-2.42Zm-13.76,30.77,2.22,2.13,3.23-1.12,1.22-3.54-.33-5.61-.94-1.19L816.63,833,813.89,834l-.16,1.45,2.63,2.52-.27,3.33-2.13.58Zm-45.79-27.36-.4-2.9-2.25-1.09-1.41.24,3.16,5.21Zm34.37,61,2.11.32,2.31-2.36-.21-2.41-2-.64-3.49,2.4ZM702.15,821.87l1.56-1.54-.19-3.87-1.58.1-2.4,3.38.08,1.52,1.12.58Zm59.52-10.66-1.81,1,1.3,2.14,1.37-2.07Zm-67.23,17.47-.54,4.7,1.78,2.33,1.28-1.08.34-2.28.93,1.28-.29,2.51,3,.75,2.51,1.77,1.62-2-.76-1.31-.31-2.18-1.72-2.23.79-1.81-1-3.32-2.27-2.39-.68,5.42-1.91-.55ZM684,786.11l-4,1,.07,2.31,2.24,1.24.15,1.32,3.48,4.67,3.45,2.12,1.15-.69-.32-1.59-2.78-1.4L685.23,792l.66-4.36Zm135.71,78.37,1-2.18-4.79.36L815,865l1.24,2Zm-24.57,11.21,1.75,1.94,2.46-2.76-.71-2.38-2.19-.25ZM803,792.06l-1.38-1.47-3.57-.33-1.33,1.57.66,3.52,1.81,1.93,1.84-.11,2.46,1.43,1-4.23,3.1-2.68-2.12-1.47Zm-15,30-1.63-2.24-1.6.39,1.84,4,1.09.45.93,2.66,1.53-.41,0-3.78Zm14.39,45.31,2.15-1-1.87-.79ZM796.53,861l1.62,2.33,2.37,1.42-.09-2.15-1.71-2.09Zm-8.86-10-1.36,1.82,1.83,1.93,4.23,5.24,1.85.3.38-2.42-3.43-3.85-1.45-3Zm-26.25,57-.58,3.17-1.73,2.67v3.42l3.07,1.81,7.59-.09,3,1.15,3.13-.69,4.3,1.79,4.51,3.4.26,3,5.59.41,5-2.38,5.09,1.08,8.28.7,5.66.82,3.46-1.67,1.75-3-.37-3.16.22-1.94-1.43,1.64-.42,2.24-3,2L813,922.4l-2.44.62-2.3-.59.73-2-.82-3-2.17-.18-6-1.51L795.47,913l-6.34-.48-5.64,2.72-4.16.59-3.19-2.17-1.43-2-2.71.09,2.06-1.47-1.31-2.87-3.52-.15.46,1.77,1.1.47-1.42,1-3.35-.22-.42-3.41-1-.45-.62,1.82.31,2.32-1.72.39Zm90-16.75-1.73,1.45,1.88.86,2-.33-.3-1.68Z" fill="#d71a35" stroke="#000" stroke-miterlimit="10" stroke-width="0.05"/>
    <g id="ITALY-2" data-name="ITALY">
        <rect x="540.48" y="747.5" width="92.42" height="25.42" transform="translate(-58.57 49.04) rotate(-4.56)"/>
        <text transform="matrix(1, -0.08, 0.08, 1, 563.13, 768.36)" font-size="19.2" fill="#fff" font-family="Raleway">I<tspan x="4.78" y="0" letter-spacing="-0.07em">T</tspan>
            <tspan x="15.2" y="0">A</tspan>
            <tspan x="28.24" y="0" letter-spacing="-0.12em">L</tspan>
            <tspan x="37.32" y="0" letter-spacing="-0.04em">Y</tspan>
        </text>
    </g>
    <g id="GREECE-2" data-name="GREECE">
        <rect x="801.52" y="805.43" width="125.76" height="25.42" transform="translate(-62.3 71.3) rotate(-4.56)"/>
        <text transform="matrix(1, -0.08, 0.08, 1, 827.56, 827.75)" font-size="19.2" fill="#fff" font-family="Raleway">GREECE</text>
    </g>
    <g id="FRANCE-2" data-name="FRANCE">
        <rect x="186.01" y="568.8" width="125.76" height="25.42" transform="translate(-45.44 21.62) rotate(-4.56)"/>
        <text transform="matrix(1, -0.08, 0.08, 1, 210.34, 590.89)" font-size="19.2" fill="#fff" font-family="Raleway">F<tspan x="11.23" y="0" letter-spacing="-0.01em">R</tspan>
            <tspan x="23.75" y="0" letter-spacing="0em">ANCE</tspan>
        </text>
    </g>
    <g id="PORTUGAL-2" data-name="PORTUGAL">
        <rect x="96.84" y="723.97" width="153.61" height="25.42" transform="translate(-58.01 16.13) rotate(-4.56)"/>
        <text transform="matrix(1, -0.08, 0.08, 1, 121.56, 747.07)" font-size="19.2" fill="#fff" font-family="Raleway">PO<tspan x="26.43" y="0" letter-spacing="-0.02em">R</tspan>
            <tspan x="38.78" y="0">TUGA</tspan>
            <tspan x="91.95" y="0" letter-spacing="-0.03em">L</tspan>
        </text>
    </g>
    <g id="SWITZERLAND-2" data-name="SWITZERLAND">
        <rect x="453.87" y="548.28" width="195.24" height="25.42" transform="translate(-42.85 45.61) rotate(-4.56)"/>
        <text transform="matrix(1, -0.08, 0.08, 1, 483.05, 573.01)" font-size="19.2" fill="#fff" font-family="Raleway">
            <tspan letter-spacing="-0.02em">S</tspan>
            <tspan x="11.46" y="0">WITZERLAND</tspan>
        </text>
    </g>
    <g id="GERMANY-2" data-name="GERMANY">
        <rect x="459.68" y="465.18" width="148.69" height="25.42" transform="translate(-36.3 43.96) rotate(-4.56)"/>
        <text transform="matrix(1, -0.08, 0.08, 1, 486.56, 488.7)" font-size="19.2" fill="#fff" font-family="Raleway">GERMAN<tspan x="83.02" y="0" letter-spacing="-0.04em">Y</tspan>
        </text>
    </g>
    <g id="UK-2" data-name="UK">
        <rect x="101.75" y="348.61" width="227.48" height="25.42" transform="translate(-28.04 18.27) rotate(-4.56)"/>
        <text transform="matrix(0.96, -0.08, 0.08, 1, 132.75, 375.39)" font-size="19.95" fill="#fff" font-family="Raleway">UNITED KINGDOM</text>
    </g>
    <g id="NETHERLANDS">
        <rect x="362.31" y="345.08" width="195.24" height="25.42" transform="matrix(1, -0.08, 0.08, 1, -26.99, 37.69)"/>
        <text transform="matrix(1, -0.08, 0.08, 1, 388.61, 370.46)" font-size="19.2" fill="#fff" font-family="Raleway">NETHERLAN<tspan x="116.21" y="0" letter-spacing="0em">D</tspan>
            <tspan x="129.98" y="0">S</tspan>
        </text>
    </g>
    <g id="DENMARK-2" data-name="DENMARK">
        <rect x="469.43" y="240.71" width="148.36" height="25.42" transform="translate(-18.42 44.01) rotate(-4.56)"/>
        <text transform="matrix(1, -0.08, 0.08, 1, 499.22, 264.14)" font-size="19.2" fill="#fff" font-family="Raleway">DENMAR<tspan x="82.95" y="0" letter-spacing="-0.01em">K</tspan>
        </text>
    </g>
    <path id="AUSTRALIA" d="M481.31,1689.09h0M456.22,1407l1.14-.49,1.93.24.38-1.15-.53-.22-.61.16-.32-.35,1.16-1.21-.17-.31L458,1404l-.07-1.16-.8.42-.22.68-1.13,0,.33.36-.25.33.56,1.61-.74.66Zm113.19,116.58.1-1.77-1.15-2.71-.48-.87-.11-1.48.48-.68,0-1.7,1.19-2.25-.14-.66-.27-4.24.77-1.47-.63-.8-.45-1.47-.05-2.87-.62-.2.71-1.62-1.45-.55-.77-1.41v-1.65l-1.7-1.37-1.13-2-.52-2-1-1.73-.94,0-1.08.53-1-.89-.3-1.87-.72-.3-.21-1-1.82-1.47-.86-.75.35-1.11-1.06-1.72,1.31-1.82.24-2.21-.47-1,.16-1.45-1-.51-.24.78.46.64-.52.8-3.37-2.85-.78-1.68-.59.35,0,1-.34,1.11.85,2.24-1.67-1.88-.74.92-.05-1.37-.65-1.14-.42-4.07.42-.45,0-1-1.41-.82.5-1.23-1.08-.79.29-1.28-2.44-1.95-.72-1.41-.18-1.7,1.34.28-.06-1.43-1.23-2.05-.59.36-1.28-.12-1.51-2h-1.1l-1.37-1.11-.74.86-.63-.81-1.62-.48-1,1,.78-1.36,1.41-.43.08-1-.47-.81-1.65.22-1.27-.06-.42-.86-.71,0-3.1-1.6-1.42-2.6-.38-2.62-.94-1.69v-1.37l.71-.31.49-2.93-1-3.83-1-1.73.76-.41-1-.85-1.1,0-1.49-2.82-.19-3.57.53-.46,0-.78-.69-.8-.5-4.51.34-1.22-.44-1.42.47-.46.13-1-2.62-2.33-1.58-.88.41-.67-1.71-1.59-1.45,1-.74-.47-.76,1.62-1.21.1-1.57-2.2.12-1.21-1-2,.44-2.72-.45-3.23-.59.29-.61-1.3.62-1.28-1.16-1.45-.1-1.27-.79-.46,0-1.83.85-.91-1-.52-1.2.33-1-.84.43-3.5-.47-.76-.52-2-1.56-.28,0-.93-1.69.72-.78,1.19.1,2.59-.69,2.23,0,.61-.28,1.49-.83-.07-.85,2.4-1.2,1.81,1.14,1,1.42,1.06-.86.64-.94-.13-.55,1.45-.72,1.46,1.11,1.66.22,1.22-1.12-.41-.81.65-.52,3.59.75,2.41-.4,2.65.79,1.85-.08,2.16-1.33,1.32.05,1.21-1.39,2.86-.11,4.14-1.22,1.48.5,1.47-.74,2.29-1.27,1.37-.06,2.77-2.2,1.79-4.55,2-1.93-1.25-1.93-.09-1-1.24-1.87-1.35-.08-.89-.52-.64-.51-1.58-1.72-.21-1.45-.55-2.26-.08-2.15-1.24-.43-1.2-1.67-2-1.94-.09-1.75-1-.14-.93-.94-.07-.85-.63-1.6.11-1.33-.28.36-.62-1.88-1.42-.38-1.41-1.95-1.87-1.21-.11-1.67-1.82-.12-1.81,1.29-2.26.26-1.77,1.4-1,.36-2,.56-1.34-1.23,1-1.12-1.94,1.45-1.05-.34-1.53.77,0,.87-.43.4.54,1.34.22,1.78-.89.55-1.68-1.31-1,1-.81,1.06.24.62-2.51.92-.53.94-1.37,0-.71-1.51-.66-.9,1.13-.95-.34-.31-2.47-1.2.6-1.62,2.09.89.36,0,1-1.19.65-1.19-.67-.3-.87-.64-.8-.46,1-1,.31,0-.93.79-.92.31-.73-1,.48-.73.92-1.64.61-.19.61-.87.2-.47-.59-1.38-.06-.08-.66-1.16-1.49-.61-.15-1.67,1-1.23-.46-.7.47-.6-1-.66-.14-.88-1.52-1.63.84-1.77-.21-1.62-.66.06-1-1.15-1.33-.65.19.18.6-2.17.75-.61-1.31-1.22-.39-2-1-.25.56-1-.69-1.17,1,1.48,1.05-.43.4,1.39.28,1.19-.59,2.15,1.68-.12,1,.52,2.3-1.48.17-.49,1.67-.53-1-1.11-.29-1.13.81-4.17.38-1.66-1.32-.19.62-1.63.67.22,1.37-1.39-.23.51,1.91-.52-.69-1.73-.49-.62,1,.7.91-.1.61-1.83-.48-.9,1,.74.75-.76.41-1.18.73.14.9,1.15,1.1.33.8-1.32-.69-1,.92-1.27,0-1.19,2.08-1.07,2.37-.93.3-.36,2-1.13.76,1,1,2.5.35-.93.31-.51,1.07,3,.88-1.14.53-1.88-.15-.64-.86.09.89,1.25.88v1.6l1.34,1.67-1.93-1.42-1.24-2.11-1.39-.11,0,.89-.51,1-.21-1.16-3.16-1.85-2.24.51.75.8-.75.81-.79-.64-.6,0-.63.91,1.09,1.34-.24.84-.24-.6-.71.19,0,.71-1.4.88-2.07.47,1.62-.83,1-1.53-.19-2.26,1.1-1.46-.75-.92-1.22-.12-2.24-3.72-1.16-1.61-2.05-.42-1.42-.83-.86.58.74.69-.81.31-.93,1.53-1-.13.3-.84-1.31.43-.3.9-1.07-2.06-.83-.18-.18,1.21,1.07.57-1.39,1.1-.44,1.5.53.86-1.46,1-.7-1-.82,0-.31-.76,1-1.25-1.11.09-.49,1.57-1.52.44-.61.91-.21,1.6,2.25.55-1.81,1.65-1.46-.72-1.67,1.22.37,1,2.06.2-.67,1.18-1,.27-1.49-1.66-1.17,1.42-1.44.28.34,1.06.32,1,.14.93.87-.35-1,1.48.76,1-1.19.65-.73,1,2.55.34-1.57.9-.31.67-1.39-.28-.81-1-1.18-.73-1.07,1-.53-1-1.41-.83-1,.87,1.86,1.19-.64.36-.72,1.46,1.54,1.27,1.48-.11-.61,1.23,0,1.33-.62-.53-.77,0,.34,1.54-.55,1.67-.15,1.83-2.5-4.87-1.66-3-.87-1.12.32-1.78-.52.85-1.49,1.21-.32,1.94-1.15.32-.13.83-1.44,0-.78,1.13-1.17,1.1.34,1.86.15,3.8.73.35,0,1.32-1.29.77-.73,1.46-1.95.63.19.82-1.66,1.17.12,1.86-.9.91-2.14,3.23-4.25,2.76-3.79.47-1.47.61-2.19.25-1.75.51-1.78-.38-2.22,1-.23,1.34-1.46.76-4.74,0-1.19.75-.33,1.29-2.93,1.32-2.25.09-1.24-.45L309,1463l-.47-.8-1.19.65-1.09,1.8-3.07.68-.24.67-.83,0-2.34,2.23-3.09,1.61-4.08,1.42-1.72,2.6,0,2.32-1.6,1.49-1.18-.72.51-.85-.26-1.15.71-1.85-.11-1.32-2.25,1.86-.47,2.16-1.53,3.2,1.19,2.16-.7,1.85.23,3.35-2.67,3.64-.92,4.83.86,2.45-.25,3.49,2.69,4.19.18,1.65,1.09,1.18-.86,2.18.62,1.9-1.51.67-.71-1.13-.21-2.53-.88,1.41-.46-.48,0-2.32-1.61-3.13-.88,1.63.45,3.18,2.06,1.91,1.48,2.7-2,.41-1.74-2.14-.48-2.58-.62,1.13-.81.48,1.36,2.36,2.65,3,1.64,4.08V1528l1.09,1.33.93,4.1,2.41,5.37-.7,2,.53,8.14-.28,1.12.85,2.23,0,2.53,1.68,3.51.12,1.77-1.34,1.05.75.74-.43,2-.15,3.2-1.22,1.21.42.92-.32,1.94-1.23,1,.35,1.87-2.3,1.91L284,1575l-1.7,2.82.28,4.51,1,.84,1.1,0,3.21,3v1.17l.57.64,1.61.21.75.85,2.1.26.82-.2.47.59,1.6.15,1.86-.45.53,1,.81-.7.45.32,2.08-.46,1.8-.23.2-.9,1.09-.26,1.14-1.86,2.16.2,0-1.27,1.34-.83,1.1,0,1.15,1.12,1.1-1.64.61.25.7-.41.32-1.78,3.93-2.63,1.55.16,1,.57,1.29-.93,3.82-1,.53.75,2.45-.65.74.47,1.16.07,1.47-.61.61,1.53.88,0,1.13-.65.69.75,1.13-.82,2.86-.11-.12,1.22.51.2,1.53-1.6,1.62.38,1.88-1.39.64-1.8.72-.24,1.48-1.6.78-2.63,1.71-1.44,2.07-.68.79.46,3-1.15,3.77-2.52,2.28-2.3,1.08-.47h1.05l1.27-.1,2.18.85,2,0,1.35-.55,2.93,0,4-1.58,2.35-.64L382,1560l1.1,0,2-1.56,3-.34,8-.9,2.62.61h1.76l2.17-.85,1.78.16,2.28,2,1.82,2.86,1.34.39.9-.81.88-.36.69.69.8-.42,1.56.33,1.45,1.76,1.88.26.75-.52,3.28,2.14-.22,1.39h1l1.14,1.11-.4,1.07-1.21,0-.24,1,1.37,2.76,1.33.06,1.54,1.54.58,2-.22,1.56,1.73,3.47-.49,1.61.69.86-.2,1.88-.57,1.13-.9-.53-.42.46,1.21,1.45,1.13.56.61,1.47,1.19-.49,1.3,1v-1.27l-.76-1.13.8-.91.65-1.47,1.15-.26.62-1.23,1.24-.6.34-1.29,1.26-1.75,3-1.66.29-1,.61,0,2.38-1.25.53-2.06,1.81-3.05,2.07-.52.78-1.24-.6-1.52.26-1.78,1,2,.12,1.87.07,1.82-.84,1.19-.29,3.7-3,2.1-.38,1.62-.84,1.18.18,1.66-1.67,2.54.57.69-1.13,3.57-3.48-.25-.64,2-.83,1.57,0,.55,2.13-.63,2.06-1,2.51.79,2.27-4.17.52-3.77,2-2.17.57.64.19,3.48.85,2-.65.24.35,3.46-1.49,3-2.71,1.21.48,1,1.75-.29,1.89,0,.79-.88,1.26-.35,1.49-1.32,1.24.31.93-.18-.69,1.29-.67,1.21-1.32,0-.33.78L454,1601l.6,1.56,1,2.28.21,2.7-.15,3.37-1.74,2,.37.92-.19,2.55,1.31,1,1.18,1.89.42,2.36,2.72,3.37,2,.42,1.42.94.72,1.73,1.5,0,.3-.67.93-.36,1.89.53,1.61,1.82,1.66.1,1.88,1.63.28,1.49,1.45.44,1.56,1.71,1.09-.05.46-1,2.76-1.44.82-1.29,1.76-.12,1.79-1.94,1.36.22.58-.74-.39-.72-1.61-.38.49-1,2.78-2,2.46,1.58,0,1.6-2.85,1.71.74,1.34.91.19,1-1.18,1.15-.94,1.51.77-.08,1.4h-.88l-1.13,1.19,2,2.19.47,2.46.71-.47,1,.07.17,1.48,1.1,1.5,1-1.85-.18-2-1.12.92-.31-.82.84-1,3.58,0,.47.69.47-.84,1.72-2.55,3.66-2.4,2-2-1.1,0-.81.53.32-.45-1.29-.4,1.37-.16,1.88-.07,2.72-.93,5.58-1.32,4.54.71,1.83-1.17,0-1.21,1.33,0,1.33-1,1.17-2.63-.66-2.85-.12-1.54,2.39-2.57-.16-4.3,1.1-1.69.39-2.93,1.41-.72-.17-1.41,4.21-5.69,1.2-.26.66-3,1.68-2.38,1-3.13,1.7-1.84-.25-1.57,1.25-.71,1-2.85-1-.85L546,1578l1.46-2.37.9-1,1-2.41,2.12-.74,1.3-.72-2.2.09.52-.74,2.59-.26,2.25-1.74.42-1.72-.36-.88.27-1.49,2.31-1.92v-1.54l1.62-.72,1.51-2.76-.28-1.36.74-2.24-.63-.69.18-1.17,1.86-4.81.4-2.55,2.46-4.84-.18-1.76,1.25-3.47,1.92-1.73.64-2-.63-2.12,1.16-1.54Zm-77,107.28-.5-.64-.75.34.91.8Zm12.82,22-.8.58.47.92,2.21,0,1.12.4.19-.84-1.54-1.32Zm-48.61-268.92,1,.41.22-1.11L459,1382l-.6-.67-1.43,1.66Zm20.63,46.35.75-.45-.14-.78-1.05.57Zm-21.3-44.66-.13-.79-.7.39Zm4.61,33.39-.86-1.06-.42,1.21.56.9Zm18.35,5.84-1.9-.38-1.75,1.09a5.39,5.39,0,0,0-.28,1l.65.62.86-.34.83-1.14,1.59-.29Zm2,227.82-.36,1.14,1,.54.43-1-.1-1.26Zm-26.06-266.93-.87,0,.44.56Zm27.5,270.64.94.25.67-.72-1-.87-.93.25Zm15.86-280.08.1,1.77.67-.41.72-.08-.56-1.17Zm1.74,258.85-1.26.15.79.5Zm-16.65,17.07-.73.36.09,1.07.82-.12Zm20,6.21-.78,1.36-.39-.26-.83,0-1,.81-.75.53-4.36-.12-.91.65.1,1.32-1.14-1-1.43.12-.91.74-1.4-.93-2.06-1.75-2.59-1.28,0-2.15-.58.74-.19.78L483,1657l-1.35-.62-1.48-1-.43.7-.05,1.68-.43.35.06,1.51.44,2.84-.29,1.86.29,3.19.43,2.57-.31,2,.68.42.09.94,1.38,1.27-1.55-.06-1.28-1.32-.54,1.45.2,2.53,1,.79-.31.78.22,4.07.79.58-.31.62.4,1.86,1.4.44-.79,1,.06,1.54.61.25,1.31-.32,1,1,1.1-1.58.05,1.2.76,1.3,1.16-.05,1.29-2.13.12-1.33.57-2.4,1,.9.41-.78L492,1684l.5-1.56.06,1.53.94.3.67-1.29,1.21-.27.84.69-.14,1.24-1.51-.56.16,2.13,1.27-.69.59.18,1.56-2.43,0-.88-1.18-.73,1-1.36-.11-1.65,1.15-.05.58-.62.05-3.15.91-.69.72-1.42.52,2.09.31,1,.66-1.62-.11-1.32.37-.68-.46-1.8,1-1.59v-2.7l1.21-1.58.52-3.78.45-1.28-1.75-1.15ZM490.84,1686l.05,1.27-1,1.69,1,.51.41-2.11.63-1-.36-.76ZM479,1647.83l.91-1.58-.53-1,.24-2.12-.87-.69-.81.7-.94,1.25.24,1.25-.91,1.28.37,1.19-.12,1.05,1,.45,1.15-1Zm19.89,32.76.81-.47-.85-.74Zm55.63-208.77-.19-.81-.58.63Zm-102.33-85.29-.82.67.85,0Zm119,106.48-.37,1.16.45,1-.73,1.61-1.2,1.51-.11,1.32-.2,1.48.76,2.13.85.22-.48-1.4.26-3,1.54-2.26.24-2.06-.32-1.66Zm-66.52,154.27.49,1.19-.5,1.35.52.86.48,1,2.55-1.26-.05-1.26-2.46-2.28Zm-55.24-258.75.16.86.74-.81,1.23-.19.42-.8-1.21.1Zm-1.56,1.88,1.27-.58-.12-.44-1.74.62Zm-20.19-7,.86,1.41.06-1.34.4-1.36-1.1.25Zm142.13,138.06.8-1-.41-1.62Zm-12-39.33-.71-.44-.3.38,1.39,1.76.76,1.26.24-1.3-.56-.65.07-.94Zm-185-69.87.13-.8-.61,0-.39.77Zm133.07,244.52.29-1.17-1,.37Zm-6.8-284.33.42.92.58-.81Zm27.22,69.07.55-1.48-.27-2.39-.49.29-1.18.36,1.13,1.17-.46,1.2Zm-72.46-37.36.39-.28.23.7.78-.95-.75-1-.81.82ZM276.36,1506.58l1,2.85.5-2.17-.88-2.38Zm21.18-41.41.75-1,.09-1.63-1.29,1.94ZM417,1389.79l2.37-2.71.64.08.07-.76.66-.61-.6-.44-.45-.94-.63,0-.88.48-2,.1-.77,1-.89-.41-.2-.47-.87-.09-.93-.92-.42,0,.25.46.25,1.73,1.24,1.35L415,1389Zm27.17,210.43H442.9l.47-.63-.89,0-.34-.69.19-1.17-1.11.42-1.3-.09-3.85,1.22-1.69,1-.05.84,1.07.7h1.69l.5-.12,1.31.15.89-.37.58.71.71,0,.14-.45.76,0,.47-.71,2.64.27.89-.88-1-.46ZM278,1502.63l-.24-2-.46,3.17C277.25,1503.76,278,1502.63,278,1502.63Zm88.65-84.44.55.71,1.18-.28-1.08-1.25S366.52,1418.25,366.6,1418.19Zm.51,5-.2-1.55-.75-1.05.19,2.13Zm45.28-35,1.67.3-.19-.44-1.23-.38-.7-2.58-1,.54.19.23,0,.79.35.15v.39l-.71-.18-.48.09,0,.82,1.54.34Z" fill="#d71a35" stroke="#000" stroke-miterlimit="10" stroke-width="0.05"/>
    <polygon id="KUWAIT" points="210.87 1179 206.23 1177.46 200.43 1180.35 197.81 1186.93 195.09 1192.6 196.87 1192.56 209.08 1195.81 210.03 1200.63 217.94 1196.57 216.49 1194.89 216.98 1194.57 217.47 1194.56 215.9 1192.92 215.73 1190.73 214.76 1188.76 214.19 1189.99 208.88 1186.79 216.41 1185.01 214.89 1179.16 215.19 1178.43 213.88 1177.94 210.87 1179" fill="#da1a35" stroke="#000" stroke-miterlimit="10" stroke-width="0.05"/>
    <polygon id="USA" points="209.08 1195.81 196.87 1192.56 195.09 1192.6 170.21 1193.13 106.88 1152.61 94.44 1151.56 89.88 1156.68 70.49 1163.52 85.96 1179.15 80.68 1186.02 80.45 1189.85 70.42 1191.75 61.24 1201.44 47.77 1198.13 43.68 1198.46 43.5 1203.34 43.91 1208.92 42.66 1212.76 43.01 1214.15 44.88 1213.38 45.52 1214.35 47.17 1213.09 50.23 1214.68 49.44 1215.21 55.48 1221.48 56.19 1224.25 57.5 1224.79 58.11 1227.47 61.1 1229.96 62.5 1230 66.54 1236.36 66.72 1238.44 67.8 1240.7 69.91 1241.02 70.64 1244.29 72 1246.04 75.04 1247.22 77.68 1253.42 79.63 1254.65 80.57 1258.61 79.84 1260.33 79.91 1262.23 82.78 1264.12 82.96 1266.31 84.8 1267.34 86.72 1265.26 89.6 1267.46 93.87 1269.21 97.3 1272.47 98.4 1275.32 99.39 1275.49 99.93 1278.76 101.26 1279.82 102.53 1284.26 105.22 1286.45 106.2 1291.03 107.05 1292.45 106.22 1296.82 105.27 1297.75 106.33 1299.81 107.81 1304.54 108.55 1309.54 111.01 1311.54 111.48 1313.36 118.47 1320.29 120.75 1321.13 123.42 1321.25 125.32 1323.77 126.61 1323.72 130.63 1326.88 130.8 1328.86 134.12 1329.33 133.79 1331.25 135.51 1331.89 139.04 1343.15 141.9 1344.74 142.23 1348.13 152.59 1357.82 154.09 1357.76 155.2 1363.42 159.44 1364.45 162.04 1371.13 164.39 1371.27 166.43 1372.04 167.76 1369.33 171.18 1366.92 168.63 1362.54 170.11 1356.21 173.58 1354.55 177.68 1357.63 185.97 1357.6 197.47 1361.74 209.46 1367 210.49 1378.96 233.22 1345.62 282.54 1328.83 319.62 1316.21 320.43 1287.38 316.98 1276.82 317.02 1276.69 312.75 1280.99 273.87 1276.54 270.62 1266.37 267.32 1262.73 267.23 1258.18 267.15 1258.15 266.46 1258.46 265.19 1256.43 265.24 1255.11 266.38 1253.57 264.19 1253.86 263.82 1253.25 261.63 1253.33 257.27 1251.22 256.67 1249.98 255.97 1250.47 253.65 1247.45 252.92 1244.08 245.92 1235.96 244.1 1232.83 245.61 1233.17 245.56 1231.68 242.92 1225.38 242.87 1223.89 241.08 1221.35 239.87 1221.4 235.35 1215.37 233.75 1215.33 231.77 1213.3 231.94 1212.4 232.73 1212.17 233.86 1212.83 232.7 1211.27 230.48 1210.96 225.96 1210.03 223.21 1203.44 221.69 1200.3 219.95 1199.46 219.87 1197.26 218.99 1197.8 217.94 1196.57 210.03 1200.63 209.08 1195.81" fill="#da1a35" stroke="#000" stroke-miterlimit="10" stroke-width="0.05"/>
    <polygon points="844.61 1127.28 844.54 1126.81 841.92 1128.26 838.99 1128.29 836.6 1129 834.65 1128.53 831.99 1129.64 829.94 1129.94 828.9 1131.26 829.16 1132.08 830.34 1132.15 829.57 1132.86 830.91 1132.44 831.52 1131.83 833.57 1131.73 835.46 1131.16 838.52 1131.09 839.93 1130.28 842.59 1130.38 843.26 1129.77 844.05 1129.92 846.56 1129.14 847.57 1128.19 846.03 1128.73 845.05 1128.29 843.23 1129.07 843.9 1128.09 844.61 1127.28" fill="#da1a35" stroke="#000" stroke-miterlimit="10" stroke-width="0.05"/>
    <polygon points="442.37 1213.62 442.03 1214.35 473.74 1228.86 500.41 1229.67 500.59 1226.26 515.67 1226.73 517.42 1227.81 518.9 1229.93 519.71 1230.91 519.88 1231.75 520.85 1231.79 521.7 1233.03 521.39 1233.94 522.84 1234.48 524.26 1235.66 524.15 1236.5 523.68 1237.21 524.83 1237.55 526.11 1238.39 526.95 1239.74 527.15 1241.8 527.79 1242.57 528.33 1242.68 528.63 1243.38 529.71 1244.39 529.77 1245.81 529.24 1246.21 528.16 1246.48 528.16 1247.16 529.77 1249.07 531.05 1250.59 531.47 1251.91 531.4 1252.41 531.97 1252.4 532.75 1253.17 533.33 1253.14 534.23 1253.49 534.56 1254.17 534.68 1254.76 535.3 1255.4 536.36 1255.41 538.26 1256.38 538.52 1257.01 540.08 1257.52 541.97 1258.48 542.52 1259.12 543.31 1259.26 544.19 1258.9 544.37 1258.32 545.7 1257.25 546.63 1257.01 546.83 1256.23 546.64 1255.74 547.45 1254.71 548.8 1252.18 549.77 1251.22 550.85 1250.83 551.54 1251 551.73 1251.29 552.46 1251.15 552.99 1250.02 554.67 1250.04 556.27 1250.28 558.04 1250.14 558.74 1250.49 559.14 1251.03 560.34 1250.81 561.58 1251.44 562.39 1252.82 564.2 1254.33 565.65 1256.56 566.36 1258.52 566.86 1259.32 567.1 1260.74 567.23 1262.93 568.24 1263.44 568.71 1264.71 569.92 1268.12 570.7 1268.63 571.1 1269.81 572.55 1270.58 572.99 1272.4 573.86 1273.96 575.41 1275.58 575.24 1277.22 575.06 1278.95 575.06 1279.43 575.21 1280 577.09 1285.45 576.99 1287.88 577.78 1288.82 578.01 1289.07 579.1 1289.48 580.28 1289.31 581.46 1289.97 582.98 1291.47 586.04 1292.49 587.79 1293.37 589.48 1293.78 590.05 1294.92 590.87 1295.33 591.82 1292.57 592.42 1290.55 591.95 1289.28 592.15 1285.25 591.35 1283.83 592.42 1281.55 593.23 1278.86 594.51 1277.05 593.9 1273.49 595.24 1272.89 597.13 1271.41 596.05 1270.19 597.73 1268.12 598.67 1268.72 600.35 1267.91 600.22 1265.56 601.22 1266.37 603.17 1265.63 602.16 1264.69 603.91 1263.68 604.58 1264.15 605.45 1263.68 606.86 1264.69 605.25 1266.1 606.53 1265.97 608.27 1264.49 609.49 1264.56 613.45 1262.61 616.4 1259.92 617.61 1259.92 618.82 1258.91 618.42 1257.03 618.49 1255.15 617.41 1252.4 618.42 1253.74 619.36 1253.74 621.18 1252.2 621.31 1251.06 621.98 1253.01 620.9 1254.48 621.38 1255.89 621.04 1257.57 623.12 1257.3 624.66 1255.09 626.01 1254.95 627.29 1254.08 630.44 1253.41 632.86 1253.41 637.23 1254.48 637.97 1255.35 643.34 1255.89 645 1255.66 644.7 1254.52 644.83 1253.57 646.72 1252.87 647.73 1253.3 647.02 1254.38 648.03 1254.72 649.31 1254.25 649.91 1254.93 649.91 1256.3 650.49 1257.01 652.37 1256.81 653.01 1257.82 651.76 1258.8 651.02 1259.74 652 1260.18 653.55 1259.91 654.83 1260.69 657.15 1261.39 658.09 1260.32 659.47 1259.3 661.02 1260.41 661.75 1261.6 663.16 1260.79 663.23 1258.51 662.42 1256.96 664.1 1256.83 665.44 1258.84 666.78 1259.38 667.73 1260.66 668.8 1260.53 669.74 1261.13 669.81 1262.95 670.41 1261.81 671.82 1261.4 671.96 1260.79 669.74 1259.11 666.78 1258.11 666.25 1256.76 666.18 1255.15 669.14 1254.01 669.74 1253.34 668.13 1252.66 667.46 1251.79 666.85 1251.66 665.78 1252.73 664.57 1253.21 664.57 1251.93 666.25 1250.18 669.33 1248.91 670.88 1247.56 676.39 1246.56 678.47 1246.89 679.61 1246.48 680.96 1246.76 681.83 1245.28 682.64 1243.67 683.78 1243.86 683.51 1245.07 683.58 1246.15 685.39 1247.7 686.87 1247.09 689.49 1247.22 690.83 1246.66 691.92 1247.44 694.71 1247.07 695.55 1247.5 697.6 1246.06 699.62 1246.19 700.06 1246.77 698.95 1247.1 696.76 1246.97 696.42 1247.44 698.85 1247.77 701.24 1247.77 702.68 1249.06 704.1 1249.87 703.19 1248.62 703.42 1247.77 704.23 1247.87 704.57 1248.85 706.32 1250.1 706.02 1250.71 704.8 1250.13 704.5 1250.24 706.79 1251.82 707.7 1253.14 708.17 1254.01 707.73 1254.18 707.46 1253.57 707.23 1254.28 707.66 1254.96 710.36 1254.55 712.07 1254.35 714.46 1251.95 715.23 1252.29 715.54 1251.99 715.54 1251.55 716.78 1250.58 718.64 1250.27 719.85 1250.94 721.97 1251.68 722.9 1254.93 723.88 1255.9 724.52 1256.1 724.76 1258.02 726.11 1259 726.91 1259 726.85 1259.67 727.69 1261.02 729.07 1261.26 730.28 1263.58 730.11 1265.74 728.86 1270.09 727.05 1273.49 726.98 1274.88 728.09 1276.76 728.59 1276.29 729.67 1274.78 729.33 1274 730.04 1273.42 731.39 1274 731.45 1275.72 729.17 1278.99 729.71 1280.13 729.84 1281.92 730.99 1283.27 731.36 1284.18 732.1 1283.97 732.57 1285.7 733.17 1284.86 733.17 1284.08 733.91 1284.62 735.66 1284.14 734.28 1285.49 733.95 1287.05 733.2 1287.92 733.37 1289.03 735.66 1290.79 735.93 1292.67 735.83 1295.13 736.53 1295.78 738.12 1295.84 738.79 1297.09 738.55 1298.67 740.81 1300.5 739.74 1300.96 741.69 1301.51 742.56 1302.64 744.3 1303.11 746.05 1302.51 747.6 1301.97 747.87 1299.63 749.01 1297.94 749.88 1295.72 751.49 1292.43 751.29 1290.82 751.76 1289.95 752.1 1286.66 751.63 1285.98 752.7 1284.91 752.1 1282.15 750.21 1280.95 749.21 1274.97 748.54 1274.03 748.8 1271.2 749.61 1269.06 748.94 1267.38 747.73 1265.77 746.79 1261.26 745.98 1259.59 745.58 1255.55 744.57 1253.01 745.11 1248.98 744.84 1246.35 745.31 1240.57 745.31 1237.42 746.65 1234.73 748.27 1232.11 749.81 1231.71 750.62 1230.57 751.42 1230.43 752.7 1228.62 752.9 1227.08 752.23 1226.6 752.76 1226.13 754.99 1226.13 755.32 1224.99 757.13 1225.13 757.6 1224.12 760.43 1223.78 761.43 1222.44 763.38 1222.64 763.85 1221.77 764.86 1221.49 765.93 1221.97 767.54 1220.15 767.68 1218.94 768.62 1219.01 770.1 1217.73 770.1 1216.66 773.59 1212.02 775.41 1210.41 778.09 1210.08 779.03 1210.68 779.84 1210.55 781.38 1207.66 786.08 1203.83 790.45 1201.21 792.73 1201.01 793.34 1200.54 794.48 1200.41 794.68 1201.01 796.3 1200.94 798.04 1198.93 797.37 1198.65 796.97 1197.99 795.29 1199.53 792.94 1199.33 791.53 1197.99 793.21 1198.65 795.69 1197.58 795.29 1196.91 796.23 1196.11 795.63 1195.17 793.41 1194.76 792.4 1193.55 793.68 1193.62 794.95 1194.22 796.23 1193.69 796.43 1192.41 797.17 1194.43 798.45 1194.22 799.72 1195.03 800.51 1194.38 801.18 1193 803.14 1191.35 803.74 1191.32 804.18 1189.33 803.48 1187.75 803 1187.88 802.03 1189.74 801.93 1190.91 801.02 1190.51 800.75 1187.75 800.01 1187.41 796.24 1187.98 794.39 1188.55 794.73 1187.47 794.79 1184.68 795.43 1184.27 796.34 1186.23 797.52 1186.63 798.46 1185.76 800.95 1185.08 801.39 1184.58 802.6 1184.58 803.17 1183.6 802.84 1181.58 802.06 1180.8 802.13 1179.89 803.1 1180.36 803.82 1178.57 803.35 1176.85 802.48 1176.09 801.2 1176.42 799.59 1176.02 798.85 1173.74 797.73 1173.71 796.23 1173.2 794.95 1171.65 796.5 1172.4 798.79 1172.46 799.72 1174.14 800.87 1174.68 801.6 1173.4 799.25 1171.39 801.2 1171.79 801.33 1170.91 801.94 1170.38 801.4 1169.1 799.39 1167.82 798.58 1165.54 799.45 1165.95 800.06 1167.56 801.4 1167.68 801.94 1165.74 801.67 1164.13 800.33 1163.33 798.24 1160.77 796.16 1159.96 795.09 1158.22 793.75 1157.61 793.75 1156 795.09 1154.19 794.28 1156.14 794.61 1157.08 795.49 1157.14 796.63 1159.23 798.45 1159.5 800.66 1162.11 801.2 1161.98 801.4 1158.35 801.27 1156.54 801.54 1155.26 801.14 1154.19 801.42 1151.48 801.76 1150.4 800.88 1149.08 801.65 1149.18 802.87 1148.31 804.72 1146.83 805.22 1145.07 805.16 1144.53 805.66 1145.24 805.22 1146.99 805.7 1147.6 804.15 1148.55 803.1 1150.53 804.59 1152.99 804.15 1155.66 802.84 1157.58 802.87 1159.33 804.38 1161.25 804.99 1160.51 805.22 1161.29 806.07 1161.22 806.13 1161.62 805.56 1162.5 806.2 1163.82 808.42 1163.78 806.8 1164.66 807.11 1165.09 805.96 1166.58 806.24 1167.76 805.18 1169.55 804.69 1171.59 804.89 1173.4 805.37 1172.66 805.56 1171.79 807.45 1168.43 807.65 1169.1 807.78 1169.84 808.32 1169.1 808.32 1167.96 809.4 1166.14 810.87 1162.39 812.96 1161.17 814.5 1157.68 814.57 1155.33 813.37 1152.22 812.46 1151.24 812.22 1148.71 811.38 1147.82 811.15 1145.92 812.02 1144.16 813.69 1142.63 815.72 1141.6 812.69 1144.87 812.17 1146.25 812.93 1147.6 815.08 1149.76 816.43 1149.42 817.21 1150.26 816.2 1152.76 817.58 1151.75 817.74 1152.25 819.22 1150.4 819.43 1149.22 820.2 1149.25 820.9 1148.17 822.22 1147.77 823.03 1144.97 823.94 1143.92 824.75 1143.92 825.48 1141.97 826.19 1140.79 825.92 1139.95 826.73 1138.19 826.66 1137.53 827.7 1136.22 827.43 1135.07 826.26 1134.1 825.52 1132.86 828 1131.45 828.07 1130.21 829.58 1128.93 831.23 1128.39 834.12 1126.85 836.13 1126.78 839.09 1124.7 840.16 1124.63 840.9 1125.24 844.6 1124.97 846.34 1125.44 848.69 1124.9 852.52 1124.63 853.6 1124.23 852.85 1123.35 853.13 1120.87 853.13 1118.72 855.01 1120.73 855.01 1122.55 854.8 1123.83 856.01 1124.03 857.7 1122.28 859.44 1119.06 860.31 1120.8 860.25 1122.07 861.39 1122.48 865.76 1120.34 866.9 1118.39 866.02 1115.23 865.15 1115.49 865.35 1117.11 864.61 1119.19 861.92 1119.26 861.66 1117.71 860.65 1114.69 858.3 1113.35 858.3 1112.48 861.59 1109.52 861.46 1108.11 860.25 1108.11 860.45 1106.96 861.39 1106.23 861.79 1104.88 862.93 1103.47 864.14 1100.18 867.57 1097.49 868.71 1095.01 869.72 1095.01 870.79 1093.33 870.93 1094.54 872.2 1094.94 873.08 1093.8 874.09 1091.92 874.36 1093.87 875.43 1093.87 876.5 1091.79 877.04 1092.66 878.12 1091.92 879.86 1089.04 882.28 1086.01 881.74 1087.82 882.21 1089.3 883.96 1089.04 885.57 1087.29 887.65 1087.29 888.19 1089.37 889.47 1089.37 891.01 1087.29 892.42 1087.89 893.43 1087.35 895.11 1086.21 896.52 1086.34 898.78 1085.04 899.42 1086.15 901.07 1085.91 902.31 1084.37 900.53 1083.32 899.76 1084.6 898.45 1083.19 899.08 1081.1 895.58 1079.09 895.62 1079.1 895.52 1079.06 895.08 1078.45 895.56 1077.64 895.35 1076.77 895.56 1075.83 895.62 1074.29 894.82 1073.27 894.21 1072.2 893.41 1072 893.88 1070.66 895.89 1058.9 895.75 1055.87 892.13 1052.39 891.32 1053.12 888.77 1052.45 886.83 1052.99 885.51 1051.74 884.4 1050.97 883.83 1051.14 882.25 1052.69 881.54 1054.17 878.21 1057.88 876.6 1059.97 876.7 1061.56 874.34 1062.81 874.03 1064.89 873.22 1066.98 870.84 1069.92 869.66 1070.32 866.66 1073.56 866.16 1074.94 865.08 1075.68 863.4 1075.28 862.22 1075.34 861.38 1075.98 860.61 1076.15 858.52 1078.14 831.31 1077.67 828.04 1078.16 826.47 1079.72 824.15 1080.7 822.33 1082.21 818.17 1086.11 815.61 1086.58 813.87 1087.86 806.07 1093.7 788.52 1098.81 787.75 1103.39 783.69 1104.71 751.66 1113.32 750.08 1110.52 751.9 1108.24 755.47 1106.53 756.91 1104.54 757.94 1102.51 758.87 1100.25 759.66 1087.79 753.58 1059.2 747.89 1054.65 745.48 1051.69 708.25 1034.22 706.8 1033.21 704.58 1032.7 703.6 1031.79 699.2 1031.53 698.45 1030.01 697.48 1029.13 696 1030.07 692.97 1030.14 691.55 1029.49 690.27 1028.08 688.42 1027.58 685.23 1026.57 684.28 1024.48 683.11 1024.48 680.92 1022.76 679.17 1022.92 677.72 1022.46 675.97 1022.92 675.23 1023.13 674.32 1021.91 672.37 1021.41 672.07 1020.94 670.19 1020.3 669.83 1019.99 668.6 1018.68 668.42 1017.99 666.34 1016.24 664.19 1016.31 662.42 1016.1 420.26 991.94 421 995.25 423.01 996.73 422.81 998 421.19 999.22 421.46 1000.76 422.81 1001.7 422.2 1002.44 421.13 1003.92 421.73 1004.45 421.87 1005.73 422.74 1006.81 421.19 1008.69 419.65 1009.7 419.11 1012.05 418.04 1012.99 417.97 1015.07 416.96 1016.21 416.36 1017.83 414.34 1019.17 412.8 1018.36 412.26 1017.42 413.61 1015.75 414.01 1016.48 415.22 1015.47 415.48 1016.89 416.09 1016.21 416.16 1013.93 417.23 1011.71 418.64 1010.5 418.44 1009.02 417.5 1009.23 415.55 1010.83 414.88 1011.98 413.4 1011.98 413.47 1011.04 415.22 1009.29 417.16 1008.55 417.7 1007.48 417.1 1006.34 416.22 1006.27 415.35 1006.67 414.48 1004.99 413 1004.25 408.83 1003.99 406.55 1002.51 402.25 998.75 401.58 998.95 401.31 1000.83 399.83 1004.25 399.9 1005.93 400.91 1009.36 399.97 1014.13 400.44 1016.55 400.03 1018.9 400.17 1020.11 401.38 1020.44 401.51 1021.12 400.77 1022.19 399.83 1022.19 399.36 1023.67 400.03 1024.47 401.51 1025.08 400.98 1026.49 400.91 1028.3 399.83 1029.58 399.23 1029.32 398.56 1030.05 398.76 1031.06 401.31 1031.73 403.86 1031.93 405.41 1033.21 407.36 1033.54 408.3 1034.75 408.63 1037.04 407.76 1034.95 406.08 1033.95 404.94 1034.15 403.6 1033.21 400.44 1033.07 399.36 1032.26 398.76 1032.74 398.83 1034.21 396.94 1036.63 396.94 1038.04 397.15 1039.38 395.68 1041.94 394.74 1043.96 392.18 1049.61 391.78 1053.78 389.49 1058.22 388.82 1063.2 387.61 1065.62 385.86 1067.64 384.78 1070.73 383.84 1071.67 383.3 1073.56 380.88 1076.65 380.22 1078.28 380.49 1081.84 379.55 1085.4 379.41 1087.82 380.69 1089.84 379.88 1090.91 379.81 1092.39 380.49 1094.67 380.08 1098.5 379.08 1100.58 378.07 1101.59 378.34 1102.8 378.94 1103.2 378 1105.69 375.25 1107.57 374.24 1109.71 374.24 1111.8 375.85 1114.02 377.33 1117.44 377.46 1121.2 377.13 1123.29 376.05 1124.97 376.05 1125.84 376.86 1127.46 377.06 1129.33 376.26 1130.74 375.92 1131.95 376.32 1133.03 380.22 1139 380.49 1140.82 379.95 1141.96 380.42 1143.31 382.57 1145.32 382.9 1146.26 383.64 1146.2 384.11 1146.47 384.11 1144.45 384.18 1142.37 385.39 1143.11 385.86 1142.7 386.06 1143.44 387.54 1143.51 388.01 1144.18 390.36 1144.45 388.68 1144.85 387.07 1145.32 386.4 1144.72 385.59 1144.72 385.46 1145.99 386.19 1146.53 386.46 1148.95 387.07 1150.36 387.67 1151.17 386.13 1150.36 385.32 1148.68 384.52 1148.14 383.85 1149.08 384.05 1150.23 383.17 1151.1 383.38 1151.97 382.9 1153.65 383.11 1155.13 383.98 1155.6 384.38 1157.41 385.79 1158.29 386.8 1159.29 386.87 1160.77 385.66 1162.11 384.85 1161.98 384.79 1162.79 385.26 1164.73 385.12 1166.48 385.39 1167.62 386.87 1168.7 387.27 1171.92 389.22 1176.09 390.63 1178.03 391.42 1178.64 391.05 1179.29 391.19 1179.79 392.7 1181.51 393.27 1183.43 392.6 1186.26 392.13 1187.78 391.73 1188.05 392.23 1189.6 393.17 1190.27 396.37 1190.24 398.25 1190.77 399.74 1191.69 401.11 1191.94 403.6 1191.94 404.74 1193.22 404.74 1194.83 407.22 1196.17 408.77 1196.24 411.05 1196.91 411.46 1197.92 411.39 1199.53 411.99 1199.86 412.93 1199.8 414.14 1199.53 416.22 1201.68 419.44 1206.58 419.85 1209.41 419.38 1211.69 419.57 1213.2 441.9 1212.8 442.37 1213.62" fill="#da1a35" stroke="#000" stroke-miterlimit="10" stroke-width="0.05"/>
    <polygon points="859.73 1123.47 859.36 1123.96 858.62 1124.5 858.99 1125.21 860.01 1125.12 860.82 1124.33 862.12 1124.35 861.28 1123.45 859.73 1123.47" fill="#da1a35" stroke="#000" stroke-miterlimit="10" stroke-width="0.05"/>
    <g id="NEW_ZEALAND">
        <polygon points="675.34 1584.44 675.92 1584.54 675.96 1583.89 675.06 1583.97 675.34 1584.44" fill="#da1a35" stroke="#000" stroke-miterlimit="10" stroke-width="0.1"/>
        <polygon points="593.86 1670.43 594.34 1670.31 594.34 1669.57 593.29 1669.51 593.05 1669.95 593.24 1670.1 593.86 1670.43" fill="#da1a35" stroke="#000" stroke-miterlimit="10" stroke-width="0.1"/>
        <polygon points="656.71 1625.62 656.37 1625.62 656.32 1624.88 655.4 1624.66 654.62 1626.14 654.92 1626.46 655.45 1626.62 654.3 1627.43 653.68 1626.78 653.82 1626.05 653.26 1626.07 652.49 1625.84 651.68 1626.37 650.83 1627.54 650.01 1627.13 649.41 1625.31 649.94 1624.92 650.56 1624.19 650.77 1623.56 650.42 1623.42 650.49 1622.9 650.1 1622.51 649.46 1623.01 649 1622.76 648.47 1622.12 648.61 1621.29 649.37 1620.23 648.33 1620.1 646.63 1621.22 645.79 1621.57 644.66 1622.48 644.45 1624.07 643.31 1626.95 642.16 1628.49 641.6 1628.69 640.16 1630.46 639.73 1631.41 638.65 1631.84 637.36 1631.73 636.33 1632.49 635.98 1633.63 635.91 1634.9 635.23 1635.24 634.21 1636.37 634.16 1637.74 633.57 1638.52 633.43 1639.54 631.14 1642.23 628.57 1644.07 627.24 1644.26 625.64 1645.08 625.46 1645.99 624.45 1645.94 622.07 1647.14 620.01 1649.08 618.77 1649.36 616.55 1650.73 616.34 1651.44 616.78 1652.46 616.94 1653.75 615.86 1652.74 615.38 1652.53 614.32 1652.85 613.2 1653.12 612.64 1652.66 611.68 1652.74 609.69 1654.45 608.95 1655.4 607.42 1656.64 606.43 1656.94 605.33 1658.34 605.05 1659.83 604.87 1659.06 604.32 1658.6 603.51 1659.33 602.76 1659.83 602.78 1661.35 602.23 1661.97 601.65 1661.56 599.8 1663.63 599.27 1663.63 598.69 1664.41 598.58 1666.59 598.1 1667.21 597.61 1666.11 597.11 1665.86 596.65 1666.64 596.22 1666.94 595.12 1668.78 595.21 1669.56 596.17 1670.47 596.63 1671.08 596.17 1671.46 595.12 1671.44 593.8 1671.62 592.31 1673.3 593.07 1673.42 593.67 1673.57 592.98 1673.98 592.8 1675.17 593.67 1676.08 594.23 1676.38 595.84 1676.52 596 1676.88 596.49 1676.94 596.64 1676.2 597.3 1676.11 598.26 1676.57 598.65 1677.58 598.3 1678.02 598.97 1678.61 600 1678.59 600.46 1679.12 600.62 1680.29 601.84 1681.35 602.69 1681.97 601.45 1682.7 602.07 1682.84 603.74 1682.04 603.74 1682.7 604.78 1682.98 606.34 1682.77 608.54 1681.88 610.35 1680.29 611.55 1679.78 611.66 1679.14 611.36 1678.11 612.14 1678.75 611.91 1679.6 613.4 1678.98 613.84 1677.58 614.64 1676.38 616.51 1675.59 618.16 1675.62 618.72 1675.21 618.58 1674.85 617.51 1675.05 618.16 1674.65 618.38 1674.23 618.11 1674.04 619.46 1672.46 620.47 1670.64 620.92 1668.76 621.84 1667.7 624.59 1665.73 625.23 1664.63 625.46 1663.31 626.69 1661.24 627.38 1660.24 627.43 1659.13 628.53 1657.85 629.49 1657.4 629.76 1656.25 630.63 1656.94 631.37 1656.94 631.73 1655.98 632.79 1655.93 633.47 1655.75 634.25 1654.69 634.16 1653.73 633.33 1652.86 634.38 1653.32 634.85 1654.6 635.31 1654.74 636.08 1654.47 636.13 1653.91 636.96 1653.32 637.82 1653.64 637.82 1654.14 636.68 1654.6 638.01 1654.64 638.97 1655.02 639.34 1654.42 639.29 1653.51 639.61 1653.1 639.98 1653.41 639.84 1654.69 640.25 1655.02 640.85 1654.56 641.03 1652.86 640.48 1651.99 639.61 1651.81 639.98 1651.26 639.84 1649.79 640.3 1647.78 641.22 1647.41 642.96 1646.86 644.83 1645.67 645.11 1644.94 646.53 1643.24 646.71 1642.06 648.04 1640.68 649.05 1640.77 648.91 1640.26 651.16 1637.97 651.34 1637.24 654.64 1634.39 655.79 1633.7 655.14 1633.49 655.01 1632.26 654.48 1631.01 654.57 1629.91 654.89 1628.85 655.31 1628.96 656.5 1627.33 655.53 1627.61 654.64 1627.75 655.97 1626.95 656.71 1625.62" fill="#da1a35" stroke="#000" stroke-miterlimit="10" stroke-width="0.1"/>
        <polygon points="692.92 1593.53 692.37 1592.79 692.85 1592.63 692.94 1592.26 691.5 1591.99 690.17 1592.86 687.84 1595.28 686.33 1595.42 685.51 1595.83 684.37 1595.33 681.8 1592.67 681.02 1592.81 680.06 1591.43 679.69 1590.57 680.33 1589.88 680.56 1588.46 679.6 1586.48 679.6 1585.48 679.19 1584.8 679.32 1583.55 679.65 1582.69 679 1582.55 678.82 1581.13 678.5 1580.35 678.04 1580.67 677.04 1580.07 676.72 1580.58 677.63 1581.49 677.59 1582.73 677.77 1583.19 676.8 1584.11 676.85 1584.97 677.68 1586.03 677.68 1586.76 676.67 1587.09 675.94 1586.26 675.8 1585.21 674.52 1585.02 674.52 1584.42 673.51 1583.97 672.73 1584.11 672.64 1583.47 673.6 1582.91 673.97 1582.05 672.96 1581.22 673.7 1579.8 674.65 1579.57 674.93 1578.29 674.52 1577.33 674.79 1576.64 674.38 1575.58 674.47 1574.16 673.14 1573.21 673.28 1572.56 674.06 1573.02 675.11 1572.8 675.34 1571.42 675.8 1570.96 675.8 1569.17 675.34 1567.53 675.52 1566.47 674.97 1566.7 673.46 1567.34 672.32 1566.19 673 1565.6 672.32 1564.96 671.81 1564.87 672.27 1564.13 673.28 1563.68 673.1 1563 671.91 1562.72 671.13 1561.98 670.35 1562.3 670.17 1561.2 670.67 1561.2 671.08 1560.47 670.44 1560.38 669.8 1560.83 669.81 1561.49 669.29 1562.4 668.46 1562.04 668.8 1561.02 668.3 1560.17 667.98 1558.54 668.05 1557.44 668.05 1557.05 668.39 1556.91 667.81 1556.26 667.17 1556.7 665.47 1556.59 665.43 1556.98 666.23 1557.87 667.58 1561.16 667.79 1562.34 667.58 1564.45 667.08 1564.98 666.6 1564.98 666.37 1565.33 667.11 1567.97 667.47 1568.33 668.43 1567.64 669.74 1567.64 668.85 1567.92 667.95 1569 668.27 1570.54 669.03 1572.29 669.33 1575.51 669.31 1577.44 669.35 1578.77 670.02 1578.45 670.29 1577.32 669.97 1576.54 670.36 1576.2 670.82 1576.9 670.82 1577.98 671.51 1577.89 671.63 1577.37 671.46 1576.98 671.83 1576.88 671.95 1577.78 671.26 1579 670.93 1580.01 670.87 1580.63 670.41 1580.76 669.92 1580.03 669.4 1580.03 669.68 1581.94 670.55 1584.4 671.08 1584.58 671.51 1584.35 671.97 1585.18 672.08 1585.78 672.66 1586.21 671.4 1587.06 671.37 1587.52 671.81 1587.96 671.42 1588.84 670.68 1591.02 670.71 1592.12 670.36 1592.52 671.01 1593.18 670.75 1593.64 669.88 1593.71 669.33 1594.7 669.31 1595.32 670.02 1596.03 669.29 1596.42 668.5 1596.49 667.95 1597.87 667.11 1602.38 666.97 1603.45 666.07 1604.12 665.15 1604.19 664.08 1603.78 662.88 1603.94 660.47 1605.08 659.37 1606.3 659.03 1607.75 659.3 1609.73 660.38 1610.67 662.19 1611.78 663.06 1613.42 664.76 1613.97 665.45 1614.66 665.72 1617.41 665.86 1617.68 665.54 1618 665.54 1619.47 664.99 1620.67 662.49 1623.84 660.7 1625.71 658.82 1627.4 658.15 1628.21 658.34 1628.85 659.62 1629.15 659.9 1628.44 660.45 1628.47 660.49 1629.36 660.38 1630 660.73 1630.16 661.23 1630 661.6 1630.46 661.53 1631.47 661.8 1631.84 662.77 1631.73 665.09 1630.02 667.12 1628.37 669.01 1626.41 670.77 1624.4 672.93 1621.71 674.11 1620.94 674.88 1620.88 675.41 1620.21 675.5 1619.2 675.99 1618.55 677.22 1618.05 678.04 1615.58 679.32 1613.65 679.32 1613.1 679.97 1612.51 679 1611.59 677.95 1611.41 677.13 1611.54 677.99 1610.81 678.77 1610.58 681.62 1607.56 682.86 1607.1 684.91 1607.42 685.97 1607.52 685.76 1608.33 685.9 1609.2 686.95 1608.17 687.71 1607.75 686.22 1607.13 686.38 1605.89 687.18 1603.91 687.89 1603.11 688.95 1603.16 689.25 1603.59 689.8 1603.04 690.47 1602.05 692.12 1599.41 692.1 1598.53 692.05 1597.66 692.53 1596.17 693.52 1595.02 694.62 1594.33 694.44 1594.03 692.92 1593.53" fill="#da1a35" stroke="#000" stroke-miterlimit="10" stroke-width="0.1"/>
        <polygon points="601.24 1684.47 601.38 1683.9 600.67 1684.34 601.24 1684.47" fill="#da1a35" stroke="#000" stroke-miterlimit="10" stroke-width="0.1"/>
        <polygon points="598.21 1684.47 598.92 1684.34 598.99 1684.06 598.78 1683.65 598.24 1682.31 597.13 1681.19 596.03 1681.51 595.85 1682.38 595.94 1683.61 595.6 1684.75 594.65 1684.94 594.65 1685.74 594.15 1686.06 592.91 1687.33 593.1 1687.88 593.7 1687.92 594.63 1686.82 595.05 1686.72 595.41 1686.98 596.08 1687.03 596.74 1686.54 598.1 1686.09 598.55 1686.26 598.95 1685.76 598.86 1685.26 598.28 1684.98 597.77 1684.5 597.36 1684.4 597.94 1684.17 598.21 1684.47" fill="#da1a35" stroke="#000" stroke-miterlimit="10" stroke-width="0.1"/>
        <polygon points="655.73 1622.92 655.97 1622.32 654.97 1622.06 654.25 1623.03 654.19 1623.95 654.05 1624.29 654.34 1624.24 654.92 1623.39 655.73 1622.92" fill="#da1a35" stroke="#000" stroke-miterlimit="10" stroke-width="0.1"/>
        <polygon points="654.88 1624.88 654.31 1625.04 653.78 1625.64 654.37 1625.62 654.88 1624.88" fill="#da1a35" stroke="#000" stroke-miterlimit="10" stroke-width="0.1"/>
        <polygon points="654.02 1625.04 654.07 1624.7 652.78 1625.36 653.45 1625.31 654.02 1625.04" fill="#da1a35" stroke="#000" stroke-miterlimit="10" stroke-width="0.1"/>
        <polygon points="679.2 1578.86 679.04 1578.26 679.43 1577.98 679.04 1577.41 678.95 1576.42 678.21 1578.12 678.95 1579.04 679.2 1578.86" fill="#da1a35" stroke="#000" stroke-miterlimit="10" stroke-width="0.1"/>
        <polygon points="677.07 1577.91 676.59 1578.14 676.86 1578.54 677.07 1577.91" fill="#da1a35" stroke="#000" stroke-miterlimit="10" stroke-width="0.1"/>
    </g>
    <g id="KUWAIT-2" data-name="KUWAIT">
        <rect x="177.62" y="1189.27" width="104.89" height="21.2" transform="matrix(1, -0.08, 0.08, 1, -94.65, 22.08)"/>
        <text transform="matrix(1, -0.08, 0.08, 1, 200.65, 1207.98)" font-size="16.01" fill="#fff" font-family="Raleway">KU<tspan x="22.35" y="0" letter-spacing="-0.06em">W</tspan>
            <tspan x="38.2" y="0">AI</tspan>
            <tspan x="53.06" y="0" letter-spacing="-0.03em">T</tspan>
        </text>
    </g>
    <g id="SAUDI_ARABIA">
        <rect x="67.22" y="1321.96" width="139.77" height="21.2" transform="translate(-105.49 15.12) rotate(-4.56)"/>
        <text transform="matrix(1, -0.08, 0.08, 1, 83.92, 1342.49)" font-size="16.01" fill="#fff" font-family="Raleway">
            <tspan letter-spacing="-0.01em">S</tspan>
            <tspan x="9.57" y="0" letter-spacing="-0.03em">A</tspan>
            <tspan x="19.98" y="0">UDI</tspan>
            <tspan x="47.55" y="0" letter-spacing="-0.03em"></tspan>
            <tspan x="51.15" y="0">A</tspan>
            <tspan x="62.02" y="0" letter-spacing="-0.01em">R</tspan>
            <tspan x="72.46" y="0">ABI</tspan>
            <tspan x="98.01" y="0" letter-spacing="-0.03em">A</tspan>
        </text>
    </g>
    <g id="NEW_ZEALAND-2" data-name="NEW_ZEALAND">
        <rect x="625.2" y="1615.42" width="200.12" height="25.42" transform="translate(-127.91 63.23) rotate(-4.59)"/>
        <text transform="matrix(0.96, -0.08, 0.08, 1, 656.16, 1641.16)" font-size="19.95" fill="#fff" font-family="Raleway">NE<tspan x="27.66" y="0" letter-spacing="-0.03em">W</tspan>
            <tspan x="47.83" y="0" xml:space="preserve"> ZEALAND</tspan>
        </text>
    </g>
    <g id="AUSTRALIA-2" data-name="AUSTRALIA">
        <rect x="415.22" y="1464.1" width="224.8" height="35.25" transform="translate(-116.11 46.63) rotate(-4.56)"/>
        <text transform="matrix(1, -0.08, 0.08, 1, 457.22, 1496.91)" font-size="26.33" fill="#fff" font-family="Raleway">
            <tspan letter-spacing="-0.03em">A</tspan>
            <tspan x="17.11" y="0">U</tspan>
            <tspan x="36.99" y="0" letter-spacing="-0.01em">S</tspan>
            <tspan x="52.89" y="0" letter-spacing="0em">T</tspan>
            <tspan x="69.06" y="0" letter-spacing="-0.01em">R</tspan>
            <tspan x="86.22" y="0">ALI</tspan>
            <tspan x="126.18" y="0" letter-spacing="-0.03em">A</tspan>
        </text>
    </g>
    <g id="USA-2" data-name="USA">
        <polygon points="763.78 1005.72 657.55 1014 660.82 1054.94 767.05 1046.66 763.78 1005.72"/>
        <text transform="matrix(0.96, -0.08, 0.08, 1, 682.12, 1044.33)" font-size="32.25" fill="#fff" font-family="Raleway">U<tspan x="24.35" y="0" letter-spacing="-0.01em">S</tspan>
            <tspan x="43.63" y="0" letter-spacing="-0.03em">A</tspan>
        </text>
    </g>
    <g id="SWITZERLAND-3" data-name="SWITZERLAND">
        <rect x="570.07" y="618.63" width="127.94" height="25.33" transform="translate(-16.93 17.47) rotate(-1.56)"/>
        <text transform="translate(589.06 639.04) rotate(-1.56)" font-size="19.13" fill="#fff" font-family="Raleway">S<tspan x="11.71" y="0" letter-spacing="-0.04em">L</tspan>
            <tspan x="22.14" y="0" letter-spacing="-0.02em">O</tspan>
            <tspan x="36.12" y="0">VENI</tspan>
            <tspan x="80.36" y="0" letter-spacing="-0.03em">A</tspan>
        </text>
    </g>
    <polygon points="576.27 615.2 580.94 614.44 588.91 619.31 593.48 619.51 595.69 611.91 603.21 609.16 604.87 603.46 619.3 597.93 629.01 599.07 629.01 590.55 624.15 583.42 618.47 584.56 608.02 588.91 605.7 588.4 602.42 588.43 597.04 590.18 592.19 589.61 586.6 591.1 584.1 587.26 574.05 586.17 570.55 585.36 564.53 592.17 565.73 595.93 562.29 600.12 562.49 607.89 562.85 608.03 567.01 610.57 566.5 613.62 562.65 614.2 562.01 618.25 569.95 618.74 576.27 615.2" fill="#d71a35" stroke="#000" stroke-miterlimit="10" stroke-width="0.05"/>
</svg>