<svg version="1.1" id="GAMEOVER_MAP"
	xmlns="http://www.w3.org/2000/svg"
	xmlns:xlink="http://www.w3.org/1999/xlink" x="0px" y="0px" viewBox="0 0 1920 960" style="enable-background:new 0 0 1920 960;" xml:space="preserve">
	<style type="text/css">
	.aa2{fill:#D71A35;stroke:#000000;stroke-width:5.000000e-02;stroke-miterlimit:10;}
	.aa2:hover {fill: rgb(179, 45, 54)}
	.st3{fill:#FFFFFF;}
	.st4{font-family:'Raleway';}
	.st5{font-size:15.1783px;}
	.st6{font-size:12.6603px;}
	.st7{font-size:15.13px;}
	.st8{font-size:15.7803px;}
	.st9{font-size:20.8163px;}
	.aa20{font-size:25.5012px;}
	</style>
	<path id="NEDERLANDS" class="aa2" d="M838.2,369.6l-2-0.4l3.2-1l1.1,2l-1.8,0.3L838.2,369.6z M840.7,366.9l0.4,1.1l1.8,0.6l0.8-0.8
	l-3.1-1.7l-2.5-0.4l0.4,1.6L840.7,366.9z M832.9,378.4l2.7,0.3l1.6,2.1l2.1-1.7l3.4-0.3l0.9-1.1h2.6l1.3-2.4l6,0.8l1.8,2.3l3.1,0.4
	l1.4,2.6l4.7,0.3l1.3,3.1l-0.5,2.2l2.9,1.3l1.9-3.7l1.8-5.8l-0.5-5.3l2.6-2.5l2.6-3.3l4.8-0.6l4.3,1.5l2.7-1.1L887,364l2.5-1.4
	l0.9-3.8l1.3-2L890,355l-4.3-0.4l-0.3-2.3l1.9-3.3l3.5,2.1l2.5-1.6l0.5-3.5l1.8-2.9l0.5-2l1.2-1.2l0.2-0.7l-3.3-1.5l-2.4-2.7
	l-4.6-3.1l-5.3,0.2l-3.4,2.3l-2.8-1.5l-2,1l-4.3-0.4l-4.5,4l-6.8,2.7l-1.2-1.1l-3.9,1l-0.6,4.3l-3.8,2.3l0.6,4.2l-1.2,3.6l-1.8,2.9
	l-1.5,2l-2.9,1.7l-0.2,2.7l3.5,4.1l3.5,1.5l-4-0.5l-2.1,1.4l-1.3,0.9l1.4,2.2l2,0.5l-0.1,1.8l-3.2-0.2l-2.6-3.4l-2.9-1.8l-3.1,0.9
	l0.9,1.7l2.8,0.6l2.3,2.7l1-0.3l3.1,2.6l-3.1-1.5l-2-0.1l-4.6-2.1l-3.1-0.4l-0.1,0.1l1.9,1.2L832.9,378.4z"/>
	<path id="DENMARK" class="aa2" d="M955.7,295.9v-0.1 M974.6,303l0.4,1.4l1.9-2.1l2.4-0.2l-0.3-2l-2.7,0.8L974.6,303z M961.7,285.8
	l1.1,2.4l-0.6,3.6l1.8,2.7l2.2,0.3l4,1.5l0.5,1.7l-1.7,1.7l1.1,2l2.7,0.2l1.6-1.7l0.2-2.4l3.9-1.1l2-1.5l-0.4-2.2l-3-2.5l0.2-1.3
	l3.9-1.4l1.6-4.1l0.1-3.9l-0.7-3l-4.1-0.3l-4.8,0.6l-2,3l1,1.7l2.5,2.2l-0.5,1.8l-1.8-0.7l-0.9,0.8l-2.9-2.5l0.1-1.7l-1.4-2.3
	l-1.8,1l-1.7,2.5l-2.2,0.4L961.7,285.8z M983.4,285.4l-1.7,3.5l2.3,1L983.4,285.4z M1022.5,304.9l-2.5-5.3l-3-2.3l-1.4,4.6l0.5,3.4
	l5.4,2.6L1022.5,304.9z M954.3,295.1l-0.6-2.9L952,287l-2.5,0.1l-3.6-2.5l-5.5,0.4l-1.3,4.2l1.3,4l2.9,3.8l2.9,0.7l1.8,1.5l3.5-0.3
	L954.3,295.1z M959.1,305l-2.1,0.5l1.2,2.1l4.8,2.3l5,0.1l2-2l0.6,2.8l0.8,0.5l0.2-2.8l2-2.9l-0.3-2.6l-0.7,0.4l-2.9-0.5l-1.5,2.5
	l-1.8-0.2l-2.3,0.5l-2.7-5l-1.8,0.3l-1.7,2.1L959.1,305z M990,316.5l-1.1,2.5l0.9,1.3l3.4,1.6l2.7-2.9l2,0.9l0.4-1.6l-1.2-2.9
	l1.1-2.8l-2.5-0.8l-1.3,0.5l-1.1-0.8l-2.8,0.4l-0.1,2.2l2.7,0.6l-0.9,0.8L990,316.5z M959.8,242.3l2.6,0.2l3.1-1.8l-3.8-0.4
	L959.8,242.3z M926.5,251.7l-0.1,3.7l1.9-0.6l3.2-2.9l0.8-2.2l-2.8-0.1L926.5,251.7z M955.2,302.5l2.5-3.9c-0.8-0.9-1.4-1.8-2-2.8
	l-1.4,4.8l-1.7,2.6l0.5,1.8L955.2,302.5z M957.4,229.4l-5.3,4.2l-4.7,1.5h-3.2l-2.6,3.1l-2.2,3.9l-3.7,2l-3.8-0.4l-4.9,3.1l-1.2-1
	l-2.6-0.2l-1.6,3.7l-3,2.4l1.5,1.6l1.6-0.7l3.2,4.6l-0.2-4.7l1-2.3l6.3-3l0.7,0.7l3-0.2l3.7,1.2l2.6-0.6l3.4,0.4l2.8,1.6l2-0.7
	l4.1-5.6l-0.3-3.8l0.8-1.4l-0.3-3.7l3.1-4.3L957.4,229.4z M949.4,303.5l1.4-1l-3.8-1.9L949.4,303.5z M954.4,279.3l-0.8-4.7l-0.6,4.8
	l-2,2.6l2.8-0.3L954.4,279.3z M930.5,299.6l1.8,1.1l3.2-0.2l-0.2-0.2l1.2-2l-2.1-2.7l-1.3-0.2l0.4-2.4l2.2-1.5l0.6-2.6l-1.7-1
	l0.4-2.4l7.2-2.7l-1.3-1.4l2.9-2.5l1.3,1.1l3.8-0.9l0.4-4.8l-1.2-3.4l2.4-1.9l3.1-0.1l1.8,2.6l1.3-0.8l1.3,0.7l1.4-1.6l1.4-2.8
	l-2.7-3.7l-1.9,1.1l-4.1-0.6l-1.8-2.4l-1.5-3l-1.7-0.6l1.7-1.7l0.4-3.6l-3-2.7l-5.3-0.2l-2.7,0.9l-2.8-0.7l-1.5,1l2.5,4.3l-1,1.3
	l2.4,3.8l-0.4,1l-2.5-1.3l-3,0.3l-0.3-1.7l2.1-1.8l-1.5-3.6l-0.9-0.1l-3.2,3.5l1.3,2.5l-3.6,2l-1.8-2.5l-2.9-0.3l-1.9-1.3l-2.7,2.3
	l3.4,3.2l-0.4,3.3l-2.1-2l-1.5,0.2l0.2,4.5l2.3,1.6l-0.5,4l1.8,2.2l-5.1,1.7l-2.6,4.9l1.8,1.8l3.1-1.3l3.6,4.1l0.2,5.4l-1.6,0.8
	l0.4,2.8l4.7,0.3L930.5,299.6z"/>
	<g id="FRANCE">
		<polygon class="aa2" points="881.2,547.6 882,551.6 881.3,551.6 869.3,558.6 865.8,562.1 866.2,563.9 862.6,566.3 854.7,565
		852.1,562.2 842.2,554.2 839.6,554.2 836.7,556.1 833.8,555.7 829.8,552.7 825.8,551.7 824,550 822,549.9 815.1,555.7 810.7,558.9
		809.9,561.8 807.9,567.6 808.7,572.9 808.7,574.6 806.6,573.6 801.1,569.3 792.8,569.2 788,565.8 783.1,565.8 780.2,563.8
		772.2,563.1 768.8,565.9 766.5,564.4 761.7,564 758.2,559.4 754.5,560.7 751.6,556.7 744.9,553.1 739.6,553.1 740.4,550.4
		740.2,546.6 738,546 737.7,545.1 734.9,543.1 739.2,541.1 743.6,531 745.9,519.1 748.4,517.6 745.8,515.4 746.4,509 749.2,500.4
		751,499.4 754.5,501.7 755.2,506.1 759.2,511 756.2,500.5 751.3,495.8 748.4,494.8 749.6,491.8 750.4,491.5 752.2,488.1
		750.9,485.4 751.3,482.4 747.5,479.5 743.3,478.3 739.5,472.3 736.6,471.6 736.2,469.2 738.1,466.5 737.9,462.9 736.1,461.9
		738.4,459.4 741.6,459.6 744.3,461.5 742.3,458.2 738.8,457.4 735.2,459.1 733.1,458.7 731.8,456 733.5,452.7 732,450.8
		728.9,452.2 728.1,450.9 729,449 727.3,448.4 724.2,450.6 720.6,447.6 718.4,447.4 717.4,445.2 712,442.3 709.8,442.4 707.3,441.4
		703.5,443.4 704.1,441.4 703.2,437.5 700.1,437.1 700.1,436.2 703.5,435.3 705.6,434.8 705.3,432.4 703.3,431.4 701.9,433.8
		701.1,430.4 703.1,430.4 706.4,431.4 705.7,430.1 702.7,428.8 699.5,429.6 698.4,427.1 701.2,424.6 706.6,424.8 709.1,422.8
		712.7,422.8 714.3,424.2 716.6,422.6 718.2,423.7 721.9,421 726.1,420.6 728.8,421.8 733,428.9 737.3,426.2 738.3,427.5
		741.5,427.1 744,428.1 746.7,427.4 752.7,428.9 752.7,425.8 751.1,423.2 752.1,420.6 751.7,417.8 752.9,416.2 747.7,410
		748.5,408.3 747.8,404.2 749.6,405.2 753.7,405.8 756.7,405.1 759.4,406.7 758,409.4 760.1,411.4 760.9,414 763.6,412.8
		766.5,414.8 773.3,416.5 778.5,416 783,413.6 780,412.1 779,409.9 781,407 788.1,404.1 791.2,405.6 794.1,405.8 799.9,404.8
		800.2,402.6 805.8,398.3 807.6,391.9 807.3,387.6 808.9,384.3 814.3,381.9 815.6,383.3 822.2,381.9 822.8,381 824.7,382.7
		824.7,388.9 828.6,390.9 828.9,393.9 833.4,398.6 835.6,398.7 837.6,400.7 839.9,402.1 839.6,407 843.1,409.3 845.1,408.2
		847.3,408.5 848.6,410.5 850.8,411.2 854.3,416.8 857.8,417.5 860.8,420.1 862.4,419.3 864.9,419.6 865.2,419.6 866.8,423.1
		871.2,424.5 873.8,424.2 876.8,427.1 876.6,429.3 879.3,432.2 882.3,431.5 885.4,431.8 887.6,433 890.9,432.3 894.9,434.7
		898.2,435.1 901.4,437.8 897,441.4 894.5,446.6 894.2,449.2 891.5,451.2 889,457.1 888.7,462.3 891.5,464.5 892.8,468.1
		886.8,469.3 883.7,468.5 883,466.1 878.9,465.9 876.3,468.4 879.7,470.7 880,474.1 876.6,475.1 872.6,479.2 869.8,479.9
		864.4,486.6 863,491.9 862.7,495.3 860.6,495 858.5,495.8 858.5,498.6 862.3,499.4 866.9,498.1 865.7,493.6 868.4,491.7
		873.6,492.6 874.9,496.1 875.7,500.6 877.6,502.5 877.8,505.5 877.5,505.3 875.8,507 875.8,511.4 878.8,514.8 877.1,520.6
		873,520.6 870.1,523.1 873.9,528.2 873.6,537.4 878.8,541.9 884.1,542.5 	"/>
	</g>
	<path id="GERMANY" class="aa2" d="M897.2,340l0.2-0.7l0.3,0.2l-0.4-3.4l-3.8-1.1l-1.3-3.3l1.1-3.4l8.1-1.2l2.4-0.8l3.6,3.2l-0.5,4
	l2.5,3.8l2-1.7l-1.3-3.3l0.3-2.5l1.7-0.5l2.3,2.6l-0.7,4l3.4,4.9l-1.2-3.5l0.4-5.1l-0.3-3l2.5-3.2l2.9-0.2l2.6,1.8l3.9-1l4.9,6.8
	l7.5,2.4l-6.9-3.9l-4.9-6.4l-4.2-0.8l-2.2-1.8l0.3-2.5l3-1.8l-3-2.4l0.5-4.1l-3.2,1l0.2-3.1l2.9,0.3l3.3-0.8l-3.5-4l0.6-2.5
	l-1.9-0.4l-2.2-1.9l0.6-2.9l-0.1-0.8l4.7,0.3l6.3,2.5l1.8,1.1l3.2-0.2l3,4.1l3.4,0.8l-2.3,3.8l-1.9,1.5l0.7,2.1l2.7,1.1l0.7,3.1
	l3-1.7l1.1-1.8l1.8-0.8l1.1,2l4.1,3.7l1.1-1.1l3.1-1.9l1.3,1l-0.3,3l-2.6,2.5l-2.1-0.6l-3.3,1.7l4.3,1.9l1.7-0.5l3.2,0.7l0.9,2.1
	l3.7,0.1l0.9-2.5l2.8-3.1l6.6-0.3l0.4-1.6l3.7-1.4l0.6-1.8l1.6-0.6l4.5,1l-3.8,1l-1.5,1.3l-0.5-0.5l-2,1.6l1.1,1.5l3.9-2.1h3.9
	l1.7-0.6l1,2l3,0.9l3.9,4.9l3.7-0.3l1.7,3.3l-1.1,3.3l2.9,2.9l3-0.1l1.9,2.1l3.2,0.2l1,8.1l-1.2,5.8l-5.2,2l-0.3,2.4l4.8,6.5l-1,3.5
	l2.2,3.6l-0.3,2.7l1.1,3.9l-1.8,2.9l2.3,7.6l2.2,1.5l1.8,3l-0.8,9.4l-1.1,1.4l-0.8,1l-2.4-1.6l-2.5,1.3l-5.3-1.9l-0.4,3.2l-3.1,1.4
	l-2.5-0.9l-5.9-0.5l-2.2,2.7l-3.8-0.3l-3.9,3.5l-3.1-0.1l-6.9,5l-3-1.7l-1.5-1.6l-1.7,1l-0.1,2.6l4.3,3.3l3,6.2l-0.8,4.3l0.7,2.7
	l3.2,2.3l5.6,4.8l3.2,2.7l6.1,9v0.1l-1,3.1l-0.2,3.5l-2.8-0.3l-2.4,3.3l-4.3,1.5l-5.4,5.4l-0.3,2.3l4.1,2.6l0.1,3.4l-1.9,1.1
	l-3.7-2.7l-4.1,0.7l-3.9-1.6l-2.8,0.1l-6,3l-3.1,0.3l-2.7-1.2l-3.1,0.4l-2.3-2l-4.8-1.3l-4.8,0.1l0.1,2.5l-1.3,1.3l-4.3-1.6l-2.1-3
	l-3.3,0.8l-2.2,0.8l-0.9-0.1l-1.6-1.4l-4.4-4.1l-2.4-0.4l-2,1.4l-2.1-0.9l-0.9-3.6l-3.7,0.9l0.1,2.2l-1.5,2l-4.2-2l-3.4,1.4
	l-2.8-1.2h0.1l-1.3-3.6l-2.8-2.2l0.3-5.1l2.5-5.9l2.7-2l0.3-2.7l2.5-5.1l4.4-3.6l-3.2-2.7l-3.3-0.4l-4-2.4l-3.3,0.6l-2.2-1.1
	l-3.1-0.4l-3,0.7l-2.8-2.9l0.3-2.2l-3-2.9h-0.1l1-5.6l-1.8-2l-0.3-3.9L869,407l-1.2-0.1l2.6-4.6l-1.8-3.5l0.4-2.1l-2-5.8l1.4-2.4
	l-0.4-0.2l1.9-3.7l1.8-5.8l-0.5-5.3l2.6-2.5l2.6-3.3l4.8-0.6l4.3,1.5l2.7-1.1l-1.5-3.5l2.5-1.4l0.9-3.8l1.3-2L890,355l-4.3-0.4
	l-0.3-2.3l1.9-3.3l3.5,2.1l2.5-1.6l0.5-3.5l1.8-2.9l0.5-2L897.2,340z"/>
	<path id="SWITZERLAND" class="aa2" d="M939.9,487.9l-4,3.8l1.1,5.8l-7,0.7l-1.5,6.5l-2.8-2.9l-3.1-0.1l-7.4-2.9l-0.5,4.9l-4.3,6
	l-1.4-3.8l-5.3-3.4l1-4l-3.8-3l-7.6,10.2l-4.4-2.6l-7.5,4.3l-3.6-1.9l-0.2-3l-1.8-1.9l-0.8-4.5l-1.4-3.5l-5.2-0.8l-2.7,1.9l1.2,4.5
	l-4.5,1.3l-3.8-0.8l-0.1-2.8l2.2-0.8l2.1,0.4l0.3-3.4l1.4-5.3l5.4-6.7l2.8-0.7l4-4.1l3.3-1l-0.3-3.4l-3.5-2.3l2.6-2.5l4.1,0.2
	l0.8,2.4l3.1,0.8l5.8-1.1l2.8,1.2l3.4-1.4l4.2,2l1.5-2l-0.1-2.2l3.7-0.9l0.9,3.6l2.1,0.9l2-1.4l2.4,0.4l4.4,4.1l3.6,3.1l-0.6,2.9
	l-1.3,2.2l0.9,2.2l1.8,0.3l2.8,0.5l2.3-0.6l3.3,4l3.4-2.5l2.8,0.3L939.9,487.9z"/>
	<path id="UK" class="aa2" d="M700.2,218.6l0.7,2.1l-1.3,1l-1.1-2.9L700.2,218.6z M702.9,248.1l3.4-5.6l-6.7,4.9l0.8,3.3L702.9,248.1
	z M703,203.1l-1.8,0.6v4l-3.4-3l-0.2,3.1l-1.1-0.9L695,208l2.9,2.7l0.3-1.3l1.2,1.1l-0.6,1l1.9,4.5h4.1l-0.1,3.4l1.4-0.1l1.3-2.9
	l2.6-1.1l-1.2-1.1l-2,0.2l-3.3-2.3l1.1-5.9L703,203.1z M752,171.5l-1.7,0.1l1.2,1.7L752,171.5z M795.5,368.3l-1.3,0.5l2,1.3l1.9-0.3
	l-0.9-1.4L795.5,368.3z M695.7,196.3l-1.6,0.6l-0.8,1.4l-1.3,0.5l2,1.9l4.3-3L695.7,196.3z M698.8,243.6l-0.3-1.8l-1.4,3.2
	L698.8,243.6z M688.6,232.9l3.3-2l-2.8-0.5L688.6,232.9z M698.5,190.4l-3.5-2.1l-2.2,2.2l1.6,2.2l-1.7,1l1.5,1.6l3.1-0.1l3,1.1
	l2.6-2.9l-1-0.9l1.3-2.5l3.3-2.4V183l-8.5,4.7L698.5,190.4z M686.4,205.8l-0.1,1.1l2.1,1.1l1.2-2.4L686.4,205.8z M748.2,175.1
	l-0.1,2.5h3.3l1.7,1.4l0.4-2.6l-3.9-0.1l1.4-1.4l-1.8-2.3l-2.6-0.1l-0.4,3.2l1,1.4L748.2,175.1z M708.5,207.2l0.1,3.9l-0.2,1.3
	l4.5-0.2l-3,1.1l-0.4,0.8l0.9,0.7l2.9-0.7l-0.7,0.6l1,1.5l-2-1.1l-0.9,0.5l-0.8,1.8l1,0.9l-1.7,0.1l-1.3,1.6l1.8,0.9l0.3,1.5l-3-1.6
	l-0.8,2l1.2,1l-0.9,1.3l-1.6,0.9l-3.1-0.3l-1.5,1.2l1.1,0.9l2.6,0.1l1.7,0.7l-0.5,0.7l-2-0.2l2.4,2.9l0.9-0.3l1.2,1.6l8-6.4
	l-1.4,2.1l1,0.8l-2.2,0.5l-2.2,3.9l0.1,1l-2.7,4l0.9,0.6l-2.5,4.8l0.1,3.3l-1.6,1.8l0.8,1.7l1.3-0.5l-2.7,3.3l-1,5l-1.8,1.4v1.2
	l3.7,0.4l-0.2-2.6l2-3.5l0.1-2.3l2.2-2.1l-0.8-6.4l1.4,0.2l5-4.8l-3.9,4.6l-0.8,3.6l1.2,1.1l0.5-2.1l2.4-1.6l0.6,3.5l2.3-3.9
	l-0.1-2.9l1.6-0.6l-1,3.6l3.4,3.3l-3.1-1.2l-1.7,4.6l0.3,3.5l1.9,0.7l0.8,3.2l-3.2,2.6l-3.8,7.3l0.3,3.5l-2.4-1.9l-0.3,3.7l2.9,5.3
	l-0.5-4.6l2.5-0.4l5.7,5.2l0.5-3.5L719,275l1.7-0.2l4.6,3.7l3.5-0.2l0.2-1.5l3.2,0.5l1.3-2.9l8.7,1.4l-5.9,0.9l-4.6,9.5l3.4,8.2
	l2.3-1l-0.5,4.1l3.2-3.1l3.4,0.9l-1.7,4.1l1,0.8l-3.8,2.4l0.5,4.9l-2.3,3.4l1.8,3l2.3,2.5l2.1,0.4l-1.5,0.9l-2.3-0.1l-1.7-3.1
	l-2,0.5l1.3,3l1.6,1.3l-2.7-0.9l-2-2.5l-5.8,1.2l-2.5-0.7l-6.1,2.2l-3.5,3.9l-4.5,2.2l-2.1,2.4l2.7-0.2l1.3,0.6l0.6-1.5l6.1-0.9
	l-0.9,3.1l1.8,2.4l-2.4,1.4l1,2.5l1.4,0.5l-4.7,7l-2.9,0.6l-3,1.8l-1.4-0.1l-3.9,1.8l-2.6-0.3L698,348l3.3,0.8l-0.1,2.5l-2.5,0.9
	l4.2,1.2l-1.2,0.9l1.6,1.1l2.5-0.4l3-1.4l4.7-1l0.2,2.1l3.5,1.3l-3,0.5l-0.5,1.7l4.9,0.7l0.1-1l2.5-0.4l2.2,3.2l2,3l5.7,0.6l1.6-2.1
	l2.8-0.9l3.8-1l1.6-1.9l3.2-1.1l-4.8,4.4l-4.7,3.5L734,370l-2.9-0.5l-2.4,0.6l-2.4-1.7l-7.3-1.6l-5.4,0.8l-0.3,2.6l-2.4,1.9
	l-2.9-0.3l-1.2,6l-3.4,2.4l-1,1.5l-3.5,0.2l-1.3,3.4l-1.5-0.1l-1,1.7l-4.5,2.5l-1.8-0.9l-3.1,1.7l-0.3,2.6l3.1,0.5l0.4-2.4l3.7,1.4
	l1.3,3l2.1-1.6l-0.6-1.4l2-2.1l0.7,1.2l2.4-1.8l1.4,0.1l1.4-2.4l3.2,1.2l2.7-0.9l2,0.6l1.6-0.6l1.2,2.1l1.8,0.1l2.2,2.3l2.8,0.2
	l-0.3-1.9l2.3-0.8l0.8-1.6l-0.3-3.1l2.2-1.7h1.6l0.8-1.1l6.4-0.7l3.3,0.6l3.5,3.1l1.5-0.4l4.1,0.7l2.1,1.1l1.4-2.5l4-1.5l2.5,1l4-2
	l2.5,0.9l1.4-0.1l2-1.1l0.4,1.4l2,1.5l2.7-1.4l5.8,0.6l3.7-0.4l3.3,1.5l1.7,0.5l2.8-1.8l2.9-0.2l2.8-2.1l1.8,0.1l1.8,0.6l-0.2-2
	l4.4-2.3l2.6-0.3l0.5-2.5l-0.5-1.9l1-2l-4.6-0.4l-3.4,0.9l-1.9,0.1l-2.9-1.5l-1.1-0.4l1.2-0.9h1l0.4-0.6l-2.7-1l-2.5,0.6l3.6-2
	l2.2,0.5l2.9-1l-0.5-2.4L795,362l2.2-1.5l1.6-1.3l1.5,1.5l2.7-1.5l1.2-1.4l-1.2-0.4l0.9-1.1l-2.8-0.6l1.3-1.8l1.8,0.7l0.4,1.4
	l2.4-2.5l2.1-0.6l0.9-5.1l2.4-4.6l-1.3-2.1l-0.3-4.5l-5.4-5.3l-8.1-1.3l-5.1-0.4l-0.8,3.8l-1.6,2l-2.3-3.3l-3.2-1.2l5.7-4.5l0.4-3.1
	l-3.3-7l-1.6-0.5l-3.3-2.5l-1.2-2.6l-1.8,0.1l-1.3,0.3l-2-1l-1.3-0.1l2.5-0.3l1.5,0.6l2.7-0.3l1.5,0.9l1.2,1.6l1.8-0.1l1.7,0.6
	l-4.1-6.4l-1.9-3.1l1.7-2.1l1.3-0.3l-2.2-1.5l-0.8-1.9l-1-0.2l-2.2-5.4l-3.9-2.6l-5.8-2v-2.3l-1.3-1l-1.1-6.6l-1.7-3.8l-0.5-8.3
	l-1.4-2.9l-1.6-0.2l-4.1-7.9l-2.9-1l-2-2.1l-3.6-1.9l-1.6,1.2l-3.2,1.6l-4-1.8h-2l-3.2-1.4l-0.8-2l1.9,1.3l4,0.8l3.5-0.7l1.3-2.5
	l3.4,0.5l3.3-2l-3-1.8v-1.9l-1.2-1.2l-4.6,1.8l-0.6-1l3.6-2.1l4,0.7l2.6-1.8l0.6-1.8l1.7-0.8l2.9-4.3l1.7-1.9v-1.5l2-2.9l-0.5-1.1
	l2-4.1l3.1-2.1l0.3-2.7l-3.7-4.3l-0.9,0.6l-7.1-0.6l-4.3-1.3l-1.4,0.7l-2.1-0.2l-2.6-1.2l-1.9-0.1l-0.4,0.9l-2.8,0.5l-3.1,1.2
	l-1.1-0.2l-2.1,1.4l-0.5-0.7l3-2.7l3.3-4.1l-2.1,0.9l-2.4-1.2l1.6-0.8l0.8-2l7.5-4.4l2.4-3.2l2.4-0.6l1.5-2.9l-1-1.5l1.6-2v-1.4
	l-3.5-0.4l-1.6,1.4l-2.1-0.9l-3.5,1.1l-3-0.7l-2.7,0.8l-1.5-0.2l-1.7,1.3l0.5-1.5l-1.3-0.8l-3.4,2.3l1.1-2.1l-3.7-2.3l-1,2.4
	l-1.5,0.9l0.1,2.3h-0.8l-0.2,2.8l-2.9,0.3l1.1,2.5l-1.4,2.3l-1.4-0.1l3.1,3.4l1,2.3l-3.3-2.1l-1.4,0.9l-2.3-2l-0.3,1.2l0.5,1.7
	l-0.9,1.1l-1-2.8l-1.5,2.6l1.2,1.6l-1.2,1.3l1.8,2.6l2,0.3l-2.4,0.6L708.5,207.2z M690.6,204.2l0.4-1.9l-4.3-1l-1.4,0.6l2.1,2.7
	L690.6,204.2z M674.9,268.6l-1.4,3l-3.6,0.1l-4.7,7.5l6.6,7.7l2.6-0.2l1.6-4.7l2.2-1.3l4.8,3.1l2.5,7l2.5,0.8l3.5,3l0.7,0.2v-2.6
	l1.6,0.6l2.9-1.9l0.6-2.4l4.1,1l0.9-2.9l-2.5-0.8l1.3-2.6l-0.8-2.1l2-0.1l1.3,6.3l-0.2-7.9l-4.7-0.8l2.8-1.6l-4.3-7.9v-3.3l-2.5-1.7
	l-5.3-1.1l-3.6,1.8h-2l-1.2,1.1l-3.4,0.3l-1.9,1.6L674.9,268.6z M714.2,291.4l-1.9,4.4l3-0.2l4.7-3.7l-0.5-1.9l0.9-2.9L714.2,291.4z
	 M699.3,252.8l-0.8-5.9l-5.3,1.5l-0.5,4.5l3.5-1.7l-0.8,3.3L699.3,252.8z M693.3,229.8l2.4-0.8l1-2.6L693.3,229.8z M713.5,314.8
	l4.5,3l4.5-2.8h-3l-1.1-3l-3.7,0.1C714.2,313,713.8,313.9,713.5,314.8L713.5,314.8z M760.6,382.8l-5,1.9l2.2,0.7l2.2,2l2.4-0.1
	l0.1-1.2l1.4-1.8h-1.8L760.6,382.8z M708.5,255.4l0.3,5.2l3.2,1.7l1.4-3.4l-1.8-5.2L708.5,255.4z M703.7,238.2l3.3-2l-0.9-3
	l-2.2-0.6l-2.4-3.5L698,231l4.3,2.7l-2.7,1.1l0.5,1.2l-3.3,1.8l6.6-0.7L703.7,238.2z M748.2,180.1l-0.9-1.9l-1.6,0.2l1.6,3.3
	L748.2,180.1z M684.3,216.3l-1.6,1.6l-0.3,1.8l2.5-1.2L684.3,216.3z M688.1,208.8l-1.8-0.6l-0.1,2l-1.2,2.1l0.4,2.4l2,0.7l-0.3-3
	l1.1-1.5L688.1,208.8z"/>
	<g>
		<polygon class="aa2" points="894.6,587 894.9,589.6 897.3,591.2 897.2,592.6 895.8,593.2 896.6,595.1 898.9,596.7 898.5,599.1
		899.7,599.2 900.4,600.9 899.1,600.5 897.7,602.2 898.4,604 903.5,606.8 907.1,605.6 909.6,600.2 909.9,595.7 913,587.8 912,580.4
		912.9,575.9 912.6,570.8 910.8,570.6 909.8,573.6 910.6,576 909.8,579.1 908.4,578.9 906.5,576.4 904.2,578.3 898.6,579.6
		895.7,583.6 897.5,585.7 896.6,587.2 	"/>
		<path id="ITALY" class="aa2" d="M983.1,733.9l5.2,1.4l-0.2,2.7l-2.2,1.8l-3.3-3.4L983.1,733.9z M930.1,579.3l-0.2-2l-1.4-2.2l-1,1
		l-4.1,1.1l-1.7,1.4l1.8,1l3.8-0.8L930.1,579.3z M1005.5,694.7l1.2-4.6l-2.3-3.5l-4.9,3.8l-1.8-0.5l-3.6-2.6l-4.2,3.6l-8-1.5
		l-6.8,1.3l-4.6-1.5l-3.1-2.6h-3.9l-2.3,1.5l-1-1.7l-4.5,1.5l-1.2,5.7l3.3,3.9l3.8-0.2l6.2,5.3l3.5,1.3l2.9,4l7.5,3.8l1.7-0.9
		l3.2,2.9l0.3,2.9l7.8,4.1l3.4-0.2l0.2-4.4l2-2v-3.9l-2.7-4.8l4.2-8.2L1005.5,694.7z M987.3,512.3l-1-3l4.7-5.3l-2.3-2.6l-5.9-0.2
		l-10.4-3.2l-8.1-6.1l0.9-3.5l-6.2-0.2l-3.7-1.5l-9.8,4.3l-5.5-3.2l-4.1,3.9l1.1,5.8l-7,0.7l-1.5,6.5l-2.8-2.9l-3.1-0.1l-7.4-2.9
		l-0.5,4.9l-4.3,6l-1.4-3.8l-5.3-3.4l1-4l-3.8-3l-7.6,10.2l-4.4-2.6l-7.5,4.3l-3.9-2l-1.8,1.6v4.4l3,3.4l-1.7,5.8h-4l-2.9,2.5
		l3.8,5.1l-0.3,9.3l5.2,4.5l5.3,0.6l-2.9,5.1l0.8,3.9l8.6-0.5l3.5-3.5l0.5-2.9l9.7-4l11.4,4.4l3.2,2.7l5,2.1l1.2,3l0.8,2l1.1,2.9
		l2.6,5.6l-0.2,3.1l2.6,2.1l-0.7,4.9l3.9,2.5l2.3,3.6l4.3,5.1l0.2,3.3l5,0.7l2.7,4.6l0.4,2.9l2.2,1.1l6.2,10l6.4,6l3.3,0.9l2.7,2.3
		l0.3,3l3.2,0.4l2.5-1.9l3.4,1.9l3.5,0.7l2.9,7.4l2.1,1.7l2.1-0.6l2.8,1.4l-0.5,2.4l3.1,0.2l3.2,0.6l1.9,3.2l-0.8,3.4l-1,1.4
		l1.5,1.9l3.6,0.7l1.1,3.1l4.4,1.6l2.1-1l2.3,1.9l1,5.8l0.2,5.4l1.6,2.6l0.8,6.5l1.7,3.2l-0.5,3.2l-2.1,2.1l-1.4-0.1l-1.1,0.5v3.5
		l-0.8,3.3l-2.4,2.2l-2.3,0.9l-1,1.3l-0.2,2.7l3.4,4.3l5.1,0.2l2.9-3.2l1.1-3.7l5.3-3.3l1.3-8.1l3.3-2.7l3.2-0.4l1.5-2.4l-0.7-1.7
		l1.1-4.5l-0.7-2.1l-4.4-5.2l-2.8-0.7l-1-1.9l0.3-2.6l2.7-1.4l0.9-2.6l0.1-2.3l2.3-1.9l1.7-4.1l1.7-0.8h2.4l3.4,2.1l0.9,1.7l5.4,0.7
		l1.8,1.4l-0.7,2.6l1.1,3.4l2.1,3.3l3,1.7l0.3-1l1-0.7l-0.1-2.9l1.8-2l1-4.5l-1.1-2.5l-2.7-2.4l-5.6-2.1l-3.1-4.1l-5-4.7l-13-9.1
		l-6.5-2.4l-3.6-0.4l-1.4-3l0.3-1.6l4.8-2.6l0.9-2.3l-2.9-2l-4.3,0.2l-2.7-1.1l-6.7-0.7l-2.1-1.6l-3.2-1l-2.2-2.9l-4.7-4.6l-2.1-4.2
		l-2.8-3.6l-2-3.8l0.3-3.6l-1.4-1l0.1-3.1L977,564.7l-2-3.7l-4-2.8l-7.3-5l-1.6-2.9v-5.1l-1.5-4.6l1.8-1.2l3.1-3.7l-2-3.3l-1.4-4
		l1.7-2.5l3.9-0.1l4-2.8l3.9,0.4l2.8-2.2l2.5-0.9l3.9,1.5l-0.2-6.1L987.3,512.3z M889.2,612.6l0.5-1.6l1.7-1.5l-1.3-1.4l-0.8,1.7
		l-1.2,0.5l-0.1,2.3H889.2z M888.8,624.1l0.4,2.8l2,2.3l-0.5,4.1l-2.8,2.4l0.8,2.3l3.4,0.7L892,640l-2.4,2.3l-2.3,6l1.2,2.4l0.9,7.4
		l2.3,3.1l1.4-0.7l1.7,1l2.7-0.8l0.7-4l1.3-2.3l3.3,0.7l1.9,2.4l2,0.2l1.6-2.4l0.8-6.5l0.9-1.8v-7.2l2.1-6.3L908,629l4.2-2.1
		l0.8-2.6l-0.5-4.3l-2-2.8l-2-5l-1.5,1.2l-2.8-2.8h-2.7l-7.3,6.9l-2.8-0.2l-3.7-2.9l-0.5,3.9l-1,2.5L888.8,624.1z"/>
	</g>
	<path id="PORTUGAL" class="aa2" d="M626,660.3l-0.3,4.2h-0.1l-1,1.4l-4.7-0.1l-5.5,2.3l-3.1-2.4l-7-3.8l-5.6,3l-1.2-1.2l1.6-1.8
	l2.5-6.5l0.8-9.4l2.2-3.9l-0.7-4.8l2.2-2.1l-4.5-0.7l-3,2.2l-1.4-1.9l0.7-3.7l5.5-2l-0.7-2l0.8-2.2l-3.9,1.8l-2,2.3l-3.6-0.4
	l0.1-2.5l3.6-10l5.4-6.1l0.4-3.3l4.7-5.3l0.9-5.7l2.7-4.3l2.2-2.3l-2.2-3.2l1.9-4.8l-0.5-1.8l2.5-11l-2-6.3l0.1-3.7l8-0.3l2.9,1.2
	l-1,3.8l1.2,2.7l6.2-2.4l9.5,3.2l3.7-2.9l8.3,2v4.4l3,5.5l-1.4,3.5l-2.5-0.3l-7.4,5.6l0.2,4.7l-1.8,11.2l-4.3,3.4l2.7,3.4l-5.3,5.8
	l-3-0.9l-4.5,0.5l3.6,9.2l3.8,3l-0.6,7.2l-6.3,5l2,5.4l3.8,0.7l-0.9,3.3l-4.7,3.1l-5,6.7L626,660.3z"/>
	<path id="GREECE" class="aa2" d="M1187.5,744.2l1-1.2l2.9-0.7l1.3,0.8l-1.4,1.7c-0.8,0.2-1.6,0.5-2.3,0.8L1187.5,744.2z M1165,648.9
	l-1.5,0.4l-1.4,3.1l2,0.2l0.9,0.7l2.4-0.8l-0.1-2L1165,648.9z M1194.5,721.4l1.3,1.8l1.7,0.3l1-0.9l2.1-0.7l-0.2-1.4l-0.9-0.3
	l-0.7,0.6l-1.9-2l-2-0.4l-3.2,2l-0.9,1.2l1.9-0.3L1194.5,721.4z M1156,726.2c0.6-0.2,1.1-0.4,1.6-0.7l0.3-1.6l-1.6-0.6L1156,726.2z
	 M1157.1,740.2l0.7-1.8l-2.3-0.3l-2,2.3l1.5,0.4L1157.1,740.2z M1157.7,730.9l0.3-2.3l-1.7,1L1157.7,730.9z M1154.3,720.8l0.4,1.2
	l1.9-0.6l-1.1-1.9L1154.3,720.8z M1220.6,752.1l1.3-0.8l0.4-1.8l-2.3,0.7l-4.2,1.2l-4.2,2.8l-0.4,1.8l0.5,0.8l-1.1,1.8l1,1.3
	l1.5-0.1l1.8-1.7l2.1-1.6l1.7,0.1l0.1-1.2l1.1-1.4L1220.6,752.1z M1130.4,744.8l-0.3,1.9l1.6,1.1l1.5-2.4l-1.5-2.6l-0.3-2.4
	l-0.7,0.7l-1.2,2L1130.4,744.8z M1130.9,737.6l-0.5,1.4l1.3,0.2L1130.9,737.6z M1092.5,706l-0.7,1.9l2.1,2.7l1.9,0.7l0.6-1.1
	l2.1,0.6l-1.2-1.7l-1.3-2.3l-2-1.3L1092.5,706z M1199.9,763.4l0.8,2.3l0.2,3.6l1.1-0.4l1.7-3.2l-1.4-2.4l-0.2-2.2L1199.9,763.4z
	 M1194.3,645.1l-0.3-3.9l4.9-2.3l0.8-4.3l-3.4-1.9l1.3-4.6l-2.1-0.2l-4.6,2.7l-0.7,4l1.1,3.2l-2.5,1.7l-7.4-1.4l-3.6,1.3l-2.8-2.1
	l-3.4-0.4l-2.6,1.6l-3.3-0.6l-0.2-3l-4.6-0.4l-4.2-1.3l-3.4,2.6l-4.6,0.6l-5.8-0.8l-1.7-1.1l-0.1,0.1l-2.4,1.7l-3.2-0.2l-4.4,2.1
	l-8.7-1.4l-3.9,1.6l-0.4,1.5l-5.2,1.2l-7.5,3.5l-0.1,0.4l-1.2,4.5l-3.4,4.8l-7.3,1.5l-0.7,4l-3,4.9l-2.4,0.9l0.3,0.3l-0.3,5.1
	l5.9,5.5l3,5.7l1.7,0.6l-0.6,1.5l4.2,7.5l0.7,4.9l2.2,1.2l3.3-3.3l2.3,3.7l4.1,1l2.1-2.5l2.9,0.6l4.3,3.3l3-1l0.3,2.5l2.3,0.1
	l1.7,1.7l3.7,1.1l-2.9,1.3l-2.7,2.1l-2.2-2.3l-3.1-1.2l-6.4-5.3l-3.2,0.7l-3.1,1.4l-2.9-1.8l-2.9,2.9l-1.9,0.3l-1.6,2.9l3.2,4.7
	l3.7,2.3l3.3,3.9l0.1,2.6l-1.7,1.6l-0.1,3.4l2.7,4.5l1.8,2.7l1.2-2.2l-0.6-1.8l1.7-2.9l0.8,4l4.4,2.5l0.8,2.7l-1,2.9l1.7,2.6l0.6-5
	l2.2-3.8l3,0.3l1,3.4l4.8,4.1l-1.7-3.8l0.8-2.3l-1.5-3.7l-1.8-6l-1.7-3.6l0.3-1.3h2.2l3.6,2.5l-1.4,1.3l1.1,1.5l2.3-1.9l3.9,1.8
	l0.3-1.3l-1.5-1.4l-0.2-1.5l-1.4-0.5l-2.7-2.2l0.5-1.7l-3.2-3.1l3.5-1.1l3.1,0.5l2-1.4l4.4,3.9l0.4,1.5l3.3,0.8l1.2-1.9l-2.4-4.6
	l1.3-3.9l-1-2.4l-7.6-6l-2.5-1l-1-2.2l-2.3-0.1l-1.3-2l-3.4-0.8l-3.1-3.5l3.8-0.1l2.4-2.3l0.1-1.9l-3.4-1.3l2.2-2.2l0.1-2l2.6,1.3
	l2,2l-1.1,1.8l0.1,1.9l2-0.2l1.7-4l-2-3.1l-4.6-7.2l-2.1-2l-0.3-2.5l-3.7-3.9l1.7-1.7l0.1-7l2.7-3.3l4.4-0.5l0.1,3.5l-2-0.2l0.2,1.9
	l5.2,3.2v4.3l3.2,3.2l3.9,0.3l-2.6-2.2l-1.2-2.8l0.8-2.3l3.5,1.6l2.3,4.2l2.3,1.2l1.6-2.1l-2.4-2.3l-2.3-1.2l0.4-2l6.5,1l2.1,2.7
	l1.2-1.1l-3.3-3.9l-3.8-1l-2.8-4.1l2.1-1.9l3.3,1.5l3-1.3l1.9-4.5l2.6-0.6l3.5,3.4l2.9,0.6l3.6-3l0.3-1.7l1.5,0.2l2.1,3.1l7.2,0.8
	l5.2,2l4-0.5L1194.3,645.1z M1203.2,759.8l0.2-1.7l-1.2,1.5l0.4,0.8L1203.2,759.8z M1134.4,686.2l-2.7,1.9l1.5,0.5l3.1,0.2l1.5,1.6
	l0.6,1.2l1.5,0.9l1.2,2.1l2.1,0.8l1.2,2.3l3,2.1l2.3,0.1l0.7,1.6l1.8,3.6l1.3,1.5l-0.5,1.9l0.8,1.9l2.4,2l1.6-0.7l1.6,1.1l1.7-3.4
	l-3.1-0.7l-1.1,0.6l-2.1-2.6l0.6-2.6l-0.3-1.8l0.1-1.5l-1.2-2.9l-3.7-4.7l-0.4,0.5l-2.3-0.4l-0.3-0.8l-2.8-1.9l-2.9-1.5l-2.3-3.2
	L1134.4,686.2z M1193.6,683.3l-3.8,0.2l-2,1l-4.1,1l-1.9,2.5l2.4,2.5l1.1,0.3l1.7-0.2l0.6-2.1l1.1-2l2.6,0.2l-0.5,2.2l-1.6,1
	l-1.1,1.3l2.3,1.4l3.6,0.2l0.5-3.7l-0.3-2.6l-0.8-0.2l0.9-1.9L1193.6,683.3z M1182.8,707.5l1.8,1.7l2.6-0.9l1-2.8l-0.3-4.4l-0.7-1
	l-2.1-1.1l-2.2,0.8l-0.1,1.2l2.1,2l-0.2,2.6l-1.7,0.5L1182.8,707.5z M1146.7,686l-0.3-2.3l-1.8-0.9l-1.1,0.2l2.5,4.1L1146.7,686z
	 M1173.8,734l1.7,0.3l1.8-1.9l-0.2-1.9l-1.5-0.5l-2.8,1.9L1173.8,734z M1094.8,690.3l1.2-1.2l-0.2-3l-1.2,0.1l-1.9,2.7l0.1,1.2
	l0.9,0.5L1094.8,690.3z M1141.7,681.9l-1.4,0.8l1,1.7l1.1-1.6L1141.7,681.9z M1088.7,695.6l-0.4,3.7l1.4,1.8l1-0.8l0.3-1.8l0.7,1
	l-0.2,2l2.4,0.6l2,1.4l1.3-1.6l-0.6-1l-0.2-1.7l-1.4-1.8l0.6-1.4l-0.8-2.6l-1.8-1.9l-0.5,4.3l-1.5-0.4L1088.7,695.6z M1080.5,662.1
	l-3.2,0.8v1.8l1.8,1l0.1,1l2.7,3.7l2.7,1.7l0.9-0.5l-0.3-1.3l-2.2-1.1l-1.7-2.5l0.5-3.4L1080.5,662.1z M1187.5,723.9l0.8-1.7
	l-3.8,0.3l-0.7,1.9l1,1.6L1187.5,723.9z M1168.1,732.7l1.4,1.5l1.9-2.2l-0.6-1.9l-1.7-0.2L1168.1,732.7z M1174.3,666.8l-1.1-1.2
	l-2.8-0.3l-1,1.2l0.5,2.8l1.4,1.5l1.4-0.1l1.9,1.1l0.8-3.3l2.4-2.1l-1.7-1.2L1174.3,666.8z M1162.4,690.4l-1.3-1.8l-1.3,0.3l1.5,3.1
	l0.8,0.4l0.7,2.1l1.2-0.3v-3L1162.4,690.4z M1173.8,726.1l1.7-0.8l-1.5-0.6L1173.8,726.1z M1169.2,721.1l1.3,1.8l1.9,1.1l-0.1-1.7
	l-1.3-1.7L1169.2,721.1z M1162.2,713.3l-1.1,1.4l1.4,1.5l3.3,4.1l1.4,0.2l0.3-1.9l-2.7-3l-1.2-2.3H1162.2z M1141.5,758.2l-0.5,2.5
	l-1.4,2.1v2.7l2.4,1.4l6-0.1l2.3,0.9l2.5-0.5l3.4,1.4l3.6,2.7l0.2,2.3l4.4,0.3l3.9-1.9l4,0.8l6.5,0.5l4.5,0.7l2.7-1.3l1.4-2.4
	l-0.3-2.5l0.2-1.5l-1.1,1.3l-0.3,1.8l-2.4,1.6l-1.4-1.5l-1.9,0.5l-1.8-0.5l0.6-1.6l-0.7-2.4l-1.7-0.1l-4.7-1.2l-3.6-2.1l-5-0.4
	l-4.4,2.1l-3.3,0.5l-2.5-1.7l-1.1-1.6l-2.1,0.1l1.6-1.2l-1-2.3l-2.8-0.1l0.4,1.4l0.9,0.4l-1.1,0.8l-2.6-0.2l-0.3-2.7l-0.8-0.3
	l-0.5,1.4l0.2,1.8l-1.4,0.3L1141.5,758.2z M1212.4,745l-1.4,1.1l1.5,0.7l1.6-0.3l-0.2-1.3L1212.4,745z"/>
	<path id="AUSTRALIA" class="aa2" d="M1591.5,670.7L1591.5,670.7 M1571.7,448.4l0.9-0.4l1.5,0.2l0.3-0.9l-0.4-0.2l-0.5,0.1l-0.3-0.3
	l0.9-1l-0.1-0.3l-0.9,0.3l-0.1-0.9l-0.6,0.3l-0.2,0.5h-0.9l0.3,0.3l-0.2,0.3l0.4,1.3l-0.6,0.5L1571.7,448.4z M1660.9,540.2l0.1-1.4
	l-0.9-2.1l-0.4-0.7l-0.1-1.2l0.4-0.5V533l0.9-1.8l-0.1-0.5l-0.2-3.3l0.6-1.2l-0.5-0.6l-0.3-1.2v-2.3l-0.5-0.2l0.6-1.3l-1.1-0.4
	l-0.6-1.1v-1.3l-1.3-1.1l-0.9-1.6l-0.4-1.6l-0.8-1.4h-0.7l-0.9,0.4l-0.8-0.7l-0.2-1.5l-0.6-0.2l-0.2-0.8l-1.4-1.2l-0.7-0.6l0.3-0.9
	l-0.8-1.4l1-1.4l0.2-1.7l-0.4-0.8l0.1-1.1l-0.8-0.4l-0.2,0.6l0.4,0.5l-0.4,0.6l-2.7-2.2l-0.6-1.3l-0.5,0.3v0.8l-0.3,0.9l0.7,1.8
	l-1.3-1.5l-0.6,0.7v-1.1l-0.5-0.9l-0.3-3.2l0.3-0.4v-0.8l-1.1-0.6l0.4-1l-0.8-0.6l0.2-1l-1.9-1.5l-0.6-1.1l-0.1-1.3l1.1,0.2v-1.1
	l-1-1.6l-0.5,0.3l-1-0.1l-1.2-1.6h-0.9l-1.1-0.9l-0.6,0.7l-0.5-0.6l-1.3-0.4l-0.8,0.8l0.6-1.1l1.1-0.3l0.1-0.8l-0.4-0.6l-1.3,0.2h-1
	l-0.3-0.7h-0.6l-2.4-1.3l-1.1-2l-0.3-2.1l-0.8-1.3v-1.1l0.6-0.2l0.4-2.3l-0.8-3l-0.8-1.4l0.6-0.3l-0.8-0.7h-0.9l-1.2-2.2l-0.2-2.8
	l0.4-0.4v-0.6l-0.6-0.6l-0.4-3.5l0.3-1l-0.3-1.1l0.4-0.4l0.1-0.8l-2.1-1.8l-1.3-0.6l0.3-0.5l-1.3-1.3l-1.1,0.8l-0.6-0.4l-0.6,1.3
	l-0.9,0.1l-1.2-1.7l0.1-1l-0.8-1.6l0.3-2.1l-0.3-2.5l-0.5,0.2l-0.5-1l0.5-1l-0.9-1.1l-0.1-1l-0.6-0.4v-1.5l0.7-0.7l-0.8-0.4l-1,0.3
	l-0.8-0.7l0.3-2.8l-0.4-0.6l-0.4-1.6l-1.2-0.2v-0.7l-1.3,0.6l-0.6,0.9l0.1,2l-0.5,1.8v0.5l-0.2,1.2l-0.7-0.1l-0.7,1.9l-1,1.4
	l0.9,0.8l1.1,0.8l-0.7,0.5l-0.7-0.1l-0.4,1.1l-0.6,1.1l0.9,1.3l0.2,1l-0.9-0.3l-0.6,0.5l-0.4,2.8l0.6,1.9l-0.3,2.1l0.6,1.5l-0.1,1.7
	l-1,1v1l-1.1,2.3l-0.1,3.3l-1,1.2l0.4,1.2l-0.6,1.8l-1,1.1v2.2l-1.7,1.4l-3.6,1.6l-1.5-1l-1.5-0.1l-0.8-1l-1.5-1.1l-0.1-0.7
	l-0.4-0.5l-0.4-1.2l-1.3-0.2l-1.2-0.4l-1.8-0.1l-1.7-1l-0.3-0.9l-1.2-1.5l-1.5-0.1l-1.4-0.8l-0.1-0.7h-0.7l-0.7-0.5l-1.3,0.1l-1-0.2
	l0.3-0.5l-1.5-1.1l-0.3-1.1l-1.5-1.5l-1-0.1l-1.3-1.4l-0.1-1.4l1-1.8l0.2-1.4l1.1-0.8l0.3-1.6l0.4-1.1l-1,0.8l-0.9-1.5l1.1-0.8
	l-0.3-1.2h0.6l0.7-0.3l0.3,0.4l1.1,0.2l1.4-0.7l0.4-1.3l-1-0.8l0.8-0.6l0.8,0.2l0.5-2l0.7-0.4l0.7-1.1V435l-1.2-0.5l-0.7,0.9
	l-0.8-0.3l-0.2-2l-0.9,0.5l-1.3,1.7l0.7,0.3v0.8l-0.9,0.5l-0.9-0.5l-0.2-0.7l-0.5-0.6l-0.4,0.8l-0.8,0.3v-0.7l0.6-0.7l0.2-0.6
	l-0.8,0.4l-0.6,0.7l-1.3,0.5l-0.2,0.5l-0.7,0.2l-0.4-0.5h-1.1l-0.1-0.5l-0.9-1.2l-0.5-0.1l-1.3,0.8l-1-0.4l-0.6,0.4l-0.5-0.8
	l-0.5-0.1l-0.7-1.2l-1.3,0.6l-1.4-0.2l-1.3-0.5l0.1-0.8l-0.9-1.1l-0.5,0.1l0.2,0.5l-1.7,0.6l-0.5-1l-1-0.3l-1.6-0.8l-0.2,0.4
	l-0.8-0.5l-0.9,0.8l1.2,0.8l-0.3,0.3l1.1,0.2l0.9-0.5l1.7,1.3l-0.1,0.8l0.4,1.8l-1.2,0.1l-0.4,1.3l-0.4-0.8l-0.9-0.2l-0.9,0.6
	l-3.3,0.3l-1.3-1l-0.2,0.5l-1.3,0.5l0.2,1.1l-1.1-0.2l0.4,1.5l-0.4-0.5l-1.4-0.4l-0.5,0.8l0.6,0.7l-0.1,0.5l-1.4-0.4l-0.7,0.8
	l0.6,0.6l-0.6,0.3l-0.9,0.6l0.1,0.7l0.9,0.9l0.3,0.6l-1-0.5l-0.8,0.7h-1l-0.9,1.6l-0.8,1.9l-0.7,0.2l-0.3,1.5l-0.9,0.6l0.8,0.8
	l2,0.3l-0.7,0.3l-0.4,0.8l2.4,0.7l-0.9,0.4l-1.5-0.1l-0.5-0.7l0.1,0.7l1,0.7v1.3l1,1.3l-1.5-1.1l-1-1.7l-1.1-0.1v0.7l-0.4,0.8
	l-0.2-0.9l-2.5-1.5l-1.8,0.4l0.6,0.6l-0.6,0.6l-0.6-0.5h-0.5l-0.5,0.7l0.9,1.1l-0.2,0.7l-0.2-0.5l-0.6,0.1v0.6l-1.1,0.7l-1.6,0.4
	l1.3-0.6l0.8-1.2l-0.2-1.8l0.9-1.1l-0.6-0.7l-0.9-0.1l-1.8-2.9l-0.9-1.3l-1.6-0.3l-1.1-0.7l-0.7,0.5l0.6,0.5l-0.6,0.2l-0.7,1.2
	l-0.8-0.1l0.2-0.7l-1,0.3l-0.2,0.7l-0.8-1.6l-0.7-0.1l-0.1,1l0.8,0.5l-1.1,0.9l-0.3,1.2l0.4,0.7l-1.2,0.7l-0.6-0.8h-0.7l-0.2-0.6
	l0.8-1l-0.9,0.1l-0.4,1.2l-1.2,0.4l-0.5,0.7l-0.2,1.3l1.8,0.4l-1.3,1.3l-1.2-0.6l-1.3,1l0.3,0.8l1.6,0.1l-0.5,0.9l-0.8,0.2l-1.2-1.3
	l-0.9,1.1l-1.1,0.2l0.3,0.8l0.2,0.8l0.1,0.7l0.7-0.3l-0.8,1.2l0.6,0.8l-0.9,0.5l-0.6,0.8l2,0.3l-1.2,0.7l-0.2,0.5l-1.1-0.2l-0.6-0.8
	l-0.9-0.6l-0.8,0.8l-0.4-0.8l-1.1-0.6l-0.8,0.7l1.5,0.9l-0.5,0.3l-0.6,1.2l1.2,1l1.2-0.1l-0.5,1v1l-0.5-0.4h-0.6l0.3,1.2l-0.4,1.3
	l-0.1,1.4l-2-3.8l-1.3-2.3l-0.7-0.9l0.3-1.4l-0.4,0.7l-1.2,1l-0.2,1.5l-0.9,0.3l-0.1,0.6h-1.1l-0.6,0.9l-0.9,0.9l0.3,1.5l0.1,3
	l0.6,0.3v1l-1,0.6l-0.6,1.1l-1.5,0.5l0.2,0.6l-1.3,0.9l0.1,1.4l-0.7,0.7l-1.7,2.5l-3.3,2.2l-3,0.4l-1.2,0.5l-1.7,0.2l-1.4,0.4
	l-1.4-0.3l-1.8,0.8l-0.2,1l-1.2,0.6h-3.7l-0.9,0.6l-0.3,1l-2.3,1l-1.8,0.1l-1-0.4l-0.9,0.1l-0.4-0.6l-0.9,0.5l-0.9,1.4l-2.4,0.5
	l-0.2,0.5h-0.7l-1.8,1.8l-2.3,1.4l-3.2,1.1l-1.4,2v1.8l-1.3,1.2l-0.9-0.6l0.4-0.7l-0.2-0.9l0.6-1.5l-0.1-1l-1.8,1.4l-0.4,1.7
	l-1.2,2.5l0.9,1.7l-0.6,1.5l0.2,2.6l-2.1,2.9l-0.7,3.8l0.7,1.9l-0.2,2.8l2.1,3.3l0.1,1.3l0.9,0.9l-0.7,1.7l0.5,1.5l-1.2,0.5
	l-0.6-0.9l-0.2-2l-0.7,1.1l-0.4-0.4v-1.8l-1.3-2.5l-0.7,1.3l0.3,2.5l1.6,1.5l1.2,2.1l-1.6,0.3l-1.4-1.7l-0.4-2l-0.5,0.9l-0.6,0.4
	l1.1,1.9l2.1,2.4l1.3,3.2v5.8l0.9,1l0.7,3.2l1.9,4.2l-0.5,1.5l0.4,6.4l-0.2,0.9l0.7,1.8v2l1.3,2.8l0.1,1.4l-1.1,0.8l0.6,0.6
	l-0.3,1.5l-0.1,2.5l-1,1l0.3,0.7l-0.3,1.5l-1,0.8l0.3,1.5l-1.8,1.5l-0.9-0.7l-1.3,2.2l0.2,3.6l0.8,0.7h0.9l2.5,2.4v0.9l0.4,0.5
	l1.3,0.2l0.6,0.7l1.7,0.2l0.7-0.2l0.4,0.5l1.3,0.1l1.5-0.4l0.4,0.8l0.6-0.5l0.4,0.3l1.6-0.4l1.4-0.2l0.2-0.7l0.9-0.2l0.9-1.5
	l1.7,0.2v-1l1.1-0.7h0.9l0.9,0.9l0.9-1.3l0.5,0.2l0.6-0.3l0.3-1.4l3.1-2.1l1.2,0.1l0.8,0.5l1-0.7l3-0.8l0.4,0.6l1.9-0.5l0.6,0.4
	l0.9,0.1l1.2-0.5l0.5,1.2h0.7l0.9-0.5l0.5,0.6l0.9-0.6l2.3-0.1l-0.1,1l0.4,0.2l1.2-1.3l1.3,0.3l1.5-1.1l0.5-1.4l0.6-0.2l1.2-1.3
	l0.6-2.1l1.3-1.1l1.6-0.5l0.6,0.4l2.4-0.9l3-2l1.8-1.8l0.8-0.4h0.8l1-0.1l1.7,0.7h1.6l1.1-0.4h2.3l3.1-1.2l1.8-0.5l1.4-1.1h0.9
	l1.6-1.2l2.4-0.3l6.3-0.7l2.1,0.5h1.4l1.7-0.7l1.4,0.1l1.8,1.6l1.4,2.3l1.1,0.3l0.7-0.6l0.7-0.3l0.5,0.5l0.6-0.3l1.2,0.3l1.1,1.4
	l1.5,0.2l0.6-0.4l2.6,1.7l-0.2,1.1h0.8l0.9,0.9l-0.3,0.8h-1l-0.2,0.8l1.1,2.2h1l1.2,1.2l0.4,1.6l-0.2,1.2l1.4,2.7l-0.4,1.3l0.6,0.7
	l-0.2,1.5l-0.4,0.9l-0.7-0.4l-0.3,0.3l1,1.2l0.9,0.4l0.5,1.2l0.9-0.4l1,0.8v-1l-0.6-0.9l0.6-0.7l0.5-1.2l0.9-0.2l0.5-1l1-0.5l0.3-1
	l1-1.4l2.4-1.3l0.2-0.7h0.5l1.9-1l0.4-1.6l1.4-2.4l1.6-0.4l0.6-1l-0.5-1.2l0.2-1.4l0.8,1.6l0.1,1.5l0.1,1.4l-0.7,0.9l-0.2,2.9
	l-2.3,1.7l-0.3,1.3l-0.7,0.9l0.1,1.3l-1.3,2l0.5,0.5l-0.9,2.8l-2.6-0.2l-0.5,1.5l-0.6,1.2v0.4l1.7-0.5l1.6-0.8l2,0.6l1.8-3.3l0.4-3
	l1.6-1.7l0.4,0.5l0.2,2.7l0.7,1.6l-0.5,0.2l0.3,2.7l-1.2,2.4l-2.1,1l0.4,0.8l1.4-0.2h1.5l0.6-0.7l1-0.3l1.2-1l1,0.3l0.7-0.1l-0.5,1
	l-0.5,1h-1l-0.3,0.6l1.1,1.5l0.5,1.2l0.8,1.8l0.2,2.1l-0.1,2.7l-1.4,1.6l0.3,0.7l-0.1,2l1,0.8l0.9,1.5l0.3,1.8l2.1,2.7l1.6,0.3
	l1.1,0.7l0.6,1.4h1.2l0.3-0.5l0.7-0.3l1.5,0.4l1.3,1.4l1.3,0.1l1.5,1.3l0.2,1.2l1.1,0.3l1.2,1.3h0.9l0.4-0.8l2.2-1.1l0.6-1l1.4-0.1
	l1.4-1.5l1.1,0.2l0.5-0.6l-0.3-0.6l-1.3-0.3l0.4-0.8l2.2-1.6l1.9,1.3v1.3l-2.3,1.3l0.6,1.1l0.7,0.2l0.8-0.9l0.9-0.7l1.2,0.6
	l-0.1,1.1h-0.7l-0.9,0.9l1.6,1.7l0.4,1.9l0.6-0.4l0.8,0.1l0.1,1.2l0.9,1.2l0.8-1.5l-0.2-1.6l-0.9,0.7l-0.3-0.6l0.7-0.8h2.8l0.4,0.5
	l0.4-0.7l1.4-2l2.9-1.9l1.6-1.5h-0.9l-0.6,0.4l0.3-0.4l-1-0.3l1.1-0.1l1.5-0.1l2.2-0.7l4.4-1l3.6,0.6l1.4-0.9v-1h1l1-0.8l0.9-2.1
	l-0.5-2.2l-0.1-1.2l1.9-2l-0.1-3.4l0.9-1.3l0.3-2.3l1.1-0.6l-0.1-1.1l3.3-4.5l1-0.2l0.5-2.4l1.3-1.9l0.8-2.5l1.3-1.4l-0.2-1.2l1-0.6
	l0.8-2.3l-0.8-0.7l1.7-0.9l1.2-1.9l0.7-0.8l0.8-1.9l1.7-0.6l1-0.6l-1.7,0.1l0.4-0.6l2-0.2l1.8-1.4l0.3-1.4l-0.3-0.7l0.2-1.2l1.8-1.5
	v-1.2l1.3-0.6l1.2-2.2l-0.2-1.1l0.6-1.8l-0.5-0.5l0.1-0.9l1.5-3.8l0.3-2l1.9-3.8l-0.1-1.4l1-2.7l1.5-1.4l0.5-1.6l-0.6-1.9l0.9-1.2
	L1660.9,540.2z M1600.2,624.8l-0.4-0.5l-0.6,0.3l0.7,0.6L1600.2,624.8z M1610.3,642.1l-0.6,0.5l0.4,0.7h1.7l0.9,0.3l0.2-0.7l-1.2-1
	L1610.3,642.1z M1572,430.1l0.8,0.3l0.2-0.9l1-1l-0.5-0.5l-1.1,1.3L1572,430.1z M1588.3,466.6l0.6-0.4l-0.1-0.6l-0.8,0.5
	L1588.3,466.6z M1571.5,431.4l-0.1-0.6l-0.6,0.3L1571.5,431.4z M1575.1,457.7l-0.7-0.8l-0.3,1l0.4,0.7L1575.1,457.7z M1589.6,462.3
	l-1.5-0.3l-1.4,0.9c-0.1,0.2-0.2,0.5-0.2,0.8l0.5,0.5l0.7-0.3l0.7-0.9l1.3-0.2L1589.6,462.3z M1591.2,641.9l-0.3,0.9l0.8,0.4
	l0.3-0.8l-0.1-1L1591.2,641.9z M1570.6,431.5h-0.7l0.3,0.4L1570.6,431.5z M1592.3,644.8l0.7,0.2l0.5-0.6l-0.8-0.7l-0.7,0.2
	L1592.3,644.8z M1604.8,424.1l0.1,1.4l0.5-0.3l0.6-0.1l-0.4-0.9L1604.8,424.1z M1606.2,628.1l-1,0.1l0.6,0.4L1606.2,628.1z
	 M1593.1,641.5l-0.6,0.3l0.1,0.8l0.7-0.1L1593.1,641.5z M1608.8,646.4l-0.6,1.1l-0.3-0.2h-0.7l-0.8,0.6l-0.6,0.4l-3.4-0.1l-0.7,0.5
	l0.1,1l-0.9-0.8l-1.1,0.1l-0.7,0.6l-1.1-0.6l-1.6-1.4l-2-1v-1.7l-0.5,0.6l-0.2,0.6l-0.9-0.7l-1.1-0.5l-1.2-0.8l-0.3,0.5v1.3
	l-0.3,0.3v1.2l0.3,2.2l-0.2,1.5l0.2,2.5l0.3,2l-0.2,1.6l0.5,0.3l0.1,0.7l1.1,1h-1.2l-1-1l-0.4,1.2l0.2,2l0.8,0.6l-0.2,0.6l0.2,3.2
	l0.6,0.5l-0.2,0.5l0.3,1.5l1.1,0.3l-0.6,0.8v1.2l0.5,0.2l1-0.3l0.8,0.8l0.9-1.3v1l0.6,1h0.9l1-1.7l0.1-1l0.4-1.9l0.8,0.7l0.3-0.6
	l1-0.9l0.4-1.2l0.1,1.2l0.8,0.2l0.5-1l0.9-0.2l0.7,0.5l-0.1,1l-1.2-0.4l0.1,1.7l1-0.5l0.5,0.1l1.2-1.9v-0.7l-0.9-0.6l0.8-1.1
	l-0.1-1.3h0.9l0.5-0.5v-2.5l0.7-0.5l0.6-1.1l0.4,1.7l0.2,0.8l0.5-1.3l-0.1-1l0.3-0.5l-0.4-1.4l0.8-1.3v-2.1l1-1.3l0.4-3l0.3-1
	l-1.4-0.9L1608.8,646.4z M1599,668.2v1l-0.8,1.3l0.8,0.4l0.3-1.7l0.5-0.8l-0.3-0.6L1599,668.2z M1589.7,638.1l0.7-1.2l-0.4-0.8
	l0.2-1.7l-0.7-0.5l-0.6,0.5l-0.7,1l0.2,1l-0.7,1l0.3,0.9l-0.1,0.8l0.8,0.3l0.9-0.8L1589.7,638.1z M1605.4,664l0.6-0.4l-0.7-0.6
	L1605.4,664z M1649.2,499.5l-0.2-0.6l-0.5,0.5L1649.2,499.5z M1568.6,432.3l-0.6,0.5h0.7L1568.6,432.3z M1662.4,516.2l-0.3,0.9
	l0.3,0.8l-0.6,1.3l-0.9,1.2l-0.1,1l-0.2,1.2l0.6,1.7l0.7,0.2l-0.4-1.1l0.2-2.3l1.2-1.8l0.2-1.6l-0.3-1.3L1662.4,516.2z
	 M1609.9,637.8l0.4,0.9l-0.4,1.1l0.4,0.7l0.4,0.8l2-1v-1l-1.9-1.8L1609.9,637.8z M1566.4,433.8l0.1,0.7l0.6-0.6l1-0.1l0.3-0.6
	l-1,0.1L1566.4,433.8z M1565.2,435.3l1-0.5l-0.1-0.4l-1.4,0.5L1565.2,435.3z M1549.3,429.8l0.7,1.1v-1l0.3-1.1l-0.9,0.2
	L1549.3,429.8z M1661.3,538.6l0.6-0.8l-0.3-1.3L1661.3,538.6z M1651.8,507.6l-0.6-0.4l-0.2,0.3l1.1,1.4l0.6,1l0.2-1l-0.4-0.5
	l0.1-0.7L1651.8,507.6z M1506,452.5l0.1-0.6h-0.5l-0.3,0.6H1506z M1610.9,645.2l0.2-0.9l-0.8,0.3L1610.9,645.2z M1605.5,421.1
	l0.3,0.7l0.4-0.6L1605.5,421.1z M1627,475.6l0.4-1.2l-0.2-1.9l-0.4,0.2l-0.9,0.3l0.9,0.9l-0.3,1L1627,475.6z M1569.9,446.1l0.3-0.2
	l0.2,0.5l0.6-0.7l-0.6-0.8l-0.6,0.6L1569.9,446.1z M1430,526.9l0.8,2.2l0.4-1.7l-0.7-1.9L1430,526.9z M1446.7,494.2l0.6-0.8l0.1-1.3
	l-1,1.5L1446.7,494.2z M1540.9,434.8l1.9-2.1l0.5,0.1l0.1-0.6l0.5-0.5l-0.5-0.4l-0.4-0.7h-0.5l-0.7,0.4l-1.6,0.1l-0.6,0.8l-0.7-0.3
	l-0.2-0.4l-0.7-0.1l-0.7-0.7h-0.4l0.2,0.4l0.2,1.4l1,1.1l0.8,1L1540.9,434.8z M1562.3,600.7h-1l0.4-0.5h-0.7l-0.3-0.5l0.2-0.9
	l-0.9,0.3l-1-0.1l-3,1l-1.3,0.8v0.7l0.8,0.6h1.3l0.4-0.1l1,0.1l0.7-0.3l0.5,0.6h0.6l0.1-0.4h0.6l0.4-0.5l2.1,0.2l0.7-0.7l-0.8-0.4
	L1562.3,600.7z M1431.3,523.8l-0.2-1.6l-0.4,2.5C1430.7,524.6,1431.2,523.8,1431.3,523.8L1431.3,523.8z M1501.2,457.2l0.4,0.6
	l0.9-0.2l-0.8-1C1501.7,456.5,1501,457.3,1501.2,457.2L1501.2,457.2z M1501.6,461.1l-0.2-1.2l-0.6-0.8l0.2,1.7L1501.6,461.1z
	 M1537.3,433.5l1.3,0.2l-0.2-0.4l-1-0.3l-0.6-2l-0.8,0.4l0.2,0.2v0.6l0.3,0.1v0.3l-0.6-0.1l-0.4,0.1v0.6l1.2,0.3L1537.3,433.5z"/>
	<polygon id="KUWAIT" class="aa2" points="1378.3,268.7 1374.7,267.5 1370.1,269.8 1368.1,274.9 1365.9,279.4 1367.3,279.4
	1376.9,281.9 1377.7,285.7 1383.9,282.5 1382.8,281.2 1383.2,281 1383.6,281 1382.3,279.7 1382.2,277.9 1381.4,276.4 1381,277.4
	1376.8,274.8 1382.7,273.4 1381.5,268.8 1381.8,268.2 1380.7,267.9 "/>
	<polygon id="SAUDI_ARABIA" class="aa2" points="1376.9,281.9 1367.3,279.4 1365.9,279.4 1346.3,279.8 1296.4,247.9 1286.6,247.1 1283,251.1
	1267.7,256.5 1279.9,268.8 1275.8,274.2 1275.6,277.2 1267.7,278.7 1260.4,286.4 1249.8,283.8 1246.6,284 1246.4,287.9
	1246.8,292.3 1245.8,295.3 1246.1,296.4 1247.5,295.8 1248,296.5 1249.3,295.6 1251.8,296.8 1251.1,297.2 1255.9,302.2
	1256.4,304.4 1257.5,304.8 1258,306.9 1260.3,308.9 1261.4,308.9 1264.6,313.9 1264.8,315.5 1265.6,317.3 1267.3,317.6
	1267.8,320.1 1268.9,321.5 1271.3,322.5 1273.4,327.3 1274.9,328.3 1275.7,331.4 1275.1,332.8 1275.1,334.3 1277.4,335.8
	1277.6,337.5 1279,338.3 1280.5,336.7 1282.8,338.4 1286.1,339.8 1288.8,342.4 1289.7,344.6 1290.5,344.7 1290.9,347.3 1292,348.1
	1293,351.6 1295.1,353.4 1295.9,357 1296.5,358.1 1295.9,361.5 1295.1,362.3 1296,363.9 1297.1,367.6 1297.7,371.6 1299.7,373.1
	1300,374.6 1305.5,380 1307.3,380.7 1309.4,380.8 1310.9,382.8 1311.9,382.8 1315.1,385.2 1315.3,386.8 1317.9,387.2 1317.6,388.7
	1319,389.2 1321.8,398.1 1324,399.3 1324.3,402 1332.4,409.6 1333.6,409.6 1334.5,414 1337.8,414.9 1339.9,420.1 1341.7,420.2
	1343.3,420.8 1344.4,418.7 1347.1,416.8 1345.1,413.3 1346.2,408.4 1349,407 1352.2,409.5 1358.7,409.5 1367.8,412.7 1377.2,416.9
	1378.1,426.3 1396,400 1434.8,386.8 1464.1,376.8 1464.7,354.1 1462,345.8 1462,345.7 1458.7,349.1 1428,345.6 1425.4,337.5
	1422.8,334.7 1422.8,331.1 1422.7,331.1 1422.2,331.3 1421.2,329.7 1421.2,328.7 1422.1,327.5 1420.4,327.7 1420.1,327.2
	1418.4,327.3 1414.9,325.6 1414.4,324.6 1413.9,325 1412.1,322.6 1411.5,320 1406,313.6 1404.5,311.1 1405.7,311.4 1405.7,310.2
	1403.6,305.2 1403.6,304.1 1402.2,302.1 1401.2,302.1 1397.7,297.4 1396.4,297.3 1394.8,295.7 1395,295 1395.6,294.8 1396.5,295.4
	1395.6,294.1 1393.8,293.9 1390.2,293.1 1388.1,288 1386.9,285.5 1385.5,284.8 1385.4,283.1 1384.8,283.5 1383.9,282.5
	1377.7,285.7 "/>
	<g id="USA_1_">
		<polygon class="aa2" points="505,426.4 505,426.1 502.9,427.2 500.6,427.2 498.7,427.8 497.2,427.4 495.1,428.3 493.5,428.5
		492.6,429.6 492.8,430.2 493.8,430.3 493.1,430.8 494.2,430.5 494.7,430 496.3,429.9 497.8,429.5 500.2,429.4 501.3,428.8
		503.4,428.9 504,428.4 504.6,428.5 506.5,427.9 507.3,427.1 506.1,427.6 505.4,427.2 503.9,427.8 504.5,427.1 	"/>
		<polygon id="USA" class="aa2" points="188,494.5 187.7,495 212.7,506.5 233.7,507.1 233.9,504.4 245.8,504.8 247.1,505.7 248.3,507.3
		248.9,508.1 249.1,508.8 249.9,508.8 250.5,509.8 250.3,510.5 251.4,510.9 252.5,511.9 252.4,512.5 252.1,513.1 253,513.3 254,514
		254.6,515.1 254.8,516.7 255.3,517.3 255.7,517.4 256,517.9 256.8,518.7 256.9,519.8 256.5,520.2 255.6,520.4 255.6,520.9
		256.9,522.4 257.9,523.6 258.2,524.7 258.2,525 258.6,525 259.2,525.7 259.7,525.6 260.4,525.9 260.6,526.4 260.7,526.9
		261.2,527.4 262.1,527.4 263.6,528.2 263.8,528.7 265,529.1 266.5,529.8 266.9,530.3 267.5,530.4 268.2,530.2 268.4,529.7
		269.4,528.9 270.2,528.7 270.3,528.1 270.2,527.7 270.8,526.9 271.9,524.9 272.6,524.1 273.5,523.8 274,523.9 274.2,524.2
		274.8,524 275.2,523.2 276.5,523.2 277.8,523.4 279.1,523.3 279.7,523.5 280,524 281,523.8 281.9,524.3 282.6,525.4 284,526.6
		285.1,528.3 285.7,529.9 286.1,530.5 286.3,531.6 286.4,533.3 287.2,533.7 287.6,534.8 288.5,537.4 289.1,537.8 289.5,538.8
		290.6,539.4 290.9,540.8 291.6,542 292.9,543.3 292.7,544.6 292.6,546 292.6,546.3 292.7,546.8 294.2,551.1 294.1,553 294.7,553.7
		294.9,553.9 295.8,554.3 296.7,554.1 297.6,554.7 298.8,555.8 301.2,556.6 302.6,557.3 303.9,557.7 304.4,558.5 305,558.9
		305.8,556.7 306.3,555.1 305.9,554.1 306,550.9 305.4,549.8 306.3,548 306.9,545.9 307.9,544.5 307.4,541.7 308.5,541.2 310,540
		309.1,539.1 310.4,537.4 311.2,537.9 312.5,537.3 312.4,535.4 313.2,536 314.7,535.5 313.9,534.7 315.3,533.9 315.8,534.3
		316.5,533.9 317.6,534.7 316.4,535.8 317.4,535.7 318.8,534.6 319.7,534.6 322.8,533.1 325.1,531 326.1,531 327.1,530.2
		326.7,528.7 326.8,527.2 326,525 326.7,526.1 327.5,526.1 328.9,524.9 329,524 329.5,525.5 328.7,526.7 329.1,527.8 328.8,529.1
		330.5,528.9 331.7,527.2 332.7,527 333.7,526.4 336.2,525.8 338.1,525.8 341.6,526.7 342.1,527.4 346.4,527.8 347.7,527.6
		347.5,526.7 347.6,526 349,525.4 349.8,525.8 349.3,526.6 350.1,526.9 351.1,526.5 351.6,527 351.6,528.1 352,528.7 353.5,528.5
		354,529.3 353,530.1 352.4,530.8 353.2,531.2 354.4,531 355.4,531.6 357.3,532.1 358,531.3 359.1,530.5 360.3,531.4 360.9,532.3
		362,531.7 362.1,529.9 361.4,528.6 362.7,528.5 363.8,530.1 364.9,530.5 365.6,531.5 366.5,531.5 367.2,531.9 367.2,533.3
		367.7,532.5 368.8,532.1 368.9,531.7 367.2,530.3 364.9,529.5 364.4,528.5 364.4,527.2 366.7,526.3 367.2,525.8 365.9,525.3
		365.4,524.6 364.9,524.5 364.1,525.3 363.1,525.7 363.1,524.7 364.4,523.3 366.9,522.3 368.1,521.2 372.4,520.4 374.1,520.7
		375,520.4 376,520.6 376.7,519.4 377.4,518.2 378.3,518.3 378,519.3 378.1,520.1 379.5,521.3 380.7,520.8 382.8,521 383.8,520.5
		384.7,521.1 386.9,520.8 387.5,521.2 389.1,520 390.7,520.1 391.1,520.6 390.2,520.9 388.5,520.8 388.2,521.1 390.1,521.4
		392,521.4 393.1,522.4 394.3,523 393.5,522.1 393.7,521.4 394.4,521.5 394.6,522.3 396,523.2 395.8,523.7 394.8,523.3 394.6,523.3
		396.4,524.6 397.1,525.6 397.5,526.3 397.1,526.4 396.9,526 396.7,526.5 397.1,527 399.2,526.7 400.5,526.6 402.4,524.7 403,525
		403.3,524.7 403.3,524.4 404.3,523.6 405.7,523.4 406.7,523.9 408.4,524.5 409.1,527 409.9,527.8 410.4,528 410.5,529.5
		411.6,530.2 412.3,530.2 412.2,530.8 412.9,531.8 413.9,532 414.9,533.8 414.8,535.5 413.8,539 412.4,541.7 412.3,542.8
		413.2,544.2 413.6,543.9 414.4,542.7 414.2,542.1 414.7,541.6 415.8,542.1 415.8,543.4 414,546 414.5,546.9 414.6,548.3
		415.5,549.4 415.8,550.1 416.3,549.9 416.7,551.3 417.2,550.6 417.2,550 417.8,550.4 419.1,550.1 418.1,551.1 417.8,552.3
		417.2,553 417.3,553.9 419.1,555.3 419.4,556.8 419.3,558.7 419.8,559.2 421.1,559.3 421.6,560.3 421.4,561.5 423.2,563
		422.4,563.3 423.9,563.7 424.6,564.6 426,565 427.3,564.5 428.5,564.1 428.8,562.3 429.7,560.9 430.4,559.2 431.6,556.6
		431.5,555.3 431.8,554.6 432.1,552 431.7,551.5 432.6,550.7 432.1,548.5 430.6,547.5 429.8,542.8 429.3,542.1 429.5,539.9
		430.1,538.2 429.6,536.8 428.6,535.6 427.9,532 427.3,530.7 427,527.5 426.2,525.5 426.6,522.3 426.4,520.3 426.8,515.7
		426.8,513.2 427.8,511.1 429.1,509 430.3,508.7 430.9,507.8 431.6,507.7 432.6,506.3 432.7,505.1 432.2,504.7 432.6,504.3
		434.4,504.3 434.6,503.4 436.1,503.5 436.4,502.8 438.7,502.5 439.5,501.4 441,501.6 441.4,500.9 442.1,500.7 443,501.1
		444.3,499.6 444.4,498.7 445.1,498.7 446.3,497.7 446.3,496.9 449,493.2 450.5,492 452.6,491.7 453.3,492.2 454,492.1 455.2,489.8
		458.9,486.8 462.3,484.7 464.1,484.5 464.6,484.2 465.5,484.1 465.7,484.5 466.9,484.5 468.3,482.9 467.8,482.7 467.5,482.1
		466.1,483.4 464.3,483.2 463.2,482.1 464.5,482.7 466.5,481.8 466.1,481.3 466.9,480.7 466.4,479.9 464.6,479.6 463.9,478.7
		464.9,478.7 465.9,479.2 466.9,478.8 467,477.8 467.6,479.4 468.6,479.2 469.6,479.8 470.3,479.3 470.8,478.2 472.3,476.9
		472.8,476.9 473.1,475.3 472.6,474.1 472.2,474.2 471.5,475.6 471.4,476.6 470.6,476.3 470.4,474.1 469.9,473.8 466.9,474.3
		465.4,474.7 465.7,473.9 465.8,471.7 466.3,471.4 467,472.9 467.9,473.2 468.6,472.5 470.6,472 470.9,471.6 471.9,471.6
		472.4,470.8 472.1,469.2 471.5,468.6 471.5,467.9 472.3,468.3 472.9,466.9 472.5,465.5 471.8,464.9 470.8,465.2 469.5,464.8
		468.9,463 468.1,463 466.9,462.6 465.9,461.4 467.1,462 468.9,462 469.6,463.4 470.5,463.8 471.1,462.8 469.3,461.2 470.8,461.5
		470.9,460.8 471.4,460.4 471,459.4 469.4,458.4 468.7,456.6 469.4,456.9 469.9,458.2 471,458.3 471.4,456.7 471.2,455.5
		470.1,454.8 468.5,452.8 466.8,452.2 466,450.8 464.9,450.3 464.9,449.1 466,447.6 465.3,449.2 465.6,449.9 466.3,450 467.2,451.6
		468.6,451.8 470.4,453.9 470.8,453.8 471,450.9 470.9,449.5 471.1,448.5 470.8,447.6 471,445.5 471.2,444.6 470.5,443.6
		471.1,443.7 472.1,443 473.6,441.8 474,440.5 473.9,440 474.3,440.6 474,442 474.3,442.4 473.1,443.2 472.3,444.8 473.5,446.7
		473.1,448.8 472.1,450.3 472.1,451.7 473.3,453.2 473.8,452.6 474,453.2 474.6,453.2 474.7,453.5 474.2,454.2 474.7,455.2
		476.5,455.2 475.2,455.9 475.5,456.2 474.5,457.4 474.8,458.3 473.9,459.7 473.5,461.4 473.7,462.8 474.1,462.2 474.2,461.5
		475.7,458.9 475.9,459.4 476,460 476.4,459.4 476.4,458.5 477.3,457.1 478.4,454.1 480.1,453.1 481.3,450.4 481.3,448.5
		480.4,446.1 479.7,445.3 479.5,443.3 478.8,442.6 478.6,441.1 479.3,439.7 480.6,438.5 482.2,437.7 479.9,440.3 479.4,441.4
		480,442.4 481.7,444.1 482.8,443.9 483.4,444.5 482.6,446.5 483.7,445.7 483.8,446.1 485,444.6 485.2,443.7 485.8,443.8
		486.3,442.9 487.4,442.6 488,440.4 488.7,439.5 489.4,439.5 489.9,438 490.5,437.1 490.3,436.4 490.9,435 490.9,434.5 491.7,433.5
		491.5,432.6 490.5,431.8 490,430.8 491.9,429.7 492,428.7 493.2,427.7 494.5,427.3 496.7,426.1 498.3,426 500.6,424.4 501.5,424.3
		502.1,424.8 505,424.6 506.4,425 508.2,424.6 511.2,424.3 512.1,424 511.5,423.3 511.7,421.4 511.7,419.7 513.2,421.3 513.2,422.7
		513,423.7 514,423.9 515.3,422.5 516.7,420 517.4,421.3 517.3,422.3 518.2,422.6 521.7,421 522.6,419.4 521.9,416.9 521.2,417.1
		521.3,418.4 520.8,420.1 518.7,420.1 518.4,418.9 517.7,416.5 515.8,415.5 515.8,414.8 518.4,412.4 518.3,411.3 517.3,411.3
		517.5,410.4 518.2,409.8 518.5,408.8 519.5,407.7 520.4,405.1 523.1,403 524,401 524.8,401 525.6,399.7 525.8,400.6 526.8,400.9
		527.4,400 528.2,398.6 528.5,400.1 529.3,400.1 530.1,398.5 530.6,399.1 531.4,398.6 532.8,396.3 534.7,393.9 534.3,395.3
		534.6,396.5 536,396.3 537.3,394.9 538.9,394.9 539.3,396.5 540.4,396.5 541.6,394.9 542.7,395.4 543.5,395 544.8,394.1
		545.9,394.2 547.7,393.1 548.2,394 549.5,393.8 550.5,392.6 549.1,391.8 548.5,392.8 547.4,391.7 547.9,390 545.2,388.5
		545.2,388.5 545.1,388.4 544.8,387.9 545.2,387.3 545,386.6 545.2,385.9 545.2,384.7 544.6,383.9 544.1,383 543.5,382.9
		543.8,381.8 545.4,372.5 545.3,370.1 542.5,367.4 541.8,368 539.8,367.5 538.3,367.9 537.2,366.9 536.4,366.3 535.9,366.4
		534.7,367.6 534.1,368.8 531.5,371.7 530.2,373.4 530.3,374.6 528.4,375.6 528.2,377.3 527.6,378.9 525.7,381.2 524.8,381.5
		522.4,384.1 522,385.2 521.1,385.8 519.8,385.4 518.9,385.5 518.2,386 517.6,386.1 516,387.7 494.5,387.3 492,387.7 490.7,389
		488.9,389.7 487.5,390.9 484.2,394 482.1,394.4 480.8,395.4 474.6,400 460.8,404 460.2,407.6 457,408.6 431.8,415.4 430.5,413.2
		431.9,411.4 434.8,410.1 435.9,408.5 436.7,406.9 437.4,405.1 438,395.3 433.3,372.8 428.8,369.2 426.9,366.9 397.5,353.1
		396.4,352.3 394.6,351.9 393.9,351.2 390.4,351 389.8,349.8 389,349.1 387.9,349.8 385.5,349.9 384.4,349.4 383.4,348.3
		381.9,347.9 379.4,347.1 378.6,345.4 377.7,345.4 376,344 374.6,344.2 373.5,343.8 372.1,344.2 371.5,344.4 370.8,343.4 369.3,343
		369,342.6 367.5,342.1 367.3,341.9 366.3,340.8 366.1,340.3 364.5,338.9 362.8,339 361.4,338.8 170.6,319.8 171.1,322.4
		172.7,323.5 172.6,324.5 171.3,325.5 171.5,326.7 172.6,327.5 172.1,328 171.3,329.2 171.7,329.6 171.8,330.6 172.5,331.5
		171.3,333 170.1,333.8 169.7,335.6 168.8,336.4 168.8,338 168,338.9 167.5,340.2 165.9,341.2 164.7,340.6 164.3,339.9 165.3,338.5
		165.6,339.1 166.6,338.3 166.8,339.4 167.3,338.9 167.3,337.1 168.2,335.4 169.3,334.4 169.1,333.2 168.4,333.4 166.9,334.7
		166.3,335.6 165.2,335.6 165.2,334.8 166.6,333.4 168.1,332.9 168.6,332 168.1,331.1 167.4,331.1 166.7,331.4 166,330 164.8,329.5
		161.6,329.3 159.8,328.1 156.4,325.1 155.9,325.3 155.6,326.8 154.5,329.5 154.5,330.8 155.3,333.5 154.6,337.3 154.9,339.2
		154.6,341 154.7,342 155.7,342.2 155.8,342.8 155.2,343.6 154.5,343.6 154.1,344.8 154.6,345.4 155.8,345.9 155.4,347 155.3,348.4
		154.5,349.4 154,349.2 153.5,349.8 153.6,350.6 155.6,351.1 157.6,351.3 158.9,352.3 160.4,352.5 161.1,353.5 161.4,355.3
		160.7,353.7 159.4,352.9 158.5,353 157.4,352.3 154.9,352.2 154.1,351.5 153.6,351.9 153.7,353.1 152.2,355 152.2,356.1
		152.4,357.2 151.2,359.2 150.4,360.8 148.4,365.2 148.1,368.5 146.3,372 145.8,375.9 144.8,377.8 143.4,379.4 142.6,381.9
		141.9,382.6 141.4,384.1 139.5,386.5 139,387.8 139.2,390.6 138.5,393.4 138.4,395.3 139.4,396.9 138.8,397.8 138.7,398.9
		139.2,400.7 138.9,403.8 138.1,405.4 137.3,406.2 137.5,407.1 138,407.5 137.3,409.4 135.1,410.9 134.3,412.6 134.3,414.2
		135.6,416 136.7,418.7 136.8,421.6 136.6,423.3 135.7,424.6 135.7,425.3 136.4,426.6 136.5,428 135.9,429.2 135.6,430.1 135.9,431
		139,435.7 139.2,437.1 138.8,438 139.2,439.1 140.9,440.6 141.1,441.4 141.7,441.3 142.1,441.5 142.1,440 142.1,438.3 143.1,438.9
		143.4,438.6 143.6,439.2 144.8,439.2 145.1,439.8 147,440 145.7,440.3 144.4,440.6 143.9,440.2 143.2,440.2 143.1,441.2
		143.7,441.6 143.9,443.5 144.4,444.6 144.9,445.3 143.7,444.6 143,443.3 142.4,442.9 141.9,443.6 142,444.5 141.3,445.2
		141.5,445.9 141.1,447.2 141.3,448.4 142,448.8 142.3,450.2 143.4,450.9 144.2,451.7 144.3,452.8 143.3,453.9 142.7,453.8
		142.6,454.4 143,456 142.9,457.3 143.1,458.2 144.3,459.1 144.6,461.6 146.1,464.9 147.2,466.4 147.8,466.9 147.6,467.4
		147.6,467.8 148.9,469.2 149.3,470.7 148.8,472.9 148.4,474.1 148.1,474.3 148.5,475.5 149.2,476.1 151.7,476 153.2,476.5
		154.4,477.2 155.5,477.4 157.4,477.4 158.3,478.4 158.3,479.7 160.3,480.7 161.5,480.8 163.3,481.3 163.6,482.1 163.6,483.4
		164.1,483.6 164.8,483.6 165.8,483.4 167.4,485.1 169.9,488.9 170.3,491.2 169.9,493 170,494.1 187.6,493.8 	"/>
		<polygon class="aa2" points="516.9,423.4 516.6,423.8 516,424.2 516.3,424.8 517.2,424.7 517.8,424.1 518.8,424.1 518.1,423.4 	"/>
	</g>
	<g id="NEW_ZEALAND">
		<polygon class="aa2" points="1744.4,588.2 1744.9,588.3 1744.9,587.8 1744.2,587.8 	"/>
		<polygon class="aa2" points="1680.2,656 1680.6,655.9 1680.6,655.3 1679.7,655.3 1679.6,655.6 1679.7,655.7 	"/>
		<polygon class="aa2" points="1729.7,620.7 1729.5,620.7 1729.4,620.1 1728.7,619.9 1728.1,621.1 1728.3,621.3 1728.7,621.5
		1727.8,622.1 1727.3,621.6 1727.4,621 1727,621 1726.4,620.9 1725.8,621.3 1725.1,622.2 1724.4,621.9 1724,620.4 1724.4,620.1
		1724.9,619.5 1725.1,619.1 1724.8,619 1724.8,618.5 1724.5,618.2 1724,618.6 1723.7,618.4 1723.2,617.9 1723.3,617.3 1723.9,616.4
		1723.1,616.3 1721.8,617.2 1721.1,617.5 1720.2,618.2 1720.1,619.5 1719.2,621.7 1718.3,622.9 1717.8,623.1 1716.7,624.5
		1716.3,625.2 1715.5,625.6 1714.5,625.5 1713.7,626.1 1713.4,627 1713.3,628 1712.8,628.3 1712,629.2 1712,630.2 1711.5,630.8
		1711.4,631.7 1709.6,633.8 1707.6,635.2 1706.5,635.4 1705.3,636 1705.1,636.7 1704.3,636.7 1702.4,637.6 1700.8,639.2
		1699.8,639.4 1698.1,640.5 1697.9,641 1698.3,641.8 1698.4,642.8 1697.5,642 1697.2,641.9 1696.3,642.1 1695.4,642.4 1695,642
		1694.2,642 1692.7,643.4 1692.1,644.2 1690.9,645.1 1690.1,645.4 1689.2,646.5 1689,647.7 1688.9,647 1688.4,646.7 1687.8,647.3
		1687.2,647.7 1687.2,648.8 1686.8,649.3 1686.3,649 1684.9,650.6 1684.5,650.6 1684,651.3 1683.9,653 1683.5,653.5 1683.2,652.6
		1682.8,652.4 1682.4,653 1682.1,653.3 1681.2,654.7 1681.3,655.3 1682,656 1682.4,656.5 1682,656.8 1681.2,656.8 1680.2,656.9
		1679,658.3 1679.6,658.3 1680.1,658.5 1679.5,658.8 1679.4,659.7 1680.1,660.5 1680.5,660.7 1681.8,660.8 1681.9,661.1
		1682.3,661.1 1682.4,660.5 1682.9,660.5 1683.7,660.8 1684,661.6 1683.7,662 1684.2,662.5 1685,662.4 1685.4,662.8 1685.5,663.8
		1686.5,664.6 1687.2,665.1 1686.2,665.7 1686.7,665.8 1688,665.2 1688,665.7 1688.8,665.9 1690,665.7 1691.8,665 1693.2,663.8
		1694.1,663.4 1694.2,662.9 1694,662 1694.6,662.5 1694.4,663.2 1695.6,662.7 1695.9,661.6 1696.6,660.7 1698.1,660.1 1699.3,660.1
		1699.8,659.8 1699.7,659.5 1698.8,659.6 1699.3,659.3 1699.5,659 1699.3,658.8 1700.4,657.6 1701.2,656.2 1701.5,654.7
		1702.3,653.8 1704.4,652.3 1704.9,651.4 1705.1,650.4 1706.1,648.8 1706.6,648 1706.7,647.1 1707.5,646.1 1708.3,645.7
		1708.5,644.8 1709.2,645.4 1709.8,645.4 1710.1,644.6 1710.9,644.6 1711.4,644.4 1712,643.6 1712,642.8 1711.3,642.2 1712.1,642.5
		1712.5,643.5 1712.9,643.6 1713.5,643.4 1713.5,643 1714.2,642.5 1714.8,642.8 1714.8,643.2 1713.9,643.5 1715,643.5 1715.8,643.8
		1716,643.4 1716,642.7 1716.3,642.3 1716.5,642.6 1716.4,643.6 1716.8,643.8 1717.2,643.5 1717.4,642.2 1716.9,641.5 1716.3,641.3
		1716.5,640.9 1716.4,639.7 1716.8,638.1 1717.5,637.9 1718.9,637.4 1720.4,636.5 1720.6,635.9 1721.7,634.6 1721.8,633.6
		1722.9,632.5 1723.7,632.6 1723.6,632.2 1725.4,630.4 1725.5,629.8 1728.1,627.6 1729,627 1728.5,626.9 1728.4,625.9 1728,624.9
		1728.1,624.1 1728.3,623.2 1728.6,623.3 1729.6,622 1728.8,622.3 1728.1,622.4 1729.2,621.7 	"/>
		<polygon class="aa2" points="1758.3,595.4 1757.8,594.8 1758.2,594.7 1758.3,594.4 1757.2,594.2 1756.1,594.9 1754.3,596.8
		1753.1,596.9 1752.4,597.2 1751.5,596.8 1749.5,594.7 1748.9,594.8 1748.1,593.7 1747.8,593 1748.3,592.5 1748.5,591.4
		1747.8,589.8 1747.8,589 1747.4,588.5 1747.6,587.5 1747.8,586.8 1747.3,586.7 1747.2,585.6 1746.9,585 1746.5,585.3 1745.8,584.8
		1745.5,585.2 1746.2,585.9 1746.2,586.9 1746.3,587.2 1745.6,588 1745.6,588.7 1746.3,589.5 1746.3,590.1 1745.5,590.3
		1744.9,589.7 1744.8,588.8 1743.8,588.7 1743.8,588.2 1743,587.9 1742.4,588 1742.3,587.5 1743,587 1743.3,586.3 1742.5,585.7
		1743.1,584.6 1743.9,584.4 1744.1,583.4 1743.8,582.6 1744,582.1 1743.7,581.3 1743.7,580.1 1742.7,579.4 1742.8,578.9
		1743.4,579.2 1744.2,579 1744.4,578 1744.8,577.6 1744.8,576.2 1744.4,574.9 1744.6,574.1 1744.1,574.2 1742.9,574.8 1742,573.8
		1742.6,573.4 1742,572.9 1741.6,572.8 1742,572.2 1742.8,571.9 1742.6,571.3 1741.7,571.1 1741.1,570.5 1740.5,570.8 1740.3,569.9
		1740.7,569.9 1741.1,569.3 1740.6,569.3 1740.1,569.6 1740.1,570.1 1739.6,570.9 1739,570.6 1739.3,569.8 1738.9,569.1
		1738.6,567.8 1738.7,567 1738.7,566.6 1738.9,566.5 1738.5,566 1738,566.4 1736.6,566.3 1736.6,566.6 1737.2,567.3 1738.3,569.9
		1738.5,570.8 1738.3,572.5 1737.9,572.9 1737.5,572.9 1737.3,573.2 1737.9,575.3 1738.2,575.5 1739,575 1740,575 1739.3,575.2
		1738.6,576.1 1738.8,577.3 1739.4,578.7 1739.7,581.2 1739.7,582.7 1739.7,583.8 1740.2,583.5 1740.4,582.6 1740.2,582
		1740.5,581.7 1740.8,582.3 1740.8,583.1 1741.4,583.1 1741.5,582.7 1741.4,582.3 1741.7,582.3 1741.7,583 1741.2,583.9
		1740.9,584.7 1740.9,585.2 1740.5,585.3 1740.2,584.8 1739.7,584.8 1739.9,586.3 1740.6,588.2 1741.1,588.3 1741.4,588.2
		1741.8,588.8 1741.8,589.3 1742.3,589.6 1741.3,590.3 1741.3,590.7 1741.6,591 1741.3,591.7 1740.7,593.4 1740.8,594.3
		1740.5,594.6 1741,595.1 1740.8,595.5 1740.1,595.5 1739.7,596.3 1739.7,596.8 1740.2,597.4 1739.6,597.7 1739,597.7 1738.6,598.8
		1737.9,602.4 1737.8,603.2 1737.1,603.7 1736.4,603.8 1735.5,603.5 1734.6,603.6 1732.7,604.5 1731.8,605.5 1731.6,606.6
		1731.8,608.2 1732.6,608.9 1734.1,609.8 1734.7,611.1 1736.1,611.5 1736.6,612 1736.8,614.2 1736.9,614.4 1736.7,614.7
		1736.7,615.8 1736.3,616.8 1734.3,619.3 1732.9,620.8 1731.4,622.1 1730.9,622.7 1731,623.2 1732,623.5 1732.2,622.9 1732.7,622.9
		1732.7,623.6 1732.6,624.1 1732.9,624.3 1733.3,624.1 1733.6,624.5 1733.5,625.3 1733.8,625.6 1734.5,625.5 1736.3,624.2
		1737.9,622.8 1739.4,621.3 1740.8,619.7 1742.5,617.6 1743.4,617 1744.1,616.9 1744.5,616.4 1744.5,615.6 1744.9,615.1
		1745.9,614.7 1746.5,612.8 1747.6,611.3 1747.6,610.8 1748.1,610.3 1747.3,609.6 1746.5,609.5 1745.8,609.6 1746.5,609
		1747.1,608.8 1749.4,606.5 1750.3,606.1 1752,606.3 1752.8,606.4 1752.6,607 1752.7,607.7 1753.6,606.9 1754.2,606.6 1753,606.1
		1753.1,605.1 1753.8,603.6 1754.3,602.9 1755.1,603 1755.4,603.3 1755.8,602.9 1756.3,602.1 1757.6,600 1757.6,599.3 1757.6,598.7
		1758,597.5 1758.7,596.6 1759.6,596 1759.5,595.8 	"/>
		<polygon class="aa2" points="1686,667.1 1686.1,666.6 1685.6,667 	"/>
		<polygon class="aa2" points="1683.6,667.1 1684.2,667 1684.2,666.7 1684.1,666.4 1683.7,665.4 1682.8,664.5 1681.9,664.7
		1681.8,665.4 1681.8,666.4 1681.6,667.3 1680.8,667.4 1680.8,668.1 1680.4,668.3 1679.4,669.3 1679.6,669.8 1680.1,669.8
		1680.8,668.9 1681.1,668.8 1681.4,669 1681.9,669.1 1682.5,668.7 1683.5,668.3 1683.9,668.5 1684.2,668.1 1684.1,667.7
		1683.7,667.5 1683.3,667.1 1683,667 1683.4,666.8 	"/>
		<polygon class="aa2" points="1729,618.6 1729.2,618.1 1728.4,617.9 1727.8,618.6 1727.8,619.4 1727.6,619.6 1727.9,619.6
		1728.3,618.9 	"/>
		<polygon class="aa2" points="1728.3,620.1 1727.8,620.2 1727.4,620.7 1727.9,620.7 	"/>
		<polygon class="aa2" points="1727.6,620.2 1727.7,620 1726.6,620.5 1727.2,620.4 	"/>
		<polygon class="aa2" points="1747.4,583.8 1747.3,583.4 1747.6,583.1 1747.3,582.7 1747.3,581.9 1746.7,583.3 1747.3,584 	"/>
		<polygon class="aa2" points="1745.8,583.1 1745.4,583.3 1745.6,583.6 	"/>
	</g>
	<g id="COUNTIES">
		<g id="ITALY-2">

			<rect x="967.4" y="631.7" transform="matrix(0.9968 -7.950848e-02 7.950848e-02 0.9968 -47.8409 81.8394)" width="72.8" height="20"/>
			<text transform="matrix(0.9968 -7.974522e-02 7.974522e-02 0.9968 985.1802 648.1302)" class="st3 st4 st5">I</text>
			<text transform="matrix(0.9968 -7.974522e-02 7.974522e-02 0.9968 988.9504 647.8286)" class="st3 st4 st5">T</text>
			<text transform="matrix(0.9968 -7.974522e-02 7.974522e-02 0.9968 997.1605 647.1718)" class="st3 st4 st5">A</text>
			<text transform="matrix(0.9968 -7.974522e-02 7.974522e-02 0.9968 1007.4305 646.3502)" class="st3 st4 st5">L</text>
			<text transform="matrix(0.9968 -7.974522e-02 7.974522e-02 0.9968 1014.5902 645.7773)" class="st3 st4 st5">Y</text>
		</g>
		<g id="GREECE-2">

			<rect x="1173.1" y="677.3" transform="matrix(0.9968 -7.950848e-02 7.950848e-02 0.9968 -50.7734 99.3836)" width="99.1" height="20"/>
			<text transform="matrix(0.9968 -7.974522e-02 7.974522e-02 0.9968 1193.5906 694.9408)" class="st3 st4 st5">GREECE</text>
		</g>
		<g id="KUWAIT-2">

			<rect x="1352.1" y="276.8" transform="matrix(0.9968 -7.950848e-02 7.950848e-02 0.9968 -18.2595 111.69)" width="82.7" height="16.7"/>
			<text transform="matrix(0.9968 -7.974522e-02 7.974522e-02 0.9968 1370.3104 291.5302)" class="st3 st4 st6">KU</text>
			<text transform="matrix(0.9968 -7.974522e-02 7.974522e-02 0.9968 1387.9202 290.1215)" class="st3 st4 st6">W</text>
			<text transform="matrix(0.9968 -7.974522e-02 7.974522e-02 0.9968 1400.4203 289.1215)" class="st3 st4 st6">AI</text>
			<text transform="matrix(0.9968 -7.974522e-02 7.974522e-02 0.9968 1412.1305 288.1847)" class="st3 st4 st6">T</text>
		</g>
		<g id="SAUDI_ARABIA">

			<rect x="1265.1" y="381.3" transform="matrix(0.9968 -7.950848e-02 7.950848e-02 0.9968 -26.7997 106.1971)" width="110.2" height="16.7"/>
			<text transform="matrix(0.9968 -7.974522e-02 7.974522e-02 0.9968 1278.3104 397.5502)" class="st3 st4 st6">S</text>
			<text transform="matrix(0.9968 -7.974522e-02 7.974522e-02 0.9968 1285.8605 396.9462)" class="st3 st4 st6">A</text>
			<text transform="matrix(0.9968 -7.974522e-02 7.974522e-02 0.9968 1294.0604 396.2902)" class="st3 st4 st6">UDI</text>
			<text transform="matrix(0.9968 -7.974522e-02 7.974522e-02 0.9968 1315.7805 394.5526)" class="st3 st4 st6"></text>
			<text transform="matrix(0.9968 -7.974522e-02 7.974522e-02 0.9968 1318.6206 394.3253)" class="st3 st4 st6">A</text>
			<text transform="matrix(0.9968 -7.974522e-02 7.974522e-02 0.9968 1327.1904 393.6398)" class="st3 st4 st6">R</text>
			<text transform="matrix(0.9968 -7.974522e-02 7.974522e-02 0.9968 1335.4204 392.9814)" class="st3 st4 st6">ABI</text>
			<text transform="matrix(0.9968 -7.974522e-02 7.974522e-02 0.9968 1355.5602 391.3702)" class="st3 st4 st6">A</text>
		</g>
		<g id="FRANCE-2">

			<rect x="688" y="490.8" transform="matrix(0.9968 -7.950848e-02 7.950848e-02 0.9968 -37.4814 60.2249)" width="99.1" height="20"/>
			<text transform="matrix(0.9968 -7.974522e-02 7.974522e-02 0.9968 707.1403 508.2604)" class="st3 st4 st5">F</text>
			<text transform="matrix(0.9968 -7.974522e-02 7.974522e-02 0.9968 715.9905 507.5524)" class="st3 st4 st5">R</text>
			<text transform="matrix(0.9968 -7.974522e-02 7.974522e-02 0.9968 725.8506 506.7636)" class="st3 st4 st5">ANCE</text>
		</g>
		<g id="PORTUGAL-2">

			<rect x="617.7" y="613.1" transform="matrix(0.9968 -7.950848e-02 7.950848e-02 0.9968 -47.3927 55.8974)" width="121.1" height="20"/>
			<text transform="matrix(0.9968 -7.974522e-02 7.974522e-02 0.9968 637.1703 631.3503)" class="st3 st4 st5">PO</text>
			<text transform="matrix(0.9968 -7.974522e-02 7.974522e-02 0.9968 658.0003 629.684)" class="st3 st4 st5">R</text>
			<text transform="matrix(0.9968 -7.974522e-02 7.974522e-02 0.9968 667.7304 628.9055)" class="st3 st4 st5">TUGA</text>
			<text transform="matrix(0.9968 -7.974522e-02 7.974522e-02 0.9968 709.6405 625.5527)" class="st3 st4 st5">L</text>
		</g>
		<g id="SWITZERLAND-2">

			<rect x="899.1" y="474.7" transform="matrix(0.9968 -7.950848e-02 7.950848e-02 0.9968 -35.4463 79.1361)" width="153.9" height="20"/>
			<text transform="matrix(0.9968 -7.974522e-02 7.974522e-02 0.9968 922.0702 494.1804)" class="st3 st4 st5">S</text>
			<text transform="matrix(0.9968 -7.974522e-02 7.974522e-02 0.9968 931.1004 493.458)" class="st3 st4 st5">WITZERLAND</text>
		</g>
		<g id="SWITZERLAND-3">

			<rect x="990.7" y="530.3" transform="matrix(0.9996 -2.722537e-02 2.722537e-02 0.9996 -14.3234 28.5492)" width="101.2" height="20"/>
			<text transform="matrix(0.9996 -2.722377e-02 2.722377e-02 0.9996 1005.66 546.47)" class="st3 st4 st7">S</text>
			<text transform="matrix(0.9996 -2.722377e-02 2.722377e-02 0.9996 1014.9166 546.2179)" class="st3 st4 st7">L</text>
			<text transform="matrix(0.9996 -2.722377e-02 2.722377e-02 0.9996 1023.1535 545.9936)" class="st3 st4 st7">O</text>
			<text transform="matrix(0.9996 -2.722377e-02 2.722377e-02 0.9996 1034.2094 545.6924)" class="st3 st4 st7">VENI</text>
			<text transform="matrix(0.9996 -2.722377e-02 2.722377e-02 0.9996 1069.1764 544.7402)" class="st3 st4 st7">A</text>
		</g>
		<g id="GERMANY-2">

			<rect x="903.7" y="409.2" transform="matrix(0.9968 -7.950848e-02 7.950848e-02 0.9968 -30.2822 77.8355)" width="117.2" height="20"/>
			<text transform="matrix(0.9968 -7.974522e-02 7.974522e-02 0.9968 924.8302 427.7301)" class="st3 st4 st5">GERMAN</text>
			<text transform="matrix(0.9968 -7.974522e-02 7.974522e-02 0.9968 990.2603 422.4957)" class="st3 st4 st5">Y</text>
		</g>
		<g id="UK-2">

			<rect x="621.6" y="317.3" transform="matrix(0.9968 -7.950848e-02 7.950848e-02 0.9968 -23.7704 57.5847)" width="179.3" height="20"/>
			<text transform="matrix(0.9569 -7.974522e-02 7.974522e-02 0.9968 645.9691 338.4504)" class="st3 st4 st8">UNITED KINGDOM</text>
		</g>
		<g id="NEW_ZEALAND-2">

			<rect x="1644.4" y="612.6" transform="matrix(0.9968 -8.002383e-02 8.002383e-02 0.9968 -44.2967 139.8987)" width="157.7" height="20"/>
			<text transform="matrix(0.9569 -7.974522e-02 7.974522e-02 0.9968 1668.7786 632.95)" class="st3 st4 st8">NE</text>
			<text transform="matrix(0.9569 -7.974522e-02 7.974522e-02 0.9968 1689.708 631.2058)" class="st3 st4 st8">W</text>
			<text transform="matrix(0.9569 -7.974522e-02 7.974522e-02 0.9968 1704.9714 629.9338)" class="st3 st4 st8"> ZEALAND</text>
		</g>
		<g id="NETHERLANDS">

			<rect x="826.9" y="314.5" transform="matrix(0.9968 -7.950848e-02 7.950848e-02 0.9968 -22.9381 72.8886)" width="153.9" height="20"/>
			<text transform="matrix(0.9968 -7.974522e-02 7.974522e-02 0.9968 847.6402 334.5401)" class="st3 st4 st5">NETHERLAN</text>
			<text transform="matrix(0.9968 -7.974522e-02 7.974522e-02 0.9968 939.2304 327.2129)" class="st3 st4 st5">D</text>
			<text transform="matrix(0.9968 -7.974522e-02 7.974522e-02 0.9968 950.0805 326.3448)" class="st3 st4 st5">S</text>
		</g>
		<g id="DENMARK-2">

			<rect x="911.3" y="232.3" transform="matrix(0.9968 -7.950848e-02 7.950848e-02 0.9968 -16.1941 77.8678)" width="116.9" height="20"/>
			<text transform="matrix(0.9968 -7.974522e-02 7.974522e-02 0.9968 934.8102 250.7505)" class="st3 st4 st5">DENMAR</text>
			<text transform="matrix(0.9968 -7.974522e-02 7.974522e-02 0.9968 1000.1805 245.5209)" class="st3 st4 st5">K</text>
		</g>
		<g id="AUSTRALIA-2">

			<rect x="1539.3" y="493.4" transform="matrix(0.9968 -7.950848e-02 7.950848e-02 0.9968 -35.1792 131.0414)" width="177.2" height="27.8"/>
			<text transform="matrix(0.9968 -7.974522e-02 7.974522e-02 0.9968 1572.5203 519.2503)" class="st3 st4 st9">A</text>
			<text transform="matrix(0.9968 -7.974522e-02 7.974522e-02 0.9968 1586.0104 518.1711)" class="st3 st4 st9">U</text>
			<text transform="matrix(0.9968 -7.974522e-02 7.974522e-02 0.9968 1601.6703 516.9183)" class="st3 st4 st9">S</text>
			<text transform="matrix(0.9968 -7.974522e-02 7.974522e-02 0.9968 1614.2006 515.9159)" class="st3 st4 st9">T</text>
			<text transform="matrix(0.9968 -7.974522e-02 7.974522e-02 0.9968 1626.9402 514.8967)" class="st3 st4 st9">R</text>
			<text transform="matrix(0.9968 -7.974522e-02 7.974522e-02 0.9968 1640.4702 513.8143)" class="st3 st4 st9">ALI</text>
			<text transform="matrix(0.9968 -7.974522e-02 7.974522e-02 0.9968 1671.9701 511.2943)" class="st3 st4 st9">A</text>
		</g>
		<g id="USA-2">
			<polygon points="441.3,330.6 357.6,337.1 360.2,369.4 443.9,362.9 		"/>
			<text transform="matrix(0.9569 -7.974522e-02 7.974522e-02 0.9968 376.9288 361.0399)" class="st3 st4 aa20">U</text>
			<text transform="matrix(0.9569 -7.974522e-02 7.974522e-02 0.9968 395.3513 359.5047)" class="st3 st4 aa20">S</text>
			<text transform="matrix(0.9569 -7.974522e-02 7.974522e-02 0.9968 409.9433 358.2896)" class="st3 st4 aa20">A</text>
		</g>
	</g>
	<polygon id="SLOVENIA" class="aa2" points="995.5,527.6 999.2,527 1005.5,530.9 1009.2,531 1010.9,525 1016.8,522.8 1018.2,518.3
	1029.6,514 1037.3,514.9 1037.3,508.1 1033.4,502.5 1028.9,503.4 1020.7,506.8 1018.8,506.4 1016.2,506.5 1012,507.8 1008.1,507.4
	1003.7,508.6 1001.7,505.5 993.8,504.7 991,504 986.3,509.4 987.2,512.4 984.5,515.7 984.7,521.8 984.9,522 988.2,524 987.8,526.4
	984.8,526.8 984.3,530 990.5,530.4 "/>
</svg>
