<svg id="GAMEOVER_MAP" style="font-weight: 600" 
	xmlns="http://www.w3.org/2000/svg" viewBox="0 0 1920 960">
	<style type="text/css">
	.aa2{fill:#D71A35;stroke:#000000;stroke-width:5.000000e-02;stroke-miterlimit:10;}
	.aa2:hover {fill: rgb(179, 45, 54)}
	.st3{fill:#FFFFFF;}
	.st4{font-family:'Raleway';}
	.st5{font-size:15.1783px;}
	.st6{font-size:12.6603px;}
	.st7{font-size:15.13px;}
	.st8{font-size:15.7803px;}
	.st9{font-size:20.8163px;}
	.aa20{font-size:25.5012px;}
	</style>
	<g id="SWEDEN" >
		<polygon class="aa2"  points="972.65 293.57 970.35 293.86 969.86 296.31 971.65 296.42 972.65 293.57" fill="#da1a35"/>
		<polygon class="aa2" points="1077.58 275.46 1078.11 271.19 1081.82 268.55 1082.2 265.74 1078.06 265.29 1074.2 269.82 1076.33 274.18 1077.58 275.46" fill="#da1a35"/>
		<polygon class="aa2" points="1156.73 131.33 1154.42 124.63 1150.43 131.03 1149.22 125.83 1150.62 123.45 1151.36 116.69 1150.89 113.98 1151.22 119.08 1150.77 112.74 1149.13 109.7 1149.07 104.87 1150.99 102.47 1150.36 98.33 1145.81 97.52 1145.81 94.03 1147.8 90.24 1147.41 85.11 1148.18 90.01 1146.82 87.33 1144.48 86.81 1141.91 82.35 1140.63 82.6 1139.14 82.19 1138.25 78.8 1134.44 82.44 1132.13 81.55 1129.66 79.63 1122.97 78.4 1118.84 74.53 1113.46 66.73 1109.21 63.99 1106.75 60.29 1105.38 60.79 1101.41 61.12 1097.56 59.44 1097.42 62.96 1100.01 64.76 1100.49 68.49 1097.58 69.69 1096.49 75.02 1098.07 77.97 1097.6 82.23 1096.1 81.05 1094.27 81.49 1092.21 79.36 1088.26 78.56 1085 75.8 1079.41 73.67 1075.45 75.26 1070.46 74.6 1068.58 75.53 1070.86 80.22 1069.78 81.99 1069.57 83.88 1067.36 85.53 1069.09 89.39 1066.21 91.48 1063.92 91.62 1062.49 89.56 1058.8 87.39 1054.88 89.75 1052.48 87.34 1049.96 88.33 1048.5 92.47 1046.06 95.13 1043.69 96.02 1043.8 96.14 1045.56 98.62 1047.73 96.08 1045.66 99.89 1040.05 106.13 1035.24 106.11 1034.62 109.59 1031.61 111.67 1025.58 112.28 1019.73 114.94 1019.22 118.44 1021.45 121.21 1021.03 126.23 1018.8 130.41 1016.19 138.11 1015.04 146.34 1007.6 160.1 1007.74 156.45 1009.09 159.25 1009.73 157.93 1006.28 161.74 1000.44 160.72 995.92 159.22 991.91 161.07 987.29 167.53 986.9 159.38 987.58 168.45 987.59 177.69 986.36 175.03 987.71 179.99 987.84 187.09 986.01 193.36 985.55 199.89 990.29 202.93 995.58 210.22 993.52 213.92 992.79 219.54 984.63 221.31 984.05 224.17 986.62 230.9 987.87 231.04 989.99 234.82 986.9 239.93 986.76 243.59 984.98 246.05 979.53 245.96 978.2 247.85 979.57 251.55 977.04 252.54 975.35 255.39 977.47 260.3 977.05 271.15 974.79 274.45 973.18 270.73 971.21 269.03 970.88 269.37 968.02 270.65 967.87 278.19 969.03 280.36 968.74 286.03 971.09 287.61 971.87 289.02 970.93 292.63 974.92 291.4 972.83 288.66 973.57 286.02 975.21 286.27 974.24 287.89 976.94 289.9 977.66 291.84 973.88 294.35 972.98 297.03 973.74 299.82 972.88 303.57 971.11 305.05 972.78 308.08 975.58 309.11 976.81 313.79 978.25 315.27 980.7 322.05 980.56 326.96 983.96 328.78 984.51 332.17 987.45 335.81 991.35 334.11 991.94 338.43 988.94 342.88 984.54 342.94 983.69 344.7 985.9 346.41 986.08 349.62 989.51 351.06 990.22 359.37 987.89 362.31 989.55 364.22 992.97 364.59 1002.03 363.18 1006.18 365.22 1009.94 362.45 1009.98 359.65 1008.19 357.73 1011.17 352.35 1016.63 352.26 1018.41 346.88 1019.06 349.48 1025.25 351.21 1029.28 349.52 1032.28 351.31 1033.88 353.87 1038.18 349.69 1040.1 342.98 1043.17 340.39 1044.76 331.93 1046.63 329.35 1043.9 326.38 1044.68 322.88 1047.93 319.91 1045.55 316.07 1048.87 313.64 1045.32 310.85 1047.36 308.02 1045.61 304.5 1049.27 306.37 1053.41 306.02 1050.11 302.2 1052.38 298.47 1052.35 296.32 1047.42 293.94 1053.89 294.37 1050.85 290.46 1048 289.74 1050.24 287.59 1052.07 287.79 1052.52 288.64 1054.68 287.01 1054.8 284.77 1057.43 287.31 1058.22 283.81 1060.87 281.44 1063.27 281.43 1062.98 279.14 1064.49 277.45 1065.5 279.15 1064.51 282.24 1066.46 282.58 1069.99 278.31 1072.35 278.57 1074.92 276.85 1074.89 273.53 1072.99 271.46 1068.9 269.82 1065.71 271.19 1064.09 270.22 1061.15 271.49 1059.25 268.24 1055.64 267.18 1053.56 265.49 1048.95 265.13 1048.38 266.79 1047.17 265.59 1041.98 264.51 1041.98 263.17 1044.6 262.39 1047.32 264.15 1050.18 261.13 1051.47 262.74 1054.19 262.24 1055.61 260.14 1058.56 261.12 1059.84 262.85 1061.95 262.95 1062.31 260.87 1063.83 262.76 1067.62 264.63 1066.99 266.82 1069.7 268.71 1074.56 268.05 1076.12 264.62 1080.97 260.37 1083.78 255.35 1080.71 251.7 1080.99 249.07 1076.22 245.49 1077.34 243.62 1070.83 246.09 1070.37 242.99 1068.2 240.77 1064.8 244.11 1063.29 240.76 1061.47 241.63 1061.83 238.35 1059.52 237.56 1058.09 234.75 1056.36 232.43 1059.05 229.67 1057.62 225.66 1059.31 224.91 1059.54 222.81 1057.01 221.47 1060.01 218.48 1059.51 213.24 1060.42 212.28 1062.43 214.48 1063.19 211.11 1060.87 208.07 1062.34 203.05 1062.12 199.03 1063.17 197.82 1063.16 193.45 1059.71 187.97 1062.36 189.25 1067.5 188.95 1070.77 185.06 1069.68 181.91 1070.8 180.17 1073.74 181.29 1078.9 177.74 1079.39 175.78 1077.09 175.01 1078.44 172.22 1081.07 170.12 1082.32 172.12 1083.93 171.89 1085.25 168.31 1086.69 168.47 1087.9 170.86 1090.49 169.01 1090.91 165.08 1092.88 161.7 1095.5 161.99 1095.62 164.52 1097.71 164.88 1099.81 161.52 1104.27 159.61 1102.44 164.2 1103.3 161.23 1104.89 163.8 1108.8 160.76 1111.01 161.15 1115.06 155.73 1114.29 157.91 1117.12 155.15 1119.36 155.27 1122.39 159.19 1119.89 158.92 1118.23 155.94 1120.41 155.38 1119.6 153.03 1116.91 152.22 1113.78 149.21 1118.06 148.88 1117.55 146.31 1119.45 148.37 1120.71 146.51 1119.27 144.22 1117.18 143.93 1115.09 149.16 1116.33 148.03 1118.32 149.32 1118.91 150.57 1120.28 150.31 1120.68 148.32 1117.63 146.52 1120.41 145.35 1123.34 145.88 1126.5 143.57 1124.38 141.75 1122.68 137.32 1124.89 138.36 1126.25 140.44 1128.87 140.12 1130.35 137.5 1131.09 134.21 1133.09 132.97 1134.77 137.01 1137.89 133.89 1138.9 136.93 1141.67 138.42 1143.42 135.68 1146.02 137.56 1150.36 135.38 1152.08 137.95 1155.33 138.57 1157.74 137.24 1157.86 137.41 1158.44 133.65 1156.73 131.33" fill="#da1a35"/>
		<polygon class="aa2" points="1073.34 330.91 1074.78 330.56 1073.64 333.36 1071.37 335.65 1071.53 337.21 1075.65 336.51 1076.69 334.52 1075.6 333.5 1076.46 331.44 1080.8 328.74 1081.56 326.53 1084.39 323.79 1084.19 322.18 1081.97 319.71 1083.67 316.92 1084.26 315.01 1085.85 313.84 1083.97 312.56 1082.03 313.43 1078.33 312.96 1075.69 315.66 1073.73 318.57 1071.15 320.76 1071.79 324.83 1070.44 325.51 1073.34 330.91" fill="#da1a35"/>
		<polygon class="aa2" points="1046.76 335.53 1044.5 344.78 1044.64 348.09 1044.38 350.46 1045.38 351.72 1046.96 348.84 1049.44 343.54 1050.69 337.85 1053.08 332.16 1054.26 327.1 1052.6 324.89 1050.13 327.92 1050.47 329.46 1048.78 334.48 1046.76 335.53" fill="#da1a35"/>
		<polygon class="aa2" points="1086.4 311.68 1087.41 313.44 1089.49 311.83 1092.65 311.28 1092.03 310 1088.45 309.74 1086.4 311.68" fill="#da1a35"/>
		<polygon class="aa2" points="1086.83 295.46 1087.96 298.5 1090.03 296.44 1088.37 294.73 1086.83 295.46" fill="#da1a35"/>
	</g>
	<g id="MAP">
		<path id="NEDERLANDS" class="aa2" d="M838.15,439.1l-2-.36,3.21-1,1.12,2-1.78.25Zm2.54-2.68.4,1.14,1.76.6.76-.79-3.11-1.71-2.46-.35.43,1.6Zm-7.76,11.44,2.67.31,1.57,2.11,2.12-1.69,3.38-.25.89-1.06,2.58,0,1.32-2.43,6,.81,1.8,2.27,3.06.35,1.37,2.61,4.74.29,1.26,3.11-.46,2.21,2.89,1.28,1.92-3.7,1.83-5.74-.45-5.25L874,440.6l2.57-3.32,4.83-.61,4.35,1.54,2.71-1.12-1.53-3.52,2.48-1.39.94-3.76,1.28-2.05L890,424.5l-4.34-.36-.25-2.35,1.93-3.26,3.49,2.08,2.51-1.64.46-3.45,1.76-2.91.47-1.95,1.16-1.17.18-.74-3.27-1.48-2.4-2.71-4.65-3.11-5.3.2L878.39,404l-2.8-1.54-2,1-4.3-.37-4.51,4-6.8,2.73-1.23-1.09-3.92,1-.62,4.25-3.78,2.28.59,4.27-1.23,3.64L846,427l-1.45,2-2.9,1.68-.17,2.7,3.59,4.06,3.48,1.48-4-.46-2.06,1.39-1.32.92,1.36,2.2,2,.5-.07,1.75-3.22-.23-2.58-3.42-2.9-1.82-3.08.87.88,1.72,2.78.59,2.26,2.7,1-.3,3.08,2.65-3.06-1.56-2-.1-4.62-2.16-3.08-.35-.13.09,1.88,1.17Z" fill="#d71a35" stroke="#000" stroke-miterlimit="10" stroke-width="0.05"/>
		<path id="DENMARK" class="aa2" d="M955.68,365.34l0-.12m18.95,7.3.41,1.41,1.87-2.12,2.4-.17-.29-2-2.66.79Zm-12.93-17.26,1.13,2.34-.6,3.61,1.75,2.72,2.24.26,4,1.56.45,1.67-1.74,1.67,1.13,2,2.69.17,1.57-1.72.15-2.43,3.87-1.1,2-1.45-.39-2.23L977,359.81l.15-1.28,3.89-1.36,1.63-4.06.06-3.86-.69-3-4.09-.28-4.79.61-2,2.94,1,1.67,2.52,2.17-.46,1.83-1.79-.67-.88.8-2.92-2.53.06-1.67-1.42-2.3-1.79,1-1.71,2.5-2.18.41Zm21.72-.39-1.69,3.56,2.33,1Zm39.12,19.48-2.51-5.26-3-2.28-1.43,4.55.52,3.36,5.39,2.56Zm-68.21-9.79-.56-2.9-1.72-5.23-2.45.11L946,354.06l-5.46.4-1.27,4.24,1.35,4,2.91,3.82,2.88.72,1.78,1.5,3.5-.25Zm4.77,9.94-2.07.54,1.17,2.14,4.84,2.3,5,.13,2-2,.58,2.79.79.54.24-2.82,2-2.88-.28-2.56-.7.44-2.86-.46-1.45,2.55-1.79-.2-2.32.45-2.72-5-1.75.26-1.67,2.07ZM990,385.94l-1.12,2.46.88,1.32,3.43,1.63,2.65-2.87,2,.89.43-1.57L997.12,385l1.11-2.84-2.55-.82-1.29.49-1.07-.83-2.76.39-.06,2.2,2.71.57-.86.8ZM959.8,311.83l2.62.23,3.1-1.77-3.81-.44Zm-33.3,9.38-.1,3.68,1.88-.64,3.17-2.88.77-2.23L929.4,319ZM955.2,372l2.49-3.85a16.92,16.92,0,0,1-2-2.82l-1.42,4.75-1.73,2.63.44,1.74Zm2.21-73.11-5.25,4.17-4.7,1.52-3.21,0-2.56,3.05-2.24,3.88-3.71,2-3.82-.43-4.86,3.05-1.17-1-2.56-.17-1.58,3.68-3,2.36,1.49,1.6,1.63-.71,3.21,4.62-.24-4.68,1-2.32,6.27-3,.69.74,3-.18,3.73,1.2,2.64-.6,3.44.39,2.79,1.62,2-.66,4.13-5.6-.35-3.77.82-1.45-.36-3.66,3.07-4.28ZM949.35,373l1.4-1L947,370.07Zm5-24.19-.75-4.68L953,348.9l-2,2.55,2.81-.27Zm-23.84,20.3,1.81,1.11,3.18-.18-.17-.23,1.19-2-2.14-2.68-1.34-.15.4-2.39,2.21-1.51.59-2.64-1.65-1L935,355l7.21-2.68-1.33-1.38,2.87-2.51,1.35,1.1,3.77-.92.41-4.82-1.23-3.38,2.38-1.9,3.13-.05,1.85,2.65,1.31-.8L958,341l1.39-1.6,1.42-2.81-2.7-3.7L956.25,334l-4.13-.61-1.75-2.36-1.55-3-1.69-.59,1.7-1.71.41-3.6-3.08-2.66-5.26-.2-2.68.91-2.75-.71-1.48,1,2.48,4.34-1,1.24,2.41,3.8-.39,1L935,329.56l-3,.32-.35-1.66,2.1-1.78-1.49-3.56-.94-.11-3.24,3.55,1.34,2.46-3.61,2L924,328.3,921.1,328l-1.89-1.31-2.69,2.28,3.41,3.23-.38,3.34-2.07-2-1.52.23.16,4.49,2.26,1.6-.46,4,1.77,2.23-5.07,1.73L912,352.63l1.82,1.84L917,353.2l3.58,4.07.19,5.43-1.57.76.42,2.8,4.67.31Z" fill="#d71a35" stroke="#000" stroke-miterlimit="10" stroke-width="0.05"/>
		<path id="FRANCE" class="aa2" d="M881.19,617.12l.78,3.93-.65,0-12.05,7-3.51,3.52.47,1.82-3.66,2.42-7.84-1.31-2.64-2.87-9.92-7.91-2.57,0-2.92,1.83-2.93-.34-4-3-3.94-1L824,619.51l-2-.1-6.91,5.84-4.41,3.15-.74,2.89-2,5.86.75,5.23v1.72l-2.13-1-5.45-4.24-8.35-.18-4.77-3.38-4.9,0-2.86-2-8-.67-3.43,2.82-2.27-1.54-4.85-.43-3.47-4.52-3.76,1.24-2.9-3.95-6.68-3.59-5.28,0,.83-2.74-.21-3.77L738,615.5l-.28-.93-2.85-2,4.36-2,4.4-10.05,2.31-11.9,2.48-1.48-2.6-2.2.61-6.42,2.75-8.61,1.87-1,3.4,2.28.7,4.41,4,4.93-3-10.49-4.87-4.76-2.86-1,1.15-3,.85-.31,1.74-3.32L750.89,555l.49-3.07L747.51,549l-4.2-1.16-3.78-6-2.88-.75-.41-2.34,1.93-2.75-.26-3.56-1.78-1,2.32-2.58,3.22.24,2.63,1.92-1.92-3.32-3.56-.82-3.58,1.75-2.12-.38-1.32-2.72,1.73-3.32L732,520.31l-3.13,1.4-.8-1.31.89-1.93-1.69-.6-3.09,2.22-3.58-3-2.27-.26-1-2.14L712,511.78l-2.19.16-2.46-1-3.88,2,.64-2.09-.9-3.89-3.07-.35,0-.95,3.33-.84,2.1-.57-.27-2.34-2-1-1.36,2.42-.82-3.48,2,0,3.27,1.06-.67-1.3-3-1.29-3.19.71-1.08-2.42,2.73-2.53,5.39.22,2.52-2h3.66l1.6,1.4,2.22-1.63,1.63,1.12,3.68-2.69,4.26-.45,2.7,1.25,4.19,7.12,4.23-2.76,1.07,1.33,3.17-.44,2.46,1,2.77-.63,6,1.5,0-3.11-1.58-2.62,1-2.59-.49-2.77,1.26-1.6-5.24-6.16.86-1.66-.74-4.15,1.78,1,4.12.61,3.06-.73,2.65,1.66L758,478.91l2.07,2,.8,2.52,2.71-1.17,2.88,2,6.84,1.72,5.2-.48L783,483l-3-1.42-.95-2.28,1.95-2.89,7.09-2.83L791.2,475l2.95.21,5.8-1,.24-2.14,5.64-4.36,1.83-6.42-.34-4.23,1.61-3.33,5.42-2.36,1.33,1.37,6.52-1.41.64-.91,1.86,1.73.06,6.2,3.89,2,.3,3,4.5,4.65,2.18.12,2,2,2.29,1.41-.3,4.87,3.47,2.34,2.06-1.06,2.16.25,1.32,2,2.23.76,3.49,5.56,3.54.67,2.91,2.65,1.64-.83,2.55.29.25,0,1.65,3.54,4.37,1.4,2.61-.35,3,2.92-.25,2.17,2.77,2.9,3-.68,3.06.36,2.18,1.14,3.3-.65,4,2.39,3.33.38,3.16,2.69L897,510.91l-2.52,5.14-.3,2.66-2.68,2-2.49,5.9-.33,5.12,2.83,2.25,1.26,3.63-5.93,1.12-3.13-.74-.76-2.42-4.1-.2-2.6,2.54,3.47,2.32.25,3.39-3.34,1-4,4.07-2.79.71-5.41,6.73-1.39,5.25-.33,3.45-2.08-.37-2.16.78.07,2.85,3.77.81,4.54-1.27-1.16-4.53,2.66-1.88,5.2.85,1.39,3.52.78,4.47,1.85,1.88.21,3-.27-.14-1.73,1.61v4.39l3,3.44-1.7,5.75-4.13,0-2.87,2.51,3.81,5.1-.29,9.26,5.16,4.47,5.35.62Zm13.38,39.33.37,2.61,2.39,1.63-.15,1.33-1.42.65.86,1.87,2.25,1.6-.41,2.39,1.21.14.75,1.71-1.31-.42-1.42,1.73.75,1.71,5.08,2.89,3.54-1.22,2.49-5.39.39-4.56,3.09-7.9L912,649.93l.92-4.5-.35-5.19-1.73-.2-1,3,.8,2.4-.89,3.14-1.34-.15-1.88-2.53-2.37,1.9-5.56,1.26-2.91,4,1.8,2.1-.85,1.53Z" fill="#d71a35" stroke="#000" stroke-miterlimit="10" stroke-width="0.05"/>
		<path id="GERMANY" class="aa2" d="M897.21,409.49l.18-.74.33.15-.43-3.43-3.79-1.11-1.25-3.26,1.07-3.39,8.13-1.23,2.38-.81,3.56,3.25-.46,4,2.54,3.82,1.95-1.68-1.25-3.25.29-2.54,1.68-.48,2.28,2.56-.73,4,3.37,4.86-1.22-3.53.44-5.09-.33-3,2.54-3.23,2.86-.2L924,396.9l3.9-1,4.88,6.76,7.48,2.37-6.93-3.87-4.88-6.43-4.24-.76L922,392.21l.29-2.54,3-1.82-3-2.38.48-4.13-3.23,1,.24-3.09,2.93.34,3.34-.84-3.45-4,.56-2.51-1.86-.35L919.1,370l.62-2.9-.12-.79,4.67.31,6.28,2.52,1.81,1.11,3.18-.18,3,4.06,3.44.79-2.34,3.8-1.93,1.54.7,2.1,2.71,1.13.73,3.08,2.95-1.7,1.14-1.75,1.79-.81,1.12,2,4.09,3.71,1.07-1.15,3.06-1.88,1.31,1-.28,3-2.65,2.53-2.09-.58L950,392.64l4.31,1.85,1.67-.54,3.16.68.91,2.07,3.71.09.89-2.46,2.85-3.11,6.59-.26.36-1.58,3.74-1.39.61-1.76,1.64-.62,4.53,1-3.83,1-1.5,1.27-.54-.54L977,390l1.18,1.49,3.9-2.13,3.92,0,1.69-.61,1,2,3,.89,3.91,4.9,3.68-.25,1.66,3.3-1.06,3.26,2.92,2.92,3-.07,1.92,2.12,3.22.19,1,8.14-1.19,5.8-5.24,2-.28,2.42,4.79,6.48-1,3.5,2.17,3.6-.31,2.68,1.1,3.86-1.76,2.88,2.35,7.62,2.19,1.56,1.8,3-.83,9.41-1.14,1.43-.81,1-2.38-1.56-2.48,1.27-5.33-1.9-.36,3.17-3.13,1.45-2.47-.93-5.87-.54-2.24,2.7-3.84-.31-3.88,3.55-3.09-.1-6.89,5L969,483.47l-1.53-1.59-1.66,1-.11,2.64,4.33,3.34,3,6.17-.75,4.25L973,502l3.22,2.31,5.59,4.85,3.17,2.69,6.14,9,0,.12-1,3.12-.22,3.53-2.81-.32-2.44,3.28-4.3,1.54-5.4,5.44-.26,2.28,4.08,2.67.12,3.37-1.92,1.07-3.67-2.75-4.09.7-3.94-1.62-2.84,0-6,3.05-3.11.3-2.7-1.22-3.14.42-2.35-2-4.75-1.32-4.78.1.1,2.46-1.31,1.27L930,544.74l-2.11-3-3.3.81-2.16.79-.91-.09-1.63-1.4-4.43-4.11-2.41-.41-2,1.44L909,538l-.88-3.58-3.71.86.13,2.21-1.52,2-4.15-2-3.39,1.43-2.79-1.2.09,0L891.48,534l-2.83-2.25.33-5.12,2.49-5.9,2.68-2,.3-2.66,2.52-5.14,4.42-3.61-3.16-2.69-3.33-.38-4-2.39-3.3.65-2.18-1.14-3.06-.36-3,.68-2.77-2.9.25-2.17-3-2.92h-.07l1-5.57L873,486.24l-.32-3.9-3.6-5.71-1.15-.13,2.6-4.6-1.79-3.54.37-2.16-2-5.78,1.44-2.42-.43-.18,1.92-3.7,1.83-5.74-.45-5.25L874,440.6l2.57-3.32,4.83-.61,4.35,1.54,2.71-1.12-1.53-3.52,2.48-1.39.94-3.76,1.28-2.05L890,424.5l-4.34-.36-.25-2.35,1.93-3.26,3.49,2.08,2.51-1.64.46-3.45,1.76-2.91.47-1.95Z" fill="#d71a35" stroke="#000" stroke-miterlimit="10" stroke-width="0.05"/>
		<path id="SWITZERLAND" class="aa2" d="M939.87,557.36l-4,3.83,1.14,5.81-7,.73-1.54,6.54-2.75-2.9-3.1-.1-7.41-2.92-.55,4.86-4.3,5.94L909,575.39,903.7,572l1-4-3.79-3-7.62,10.24-4.36-2.57-7.47,4.3L877.8,575l-.21-3-1.85-1.88-.78-4.47-1.39-3.52-5.2-.85-2.66,1.88,1.16,4.53-4.54,1.27-3.77-.81-.07-2.85,2.16-.78,2.08.37.33-3.45,1.39-5.25,5.41-6.73,2.79-.71,4-4.07,3.34-1-.25-3.39-3.47-2.32,2.6-2.54,4.1.2.76,2.42,3.13.74,5.84-1.1,2.79,1.2,3.39-1.43,4.15,2,1.52-2-.13-2.21,3.71-.86L909,538l2.08.87,2-1.44,2.41.41,4.43,4.11,3.63,3.13-.59,2.9-1.28,2.17.91,2.16,1.79.31,2.77.47,2.27-.63,3.27,4,3.37-2.46,2.8.33Z" fill="#d71a35" stroke="#000" stroke-miterlimit="10" stroke-width="0.05"/>
		<path id="UK" class="aa2" d="M700.19,288.12l.7,2.07-1.32.95-1.09-2.93Zm2.7,29.43,3.36-5.6-6.65,4.9.83,3.32Zm.1-44.92-1.84.61,0,4-3.44-3-.16,3.08-1.11-.95-1.48,1.14,2.93,2.73.28-1.28,1.17,1.11-.6,1,1.86,4.47,4.12,0-.12,3.42,1.43,0,1.35-2.94,2.56-1.1-1.16-1.09-2.05.19-3.32-2.3,1.08-5.85ZM752,241l-1.7.08,1.23,1.65Zm43.46,196.78-1.31.54,2,1.31,1.88-.27-.89-1.36Zm-99.77-172-1.56.58-.83,1.35-1.29.54,2,1.95,4.27-3Zm3.16,47.27-.27-1.82-1.45,3.22ZM688.6,302.36l3.34-2-2.78-.52Zm9.95-42.45-3.47-2.1L692.86,260l1.64,2.17-1.68,1.05,1.45,1.54,3.07-.15,3,1.15,2.57-2.87-1-.92,1.29-2.48,3.33-2.44v-4.61L698,257.16Zm-12.12,15.41-.13,1.08,2.11,1.14,1.21-2.35Zm61.81-30.73-.09,2.54,3.32,0,1.67,1.35.38-2.64-3.86-.08,1.44-1.34-1.83-2.27-2.63-.09-.37,3.18,1,1.42Zm-39.7,32.08.09,3.94-.22,1.28,4.49-.19-3,1.1-.4.77.86.68,2.91-.71-.74.63,1,1.55-2-1.08-.89.46-.81,1.82,1,.94-1.69.07-1.26,1.52,1.85.88.27,1.53-3-1.57-.84,2,1.16,1-.89,1.3-1.62.91-3.09-.28-1.49,1.25,1.08.86,2.64.13,1.7.73-.49.74-2-.24,2.43,2.89.9-.24,1.24,1.65,8-6.41-1.38,2,1,.8L713,300l-2.21,3.95.09,1-2.69,4,.87.65-2.45,4.81.09,3.3-1.55,1.77.81,1.73,1.35-.47-2.68,3.35-1,5-1.85,1.44v1.23l3.74.42-.23-2.65,2-3.55.13-2.32,2.21-2.16-.75-6.4,1.4.15,5-4.8-3.92,4.65-.82,3.62,1.16,1.09.51-2.13,2.42-1.6.61,3.5,2.28-3.87-.08-2.89,1.56-.58-1,3.59,3.41,3.27-3.1-1.24-1.69,4.56.34,3.55,1.89.68.78,3.18-3.2,2.6-3.78,7.27.28,3.48-2.37-1.91-.28,3.68,2.92,5.29-.55-4.61,2.49-.42,5.65,5.18.53-3.52-2.31-2.33,1.66-.23,4.6,3.68,3.55-.16.17-1.49,3.2.49,1.3-2.88,8.65,1.37-5.94.86-4.62,9.54,3.39,8.23,2.29-1-.47,4.09,3.21-3.09,3.42.93-1.69,4.08,1,.8L739,372.05l.52,4.87-2.29,3.39,1.82,3,2.28,2.53,2.06.43-1.53.86-2.35-.11L737.84,384l-2,.53,1.29,3,1.61,1.27-2.66-.91-1.95-2.48-5.82,1.14-2.5-.68-6.14,2.2-3.49,3.87L711.64,394l-2.1,2.38,2.72-.18,1.28.62.58-1.52,6.13-.89-.88,3.06,1.81,2.4-2.39,1.38,1,2.52,1.36.49-4.73,7-2.91.63-3,1.8-1.41-.08-3.87,1.83-2.6-.29-4.53,2.25,3.28.84-.07,2.47-2.54.88,4.2,1.22-1.2.9,1.57,1.14,2.49-.41,3-1.39,4.72-1,.16,2.15,3.51,1.29-3,.47-.53,1.66,4.93.7.11-1,2.54-.41,2.21,3.21,2,3,5.69.57,1.59-2.1,2.81-.85,3.84-.95,1.63-1.89,3.23-1.08-4.77,4.42-4.66,3.54-.75,4.73-2.86-.46-2.37.56-2.44-1.71L719,436.27l-5.36.79-.25,2.65L711,441.57l-2.87-.31-1.16,6-3.39,2.44-1,1.47-3.48.24-1.27,3.35-1.47-.15-1,1.74-4.49,2.53-1.79-.89L686,459.69l-.3,2.64,3.12.55.4-2.35,3.69,1.44,1.25,3,2.07-1.56-.64-1.44,2-2.13.71,1.18,2.37-1.8,1.4.15,1.36-2.45,3.19,1.24,2.67-.87,2,.57,1.57-.65,1.24,2.13,1.75.06,2.17,2.3,2.82.18-.32-1.89,2.32-.78.8-1.62-.26-3.13,2.16-1.69,1.63,0,.81-1.15,6.44-.72,3.25.63,3.5,3.07,1.47-.39,4.11.66,2.13,1.06,1.37-2.53,4-1.47,2.52,1,4-2,2.54.9,1.36-.06,2-1.15L767,452l2.06,1.52,2.72-1.4,5.77.56,3.69-.34,3.34,1.53,1.7.54,2.85-1.81,2.94-.23,2.8-2.1,1.76.06,1.76.62-.18-2,4.4-2.33,2.6-.27.5-2.55-.52-1.91,1-2-4.63-.37-3.42.85-1.93.12L793.3,439l-1.1-.42,1.17-.87,1,0,.36-.57-2.7-1-2.5.61,3.63-2,2.2.48,2.87-1-.53-2.39L795,431.5l2.2-1.54,1.64-1.27,1.45,1.54,2.68-1.49,1.18-1.44-1.17-.41.94-1.13-2.83-.66,1.35-1.77,1.75.67.38,1.43,2.38-2.49,2.1-.6.92-5.06,2.42-4.56-1.26-2.07-.31-4.44-5.36-5.28-8.13-1.32-5.1-.43-.84,3.77-1.6,2-2.33-3.29-3.12-1.17L790,396l.36-3.13-3.28-7-1.56-.46-3.3-2.46L781,380.35l-1.85.14-1.31.26-2-1-1.28-.15,2.48-.33,1.49.58,2.67-.26,1.52.92,1.24,1.59,1.84-.13,1.7.58-4.07-6.43-1.88-3.09,1.66-2.08,1.32-.33-2.18-1.55-.81-1.88-1-.25-2.2-5.41-3.9-2.65-5.75-2v-2.34l-1.25-1L766.3,347l-1.74-3.77-.53-8.33L762.6,332l-1.61-.17-4.12-7.91-2.86-1L752,320.73l-3.59-1.92L746.74,320l-3.18,1.59-4-1.82-2,0-3.22-1.46-.78-1.94,1.88,1.25,4,.78,3.45-.72,1.32-2.53,3.39.51,3.33-2-3-1.84V310l-1.16-1.16-4.61,1.83-.63-1,3.62-2.07,4,.72,2.57-1.79.62-1.78,1.72-.84,2.86-4.28,1.72-1.94,0-1.51,2-2.87-.47-1.16,2-4.05,3.08-2.06.31-2.71-3.71-4.25-.94.57-7.11-.58-4.25-1.3-1.37.75-2.14-.25-2.56-1.24-1.88-.13-.38.92-2.76.51-3.06,1.25-1.13-.2-2.12,1.35-.53-.68,3-2.7,3.25-4.11-2.13.87L733.27,273l1.58-.78.77-2,7.47-4.4,2.4-3.15,2.43-.57,1.48-2.93-1-1.49,1.58-2,0-1.38-3.48-.39-1.57,1.35-2.13-.93-3.51,1.12-3-.68-2.74.8-1.47-.16-1.69,1.25.5-1.52-1.33-.78-3.16,2.2,1.12-2.13-3.73-2.28-1,2.38-1.45.86.14,2.29-.8,0-.2,2.8-2.94.29,1.13,2.53-1.49,2.25-1.4-.09,3.06,3.43,1,2.3L716.53,269l-1.39.94-2.35-2-.27,1.21.48,1.7-.94,1.13-1-2.79-1.53,2.64,1.17,1.65-1.24,1.3,1.8,2.61,2,.29-2.44.62Zm-17.93-2.94.42-1.94-4.29-1-1.42.6,2.12,2.71ZM674.94,338,673.56,341l-3.63.1-4.72,7.46,6.59,7.73,2.62-.21,1.57-4.73L678.2,350l4.81,3.12,2.55,7,2.49.81,3.51,3,.69.18,0-2.61,1.56.58,2.93-1.88.56-2.42,4.09,1,.91-2.85-2.54-.84,1.32-2.6-.77-2.14,2-.06,1.32,6.27-.18-7.85-4.72-.8,2.83-1.61-4.3-7.9,0-3.29-2.45-1.72-5.27-1.14-3.6,1.8h-2l-1.21,1.1-3.4.27L677.42,337Zm39.23,22.81-1.87,4.4,3-.15,4.68-3.74-.45-1.91.94-2.92ZM699.3,322.31l-.81-5.86-5.25,1.48-.45,4.47,3.45-1.67-.8,3.35Zm-5.95-23,2.39-.76,1-2.57Zm20.14,85,4.54,3,4.51-2.81-3,0-1.07-3.08-3.73.06S713.44,384.2,713.49,384.34Zm47.15,68-5,1.92,2.22.73,2.2,2,2.39-.15.14-1.22,1.36-1.84h-1.76ZM708.48,324.9l.28,5.18,3.19,1.74,1.4-3.36-1.84-5.22Zm-4.79-17.23,3.34-2-.94-3-2.17-.59-2.44-3.49L698,300.52l4.28,2.75-2.69,1.07.54,1.16-3.25,1.84,6.64-.71Zm44.51-58.13-.92-1.89-1.58.17,1.58,3.27Zm-63.92,36.2-1.6,1.61-.35,1.82,2.51-1.17Zm3.77-7.48-1.76-.55-.1,2.05L685,281.84l.41,2.37,2,.71-.34-3,1.06-1.53Z" fill="#d71a35" stroke="#000" stroke-miterlimit="10" stroke-width="0.05"/>
		<path id="ITALY" class="aa2" d="M983.12,803.37l5.22,1.41-.23,2.68-2.17,1.84-3.25-3.41Zm-53-154.57-.23-2-1.42-2.17-1,1.05-4.06,1.08-1.71,1.42,1.81,1,3.79-.86Zm75.35,115.39,1.2-4.6-2.29-3.51-4.91,3.76-1.84-.48L994,756.78l-4.2,3.57-7.95-1.45-6.78,1.25-4.56-1.47L967.44,756l-3.93,0-2.33,1.5-1-1.74-4.51,1.5-1.19,5.69,3.34,3.89,3.82-.23,6.15,5.31,3.5,1.35,2.93,4,7.54,3.84,1.72-.87,3.19,2.93L987,786l7.77,4.14,3.4-.15.24-4.43,2-2,.05-3.92-2.7-4.76,4.19-8.19ZM987.26,581.8l-1-2.95,4.74-5.39-2.27-2.59-5.92-.16-10.46-3.27-8.09-6.1.92-3.5-6.17-.2-3.71-1.46-9.79,4.3L940,557.27l-4.07,3.92,1.14,5.81-7,.73-1.54,6.54-2.75-2.9-3.1-.1-7.41-2.92-.55,4.86-4.3,5.94L909,575.39,903.7,572l1-4-3.79-3-7.62,10.24-4.36-2.57-7.47,4.3-3.9-2-1.73,1.61v4.39l3,3.44-1.7,5.75-4.13,0-2.87,2.51,3.81,5.1-.29,9.26,5.16,4.47,5.35.62-2.91,5.07.78,3.93,8.61-.52L894.1,617l.47-2.93,9.66-4,11.41,4.43,3.21,2.67,5,2.11,1.15,3,.79,2,1.11,2.88,2.61,5.59-.21,3.08,2.59,2.05-.7,4.94,3.91,2.47,2.29,3.65,4.28,5.1.17,3.25,5,.73,2.72,4.64.34,2.88,2.18,1.06,6.16,10,6.36,6,3.27.92,2.7,2.34.33,3,3.21.36,2.52-1.88,3.43,1.89,3.45.67,2.93,7.37,2.1,1.74,2.09-.58,2.83,1.42-.54,2.36,3.08.22,3.18.64,1.92,3.2-.8,3.42-1,1.38,1.53,1.93,3.59.7,1.12,3.1,4.42,1.59,2.14-1,2.35,1.89,1,5.8.19,5.43,1.59,2.62.76,6.45,1.66,3.16-.5,3.19-2.13,2.06-1.41-.1-1.07.48,0,3.54-.83,3.28-2.37,2.16-2.27,1-1,1.25-.18,2.69,3.42,4.32,5.14.16,2.92-3.16,1.11-3.67,5.25-3.32,1.35-8.1,3.28-2.74,3.16-.45,1.48-2.39-.73-1.71,1.09-4.48-.74-2.11-4.41-5.25-2.76-.72-1-1.92.29-2.63,2.74-1.44.91-2.6.06-2.29,2.25-1.91,1.69-4.14,1.72-.82,2.44-.05,3.4,2.15.89,1.72,5.44.71,1.79,1.37-.74,2.59,1.11,3.41,2.08,3.36,3,1.66.27-1,1-.66-.1-2.91,1.75-2,1-4.48-1.07-2.53-2.69-2.37-5.58-2.14-3.09-4.09-5-4.67-13-9.09-6.49-2.36-3.61-.41-1.41-3,.33-1.59,4.76-2.57.94-2.32-2.9-2-4.35.18-2.72-1.12-6.67-.74-2.11-1.63-3.2-1-2.2-2.86-4.72-4.6-2.08-4.23-2.83-3.64-2-3.75.29-3.62-1.38-1,.08-3.11-10.13-12.93L975,630.5l-4-2.76-7.28-5-1.57-2.88,0-5.14-1.48-4.64,1.75-1.15,3.13-3.7-2-3.34-1.44-4,1.65-2.52,3.93-.09,4-2.79,3.88.45,2.83-2.25,2.55-.93,3.86,1.45-.17-6.11ZM889.19,682.07l.48-1.57,1.69-1.48-1.27-1.38-.76,1.66-1.15.49L888,682.1Zm-.37,11.47.37,2.75,2,2.27-.47,4.13-2.85,2.39.82,2.25,3.44.68-.17,1.46-2.42,2.29-2.31,6,1.21,2.44.91,7.41,2.35,3.11,1.42-.65,1.66,1,2.65-.78.72-4,1.35-2.28,3.31.65,1.89,2.39,2,.23,1.62-2.38.75-6.55.88-1.79v-7.18l2.08-6.25L908,698.6l4.16-2.1.84-2.61-.45-4.25-2-2.8-2-5-1.49,1.19-2.79-2.76-2.7,0-7.29,6.88-2.81-.2-3.73-2.86L887.3,688l-1,2.45Z" fill="#d71a35" stroke="#000" stroke-miterlimit="10" stroke-width="0.05"/>
		<path id="PORTUGAL" class="aa2" d="M626,729.83l-.32,4.14-.12,0-1,1.38-4.72-.14-5.55,2.34-3.1-2.39-7-3.78-5.62,3-1.21-1.22,1.56-1.84,2.51-6.49.8-9.37,2.21-3.94-.67-4.82,2.15-2.18-4.52-.66-3,2.22-1.39-1.91.69-3.71,5.49-1.94-.71-2,.8-2.2-3.87,1.85-2,2.33-3.6-.41.16-2.55,3.59-10,5.44-6.15.39-3.34,4.66-5.28L609,665l2.66-4.3,2.17-2.32-2.21-3.22,1.91-4.8-.47-1.81,2.48-11-2-6.31.1-3.72,8-.34,2.88,1.16-.95,3.75,1.23,2.74,6.22-2.39,9.45,3.15,3.69-2.93,8.3,2v4.39l3,5.5L654,648.08l-2.55-.29-7.36,5.6.24,4.69-1.79,11.16-4.27,3.37L641,676l-5.31,5.84-3-.87-4.45.52,3.59,9.2,3.79,3L635,700.9l-6.25,5,2,5.38,3.8.71-.9,3.25-4.74,3.08-5,7.17Z" fill="#d71a35" stroke="#000" stroke-miterlimit="10" stroke-width="0.05"/>
		<path id="GREECE" class="aa2" d="M1187.54,813.65l1-1.19,2.86-.7,1.34.8-1.38,1.72a20.68,20.68,0,0,0-2.34.77ZM1165,718.36l-1.47.35-1.38,3.08,2,.16.9.69,2.36-.84-.11-1.95Zm29.5,72.53,1.28,1.84,1.71.27,1-.94,2.09-.73-.23-1.38-.94-.3-.65.62-1.9-1.95-2-.43-3.21,2-.9,1.2,1.91-.3ZM1156,795.72a16.07,16.07,0,0,0,1.63-.72l.26-1.59-1.56-.62Zm1.11,14,.73-1.79-2.28-.33-2,2.24,1.51.37Zm.61-9.31.27-2.3-1.73,1Zm-3.41-10.16.44,1.22,1.88-.56L1155.5,789Zm66.27,31.36,1.33-.82.4-1.76-2.35.69-4.21,1.21-4.2,2.75-.45,1.82.49.76-1.11,1.82,1,1.27,1.49-.08,1.8-1.73,2.12-1.64,1.68.12.07-1.14,1.12-1.44Zm-90.21-7.36-.31,1.86,1.62,1.06,1.52-2.4-1.49-2.58-.31-2.42-.69.67-1.17,2Zm.52-7.12-.48,1.42,1.27.18Zm-38.31-31.61-.73,1.87,2.13,2.69,1.92.75.58-1.11,2.14.58-1.16-1.7-1.35-2.34-2-1.27Zm107.4,57.37.84,2.3.16,3.65,1.13-.4,1.67-3.17-1.42-2.37-.21-2.15Zm-5.61-118.29-.32-3.91,4.91-2.28.75-4.3-3.4-2,1.27-4.55-2.12-.24-4.57,2.7-.72,4,1.05,3.21-2.51,1.66-7.45-1.38-3.63,1.25-2.85-2.13-3.43-.39-2.64,1.64-3.28-.65-.17-3-4.59-.4-4.24-1.26-3.39,2.58-4.6.63-5.83-.8-1.68-1.1-.13.09-2.4,1.69-3.19-.24-4.37,2.08-8.72-1.4-3.93,1.62-.43,1.5-5.17,1.21L1105,714l-.09.36-1.24,4.52-3.38,4.77-7.25,1.48-.74,4-3,4.93-2.44.94.35.3-.33,5.12,5.88,5.55,3,5.66,1.7.6-.59,1.56,4.15,7.52.65,4.94,2.16,1.19,3.35-3.26,2.3,3.64,4.06,1,2.05-2.47,2.91.61,4.35,3.34,3-1,.25,2.46,2.3.12,1.7,1.69,3.66,1.1L1130.9,776l-2.68,2.12-2.16-2.26-3.12-1.17-6.43-5.34-3.19.7-3.14,1.4-2.9-1.81-2.92,2.91-1.92.32-1.55,2.94,3.24,4.7,3.67,2.31,3.32,3.91.11,2.57-1.65,1.57-.13,3.38,2.74,4.51,1.85,2.65,1.2-2.17-.6-1.83,1.69-2.92.75,4,4.44,2.54.78,2.66-1,2.87,1.73,2.63.57-5,2.19-3.8,3,.34,1,3.35,4.82,4.08-1.72-3.85.81-2.34-1.47-3.7-1.76-6-1.74-3.58.29-1.34h2.16l3.64,2.45-1.37,1.32,1.05,1.48,2.25-1.91,3.86,1.79.28-1.31-1.46-1.4-.16-1.51-1.36-.55-2.72-2.21.46-1.7-3.17-3.08,3.51-1.08,3.06.49,2-1.38,4.41,3.88.38,1.53,3.29.79,1.17-1.89-2.44-4.63,1.26-3.91-1-2.41-7.56-6-2.46-.94-1-2.15-2.29-.12-1.26-2-3.42-.81-3.12-3.47,3.8-.1,2.42-2.29.08-1.89L1130,751l2.15-2.18.09-2,2.58,1.32,2,2.05-1.09,1.83.07,1.89,2-.24,1.67-4-2-3.07-4.6-7.17-2.06-2-.26-2.47-3.74-3.94,1.68-1.7.13-7,2.69-3.34,4.38-.45.13,3.54-2-.23.19,1.91,5.19,3.17,0,4.33,3.15,3.21,3.88.31-2.59-2.19-1.16-2.85.81-2.34,3.47,1.62,2.35,4.2,2.3,1.21,1.61-2.12-2.45-2.3-2.3-1.22.37-2,6.52,1,2.11,2.68,1.22-1.08-3.35-3.9-3.82-1-2.76-4.1,2.12-1.93L1154,720l3-1.28,1.89-4.52,2.62-.65,3.54,3.39,2.91.6,3.59-3,.34-1.72,1.47.17,2.07,3.08,7.22.83,5.24,2,4-.51Zm8.92,114.72.2-1.72-1.15,1.48.44.83Zm-68.84-73.62-2.73,1.88,1.48.49,3.08.23,1.5,1.59.58,1.23,1.5.89,1.17,2.07,2.12.76,1.15,2.33,3,2.1,2.31.07.74,1.57,1.83,3.63,1.25,1.51-.54,1.88.75,1.89,2.42,2,1.56-.66,1.56,1.07,1.69-3.42-3.09-.67-1.11.64-2.1-2.57.62-2.57-.29-1.85.09-1.48-1.16-2.85-3.72-4.69-.45.53-2.27-.4-.31-.75-2.81-1.93-2.92-1.5-2.34-3.24Zm59.22-2.91-3.76.15-2,1-4.11.94-1.9,2.51,2.36,2.47,1.07.25,1.69-.19.63-2.06,1.06-2,2.57.22-.52,2.15-1.59,1-1.13,1.29,2.29,1.42,3.55.16.48-3.7-.29-2.61-.8-.22.93-1.9ZM1182.77,777l1.75,1.68,2.55-.88,1-2.79-.26-4.42-.74-.94-2.06-1.13-2.16.85-.13,1.14,2.08,2-.22,2.62-1.68.46Zm-36.08-21.55-.31-2.3-1.78-.85-1.11.19,2.49,4.1Zm27.09,48.06,1.66.26,1.82-1.86-.17-1.9-1.54-.51-2.75,1.9Zm-79-43.72,1.22-1.22-.15-3.05-1.24.08-1.9,2.66.06,1.21.89.45Zm46.9-8.41-1.43.79,1,1.68,1.08-1.62Zm-53,13.77-.43,3.71,1.41,1.83,1-.85.27-1.79.73,1-.23,2,2.39.59,2,1.4,1.28-1.61-.6-1-.24-1.72-1.36-1.76.62-1.43-.8-2.61L1092.9,761l-.54,4.27-1.5-.44Zm-8.22-33.55-3.19.8,0,1.82,1.77,1,.12,1,2.74,3.68,2.73,1.67.9-.54-.25-1.26-2.19-1.1-1.73-2.45.53-3.44Zm107,61.77.78-1.72-3.77.29-.74,1.85,1,1.6Zm-19.36,8.84,1.38,1.52,1.93-2.17-.56-1.88-1.72-.2Zm6.16-65.92-1.09-1.16-2.81-.26-1,1.24.52,2.77,1.43,1.53,1.45-.09,1.93,1.12.82-3.33,2.45-2.11-1.67-1.16Zm-11.82,23.62-1.28-1.77-1.27.3,1.46,3.15.85.35.74,2.1,1.2-.32,0-3Zm11.34,35.7,1.7-.76-1.48-.62Zm-4.6-5,1.28,1.83,1.87,1.12-.07-1.7-1.35-1.64Zm-7-7.85-1.07,1.43,1.45,1.52,3.33,4.13,1.45.24.3-1.91-2.7-3-1.15-2.33Zm-20.68,44.9-.47,2.5-1.36,2.11V835l2.42,1.43,6-.08,2.35.92,2.46-.55,3.39,1.41,3.56,2.68.2,2.34,4.41.32,3.9-1.88,4,.86,6.52.55,4.46.64,2.73-1.31,1.38-2.36-.3-2.49.18-1.53-1.13,1.29-.33,1.77-2.37,1.55L1182.1,839l-1.93.5-1.81-.47.58-1.62-.65-2.4-1.71-.13-4.72-1.2-3.56-2.09-5-.37-4.44,2.14-3.28.47-2.52-1.71-1.12-1.56-2.14.07,1.62-1.16-1-2.26-2.77-.12.37,1.4.86.36-1.12.77-2.64-.18-.33-2.68-.8-.36-.48,1.44.24,1.83-1.36.31Zm70.9-13.2-1.36,1.15,1.48.67,1.58-.26-.23-1.32Z" fill="#d71a35" stroke="#000" stroke-miterlimit="10" stroke-width="0.05"/>
		<path id="AUSTRALIA" class="aa2" d="M1591.49,740.19h0m-19.76-222.33.9-.39,1.52.19.3-.91-.42-.17-.48.12-.25-.28.92-.95-.14-.24-.94.31-.06-.92-.63.34-.16.53h-.9l.26.28-.19.25.44,1.27-.58.53Zm89.21,91.88.07-1.4-.9-2.14-.38-.68-.08-1.17.37-.53v-1.35l.93-1.77-.1-.52-.22-3.34.61-1.16-.5-.63-.35-1.16,0-2.26-.49-.15.56-1.28-1.14-.44-.61-1.11v-1.3l-1.35-1.08-.89-1.62-.4-1.59-.79-1.36-.74,0-.86.42-.81-.7-.23-1.47-.57-.24-.16-.82-1.44-1.16-.67-.59.27-.87-.83-1.36,1-1.44.19-1.74-.37-.81.12-1.14-.79-.4-.19.61.36.51-.41.63-2.65-2.25-.62-1.32-.46.27,0,.79-.26.87.67,1.76-1.32-1.47-.58.72,0-1.09-.51-.89-.34-3.21.34-.36,0-.78-1.11-.65.39-1-.85-.62.23-1-1.93-1.53-.57-1.12-.13-1.34,1.05.23,0-1.14-1-1.61-.46.28-1-.09-1.19-1.57h-.87l-1.08-.87-.58.68-.5-.64-1.27-.38-.76.76.61-1.07,1.12-.34.06-.83-.37-.63-1.3.18-1-.06-.33-.67-.57,0-2.43-1.26-1.13-2-.29-2.07-.75-1.33v-1.08l.56-.24.39-2.31-.76-3-.75-1.36.6-.33-.77-.66-.87,0-1.17-2.22-.15-2.82.42-.36,0-.61-.55-.63-.4-3.55.27-1-.35-1.13.38-.36.1-.83-2.07-1.83-1.24-.69.32-.54-1.35-1.25-1.14.83-.58-.37-.6,1.28-.95.08-1.24-1.73.09-1-.8-1.58.35-2.15-.35-2.55-.47.24-.48-1,.49-1-.92-1.14-.07-1-.63-.37v-1.43l.67-.73-.8-.4-1,.25-.76-.66.33-2.75-.37-.6-.41-1.59-1.22-.22,0-.73-1.33.57-.62.93.08,2-.54,1.76,0,.48-.22,1.18-.66-.06-.66,1.9-1,1.42.9.79,1.12.83-.68.51-.74-.11-.43,1.14-.57,1.16.88,1.31.16,1-.88-.32-.63.51-.42,2.83.6,1.9-.32,2.09.62,1.45-.06,1.7-1,1,0,1-1.09,2.26-.09,3.26-1,1.16.39,1.16-.58,1.81-1,1.08,0,2.18-1.73,1.41-3.59,1.57-1.52-1-1.52-.08-.78-1-1.48-1.07-.06-.7-.41-.5-.4-1.25-1.35-.16-1.15-.44-1.78-.06-1.69-1-.34-.95-1.32-1.55-1.53-.08-1.37-.81-.12-.74-.74-.06-.67-.49-1.26.09-1-.22.28-.5-1.47-1.11-.3-1.12-1.54-1.46-1-.1-1.31-1.43-.1-1.43,1-1.77.21-1.4,1.09-.83.29-1.61.44-1.06-1,.77-.88-1.52,1.14-.83-.26-1.21.61,0,.68-.33.32.42,1.05.18,1.41-.71.43-1.32-1-.79.75-.63.84.18.49-2,.72-.42.74-1.07,0-.57-1.19-.51-.7.89-.76-.28-.24-1.94-.94.47-1.28,1.65.7.28,0,.78-.93.51-.94-.52-.24-.69-.5-.63-.37.75-.77.25,0-.74.62-.72.24-.58-.81.38-.59.72-1.28.48-.15.49-.69.15-.37-.46-1.09-.05-.06-.52-.92-1.18-.48-.11-1.31.79-1-.36-.56.37-.46-.81-.53-.11-.69-1.19-1.28.66-1.4-.17-1.28-.51.05-.83-.9-1.05-.52.15.15.47-1.72.59-.47-1-1-.32-1.55-.81-.2.44-.8-.54-.93.78,1.16.83-.34.31,1.1.22.94-.46,1.7,1.32-.1.79.41,1.81L1549,505l-.39,1.32-.42-.77-.88-.23-.89.64-3.28.3-1.31-1-.15.49-1.29.53.18,1.08-1.1-.18.41,1.5-.41-.54-1.37-.39-.49.8.55.72-.07.49-1.45-.39-.71.77.59.59-.6.32-.93.58.11.71.9.86.26.63-1-.53-.8.72-1,0-.94,1.64-.84,1.86-.73.24-.29,1.54-.89.6.81.79,2,.28-.73.24-.4.84,2.37.69-.9.43-1.48-.12-.5-.68.06.7,1,.7V525l1,1.31-1.52-1.12-1-1.66-1.08-.09,0,.7-.41.8-.16-.91-2.49-1.46-1.77.4.59.63-.58.64-.63-.5h-.47l-.5.72.86,1-.19.67-.19-.48-.56.15,0,.57-1.1.69-1.64.37,1.28-.66.82-1.2-.15-1.78.87-1.16-.6-.72-.95-.1-1.77-2.93-.91-1.27-1.62-.32-1.12-.66-.67.46.58.54-.64.25-.74,1.2-.79-.1.24-.67-1,.35-.24.7-.84-1.62-.65-.14-.14,1,.84.46-1.1.86-.34,1.18.41.68-1.15.75-.55-.81-.65,0-.24-.6.79-1-.86.07-.4,1.24-1.2.34-.48.72-.16,1.26,1.77.43-1.42,1.3-1.15-.57-1.32,1,.29.81,1.62.16-.53.93-.77.21-1.18-1.31-.91,1.12-1.14.22.27.84.24.78.12.73.68-.27-.78,1.16.59.8-.94.51-.57.81,2,.27-1.24.7-.24.53-1.09-.22-.64-.8-.94-.57-.84.77-.42-.81-1.11-.66-.75.69,1.46.94-.51.28-.56,1.15,1.21,1,1.17-.09-.48,1v1l-.49-.42-.61,0,.26,1.21-.42,1.32-.13,1.44-2-3.84-1.3-2.34-.69-.88.25-1.4-.4.66-1.19,1-.24,1.53-.91.25-.1.66-1.14,0-.61.89-.92.86.27,1.47.11,3,.58.27,0,1-1,.61-.57,1.15-1.54.49.15.65-1.31.92.09,1.47-.71.72-1.68,2.54-3.35,2.18-3,.37-1.15.48-1.74.19-1.37.41-1.4-.3-1.76.76-.18,1-1.15.61h-3.74l-.93.6-.26,1-2.31,1-1.78.07-1-.35-.9.12-.38-.64-.94.52-.86,1.41-2.41.54-.19.53-.66,0-1.84,1.76-2.43,1.27-3.22,1.12-1.36,2.05,0,1.83-1.26,1.17-.93-.57.4-.67-.2-.9L1440,570l-.09-1-1.77,1.46-.37,1.71-1.2,2.52.93,1.7-.55,1.46.18,2.64-2.11,2.87-.72,3.81.68,1.93-.2,2.74,2.12,3.31.14,1.3.86.93-.67,1.72.49,1.5-1.2.52-.55-.89-.17-2-.69,1.11-.36-.38,0-1.82-1.27-2.47-.69,1.28.35,2.51,1.63,1.51,1.16,2.12-1.59.32-1.37-1.68-.38-2-.49.9-.64.37,1.07,1.87,2.09,2.4,1.3,3.21v5.82l.87,1.06.73,3.23,1.89,4.23-.54,1.54.41,6.41-.22.89.67,1.75,0,2,1.32,2.77.1,1.39-1.06.83.59.58-.33,1.54-.13,2.52-1,1,.34.72-.25,1.53-1,.77.27,1.47-1.81,1.51-.86-.71-1.34,2.23.22,3.55.8.66.87,0,2.53,2.37V660l.45.51,1.27.16.59.67,1.66.21.65-.16.36.46,1.27.13,1.46-.36.42.81.63-.55.36.25,1.64-.36,1.42-.19.15-.7.87-.21.9-1.47,1.7.16,0-1,1.06-.65.87,0,.9.88.87-1.29.48.19.55-.32.26-1.4,3.09-2.07,1.22.12.81.45,1-.73,3-.77.42.59,1.93-.5.58.36.91.06,1.16-.48.48,1.2.7,0,.89-.51.54.59.89-.64,2.26-.09-.1,1,.4.16,1.21-1.27,1.28.3,1.48-1.09.5-1.42.57-.19,1.16-1.26.62-2.07,1.35-1.13,1.63-.54.62.36,2.36-.91,3-2,1.8-1.8.85-.38h.83l1-.08,1.71.67,1.57,0,1.07-.43,2.31,0L1510,640l1.85-.51,1.36-1,.86,0,1.57-1.24,2.37-.26,6.28-.72,2.07.49h1.38l1.71-.67,1.4.12,1.8,1.58,1.43,2.25,1.06.32.71-.64.69-.29.54.54.64-.32,1.23.25,1.14,1.39,1.48.21.59-.41,2.59,1.68-.18,1.09.79,0,.9.87-.32.84-1,0-.19.79,1.08,2.18,1,0,1.22,1.22.45,1.58-.17,1.23,1.36,2.73-.39,1.28.55.67-.16,1.48-.45.89-.71-.41-.33.36,1,1.14.88.45.48,1.15.94-.38,1,.74v-1l-.6-.89.62-.72.52-1.15.91-.2.48-1,1-.47.26-1,1-1.38,2.39-1.31.23-.75.48,0,1.87-1,.42-1.63,1.43-2.4,1.63-.41.62-1-.48-1.2.21-1.39.75,1.58.1,1.47.06,1.43-.67.94-.23,2.92-2.33,1.65-.3,1.28-.66.93.14,1.31-1.32,2,.46.55-.9,2.81-2.74-.2-.51,1.54-.64,1.24v.44l1.68-.5,1.62-.8,2,.62,1.79-3.29.4-3,1.55-1.71.45.51.15,2.73.67,1.58-.51.2.27,2.72-1.17,2.4-2.14.95.38.77,1.38-.24h1.49l.62-.7,1-.27,1.17-1,1,.24.73-.14-.54,1-.53,1-1,0-.26.61,1.07,1.46.48,1.23.81,1.8.16,2.12-.11,2.66-1.38,1.57.29.73-.14,2,1,.84.93,1.48.33,1.86,2.14,2.65,1.58.34,1.12.74.57,1.36,1.17.05.25-.53.73-.29,1.48.42,1.28,1.43,1.3.08,1.49,1.29.22,1.17,1.14.34,1.22,1.35.87,0,.36-.8,2.18-1.13.64-1,1.39-.1,1.41-1.52,1.07.17.46-.58-.31-.57-1.27-.3.38-.78,2.2-1.58,1.93,1.26v1.25l-2.25,1.35.58,1.06.72.15.81-.93.91-.75,1.19.61-.07,1.11h-.69l-.89.93,1.59,1.73.37,1.94.56-.37.78,0,.14,1.17L1604,701l.78-1.46-.15-1.55-.88.72-.25-.64.67-.8,2.82,0,.37.54.37-.66,1.36-2,2.88-1.89,1.59-1.54-.87,0-.63.42.25-.35-1-.32,1.08-.13,1.48-.05,2.15-.73,4.39-1,3.58.56,1.45-.93,0-1,1,0,1-.78.92-2.07-.51-2.25-.1-1.21,1.88-2-.13-3.38.87-1.34.31-2.3,1.11-.57-.13-1.12,3.31-4.48,1-.21.52-2.37,1.32-1.88.78-2.47,1.34-1.45-.2-1.23,1-.56.83-2.25-.76-.67,1.74-.89,1.15-1.87.71-.76.8-1.9,1.67-.59,1-.56-1.73.07.41-.59,2-.2,1.78-1.37.33-1.36-.28-.69.21-1.18,1.82-1.51v-1.21l1.27-.57,1.19-2.17-.22-1.08.59-1.76-.5-.55.14-.92,1.46-3.79.32-2,1.94-3.81-.14-1.39,1-2.74,1.52-1.36.5-1.58-.5-1.67.92-1.21Zm-60.72,84.54-.4-.5-.59.27.73.63Zm10.11,17.3-.64.46.38.72,1.74,0,.88.31.15-.66-1.21-1ZM1572,499.63l.78.32.17-.87,1-.95-.47-.53-1.13,1.31Zm16.26,36.53.58-.35-.11-.62-.83.45ZM1571.48,501l-.11-.62-.55.31Zm3.63,26.31-.68-.83-.33.95.44.71Zm14.46,4.61-1.5-.3-1.38.86a4.76,4.76,0,0,0-.22.76l.52.5.67-.28.65-.89,1.26-.24Zm1.6,179.55-.28.9.79.43.34-.8-.08-1Zm-20.54-210.37-.68,0,.35.44Zm21.68,213.29.74.2.52-.57-.76-.68-.73.2Zm12.5-220.74.07,1.41.53-.33.57-.06-.44-.93Zm1.37,204-1,.11.62.39Zm-13.13,13.44-.57.29.07.84.65-.09Zm15.78,4.9-.61,1.07-.31-.2-.66,0-.76.63-.59.42-3.43-.09-.72.5.08,1.05-.9-.8-1.13.1-.72.58-1.1-.74-1.62-1.37-2-1,0-1.7-.46.59-.15.61-.9-.66-1.06-.49-1.16-.76-.35.56,0,1.32-.34.28,0,1.19.35,2.23-.23,1.47.23,2.52.34,2-.24,1.62.53.33.07.73,1.09,1-1.23-.05-1-1-.43,1.14.16,2,.81.62-.24.61.17,3.21.62.46-.24.49.32,1.47,1.1.34-.62.77,0,1.21.49.2,1-.26.81.75.87-1.24,0,1,.61,1,.91,0,1-1.68.09-1,.45-1.89.81.71.32-.62,1-.87.38-1.22.05,1.21.75.23.52-1,.95-.21.67.54-.11,1-1.19-.44.13,1.68,1-.54.47.13,1.23-1.91,0-.69-.93-.58.78-1.07-.08-1.3.91,0,.46-.49,0-2.48.72-.54.57-1.12.41,1.64.24.81.52-1.27-.08-1,.28-.53-.36-1.43.78-1.25v-2.13l1-1.24.41-3,.35-1-1.38-.91ZM1599,737.78l0,1-.77,1.33.75.41.33-1.67.5-.75-.29-.6Zm-9.32-30.11.71-1.24-.41-.79.19-1.68-.69-.53-.63.54-.74,1,.19,1-.73,1,.3.94-.1.83.82.36.9-.78Zm15.68,25.82.63-.37-.67-.58ZM1649.21,569l-.15-.63-.46.49Zm-80.65-67.22-.64.53.66,0Zm93.8,83.93-.29.91.35.78-.57,1.26-.95,1.2-.08,1-.16,1.16.6,1.68.67.18-.38-1.1.21-2.34,1.21-1.78.19-1.62-.26-1.31Zm-52.42,121.58.38.94-.4,1.06.42.68.38.77,2-1,0-1-1.94-1.8ZM1566.4,503.31l.13.68.58-.64,1-.15.33-.63-1,.08Zm-1.23,1.48,1-.45-.1-.35-1.37.49Zm-15.91-5.53.68,1.12,0-1.06.31-1.07-.87.2Zm112,108.82.63-.83-.32-1.28Zm-9.47-31-.55-.35-.24.3,1.09,1.39.6,1,.19-1-.44-.52.06-.73ZM1506,522l.11-.62-.48,0-.31.61Zm104.88,192.72.23-.93-.82.3Zm-5.36-224.1.33.73.45-.63ZM1627,545.07l.43-1.16-.21-1.88-.39.22-.92.29.88.92-.35.94Zm-57.11-29.44.31-.22.18.55.62-.75-.59-.76-.64.64ZM1430,596.35l.78,2.25.4-1.71-.69-1.88Zm16.69-32.64.59-.81.08-1.28-1,1.53Zm94.18-59.41,1.87-2.13.5.06.06-.6.52-.48-.47-.35-.36-.73h-.5l-.68.38-1.56.08-.61.83-.7-.32-.16-.37-.68-.07-.74-.73-.33,0,.2.36.2,1.37,1,1.06.85,1Zm21.42,165.85h-1l.37-.5-.7,0-.27-.55.15-.92-.88.33-1-.07-3,1-1.34.75,0,.67.84.55h1.33l.39-.09,1,.11.7-.29.46.57.56-.05.11-.35.6,0,.37-.56,2.08.22.7-.7-.8-.36Zm-131-76.91-.19-1.56-.36,2.49S1431.22,593.24,1431.22,593.24Zm69.87-66.55.43.56.93-.22-.85-1S1501,526.73,1501.09,526.69Zm.4,3.93-.15-1.22-.6-.83.15,1.68ZM1537.18,503l1.32.24-.16-.35-1-.3-.55-2-.79.42.15.19,0,.62.28.11v.31l-.57-.14-.37.07,0,.65,1.21.26Z" fill="#d71a35" stroke="#000" stroke-miterlimit="10" stroke-width="0.05"/>
		<polygon id="KUWAIT" class="aa2" points="1378.35 338.18 1374.7 336.96 1370.13 339.24 1368.07 344.43 1365.92 348.89 1367.32 348.86 1376.95 351.42 1377.69 355.22 1383.92 352.02 1382.78 350.7 1383.17 350.45 1383.56 350.44 1382.32 349.14 1382.19 347.42 1381.42 345.87 1380.97 346.84 1376.78 344.31 1382.72 342.91 1381.52 338.3 1381.76 337.73 1380.72 337.34 1378.35 338.18" fill="#da1a35" stroke="#000" stroke-miterlimit="10" stroke-width="0.05"/>
		<polygon id="USA" class="aa2" points="1376.95 351.42 1367.32 348.86 1365.92 348.89 1346.31 349.31 1296.4 317.38 1286.59 316.55 1282.99 320.58 1267.71 325.98 1279.91 338.29 1275.75 343.71 1275.57 346.72 1267.66 348.23 1260.43 355.86 1249.81 353.25 1246.59 353.52 1246.45 357.36 1246.77 361.76 1245.79 364.78 1246.06 365.88 1247.54 365.27 1248.04 366.04 1249.34 365.05 1251.75 366.29 1251.13 366.71 1255.89 371.65 1256.45 373.84 1257.48 374.26 1257.96 376.38 1260.32 378.34 1261.42 378.37 1264.61 383.38 1264.75 385.02 1265.6 386.8 1267.26 387.05 1267.83 389.63 1268.91 391.01 1271.3 391.94 1273.39 396.83 1274.92 397.8 1275.66 400.92 1275.09 402.27 1275.14 403.77 1277.4 405.26 1277.55 406.98 1279 407.8 1280.51 406.16 1282.78 407.89 1286.14 409.27 1288.84 411.84 1289.71 414.09 1290.5 414.22 1290.92 416.8 1291.97 417.63 1292.97 421.13 1295.09 422.86 1295.86 426.47 1296.53 427.59 1295.87 431.03 1295.13 431.77 1295.96 433.39 1297.13 437.12 1297.71 441.06 1299.65 442.63 1300.02 444.07 1305.53 449.52 1307.33 450.19 1309.43 450.29 1310.93 452.27 1311.95 452.24 1315.11 454.72 1315.25 456.28 1317.87 456.65 1317.61 458.17 1318.96 458.67 1321.75 467.54 1323.99 468.8 1324.26 471.47 1332.42 479.1 1333.6 479.06 1334.48 483.52 1337.82 484.34 1339.87 489.6 1341.72 489.7 1343.33 490.32 1344.38 488.18 1347.07 486.28 1345.07 482.82 1346.23 477.84 1348.96 476.53 1352.2 478.96 1358.73 478.94 1367.79 482.2 1377.24 486.34 1378.06 495.76 1395.97 469.5 1434.84 456.26 1464.06 446.31 1464.7 423.59 1461.98 415.27 1462.01 415.17 1458.65 418.56 1428.01 415.05 1425.45 407.04 1422.84 404.17 1422.77 400.58 1422.71 400.55 1422.16 400.8 1421.17 399.2 1421.21 398.16 1422.11 396.95 1420.38 397.17 1420.08 396.69 1418.36 396.76 1414.92 395.09 1414.45 394.12 1413.9 394.5 1412.07 392.13 1411.5 389.47 1405.98 383.07 1404.54 380.6 1405.73 380.87 1405.69 379.69 1403.62 374.73 1403.57 373.55 1402.16 371.56 1401.21 371.59 1397.65 366.84 1396.38 366.81 1394.83 365.21 1394.96 364.5 1395.58 364.32 1396.47 364.84 1395.56 363.61 1393.81 363.36 1390.24 362.63 1388.08 357.43 1386.88 354.96 1385.51 354.3 1385.45 352.57 1384.75 353 1383.92 352.02 1377.69 355.22 1376.95 351.42" fill="#da1a35" stroke="#000" stroke-miterlimit="10" stroke-width="0.05"/>
		<polygon class="aa2" points="505.01 495.92 504.95 495.55 502.89 496.69 500.58 496.71 498.69 497.27 497.16 496.9 495.06 497.78 493.45 498.01 492.62 499.05 492.83 499.7 493.76 499.75 493.15 500.31 494.21 499.98 494.69 499.5 496.31 499.42 497.8 498.97 500.21 498.92 501.32 498.28 503.42 498.36 503.95 497.88 504.57 498 506.55 497.38 507.34 496.63 506.12 497.06 505.35 496.71 503.92 497.33 504.45 496.55 505.01 495.92" fill="#da1a35" stroke="#000" stroke-miterlimit="10" stroke-width="0.05"/>
		<polygon class="aa2" points="187.99 563.96 187.72 564.54 212.72 575.97 233.73 576.61 233.88 573.92 245.76 574.29 247.14 575.14 248.31 576.82 248.95 577.59 249.08 578.25 249.85 578.28 250.51 579.26 250.27 579.98 251.42 580.4 252.53 581.33 252.45 582 252.08 582.56 252.98 582.82 253.99 583.48 254.65 584.55 254.81 586.17 255.31 586.77 255.74 586.86 255.98 587.42 256.82 588.21 256.88 589.33 256.45 589.65 255.6 589.86 255.6 590.39 256.88 591.9 257.88 593.1 258.21 594.14 258.16 594.54 258.61 594.52 259.22 595.13 259.68 595.11 260.39 595.39 260.65 595.92 260.74 596.38 261.23 596.89 262.07 596.9 263.57 597.66 263.77 598.16 265 598.56 266.49 599.32 266.92 599.82 267.55 599.93 268.24 599.65 268.38 599.19 269.43 598.35 270.16 598.16 270.32 597.54 270.17 597.15 270.81 596.34 271.87 594.36 272.64 593.6 273.49 593.29 274.04 593.42 274.18 593.65 274.76 593.54 275.18 592.65 276.5 592.67 277.76 592.85 279.15 592.75 279.71 593.02 280.03 593.45 280.97 593.27 281.94 593.77 282.58 594.86 284.01 596.05 285.15 597.81 285.71 599.35 286.11 599.98 286.29 601.1 286.4 602.83 287.19 603.22 287.57 604.23 288.52 606.91 289.13 607.31 289.45 608.25 290.59 608.85 290.94 610.29 291.63 611.51 292.85 612.79 292.71 614.09 292.57 615.45 292.57 615.83 292.69 616.28 294.17 620.57 294.09 622.49 294.71 623.23 294.89 623.42 295.75 623.75 296.68 623.61 297.62 624.13 298.81 625.31 301.22 626.13 302.6 626.82 303.93 627.14 304.38 628.04 305.03 628.36 305.78 626.18 306.25 624.59 305.88 623.59 306.04 620.41 305.4 619.3 306.25 617.5 306.89 615.38 307.89 613.95 307.42 611.15 308.48 610.67 309.96 609.5 309.11 608.55 310.44 606.91 311.17 607.39 312.5 606.75 312.39 604.9 313.19 605.54 314.73 604.95 313.93 604.21 315.3 603.42 315.83 603.79 316.52 603.42 317.63 604.21 316.36 605.33 317.37 605.22 318.75 604.05 319.7 604.11 322.82 602.57 325.15 600.45 326.11 600.45 327.06 599.66 326.74 598.17 326.8 596.69 325.95 594.52 326.74 595.58 327.48 595.58 328.91 594.37 329.02 593.47 329.55 595 328.7 596.16 329.07 597.28 328.81 598.6 330.45 598.39 331.66 596.64 332.72 596.53 333.73 595.85 336.22 595.32 338.13 595.32 341.56 596.16 342.15 596.85 346.38 597.28 347.69 597.1 347.45 596.19 347.56 595.45 349.05 594.89 349.84 595.24 349.28 596.09 350.08 596.36 351.09 595.98 351.56 596.52 351.56 597.6 352.01 598.16 353.5 598 354 598.8 353.02 599.57 352.44 600.31 353.21 600.66 354.43 600.45 355.44 601.06 357.27 601.61 358.01 600.76 359.1 599.97 360.32 600.84 360.89 601.78 362 601.14 362.06 599.34 361.42 598.12 362.74 598.01 363.8 599.6 364.86 600.03 365.6 601.04 366.45 600.93 367.19 601.4 367.24 602.84 367.72 601.94 368.83 601.62 368.94 601.14 367.19 599.82 364.86 599.02 364.44 597.96 364.38 596.69 366.71 595.8 367.19 595.26 365.92 594.73 365.39 594.05 364.91 593.94 364.07 594.79 363.11 595.16 363.11 594.15 364.44 592.78 366.87 591.77 368.09 590.71 372.43 589.92 374.07 590.18 374.97 589.86 376.03 590.08 376.72 588.91 377.35 587.65 378.25 587.8 378.04 588.75 378.1 589.6 379.52 590.82 380.69 590.34 382.75 590.45 383.81 590 384.67 590.61 386.87 590.32 387.53 590.67 389.15 589.52 390.74 589.63 391.08 590.09 390.21 590.35 388.48 590.25 388.22 590.61 390.13 590.88 392.01 590.88 393.15 591.89 394.27 592.53 393.55 591.54 393.73 590.88 394.37 590.96 394.64 591.73 396.01 592.71 395.78 593.19 394.82 592.74 394.58 592.82 396.39 594.07 397.1 595.11 397.47 595.8 397.13 595.92 396.92 595.45 396.73 596.01 397.08 596.54 399.2 596.22 400.55 596.06 402.43 594.17 403.04 594.44 403.28 594.2 403.28 593.86 404.26 593.09 405.73 592.85 406.68 593.38 408.35 593.96 409.09 596.52 409.86 597.28 410.37 597.44 410.55 598.96 411.61 599.73 412.25 599.73 412.2 600.25 412.86 601.32 413.94 601.51 414.9 603.34 414.77 605.04 413.79 608.47 412.36 611.15 412.3 612.24 413.18 613.73 413.57 613.36 414.42 612.16 414.16 611.55 414.71 611.09 415.77 611.55 415.83 612.9 414.02 615.48 414.45 616.38 414.56 617.79 415.46 618.85 415.75 619.57 416.33 619.41 416.7 620.77 417.18 620.11 417.18 619.49 417.76 619.92 419.14 619.54 418.06 620.61 417.79 621.83 417.21 622.52 417.34 623.39 419.14 624.78 419.36 626.26 419.28 628.2 419.83 628.71 421.08 628.76 421.61 629.74 421.42 630.99 423.2 632.43 422.36 632.8 423.89 633.23 424.58 634.12 425.95 634.49 427.33 634.02 428.55 633.6 428.76 631.75 429.66 630.42 430.35 628.67 431.62 626.08 431.46 624.81 431.83 624.12 432.1 621.53 431.72 620.99 432.57 620.14 432.1 617.98 430.61 617.03 429.82 612.31 429.29 611.57 429.5 609.35 430.14 607.65 429.61 606.33 428.65 605.06 427.91 601.51 427.28 600.19 426.96 597.01 426.17 595 426.59 591.83 426.38 589.76 426.75 585.2 426.75 582.72 427.81 580.6 429.08 578.53 430.3 578.22 430.93 577.32 431.57 577.21 432.57 575.78 432.73 574.57 432.2 574.19 432.62 573.82 434.37 573.82 434.64 572.92 436.06 573.03 436.44 572.24 438.66 571.97 439.45 570.91 440.99 571.07 441.36 570.38 442.15 570.17 443 570.54 444.27 569.11 444.38 568.16 445.12 568.21 446.28 567.2 446.28 566.36 449.04 562.7 450.47 561.43 452.58 561.17 453.32 561.65 453.96 561.54 455.18 559.26 458.88 556.25 462.32 554.18 464.12 554.02 464.6 553.65 465.5 553.55 465.66 554.02 466.93 553.97 468.31 552.38 467.78 552.17 467.46 551.64 466.14 552.86 464.29 552.7 463.17 551.64 464.5 552.17 466.45 551.32 466.14 550.79 466.88 550.16 466.4 549.42 464.65 549.1 463.86 548.14 464.87 548.2 465.87 548.67 466.88 548.25 467.04 547.25 467.62 548.84 468.63 548.67 469.63 549.31 470.25 548.8 470.78 547.71 472.32 546.41 472.8 546.38 473.14 544.82 472.59 543.57 472.22 543.68 471.45 545.14 471.37 546.06 470.65 545.75 470.44 543.57 469.86 543.3 466.89 543.75 465.43 544.21 465.69 543.36 465.75 541.15 466.25 540.83 466.96 542.37 467.89 542.69 468.64 542 470.6 541.47 470.94 541.07 471.9 541.07 472.35 540.3 472.08 538.71 471.48 538.09 471.53 537.38 472.29 537.75 472.86 536.34 472.49 534.98 471.8 534.38 470.79 534.65 469.52 534.33 468.94 532.53 468.06 532.51 466.88 532.11 465.87 530.89 467.09 531.47 468.89 531.52 469.63 532.84 470.53 533.27 471.11 532.26 469.26 530.68 470.79 530.99 470.9 530.3 471.38 529.88 470.95 528.87 469.37 527.87 468.73 526.07 469.42 526.39 469.89 527.66 470.95 527.76 471.38 526.23 471.17 524.96 470.11 524.32 468.46 522.31 466.83 521.67 465.98 520.3 464.92 519.82 464.92 518.55 465.98 517.12 465.34 518.66 465.61 519.4 466.3 519.45 467.19 521.09 468.63 521.31 470.37 523.37 470.79 523.27 470.95 520.4 470.85 518.97 471.06 517.97 470.75 517.12 470.97 514.99 471.24 514.13 470.54 513.1 471.15 513.18 472.11 512.49 473.57 511.32 473.97 509.94 473.91 509.51 474.31 510.07 473.97 511.45 474.34 511.93 473.12 512.67 472.29 514.24 473.46 516.18 473.12 518.28 472.08 519.79 472.11 521.17 473.3 522.69 473.78 522.1 473.97 522.72 474.63 522.66 474.68 522.98 474.23 523.67 474.74 524.71 476.49 524.68 475.21 525.37 475.45 525.72 474.55 526.88 474.76 527.82 473.93 529.23 473.55 530.84 473.7 532.26 474.08 531.68 474.23 530.99 475.72 528.34 475.88 528.87 475.98 529.46 476.41 528.87 476.41 527.98 477.25 526.54 478.42 523.58 480.06 522.63 481.28 519.87 481.33 518.02 480.39 515.57 479.67 514.8 479.48 512.81 478.82 512.1 478.63 510.61 479.33 509.22 480.64 508.01 482.24 507.2 479.85 509.78 479.44 510.86 480.04 511.93 481.74 513.63 482.8 513.36 483.41 514.03 482.61 515.99 483.7 515.2 483.83 515.6 485 514.13 485.16 513.2 485.77 513.23 486.32 512.38 487.36 512.06 488 509.86 488.71 509.03 489.35 509.03 489.93 507.49 490.49 506.57 490.28 505.9 490.92 504.52 490.86 503.99 491.68 502.96 491.47 502.06 490.54 501.29 489.96 500.31 491.92 499.2 491.97 498.22 493.16 497.22 494.46 496.79 496.74 495.58 498.33 495.52 500.65 493.88 501.5 493.83 502.08 494.31 505 494.09 506.37 494.46 508.23 494.04 511.24 493.83 512.09 493.51 511.5 492.82 511.72 490.86 511.72 489.17 513.2 490.76 513.2 492.19 513.04 493.19 513.99 493.35 515.32 491.98 516.69 489.44 517.38 490.81 517.33 491.81 518.23 492.13 521.67 490.44 522.57 488.91 521.88 486.42 521.2 486.63 521.35 487.9 520.77 489.54 518.65 489.59 518.44 488.38 517.65 485.99 515.79 484.93 515.79 484.25 518.39 481.92 518.28 480.81 517.33 480.81 517.49 479.9 518.23 479.32 518.55 478.26 519.45 477.15 520.4 474.56 523.1 472.44 524 470.48 524.8 470.48 525.64 469.16 525.75 470.11 526.75 470.43 527.44 469.53 528.24 468.05 528.45 469.58 529.29 469.58 530.14 467.94 530.57 468.63 531.42 468.05 532.79 465.77 534.7 463.39 534.27 464.81 534.64 465.98 536.02 465.77 537.29 464.39 538.93 464.39 539.35 466.03 540.36 466.03 541.58 464.39 542.69 464.87 543.48 464.44 544.81 463.54 545.92 463.65 547.7 462.62 548.2 463.5 549.5 463.31 550.48 462.09 549.08 461.27 548.47 462.28 547.44 461.17 547.93 459.52 545.18 457.94 545.21 457.94 545.13 457.91 544.79 457.43 545.16 456.8 545 456.11 545.16 455.37 545.21 454.15 544.58 453.35 544.1 452.51 543.47 452.35 543.83 451.29 545.42 442.02 545.32 439.64 542.46 436.89 541.82 437.47 539.81 436.94 538.28 437.36 537.24 436.38 536.37 435.77 535.92 435.91 534.67 437.13 534.11 438.3 531.49 441.22 530.22 442.87 530.29 444.12 528.44 445.1 528.2 446.75 527.56 448.39 525.68 450.71 524.75 451.03 522.39 453.57 521.99 454.67 521.14 455.25 519.82 454.93 518.89 454.98 518.23 455.49 517.61 455.62 515.97 457.19 494.52 456.81 491.95 457.2 490.71 458.44 488.89 459.2 487.45 460.39 484.17 463.47 482.15 463.84 480.78 464.85 474.64 469.45 460.8 473.47 460.19 477.08 456.99 478.13 431.75 484.91 430.5 482.7 431.94 480.91 434.75 479.56 435.89 478 436.7 476.39 437.43 474.61 438.05 464.79 433.27 442.26 428.78 438.67 426.88 436.34 397.54 422.57 396.4 421.78 394.65 421.38 393.88 420.66 390.4 420.45 389.82 419.25 389.05 418.56 387.88 419.3 385.5 419.36 384.38 418.85 383.37 417.74 381.91 417.34 379.39 416.54 378.65 414.89 377.72 414.89 376 413.54 374.62 413.67 373.48 413.3 372.1 413.67 371.52 413.83 370.8 412.87 369.26 412.48 369.02 412.11 367.55 411.6 367.26 411.36 366.29 410.32 366.15 409.78 364.51 408.4 362.82 408.46 361.42 408.29 170.57 389.25 171.15 391.86 172.73 393.03 172.58 394.03 171.31 394.99 171.51 396.21 172.58 396.94 172.1 397.53 171.25 398.69 171.73 399.11 171.83 400.12 172.52 400.97 171.31 402.45 170.09 403.24 169.66 405.1 168.82 405.84 168.76 407.48 167.97 408.38 167.49 409.65 165.9 410.71 164.69 410.08 164.26 409.33 165.32 408.01 165.64 408.59 166.59 407.8 166.8 408.91 167.28 408.38 167.33 406.58 168.18 404.83 169.29 403.88 169.13 402.71 168.39 402.88 166.86 404.14 166.33 405.05 165.16 405.05 165.22 404.3 166.59 402.93 168.13 402.35 168.55 401.5 168.07 400.6 167.39 400.54 166.7 400.86 166.01 399.54 164.84 398.95 161.56 398.75 159.76 397.58 156.38 394.62 155.85 394.77 155.63 396.26 154.47 398.95 154.52 400.28 155.31 402.98 154.57 406.74 154.95 408.64 154.63 410.5 154.73 411.45 155.68 411.72 155.79 412.25 155.21 413.09 154.47 413.09 154.1 414.26 154.63 414.89 155.79 415.37 155.37 416.48 155.31 417.91 154.47 418.91 153.99 418.71 153.46 419.29 153.62 420.08 155.63 420.61 157.64 420.77 158.86 421.78 160.4 422.04 161.14 422.99 161.41 424.79 160.72 423.15 159.39 422.36 158.49 422.52 157.44 421.78 154.95 421.67 154.1 421.03 153.62 421.4 153.68 422.57 152.19 424.48 152.19 425.59 152.35 426.64 151.2 428.66 150.45 430.25 148.44 434.7 148.12 437.99 146.32 441.49 145.79 445.42 144.83 447.32 143.45 448.91 142.61 451.35 141.87 452.09 141.44 453.57 139.53 456.01 139.01 457.3 139.22 460.11 138.48 462.91 138.38 464.81 139.38 466.4 138.75 467.25 138.69 468.42 139.22 470.21 138.9 473.23 138.11 474.87 137.31 475.67 137.53 476.62 138 476.94 137.26 478.9 135.09 480.38 134.3 482.07 134.3 483.72 135.57 485.46 136.73 488.16 136.84 491.13 136.57 492.77 135.73 494.09 135.73 494.78 136.36 496.05 136.52 497.53 135.89 498.65 135.62 499.6 135.94 500.44 139.01 505.15 139.22 506.59 138.8 507.49 139.17 508.55 140.86 510.13 141.13 510.87 141.71 510.82 142.08 511.04 142.08 509.45 142.13 507.81 143.09 508.39 143.45 508.07 143.61 508.65 144.78 508.7 145.15 509.23 147 509.45 145.68 509.76 144.41 510.13 143.88 509.66 143.24 509.66 143.14 510.66 143.72 511.09 143.93 513 144.41 514.11 144.89 514.74 143.67 514.11 143.03 512.78 142.4 512.36 141.87 513.1 142.03 514 141.34 514.69 141.5 515.37 141.13 516.7 141.29 517.86 141.98 518.24 142.29 519.66 143.4 520.35 144.2 521.15 144.25 522.31 143.3 523.37 142.66 523.27 142.61 523.9 142.98 525.43 142.88 526.81 143.09 527.71 144.25 528.56 144.57 531.1 146.1 534.38 147.22 535.91 147.84 536.4 147.55 536.9 147.65 537.3 148.85 538.65 149.3 540.17 148.77 542.4 148.4 543.6 148.08 543.81 148.48 545.03 149.22 545.56 151.74 545.54 153.22 545.96 154.39 546.68 155.47 546.88 157.44 546.88 158.33 547.88 158.33 549.15 160.29 550.21 161.51 550.26 163.31 550.79 163.63 551.59 163.58 552.86 164.05 553.12 164.79 553.07 165.75 552.86 167.39 554.55 169.93 558.41 170.25 560.64 169.88 562.44 170.02 563.63 187.62 563.32 187.99 563.96" fill="#da1a35" stroke="#000" stroke-miterlimit="10" stroke-width="0.05"/>
		<polygon  class="aa2" points="516.92 492.91 516.63 493.3 516.05 493.72 516.34 494.28 517.15 494.21 517.78 493.59 518.81 493.6 518.14 492.9 516.92 492.91" fill="#da1a35" stroke="#000" stroke-miterlimit="10" stroke-width="0.05"/>
		<g id="NEW_ZEALAND" class="aa2">
			<polygon points="1744.42 657.71 1744.87 657.79 1744.9 657.28 1744.2 657.34 1744.42 657.71" fill="#da1a35" stroke="#000" stroke-miterlimit="10" stroke-width="0.1"/>
			<polygon points="1680.2 725.49 1680.57 725.39 1680.57 724.8 1679.74 724.76 1679.56 725.11 1679.71 725.22 1680.2 725.49" fill="#da1a35" stroke="#000" stroke-miterlimit="10" stroke-width="0.1"/>
			<polygon points="1729.73 690.16 1729.46 690.16 1729.42 689.58 1728.7 689.41 1728.08 690.58 1728.32 690.83 1728.74 690.96 1727.83 691.59 1727.34 691.08 1727.45 690.5 1727.02 690.52 1726.4 690.34 1725.77 690.75 1725.1 691.68 1724.45 691.36 1723.98 689.92 1724.39 689.61 1724.88 689.04 1725.05 688.55 1724.77 688.43 1724.83 688.02 1724.52 687.71 1724.01 688.11 1723.65 687.91 1723.24 687.4 1723.34 686.76 1723.94 685.92 1723.13 685.82 1721.79 686.7 1721.12 686.97 1720.24 687.69 1720.07 688.95 1719.17 691.21 1718.26 692.42 1717.83 692.59 1716.69 693.98 1716.35 694.73 1715.5 695.07 1714.48 694.98 1713.67 695.58 1713.39 696.48 1713.34 697.48 1712.8 697.75 1711.99 698.64 1711.96 699.72 1711.49 700.34 1711.38 701.13 1709.58 703.26 1707.56 704.71 1706.5 704.85 1705.25 705.5 1705.1 706.22 1704.3 706.18 1702.43 707.13 1700.81 708.65 1699.83 708.87 1698.08 709.96 1697.92 710.52 1698.26 711.32 1698.38 712.34 1697.53 711.54 1697.16 711.37 1696.32 711.63 1695.44 711.84 1695 711.48 1694.24 711.54 1692.67 712.89 1692.09 713.63 1690.88 714.62 1690.1 714.85 1689.23 715.95 1689.02 717.13 1688.87 716.52 1688.44 716.16 1687.81 716.73 1687.21 717.13 1687.23 718.33 1686.79 718.82 1686.34 718.49 1684.88 720.12 1684.46 720.12 1684.01 720.74 1683.92 722.46 1683.54 722.95 1683.16 722.08 1682.76 721.88 1682.4 722.5 1682.06 722.73 1681.19 724.18 1681.26 724.8 1682.02 725.52 1682.38 725.99 1682.02 726.3 1681.19 726.28 1680.15 726.42 1678.98 727.75 1679.57 727.84 1680.05 727.96 1679.5 728.28 1679.36 729.22 1680.05 729.94 1680.49 730.17 1681.76 730.28 1681.88 730.56 1682.27 730.61 1682.39 730.03 1682.9 729.96 1683.66 730.32 1683.97 731.12 1683.7 731.46 1684.23 731.93 1685.04 731.91 1685.4 732.33 1685.53 733.25 1686.49 734.09 1687.15 734.58 1686.18 735.15 1686.66 735.26 1687.99 734.63 1687.99 735.15 1688.8 735.37 1690.03 735.21 1691.77 734.5 1693.19 733.25 1694.14 732.86 1694.23 732.35 1693.99 731.54 1694.61 732.04 1694.42 732.71 1695.6 732.22 1695.94 731.12 1696.58 730.17 1698.05 729.55 1699.35 729.57 1699.79 729.25 1699.68 728.97 1698.84 729.12 1699.35 728.81 1699.52 728.48 1699.31 728.33 1700.38 727.08 1701.17 725.65 1701.53 724.16 1702.25 723.34 1704.41 721.78 1704.92 720.91 1705.1 719.87 1706.07 718.24 1706.62 717.45 1706.65 716.58 1707.52 715.57 1708.28 715.21 1708.49 714.31 1709.18 714.85 1709.76 714.85 1710.05 714.1 1710.88 714.06 1711.41 713.91 1712.03 713.08 1711.96 712.32 1711.31 711.64 1712.14 712 1712.5 713.01 1712.86 713.12 1713.47 712.9 1713.51 712.47 1714.16 712 1714.85 712.25 1714.85 712.65 1713.94 713.01 1714.99 713.04 1715.75 713.33 1716.04 712.87 1716 712.14 1716.26 711.82 1716.54 712.07 1716.44 713.08 1716.76 713.33 1717.23 712.97 1717.37 711.64 1716.94 710.95 1716.26 710.81 1716.54 710.38 1716.44 709.22 1716.8 707.63 1717.52 707.34 1718.89 706.91 1720.37 705.97 1720.59 705.39 1721.71 704.06 1721.85 703.12 1722.9 702.04 1723.69 702.11 1723.58 701.71 1725.36 699.9 1725.5 699.33 1728.1 697.08 1729.01 696.54 1728.5 696.37 1728.39 695.4 1727.97 694.42 1728.05 693.54 1728.3 692.71 1728.63 692.8 1729.57 691.51 1728.8 691.73 1728.1 691.84 1729.15 691.21 1729.73 690.16" fill="#da1a35" stroke="#000" stroke-miterlimit="10" stroke-width="0.1"/>
			<polygon points="1758.27 664.87 1757.84 664.29 1758.21 664.16 1758.29 663.88 1757.15 663.66 1756.1 664.35 1754.27 666.25 1753.08 666.36 1752.43 666.69 1751.53 666.29 1749.51 664.2 1748.89 664.31 1748.13 663.23 1747.84 662.54 1748.35 662 1748.53 660.88 1747.77 659.32 1747.77 658.53 1747.45 657.99 1747.55 657.01 1747.81 656.33 1747.3 656.22 1747.16 655.11 1746.9 654.49 1746.54 654.74 1745.75 654.27 1745.5 654.67 1746.22 655.39 1746.18 656.37 1746.33 656.73 1745.57 657.45 1745.6 658.13 1746.26 658.96 1746.26 659.54 1745.46 659.8 1744.88 659.15 1744.78 658.32 1743.77 658.17 1743.77 657.7 1742.97 657.35 1742.36 657.45 1742.28 656.95 1743.04 656.51 1743.33 655.83 1742.54 655.18 1743.12 654.06 1743.87 653.88 1744.09 652.86 1743.77 652.11 1743.98 651.57 1743.66 650.73 1743.73 649.61 1742.68 648.86 1742.79 648.35 1743.4 648.71 1744.23 648.53 1744.41 647.45 1744.78 647.09 1744.78 645.68 1744.41 644.38 1744.56 643.55 1744.12 643.73 1742.93 644.24 1742.03 643.33 1742.57 642.87 1742.03 642.36 1741.63 642.29 1742 641.71 1742.79 641.35 1742.64 640.81 1741.71 640.59 1741.09 640.01 1740.48 640.26 1740.34 639.4 1740.73 639.4 1741.06 638.82 1740.55 638.75 1740.05 639.11 1740.06 639.62 1739.64 640.35 1738.99 640.05 1739.26 639.26 1738.86 638.59 1738.61 637.3 1738.66 636.43 1738.66 636.12 1738.94 636.01 1738.48 635.5 1737.98 635.85 1736.64 635.76 1736.6 636.07 1737.23 636.77 1738.3 639.37 1738.46 640.29 1738.3 641.96 1737.91 642.37 1737.52 642.37 1737.34 642.65 1737.92 644.73 1738.21 645.02 1738.97 644.47 1740 644.47 1739.3 644.7 1738.59 645.54 1738.85 646.76 1739.44 648.13 1739.68 650.67 1739.66 652.19 1739.69 653.24 1740.22 652.99 1740.43 652.1 1740.18 651.49 1740.49 651.21 1740.85 651.77 1740.85 652.62 1741.4 652.55 1741.49 652.14 1741.36 651.83 1741.65 651.76 1741.74 652.46 1741.2 653.42 1740.94 654.22 1740.89 654.71 1740.53 654.81 1740.15 654.24 1739.73 654.24 1739.95 655.74 1740.64 657.68 1741.05 657.82 1741.4 657.64 1741.76 658.3 1741.85 658.77 1742.3 659.11 1741.31 659.78 1741.29 660.14 1741.63 660.49 1741.32 661.18 1740.74 662.9 1740.76 663.77 1740.49 664.08 1741 664.6 1740.8 664.97 1740.11 665.02 1739.68 665.8 1739.66 666.28 1740.22 666.85 1739.64 667.16 1739.03 667.21 1738.59 668.29 1737.92 671.85 1737.81 672.7 1737.11 673.22 1736.39 673.28 1735.54 672.95 1734.6 673.08 1732.69 673.98 1731.83 674.94 1731.56 676.09 1731.78 677.64 1732.62 678.38 1734.05 679.25 1734.74 680.55 1736.07 680.99 1736.62 681.53 1736.83 683.69 1736.94 683.91 1736.69 684.16 1736.69 685.32 1736.26 686.26 1734.29 688.76 1732.88 690.24 1731.39 691.57 1730.87 692.21 1731.01 692.71 1732.03 692.95 1732.24 692.39 1732.68 692.41 1732.71 693.11 1732.62 693.62 1732.9 693.74 1733.29 693.62 1733.58 693.98 1733.53 694.78 1733.75 695.07 1734.51 694.98 1736.33 693.64 1737.94 692.34 1739.42 690.79 1740.81 689.2 1742.52 687.08 1743.44 686.48 1744.05 686.43 1744.47 685.91 1744.54 685.11 1744.92 684.6 1745.9 684.2 1746.54 682.25 1747.55 680.73 1747.55 680.3 1748.06 679.83 1747.3 679.11 1746.47 678.96 1745.82 679.07 1746.51 678.49 1747.12 678.32 1749.36 675.93 1750.34 675.57 1751.96 675.82 1752.79 675.9 1752.63 676.54 1752.73 677.23 1753.57 676.41 1754.16 676.09 1752.99 675.6 1753.12 674.62 1753.75 673.06 1754.31 672.43 1755.14 672.46 1755.37 672.8 1755.81 672.37 1756.33 671.59 1757.64 669.51 1757.62 668.82 1757.58 668.13 1757.96 666.96 1758.74 666.05 1759.61 665.51 1759.46 665.27 1758.27 664.87" fill="#da1a35" stroke="#000" stroke-miterlimit="10" stroke-width="0.1"/>
			<polygon points="1686.01 736.55 1686.12 736.1 1685.56 736.44 1686.01 736.55" fill="#da1a35" stroke="#000" stroke-miterlimit="10" stroke-width="0.1"/>
			<polygon points="1683.63 736.55 1684.19 736.44 1684.24 736.23 1684.08 735.9 1683.65 734.85 1682.78 733.96 1681.91 734.21 1681.76 734.9 1681.84 735.87 1681.57 736.77 1680.82 736.92 1680.82 737.55 1680.43 737.8 1679.45 738.8 1679.59 739.23 1680.07 739.27 1680.81 738.4 1681.13 738.32 1681.42 738.52 1681.95 738.56 1682.47 738.18 1683.54 737.82 1683.9 737.96 1684.21 737.57 1684.13 737.17 1683.68 736.95 1683.28 736.57 1682.96 736.5 1683.41 736.31 1683.63 736.55" fill="#da1a35" stroke="#000" stroke-miterlimit="10" stroke-width="0.1"/>
			<polygon points="1728.96 688.04 1729.15 687.57 1728.36 687.36 1727.79 688.13 1727.75 688.86 1727.63 689.12 1727.87 689.08 1728.32 688.41 1728.96 688.04" fill="#da1a35" stroke="#000" stroke-miterlimit="10" stroke-width="0.1"/>
			<polygon points="1728.29 689.58 1727.84 689.71 1727.42 690.18 1727.88 690.16 1728.29 689.58" fill="#da1a35" stroke="#000" stroke-miterlimit="10" stroke-width="0.1"/>
			<polygon points="1727.61 689.71 1727.65 689.44 1726.64 689.96 1727.16 689.92 1727.61 689.71" fill="#da1a35" stroke="#000" stroke-miterlimit="10" stroke-width="0.1"/>
			<polygon points="1747.45 653.32 1747.33 652.84 1747.63 652.62 1747.33 652.17 1747.26 651.39 1746.67 652.73 1747.26 653.46 1747.45 653.32" fill="#da1a35" stroke="#000" stroke-miterlimit="10" stroke-width="0.1"/>
			<polygon points="1745.78 652.57 1745.39 652.75 1745.61 653.06 1745.78 652.57" fill="#da1a35" stroke="#000" stroke-miterlimit="10" stroke-width="0.1"/>
		</g>
	</g>
	<g id="COUNTIES">
		<g id="ITALY-2" data-name="ITALY">
			<rect x="967.34" y="701.18" width="72.84" height="20.03" transform="translate(-53.36 82.04) rotate(-4.56)"/>
			<text transform="matrix(1, -0.08, 0.08, 1, 985.18, 717.62)" font-size="15.13" fill="#fff" font-family="Raleway">I
				<tspan x="3.77" y="0" letter-spacing="-0.07em">T</tspan>
				<tspan x="11.98" y="0">A</tspan>
				<tspan x="22.25" y="0" letter-spacing="-0.12em">L</tspan>
				<tspan x="29.41" y="0" letter-spacing="-0.04em">Y</tspan>
			</text>
		</g>
		<g id="GREECE-2" data-name="GREECE">
			<rect x="1173.06" y="746.84" width="99.12" height="20.03" transform="translate(-56.29 99.58) rotate(-4.56)"/>
			<text transform="matrix(1, -0.08, 0.08, 1, 1193.59, 764.43)" font-size="15.13" fill="#fff" font-family="Raleway">GREECE</text>
		</g>
		<g id="KUWAIT-2" data-name="KUWAIT">
			<rect x="1352.15" y="346.27" width="82.67" height="16.71" transform="translate(-23.78 111.89) rotate(-4.56)"/>
			<text transform="matrix(1, -0.08, 0.08, 1, 1370.31, 361.02)" font-size="12.62" fill="#fff" font-family="Raleway">KU
				<tspan x="17.61" y="0" letter-spacing="-0.06em">W</tspan>
				<tspan x="30.11" y="0">AI</tspan>
				<tspan x="41.82" y="0" letter-spacing="-0.03em">T</tspan>
			</text>
		</g>
		<g id="SAUDI_ARABIA">
			<rect x="1265.14" y="450.84" width="110.15" height="16.71" transform="translate(-32.32 106.4) rotate(-4.56)"/>
			<text transform="matrix(1, -0.08, 0.08, 1, 1278.31, 467.03)" font-size="12.62" fill="#fff" font-family="Raleway">
				<tspan letter-spacing="-0.01em">S</tspan>
				<tspan x="7.55" y="0" letter-spacing="-0.03em">A</tspan>
				<tspan x="15.75" y="0">UDI</tspan>
				<tspan x="37.47" y="0" letter-spacing="-0.03em"></tspan>
				<tspan x="40.31" y="0">A</tspan>
				<tspan x="48.88" y="0" letter-spacing="-0.01em">R</tspan>
				<tspan x="57.11" y="0">ABI</tspan>
				<tspan x="77.25" y="0" letter-spacing="-0.03em">A</tspan>
			</text>
		</g>
		<g id="FRANCE-2" data-name="FRANCE">
			<rect x="687.97" y="560.35" width="99.12" height="20.03" transform="translate(-43 60.43) rotate(-4.56)"/>
			<text transform="matrix(1, -0.08, 0.08, 1, 707.14, 577.75)" font-size="15.13" fill="#fff" font-family="Raleway">F
				<tspan x="8.85" y="0" letter-spacing="-0.01em">R</tspan>
				<tspan x="18.71" y="0">ANCE</tspan>
			</text>
		</g>
		<g id="PORTUGAL-2" data-name="PORTUGAL">
			<rect x="617.7" y="682.64" width="121.06" height="20.03" transform="translate(-52.91 56.1) rotate(-4.56)"/>
			<text transform="matrix(1, -0.08, 0.08, 1, 637.17, 700.84)" font-size="15.13" fill="#fff" font-family="Raleway">PO
				<tspan x="20.83" y="0" letter-spacing="-0.02em">R</tspan>
				<tspan x="30.56" y="0" letter-spacing="0em">TUGA</tspan>
				<tspan x="72.47" y="0" letter-spacing="-0.03em">L</tspan>
			</text>
		</g>
		<g id="SWITZERLAND-2" data-name="SWITZERLAND">
			<rect x="899.08" y="544.17" width="153.87" height="20.03" transform="translate(-40.96 79.34) rotate(-4.56)"/>
			<text transform="matrix(1, -0.08, 0.08, 1, 922.07, 563.66)" font-size="15.13" fill="#fff" font-family="Raleway">
				<tspan letter-spacing="-0.01em">S</tspan>
				<tspan x="9.03" y="0">WITZERLAND</tspan>
			</text>
		</g>
		<g id="SWITZERLAND-3" data-name="SWITZERLAND">
			<rect x="990.65" y="599.82" width="101.17" height="20.03" transform="translate(-16.19 28.53) rotate(-1.56)"/>
			<text transform="translate(1005.61 615.93) rotate(-1.56)" font-size="15.13" fill="#fff" font-family="Raleway">S
				<tspan x="9.26" y="0" letter-spacing="-0.04em">L</tspan>
				<tspan x="17.5" y="0" letter-spacing="-0.03em">O</tspan>
				<tspan x="28.56" y="0">VENI</tspan>
				<tspan x="63.54" y="0" letter-spacing="-0.03em">A</tspan>
			</text>
		</g>
		<g id="GERMANY-2" data-name="GERMANY">
			<rect x="903.66" y="478.68" width="117.19" height="20.03" transform="translate(-35.8 78.04) rotate(-4.56)"/>
			<text transform="matrix(1, -0.08, 0.08, 1, 924.83, 497.21)" font-size="15.13" fill="#fff" font-family="Raleway">GERMAN
				<tspan x="65.43" y="0" letter-spacing="-0.04em">Y</tspan>
			</text>
		</g>
		<g id="UK-2" data-name="UK">
			<rect x="621.56" y="386.81" width="179.29" height="20.03" transform="translate(-29.29 57.79) rotate(-4.56)"/>
			<text transform="matrix(0.96, -0.08, 0.08, 1, 645.97, 407.94)" font-size="15.73" fill="#fff" font-family="Raleway">UNITED KINGDOM</text>
		</g>
		<g id="NEW_ZEALAND-2" data-name="NEW_ZEALAND">
			<rect x="1644.4" y="682.13" width="157.72" height="20.03" transform="translate(-49.84 140.07) rotate(-4.59)"/>
			<text transform="matrix(0.96, -0.08, 0.08, 1, 1668.78, 702.44)" font-size="15.73" fill="#fff" font-family="Raleway">NE
				<tspan x="21.8" y="0" letter-spacing="-0.04em">W</tspan>
				<tspan x="37.7" y="0" xml:space="preserve" letter-spacing="0em"> ZEALAND</tspan>
			</text>
		</g>
		<g id="NETHERLANDS">
			<rect x="826.92" y="384.02" width="153.87" height="20.03" transform="translate(-28.46 73.09) rotate(-4.56)"/>
			<text transform="matrix(1, -0.08, 0.08, 1, 847.64, 404.03)" font-size="15.13" fill="#fff" font-family="Raleway">NETHERLAN
				<tspan x="91.59" y="0" letter-spacing="0em">D</tspan>
				<tspan x="102.44" y="0">S</tspan>
			</text>
		</g>
		<g id="DENMARK-2" data-name="DENMARK">
			<rect x="880.85" y="300.94" width="116.93" height="20.03" transform="translate(-21.75 75.65) rotate(-4.56)"/>
			<text transform="matrix(1, -0.08, 0.08, 1, 904.32, 319.41)" font-size="15.13" fill="#fff" font-family="Raleway">DENMAR
				<tspan x="65.37" y="0" letter-spacing="-0.01em">K</tspan>
			</text>
		</g>
		<g id="AUSTRALIA-2" data-name="AUSTRALIA">
			<rect x="1539.41" y="562.87" width="177.17" height="27.78" transform="translate(-40.7 131.23) rotate(-4.56)"/>
			<text transform="matrix(1, -0.08, 0.08, 1, 1572.52, 588.73)" font-size="20.75" fill="#fff" font-family="Raleway">
				<tspan letter-spacing="-0.03em">A</tspan>
				<tspan x="13.49" y="0" letter-spacing="0em">U</tspan>
				<tspan x="29.15" y="0" letter-spacing="-0.01em">S</tspan>
				<tspan x="41.68" y="0">T</tspan>
				<tspan x="54.42" y="0" letter-spacing="-0.01em">R</tspan>
				<tspan x="67.95" y="0" letter-spacing="0em">ALI</tspan>
				<tspan x="99.45" y="0" letter-spacing="-0.03em">A</tspan>
			</text>
		</g>
		<g id="USA-2" data-name="USA">
			<polygon points="441.31 400.11 357.58 406.64 360.16 438.91 443.88 432.38 441.31 400.11"/>
			<text transform="matrix(0.96, -0.08, 0.08, 1, 376.93, 430.53)" font-size="25.42" fill="#fff" font-family="Raleway">U
				<tspan x="19.19" y="0" letter-spacing="-0.01em">S</tspan>
				<tspan x="34.39" y="0" letter-spacing="-0.03em">A</tspan>
			</text>
		</g>
	</g>
	<polygon points="995.55 597.11 999.24 596.51 1005.54 600.35 1009.15 600.51 1010.9 594.5 1016.85 592.33 1018.16 587.82 1029.58 583.45 1037.25 584.35 1037.25 577.61 1033.4 571.97 1028.92 572.88 1020.65 576.32 1018.82 575.91 1016.23 575.93 1011.97 577.32 1008.14 576.87 1003.72 578.04 1001.74 575.01 993.79 574.15 991.02 573.51 986.27 578.9 987.22 581.87 984.49 585.18 984.65 591.32 984.93 591.44 988.23 593.44 987.83 595.85 984.78 596.31 984.27 599.52 990.55 599.9 995.55 597.11" fill="#d71a35" stroke="#000" stroke-miterlimit="10" stroke-width="0.05"/>
	<rect x="926.52" y="194.66" width="100.97" height="19.2" transform="translate(-13.15 78.31) rotate(-4.56)"/>
	<text transform="matrix(1, -0.08, 0.08, 1, 942.74, 212.82)" font-size="16.19" fill="#fff" font-family="Raleway">
		<tspan letter-spacing="-0.01em">S</tspan>
		<tspan x="9.66" y="0">WEDEN</tspan>
	</text>
</svg>