<?xml version="1.0" encoding="utf-8"?>
<!-- Generator: Adobe Illustrator 25.4.1, SVG Export Plug-In . SVG Version: 6.00 Build 0)  -->
<svg version="1.1" xmlns="http://www.w3.org/2000/svg" xmlns:xlink="http://www.w3.org/1999/xlink" x="0px" y="0px"
	 viewBox="0 0 960 1920" style="enable-background:new 0 0 960 1920;" xml:space="preserve">
<style type="text/css">
	.st0{fill:#DA1A35;}
	.st1{fill:#FFFFFF;}
	.st2{font-family:'Raleway';}
	.st3{font-size:19.1963px;}
	.st4{font-size:19.9545px;}
	.st5{font-size:16.0101px;}
	.st6{font-size:26.3272px;}
	.st7{font-size:32.2489px;}
	.st8{font-size:19.1333px;}
	.st9{font-size:19.5765px;}
	.st10{font-family:'Raleway-Medium';}
	.st11{font-size:15.8421px;}
</style>
<g id="LOCATIONS">
	<path id="LOCATION_x5F_SWEDEN" class="st0" d="M545.5,341.4l-2.2-0.1l0.6-3l2.8-0.4L545.5,341.4z M673.6,316l0.6-5.2l4.5-3.2
		l0.5-3.4l-5-0.5l-4.7,5.5l2.6,5.3L673.6,316z M769.3,141.7l-2.8-8.1l-4.8,7.7l-1.5-6.3l1.7-2.9l0.9-8.2l-0.6-3.3l0.4,6.2l-0.6-7.7
		l-2-3.7l-0.1-5.8l2.3-2.9l-0.8-5l-5.5-1l0-4.2l2.4-4.6l-0.5-6.2l0.9,5.9l-1.6-3.2l-2.8-0.6l-3.1-5.4l-1.6,0.3l-1.8-0.5l-1.1-4.1
		l-4.6,4.4l-2.8-1.1l-3-2.3l-8.1-1.5l-5-4.7l-6.5-9.4l-5.1-3.3l-3-4.5l-1.6,0.6l-4.8,0.4l-4.7-2l-0.2,4.3l3.1,2.2l0.6,4.5l-3.5,1.4
		l-1.3,6.4l1.9,3.6l-0.6,5.1l-1.8-1.4l-2.2,0.5l-2.5-2.6l-4.8-1l-3.9-3.3l-6.8-2.6l-4.8,1.9l-6-0.8l-2.3,1.1l2.8,5.7l-1.3,2.1
		l-0.2,2.3l-2.7,2l2.1,4.7l-3.5,2.5l-2.8,0.2l-1.7-2.5l-4.5-2.6l-4.7,2.9l-2.9-2.9l-3,1.2l-1.8,5l-2.9,3.2l-2.9,1.1l0.1,0.2l2.1,3
		l2.6-3.1l-2.5,4.6l-6.8,7.5l-5.8,0l-0.8,4.2L618,118l-7.3,0.7l-7.1,3.2l-0.6,4.2l2.7,3.4l-0.5,6.1l-2.7,5.1l-3.2,9.3l-1.4,10
		l-9,16.6l0.2-4.4l1.6,3.4l0.8-1.6l-4.2,4.6l-7.1-1.2l-5.5-1.8l-4.8,2.2l-5.6,7.8l-0.5-9.8l0.8,11l0,11.2l-1.5-3.2l1.6,6l0.2,8.6
		l-2.2,7.6l-0.6,7.9l5.7,3.7l6.4,8.8l-2.5,4.5l-0.9,6.8l-9.9,2.1l-0.7,3.5l3.1,8.1l1.5,0.2l2.6,4.6l-3.7,6.2l-0.2,4.4l-2.2,3
		l-6.6-0.1l-1.6,2.3l1.7,4.5l-3.1,1.2l-2.1,3.4l2.6,5.9l-0.5,13.1l-2.7,4l-2-4.5l-2.4-2.1l-0.4,0.4l-3.5,1.5l-0.2,9.1l1.4,2.6
		l-0.3,6.9l2.8,1.9l0.9,1.7l-1.1,4.4l4.8-1.5l-2.5-3.3l0.9-3.2l2,0.3l-1.2,2l3.3,2.4l0.9,2.3l-4.6,3l-1.1,3.2l0.9,3.4l-1,4.5
		l-2.1,1.8l2,3.7l3.4,1.2l1.5,5.7l1.7,1.8l3,8.2l-0.2,5.9l4.1,2.2l0.7,4.1l3.5,4.4l4.7-2.1l0.7,5.2l-3.6,5.4l-5.3,0.1l-1,2.1
		l2.7,2.1l0.2,3.9l4.2,1.7l0.8,10.1l-2.8,3.6l2,2.3l4.1,0.4l11-1.7l5,2.5l4.5-3.4l0-3.4l-2.2-2.3l3.6-6.5l6.6-0.1l2.1-6.5l0.8,3.2
		l7.5,2.1l4.9-2.1l3.6,2.2l1.9,3.1l5.2-5.1l2.3-8.1l3.7-3.1l1.9-10.2l2.3-3.1l-3.3-3.6l0.9-4.2l3.9-3.6l-2.9-4.6l4-2.9l-4.3-3.4
		l2.5-3.4l-2.1-4.2l4.4,2.3l5-0.4l-4-4.6l2.7-4.5l0-2.6l-6-2.9l7.8,0.5l-3.7-4.7l-3.4-0.9l2.7-2.6l2.2,0.2l0.5,1l2.6-2l0.1-2.7
		l3.2,3.1l1-4.2l3.2-2.9l2.9,0l-0.3-2.8l1.8-2l1.2,2.1l-1.2,3.7l2.4,0.4l4.3-5.2l2.8,0.3l3.1-2.1l0-4l-2.3-2.5l-4.9-2l-3.9,1.7
		l-2-1.2l-3.5,1.5l-2.3-3.9l-4.4-1.3l-2.5-2l-5.6-0.4l-0.7,2l-1.5-1.4l-6.3-1.3l0-1.6l3.2-0.9l3.3,2.1l3.5-3.6l1.6,1.9l3.3-0.6
		l1.7-2.5l3.6,1.2l1.5,2.1l2.6,0.1l0.4-2.5l1.8,2.3l4.6,2.3l-0.8,2.7l3.3,2.3l5.9-0.8l1.9-4.1l5.9-5.1l3.4-6.1l-3.7-4.4l0.3-3.2
		l-5.8-4.3l1.4-2.3l-7.9,3l-0.6-3.8l-2.6-2.7l-4.1,4l-1.8-4.1l-2.2,1l0.4-4l-2.8-1l-1.7-3.4l-2.1-2.8l3.3-3.3l-1.7-4.8l2-0.9
		l0.3-2.5l-3.1-1.6l3.6-3.6l-0.6-6.3l1.1-1.2l2.4,2.7l0.9-4.1l-2.8-3.7l1.8-6.1l-0.3-4.9l1.3-1.5l0-5.3l-4.2-6.6l3.2,1.6l6.2-0.4
		l4-4.7l-1.3-3.8l1.4-2.1l3.6,1.4l6.2-4.3l0.6-2.4l-2.8-0.9l1.6-3.4l3.2-2.6l1.5,2.4l2-0.3l1.6-4.3l1.7,0.2l1.5,2.9l3.1-2.2l0.5-4.8
		l2.4-4.1l3.2,0.3l0.1,3.1l2.5,0.4l2.5-4.1l5.4-2.3l-2.2,5.6l1-3.6l1.9,3.1l4.7-3.7l2.7,0.5l4.9-6.5l-0.9,2.6l3.4-3.3l2.7,0.1
		l3.7,4.7l-3-0.3l-2-3.6l2.6-0.7l-1-2.8l-3.3-1l-3.8-3.6l5.2-0.4l-0.6-3.1l2.3,2.5l1.5-2.3l-1.7-2.8l-2.5-0.4l-2.5,6.3l1.5-1.4
		l2.4,1.6l0.7,1.5l1.7-0.3l0.5-2.4l-3.7-2.2l3.4-1.4l3.5,0.6l3.8-2.8l-2.6-2.2l-2.1-5.4l2.7,1.3l1.6,2.5l3.2-0.4l1.8-3.2l0.9-4
		l2.4-1.5l2,4.9l3.8-3.8l1.2,3.7l3.3,1.8l2.1-3.3l3.1,2.3l5.3-2.6l2.1,3.1l3.9,0.8l2.9-1.6l0.1,0.2l0.7-4.6L769.3,141.7z
		 M668.5,383.1l1.7-0.4l-1.4,3.4l-2.8,2.8l0.2,1.9l5-0.8l1.3-2.4l-1.3-1.2l1-2.5l5.3-3.3l0.9-2.7l3.4-3.3l-0.2-2l-2.7-3l2.1-3.4
		l0.7-2.3l1.9-1.4l-2.3-1.5l-2.3,1l-4.5-0.6l-3.2,3.3l-2.4,3.5l-3.1,2.6l0.8,4.9l-1.6,0.8L668.5,383.1z M636.3,388.7l-2.7,11.2
		l0.2,4l-0.3,2.9l1.2,1.5l1.9-3.5l3-6.4l1.5-6.9l2.9-6.9l1.4-6.1l-2-2.7l-3,3.7l0.4,1.9l-2,6.1L636.3,388.7z M684.3,359.8l1.2,2.1
		l2.5-2l3.8-0.7l-0.8-1.6l-4.3-0.3L684.3,359.8z M684.8,340.2l1.4,3.7l2.5-2.5l-2-2.1L684.8,340.2z"/>
	<path id="LOCATION_x5F_AUSTRALIA" class="st0" d="M481.3,1798C481.3,1798,481.3,1798,481.3,1798 M456.2,1515.8l1.1-0.5l1.9,0.2
		l0.4-1.2l-0.5-0.2l-0.6,0.2l-0.3-0.4l1.2-1.2l-0.2-0.3l-1.2,0.4l-0.1-1.2l-0.8,0.4l-0.2,0.7l-1.1,0l0.3,0.4l-0.2,0.3l0.6,1.6
		l-0.7,0.7L456.2,1515.8z M569.4,1632.4l0.1-1.8l-1.1-2.7l-0.5-0.9l-0.1-1.5l0.5-0.7l0-1.7l1.2-2.2l-0.1-0.7l-0.3-4.2l0.8-1.5
		l-0.6-0.8l-0.4-1.5l-0.1-2.9l-0.6-0.2l0.7-1.6l-1.4-0.5l-0.8-1.4l0-1.7l-1.7-1.4l-1.1-2l-0.5-2l-1-1.7l-0.9,0l-1.1,0.5l-1-0.9
		l-0.3-1.9l-0.7-0.3l-0.2-1l-1.8-1.5l-0.9-0.7l0.3-1.1l-1.1-1.7l1.3-1.8l0.2-2.2l-0.5-1l0.2-1.4l-1-0.5l-0.2,0.8l0.5,0.6l-0.5,0.8
		l-3.4-2.8l-0.8-1.7l-0.6,0.4l0,1l-0.3,1.1l0.9,2.2l-1.7-1.9l-0.7,0.9l-0.1-1.4l-0.6-1.1l-0.4-4.1l0.4-0.5l0-1l-1.4-0.8l0.5-1.2
		l-1.1-0.8l0.3-1.3l-2.4-1.9l-0.7-1.4l-0.2-1.7l1.3,0.3l-0.1-1.4l-1.2-2l-0.6,0.4l-1.3-0.1l-1.5-2l-1.1,0l-1.4-1.1l-0.7,0.9
		l-0.6-0.8l-1.6-0.5l-1,1l0.8-1.4l1.4-0.4l0.1-1l-0.5-0.8l-1.6,0.2l-1.3-0.1l-0.4-0.9l-0.7,0l-3.1-1.6l-1.4-2.6l-0.4-2.6l-0.9-1.7
		l0-1.4l0.7-0.3l0.5-2.9l-1-3.8l-0.9-1.7l0.8-0.4l-1-0.8l-1.1,0l-1.5-2.8l-0.2-3.6l0.5-0.5l0-0.8l-0.7-0.8l-0.5-4.5l0.3-1.2
		l-0.4-1.4l0.5-0.5l0.1-1.1l-2.6-2.3l-1.6-0.9l0.4-0.7l-1.7-1.6l-1.4,1l-0.7-0.5l-0.8,1.6l-1.2,0.1l-1.6-2.2l0.1-1.2l-1-2l0.4-2.7
		l-0.5-3.2l-0.6,0.3l-0.6-1.3l0.6-1.3l-1.2-1.4l-0.1-1.3l-0.8-0.5l0-1.8l0.8-0.9l-1-0.5l-1.2,0.3l-1-0.8l0.4-3.5l-0.5-0.8l-0.5-2
		l-1.6-0.3l0-0.9l-1.7,0.7l-0.8,1.2l0.1,2.6l-0.7,2.2l0,0.6l-0.3,1.5l-0.8-0.1l-0.8,2.4l-1.2,1.8l1.1,1l1.4,1.1l-0.9,0.6l-0.9-0.1
		l-0.5,1.4l-0.7,1.5l1.1,1.7l0.2,1.2l-1.1-0.4l-0.8,0.6l-0.5,3.6l0.8,2.4l-0.4,2.7l0.8,1.8l-0.1,2.2l-1.3,1.3l0,1.2l-1.4,2.9
		l-0.1,4.1l-1.2,1.5l0.5,1.5l-0.7,2.3l-1.3,1.4l-0.1,2.8l-2.2,1.8l-4.6,2l-1.9-1.2l-1.9-0.1l-1-1.2l-1.9-1.4l-0.1-0.9l-0.5-0.6
		l-0.5-1.6l-1.7-0.2l-1.5-0.6l-2.3-0.1l-2.1-1.2l-0.4-1.2l-1.7-2l-1.9-0.1l-1.7-1l-0.1-0.9l-0.9-0.1l-0.9-0.6l-1.6,0.1l-1.3-0.3
		l0.4-0.6l-1.9-1.4l-0.4-1.4l-1.9-1.9l-1.2-0.1l-1.7-1.8l-0.1-1.8l1.3-2.3l0.3-1.8l1.4-1l0.4-2.1l0.6-1.3l-1.2,1l-1.1-1.9l1.5-1.1
		l-0.3-1.5l0.8,0l0.9-0.4l0.4,0.5l1.3,0.2l1.8-0.9l0.5-1.7l-1.3-1l1-0.8l1.1,0.2l0.6-2.5l0.9-0.5l0.9-1.4l0-0.7l-1.5-0.7l-0.9,1.1
		l-1-0.3l-0.3-2.5l-1.2,0.6l-1.6,2.1l0.9,0.4l0,1l-1.2,0.6l-1.2-0.7l-0.3-0.9l-0.6-0.8l-0.5,0.9l-1,0.3l0-0.9l0.8-0.9l0.3-0.7
		l-1,0.5l-0.7,0.9l-1.6,0.6l-0.2,0.6l-0.9,0.2l-0.5-0.6l-1.4-0.1l-0.1-0.7l-1.2-1.5l-0.6-0.1l-1.7,1l-1.2-0.5l-0.7,0.5l-0.6-1
		l-0.7-0.1l-0.9-1.5l-1.6,0.8l-1.8-0.2l-1.6-0.7l0.1-1.1l-1.2-1.3l-0.7,0.2l0.2,0.6l-2.2,0.7l-0.6-1.3l-1.2-0.4l-2-1l-0.3,0.6
		l-1-0.7l-1.2,1l1.5,1l-0.4,0.4l1.4,0.3l1.2-0.6l2.2,1.7l-0.1,1l0.5,2.3l-1.5,0.2l-0.5,1.7l-0.5-1l-1.1-0.3l-1.1,0.8l-4.2,0.4
		l-1.7-1.3l-0.2,0.6l-1.6,0.7l0.2,1.4l-1.4-0.2l0.5,1.9l-0.5-0.7l-1.7-0.5l-0.6,1l0.7,0.9l-0.1,0.6l-1.8-0.5l-0.9,1l0.7,0.7
		l-0.8,0.4l-1.2,0.7l0.1,0.9l1.1,1.1l0.3,0.8l-1.3-0.7l-1,0.9l-1.3,0l-1.2,2.1l-1.1,2.4l-0.9,0.3l-0.4,1.9l-1.1,0.8l1,1l2.5,0.3
		l-0.9,0.3l-0.5,1.1l3,0.9l-1.1,0.5l-1.9-0.1l-0.6-0.9l0.1,0.9l1.3,0.9l0,1.6l1.3,1.7l-1.9-1.4l-1.2-2.1l-1.4-0.1l0,0.9l-0.5,1
		l-0.2-1.2l-3.2-1.9l-2.2,0.5l0.7,0.8l-0.7,0.8l-0.8-0.6l-0.6,0l-0.6,0.9l1.1,1.3l-0.2,0.8l-0.2-0.6l-0.7,0.2l0,0.7l-1.4,0.9
		l-2.1,0.5l1.6-0.8l1-1.5l-0.2-2.3l1.1-1.5l-0.8-0.9l-1.2-0.1l-2.2-3.7l-1.2-1.6l-2.1-0.4l-1.4-0.8l-0.9,0.6l0.7,0.7l-0.8,0.3
		l-0.9,1.5l-1-0.1l0.3-0.8l-1.3,0.4l-0.3,0.9l-1.1-2.1l-0.8-0.2l-0.2,1.2l1.1,0.6l-1.4,1.1l-0.4,1.5l0.5,0.9l-1.5,0.9l-0.7-1l-0.8,0
		l-0.3-0.8l1-1.3l-1.1,0.1l-0.5,1.6l-1.5,0.4l-0.6,0.9l-0.2,1.6l2.3,0.6l-1.8,1.6l-1.5-0.7l-1.7,1.2l0.4,1l2.1,0.2l-0.7,1.2l-1,0.3
		l-1.5-1.7l-1.2,1.4l-1.4,0.3l0.3,1.1l0.3,1l0.1,0.9l0.9-0.3l-1,1.5l0.8,1l-1.2,0.6l-0.7,1l2.6,0.3l-1.6,0.9l-0.3,0.7l-1.4-0.3
		l-0.8-1l-1.2-0.7l-1.1,1l-0.5-1l-1.4-0.8l-1,0.9l1.9,1.2l-0.6,0.4l-0.7,1.5l1.5,1.3l1.5-0.1l-0.6,1.2l0,1.3l-0.6-0.5l-0.8,0
		l0.3,1.5l-0.5,1.7l-0.2,1.8l-2.5-4.9l-1.7-3l-0.9-1.1l0.3-1.8l-0.5,0.8l-1.5,1.2l-0.3,1.9l-1.2,0.3l-0.1,0.8l-1.4-0.1l-0.8,1.1
		l-1.2,1.1l0.3,1.9l0.1,3.8l0.7,0.4l0.1,1.3l-1.3,0.8l-0.7,1.5l-2,0.6l0.2,0.8l-1.7,1.2l0.1,1.9l-0.9,0.9l-2.1,3.2l-4.2,2.8
		l-3.8,0.5l-1.5,0.6l-2.2,0.2l-1.7,0.5l-1.8-0.4l-2.2,1l-0.2,1.3l-1.5,0.8l-4.7,0l-1.2,0.8l-0.3,1.3l-2.9,1.3l-2.3,0.1l-1.2-0.5
		l-1.1,0.2l-0.5-0.8l-1.2,0.7l-1.1,1.8l-3.1,0.7l-0.2,0.7l-0.8,0l-2.3,2.2l-3.1,1.6l-4.1,1.4l-1.7,2.6l0,2.3l-1.6,1.5l-1.2-0.7
		l0.5-0.9l-0.3-1.1l0.7-1.8l-0.1-1.3l-2.2,1.9l-0.5,2.2l-1.5,3.2l1.2,2.2l-0.7,1.8l0.2,3.4l-2.7,3.6l-0.9,4.8l0.9,2.5l-0.3,3.5
		l2.7,4.2l0.2,1.6l1.1,1.2l-0.9,2.2l0.6,1.9l-1.5,0.7l-0.7-1.1l-0.2-2.5l-0.9,1.4l-0.5-0.5l0-2.3l-1.6-3.1l-0.9,1.6l0.5,3.2l2.1,1.9
		l1.5,2.7l-2,0.4l-1.7-2.1l-0.5-2.6l-0.6,1.1l-0.8,0.5l1.4,2.4l2.7,3l1.6,4.1l0,7.4l1.1,1.3l0.9,4.1l2.4,5.4l-0.7,2l0.5,8.1
		l-0.3,1.1l0.9,2.2l0,2.5l1.7,3.5l0.1,1.8l-1.3,1l0.7,0.7l-0.4,1.9l-0.2,3.2l-1.2,1.2l0.4,0.9l-0.3,1.9l-1.2,1l0.3,1.9l-2.3,1.9
		l-1.1-0.9l-1.7,2.8l0.3,4.5l1,0.8l1.1,0l3.2,3l0,1.2l0.6,0.6l1.6,0.2l0.7,0.9l2.1,0.3l0.8-0.2l0.5,0.6l1.6,0.2l1.9-0.5l0.5,1
		l0.8-0.7l0.5,0.3l2.1-0.5l1.8-0.2l0.2-0.9l1.1-0.3l1.1-1.9l2.2,0.2l0-1.3l1.3-0.8l1.1,0l1.1,1.1l1.1-1.6l0.6,0.2l0.7-0.4l0.3-1.8
		l3.9-2.6l1.6,0.2l1,0.6l1.3-0.9l3.8-1l0.5,0.7l2.5-0.6l0.7,0.5l1.2,0.1l1.5-0.6l0.6,1.5l0.9,0l1.1-0.7l0.7,0.7l1.1-0.8l2.9-0.1
		l-0.1,1.2l0.5,0.2l1.5-1.6l1.6,0.4l1.9-1.4l0.6-1.8l0.7-0.2l1.5-1.6l0.8-2.6l1.7-1.4l2.1-0.7l0.8,0.5l3-1.2l3.8-2.5l2.3-2.3
		l1.1-0.5l1,0l1.3-0.1l2.2,0.8l2,0l1.4-0.5l2.9,0.1l4-1.6l2.3-0.6l1.7-1.3l1.1,0l2-1.6l3-0.3l8-0.9l2.6,0.6l1.8,0l2.2-0.9l1.8,0.2
		l2.3,2l1.8,2.9l1.3,0.4l0.9-0.8l0.9-0.4l0.7,0.7l0.8-0.4l1.6,0.3l1.4,1.8l1.9,0.3l0.8-0.5l3.3,2.1l-0.2,1.4l1,0l1.1,1.1l-0.4,1.1
		l-1.2,0l-0.2,1l1.4,2.8l1.3,0.1l1.5,1.5l0.6,2l-0.2,1.6l1.7,3.5l-0.5,1.6l0.7,0.9l-0.2,1.9l-0.6,1.1l-0.9-0.5l-0.4,0.5l1.2,1.4
		l1.1,0.6l0.6,1.5l1.2-0.5l1.3,0.9l0-1.3l-0.8-1.1l0.8-0.9l0.7-1.5l1.2-0.3l0.6-1.2l1.2-0.6l0.3-1.3l1.3-1.8l3-1.7l0.3-0.9l0.6,0
		l2.4-1.3l0.5-2.1l1.8-3l2.1-0.5l0.8-1.2l-0.6-1.5l0.3-1.8l1,2l0.1,1.9l0.1,1.8l-0.8,1.2l-0.3,3.7l-3,2.1l-0.4,1.6l-0.8,1.2l0.2,1.7
		l-1.7,2.5l0.6,0.7l-1.1,3.6l-3.5-0.2l-0.6,2l-0.8,1.6l0,0.6l2.1-0.6l2.1-1l2.5,0.8l2.3-4.2l0.5-3.8l2-2.2l0.6,0.6l0.2,3.5l0.9,2
		l-0.7,0.2l0.3,3.5l-1.5,3l-2.7,1.2l0.5,1l1.8-0.3l1.9,0l0.8-0.9l1.3-0.4l1.5-1.3l1.2,0.3l0.9-0.2l-0.7,1.3l-0.7,1.2l-1.3,0
		l-0.3,0.8l1.4,1.8l0.6,1.6l1,2.3l0.2,2.7l-0.2,3.4l-1.7,2l0.4,0.9l-0.2,2.5l1.3,1.1l1.2,1.9l0.4,2.4l2.7,3.4l2,0.4l1.4,0.9l0.7,1.7
		l1.5,0.1l0.3-0.7l0.9-0.4l1.9,0.5l1.6,1.8l1.7,0.1l1.9,1.6l0.3,1.5l1.5,0.4l1.6,1.7l1.1,0l0.5-1l2.8-1.4l0.8-1.3l1.8-0.1l1.8-1.9
		l1.4,0.2l0.6-0.7l-0.4-0.7l-1.6-0.4l0.5-1l2.8-2l2.5,1.6l0,1.6l-2.9,1.7l0.7,1.3l0.9,0.2l1-1.2l1.2-0.9l1.5,0.8l-0.1,1.4l-0.9,0
		l-1.1,1.2l2,2.2l0.5,2.5l0.7-0.5l1,0.1l0.2,1.5l1.1,1.5l1-1.9l-0.2-2l-1.1,0.9l-0.3-0.8l0.8-1l3.6,0l0.5,0.7l0.5-0.8l1.7-2.6
		l3.7-2.4l2-2l-1.1,0l-0.8,0.5l0.3-0.5l-1.3-0.4l1.4-0.2l1.9-0.1l2.7-0.9l5.6-1.3l4.5,0.7l1.8-1.2l0-1.2l1.3-0.1l1.3-1l1.2-2.6
		l-0.7-2.8l-0.1-1.5l2.4-2.6l-0.2-4.3l1.1-1.7l0.4-2.9l1.4-0.7l-0.2-1.4l4.2-5.7l1.2-0.3l0.7-3l1.7-2.4l1-3.1l1.7-1.8l-0.2-1.6
		l1.2-0.7l1-2.9l-1-0.9l2.2-1.1l1.5-2.4l0.9-1l1-2.4l2.1-0.7l1.3-0.7l-2.2,0.1l0.5-0.7l2.6-0.3l2.3-1.7l0.4-1.7l-0.4-0.9l0.3-1.5
		l2.3-1.9l0-1.5l1.6-0.7l1.5-2.8l-0.3-1.4l0.7-2.2l-0.6-0.7l0.2-1.2l1.9-4.8l0.4-2.6l2.5-4.8l-0.2-1.8l1.2-3.5l1.9-1.7l0.6-2
		l-0.6-2.1l1.2-1.5L569.4,1632.4z M492.4,1739.7l-0.5-0.6l-0.7,0.3l0.9,0.8L492.4,1739.7z M505.2,1761.7l-0.8,0.6l0.5,0.9l2.2,0
		l1.1,0.4l0.2-0.8l-1.5-1.3L505.2,1761.7z M456.6,1492.7l1,0.4l0.2-1.1l1.2-1.2l-0.6-0.7l-1.4,1.7L456.6,1492.7z M477.2,1539.1
		l0.7-0.4l-0.1-0.8l-1.1,0.6L477.2,1539.1z M455.9,1494.4l-0.1-0.8l-0.7,0.4L455.9,1494.4z M460.5,1527.8l-0.9-1.1l-0.4,1.2l0.6,0.9
		L460.5,1527.8z M478.9,1533.7l-1.9-0.4l-1.7,1.1c0,0-0.4,1-0.3,1l0.7,0.6l0.9-0.3l0.8-1.1l1.6-0.3L478.9,1533.7z M480.9,1761.5
		l-0.4,1.1l1,0.5l0.4-1l-0.1-1.3L480.9,1761.5z M454.8,1494.5l-0.9,0l0.4,0.6L454.8,1494.5z M482.3,1765.2l0.9,0.2l0.7-0.7l-1-0.9
		l-0.9,0.3L482.3,1765.2z M498.2,1485.1l0.1,1.8l0.7-0.4l0.7-0.1l-0.6-1.2L498.2,1485.1z M499.9,1744l-1.3,0.1l0.8,0.5L499.9,1744z
		 M483.3,1761l-0.7,0.4l0.1,1.1l0.8-0.1L483.3,1761z M503.3,1767.2l-0.8,1.4l-0.4-0.3l-0.8,0l-1,0.8l-0.7,0.5l-4.4-0.1l-0.9,0.6
		l0.1,1.3l-1.1-1l-1.4,0.1l-0.9,0.7l-1.4-0.9l-2.1-1.7l-2.6-1.3l0-2.2l-0.6,0.7l-0.2,0.8l-1.1-0.8l-1.4-0.6l-1.5-1l-0.4,0.7l0,1.7
		l-0.4,0.3l0.1,1.5l0.4,2.8l-0.3,1.9l0.3,3.2l0.4,2.6l-0.3,2.1l0.7,0.4l0.1,0.9l1.4,1.3l-1.6-0.1l-1.3-1.3l-0.5,1.4l0.2,2.5l1,0.8
		l-0.3,0.8l0.2,4.1l0.8,0.6l-0.3,0.6l0.4,1.9l1.4,0.4l-0.8,1l0.1,1.5c0.1,0,0.6,0.3,0.6,0.3l1.3-0.3l1,0.9l1.1-1.6l0,1.2l0.8,1.3
		l1.2,0l1.3-2.1l0.1-1.3l0.6-2.4l1,0.9l0.4-0.8l1.3-1.1l0.5-1.6l0.1,1.5l0.9,0.3l0.7-1.3l1.2-0.3l0.8,0.7l-0.1,1.2l-1.5-0.6l0.2,2.1
		l1.3-0.7l0.6,0.2l1.6-2.4l0-0.9l-1.2-0.7l1-1.4l-0.1-1.7l1.2,0l0.6-0.6l0-3.1l0.9-0.7l0.7-1.4l0.5,2.1l0.3,1l0.7-1.6l-0.1-1.3
		l0.4-0.7l-0.5-1.8l1-1.6l0-2.7l1.2-1.6l0.5-3.8l0.4-1.3l-1.8-1.2L503.3,1767.2z M490.8,1794.9l0,1.3l-1,1.7l1,0.5l0.4-2.1l0.6-1
		l-0.4-0.8L490.8,1794.9z M479,1756.7l0.9-1.6l-0.5-1l0.2-2.1l-0.9-0.7l-0.8,0.7l-0.9,1.2l0.2,1.3l-0.9,1.3l0.4,1.2l-0.1,1.1l1,0.4
		l1.1-1L479,1756.7z M498.9,1789.5l0.8-0.5l-0.9-0.7L498.9,1789.5z M554.5,1580.7l-0.2-0.8l-0.6,0.6L554.5,1580.7z M452.2,1495.4
		l-0.8,0.7l0.8,0L452.2,1495.4z M571.2,1601.9l-0.4,1.2l0.5,1l-0.7,1.6l-1.2,1.5l-0.1,1.3l-0.2,1.5l0.8,2.1l0.8,0.2l-0.5-1.4l0.3-3
		l1.5-2.3l0.2-2.1l-0.3-1.7L571.2,1601.9z M504.7,1756.2l0.5,1.2l-0.5,1.3l0.5,0.9l0.5,1l2.5-1.3l0-1.3l-2.5-2.3L504.7,1756.2z
		 M449.5,1497.4l0.2,0.9l0.7-0.8l1.2-0.2l0.4-0.8l-1.2,0.1L449.5,1497.4z M447.9,1499.3l1.3-0.6l-0.1-0.4l-1.7,0.6L447.9,1499.3z
		 M427.7,1492.3l0.9,1.4l0.1-1.3l0.4-1.4l-1.1,0.3L427.7,1492.3z M569.8,1630.3l0.8-1.1l-0.4-1.6L569.8,1630.3z M557.8,1591
		l-0.7-0.4l-0.3,0.4l1.4,1.8l0.8,1.3l0.2-1.3l-0.6-0.7l0.1-0.9L557.8,1591z M372.8,1521.1l0.1-0.8l-0.6-0.1l-0.4,0.8L372.8,1521.1z
		 M505.9,1765.7l0.3-1.2l-1,0.4L505.9,1765.7z M499.1,1481.3l0.4,0.9l0.6-0.8L499.1,1481.3z M526.3,1550.4l0.5-1.5l-0.3-2.4
		l-0.5,0.3l-1.2,0.4l1.1,1.2l-0.5,1.2L526.3,1550.4z M453.8,1513l0.4-0.3l0.2,0.7l0.8-0.9l-0.8-1l-0.8,0.8L453.8,1513z
		 M276.4,1615.5l1,2.8l0.5-2.2l-0.9-2.4L276.4,1615.5z M297.5,1574l0.7-1l0.1-1.6l-1.3,1.9L297.5,1574z M417,1498.7l2.4-2.7l0.6,0.1
		l0.1-0.8l0.7-0.6l-0.6-0.4l-0.5-0.9l-0.6,0l-0.9,0.5l-2,0.1l-0.8,1.1l-0.9-0.4l-0.2-0.5l-0.9-0.1l-0.9-0.9l-0.4,0l0.3,0.5l0.2,1.7
		l1.2,1.3l1.1,1.3L417,1498.7z M444.2,1709.1l-1.3,0l0.5-0.6l-0.9,0l-0.3-0.7l0.2-1.2l-1.1,0.4l-1.3-0.1l-3.9,1.2l-1.7,1l0,0.8
		l1.1,0.7l1.7,0l0.5-0.1l1.3,0.2l0.9-0.4l0.6,0.7l0.7-0.1l0.1-0.5l0.8,0l0.5-0.7l2.6,0.3l0.9-0.9l-1-0.5L444.2,1709.1z
		 M277.9,1611.5l-0.2-2l-0.5,3.2C277.2,1612.6,277.9,1611.5,277.9,1611.5z M366.6,1527.1l0.6,0.7l1.2-0.3l-1.1-1.2
		C367.3,1526.2,366.5,1527.1,366.6,1527.1z M367.1,1532.1l-0.2-1.6l-0.8-1.1l0.2,2.1L367.1,1532.1z M412.4,1497l1.7,0.3l-0.2-0.4
		l-1.2-0.4l-0.7-2.6l-1,0.5l0.2,0.2l0,0.8l0.4,0.1l0,0.4l-0.7-0.2l-0.5,0.1l0,0.8l1.5,0.3L412.4,1497z"/>
	<polygon id="LOCATION_x5F_KUWAIT" class="st0" points="210.9,1287.9 206.2,1286.3 200.4,1289.2 197.8,1295.8 195.1,1301.5 
		196.9,1301.4 209.1,1304.7 210,1309.5 217.9,1305.4 216.5,1303.8 217,1303.4 217.5,1303.4 215.9,1301.8 215.7,1299.6 214.8,1297.6 
		214.2,1298.9 208.9,1295.7 216.4,1293.9 214.9,1288 215.2,1287.3 213.9,1286.8 	"/>
	<polygon id="LOCATION_x5F_SAUDI_x5F_ARABIA" class="st0" points="209.1,1304.7 196.9,1301.4 195.1,1301.5 170.2,1302 106.9,1261.5 
		94.4,1260.4 89.9,1265.6 70.5,1272.4 86,1288 80.7,1294.9 80.4,1298.7 70.4,1300.6 61.2,1310.3 47.8,1307 43.7,1307.3 43.5,1312.2 
		43.9,1317.8 42.7,1321.6 43,1323 44.9,1322.3 45.5,1323.2 47.2,1322 50.2,1323.6 49.4,1324.1 55.5,1330.4 56.2,1333.1 57.5,1333.7 
		58.1,1336.3 61.1,1338.8 62.5,1338.9 66.5,1345.2 66.7,1347.3 67.8,1349.6 69.9,1349.9 70.6,1353.2 72,1354.9 75,1356.1 
		77.7,1362.3 79.6,1363.5 80.6,1367.5 79.8,1369.2 79.9,1371.1 82.8,1373 83,1375.2 84.8,1376.2 86.7,1374.1 89.6,1376.3 
		93.9,1378.1 97.3,1381.3 98.4,1384.2 99.4,1384.4 99.9,1387.6 101.3,1388.7 102.5,1393.1 105.2,1395.3 106.2,1399.9 107.1,1401.3 
		106.2,1405.7 105.3,1406.6 106.3,1408.7 107.8,1413.4 108.5,1418.4 111,1420.4 111.5,1422.2 118.5,1429.2 120.7,1430 123.4,1430.1 
		125.3,1432.6 126.6,1432.6 130.6,1435.8 130.8,1437.7 134.1,1438.2 133.8,1440.1 135.5,1440.8 139,1452 141.9,1453.6 142.2,1457 
		152.6,1466.7 154.1,1466.6 155.2,1472.3 159.4,1473.3 162,1480 164.4,1480.1 166.4,1480.9 167.8,1478.2 171.2,1475.8 168.6,1471.4 
		170.1,1465.1 173.6,1463.4 177.7,1466.5 186,1466.5 197.5,1470.6 209.5,1475.9 210.5,1487.8 233.2,1454.5 282.5,1437.7 
		319.6,1425.1 320.4,1396.3 317,1385.7 317,1385.6 312.8,1389.9 273.9,1385.4 270.6,1375.2 267.3,1371.6 267.2,1367.1 267.1,1367 
		266.5,1367.3 265.2,1365.3 265.2,1364 266.4,1362.4 264.2,1362.7 263.8,1362.1 261.6,1362.2 257.3,1360.1 256.7,1358.9 256,1359.3 
		253.6,1356.3 252.9,1353 245.9,1344.8 244.1,1341.7 245.6,1342 245.6,1340.5 242.9,1334.3 242.9,1332.8 241.1,1330.2 239.9,1330.3 
		235.4,1324.2 233.7,1324.2 231.8,1322.2 231.9,1321.3 232.7,1321 233.9,1321.7 232.7,1320.1 230.5,1319.8 226,1318.9 223.2,1312.3 
		221.7,1309.2 220,1308.3 219.9,1306.1 219,1306.7 217.9,1305.4 210,1309.5 	"/>
	<path id="LOCATION_x5F_USA" class="st0" d="M843.9,1237l-0.7,1l1.8-0.8l1,0.4l1.5-0.5l-1,0.9l-2.5,0.8l-0.8-0.2l-0.7,0.6l-2.7-0.1
		l-1.4,0.8l-3.1,0.1l-1.9,0.6l-2.1,0.1l-0.6,0.6l-1.3,0.4l0.8-0.7l-1.2-0.1l-0.3-0.8l1-1.3l2.1-0.3l2.7-1.1l2,0.5l2.4-0.7l2.9,0
		l2.6-1.5l0.1,0.5L843.9,1237z M442.4,1322.5l-0.3,0.7l31.7,14.5l26.7,0.8l0.2-3.4l15.1,0.5l1.7,1.1l1.5,2.1l0.8,1l0.2,0.8l1,0
		l0.8,1.2l-0.3,0.9l1.5,0.5l1.4,1.2l-0.1,0.8l-0.5,0.7l1.1,0.3l1.3,0.8l0.8,1.4l0.2,2.1l0.6,0.8l0.5,0.1l0.3,0.7l1.1,1l0.1,1.4
		l-0.5,0.4l-1.1,0.3v0.7l1.6,1.9l1.3,1.5l0.4,1.3l-0.1,0.5l0.6,0l0.8,0.8l0.6,0l0.9,0.4l0.3,0.7l0.1,0.6l0.6,0.6l1.1,0l1.9,1
		l0.3,0.6l1.6,0.5l1.9,1l0.6,0.6l0.8,0.1l0.9-0.4l0.2-0.6l1.3-1.1l0.9-0.2l0.2-0.8l-0.2-0.5l0.8-1l1.3-2.5l1-1l1.1-0.4l0.7,0.2
		l0.2,0.3l0.7-0.1l0.5-1.1l1.7,0l1.6,0.2l1.8-0.1l0.7,0.4l0.4,0.5l1.2-0.2l1.2,0.6l0.8,1.4l1.8,1.5l1.4,2.2l0.7,2l0.5,0.8l0.2,1.4
		l0.1,2.2l1,0.5l0.5,1.3l1.2,3.4l0.8,0.5l0.4,1.2l1.4,0.8l0.4,1.8l0.9,1.6l1.5,1.6l-0.2,1.6l-0.2,1.7l0,0.5l0.2,0.6l1.9,5.5
		l-0.1,2.4l0.8,0.9l0.2,0.2l1.1,0.4l1.2-0.2l1.2,0.7l1.5,1.5l3.1,1l1.8,0.9l1.7,0.4l0.6,1.1l0.8,0.4l1-2.8l0.6-2l-0.5-1.3l0.2-4
		l-0.8-1.4l1.1-2.3l0.8-2.7l1.3-1.8l-0.6-3.6l1.3-0.6l1.9-1.5l-1.1-1.2l1.7-2.1l0.9,0.6l1.7-0.8l-0.1-2.4l1,0.8l1.9-0.7l-1-0.9
		l1.7-1l0.7,0.5l0.9-0.5l1.4,1l-1.6,1.4l1.3-0.1l1.7-1.5l1.2,0.1l4-1.9l3-2.7h1.2l1.2-1l-0.4-1.9l0.1-1.9l-1.1-2.8l1,1.3h0.9
		l1.8-1.5l0.1-1.1l0.7,1.9l-1.1,1.5l0.5,1.4l-0.3,1.7l2.1-0.3l1.5-2.2l1.3-0.1l1.3-0.9l3.2-0.7h2.4l4.4,1.1l0.7,0.9l5.4,0.5l1.7-0.2
		l-0.3-1.1l0.1-0.9l1.9-0.7l1,0.4l-0.7,1.1l1,0.3l1.3-0.5l0.6,0.7v1.4l0.6,0.7l1.9-0.2l0.6,1l-1.2,1l-0.7,0.9l1,0.4l1.5-0.3l1.3,0.8
		l2.3,0.7l0.9-1.1l1.4-1l1.5,1.1l0.7,1.2l1.4-0.8l0.1-2.3l-0.8-1.5l1.7-0.1l1.3,2l1.3,0.5l0.9,1.3l1.1-0.1l0.9,0.6l0.1,1.8l0.6-1.1
		l1.4-0.4l0.1-0.6l-2.2-1.7l-3-1l-0.5-1.3l-0.1-1.6l3-1.1l0.6-0.7l-1.6-0.7l-0.7-0.9l-0.6-0.1l-1.1,1.1l-1.2,0.5v-1.3l1.7-1.7
		l3.1-1.3l1.5-1.3l5.5-1l2.1,0.3l1.1-0.4l1.3,0.3l0.9-1.5l0.8-1.6l1.1,0.2l-0.3,1.2l0.1,1.1l1.8,1.5l1.5-0.6l2.6,0.1l1.3-0.6
		l1.1,0.8l2.8-0.4l0.8,0.4l2.1-1.4l2,0.1l0.4,0.6l-1.1,0.3l-2.2-0.1l-0.3,0.5l2.4,0.3h2.4l1.4,1.3l1.4,0.8l-0.9-1.2l0.2-0.8l0.8,0.1
		l0.3,1l1.7,1.2l-0.3,0.6l-1.2-0.6l-0.3,0.1l2.3,1.6l0.9,1.3l0.5,0.9l-0.4,0.2l-0.3-0.6l-0.2,0.7l0.4,0.7l2.7-0.4l1.7-0.2l2.4-2.4
		l0.8,0.3l0.3-0.3v-0.4l1.2-1l1.9-0.3l1.2,0.7l2.1,0.7l0.9,3.2l1,1l0.6,0.2l0.2,1.9l1.3,1h0.8l-0.1,0.7l0.8,1.4l1.4,0.2l1.2,2.3
		l-0.2,2.2l-1.2,4.4l-1.8,3.4l-0.1,1.4l1.1,1.9l0.5-0.5l1.1-1.5l-0.3-0.8l0.7-0.6l1.3,0.6l0.1,1.7l-2.3,3.3l0.5,1.1l0.1,1.8l1.1,1.3
		l0.4,0.9l0.7-0.2l0.5,1.7l0.6-0.8v-0.8l0.7,0.5l1.8-0.5l-1.4,1.3l-0.3,1.6l-0.7,0.9l0.2,1.1l2.3,1.8l0.3,1.9l-0.1,2.5l0.7,0.6
		l1.6,0.1l0.7,1.2l-0.2,1.6l2.3,1.8l-1.1,0.5l1.9,0.5l0.9,1.1l1.7,0.5l1.7-0.6l1.5-0.5l0.3-2.3l1.1-1.7l0.9-2.2l1.6-3.3l-0.2-1.6
		l0.5-0.9l0.3-3.3l-0.5-0.7l1.1-1.1l-0.6-2.8l-1.9-1.2l-1-6l-0.7-0.9l0.3-2.8l0.8-2.1l-0.7-1.7l-1.2-1.6l-0.9-4.5l-0.8-1.7l-0.4-4
		l-1-2.5l0.5-4l-0.3-2.6l0.5-5.8v-3.2l1.3-2.7l1.6-2.6l1.5-0.4l0.8-1.1l0.8-0.1l1.3-1.8l0.2-1.5l-0.7-0.5l0.5-0.5h2.2l0.3-1.1
		l1.8,0.1l0.5-1l2.8-0.3l1-1.3l2,0.2l0.5-0.9l1-0.3l1.1,0.5l1.6-1.8l0.1-1.2l0.9,0.1l1.5-1.3v-1.1l3.5-4.6l1.8-1.6l2.7-0.3l0.9,0.6
		l0.8-0.1l1.5-2.9l4.7-3.8l4.4-2.6l2.3-0.2l0.6-0.5l1.1-0.1l0.2,0.6l1.6-0.1l1.7-2l-0.7-0.3l-0.4-0.7l-1.7,1.5l-2.4-0.2l-1.4-1.3
		l1.7,0.7l2.5-1.1l-0.4-0.7l0.9-0.8l-0.6-0.9l-2.2-0.4l-1-1.2l1.3,0.1l1.3,0.6l1.3-0.5l0.2-1.3l0.7,2l1.3-0.2l1.3,0.8l0.8-0.6
		l0.7-1.4l2-1.6l0.6,0l0.4-2l-0.7-1.6l-0.5,0.1l-1,1.9l-0.1,1.2l-0.9-0.4l-0.3-2.8l-0.7-0.3l-3.8,0.6l-1.9,0.6l0.3-1.1l0.1-2.8
		l0.6-0.4l0.9,2l1.2,0.4l0.9-0.9l2.5-0.7l0.4-0.5h1.2l0.6-1l-0.3-2l-0.8-0.8l0.1-0.9l1,0.5l0.7-1.8l-0.5-1.7l-0.9-0.8l-1.3,0.3
		l-1.6-0.4l-0.7-2.3l-1.1,0l-1.5-0.5l-1.3-1.5l1.5,0.7l2.3,0.1l0.9,1.7l1.1,0.5l0.7-1.3l-2.4-2l1.9,0.4l0.1-0.9l0.6-0.5l-0.5-1.3
		l-2-1.3l-0.8-2.3l0.9,0.4l0.6,1.6l1.3,0.1l0.5-1.9l-0.3-1.6l-1.3-0.8l-2.1-2.6l-2.1-0.8l-1.1-1.7l-1.3-0.6v-1.6l1.3-1.8l-0.8,2
		l0.3,0.9l0.9,0.1l1.1,2.1l1.8,0.3l2.2,2.6l0.5-0.1l0.2-3.6l-0.1-1.8l0.3-1.3l-0.4-1.1l0.3-2.7l0.3-1.1l-0.9-1.3l0.8,0.1l1.2-0.9
		l1.9-1.5l0.5-1.8l-0.1-0.5l0.5,0.7l-0.4,1.8l0.5,0.6l-1.5,0.9l-1,2l1.5,2.5l-0.4,2.7l-1.3,1.9l0,1.8l1.5,1.9l0.6-0.7l0.2,0.8
		l0.8-0.1l0.1,0.4l-0.6,0.9l0.6,1.3l2.2,0l-1.6,0.9l0.3,0.4l-1.1,1.5l0.3,1.2l-1.1,1.8l-0.5,2l0.2,1.8l0.5-0.7l0.2-0.9l1.9-3.4
		l0.2,0.7l0.1,0.7l0.5-0.7v-1.1l1.1-1.8l1.5-3.8l2.1-1.2l1.5-3.5l0.1-2.3l-1.2-3.1l-0.9-1l-0.2-2.5l-0.8-0.9l-0.2-1.9l0.9-1.8
		l1.7-1.5l2-1l-3,3.3l-0.5,1.4l0.8,1.4l2.2,2.2l1.3-0.3l0.8,0.8l-1,2.5l1.4-1l0.2,0.5l1.5-1.9l0.2-1.2l0.8,0l0.7-1.1l1.3-0.4
		l0.8-2.8l0.9-1h0.8l0.7-2l0.7-1.2l-0.3-0.8l0.8-1.8l-0.1-0.7l1-1.3l-0.3-1.1l-1.2-1l-0.7-1.2l2.5-1.4l0.1-1.2l1.5-1.3l1.6-0.5
		l2.9-1.5l2-0.1l3-2.1l1.1-0.1l0.7,0.6l3.7-0.3l1.7,0.5l2.4-0.5l3.8-0.3l1.1-0.4l-0.7-0.9l0.3-2.5v-2.2l1.9,2v1.8l-0.2,1.3l1.2,0.2
		l1.7-1.7l1.7-3.2l0.9,1.7l-0.1,1.3l1.1,0.4l4.4-2.1l1.1-1.9l-0.9-3.2l-0.9,0.3l0.2,1.6l-0.7,2.1l-2.7,0.1l-0.3-1.5l-1-3l-2.4-1.3
		v-0.9l3.3-3l-0.1-1.4h-1.2l0.2-1.1l0.9-0.7l0.4-1.3l1.1-1.4l1.2-3.3l3.4-2.7l1.1-2.5h1l1.1-1.7l0.1,1.2l1.3,0.4l0.9-1.1l1-1.9
		l0.3,1.9h1.1l1.1-2.1l0.5,0.9l1.1-0.7l1.7-2.9l2.4-3l-0.5,1.8l0.5,1.5l1.7-0.3l1.6-1.7h2.1l0.5,2.1h1.3l1.5-2.1l1.4,0.6l1-0.5
		l1.7-1.1l1.4,0.1l2.3-1.3l0.6,1.1l1.6-0.2l1.2-1.5l-1.8-1l-0.8,1.3l-1.3-1.4l0.6-2.1l-3.5-2l0,0l-0.1,0l-0.4-0.6l0.5-0.8l-0.2-0.9
		l0.2-0.9l0.1-1.5l-0.8-1l-0.6-1.1l-0.8-0.2l0.5-1.3l2-11.8l-0.1-3l-3.6-3.5l-0.8,0.7l-2.6-0.7l-1.9,0.5l-1.3-1.2l-1.1-0.8l-0.6,0.2
		l-1.6,1.5l-0.7,1.5l-3.3,3.7l-1.6,2.1l0.1,1.6l-2.4,1.2l-0.3,2.1l-0.8,2.1l-2.4,2.9l-1.2,0.4l-3,3.2l-0.5,1.4l-1.1,0.7l-1.7-0.4
		l-1.2,0.1l-0.8,0.6l-0.8,0.2l-2.1,2l-27.2-0.5l-3.3,0.5l-1.6,1.6l-2.3,1l-1.8,1.5l-4.2,3.9l-2.6,0.5l-1.7,1.3l-7.8,5.8l-17.6,5.1
		l-0.8,4.6l-4.1,1.3l-32,8.6l-1.6-2.8l1.8-2.3l3.6-1.7l1.4-2l1-2l0.9-2.3l0.8-12.5l-6.1-28.6l-5.7-4.5l-2.4-3l-37.2-17.5l-1.4-1
		l-2.2-0.5l-1-0.9l-4.4-0.3l-0.7-1.5l-1-0.9l-1.5,0.9l-3,0.1l-1.4-0.6l-1.3-1.4l-1.9-0.5l-3.2-1l-0.9-2.1h-1.2l-2.2-1.7l-1.8,0.2
		l-1.4-0.5l-1.8,0.5l-0.7,0.2l-0.9-1.2l-2-0.5l-0.3-0.5l-1.9-0.6l-0.4-0.3l-1.2-1.3l-0.2-0.7l-2.1-1.7l-2.1,0.1l-1.8-0.2
		l-242.2-24.2l0.7,3.3l2,1.5l-0.2,1.3l-1.6,1.2l0.3,1.5l1.3,0.9l-0.6,0.7l-1.1,1.5l0.6,0.5l0.1,1.3l0.9,1.1l-1.5,1.9l-1.5,1
		l-0.5,2.4l-1.1,0.9l-0.1,2.1l-1,1.1l-0.6,1.6l-2,1.3l-1.5-0.8l-0.5-0.9l1.3-1.7l0.4,0.7l1.2-1l0.3,1.4l0.6-0.7l0.1-2.3l1.1-2.2
		l1.4-1.2l-0.2-1.5l-0.9,0.2l-1.9,1.6l-0.7,1.1h-1.5l0.1-0.9l1.7-1.7l1.9-0.7l0.5-1.1l-0.6-1.1l-0.9-0.1l-0.9,0.4l-0.9-1.7l-1.5-0.7
		l-4.2-0.3l-2.3-1.5l-4.3-3.8l-0.7,0.2l-0.3,1.9l-1.5,3.4l0.1,1.7l1,3.4l-0.9,4.8l0.5,2.4l-0.4,2.3l0.1,1.2l1.2,0.3l0.1,0.7
		l-0.7,1.1h-0.9l-0.5,1.5l0.7,0.8l1.5,0.6l-0.5,1.4l-0.1,1.8l-1.1,1.3l-0.6-0.3l-0.7,0.7l0.2,1l2.6,0.7l2.6,0.2l1.5,1.3l1.9,0.3
		l0.9,1.2l0.3,2.3l-0.9-2.1l-1.7-1l-1.1,0.2l-1.3-0.9l-3.2-0.1l-1.1-0.8l-0.6,0.5l0.1,1.5l-1.9,2.4v1.4l0.2,1.3l-1.5,2.6l-0.9,2
		l-2.6,5.7l-0.4,4.2l-2.3,4.4l-0.7,5l-1.2,2.4l-1.7,2l-1.1,3.1l-0.9,0.9l-0.5,1.9l-2.4,3.1l-0.7,1.6l0.3,3.6l-0.9,3.6l-0.1,2.4
		l1.3,2l-0.8,1.1l-0.1,1.5l0.7,2.3l-0.4,3.8l-1,2.1l-1,1l0.3,1.2l0.6,0.4l-0.9,2.5l-2.8,1.9l-1,2.1v2.1l1.6,2.2l1.5,3.4l0.1,3.8
		l-0.3,2.1l-1.1,1.7v0.9l0.8,1.6l0.2,1.9l-0.8,1.4l-0.3,1.2l0.4,1.1l3.9,6l0.3,1.8l-0.5,1.1l0.5,1.3l2.2,2l0.3,0.9l0.7-0.1l0.5,0.3
		v-2l0.1-2.1l1.2,0.7l0.5-0.4l0.2,0.7l1.5,0.1l0.5,0.7l2.3,0.3l-1.7,0.4l-1.6,0.5l-0.7-0.6h-0.8l-0.1,1.3l0.7,0.5l0.3,2.4l0.6,1.4
		l0.6,0.8l-1.5-0.8l-0.8-1.7l-0.8-0.5l-0.7,0.9l0.2,1.1l-0.9,0.9l0.2,0.9l-0.5,1.7l0.2,1.5l0.9,0.5l0.4,1.8l1.4,0.9l1,1l0.1,1.5
		l-1.2,1.3l-0.8-0.1l-0.1,0.8l0.5,1.9l-0.1,1.7l0.3,1.1l1.5,1.1l0.4,3.2l1.9,4.2l1.4,1.9l0.8,0.6l-0.4,0.6l0.1,0.5l1.5,1.7l0.6,1.9
		l-0.7,2.8l-0.5,1.5l-0.4,0.3l0.5,1.5l0.9,0.7l3.2,0l1.9,0.5l1.5,0.9l1.4,0.3h2.5l1.1,1.3v1.6l2.5,1.3l1.5,0.1l2.3,0.7l0.4,1
		l-0.1,1.6l0.6,0.3l0.9-0.1l1.2-0.3l2.1,2.2l3.2,4.9l0.4,2.8l-0.5,2.3l0.2,1.5l22.3-0.4L442.4,1322.5z M859.7,1232.3l-0.4,0.5
		l-0.7,0.5l0.4,0.7l1-0.1l0.8-0.8l1.3,0l-0.8-0.9L859.7,1232.3z"/>
	<path id="LOCATION_x5F_NEW_x5F_ZEALAND" class="st0" d="M675.1,1692.8l0.9-0.1l0,0.6l-0.6-0.1L675.1,1692.8z M593.9,1779.3l0.5-0.1
		v-0.7l-1.1-0.1l-0.2,0.4l0.2,0.1L593.9,1779.3z M656.7,1734.5h-0.3l-0.1-0.7l-0.9-0.2l-0.8,1.5l0.3,0.3l0.5,0.2l-1.2,0.8l-0.6-0.6
		l0.1-0.7l-0.6,0l-0.8-0.2l-0.8,0.5l-0.9,1.2l-0.8-0.4l-0.6-1.8l0.5-0.4l0.6-0.7l0.2-0.6l-0.3-0.1l0.1-0.5l-0.4-0.4l-0.6,0.5
		l-0.5-0.3l-0.5-0.6l0.1-0.8l0.8-1.1l-1-0.1l-1.7,1.1l-0.8,0.3l-1.1,0.9l-0.2,1.6l-1.1,2.9l-1.1,1.5l-0.6,0.2l-1.4,1.8l-0.4,0.9
		l-1.1,0.4l-1.3-0.1l-1,0.8l-0.3,1.1l-0.1,1.3l-0.7,0.3l-1,1.1l0,1.4l-0.6,0.8l-0.1,1l-2.3,2.7l-2.6,1.8l-1.3,0.2l-1.6,0.8l-0.2,0.9
		l-1,0l-2.4,1.2l-2.1,1.9l-1.2,0.3l-2.2,1.4l-0.2,0.7l0.4,1l0.2,1.3l-1.1-1l-0.5-0.2l-1.1,0.3l-1.1,0.3l-0.6-0.5l-1,0.1l-2,1.7
		l-0.7,0.9l-1.5,1.2l-1,0.3l-1.1,1.4l-0.3,1.5l-0.2-0.8l-0.5-0.5l-0.8,0.7l-0.8,0.5l0,1.5l-0.6,0.6l-0.6-0.4l-1.9,2.1h-0.5l-0.6,0.8
		l-0.1,2.2l-0.5,0.6l-0.5-1.1l-0.5-0.3l-0.5,0.8l-0.4,0.3l-1.1,1.8l0.1,0.8l1,0.9l0.5,0.6l-0.5,0.4l-1.1,0l-1.3,0.2l-1.5,1.7
		l0.8,0.1l0.6,0.2l-0.7,0.4l-0.2,1.2l0.9,0.9l0.6,0.3l1.6,0.1l0.2,0.4l0.5,0.1l0.2-0.7l0.7-0.1l1,0.5l0.4,1l-0.3,0.4l0.7,0.6l1,0
		l0.5,0.5l0.2,1.2l1.2,1.1l0.8,0.6l-1.2,0.7l0.6,0.1l1.7-0.8v0.7l1,0.3l1.6-0.2l2.2-0.9l1.8-1.6l1.2-0.5l0.1-0.6l-0.3-1l0.8,0.6
		l-0.2,0.9l1.5-0.6l0.4-1.4l0.8-1.2l1.9-0.8l1.6,0l0.6-0.4l-0.1-0.4l-1.1,0.2l0.7-0.4l0.2-0.4l-0.3-0.2l1.4-1.6l1-1.8l0.5-1.9
		l0.9-1.1l2.7-2l0.6-1.1l0.2-1.3l1.2-2.1l0.7-1l0-1.1l1.1-1.3l1-0.5l0.3-1.1l0.9,0.7h0.7l0.4-1l1.1-0.1l0.7-0.2l0.8-1.1l-0.1-1
		l-0.8-0.9l1.1,0.5l0.5,1.3l0.5,0.1l0.8-0.3l0.1-0.6l0.8-0.6l0.9,0.3v0.5l-1.1,0.5l1.3,0l1,0.4l0.4-0.6l0-0.9l0.3-0.4l0.4,0.3
		l-0.1,1.3l0.4,0.3l0.6-0.5l0.2-1.7l-0.5-0.9l-0.9-0.2l0.4-0.5l-0.1-1.5l0.5-2l0.9-0.4l1.7-0.5l1.9-1.2l0.3-0.7l1.4-1.7l0.2-1.2
		l1.3-1.4l1,0.1l-0.1-0.5l2.3-2.3l0.2-0.7l3.3-2.9l1.1-0.7l-0.6-0.2l-0.1-1.2l-0.5-1.2l0.1-1.1l0.3-1.1l0.4,0.1l1.2-1.6l-1,0.3
		l-0.9,0.1l1.3-0.8L656.7,1734.5z M692.9,1702.4l-0.6-0.7l0.5-0.2l0.1-0.4l-1.4-0.3l-1.3,0.9l-2.3,2.4l-1.5,0.1l-0.8,0.4l-1.1-0.5
		l-2.6-2.7l-0.8,0.1l-1-1.4l-0.4-0.9l0.6-0.7l0.2-1.4l-1-2v-1l-0.4-0.7l0.1-1.2l0.3-0.9l-0.6-0.1l-0.2-1.4l-0.3-0.8l-0.5,0.3l-1-0.6
		l-0.3,0.5l0.9,0.9l0,1.2l0.2,0.5l-1,0.9l0,0.9l0.8,1.1v0.7l-1,0.3l-0.7-0.8l-0.1-1.1l-1.3-0.2v-0.6l-1-0.5l-0.8,0.1l-0.1-0.6l1-0.6
		l0.4-0.9l-1-0.8l0.7-1.4l1-0.2l0.3-1.3l-0.4-1l0.3-0.7l-0.4-1.1l0.1-1.4l-1.3-1l0.1-0.6l0.8,0.5l1.1-0.2l0.2-1.4l0.5-0.5v-1.8
		l-0.5-1.6l0.2-1.1l-0.6,0.2l-1.5,0.6l-1.1-1.1l0.7-0.6l-0.7-0.6l-0.5-0.1l0.5-0.7l1-0.5l-0.2-0.7l-1.2-0.3l-0.8-0.7l-0.8,0.3
		l-0.2-1.1h0.5l0.4-0.7l-0.6-0.1l-0.6,0.5l0,0.7l-0.5,0.9l-0.8-0.4l0.3-1l-0.5-0.8l-0.3-1.6l0.1-1.1v-0.4l0.3-0.1l-0.6-0.6l-0.6,0.4
		l-1.7-0.1l0,0.4l0.8,0.9l1.4,3.3l0.2,1.2l-0.2,2.1l-0.5,0.5h-0.5l-0.2,0.3l0.7,2.6l0.4,0.4l1-0.7h1.3l-0.9,0.3l-0.9,1.1l0.3,1.5
		l0.8,1.7l0.3,3.2l0,1.9l0,1.3l0.7-0.3l0.3-1.1l-0.3-0.8l0.4-0.3l0.5,0.7v1.1l0.7-0.1l0.1-0.5l-0.2-0.4l0.4-0.1l0.1,0.9l-0.7,1.2
		l-0.3,1l-0.1,0.6l-0.5,0.1l-0.5-0.7h-0.5l0.3,1.9l0.9,2.5l0.5,0.2l0.4-0.2l0.5,0.8l0.1,0.6l0.6,0.4l-1.3,0.8l0,0.5l0.4,0.4
		l-0.4,0.9l-0.7,2.2l0,1.1l-0.3,0.4l0.6,0.7l-0.3,0.5l-0.9,0.1l-0.5,1l0,0.6l0.7,0.7l-0.7,0.4l-0.8,0.1l-0.5,1.4l-0.8,4.5l-0.1,1.1
		l-0.9,0.7l-0.9,0.1l-1.1-0.4l-1.2,0.2l-2.4,1.1l-1.1,1.2l-0.3,1.5l0.3,2l1.1,0.9l1.8,1.1l0.9,1.6l1.7,0.6l0.7,0.7l0.3,2.7l0.1,0.3
		l-0.3,0.3v1.5l-0.5,1.2l-2.5,3.2l-1.8,1.9l-1.9,1.7l-0.7,0.8l0.2,0.6l1.3,0.3l0.3-0.7l0.5,0l0,0.9l-0.1,0.6l0.3,0.2l0.5-0.2
		l0.4,0.5l-0.1,1l0.3,0.4l1-0.1l2.3-1.7l2-1.7l1.9-2l1.8-2l2.2-2.7l1.2-0.8l0.8-0.1l0.5-0.7l0.1-1l0.5-0.6l1.2-0.5l0.8-2.5l1.3-1.9
		v-0.5l0.6-0.6l-1-0.9l-1.1-0.2l-0.8,0.1l0.9-0.7l0.8-0.2l2.8-3l1.2-0.5l2.1,0.3l1.1,0.1l-0.2,0.8l0.1,0.9l1.1-1l0.8-0.4l-1.5-0.6
		l0.2-1.2l0.8-2l0.7-0.8l1.1,0l0.3,0.4l0.5-0.5l0.7-1l1.7-2.6l0-0.9l0-0.9l0.5-1.5l1-1.1l1.1-0.7l-0.2-0.3L692.9,1702.4z
		 M601.2,1793.3l0.1-0.6l-0.7,0.4L601.2,1793.3z M598.2,1793.3l0.7-0.1l0.1-0.3l-0.2-0.4l-0.5-1.3l-1.1-1.1l-1.1,0.3l-0.2,0.9
		l0.1,1.2l-0.3,1.1l-0.9,0.2v0.8l-0.5,0.3l-1.2,1.3l0.2,0.5l0.6,0l0.9-1.1l0.4-0.1l0.4,0.3l0.7,0l0.7-0.5l1.4-0.5l0.5,0.2l0.4-0.5
		l-0.1-0.5l-0.6-0.3l-0.5-0.5l-0.4-0.1l0.6-0.2L598.2,1793.3z M655.7,1731.8l0.2-0.6l-1-0.3l-0.7,1l-0.1,0.9l-0.1,0.3l0.3-0.1
		l0.6-0.9L655.7,1731.8z M654.9,1733.8l-0.6,0.2l-0.5,0.6l0.6,0L654.9,1733.8z M654,1733.9l0-0.3l-1.3,0.7l0.7,0L654,1733.9z
		 M679.2,1687.7l-0.2-0.6l0.4-0.3l-0.4-0.6l-0.1-1l-0.7,1.7l0.7,0.9L679.2,1687.7z M677.1,1686.8l-0.5,0.2l0.3,0.4L677.1,1686.8z"/>
	<path id="LOCATION_x5F_NETHERLANDS" class="st0" d="M376.6,523.8l-2.6-0.5l4.1-1.3l1.4,2.6l-2.3,0.3L376.6,523.8z M379.8,520.4
		l0.5,1.4l2.2,0.8l1-1l-3.9-2.2l-3.1-0.4l0.5,2L379.8,520.4z M369.9,535l3.4,0.4l2,2.7l2.7-2.1l4.3-0.3l1.1-1.3l3.3,0.1l1.7-3.1
		l7.6,1l2.3,2.9l3.9,0.4l1.7,3.3l6,0.4l1.6,3.9l-0.6,2.8l3.7,1.6l2.4-4.7l2.3-7.3l-0.6-6.7l3.3-3.2l3.3-4.2l6.1-0.8l5.5,2l3.4-1.4
		l-1.9-4.5l3.2-1.8l1.2-4.8l1.6-2.6l-2-2.4l-5.5-0.5l-0.3-3l2.4-4.1l4.4,2.6l3.2-2.1l0.6-4.4l2.2-3.7l0.6-2.5l1.5-1.5l0.2-0.9
		l-4.2-1.9l-3-3.4l-5.9-4l-6.7,0.3l-4.3,3l-3.6-2l-2.5,1.3l-5.5-0.5l-5.7,5l-8.6,3.5l-1.6-1.4l-5,1.3l-0.8,5.4l-4.8,2.9l0.8,5.4
		l-1.6,4.6l-2.3,3.7l-1.8,2.6l-3.7,2.1l-0.2,3.4l4.6,5.2l4.4,1.9l-5.1-0.6l-2.6,1.8l-1.7,1.2l1.7,2.8l2.5,0.6l-0.1,2.2l-4.1-0.3
		l-3.3-4.3l-3.7-2.3l-3.9,1.1l1.1,2.2l3.5,0.7l2.9,3.4l1.2-0.4l3.9,3.4l-3.9-2l-2.6-0.1l-5.9-2.7l-3.9-0.4l-0.2,0.1l2.4,1.5
		L369.9,535z"/>
	<path id="LOCATION_x5F_DENMARK" class="st0" d="M525.7,430.2l0-0.1 M549.8,439.4l0.5,1.8l2.4-2.7l3.1-0.2l-0.4-2.5l-3.4,1
		L549.8,439.4z M533.4,417.5l1.4,3L534,425l2.2,3.4l2.8,0.3l5,2l0.6,2.1l-2.2,2.1l1.4,2.5l3.4,0.2l2-2.2l0.2-3.1l4.9-1.4l2.5-1.8
		l-0.5-2.8l-3.7-3.2l0.2-1.6l4.9-1.7l2.1-5.2l0.1-4.9l-0.9-3.9l-5.2-0.4l-6.1,0.8l-2.6,3.7l1.3,2.1l3.2,2.8l-0.6,2.3l-2.3-0.8
		l-1.1,1l-3.7-3.2l0.1-2.1l-1.8-2.9l-2.3,1.2l-2.2,3.2l-2.8,0.5L533.4,417.5z M560.9,417l-2.1,4.5l3,1.3L560.9,417z M610.6,441.7
		l-3.2-6.7l-3.8-2.9l-1.8,5.8l0.7,4.3l6.8,3.2L610.6,441.7z M524,429.3l-0.7-3.7l-2.2-6.6l-3.1,0.1l-4.6-3.1l-6.9,0.5l-1.6,5.4
		l1.7,5.1l3.7,4.8l3.7,0.9l2.3,1.9l4.4-0.3L524,429.3z M530.1,441.9l-2.6,0.7l1.5,2.7l6.1,2.9l6.4,0.2l2.5-2.5l0.7,3.5l1,0.7
		l0.3-3.6l2.5-3.7l-0.4-3.2l-0.9,0.6l-3.6-0.6l-1.8,3.2l-2.3-0.3l-2.9,0.6l-3.5-6.3l-2.2,0.3l-2.1,2.6L530.1,441.9z M569.3,456.4
		l-1.4,3.1l1.1,1.7l4.4,2.1l3.4-3.6l2.6,1.1l0.6-2l-1.5-3.6l1.4-3.6l-3.2-1l-1.6,0.6l-1.3-1.1l-3.5,0.5l-0.1,2.8l3.4,0.7l-1.1,1
		L569.3,456.4z M530.9,362.3l3.3,0.3l3.9-2.2l-4.8-0.6L530.9,362.3z M488.7,374.2l-0.1,4.7l2.4-0.8l4-3.6l1-2.8l-3.6-0.2
		L488.7,374.2z M525.1,438.7l3.2-4.9c0,0-2.4-2.9-2.6-3.6l-1.8,6l-2.2,3.3l0.6,2.2L525.1,438.7z M527.9,345.9l-6.7,5.3l-6,1.9
		l-4.1,0l-3.2,3.9l-2.8,4.9l-4.7,2.6l-4.8-0.6l-6.2,3.9l-1.5-1.3l-3.3-0.2l-2,4.7l-3.8,3l1.9,2l2.1-0.9l4.1,5.9l-0.3-5.9l1.3-2.9
		l8-3.8l0.9,0.9l3.8-0.2l4.7,1.5l3.4-0.8l4.4,0.5l3.5,2l2.6-0.8l5.2-7.1l-0.4-4.8l1-1.8l-0.5-4.6l3.9-5.4L527.9,345.9z M517.7,439.9
		l1.8-1.3l-4.7-2.4L517.7,439.9z M524.1,409.2l-1-5.9l-0.8,6.1l-2.6,3.2l3.6-0.3L524.1,409.2z M493.8,435l2.3,1.4l4-0.2l-0.2-0.3
		l1.5-2.6l-2.7-3.4l-1.7-0.2l0.5-3l2.8-1.9l0.7-3.3l-2.1-1.3l0.5-3l9.1-3.4L507,412l3.6-3.2l1.7,1.4l4.8-1.2l0.5-6.1l-1.6-4.3l3-2.4
		l4-0.1l2.4,3.4l1.7-1l1.6,0.9l1.8-2l1.8-3.6l-3.4-4.7l-2.4,1.4l-5.2-0.8l-2.2-3l-2-3.8l-2.1-0.8l2.2-2.2l0.5-4.6l-3.9-3.4l-6.7-0.3
		l-3.4,1.2L500,372l-1.9,1.3l3.1,5.5l-1.2,1.6l3,4.8l-0.5,1.3l-3.2-1.8l-3.8,0.4l-0.4-2.1l2.7-2.3l-1.9-4.5l-1.2-0.1l-4.1,4.5
		l1.7,3.1l-4.6,2.6l-2.2-3.2l-3.7-0.4l-2.4-1.7L476,384l4.3,4.1l-0.5,4.2l-2.6-2.5l-1.9,0.3l0.2,5.7l2.9,2l-0.6,5.1l2.2,2.8
		l-6.4,2.2l-3.3,6.1l2.3,2.3l4-1.6l4.5,5.2l0.2,6.9l-2,1l0.5,3.5l5.9,0.4L493.8,435z"/>
	<path id="LOCATION_x5F_FRANCE" class="st0" d="M431.2,749.7l1,5l-0.8,0.1l-15.3,8.9l-4.5,4.5l0.6,2.3l-4.6,3.1l-10-1.7l-3.4-3.6
		l-12.6-10l-3.3,0l-3.7,2.3L371,760l-5.1-3.8l-5-1.3l-2.3-2.1l-2.6-0.1l-8.8,7.4l-5.6,4l-0.9,3.7l-2.6,7.4l0.9,6.6l0,2.2l-2.7-1.3
		l-6.9-5.4l-10.6-0.2l-6.1-4.3l-6.2-0.1l-3.6-2.6l-10.2-0.8l-4.3,3.6l-2.9-2l-6.2-0.5l-4.4-5.7l-4.8,1.6l-3.7-5l-8.5-4.6l-6.7,0
		l1.1-3.5l-0.3-4.8l-2.7-0.8l-0.4-1.2l-3.6-2.6l5.5-2.5l5.6-12.8l2.9-15.1l3.1-1.9l-3.3-2.8l0.8-8.1l3.5-10.9l2.4-1.3l4.3,2.9
		l0.9,5.6l5.1,6.3l-3.8-13.3l-6.2-6l-3.6-1.3l1.5-3.8l1.1-0.4l2.2-4.2l-1.7-3.4l0.6-3.9l-4.9-3.6l-5.3-1.5l-4.8-7.6l-3.7-0.9l-0.5-3
		l2.5-3.5l-0.3-4.5l-2.3-1.3l2.9-3.3l4.1,0.3l3.3,2.4l-2.4-4.2l-4.5-1l-4.5,2.2l-2.7-0.5l-1.7-3.5l2.2-4.2l-1.9-2.5l-4,1.8l-1-1.7
		l1.1-2.4l-2.1-0.8l-3.9,2.8l-4.5-3.8l-2.9-0.3l-1.2-2.7l-6.8-3.7l-2.8,0.2l-3.1-1.2l-4.9,2.5l0.8-2.7l-1.1-4.9l-3.9-0.4l0-1.2
		l4.2-1.1l2.7-0.7l-0.3-3l-2.6-1.3l-1.7,3.1l-1-4.4l2.6,0l4.1,1.3l-0.8-1.6l-3.8-1.6l-4,0.9l-1.4-3.1l3.5-3.2l6.8,0.3l3.2-2.6l4.6,0
		l2,1.8l2.8-2.1l2.1,1.4l4.7-3.4l5.4-0.6l3.4,1.6l5.3,9l5.4-3.5l1.4,1.7l4-0.6l3.1,1.2l3.5-0.8l7.7,1.9l-0.1-3.9l-2-3.3l1.2-3.3
		l-0.6-3.5l1.6-2l-6.7-7.8l1.1-2.1l-0.9-5.3l2.3,1.3l5.2,0.8l3.9-0.9l3.4,2.1l-1.8,3.4l2.6,2.5l1,3.2l3.4-1.5l3.7,2.5l8.7,2.2
		l6.6-0.6l5.7-3.1l-3.7-1.8l-1.2-2.9l2.5-3.7l9-3.6l3.9,1.8l3.7,0.3l7.4-1.2l0.3-2.7l7.2-5.5l2.3-8.1l-0.4-5.4l2-4.2l6.9-3l1.7,1.7
		l8.3-1.8l0.8-1.2l2.4,2.2l0.1,7.9l4.9,2.5l0.4,3.8l5.7,5.9l2.8,0.1l2.5,2.6l2.9,1.8l-0.4,6.2l4.4,3l2.6-1.3l2.7,0.3l1.7,2.5l2.8,1
		l4.4,7.1l4.5,0.8l3.7,3.4l2.1-1.1l3.2,0.4l0.3,0l2.1,4.5l5.5,1.8l3.3-0.4l3.8,3.7l-0.3,2.8l3.5,3.7l3.9-0.9l3.9,0.4l2.8,1.5
		l4.2-0.8l5,3l4.2,0.5l4,3.4l-5.6,4.6l-3.2,6.5l-0.4,3.4l-3.4,2.6l-3.2,7.5l-0.4,6.5l3.6,2.8l1.6,4.6l-7.5,1.4l-4-0.9l-1-3.1
		l-5.2-0.3l-3.3,3.2l4.4,2.9l0.3,4.3l-4.2,1.3l-5,5.2l-3.5,0.9l-6.9,8.5l-1.8,6.7l-0.4,4.4l-2.6-0.5l-2.7,1l0.1,3.6l4.8,1l5.8-1.6
		l-1.5-5.7l3.4-2.4l6.6,1.1l1.8,4.5l1,5.7l2.3,2.4l0.3,3.8l-0.3-0.2l-2.2,2l0,5.6l3.8,4.4l-2.2,7.3l-5.3,0l-3.6,3.2l4.8,6.5
		l-0.4,11.7l6.6,5.7l6.8,0.8L431.2,749.7z M448.2,799.6l0.5,3.3l3,2.1l-0.2,1.7l-1.8,0.8l1.1,2.4l2.9,2l-0.5,3l1.5,0.2l1,2.2
		l-1.7-0.5l-1.8,2.2l1,2.2l6.4,3.7l4.5-1.5l3.2-6.8l0.5-5.8l3.9-10l-1.3-9.3l1.2-5.7l-0.4-6.6l-2.2-0.3l-1.3,3.8l1,3l-1.1,4
		l-1.7-0.2l-2.4-3.2l-3,2.4l-7.1,1.6l-3.7,5.1l2.3,2.7l-1.1,1.9L448.2,799.6z"/>
	<path id="LOCATION_x5F_GERMANY" class="st0" d="M451.5,486.3l0.2-0.9l0.4,0.2l-0.5-4.3l-4.8-1.4l-1.6-4.1l1.4-4.3l10.3-1.6l3-1
		l4.5,4.1l-0.6,5.1l3.2,4.8l2.5-2.1l-1.6-4.1l0.4-3.2l2.1-0.6l2.9,3.3l-0.9,5l4.3,6.2l-1.5-4.5l0.6-6.5l-0.4-3.8l3.2-4.1l3.6-0.3
		l3.4,2.3l5-1.3l6.2,8.6l9.5,3l-8.8-4.9l-6.2-8.2l-5.4-1l-2.8-2.2l0.4-3.2l3.9-2.3l-3.8-3l0.6-5.2l-4.1,1.2l0.3-3.9l3.7,0.4l4.2-1.1
		l-4.4-5.1l0.7-3.2l-2.4-0.4l-2.8-2.4l0.8-3.7l-0.2-1l5.9,0.4l8,3.2l2.3,1.4l4-0.2l3.8,5.2l4.4,1l-3,4.8l-2.5,2l0.9,2.7l3.4,1.4
		l0.9,3.9l3.7-2.1l1.5-2.2l2.3-1l1.4,2.6l5.2,4.7l1.4-1.5l3.9-2.4l1.7,1.2l-0.3,3.8l-3.4,3.2l-2.7-0.7l-4.3,2.3l5.5,2.3l2.1-0.7
		l4,0.9l1.2,2.6l4.7,0.1l1.1-3.1l3.6-3.9l8.4-0.3l0.5-2l4.7-1.8l0.8-2.2l2.1-0.8l5.8,1.3l-4.9,1.3l-1.9,1.6l-0.7-0.7l-2.6,2.1
		l1.5,1.9l4.9-2.7l5,0.1l2.1-0.8l1.3,2.5l3.8,1.1l5,6.2l4.7-0.3l2.1,4.2l-1.3,4.1l3.7,3.7l3.8-0.1l2.4,2.7l4.1,0.2l1.2,10.3
		l-1.5,7.4l-6.7,2.5l-0.4,3.1l6.1,8.2l-1.3,4.4l2.8,4.6l-0.4,3.4l1.4,4.9l-2.2,3.7l3,9.7l2.8,2l2.3,3.8l-1.1,12l-1.4,1.8l-1,1.3
		l-3-2l-3.1,1.6l-6.8-2.4l-0.5,4l-4,1.8l-3.1-1.2l-7.5-0.7l-2.8,3.4l-4.9-0.4l-4.9,4.5l-3.9-0.1l-8.7,6.4l-3.5-2.2l-1.9-2l-2.1,1.2
		l-0.1,3.4l5.5,4.2l3.9,7.8l-1,5.4l0.8,3.5l4.1,2.9l7.1,6.1l4,3.4l7.8,11.4l-0.1,0.1l-1.2,4l-0.3,4.5l-3.6-0.4l-3.1,4.2l-5.5,2
		l-6.8,6.9l-0.3,2.9l5.2,3.4l0.2,4.3l-2.4,1.4l-4.7-3.5l-5.2,0.9l-5-2.1l-3.6,0.1l-7.7,3.9l-3.9,0.4l-3.4-1.5l-4,0.5l-3-2.5l-6-1.7
		l-6.1,0.1l0.1,3.1l-1.7,1.6l-5.5-2.1l-2.7-3.7l-4.2,1l-2.7,1l-1.2-0.1l-2.1-1.8l-5.6-5.2l-3.1-0.5l-2.5,1.8l-2.6-1.1l-1.1-4.5
		l-4.7,1.1l0.2,2.8l-1.9,2.6l-5.3-2.6l-4.3,1.8l-3.5-1.5l0.1,0l-1.6-4.6l-3.6-2.8l0.4-6.5l3.2-7.5l3.4-2.6l0.4-3.4l3.2-6.5l5.6-4.6
		l-4-3.4l-4.2-0.5l-5-3l-4.2,0.8l-2.8-1.5l-3.9-0.4l-3.9,0.9l-3.5-3.7l0.3-2.8l-3.8-3.7l-0.1,0l1.2-7.1l-2.2-2.4l-0.4-5l-4.6-7.2
		l-1.5-0.2l3.3-5.8l-2.3-4.5l0.5-2.7l-2.6-7.3l1.8-3.1l-0.5-0.2l2.4-4.7l2.3-7.3l-0.6-6.7l3.3-3.2l3.3-4.2l6.1-0.8l5.5,2l3.4-1.4
		l-1.9-4.5l3.2-1.8l1.2-4.8l1.6-2.6l-2-2.4l-5.5-0.5l-0.3-3l2.4-4.1l4.4,2.6l3.2-2.1l0.6-4.4l2.2-3.7l0.6-2.5L451.5,486.3z"/>
	<path id="LOCATION_x5F_SWITZERLAND" class="st0" d="M505.6,673.9l-5,4.9l1.4,7.4l-9,0.9l-1.9,8.3l-3.5-3.7l-3.9-0.1l-9.4-3.7
		l-0.7,6.2l-5.5,7.5l-1.7-4.8l-6.7-4.4l1.2-5.1l-4.8-3.8l-9.7,13l-5.5-3.3l-9.5,5.5l-4.6-2.4l-0.3-3.8l-2.3-2.4l-1-5.7l-1.8-4.5
		l-6.6-1.1l-3.4,2.4l1.5,5.7l-5.8,1.6l-4.8-1l-0.1-3.6l2.7-1l2.6,0.5l0.4-4.4l1.8-6.7l6.9-8.5l3.5-0.9l5-5.2l4.2-1.3l-0.3-4.3
		l-4.4-2.9l3.3-3.2l5.2,0.3l1,3.1l4,0.9l7.4-1.4l3.5,1.5l4.3-1.8l5.3,2.6l1.9-2.6l-0.2-2.8l4.7-1.1l1.1,4.5l2.6,1.1l2.5-1.8l3.1,0.5
		l5.6,5.2l4.6,4l-0.7,3.7l-1.6,2.8l1.2,2.7l2.3,0.4l3.5,0.6l2.9-0.8l4.1,5.1l4.3-3.1l3.6,0.4L505.6,673.9z"/>
	<path id="LOCATION_x5F_UK" class="st0" d="M201.5,332.3l0.9,2.6l-1.7,1.2l-1.4-3.7L201.5,332.3z M204.9,369.6l4.3-7.1l-8.4,6.2
		l1.1,4.2L204.9,369.6z M205.1,312.6l-2.3,0.8l-0.1,5.1l-4.4-3.8l-0.2,3.9l-1.4-1.2l-1.9,1.4l3.7,3.5l0.4-1.6l1.5,1.4l-0.8,1.3
		l2.4,5.7l5.2,0.1l-0.2,4.3l1.8-0.1l1.7-3.7l3.2-1.4l-1.5-1.4l-2.6,0.2l-4.2-2.9l1.4-7.4L205.1,312.6z M267.3,272.5l-2.1,0.1
		l1.6,2.1L267.3,272.5z M322.4,522.2l-1.7,0.7l2.5,1.7l2.4-0.3l-1.1-1.7L322.4,522.2z M195.8,303.9l-2,0.7l-1.1,1.7l-1.6,0.7
		l2.6,2.5l5.4-3.8L195.8,303.9z M199.9,363.9l-0.3-2.3l-1.8,4.1L199.9,363.9z M186.8,350.3l4.2-2.5l-3.5-0.7L186.8,350.3z
		 M199.4,296.5l-4.4-2.7l-2.8,2.8l2.1,2.8l-2.1,1.3l1.8,2l3.9-0.2l3.8,1.5l3.3-3.6l-1.2-1.2l1.6-3.1l4.2-3.1l0-5.8l-10.8,6
		L199.4,296.5z M184.1,316l-0.2,1.4l2.7,1.4l1.5-3L184.1,316z M262.5,277l-0.1,3.2l4.2-0.1l2.1,1.7l0.5-3.4l-4.9-0.1l1.8-1.7
		l-2.3-2.9l-3.3-0.1l-0.5,4l1.3,1.8L262.5,277z M212.1,317.7l0.1,5l-0.3,1.6l5.7-0.2l-3.9,1.4l-0.5,1l1.1,0.9l3.7-0.9l-0.9,0.8
		l1.2,2l-2.5-1.4l-1.1,0.6l-1,2.3l1.3,1.2l-2.1,0.1l-1.6,1.9l2.3,1.1l0.3,1.9l-3.8-2l-1.1,2.6l1.5,1.3l-1.1,1.6l-2.1,1.2l-3.9-0.4
		l-1.9,1.6l1.4,1.1l3.4,0.2l2.2,0.9l-0.6,0.9l-2.6-0.3l3.1,3.7l1.1-0.3l1.6,2.1l10.1-8.1l-1.8,2.6l1.3,1l-2.8,0.6l-2.8,5l0.1,1.3
		l-3.4,5l1.1,0.8l-3.1,6.1l0.1,4.2l-2,2.2l1,2.2l1.7-0.6l-3.4,4.2l-1.2,6.3l-2.4,1.8l0,1.6l4.8,0.5l-0.3-3.4l2.6-4.5l0.2-2.9
		l2.8-2.7l-1-8.1l1.8,0.2l6.4-6.1l-5,5.9l-1,4.6l1.5,1.4l0.6-2.7l3.1-2l0.8,4.4l2.9-4.9l-0.1-3.7l2-0.7l-1.3,4.6l4.3,4.1l-3.9-1.6
		l-2.1,5.8l0.4,4.5l2.4,0.9l1,4l-4.1,3.3l-4.8,9.2l0.4,4.4l-3-2.4l-0.4,4.7l3.7,6.7l-0.7-5.9l3.2-0.5l7.2,6.6l0.7-4.5l-2.9-3
		l2.1-0.3l5.8,4.7l4.5-0.2l0.2-1.9l4.1,0.6l1.6-3.7l11,1.7l-7.5,1.1l-5.9,12.1l4.3,10.4l2.9-1.3l-0.6,5.2l4.1-3.9l4.3,1.2l-2.1,5.2
		l1.3,1l-4.8,2.9l0.7,6.2l-2.9,4.3l2.3,3.8l2.9,3.2l2.6,0.6l-1.9,1.1l-3-0.2l-2.1-3.9l-2.6,0.7l1.6,3.8l2,1.6l-3.4-1.2l-2.5-3.2
		l-7.4,1.5l-3.2-0.9l-7.8,2.8l-4.4,4.9l-5.7,2.8l-2.7,3l3.5-0.2l1.6,0.8l0.7-1.9l7.8-1.1l-1.1,3.9l2.3,3.1l-3,1.7l1.3,3.2l1.7,0.6
		l-6,8.8l-3.7,0.8l-3.9,2.3l-1.8-0.1l-4.9,2.3l-3.3-0.4l-5.8,2.9l4.2,1.1l-0.1,3.1l-3.2,1.1l5.3,1.5l-1.5,1.1l2,1.4l3.2-0.5l3.8-1.8
		l6-1.2l0.2,2.7l4.5,1.6l-3.8,0.6l-0.7,2.1l6.3,0.9l0.1-1.2l3.2-0.5l2.8,4.1l2.5,3.8l7.2,0.7l2-2.7l3.6-1.1l4.9-1.2l2.1-2.4l4.1-1.4
		l-6.1,5.6l-5.9,4.5l-1,6l-3.6-0.6l-3,0.7l-3.1-2.2l-9.2-2.1l-6.8,1l-0.3,3.4l-3.1,2.4l-3.6-0.4l-1.5,7.6l-4.3,3.1l-1.2,1.9
		l-4.4,0.3l-1.6,4.3l-1.9-0.2l-1.3,2.2l-5.7,3.2l-2.3-1.1l-3.9,2.2l-0.4,3.4l4,0.7l0.5-3l4.7,1.8l1.6,3.8l2.6-2l-0.8-1.8l2.6-2.7
		l0.9,1.5l3-2.3l1.8,0.2l1.7-3.1l4,1.6l3.4-1.1l2.6,0.7l2-0.8l1.6,2.7l2.2,0.1l2.8,2.9l3.6,0.2l-0.4-2.4l2.9-1l1-2.1l-0.3-4l2.7-2.1
		l2.1,0l1-1.5l8.2-0.9l4.1,0.8l4.4,3.9l1.9-0.5l5.2,0.8l2.7,1.3l1.7-3.2l5.1-1.9l3.2,1.3l5-2.6l3.2,1.1l1.7-0.1l2.5-1.5l0.5,1.8
		l2.6,1.9l3.5-1.8l7.3,0.7l4.7-0.4l4.2,2l2.2,0.7l3.6-2.3l3.7-0.3l3.6-2.7l2.2,0.1l2.2,0.8l-0.2-2.6l5.6-3l3.3-0.3l0.6-3.2l-0.7-2.4
		l1.3-2.6l-5.9-0.5l-4.3,1.1l-2.5,0.2l-3.7-1.8l-1.4-0.5l1.5-1.1l1.2,0l0.5-0.7L318,520l-3.2,0.8l4.6-2.5l2.8,0.6l3.6-1.3l-0.7-3
		l-3.4-0.4l2.8-2l2.1-1.6l1.8,2l3.4-1.9l1.5-1.8l-1.5-0.5l1.2-1.4l-3.6-0.8l1.7-2.3l2.2,0.9l0.5,1.8l3-3.2l2.7-0.8l1.2-6.4l3.1-5.8
		l-1.6-2.6l-0.4-5.6l-6.8-6.7l-10.3-1.7l-6.5-0.5l-1.1,4.8l-2,2.6l-3-4.2l-4-1.5l7.2-5.7l0.5-4l-4.2-8.9l-2-0.6l-4.2-3.1l-1.5-3.4
		l-2.3,0.2l-1.7,0.3l-2.6-1.2l-1.6-0.2l3.1-0.4l1.9,0.7l3.4-0.3l1.9,1.2l1.6,2l2.3-0.2l2.2,0.7l-5.2-8.2l-2.4-3.9l2.1-2.6l1.7-0.4
		l-2.8-2l-1-2.4l-1.2-0.3l-2.8-6.9l-5-3.4l-7.3-2.5l0-3l-1.6-1.2l-1.4-8.4l-2.2-4.8l-0.7-10.6l-1.8-3.7l-2-0.2l-5.2-10l-3.6-1.3
		l-2.6-2.7l-4.6-2.4l-2.1,1.5l-4,2l-5.1-2.3l-2.6,0l-4.1-1.8l-1-2.5l2.4,1.6l5,1l4.4-0.9l1.7-3.2l4.3,0.6l4.2-2.5l-3.8-2.3l0-2.3
		l-1.5-1.5l-5.8,2.3l-0.8-1.2l4.6-2.6l5.1,0.9l3.3-2.3l0.8-2.3l2.2-1.1l3.6-5.4l2.2-2.5l0-1.9l2.6-3.6l-0.6-1.5l2.5-5.1l3.9-2.6
		l0.4-3.4l-4.7-5.4l-1.2,0.7l-9-0.7l-5.4-1.7l-1.7,0.9l-2.7-0.3l-3.3-1.6l-2.4-0.2l-0.5,1.2l-3.5,0.7l-3.9,1.6l-1.4-0.3L242,323
		l-0.7-0.9l3.7-3.4l4.1-5.2l-2.7,1.1l-3-1.6l2-1l1-2.5l9.5-5.6l3-4l3.1-0.7l1.9-3.7l-1.3-1.9l2-2.6l0-1.7l-4.4-0.5l-2,1.7l-2.7-1.2
		l-4.4,1.4l-3.8-0.9l-3.5,1l-1.9-0.2l-2.1,1.6l0.6-1.9l-1.7-1l-4,2.8l1.4-2.7l-4.7-2.9l-1.2,3l-1.8,1.1l0.2,2.9l-1,0l-0.2,3.6
		l-3.7,0.4l1.4,3.2l-1.9,2.9l-1.8-0.1l3.9,4.3l1.2,2.9l-4.2-2.7l-1.8,1.2l-3-2.5l-0.3,1.5l0.6,2.2l-1.2,1.4l-1.3-3.5l-1.9,3.4
		l1.5,2.1l-1.6,1.7l2.3,3.3l2.5,0.4l-3.1,0.8L212.1,317.7z M189.4,314l0.5-2.5l-5.4-1.2l-1.8,0.8l2.7,3.4L189.4,314z M169.5,395.6
		l-1.7,3.7l-4.6,0.1l-6,9.5l8.4,9.8l3.3-0.3l2-6l2.8-1.6l6.1,4l3.2,8.9l3.2,1l4.4,3.8l0.9,0.2l0-3.3l2,0.7l3.7-2.4l0.7-3.1l5.2,1.3
		l1.2-3.6l-3.2-1.1l1.7-3.3l-1-2.7l2.5-0.1l1.7,7.9l-0.2-10l-6-1l3.6-2l-5.5-10l0-4.2l-3.1-2.2l-6.7-1.5l-4.6,2.3l-2.6,0l-1.5,1.4
		l-4.3,0.3l-2.4,2L169.5,395.6z M219.2,424.5l-2.4,5.6l3.8-0.2l5.9-4.7l-0.6-2.4l1.2-3.7L219.2,424.5z M200.4,375.6l-1-7.4l-6.7,1.9
		l-0.6,5.7l4.4-2.1l-1,4.2L200.4,375.6z M192.8,346.5l3-1l1.3-3.3L192.8,346.5z M218.4,454.4l5.8,3.8l5.7-3.6l-3.9,0l-1.4-3.9
		l-4.7,0.1C219.9,450.8,218.3,454.2,218.4,454.4z M278.2,540.7l-6.3,2.4l2.8,0.9l2.8,2.6l3-0.2l0.2-1.6l1.7-2.3l-2.2,0L278.2,540.7z
		 M212,378.9l0.4,6.6l4,2.2l1.8-4.3l-2.3-6.6L212,378.9z M206,357.1l4.2-2.5l-1.2-3.8l-2.8-0.7l-3.1-4.4l-4.4,2.4l5.4,3.5l-3.4,1.4
		l0.7,1.5l-4.1,2.3l8.4-0.9L206,357.1z M262.4,283.3l-1.2-2.4l-2,0.2l2,4.2L262.4,283.3z M181.3,329.2l-2,2l-0.4,2.3l3.2-1.5
		L181.3,329.2z M186.1,319.8l-2.2-0.7l-0.1,2.6l-1.5,2.6l0.5,3l2.6,0.9l-0.4-3.8l1.3-1.9L186.1,319.8z"/>
	<path id="LOCATION_x5F_ITALY" class="st0" d="M560.5,986l6.6,1.8l-0.3,3.4l-2.8,2.3l-4.1-4.3L560.5,986z M493.3,789.9l-0.3-2.5
		l-1.8-2.8l-1.2,1.3l-5.2,1.4l-2.2,1.8l2.3,1.3l4.8-1.1L493.3,789.9z M588.9,936.3l1.5-5.8l-2.9-4.5l-6.2,4.8l-2.3-0.6l-4.6-3.3
		l-5.3,4.5l-10.1-1.8l-8.6,1.6l-5.8-1.9l-3.9-3.4l-5-0.1l-3,1.9l-1.3-2.2l-5.7,1.9l-1.5,7.2l4.2,4.9l4.8-0.3l7.8,6.7l4.4,1.7
		l3.7,5.1l9.6,4.9l2.2-1.1l4,3.7l0.4,3.7l9.9,5.3l4.3-0.2l0.3-5.6l2.5-2.5l0.1-5l-3.4-6l5.3-10.4L588.9,936.3z M565.8,704.9
		l-1.2-3.8l6-6.8l-2.9-3.3l-7.5-0.2l-13.3-4.1l-10.3-7.7l1.2-4.4l-7.8-0.3l-4.7-1.8l-12.4,5.4l-7.1-4.1l-5.2,5l1.4,7.4l-9,0.9
		l-1.9,8.3l-3.5-3.7l-3.9-0.1l-9.4-3.7l-0.7,6.2l-5.5,7.5l-1.7-4.8l-6.7-4.4l1.2-5.1l-4.8-3.8l-9.7,13l-5.5-3.3l-9.5,5.5l-4.9-2.5
		l-2.2,2l0,5.6l3.8,4.4l-2.2,7.3l-5.3,0l-3.6,3.2l4.8,6.5l-0.4,11.7l6.6,5.7l6.8,0.8l-3.7,6.4l1,5l10.9-0.7l4.5-4.5l0.6-3.7
		l12.3-5.1l14.5,5.6l4.1,3.4l6.4,2.7l1.5,3.8l1,2.5l1.4,3.7l3.3,7.1l-0.3,3.9l3.3,2.6l-0.9,6.3l5,3.1l2.9,4.6l5.4,6.5l0.2,4.1
		l6.4,0.9l3.4,5.9l0.4,3.7l2.8,1.3l7.8,12.7l8.1,7.6l4.2,1.2l3.4,3l0.4,3.8l4.1,0.5l3.2-2.4l4.4,2.4l4.4,0.8l3.7,9.4l2.7,2.2
		l2.6-0.7l3.6,1.8l-0.7,3l3.9,0.3l4,0.8l2.4,4.1l-1,4.3l-1.2,1.8l2,2.5l4.5,0.9l1.4,3.9l5.6,2l2.7-1.2l3,2.4l1.2,7.4l0.2,6.9l2,3.3
		l1,8.2l2.1,4l-0.6,4l-2.7,2.6l-1.8-0.1l-1.4,0.6l0.1,4.5l-1.1,4.2l-3,2.7l-2.9,1.2l-1.3,1.6l-0.2,3.4l4.3,5.5l6.5,0.2l3.7-4
		l1.4-4.6l6.7-4.2l1.7-10.3l4.2-3.5l4-0.6l1.9-3l-0.9-2.2l1.4-5.7l-0.9-2.7l-5.6-6.7l-3.5-0.9l-1.2-2.4l0.4-3.3l3.5-1.8l1.2-3.3
		l0.1-2.9l2.9-2.4l2.2-5.2l2.2-1l3.1-0.1l4.3,2.7l1.1,2.2l6.9,0.9l2.3,1.7l-0.9,3.3l1.4,4.3l2.6,4.3l3.8,2.1l0.3-1.3l1.3-0.8
		l-0.1-3.7l2.2-2.5l1.3-5.7l-1.4-3.2l-3.4-3l-7.1-2.7l-3.9-5.2l-6.3-5.9L619,844.7l-8.2-3l-4.6-0.5l-1.8-3.8l0.4-2l6-3.3l1.2-3
		l-3.7-2.5l-5.5,0.2l-3.4-1.4l-8.5-0.9l-2.7-2.1l-4.1-1.3l-2.8-3.6l-6-5.8l-2.6-5.4l-3.6-4.6l-2.6-4.8l0.4-4.6l-1.8-1.2l0.1-3.9
		l-12.9-16.4l-2.3-4l-5.1-3.5l-9.2-6.4l-2-3.7l0-6.5l-1.9-5.9l2.2-1.5l4-4.7l-2.6-4.2l-1.8-5l2.1-3.2l5-0.1l5-3.5l4.9,0.6l3.6-2.8
		l3.2-1.2l4.9,1.8l-0.2-7.8L565.8,704.9z M441.3,832.1l0.6-2l2.1-1.9l-1.6-1.8l-1,2.1l-1.5,0.6l-0.2,2.9L441.3,832.1z M440.9,846.7
		l0.5,3.5l2.6,2.9l-0.6,5.2l-3.6,3l1,2.9l4.4,0.9l-0.2,1.9l-3.1,2.9l-2.9,7.6l1.5,3.1l1.1,9.4l3,3.9l1.8-0.8l2.1,1.3l3.4-1l0.9-5
		l1.7-2.9l4.2,0.8l2.4,3l2.6,0.3l2-3l1-8.3l1.1-2.3l0-9.1l2.6-7.9l-5.2-5.7l5.3-2.7l1.1-3.3l-0.6-5.4l-2.5-3.6l-2.5-6.3l-1.9,1.5
		l-3.5-3.5l-3.4-0.1l-9.2,8.7l-3.6-0.3l-4.7-3.6l-0.6,4.9l-1.2,3.1L440.9,846.7z"/>
	<path id="LOCATION_x5F_PORTUGAL" class="st0" d="M107.4,892.7L107,898l-0.2-0.1l-1.2,1.7l-6-0.2l-7,3l-3.9-3l-8.9-4.8l-7.1,3.8
		l-1.5-1.5l2-2.3l3.2-8.2l1-11.9l2.8-5l-0.8-6.1l2.7-2.8l-5.7-0.8l-3.8,2.8l-1.8-2.4l0.9-4.7l7-2.5l-0.9-2.5l1-2.8l-4.9,2.3l-2.6,3
		l-4.6-0.5l0.2-3.2l4.6-12.7l6.9-7.8l0.5-4.2l5.9-6.7l1.2-7.2l3.4-5.5l2.7-2.9l-2.8-4.1l2.4-6.1l-0.6-2.3l3.2-13.9l-2.5-8l0.1-4.7
		l10.1-0.4l3.7,1.5l-1.2,4.8l1.6,3.5l7.9-3l12,4l4.7-3.7l10.5,2.5l0,5.6l3.8,7l-1.8,4.4l-3.2-0.4l-9.3,7.1l0.3,5.9l-2.3,14.2
		l-5.4,4.3l3.4,4.3l-6.7,7.4l-3.8-1.1l-5.6,0.7l4.6,11.7l4.8,3.8l-0.7,9.1l-7.9,6.3l2.5,6.8l4.8,0.9l-1.1,4.1l-6,3.9l-6.3,9.1
		L107.4,892.7z"/>
	<path id="LOCATION_x5F_GREECE" class="st0" d="M819.9,999.1l1.2-1.5l3.6-0.9l1.7,1l-1.8,2.2c0,0-3,0.9-3,1L819.9,999.1z
		 M791.3,878.2l-1.9,0.4l-1.8,3.9l2.5,0.2l1.1,0.9l3-1.1l-0.1-2.5L791.3,878.2z M828.7,970.2l1.6,2.3l2.2,0.3l1.2-1.2l2.7-0.9
		L836,969l-1.2-0.4l-0.8,0.8l-2.4-2.5l-2.6-0.6L825,969l-1.1,1.5l2.4-0.4L828.7,970.2z M779.8,976.3c0.2,0,2.1-0.9,2.1-0.9l0.3-2
		l-2-0.8L779.8,976.3z M781.2,994.1l0.9-2.3l-2.9-0.4l-2.5,2.8l1.9,0.5L781.2,994.1z M782,982.2l0.3-2.9l-2.2,1.2L782,982.2z
		 M777.7,969.4l0.6,1.5l2.4-0.7l-1.4-2.4L777.7,969.4z M861.7,1009.1l1.7-1l0.5-2.2l-3,0.9l-5.3,1.5l-5.3,3.5l-0.6,2.3l0.6,1
		l-1.4,2.3l1.2,1.6l1.9-0.1l2.3-2.2l2.7-2.1l2.1,0.2l0.1-1.5l1.4-1.8L861.7,1009.1z M747.3,999.8l-0.4,2.4l2,1.4l1.9-3.1l-1.9-3.3
		l-0.4-3.1l-0.9,0.9l-1.5,2.6L747.3,999.8z M747.9,990.8l-0.6,1.8l1.6,0.2L747.9,990.8z M699.3,950.7l-0.9,2.4l2.7,3.4l2.4,0.9
		l0.7-1.4l2.7,0.7l-1.5-2.2l-1.7-3l-2.6-1.6L699.3,950.7z M835.6,1023.4l1.1,2.9l0.2,4.6l1.4-0.5l2.1-4l-1.8-3l-0.3-2.7
		L835.6,1023.4z M828.5,873.4l-0.4-5l6.2-2.9l1-5.5l-4.3-2.5l1.6-5.8l-2.7-0.3l-5.8,3.4l-0.9,5.1l1.3,4.1l-3.2,2.1l-9.5-1.8
		l-4.6,1.6l-3.6-2.7l-4.3-0.5l-3.3,2.1l-4.2-0.8l-0.2-3.8l-5.8-0.5l-5.4-1.6l-4.3,3.3l-5.8,0.8l-7.4-1l-2.1-1.4l-0.2,0.1l-3,2.1
		l-4-0.3l-5.5,2.6l-11.1-1.8l-5,2.1l-0.6,1.9l-6.6,1.5l-9.5,4.5l-0.1,0.5l-1.6,5.7l-4.3,6l-9.2,1.9l-0.9,5.1l-3.8,6.3l-3.1,1.2
		l0.4,0.4l-0.4,6.5l7.5,7l3.8,7.2l2.1,0.8l-0.7,2l5.3,9.5l0.8,6.3l2.7,1.5l4.3-4.1l2.9,4.6l5.2,1.3l2.6-3.1l3.7,0.8l5.5,4.2l3.7-1.3
		l0.3,3.1l2.9,0.2l2.2,2.1l4.6,1.4l-3.6,1.6l-3.4,2.7l-2.7-2.9l-4-1.5l-8.2-6.8l-4,0.9l-4,1.8l-3.7-2.3l-3.7,3.7l-2.4,0.4l-2,3.7
		l4.1,6l4.7,2.9l4.2,5l0.1,3.3l-2.1,2l-0.2,4.3l3.5,5.7l2.4,3.4l1.5-2.8l-0.8-2.3l2.1-3.7l1,5.1l5.6,3.2l1,3.4l-1.3,3.6l2.2,3.3
		l0.7-6.3l2.8-4.8l3.7,0.4l1.2,4.3l6.1,5.2l-2.2-4.9l1-3l-1.9-4.7l-2.2-7.6l-2.2-4.5l0.4-1.7l2.7,0l4.6,3.1l-1.7,1.7l1.3,1.9
		l2.9-2.4l4.9,2.3l0.4-1.7l-1.9-1.8l-0.2-1.9l-1.7-0.7l-3.5-2.8l0.6-2.2l-4-3.9l4.5-1.4l3.9,0.6l2.6-1.8l5.6,4.9l0.5,1.9l4.2,1
		l1.5-2.4l-3.1-5.9l1.6-5l-1.2-3.1l-9.6-7.6l-3.1-1.2l-1.2-2.7l-2.9-0.1l-1.6-2.6l-4.3-1l-4-4.4l4.8-0.1l3.1-2.9l0.1-2.4l-4.3-1.7
		l2.7-2.8l0.1-2.6l3.3,1.7l2.5,2.6l-1.4,2.3l0.1,2.4l2.5-0.3l2.1-5.1l-2.6-3.9l-5.8-9.1l-2.6-2.5l-0.3-3.1l-4.7-5l2.1-2.2l0.2-8.9
		l3.4-4.2l5.5-0.6l0.2,4.5l-2.5-0.3l0.2,2.4l6.6,4l0.1,5.5l4,4.1l4.9,0.4l-3.3-2.8l-1.5-3.6l1-3l4.4,2.1l3,5.3l2.9,1.5l2-2.7
		l-3.1-2.9l-2.9-1.5l0.5-2.5l8.3,1.3l2.7,3.4l1.5-1.4l-4.2-5l-4.8-1.2l-3.5-5.2l2.7-2.4l4.2,1.9l3.8-1.6l2.4-5.7l3.3-0.8l4.5,4.3
		l3.7,0.8l4.5-3.8l0.4-2.2l1.9,0.2l2.6,3.9l9.2,1.1l6.6,2.6l5-0.7L828.5,873.4z M839.8,1018.9l0.3-2.2l-1.5,1.9l0.6,1.1
		L839.8,1018.9z M752.5,925.5l-3.5,2.4l1.9,0.6l3.9,0.3l1.9,2l0.7,1.6l1.9,1.1l1.5,2.6l2.7,1l1.5,2.9l3.8,2.7l2.9,0.1l0.9,2l2.3,4.6
		l1.6,1.9l-0.7,2.4l1,2.4l3.1,2.6l2-0.8l2,1.4l2.1-4.3L782,954l-1.4,0.8l-2.7-3.3l0.8-3.3l-0.4-2.3l0.1-1.9l-1.5-3.6l-4.7-6
		l-0.6,0.7l-2.9-0.5l-0.4-1l-3.6-2.5l-3.7-1.9l-3-4.1L752.5,925.5z M827.6,921.8l-4.8,0.2l-2.6,1.3l-5.2,1.2l-2.4,3.2l3,3.1l1.4,0.3
		l2.1-0.2l0.8-2.6l1.4-2.5l3.3,0.3l-0.7,2.7l-2,1.3l-1.4,1.6l2.9,1.8l4.5,0.2l0.6-4.7l-0.4-3.3l-1-0.3l1.2-2.4L827.6,921.8z
		 M813.8,952.6l2.2,2.1l3.2-1.1l1.2-3.5l-0.3-5.6l-0.9-1.2l-2.6-1.4l-2.7,1.1l-0.2,1.5l2.6,2.5l-0.3,3.3l-2.1,0.6L813.8,952.6z
		 M768.1,925.2l-0.4-2.9l-2.3-1.1l-1.4,0.2l3.2,5.2L768.1,925.2z M802.4,986.2l2.1,0.3l2.3-2.4l-0.2-2.4l-2-0.6l-3.5,2.4
		L802.4,986.2z M702.2,930.7l1.6-1.5l-0.2-3.9l-1.6,0.1l-2.4,3.4l0.1,1.5l1.1,0.6L702.2,930.7z M761.7,920.1l-1.8,1l1.3,2.1l1.4-2.1
		L761.7,920.1z M694.4,937.6l-0.5,4.7l1.8,2.3l1.3-1.1l0.3-2.3l0.9,1.3l-0.3,2.5l3,0.8l2.5,1.8l1.6-2l-0.8-1.3L704,942l-1.7-2.2
		l0.8-1.8l-1-3.3l-2.3-2.4l-0.7,5.4l-1.9-0.6L694.4,937.6z M684,895l-4,1l0.1,2.3l2.2,1.2l0.1,1.3l3.5,4.7l3.5,2.1l1.1-0.7l-0.3-1.6
		l-2.8-1.4l-2.2-3.1l0.7-4.4L684,895z M819.7,973.4l1-2.2l-4.8,0.4l-0.9,2.4l1.2,2L819.7,973.4z M795.1,984.6l1.7,1.9l2.5-2.8
		l-0.7-2.4l-2.2-0.3L795.1,984.6z M803,900.9l-1.4-1.5l-3.6-0.3l-1.3,1.6l0.7,3.5l1.8,1.9l1.8-0.1l2.5,1.4l1-4.2l3.1-2.7l-2.1-1.5
		L803,900.9z M788,930.9l-1.6-2.2l-1.6,0.4l1.8,4l1.1,0.4l0.9,2.7l1.5-0.4l0-3.8L788,930.9z M802.4,976.2l2.2-1l-1.9-0.8
		L802.4,976.2z M796.5,969.9l1.6,2.3l2.4,1.4l-0.1-2.2l-1.7-2.1L796.5,969.9z M787.7,959.9l-1.4,1.8l1.8,1.9l4.2,5.2l1.8,0.3
		l0.4-2.4l-3.4-3.9l-1.5-3L787.7,959.9z M761.4,1016.9l-0.6,3.2l-1.7,2.7l0,3.4l3.1,1.8l7.6-0.1l3,1.2l3.1-0.7l4.3,1.8l4.5,3.4
		l0.3,3l5.6,0.4l5-2.4l5.1,1.1l8.3,0.7l5.7,0.8l3.5-1.7l1.7-3l-0.4-3.2l0.2-1.9l-1.4,1.6l-0.4,2.2l-3,2l-1.7-1.9l-2.4,0.6l-2.3-0.6
		l0.7-2.1l-0.8-3l-2.2-0.2l-6-1.5l-4.5-2.7l-6.3-0.5l-5.6,2.7l-4.2,0.6l-3.2-2.2l-1.4-2l-2.7,0.1l2.1-1.5l-1.3-2.9l-3.5-0.2l0.5,1.8
		l1.1,0.5l-1.4,1l-3.3-0.2l-0.4-3.4l-1-0.5l-0.6,1.8l0.3,2.3l-1.7,0.4L761.4,1016.9z M851.4,1000.1l-1.7,1.5l1.9,0.9l2-0.3l-0.3-1.7
		L851.4,1000.1z"/>
	<polygon id="LOCATION_x5F_SLOVENIA" class="st0" points="576.3,724.1 580.9,723.3 588.9,728.2 593.5,728.4 595.7,720.8 603.2,718 
		604.9,712.3 619.3,706.8 629,707.9 629,699.4 624.1,692.3 618.5,693.4 608,697.8 605.7,697.3 602.4,697.3 597,699.1 592.2,698.5 
		586.6,700 584.1,696.1 574,695 570.5,694.2 564.5,701 565.7,704.8 562.3,709 562.5,716.8 562.8,716.9 567,719.4 566.5,722.5 
		562.6,723.1 562,727.1 570,727.6 	"/>
</g>
<g id="NAMES">
	<g id="NAME_x5F_ITALY">
		
			<rect x="540.5" y="856.4" transform="matrix(0.9968 -7.949034e-02 7.949034e-02 0.9968 -67.2267 49.3866)" width="92.4" height="25.4"/>
		<text transform="matrix(0.9968 -7.949000e-02 7.949000e-02 0.9968 563.1265 877.2343)" class="st1 st2 st3">ITALY</text>
	</g>
	<g id="NAME_x5F_GREECE">
		
			<rect x="801.5" y="914.3" transform="matrix(0.9968 -7.949034e-02 7.949034e-02 0.9968 -70.9534 71.6447)" width="125.8" height="25.4"/>
		<text transform="matrix(0.9968 -7.949000e-02 7.949000e-02 0.9968 827.5634 936.6262)" class="st1 st2 st3">GREECE</text>
	</g>
	<g id="NAME_x5F_FRANCE">
		
			<rect x="186" y="677.7" transform="matrix(0.9968 -7.949034e-02 7.949034e-02 0.9968 -54.0911 21.9695)" width="125.8" height="25.4"/>
		<text transform="matrix(0.9968 -7.949000e-02 7.949000e-02 0.9968 210.3381 699.7627)" class="st1 st2 st3">FRANCE</text>
	</g>
	<g id="NAME_x5F_PORTUGAL">
		
			<rect x="96.8" y="832.8" transform="matrix(0.9968 -7.949034e-02 7.949034e-02 0.9968 -66.6635 16.4789)" width="153.6" height="25.4"/>
		<text transform="matrix(0.9968 -7.949000e-02 7.949000e-02 0.9968 121.5603 855.9424)" class="st1 st2 st3">PORTUGAL</text>
	</g>
	<g id="NAME_x5F_SWITZERLAND_1_">
		
			<rect x="453.9" y="657.2" transform="matrix(0.9968 -7.949034e-02 7.949034e-02 0.9968 -51.5026 45.9579)" width="195.2" height="25.4"/>
		<text transform="matrix(0.9968 -7.949000e-02 7.949000e-02 0.9968 483.0518 681.8876)" class="st1 st2 st3">SWITZERLAND</text>
	</g>
	<g id="NAME_x5F_GERMANY">
		
			<rect x="459.7" y="574.1" transform="matrix(0.9968 -7.949034e-02 7.949034e-02 0.9968 -44.9518 44.3071)" width="148.7" height="25.4"/>
		<text transform="matrix(0.9968 -7.949000e-02 7.949000e-02 0.9968 486.5572 597.5742)" class="st1 st2 st3">GERMANY</text>
	</g>
	<g id="NAME_x5F_UK">
		
			<rect x="101.8" y="457.5" transform="matrix(0.9968 -7.949034e-02 7.949034e-02 0.9968 -36.694 18.6175)" width="227.5" height="25.4"/>
		<text transform="matrix(0.9589 -7.806317e-02 7.790000e-02 0.997 132.7523 484.2669)" class="st1 st2 st4">UNITED KINGDOM</text>
	</g>
	<g id="NAME_x5F_NETHERLANDS">
		
			<rect x="362.3" y="454" transform="matrix(0.9968 -7.949034e-02 7.949034e-02 0.9968 -35.6395 38.037)" width="195.2" height="25.4"/>
		<text transform="matrix(0.9968 -7.949000e-02 7.949000e-02 0.9968 388.6127 479.3347)" class="st1 st2 st3">NETHERLANDS</text>
	</g>
	<g id="NAME_x5F_DENMARK">
		
			<rect x="469.4" y="349.6" transform="matrix(0.9968 -7.949034e-02 7.949034e-02 0.9968 -27.0784 44.3581)" width="148.4" height="25.4"/>
		<text transform="matrix(0.9968 -7.949000e-02 7.949000e-02 0.9968 499.2159 373.0142)" class="st1 st2 st3">DENMARK</text>
	</g>
	<g id="NAME_x5F_KUWAIT">
		
			<rect x="177.6" y="1298.1" transform="matrix(0.9968 -7.949034e-02 7.949034e-02 0.9968 -103.3045 22.4294)" width="104.9" height="21.2"/>
		<text transform="matrix(0.9968 -7.949000e-02 7.949000e-02 0.9968 200.6549 1316.8506)" class="st1 st2 st5">KUWAIT</text>
	</g>
	<g id="NAME_x5F_SAUDI_x5F_ARABIA">
		
			<rect x="67.2" y="1430.8" transform="matrix(0.9968 -7.949034e-02 7.949034e-02 0.9968 -114.1457 15.46)" width="139.8" height="21.2"/>
		<text transform="matrix(0.9968 -7.949000e-02 7.949000e-02 0.9968 83.9191 1451.3617)" class="st1 st2 st5">SAUDI ARABIA</text>
	</g>
	<g id="NAME_x5F_NEW_x5F_ZEALAND">
		
			<rect x="625.2" y="1724.3" transform="matrix(0.9968 -7.999274e-02 7.999274e-02 0.9968 -136.6233 63.5818)" width="200.1" height="25.4"/>
		<text transform="matrix(0.9589 -7.806317e-02 7.790000e-02 0.997 656.1573 1750.0348)" class="st1 st2 st4">NEW ZEALAND</text>
	</g>
	<g id="NAME_x5F_AUSTRALIA">
		
			<rect x="415.2" y="1573" transform="matrix(0.9968 -7.949034e-02 7.949034e-02 0.9968 -124.768 46.9737)" width="224.8" height="35.3"/>
		<text transform="matrix(0.9968 -7.949000e-02 7.949000e-02 0.9968 457.2192 1605.7841)" class="st1 st2 st6">AUSTRALIA</text>
	</g>
	<g id="NAME_x5F_USA">
		<polygon points="763.8,1114.6 657.6,1122.9 660.8,1163.8 767,1155.5 		"/>
		<text transform="matrix(0.9589 -7.806317e-02 7.790000e-02 0.997 682.1156 1153.2046)" class="st1 st2 st7">USA</text>
	</g>
	<g id="NAME_x5F_SWITZERLAND">
		
			<rect x="570.1" y="727.5" transform="matrix(0.9996 -2.718240e-02 2.718240e-02 0.9996 -19.8854 17.5083)" width="127.9" height="25.3"/>
		<text transform="matrix(0.9996 -2.718000e-02 2.718000e-02 0.9996 589.0414 747.9229)" class="st1 st5 st11">SLOVENIA</text>
	</g>
	<g id="NAME_x5F_SWEDEN">
		
			<rect x="488.1" y="223.7" transform="matrix(0.9968 -7.949026e-02 7.949026e-02 0.9968 -16.9705 44.3931)" width="122.1" height="23.2"/>
		<text transform="matrix(0.9968 -7.949000e-02 7.949000e-02 0.9968 507.6638 245.6916)" class="st1 st2 st9">SWEDEN</text>
	</g>
	<polygon class="st0" points="364.2,550.7 364.6,554.6 370.3,560.5 373.1,560.6 375.6,563.2 378.5,565 378.2,571.3 382.6,574.2 
		385.2,572.9 388,573.2 389.7,575.7 392.5,576.7 397,583.8 401.5,584.6 405.2,588 407.3,586.9 410.5,587.3 410.9,587.4 413,591.9 
		418.5,593.7 421.8,593.2 423,586.1 420.8,583.7 420.4,578.7 415.8,571.5 414.3,571.3 417.6,565.4 415.4,560.9 415.8,558.2 
		413.2,550.8 415.1,547.7 414.5,547.5 410.9,545.8 411.4,543 409.8,539 403.8,538.7 402,535.3 398.1,534.9 395.8,532 388.2,531 
		386.5,534.1 383.3,534 382.1,535.4 377.8,535.7 375.1,537.8 366.8,537.6 359.2,540.3 359.3,548.2 	"/>
	<g id="NETHERLANDS_2_">
		
			<rect x="333.8" y="535.3" transform="matrix(0.9968 -7.949034e-02 7.949034e-02 0.9968 -42.17 32.2065)" width="99.3" height="21"/>
		<text transform="matrix(0.9968 -7.948963e-02 7.948963e-02 0.9968 347.129 554.166)" class="st1 st5 st11">BELGIUM</text>
	</g>
</g>
</svg>
