<svg id="ICONS" xmlns="http://www.w3.org/2000/svg" viewBox="0 0 500 500"><defs><style>.cls-1{fill:#fff;}</style></defs><title>Artboard 1 copy 10</title><path id="contact" class="cls-1" d="M494.82,1.9a12.26,12.26,0,0,0-12.54-.34L5.76,270.75A11,11,0,0,0,.11,281.84a11.34,11.34,0,0,0,8.48,9.3l121.07,32.08a12.1,12.1,0,0,0,10.59-2.11L333.68,170.66l-134.94,164a10.82,10.82,0,0,0-2.48,6.88V488.84a11.23,11.23,0,0,0,8.45,10.71A12.29,12.29,0,0,0,208,500a11.88,11.88,0,0,0,9.89-5.17l84.25-125.89,123.16,32.63a12.21,12.21,0,0,0,9.53-1.41,11.12,11.12,0,0,0,5.24-7.72l59.8-379.59a11,11,0,0,0-5-10.95Zm0,0"/></svg>