<svg id="NETWORK" 
    xmlns="http://www.w3.org/2000/svg" viewBox="0 0 300 300">
    <defs>
          <style>
         .cls-11{fill:#da1a35;}
                
        </style>
    </defs>
  
    <g id="DENMARK">
         <path   class="cls-11 aaa" d="M32.09,184.06c.13,0,.67.31.72.49s-.45.45-.36.81.14.86.36,1,.36.23.49,0,.36.14.36.14-.45.13,0,.22.5.14.5.41-.32.31-.32.31.09.27,0,.41-.54,0-.68,0-.72-.05-.85-.27-.23-.45-.5-.41-1.12-.67-.85-.81.18.23.27-.13-.18-.36-.09-.63.22-.23.4-.27S32.09,184.06,32.09,184.06ZM50,118.59a1.14,1.14,0,0,0-.32,1.25c.13.41-.13.77,0,1.31a14.12,14.12,0,0,1,0,1.84c0,.5.31-.22.58-.45s0-.9,0-1.35.58-1,1-1.53.5-.62.49-.94-.21-.36-.26-.63.36-.31.23-.49-.59,0-1,0A3.89,3.89,0,0,1,50,118.59Zm23-33s-.18-.32-.22.36a1.82,1.82,0,0,0,.49,1.44,2.14,2.14,0,0,0,1,.72c.14,0,.45.31.5,0s.45-.27,0-.5-.77-.24-.72-.72a7,7,0,0,0,0-.76C74.13,85.89,73.05,85.58,73.05,85.58Zm-6.34,6.29s-.76.54-.22.95a4.74,4.74,0,0,0,1.26.63,1.31,1.31,0,0,1,.81.72,1.34,1.34,0,0,0,.49.81.9.9,0,0,0,1.13,0c.27-.32.13-.68.72-.9s1.51-.16,1.92-.55.55-.53.86-.58.34-.31.24-.58-.28-.5-.51-.5a7.81,7.81,0,0,0-1,0,3.33,3.33,0,0,1-1.12,0c-.27-.07-.58-.29-.76-.2s-.05.36-.81.49a3.17,3.17,0,0,1-1.58.09,2.41,2.41,0,0,1-.85-.4C67.07,91.65,66.71,91.87,66.71,91.87ZM150.24,1.44c0-.27.14-.25-.4-.31a11.94,11.94,0,0,1-2-.65,5.69,5.69,0,0,0-1.17-.43,5,5,0,0,0-1.6.31,36.14,36.14,0,0,0-5,3.44c-.54.65-4.54,4.36-5,5.13s-2.38,2.32-2.94,3.06a14.22,14.22,0,0,1-2.1,2,10.28,10.28,0,0,1-1.28.83c-.45.27-3.95,1-4.67,1.17s-2.63.65-3,.72-5.42-.18-5.87,0-.9-.09-1.53.36a7.19,7.19,0,0,0-1.8,2.06c-.34.66-1.37,2.05-1.62,2.64a3,3,0,0,1-1,1.59c-.81.77-1.55,1.62-2,2.14a4,4,0,0,0-1.08,1.35c-.27.65-.95,1.66-1.15,2.25s-2.54,6.74-2.56,7.39a7.43,7.43,0,0,1-.52,2.05,23.9,23.9,0,0,1-1.53,3.35c-.76,1.35-1.44,2.76-1.75,3.46a13.3,13.3,0,0,1-1.82,3.42c-1,1.17-2.48,3.64-2.9,4.27a29.88,29.88,0,0,1-3,3.55c-.56.43-2.09,1.67-2.56,2.07s-4.2,2.48-4.77,2.81a13.46,13.46,0,0,1-2.29.88c-.92.31-1.53.72-2.05.49a6.89,6.89,0,0,0-2.94-.63c-1.6,0-4.86.25-5.53,0s-1.46-1-2.23-.92-.65.39-1.46.5a15.38,15.38,0,0,0-2.29.06,6.81,6.81,0,0,0-2.68,1.06,8.84,8.84,0,0,1-2.18,1.62c-.85.41-4.81,2.16-5.37,2.5s-5,.22-5.62,0-1.13-1-1.87-1,.11-.43-.5-.16a19.12,19.12,0,0,0-3.37,2.59,5.93,5.93,0,0,0-.74,1.69,1.5,1.5,0,0,1-.52,1,21.2,21.2,0,0,0-2.9,3c-.42.76-.42,1.59-.74,2.27s-2.14,2.92-2.61,3.57-.9,1.55-1.26,2.12a17.62,17.62,0,0,0-1,1.64,6.22,6.22,0,0,0-.36,1.08,2.87,2.87,0,0,1-.21.81c-.11.13-1.73,2.24-2.13,2.83a24.57,24.57,0,0,0-1.31,3.1,11.28,11.28,0,0,0-.27,2.38c0,.36-1.88,3.11-2.15,4.3a8.39,8.39,0,0,0-.18,3.78,15.4,15.4,0,0,0,1.08,2.78c.31.36.74.77.94.5a2.86,2.86,0,0,0,.63-1.51c0-.6.27-.81,0-1.32a7.31,7.31,0,0,1-.57-1.44c-.11-.36-.42-.52-.15-.77a1.75,1.75,0,0,1,.87-.47c.23,0,.48,0,.52.38s-.07.59,0,.81.32.18.59.36.4.07.65.86a10.27,10.27,0,0,1,.5,1.53,2.84,2.84,0,0,0,1,1.66,7.42,7.42,0,0,0,1.33.88c.54.29.63.27.85,1s.12,1.48,1.06,2.07A5.56,5.56,0,0,1,38,111.12c.25.47.09.47.7,1a22.12,22.12,0,0,0,2.47,1.58c.7.45,1.44.65,1.62,1.57a8.72,8.72,0,0,0,.85,2.34c.5,1.08,1.4,2.09,1.49,2.61a2.77,2.77,0,0,1-.68,1.82c-.45.63-.7.92-1.12.85a4.84,4.84,0,0,1-1.82-.33,11.57,11.57,0,0,0-2.34-1.74,20.32,20.32,0,0,0-2.36-.22,3.4,3.4,0,0,1-1.26-.54c-.14-.09-1.15-.29-1.31-.14s-.51.77-.74,1-1.17.52-1.39.13-.7-.83-.5-1.12.54-.79.81-.77.34,0,.11-.44,0-.63-.58-.61a3,3,0,0,1-1.46-.32c-.32-.18-.41-.45-.79-.38s-1,.29-1.19.27-.83-.47-.83-.63.22-.16.29-.74a1.36,1.36,0,0,0-.54-1.3c-.34-.23-.63-.54-.85-.39s-1.35.5-1.31.18,0-.49.25-.76a2.6,2.6,0,0,1,.85-.74c.43-.21.95-.3,1.08-.72s-.29-.36-.63-1a2,2,0,0,1,0-1.73,8.16,8.16,0,0,0,.72-1.42,1.51,1.51,0,0,0-.21-1.19c-.2-.41-.38-.59-.42-.38s-1,3.71-1.4,4.47A44.17,44.17,0,0,0,24.15,116c-.16.7-.52,7.26-.49,7.91s-.32,6.28-.36,6.93a5.6,5.6,0,0,1-.18,1.24,1.85,1.85,0,0,0,0,1.14,10,10,0,0,1,.22,1.49c.05.51.16.69.2,1.14s0,.81.05,1.2.27.38.27,0,0-2.3,0-2.84a14.84,14.84,0,0,1-.16-1.73c0-.52.07-1.12.36-1.12s.52.47.79.76.8.2,1.07.36,1.11,1.28,1.58,1.62.54.45.54.81a1.32,1.32,0,0,1-.47.94c-.3.3-.75.32-.57.75s.18.53.32.92-.38.22.58.81,2.09,1.1,2.14,1.5a2.22,2.22,0,0,0,.31,1.06c.18.22,2.12.67,2.32,1.06a3,3,0,0,1,.52,1.17,2.77,2.77,0,0,1-.18,1.39,2.7,2.7,0,0,1-1.22.88c-.4.13-.67.36-.9.24s-.76-.13-.72-.51a3.27,3.27,0,0,0,.07-1c-.07-.24-.56-1-.79-.9s-.4.63-.47.77-.09.33-.27.29a8.11,8.11,0,0,1-1.44-.76c-.24-.21,0-.23-.2-.48s-.36-.51-.67-.4-.5.4-.72.29a.89.89,0,0,1-.43-.4c-.11-.18-.23-.36-.4-.32s-.36.11-.34.32.07,1.41,0,1.66-.36,6.7-.42,7.37-.52,1.67-.61,2.3-.32.9-.2,1.5.69,2.12.83,2.91-.47,4.18-.47,5.28a16.75,16.75,0,0,0,0,2.31,1.13,1.13,0,0,1-.2,1,.72.72,0,0,0-.13.79,9.13,9.13,0,0,1,.31,1.3c.07.45.36.72.41,1.26s-.09.56.06,1,.63,1.21.79,1.62.58,1.79.63,1.88.25.25.36.23.22-.36.29-.59a1.45,1.45,0,0,0,.29-1,6.49,6.49,0,0,0-.29-2.11,16.21,16.21,0,0,1-.27-2.09c-.07-.47-.27-.54-.13-1.21s.33-1.33.38-1.94a2.67,2.67,0,0,0-.16-1.17c-.11-.4-.27-.72-.09-.76s.61-.16,1,.58.61,1.13,1.15,1.19.74.07,1.39.12a1.63,1.63,0,0,0,1.51-1,3.89,3.89,0,0,0-.14-1.69,1.27,1.27,0,0,1,.38-1.21c.23-.16.25-.31.43.07a3.13,3.13,0,0,1,.54,1.37,4.91,4.91,0,0,1,0,1.62,1.29,1.29,0,0,0,.11,1.41,27.14,27.14,0,0,0,2,2.57A4.37,4.37,0,0,1,35.35,171a2.65,2.65,0,0,1-.09,1.44c-.16.36-.47.27-.29.88a22.37,22.37,0,0,0,1.61,3.3A10.33,10.33,0,0,0,39,178.24c.44.24.78.31.85.92s.18,1.93.31,2.43.39,1.08.63,1.08.63-.09.72.13.27.25.14.7-1.08,1.1-1.71,1.68-5,4-5,4.28,0,.76-.5.87-1.41.18-1.53,0-.15-.83-.51-.92-.79.05-.81.45a20,20,0,0,0-.05,2.25c.07.58.09,2.53.07,2.78s-.45.46-.47.32a6.49,6.49,0,0,1-.52-1.73c.07-.4-.18-2.74-.18-3.48a14.18,14.18,0,0,0-.92-3.26,14.26,14.26,0,0,1-.72-2.73c-.09-.76-.54-2.85-.52-3.23s.29-.12-.11-.86a6.1,6.1,0,0,1-.9-1.95c0-.43,0-.7,0-.93s-.12-.33-.3-.49-.92-.67-.92-.67-.38-.25-.31.42.36,4.68.6,5.53a24,24,0,0,1,1.2,3.13c.13,1,0,1.1.27,1.75s1.05,1.85,1.21,2.34a6,6,0,0,1,.2,1.26,19.1,19.1,0,0,0,.5,3.37,21.19,21.19,0,0,1,.81,2.68,4,4,0,0,1,.18,1.3c-.05.39-1.58,7.13-1.74,7.83a13.91,13.91,0,0,1-.76,2.63c-.31.63-1.48,3.28-1.6,3.69a3.89,3.89,0,0,0-.24,1.43,4.06,4.06,0,0,1-.18,1.8c-.23.36-.9.52-.9,1.06a3.19,3.19,0,0,0,.6,1.78,1.43,1.43,0,0,0,1.13.31,3.15,3.15,0,0,1,1.46.41,16.71,16.71,0,0,0,2.5,1.21c.76.16,1.73.2,2.29.4s.76.12,1.3.72.77,1.2,1.19,1.65a4.23,4.23,0,0,0,1,.85c.34.2.63.36.83.22s.52-.06.32-.38a5.26,5.26,0,0,1-.57-.83c-.18-.38.16-.36-.27-.7s-.6-.36-.78-.54-.63-.38-.9-.65-.38-.27-.43-.58-.34-.12-.07-.54.43-.38.39-1.08-.59-1.19-.72-1.55a2.08,2.08,0,0,1-.16-1.22,2.41,2.41,0,0,1,.94-1.73c.54-.31,1-.81,1.55-.56a2.91,2.91,0,0,1,1.44,1.19c.12.38-.06.56-.31.77s-.83.67-.83.92a.77.77,0,0,0,.33.81c.43.36.86,1,1.38,1.5s.71.77,1.46,1.64a5.9,5.9,0,0,0,2.07,1.78,29.65,29.65,0,0,0,3,1.06,4.2,4.2,0,0,1,1.24.47,3.33,3.33,0,0,1,.69.9c.09.31-.13.43.18.56s4.59.54,5.63.88a3.56,3.56,0,0,1,2.11,1.55,8,8,0,0,1,.81,2.2c.11.7.25.61.18,1.22a3.72,3.72,0,0,0-.11,1.57,3.93,3.93,0,0,0,.83,2c.6.57.9.68.94,1.24s0,.86,0,1.22.27.92.14,1.14-.61.63-.65,1.06.36.52.38.92-.67,1.33-.5,1.75,1,1,1,1.65-.36,1.95-.27,2.36,1.53,2.61,1.48,3.3,0,4.5,0,4.61a2.26,2.26,0,0,1,.13,1.35c-.09,1.15-.36,3.46-.38,4.12s-.79,1.46-.94,2.24a5.66,5.66,0,0,0,.15,3.15,18.07,18.07,0,0,0,1.42,2.83,28.06,28.06,0,0,0,2,2.61,6.3,6.3,0,0,1,1,1.89,10,10,0,0,0,1,1.84,2.44,2.44,0,0,1,.49,1.31,6.3,6.3,0,0,1-.81,2.34c-.27.4-.49.38-.45,1a7.58,7.58,0,0,1,0,1.78c-.09.65-.2.25,0,.47a13.53,13.53,0,0,0,3.19.94,7,7,0,0,0,2.09,0,5.2,5.2,0,0,1,2.43-1,19.9,19.9,0,0,1,4.7-.12c1.51.32,4.09.34,4.81.68s2.84,1.41,3.29,1.59a43.44,43.44,0,0,0,7.39-.47c2.21-.34,4-.81,5-.49s1.51.33,1.57,1.26-.13,1.86.12,2.15.78.3,1.57.27a8.35,8.35,0,0,0,2.61-.54,9.08,9.08,0,0,1,2.43-1.46,14,14,0,0,1,1.62.05c.33-.05.29.09.76-.07a43.8,43.8,0,0,0,3.89-2.74c.54-.43,1.3-1,1.39-1.15a5.4,5.4,0,0,0,.36-1.12c0-.12-.2-.36.57-.36a4.91,4.91,0,0,0,1.46-.07c.22-.11.51-.77.51-.77a3.25,3.25,0,0,0,.39-1.07c0-.5-.12-1.22,0-1.49a4.3,4.3,0,0,1,1.13-1.12c.2-.14.18-.77,1-.5s1.1.27,1.37.65.74.77.77,1.13-.12.7-.25.65-.54-.38-.81-.54a1,1,0,0,0-.81-.25c-.4.07-.83.09-.85.34s-.07.83.18,1a2.93,2.93,0,0,0,1,.58c.23,0,.86,0,.88.11a6,6,0,0,1,.13,1.08c0,.63.12.81,0,.9s-.34.2-.14.45a9.19,9.19,0,0,0,.75.92c.11.07.29,0,.49-.2s.27-.45.45-.34.23.48.54.72a4.51,4.51,0,0,0,1.53.7c.52.11.92.22,1.08,0s.61-.2.45-.81a10,10,0,0,1-.27-1.95,2.22,2.22,0,0,0-.23-.84,7.56,7.56,0,0,1-1-1.32,1.49,1.49,0,0,1,.43-.81c.16-.09.61,0,1-.32s.67-.56.27-1a14.15,14.15,0,0,1-.9-1.21,9.25,9.25,0,0,1-.09-2.07,1.91,1.91,0,0,0-.23-1.51c-.27-.34-.29-.74-1-.63a11.65,11.65,0,0,1-1.86.05,6.32,6.32,0,0,0-1-1.51c-.47-.47-.89-.36-1.19-.85s-.2-.81-.63-1.2a21.8,21.8,0,0,0-2.58-1.86c-.56-.3-.47-.63-.83-.45a2.05,2.05,0,0,0-.86,1c-.25.49-.4,1-1.26,1.15a30.19,30.19,0,0,1-3.19.31,3,3,0,0,1-1.82-.81c-.29-.4-.72-.9-.63-1.15s.45-.4,1.15-.51a8.35,8.35,0,0,0,1.84-.29,8.08,8.08,0,0,0,1.8-1.26c.2-.27,1.21-.95,1.35-1.26s-.77-1.85-1-2.21a2.1,2.1,0,0,0-1-1.08c-.56-.27-.87-.72-1.35-.69a4.9,4.9,0,0,0-1.21.31c-.47.14-.72.25-.9,0s-.56-.54-.49-.78.24-.38,0-.77a8.44,8.44,0,0,1-.54-1.12c-.2-.52-.2-.79.09-1.15s.54-1,.81-1.08,1.12,0,1.35-.13a1.17,1.17,0,0,0,.58-.56,7.75,7.75,0,0,1,.77-1.6,2,2,0,0,1,1.8-.38c.54.22,1,.4,1,.6a1.07,1.07,0,0,1,0,.75c-.14.18-.25.49-.16.49a1,1,0,0,0,.61,0,1.19,1.19,0,0,0,.72-.43c.29-.29.4-.65.72-.83a2.52,2.52,0,0,1,1-.45c.41,0,.32.14.68-.29a9.56,9.56,0,0,0,1-2.92c0-.5.15-.86.2-1.28s.25-1.06,0-1.33-.43-.45-.76-.79a4,4,0,0,1-.86-1,1.46,1.46,0,0,0-.29-.74,2.44,2.44,0,0,0-1.39-.83,4,4,0,0,0-1.38.65,15.56,15.56,0,0,0-1.08,1.37c-.26.41-.09.86-1.1,1a14.93,14.93,0,0,1-2.09.09,4.76,4.76,0,0,0-1.1.14,10.7,10.7,0,0,0-1.93.72c-.39.29-1.24.49-1.24.36a1.63,1.63,0,0,1,.31-1,7.08,7.08,0,0,1,1.69-.88c.43-.13,2-.07,2.7-.25a3.21,3.21,0,0,0,1.66-.94c.34-.43.63-1.08,1-1.51a3.08,3.08,0,0,1,1.28-.83c.2,0,.2.18.54.18s.72-.92.83-1.26a1.33,1.33,0,0,0-.07-1c-.15-.38-.42-.45-.36-.9a4.63,4.63,0,0,0,0-1.33c-.07-.33-.59-.83-.75-1.21s-.22-.49-.4-.49a3.11,3.11,0,0,1-.9-.21c-.16-.09-1-.2-1.17-.38s-1-.61-1.12-.85-.25-.86,0-1,.47-.25.92.06a3.38,3.38,0,0,0,1.19.61.84.84,0,0,0,.84-.58,1.19,1.19,0,0,0-.14-1c-.2-.38-1-1-1.08-1.35a2.07,2.07,0,0,1,.09-1.57c.32-.5.65-1.13,1.1-1.33a13.18,13.18,0,0,1,1.49-.34,2,2,0,0,0,.56-1.57,6,6,0,0,0-1.17-2.68c-.4-.45-.92-1-1.21-.92s-.16-.06-.61.36a7.43,7.43,0,0,1-1.93,1.08,3.22,3.22,0,0,1-1.87.32c-.85-.09-1.91-.48-1.78-1.17s1.49-.79,2-.95,1.41-.56,1.43-.81a1.53,1.53,0,0,0-.18-.69c-.06-.18-.29-1.13.12-1.24s.54-.47,1.14-.07,1.42,1.06,1.87,1a1.41,1.41,0,0,0,1-.4,6.83,6.83,0,0,1,2.18-1.17c.25.07,1.17.54,1.44.65s.72.27.79.11a.9.9,0,0,0,0-.69,3.2,3.2,0,0,1-.45-1.22,2.09,2.09,0,0,1,.45-1.26c.27-.24,1.8-.22,2.25-.89A7.08,7.08,0,0,0,120,210a3.34,3.34,0,0,1,1-1.62c.41-.31,1.69-1.32,1.82-1.46a3.21,3.21,0,0,0,.34-.43,8.77,8.77,0,0,0-1.93-.33c-.54,0-1.06.33-1.44.24a5.91,5.91,0,0,0-1.73-.51c-.79,0-1.6,0-1.69,0a3.49,3.49,0,0,1-.45-1.19c-.07-.43.41-1.24-.61-1.65s-1.5-.22-1.95-.56-.41-1.21-.79-1.73a2.06,2.06,0,0,0-1.66-.76c-.74-.07-1.28-.21-1.69-.25a3.29,3.29,0,0,1-1.37-.36c-.43-.27-1.24-.77-1.08-1.1s.11-.7,1.17-.43a3.26,3.26,0,0,0,2.16.14c.56-.25,1.41-1.2,2.4-.93a6.23,6.23,0,0,1,2.57,1.69c.47.54.78.83,1.23.79a3.5,3.5,0,0,1,1.62-.07,12.42,12.42,0,0,0,1.85.83c.72.16.83.56,1.53.18a19.6,19.6,0,0,0,1.82-1.46,4.9,4.9,0,0,1,2.11-.45,8.27,8.27,0,0,0,2.41-.11,2.76,2.76,0,0,1,1.7-.34c1.2,0,1.71.25,2.12.2s.45-.09.74-.47.49-.38.27-.74-1.26-1.08-1.08-1.58a3.51,3.51,0,0,1,1.17-1.59,5.19,5.19,0,0,1,1.53-.56.36.36,0,0,0,.38-.34c0-.16-.16-.29-.58-.5s-1.4-.29-1.64-.51a2.86,2.86,0,0,1-.9-1.8,2.64,2.64,0,0,1,.63-1.49,1.26,1.26,0,0,0,.36-1.05c-.09-.32-.12-.41-.52-.61s-.77-.16-.9-.67-.14-1.17-.54-1.2a4.93,4.93,0,0,0-1.42.32,7.26,7.26,0,0,1-1.86.18,9.47,9.47,0,0,1-1.76-.45,7.07,7.07,0,0,1-1.55-.61,3.73,3.73,0,0,1-1.12-.9c-.07-.13-.59-.27,0-.49s1.42-.41,1.67-.5.47,0,.38-.29-1-.88-1.19-1-.52-.2-.47-.41.56-.54.78-.45a6.9,6.9,0,0,1,1.47.84c.22.24.08.65.78.87s1.06.45,1.53.09.74-1.1,1.28-1.08a3,3,0,0,0,1.33-.09c.4-.15.25-.36.9-.49s2.85-.72,3.69-.27,1.1.61,1,.94a1.1,1.1,0,0,1-.47.77,1.29,1.29,0,0,1-.72.11c-.38,0-.29-.13-.61-.18a3.14,3.14,0,0,0-1.21.14c-.31.11-.38.38-.7.63a2,2,0,0,0-.63.63c0,.15-.29.58.21.76s1,.52,1.28.2a9,9,0,0,1,.85-1.05c.27-.25.23-.39.86-.39a2.26,2.26,0,0,0,1.28-.31c.07-.11.13-.11,0-.36s-.18-.09-.16-.25a5.07,5.07,0,0,1,.58-.83c.14-.2.43-.7.65-.74s.66-.27.72.74.14,1.17.18,1.82.14,1.1.59,1.28,1.59,0,1.57-.4a3.07,3.07,0,0,1,.52-1.82c.36-.3.49-.5.22-1s-.83-.83-.76-1.48.09-1,.76-1.24,1.53-.45,1.83-1.14a4.88,4.88,0,0,0,.65-2.34c-.11-.79-.5-.88-.5-1.44a4.81,4.81,0,0,1,.09-1.6,2,2,0,0,0,.05-1.26c-.09-.24-.27-.24-.29-.54s0-.85-.14-.74-.49.72-.61.59a.63.63,0,0,1,.05-.7,20.26,20.26,0,0,0,.85-2.25,4.1,4.1,0,0,0,.43-1.68,52.38,52.38,0,0,0-2.45-5.81,16,16,0,0,1-1.55-3.14,3.62,3.62,0,0,1,.07-1.76c.27-.56,1.05-2.13,1.28-2.45a3.21,3.21,0,0,1,1.26-.94c.56-.25,1.59-.6,1.37-1a5.12,5.12,0,0,1,0-1.91,13.84,13.84,0,0,0,1.15-1.15,3.2,3.2,0,0,0,.18-1.55c0-.7-.36-.83.13-1.24a15.45,15.45,0,0,1,1.89-1.12,3.73,3.73,0,0,0,1-1.22c.13-.27-.21-.63.4-.69s1.67-.48,1.94-.09.38,1,.78,1.12a6.84,6.84,0,0,0,1.76-.27c.42,0,.9-.15,1,.64s.32,1.5-.2,1.9a12.07,12.07,0,0,0-2.07,1.82c-.27.48-.52.77-.2,1.2s1,.44.87.89-.29,1-.72,1.15-.85.2-.85,0a2.21,2.21,0,0,0-.43-1c-.2-.22-.47-.47-.6-.42s-1,1.28-1.2,1.53-.27.33-.51.38a2.32,2.32,0,0,0-1.06.25,1.78,1.78,0,0,0-.56.49s.18,0,.74.23a5.49,5.49,0,0,1,1.62,1.48c.18.31.13.65,1,.7a2.39,2.39,0,0,0,1.75-.41c.16-.25.65-.94,1.26-1a4,4,0,0,1,1.44.22,5.61,5.61,0,0,0,1.33-.06,2.3,2.3,0,0,1,1.08,1.05c.09.39.18,1,0,1s-.63.06-.72.24a1.54,1.54,0,0,0,0,1.22c.25.31,1,.74,1.33,1.17s.32.81.86.76a1.24,1.24,0,0,0,.89-.34c.14-.13,0-.81,0-1.39a4.67,4.67,0,0,0-.27-2,2.87,2.87,0,0,1-.53-1.3,4.15,4.15,0,0,1-.09-1.73,6.82,6.82,0,0,1,1.19-2.12,7.22,7.22,0,0,1,1.39-1.07,7.59,7.59,0,0,1,1.46-.7,1.05,1.05,0,0,1,1.19.27c.3.43.41.13.61.78a13.25,13.25,0,0,1,.41,1.92c.11.74.22,1,0,1.08s-.57,0-.75.06-.78.12-.69.74.22,1.15.78,1.42.77.2,1.06.63,0,.68.54.9.63.47.94.34a4.77,4.77,0,0,0,1.4-1.62,5.23,5.23,0,0,0,.36-2.52,10.26,10.26,0,0,0-.41-2.16,3.62,3.62,0,0,1-.27-1.84,4.83,4.83,0,0,1,.79-1.94c.45-.49,1.48-.4,2-.76a3.9,3.9,0,0,0,1.23-1.6c.21-.58.18-2.24.48-2.69a19.33,19.33,0,0,1,1.88-2c.43-.41,1.2-.88,1.42-1.55s.83-1.42.7-1.94-.56-.67-.41-1.48.86-2.7.86-3.33-.43-1.66,0-2.09a10.05,10.05,0,0,1,1.55-1.35c.45-.27.79-.56.72-.92s-.56-.52-1.31-1.1a5.83,5.83,0,0,1-1.3-1.2,2.09,2.09,0,0,0-.85-.8,15.78,15.78,0,0,1-2-2.12c-.69-.76-1.64-2.4-2.07-2.83a4.88,4.88,0,0,0-1.84-1.13c-.38,0-2.32-.09-2.92,0a4,4,0,0,0-1.55.2,9.64,9.64,0,0,1-2.23,1,20.24,20.24,0,0,1-2.65.16s-2.68.52-3.47.74-2.4.65-2.85.7a2.12,2.12,0,0,1-1.37-.27,8.54,8.54,0,0,0-2.45-.56c-1.26-.18-2.14-.18-2.54-.54a18.66,18.66,0,0,1-2.16-2.21,6.25,6.25,0,0,1-.66-1.84c-.06-.56-.42-1.53-.83-1.69s-.78-.65-1-.13-.11.69-.45.92-1.26.52-1.49.72a3.41,3.41,0,0,0-.49,1,1.85,1.85,0,0,0-.18,1.24,4.79,4.79,0,0,1,0,1.69,13.4,13.4,0,0,1-.45,2,2.1,2.1,0,0,0-.56,1.6c0,1-.14,1.44.42,1.91a2.84,2.84,0,0,0,1.28.79,6,6,0,0,0,1.26.24l.43-.09s.27.18-.22.5a3.09,3.09,0,0,1-1.87.72c-.65-.11-.81-.36-1.48-.14s-1.71.93-2.25,1.06a2.65,2.65,0,0,1-1.28.18c-.59-.07-1.26-.07-1-.13s1.26-.32,1.26-.32a5.19,5.19,0,0,0,1.06-.61,8.37,8.37,0,0,0,1.26-1.37,4.37,4.37,0,0,0,.22-2.54c0-.27,0-1.28-.11-1.84s-.36-.45-.2-.79.69-1,.6-1.46-.22-.88-.29-1.22a2,2,0,0,1-.09-1c.11-.27.83-.74,1.26-1.3a3.24,3.24,0,0,0,.81-1.35,3.49,3.49,0,0,1,.43-1.28,3.81,3.81,0,0,1,1.08-1c.33-.18,1-.25,1.19-.47a7.7,7.7,0,0,0,1.08-1.69c.07-.31-1-1.53-1.53-2.22s-1.89-1.89-2.36-2.41a3.22,3.22,0,0,0-1.22-1c-.27,0-1.37-.06-1.59-.06s-.38-.14-.54.4-1,1.4-1.44,1.37a3.14,3.14,0,0,1-1.51-.56,2,2,0,0,0-.92-.9,3.29,3.29,0,0,0-1.69-.34c-.81.07-1.21.21-1.3.5a14,14,0,0,1-.67,1.75,2.12,2.12,0,0,1-1.56.72,3.71,3.71,0,0,0-1.86.79,16.44,16.44,0,0,0-2.34,1.78,2.79,2.79,0,0,1-1.42,1c-.4.07-1,0-1.3.3a3,3,0,0,1-.88.67,7.36,7.36,0,0,1-2.54.47,10.27,10.27,0,0,1-2.22-.4c-.12-.09-.25-.34-.07-.45a9.27,9.27,0,0,1,1.5-.63,9.79,9.79,0,0,1,1.76,0,8.07,8.07,0,0,0,1.3-.57c.34-.15.7-.2,1.06-.36s.45,0,.63-.36a8.51,8.51,0,0,1,1.19-1.8,18.35,18.35,0,0,1,1.75-.62,3.79,3.79,0,0,0,1-1.24,7.09,7.09,0,0,1,1.84-2,1.83,1.83,0,0,1,1,0,2,2,0,0,0,1.39-.33c.29-.32.47-1.35.9-1.46a4,4,0,0,1,1.57,0,3.29,3.29,0,0,1,1,.63c.45.34.43.54.94.39s1.46-1.08,2-1.17a7.84,7.84,0,0,0,.94-.16.42.42,0,0,1,.43-.14c.27.07.22.18.49.25a7.58,7.58,0,0,1,1.46.47,3.9,3.9,0,0,1,1.08.88c.09.18.23.56.38.54s.36-.4.43-.72.29-.83.34-1,.22-.18-.25-.72A17.61,17.61,0,0,1,138,94c-.15-1.15-1.39-6-1.46-6.73s-.92-2.58-.76-3.41.56-1.91.69-2.61a11.07,11.07,0,0,0,.12-2,5.55,5.55,0,0,1,.06-1.29,3.23,3.23,0,0,0,.21-.63c0-.06-.48-.27-.48-.45a3.29,3.29,0,0,1,.27-.74c.14-.36.39-.74-.06-.85a2.35,2.35,0,0,0-1.51-.16,1.77,1.77,0,0,1-1.19.29c-.52-.06-1.6-.38-2.07-.49a6.33,6.33,0,0,1-1.66-.7c-.36-.25-.88-.34-1.06-.83s-.83-.92-1.57-1.71-1.51-1.24-1.74-1.51-.85-.42-1.07-.85a7.93,7.93,0,0,0-.59-1.06,3.65,3.65,0,0,0-1.93-.87,12.63,12.63,0,0,0-2.79-.18,5.67,5.67,0,0,0-1.51.63,14.09,14.09,0,0,1-2.09,1.25A3.4,3.4,0,0,1,114,69c-.56-.25-.16-.16-.52-.07a9.52,9.52,0,0,1-1.55.52,5.83,5.83,0,0,1-1.84.07,18.07,18.07,0,0,0-2.28-.32,5.35,5.35,0,0,0-2.31.14,13.36,13.36,0,0,0-2.18,1.21c-.45.34-.81.43-.86.74s0,1.64-.06,2.27a2.61,2.61,0,0,1-.7,1.56c-.43.45-1.18.81-1.19.94s.15.9-.36,1.3-1,.36-1.1.75a5.75,5.75,0,0,0-.16,1.61c0,.52.13,1.17-.07,1.31s-.49.43-.74,0,.25-.34-.47-.66-1.26-.24-1.37-.6-.32-.45-.09-.74.6-.54.76-.81a1.78,1.78,0,0,0,.34-1.08c0-.45-1.78-1.8-3.11-2.09a5.94,5.94,0,0,0-2.56-.34c-.81.13-4.07.36-5.15,1A24.82,24.82,0,0,0,82,78.9c-.72.9-3.31,4.77-3.35,5.37a7.85,7.85,0,0,0,.08,2.34,27,27,0,0,1,1.83,3.53,4.24,4.24,0,0,1,.18,1.94,3.25,3.25,0,0,1-.41,1.44c-.2.24-.76.29-1,.56s-.57,1.17-.25,1.55.49.81.79,1.15.58,1.07.83,1.07.45-.18.85,0a2.34,2.34,0,0,1,1.24,1c.18.45.58,1,.43,1.44s-1.26,2.07-1.49,2.52a14,14,0,0,1-1.21,2.09c-.34.38-1,1.15-1,1.26a1,1,0,0,0-.18,1.06c.27.63.84.6,1.31.38a3.32,3.32,0,0,0,1-.81c.25-.27.36-.23.65-.41a3.36,3.36,0,0,0,.79-.87c.13-.23.94-.36,1.26-.36s1.37-.05,1.62.33a18.46,18.46,0,0,1,.67,3.11,28.75,28.75,0,0,1,.43,4.25,5,5,0,0,1-.36,1.46,7.64,7.64,0,0,1-.65,1.21.68.68,0,0,0-.16.65c.07.36,0,1.31.49,1.35s.5-.24.88-.49a14.3,14.3,0,0,1,1.28-.79c.23-.09.5-.22.63,0a1.12,1.12,0,0,1,.14.9c-.07.54-.38.54,0,1a3.51,3.51,0,0,1,.67,1.1c.05.18.16.69-.31.76s-.86.11-1.06-.11-.27-.54-.52-.38-.45-.05-.58.45a4,4,0,0,0-.18.94.4.4,0,0,1-.45.41c-.25,0-1-.21-1-.54s.31-.86.29-1.15-.54-.72-.77-1.08a6.48,6.48,0,0,1-.78-1.89c0-.31-.27-.85.22-1.41s.56-.79.36-1.31-.34-1.08-.92-1.1a7.75,7.75,0,0,0-1.58.13,3,3,0,0,1-.78.21,4.86,4.86,0,0,1-1.6-.23c-.54-.18-1.19-.76-1.15-1s.32-1,.12-1.19-.56-.4-.79-.11a3.36,3.36,0,0,0-.31,1.1,5.51,5.51,0,0,1-.48,1.13c-.09.09-.67.49-.06.47a2.59,2.59,0,0,1,1.25.13c.18.14.57.54.54.84s-.15.83-.36.87-.85.3-1.28.05-.67-.47-.81-.43-1.08.54-1.1.76.11.27.25.45a.93.93,0,0,1,.22.81c0,.54-.06,1.11-.4,1.29s-.85.54-1.28.18-1-.72-1.15-1.35a21.18,21.18,0,0,1-.29-2.14,6.48,6.48,0,0,1,.45-1.82,1.75,1.75,0,0,1,.92-.77c.54-.2.7,0,.94-.38a3.41,3.41,0,0,0,.3-1.91c-.09-.61-.43-1-.23-1.48a16.61,16.61,0,0,1,.9-2.5c.34-.47.77-.76,1-1.1s.56-.34.61-1a2.11,2.11,0,0,0-.16-1.26c-.18-.33-.09-.6-.4-.78a3.65,3.65,0,0,1-1.44-1.35c-.23-.59-.54-1.26-.66-1.6a3.68,3.68,0,0,0-.51-1.17,1.91,1.91,0,0,0-1-.81,7,7,0,0,0-2.07-.45c-.4.07-.69.32-.6.61s.25.58.16.76-.14.41-.75.41-1.26-.65-1.62-.79a2.53,2.53,0,0,0-1.41-.09,14.38,14.38,0,0,0-2.43,1c-.83.33-1.8.67-1.91.92s-.43,1.24-.56,1.55a3.05,3.05,0,0,1-1,1c-.3.16-.63.36-.48.68s.16,1.06.48,1a9.76,9.76,0,0,0,1.46-.38c.27-.09.83-.36,1.12,0a2.13,2.13,0,0,1,.56,1.21.94.94,0,0,1-.33,1,2.27,2.27,0,0,1-1.67.29c-.6-.18-.94-.52-1.26-.47s-.67-.07-1,.2-.45-.13-.52.47a23,23,0,0,1-.56,2.77c-.16.47-1.17,1.87-1.33,2.29A9.05,9.05,0,0,1,56.46,113a11.64,11.64,0,0,1-1.44.81c-.25.09-1.77,0-2.18.09a1,1,0,0,0-.61,1,3.29,3.29,0,0,0,.41,1.19c.31.43,1.17.74,1.37,1.31a15.18,15.18,0,0,0,.7,2,5.43,5.43,0,0,0,1.08.54c.29.16.81.4.94.9a1.23,1.23,0,0,1,.05,1c-.14.4-.34,1.12-.41,1.43a1.48,1.48,0,0,0-.11.57,19.91,19.91,0,0,0,.16,2.52c0,.42-.14.71-.88,1.23a11.74,11.74,0,0,1-2.9,1.24,6,6,0,0,1-2.27.29c-.43-.09-.9-.13-.83-.58s.38-1,.4-1.26.13-.5-.11-.43-.72.56-.92.67a.78.78,0,0,1-1-.18,1.56,1.56,0,0,1-.52-1.07c0-.45,0-.7.22-1s.52-.4.63-.76.36-.43.16-1A7.63,7.63,0,0,0,47,121.71c-.38-.38-.94-.7-1-1.19s-.07-.61,0-.79a.89.89,0,0,0,0-.65c-.09-.11-.27-.47-.5-.83s-.38-.43-.49-.77-.32-.31-.09-.87,1.37-.75,1.68-1.08a1.63,1.63,0,0,0,.5-1.19c0-.45-.36-1,0-1.06s.43-.2.81-.25.72-.16.79.07a10,10,0,0,0,.54.94c0,.09.31.18.29-.09s-.16,0-.14-.56.45-1.17.32-1.57-.18-.7-.52-.59-.7-.09-.81.41a2.29,2.29,0,0,1-.36,1,1.58,1.58,0,0,1-.94.2c-.25-.07-.18-.54-.34-.92a1.27,1.27,0,0,0-.72-.72c-.29-.11-.49.11-.49-.32s-.21-1.17,0-1.46.42-.36.4-.58a1.55,1.55,0,0,0-.47-.74c-.07,0,.13.24-.25.24s-.27-.22-.61-.09-.49,0-.9.72-.54,1-.85,1.1-1.15.25-1.28.07-.11-.72-.34-.94-.31-.41-.63-.32-.36.38-.7.41a3.37,3.37,0,0,1-1.14-.25c-.29-.11-.47,0-.45-.29s-.09-.36.43-.47,1.1-.52,1.59-.41.83.38,1.08.38.81.12.83-.2.16-.56,0-.81-.23-.22-.23-.45.18-.45-.11-.52a20.54,20.54,0,0,1-2.07-.13.64.64,0,0,1-.41-.74,1.72,1.72,0,0,1,.45-1.28,1.89,1.89,0,0,0,.63-1.38,11.71,11.71,0,0,0-.22-2.38A4.41,4.41,0,0,1,40,99c0-.45-.14-.76.38-1.21a9,9,0,0,1,2.07-1.35,11.55,11.55,0,0,0,2-.52,4.37,4.37,0,0,0,1.39-1.53c.27-.53,2.07-4,2.23-4.49s0-1.37.09-1.91.76-1.08.92-1.71a14.65,14.65,0,0,1,.29-2c.25-.56.16-.88.86-1.12a9.83,9.83,0,0,1,2-.61c.77-.11.52-.27,1.31-.07s1.48.57,2,.21.9-1.2,1.44-1.51,1.8-.74,2-.88.38-.27.29-.58-.06-.43-.49-.61a5.05,5.05,0,0,1-1.53-1.12c-.11-.25-.4-.7-.25-1s.2-.72.61-.68.45.25.74.61.41.61.74.47,1-.43,1-.81-.39-.58-.39-1,.16-1.1.34-1.17.27.21.56.39,1,.51,1,.76,0,.34-.34.83-.32.61-.07.92a15.63,15.63,0,0,0,1.22,1.2c.42.4.69.63.94.38a9.54,9.54,0,0,0,1-1.35c0-.14-.14-.79-.09-1s.51-.89.94-.58.18.58.83.38a3.37,3.37,0,0,0,1.51-1.75c.09-.38.16-.72.63-.74a1.63,1.63,0,0,1,1.1.4c.16.16-.09.5.4.38s.86.07,1.11-.2.45-.88.78-1.06a7.12,7.12,0,0,1,2.12-.6,2.18,2.18,0,0,1,1.57.69c.18.3.56.75.94.66a2.22,2.22,0,0,1,1.2.31A13.61,13.61,0,0,0,79.93,76a4.43,4.43,0,0,0,1.71-.22c.52-.18,4.45-2.55,5-3s2.59-1.57,3.08-1.82,1.71-.81,2.2-1.1.48-.23.72-.57.79-1.84,1.17-2.06.65-.57,1-.32a1.08,1.08,0,0,1,.4,1c-.09.27,0,.49-.11.65s-.18.29.13.49a2.05,2.05,0,0,0,1.69.21,20.38,20.38,0,0,0,2.54-.65c.29-.18.72-.41.63-.81s0-.52-.36-.77-.85-.43-.83-.67-.07-.52.43-.7a8.61,8.61,0,0,0,1.46-.43,14,14,0,0,0,1.53-.85.64.64,0,0,1,.74-.09c.27.13.74.38.65.49a2.23,2.23,0,0,1-.67.83,2.6,2.6,0,0,1-1.06.43c-.34,0-.86,0-.9.23s.65,1,1.08,1.08a4.49,4.49,0,0,0,1.82,0c.88-.21,1.64-.45,1.87-.52s.29.38.4-.11.29-.57.32-1.15.31-.79-.07-.74-.54.11-.45-.09,0-.27.27-.43a9.28,9.28,0,0,1,2.76-.52c.9,0,1.35-.2,1.62.23a3.66,3.66,0,0,0,1,1.1,6.18,6.18,0,0,0,1.4.74,6,6,0,0,0,1.59.61,2.8,2.8,0,0,0,1.58.07,3.62,3.62,0,0,0,1.91-.93,16.7,16.7,0,0,1,1.93-1.75c.45-.18.72-.4,1.29-.16a3.8,3.8,0,0,1,1.41,1.2,4.37,4.37,0,0,0,1.49,1.14c.31.11.54-.09.9.47s.83,1.42,1.16,1.92a9.6,9.6,0,0,0,1.85,1.5,3.17,3.17,0,0,0,1.41.38c.34,0,.39-.13.7.27s.81.77,1.06,1.11.18.58.38.8.61.5.81.7.63.83,1,1a4.81,4.81,0,0,0,1.6-.2,1.62,1.62,0,0,1,.94.09c.5.11.81.58,1.51.09s1.51-.84,1.62-1.62,1.53-6.77,1.53-7.38a7.82,7.82,0,0,1,.27-2c.18-.63,1.71-5.15,1.87-6a14.82,14.82,0,0,1,1.14-2.93,6.14,6.14,0,0,1,1-1.3c.48-.52,2.7-2.27,2.81-2.83s-1-6.82-1-7.67-.43-4.36-.45-5.2a6.09,6.09,0,0,0-.5-2.06,3.85,3.85,0,0,1-.45-2c.16-.7.63-2.29.7-2.9a2.48,2.48,0,0,0-.63-2c-.63-.81-.9-1.08-1-1.82a2.12,2.12,0,0,0-.61-1.53c-.58-.81-1.39-2-2-2.79a6.89,6.89,0,0,1-1.8-2.88,20.68,20.68,0,0,1-.45-5.93,21.88,21.88,0,0,1,1.89-4.68,25.31,25.31,0,0,1,2.07-2.74,8.2,8.2,0,0,1,1.59-1.44,10.76,10.76,0,0,1,3.56-1.85A6,6,0,0,0,150.24,1.44ZM212,168.69c-.37-.23-.21-.57-.71-.61a11.11,11.11,0,0,1-2.56-.13,8.85,8.85,0,0,0-2.53-.27,9.41,9.41,0,0,1-2.6,0c-1-.24-1-.74-1.54-.78s-.65.11-1-.27-.37-.23-.81-.27-1.28-1.55-1.92-2.32,0-.74.27-.95,1.58,1.18,1.89,1.45.7.41,1.11.71a6,6,0,0,0,1.52.74c.67.27,1.18.34,1.75.58a11.43,11.43,0,0,0,2.73.57,26,26,0,0,0,3.68,0,12.13,12.13,0,0,0,4-.88,3.91,3.91,0,0,1,2.63.24,13.06,13.06,0,0,0,3.44.54,18.8,18.8,0,0,0,3.1-1.52,8,8,0,0,1,2-1,1,1,0,0,1,1.28.54,1,1,0,0,1-.47.91,4.1,4.1,0,0,0-1.32,1.35,3.92,3.92,0,0,0-.3,2.19c0,.34-.74.74-1,.91s-1-.2-1.82-.84-.57-.3-.87-.1a3.25,3.25,0,0,0-.81,1.28c-.21.47.5,2.12.77,2.63a11.12,11.12,0,0,0,2.06,1.79c.61.5,1,2.12,1.11,3.23a3.17,3.17,0,0,1-.23,1.79c-.17.54-1.32.27-1.79.24a4.46,4.46,0,0,1-1.15-.44c-.3-.1-.91.61-1.25,1s-.13,1.11-.2,1.45-.57.7-.81.94.71,1.18.85,1.21a8.44,8.44,0,0,0,2.29-.4c.5-.24.13-.2,1.85-1.18a12.25,12.25,0,0,0,1.29-.81,4,4,0,0,1,.94,1.38c.1.37-.17.2-.17.2a4.81,4.81,0,0,0,.07.85c.07.27.5.27.74.54s0,.57-.07.87-.37.24-.71.51-2.15.71-3,1.11-.61.91-.61,1a3.46,3.46,0,0,0,1.25.91,4.35,4.35,0,0,0,1.21-.07,18.51,18.51,0,0,0,2.5-.78c.57-.23,1,.54,1.25.54s.13-.4.17-.74.37.24.57.54a4.37,4.37,0,0,1,.27,1.45,3.71,3.71,0,0,1,.1,1,2.87,2.87,0,0,0,.14,1.28c.13.44.4.27.64.23s.23-.44.54-1.35.27-.54.47-.77a1.2,1.2,0,0,0,.3-.74,4.83,4.83,0,0,1,.14-1.25c.13-.54.37-.57.6-.95s.75-.23,1-.33a2.37,2.37,0,0,0,.74-1.28,1.19,1.19,0,0,0-.16-1.08c-.14-.27-.65-.21-.78-.48s-.3-.67-.47-.94a2.4,2.4,0,0,1-.14-1.11A17.29,17.29,0,0,1,234.4,180a16.12,16.12,0,0,1,2.06-.61c.23-.1.57-1.28.67-1.75a20.65,20.65,0,0,0,0-2.83c0-.44-.61-.91-.88-1.42a29.07,29.07,0,0,1-2.06-4.32,2.24,2.24,0,0,1,.78-1.95,7.16,7.16,0,0,1,2.33.47,13,13,0,0,0,1.48,1.79,2.33,2.33,0,0,0,1.18.4c.24,0,.54.57.64.88a16.22,16.22,0,0,1-.27,2.63c-.1.88.24,1,.37,1.42a13.7,13.7,0,0,1,.91,2.52c0,.65.17,1.93.21,2.77s.4,1,.91,1.59a2.45,2.45,0,0,1,.67,1.41c.14.54-.17,1.11-.24,1.65a4.56,4.56,0,0,1-.23,1,6.93,6.93,0,0,1-.2.71c-.14.4-1.08.4-1.42.23s-.74-1.28-.74-1.28a17.22,17.22,0,0,0-.71,1.72c-.24.74.24.57.4,1.08s0,.47-.4.81a3.74,3.74,0,0,0-.84.91c-.11.2.43.64.81.88a2.38,2.38,0,0,0,1.38.27c.5,0,.74-.41,1.25-.58s.81.75,1.11,1.18,1.11,1.42,1.31,1.69,1.08,0,1.22-.27-.34-.88-.57-1.25a5.88,5.88,0,0,1-.44-2.16c0-.57.27-2.86.23-3.94s-.1-.68-.27-1.08-.67-2.16-1-3a18,18,0,0,1-.34-4.89c.07-1-.67-1.45-.94-2a7.1,7.1,0,0,1-.31-2.36,6.08,6.08,0,0,0-.74-2,24.67,24.67,0,0,1-.57-4.18c0-.37-1.32-1.08-1.66-1.32s0-1.48-.37-2-.44,0-.7.1a18.36,18.36,0,0,0-2.67,1.56,5.39,5.39,0,0,1-1.25.87,4,4,0,0,1-2.19-.2c-.91-.24-.78-.61-1.08-.81s-.1-1.31-.1-1.55a34.78,34.78,0,0,1,3.68-2.93c.91-.71,3.57-2.6,4-3s2.06-2.15,2.06-2.15,8.74-7.83,9.24-8.07a4.15,4.15,0,0,1,1.89,0c.41.07,2.19,0,2.53,0s2,1.79,2.39,2.1,2-.21,2.33-.31,1.32.34,1.76.37,2.76.17,2.76.17,2.29,1.38,2.46,1.52a3.89,3.89,0,0,1,1,1.21,1.1,1.1,0,0,0,1,.68c.4.07.84,1.08,1,1.35a7.17,7.17,0,0,1,.1,2.36,5.85,5.85,0,0,1-.94,2.39c-.41.47-.88,3.17-1.08,3.61a9.16,9.16,0,0,1-1.11,1.49c-.24.27.47,2.12.5,2.32a13.79,13.79,0,0,0,.88,1.82,4.23,4.23,0,0,1,.64,1.69,19,19,0,0,0,.91,2.26c.17.51,1.45,2,1.62,2.6s.3,2.36.44,3.13.6,0,.87,0,.58.88.58,1.28.06,1.19.06,1.62a5.62,5.62,0,0,1-.57,2.23c-.3.37,1,2.12,1.22,3s.2.5.54,1.08.91.4,1.07.67a13.4,13.4,0,0,1,.38,1.89c.2.91.6.91,1.07,1.55a19,19,0,0,1,1.83,3c0,.34.64,2.53.77,3s-1.08.84-2.06,1.15-1.51,2.09-1.88,2.46-3.58-.64-3.88-.74-.71-1.15-.88-1.55-.57-1.08-.64-1.39a10.92,10.92,0,0,1,1-2.32,2.79,2.79,0,0,0,.2-1c0-.2-.14-.3-.27-.2s-.07.17-.27.34-.44.13-.88.3-.54.81-.7,1.08-.21,1.58-.38,1.75.78.27-.16.37a9.32,9.32,0,0,1-1.89-.13c-.58,0-.85,0-1.12,0s-.5-.54-.54-.64a3.33,3.33,0,0,0-1.61,0c-.68.13-.68,1.65-.68,1.92a3.4,3.4,0,0,1-1.18,1.62c-.67.54-5.36,4.48-5.63,5.13s-2,4.82-2.26,5.36.34,2.26.34,2.63a14.45,14.45,0,0,0,2.79,3.07c.34.13,3.31,1.14,3.85,1.35s3.41.44,4.05.64a16.56,16.56,0,0,1,2.7,1.62c.26.2,2.22,3.74,2.46,4.18a8.32,8.32,0,0,1,.44,1.62,10.62,10.62,0,0,1,.4,1.25,5.24,5.24,0,0,1-.44.94c-.17.34-1.65,3-1.75,3.1s-1.08.44-1.55.71a9.51,9.51,0,0,0-1.66,1.62c-.2.27-1.38.3-2.63.34a14,14,0,0,0-4.58,1.78c-.61.41-3.48,2.84-4.25,3.34s-2.13,1.28-2.36,1.42.1,1.89.1,2.23-.54.5-.85.81-.33-.17-.37-.48a1.14,1.14,0,0,1,.17-.81,1.14,1.14,0,0,0,.17-.91,8.68,8.68,0,0,0-.44-1.38c-.1-.2-.37,0-.77,0s-.78.84-1.29,1.32-1.14.43-1.82.7a1.38,1.38,0,0,0-.91,1c-.13.34.64.5.91.5s.75.64.75.74a4.07,4.07,0,0,1-.65,1c-.4.54.81.84.88.74s.74-.54.84-.71,1-.2,1.19-.23a19.86,19.86,0,0,1,2.05.74c.31.06.41-1.08.44-1.42s1.05,0,1.25,0a3.68,3.68,0,0,1,1.25.88c.06.13,1.35,2.19,1.35,2.19v.74a1.62,1.62,0,0,1-1.49,1.25c-1.08,0-.61-.81-.84-.88a9.56,9.56,0,0,0-1.35,0c-.68,0-.78,1-.94,1.12s.94.43,1.65.67.4.34.81.84a3,3,0,0,1,.54,1.25c.06.24.2,1.28.2,1.28a5.65,5.65,0,0,0,1.21.68c.41.1.31.57.21.74s.27.71.33.88a.51.51,0,0,1-.33.6c-.27.07-1,1-1.39,1.18a12.31,12.31,0,0,1-3.37,1c-1.15.1-.44.53-.92.9s-.53.17-.83.24-.27,1-.58,1.08-1-.24-1.58-.58-.91-1.11-1.59-1.64a18.4,18.4,0,0,0-2.66-1.66c-1.22-.68-1.25-.07-1.62.13s-.1.88-.24,1-.77,0-1.14-.17-1.22-1.79-1.55-2.12-1.72-.31-2.7-.81a10.21,10.21,0,0,1-2.23-1.79c-.47-.44-2-.24-2.53-.24a6.16,6.16,0,0,1-2.16-1.26c-.23-.22-3.23.18-3.67.29s-.31-.14-.51-.61c0,0,4.25-.44,4.59-.41s7.11,3,7.22,3.11.7-.88.7-1a17.41,17.41,0,0,0-.5-1.92c-.2-.6-.41,0-.51,0a11.94,11.94,0,0,1-2.09-1.08c-.17-.2-.54.31-.71.41a2.79,2.79,0,0,1-1,0c-.1,0-.31-1.32-.54-1.62s-.68,0-1.22,0-.94-1.69-1.14-2,.4-.91.67-1,.47.17.88.48a9.19,9.19,0,0,1,1.14,1.31,1.35,1.35,0,0,0,1,0c.58-.2-.06-.4,0-.84a.93.93,0,0,1,.81-.61,5.24,5.24,0,0,0,1.08,0c.5-.07.47-.47.43-.88s-.57-.4-.67-.64a3.17,3.17,0,0,1,.13-1.28c.11-.5-.3-.33-.67-.37s-.57,1.15-.64,1.35-.37-.27-.57-.4.06-.58,0-.8-.61-.35-.75-.35a8.08,8.08,0,0,0-1.45.57c-.37.2-.2-.23-.3-.54s.37-1,.88-1.75.54-1,.54-1.33-.24-.46-.31-.83a5.48,5.48,0,0,1,0-1s-1.55-.32-1.92-.32-.64.71-.88.95a2.2,2.2,0,0,1-.94.5c-.3.07-.1.61-.24,1s.17.54.31.7.13.48.1.94a9.51,9.51,0,0,0,0,1.09c0,.41.37,1.15.34,1.48s-.68,0-.78,0-1.92-3.16-2.12-3.51-.54-.19-1.76-.43a35,35,0,0,0-4.92-.1c-.71,0-1-.84-1.42-1.15a4.92,4.92,0,0,0-2.86-.54,28,28,0,0,0-4.62.54c-.64.14-.81.74-1.12.73s-.74-.36-.84-.32,0,.94,0,1.09,1.39.73,1.52.9-.84.27-1,.4-1.12-.57-1.39-.94-1.24-.21-1.78-.36-.71-.18-1-.92,0-1.15,0-1.56-.34-.37-.81-.6a.81.81,0,0,1-.37-.95c0-.27.24.17.61.31s.5-.07.74-.31.3.07.5.24.38,0,.78-.17,0-.67.14-.91.81-.34,1.07-.91-.33-.88-.67-1.05-1.08.71-1.15,1-.3.27-.54.47-.6.51-.6.51-.75-.78-.75-1.28a2.94,2.94,0,0,1,.48-1.18c.06-.21-.58-1-1.15-1.45s-.78-.27-1.38-.31-.85-.64-1-1-.71-.44-1.38-.58a4,4,0,0,1-1.52-.44,1.27,1.27,0,0,1-.71-1.21c0-.47-.27-.44-.7-.91s-.27-.64,0-1.35a1.39,1.39,0,0,1,1-1c.3-.07.81.41,1.18.41s.57-.34.91-.64a15,15,0,0,0,.94-1.35c.48-.61.78-.24.81-.37a10.06,10.06,0,0,0-.57-1.93,12.77,12.77,0,0,0-1.21-2.73,8.93,8.93,0,0,0-1-1.21,4.66,4.66,0,0,1-.68-2.46,3.58,3.58,0,0,0-.6-1.59c-.34-.67-.58-1.08-.95-1.68s-.5-.44-.94-.65-1.32.31-1.59.54a.33.33,0,0,1-.57-.2c0-.24.5-.71.64-1s.47-.24.61-.34a17.64,17.64,0,0,0,2.29-.5c.57-.31,1-.78.94-1.19a6.54,6.54,0,0,0-.2-1.82c-.27-.77-1-1.18-1.65-1.85s-.74-.81-.88-1.42a8.08,8.08,0,0,0-.27-1.68c-.23-.54-1.18-.48-2.39-.88a45.26,45.26,0,0,1-4.32-1.92c-.94-.46-.81,0-1.69,0a4.11,4.11,0,0,1-1.78-.27c-.81-.24-.17-.54-.14-.85s.54-.17.85-.27a11.66,11.66,0,0,1,1.92-.06,23.82,23.82,0,0,1,2.43.84,2.47,2.47,0,0,0,1.85-.51c.47-.3.37-.81.34-1.24s-.17-.54-.47-1.08-.44-.21-.91-.21a5.46,5.46,0,0,1-1.35,0c-.71-.1-.71-1.08-1-1.51s-.74-.64-1.08-.91-1.92.33-2.29.4-.61,0-1.08-.51-.51-.33-.88-.37-1.82,0-2.16,0a1.52,1.52,0,0,1-.84-.23c-.3-.17-.17-.74,0-.91a9.74,9.74,0,0,1,2,0c.43,0,2.22-1.12,3-1.25s2,.64,2.67.4,1.75.14,2,0,1.31.88,1.39.85,1.14-.31,1.75-.44.53-.17,1-.78a4.32,4.32,0,0,1,1.35-1.25,1.94,1.94,0,0,1,1.32,0c.23,0,1.48,1.45,1.88,1.43s.75-.62,1.12-.82.64.61.93.78,1.19-.24,1.5-.58.64-1.41.94-1.48.94.71.9.44.11-.37.41-.57,1.15.1,1.32,0a7.1,7.1,0,0,0,1.05-.88c.13-.2-.07-.84-.21-1.25s.48-.81.71-1.28a6.34,6.34,0,0,0,.57-1.49c.11-.47-.64-1.41-.87-1.85a3.84,3.84,0,0,1-.41-.88c0-.1.31-.37.44-.5s.68,0,.84.2a2,2,0,0,0,1.29.47,5.11,5.11,0,0,0,1.38-.61,7.85,7.85,0,0,0,1.82-1.75,16.58,16.58,0,0,0,2.33-3.44,12.69,12.69,0,0,0,0-1.85c0-.71.64-.88.84-1.05s1-.34,1-.64-.74-.64-1.08-.81-1.11,0-1.45,0m-155.46-82c1-.23,1.21-.86,1.66-1.87A27.82,27.82,0,0,0,60.37,82c.09-.67.59-.45.72-.31a1.18,1.18,0,0,0,.81.31,2.2,2.2,0,0,0,1.26-.76c.27-.32.27-.63.68-1s.4.13.53.27,0,.72-.22,1.26,0,.81,0,1.3.67,1.21.62,1.8a3.59,3.59,0,0,1-1,1.75c-.54.68.09,1,0,1.64a3.16,3.16,0,0,1-.58,1.33c-.27.5-.36.27-.36.27a2.35,2.35,0,0,0,0-1c-.14-.36-.68-.18-1-.4s-.68-.77-.81-.81-.41.45-.77.94-.18,1.53-.13,2.2a11.61,11.61,0,0,0,1.48,2.88,5.25,5.25,0,0,1,.9,2.66,3.3,3.3,0,0,1-.67,1.75c-.27.54-.81.4-1.31.76s-1,2.3-1.62,3.24a14.75,14.75,0,0,0-1,3.37c-.32,1-.76.86-1.26,1.49s-2.11,1.12-3,1.39-1.49.54-1.67.86-.45,1-1,1.26-.45-.27-.72-.9-.94-1.8-1.08-2a3.21,3.21,0,0,0-.81-.63c-.31-.22-.58-.22-.63-.61s.45-.38.77-.42.4,0,.72.31.58,0,.76-.36-.09-.58-.31-1-1.13-.14-1.35,0-.54-.34-.68-.52-.45.09-.85.4-.5-.09-1.17-.4-.32-.63-.5-1-.63,0-1.08.27-.94,1.13-1.08,1.17a1.54,1.54,0,0,1-1-.54c-.23-.31,0-1,.22-1.57a.85.85,0,0,1,.8-.68,3,3,0,0,0,.82-.49s.4-.5.31-.77-.49-.36-.72-.72a3.76,3.76,0,0,1-.4-1.39c-.09-.59.58-.36.58-.36a1.55,1.55,0,0,0,.68.54c.45.18.76-.41.9-.51a2.5,2.5,0,0,1,1.62-.08,2.94,2.94,0,0,0,1.29,0c.49,0,.42-.45.64-.76s.5-.85.72-1.21,0-.32-.22-.54-.81-.36-1-.43,0-.34,0-.47.59-.41,1-.5.23-.36,0-.81-.27,0-.23-.31.59-.36.59-.68,0-.94,0-1.93.22-.94.4-1.21C49.94,89.27,56.06,87.6,57.05,87.38ZM42.88,224.49c.11-.3-.63-.18-.85,0s-.45.09-.59.36,0,.4,0,.67.2.77-.06,1-.34.13-.43.31-.59.49,0,.81.94.31,1.12.45,0-.27.81,1.3,2.2,4,2.43,4.37.67.62,1.08,1.07.63,1,.9,1.22.58.13.76-.27a4.36,4.36,0,0,0,.45-1.58A2.17,2.17,0,0,0,48,233c-.45-.63-.81-.54-.63-.9s.36-.31.27-1,.27-1.48-.27-2.16-.58-1.17-1.08-1.08-.45-.13-.63.27a1.43,1.43,0,0,1-.45.59s-.68-.18-.58-.5a1.18,1.18,0,0,0,0-1c-.23-.49-.27-.72-.72-1S42.75,224.85,42.88,224.49Zm-4.5-3.87s-.67-.23-.4.31.31.63.58.72S38.38,220.62,38.38,220.62ZM53,241.17s-.49,0-.63.18-.4.49-.49.63l-.36.49s-.14.63,0,.77,0,.22.45.22.76,0,1-.22A1.68,1.68,0,0,0,53.4,242,1.11,1.11,0,0,0,53,241.17ZM49.58,251.6A1.94,1.94,0,0,0,49,252a2.1,2.1,0,0,0-.22.81c0,.14.63,1.4.54,1.58s-.5.18-.5.18-.13,2.33-.28,3.14a4.67,4.67,0,0,0,0,1.58c0,.45.35.76.35,1.21a4.47,4.47,0,0,1-.35,1.58c-.14.13.4.18,1,1.16s.27.63.54,1.31.85.31,1.38.27.82-1.17,1-1.52.36-.28,1-.06.36-.22.72-.67-.13-1.3-.49-2.07a3,3,0,0,1-.23-2c.09-.85.36-.76.36-1.21v-1.35c0-.49.54-1,.77-1.53a3.27,3.27,0,0,0,.31-1.84c-.09-.81-.9-1-1.08-1.08s-.85.31-1.35.22a4.84,4.84,0,0,1-1.57-.81c-.32-.22-1.12.32-1.53.36Z"/>
        <path class="cls-11 aaa" d="M133.4,185.27a9.39,9.39,0,0,0,0,1.08c0,.27.23.45.63.54s.77.45.81,0,0-.68,0-.7-.71-.56-.71-.56Z"/>
        <path class="cls-11 aaa" d="M146.49,190c-.27.18-.54.54-.41.86a1.73,1.73,0,0,1,.19,1c-.05.36.06.81-.22,1a9.85,9.85,0,0,1-.91.54c-.27.14-.45-.22-1,0s-1.21,0-1.21.27,0,.54.62.5a10.09,10.09,0,0,1,1.15-.18,3.69,3.69,0,0,1,1.06.18,5,5,0,0,0,1.44,0c.31-.05.45-.14.49-.54a4,4,0,0,0,0-1.5,3,3,0,0,1-.27-1C147.43,190.85,146.49,190,146.49,190Z"/>
        <path class="cls-11 aaa" d="M152.29,172.1h1.12c.27,0,1,0,1.08.22s-.13.41-.31.72-.31.54-.79.5-.83.27-.92-.23S152.29,172.1,152.29,172.1Z"/>
        <path class="cls-11 aaa" d="M159.12,166.93c.41.27.81.13.79.9a17.94,17.94,0,0,0,.29,2.92,11.94,11.94,0,0,0,.86,2.1,18,18,0,0,1,2.2,1.32c.32.31.81.63.77.9s-.68.36-.86.4-.49-.09-.4.59a5.16,5.16,0,0,0,.76,2.11,1.16,1.16,0,0,0,1.3.45,4.34,4.34,0,0,0,1.26-.81c.18-.27.27-.77.45-.54s.63,1.39.41,1.8a12.13,12.13,0,0,0-1.35,2.16,10.29,10.29,0,0,0-.72,3.05,6.11,6.11,0,0,1-.13,2c-.18.59-.68,1.76-.86,2.25s-.7.68-.82.81-.08.23-.71-.18-1.48-1.12-1.84-.94-.63.58-1,.18-1.21-.45-.94-1.17a3.69,3.69,0,0,0,.4-2.07c-.13-.77-.64-2.07-.45-2.79s1.17-1.48,1.33-1.8.38-.63.83-1.48a5.78,5.78,0,0,0,.86-2.39c0-.85.18-1.52-.09-1.93s-.54-1-1-1.16-.27.26-.85-.41-1.89-2.21-1.71-3a7,7,0,0,1,.54-2.06A7.64,7.64,0,0,0,159.12,166.93Z"/>
        <path class="cls-11 aaa" d="M165.33,174.17a.7.7,0,0,1,.67.4,10.25,10.25,0,0,0,.5,1s-.14.14-.41,0-.85-.39-.76-.67A1.79,1.79,0,0,0,165.33,174.17Z"/>
        <path class="cls-11 aaa" d="M189.79,172.32c1.08.05,1.13-.18,1.71,0s1,.45,1.17.86.5.36.94.85.72.68.86,1,.54.31,1.53.67,1.89.41,2.11.81.95.9,1,1.17,0,.81-.54.76-1.13,0-1.44-.58-.27-.9-.77-.86-2.25.09-2.61-.4-1.12-2.16-1.66-2.34a12.51,12.51,0,0,1-1.89-.9C190,173.22,189.79,172.32,189.79,172.32Z"/>
        <path class="cls-11 aaa" d="M201.62,182.62c.22,0,.58.18.63.81a14.1,14.1,0,0,0,.27,1.66s-.5-1.08-.72-1.48A2,2,0,0,1,201.62,182.62Z"/>
        <path class="cls-11 aaa" d="M121.26,212.57l-.81.81c-.31.31-1,.36-1.26.54s-.85.22-.9.81a4.54,4.54,0,0,1-.22,1.48c-.23.68.45,1.53-.23,1.62a5.87,5.87,0,0,1-2-.31c-.58-.14-1.39-.59-1.66,0s-.63.76,0,1.26a2.25,2.25,0,0,0,1.62.67c.67,0,1-.13,1.39.36s1.13,1.44,1.22,1.62-.14.27.54.45a8.93,8.93,0,0,1,2.29,1.17c.41.31,1.17.76.81.9s-1,.67-1.44.81-.45,0-.94-.32-2.34-1.3-2.48-1.39-.58-.54-.58-.23a2.1,2.1,0,0,0,.54,1,1.55,1.55,0,0,1,.36.81c0,.36.06,1,.48,1.26s.46.86,1.27.63,1.26-.58,1.94-.27.71.72.58,1-.4.85-.13,1.08.36.18.49.4-.4.5-.45,1a2.17,2.17,0,0,0,.72,1.71c.54.45.67.36,1.53.5s.9-.45,1.39.45.9,3.55,1.26,4.45.54,2.11.72,2.65,0,.63.41,1.13a1.27,1.27,0,0,1,.31,1.34c-.13.72-.81.9-.76,1.44s.36.81,1,.9a5.85,5.85,0,0,1,1.08.27c.54.14.9-.18,1.48.18s1,.41,1.13,1.35a24.69,24.69,0,0,0,.27,2.56c.13.59.13,1,.4,1a.87.87,0,0,0,.68-.18c.18-.18.54-.49.31-.81s-.9-.71-.58-1.12.19-.72.65-.4a9,9,0,0,1,1.33,1.43,2.41,2.41,0,0,0,1.7,1.08c.95.09,1.44.5,1.85,0s.36-1.21,1.12-.94.5.18.81.85,0,1.22,1.13,1.67,1.7.45,2.11.94.45.63,0,.72-.85.09-.94.77a1.54,1.54,0,0,1-1.44,1.3c-.77,0-1.26-.9-1.76.27s-1,1.75-.58,2.52.49.9.81.85.31-.18.58-.72,1.08-.36,1.44-.54-.09-.81.63-.9,2.61.14,3,.63,1.8.95,2,.77.67-.41,0-1-1.4-.81-.77-1.12a5.18,5.18,0,0,1,1.8-.72c.41,0,1.17.41,1.26.9s.41,1.3,1.08,1.21,1.39-.45,1.44.23-.59,1.57.36,1.93,1.89.27,2.07,0,.54-.22.36-.94-.44-1.44,0-1.58a1.38,1.38,0,0,1,1.48.18c.45.45.54.77.22,1s-1,.45-.45.9a3.75,3.75,0,0,0,1.17.64l4.09.62a6.67,6.67,0,0,0,2.21.4c.4-.18,5.17-3.6,5.71-3.78s4.9-.72,5.39-.81a21.85,21.85,0,0,0,2.84-1.88c.18-.09-.86-2.66-.27-3.56s1.88-2.2,1.75-3.32-.45-3-.18-3.51.15-.77.19-1.62a8.67,8.67,0,0,0-.23-2.79,11,11,0,0,1-.77-2.38,1.35,1.35,0,0,0-.54-1.31c-.54-.36-1.26-.58-1.26-.9s.18-.8.5-.71.46.4,1,.31,1.54.36,1.67-.49a4.74,4.74,0,0,0-.4-2.79c-.49-1.31-2.56-3.47-3-4s-1.53-.71-2.56-1.34-3.6-2.57-3.73-3.11-.54-1-.32-1.66a4.43,4.43,0,0,1,1.08-1.8,4.1,4.1,0,0,1,1.57-.81c.27,0,1.89-.81,1.44-1.21a13.34,13.34,0,0,1-2.33-2.48,25,25,0,0,0-1-3.14,5.86,5.86,0,0,0-1.35-1.4c-.27-.22-.23,0-.59-.67s-2.25-4.36-2.79-5a4.6,4.6,0,0,0-1.25-1s.13.63.18.76-.41-.22-.5.18a1.31,1.31,0,0,0,.41,1.17c.26.18.4.22.71,1s.63,1.21.32,1.21-.32.32-.59-.09-.31-.4-.31-.63-.18-.85-.22-.31-.23.45,0,1.12a9.14,9.14,0,0,1,.49,1.49c.05.54-.22,1.3.09,1.93s1,1.22,1,1.66-.23.54-.9.23a3.66,3.66,0,0,1-1.35-.9c-.22-.31-.4-.76-.58-.31s-.32.58-.36.71-.41.23,0,.54,0,.27.49.63.45-.18,1.13.41.94.81,1.07,1.48.41,1.62,0,1.76-1.3-.09-1.62.09a8.1,8.1,0,0,0-1,.9c-.41.36-1.08,1.21-1.53,1.34s-1.76-.13-1.94,0-.13.31-.18.72a5.85,5.85,0,0,1-.81,2.11c-.27.18-1.12.59-1.52.32s-1.35-.59-1.22-1.17a14.78,14.78,0,0,1,.63-1.94,2.61,2.61,0,0,1,1.08-1.21c.49-.22,1-.13,1-.72s0-.67.18-.85a.94.94,0,0,0,.13-1c-.18-.59-.61-1.17-.69-1.49s.42-.85.65-.85,0-.18.49-.36.27-.09.88,0,.79-.09.79.36-.14.86.22,1,1.08.36.68-.14a12.67,12.67,0,0,0-1.31-1.75c-.49-.4-1.08-1.17-1.21-1.17a6.21,6.21,0,0,1-1.66-.49,3.1,3.1,0,0,0-1.49-1.35,8.73,8.73,0,0,1-2-.77c-.45-.31-.27.23-.81-.81a5.05,5.05,0,0,0-2.3-1.8c-.35-.18-.58-.81-1.3-.9l-2-.26s-.67.4-.54.58a1.67,1.67,0,0,1,.36,1,4.14,4.14,0,0,0,.43,1.53.76.76,0,0,1-.38,1.12c-.59.32-1.17,1.08-1.4.59s0-1.17-.13-1.31a1.07,1.07,0,0,1-.18-.94c.09-.32.56-.68-.33-.59a14.77,14.77,0,0,0-4.3,1.58,12,12,0,0,1-3.29,1.35c-1,.27-3.91.81-4.49,1.3s-1.67,1.53-2.25,2.16-1.76,1.75-2.07,2.07a3.29,3.29,0,0,1-1.8.76,2.28,2.28,0,0,1-1.71-.36c-.72-.49-1-.31-1.12-1a4.62,4.62,0,0,0-.36-1.85c-.32-.49-.41-.85-.9-.89A8,8,0,0,0,121.26,212.57Z"/>
        <path class="cls-11 aaa" d="M140.69,205.15s-.36.85-.27,1,.36.4.54.22S141,205.11,140.69,205.15Z"/>
        <path class="cls-11 aaa" d="M133.58,249.8c-.18,0-1,0-1,.68s.36.94.5,1.3a5.59,5.59,0,0,1,.18,1.31,4.14,4.14,0,0,0,.63,1.44c.18.36.22.63.72.63s1,.13,1.21,0,.63-.14.45-.86a2.13,2.13,0,0,0-.72-1.26,12.08,12.08,0,0,1-.81-1.08c-.22-.27-.54-.36-.54-.85s-.09-1.58-.09-1.58Z"/>
        <path class="cls-11 aaa" d="M139.47,253a7.12,7.12,0,0,1-.76.27c-.32.09-.77.23-.41.45s.54,0,.77,0a1.64,1.64,0,0,0,.63-.31s.36-.45.22-.41A1.3,1.3,0,0,1,139.47,253Z"/>
        <path class="cls-11 aaa" d="M142.85,259.43s.27-.09.45.31.53.75.76.76h.76s.36.68,0,.95-.56.45-.91.36-.53-.09-.75-.36-.27-.27-.31-.58A13.45,13.45,0,0,1,142.85,259.43Z"/>
        <path class="cls-11 aaa" d="M149,258.75s-.49-.13-.49,0-.5.36,0,.45a2.35,2.35,0,0,0,.81,0C149.55,259.2,149,258.75,149,258.75Z"/>
        <path class="cls-11 aaa" d="M148.8,261.36c0,.14-.08.14,0,.47s.84.79,1.24.84,1.39.17,1.53,0a.69.69,0,0,0-.32-.84c-.31-.11-.63-.56-1.05-.65a4.53,4.53,0,0,0-1.15,0Z"/>
        <path class="cls-11 aaa" d="M152.11,262.26s-.18.05,0,.27.76.36.9.45,0-.05.67,0a2.43,2.43,0,0,0,1.4-.22c.27-.18.76-.45.36-.5s-1.55,0-1.63,0Z"/>
        <path class="cls-11 aaa" d="M161.91,261.83a2.44,2.44,0,0,0-.9.41c-.09.11-.36-.06-.4.39a1.33,1.33,0,0,0,.4.89.67.67,0,0,0,.45,0c.23-.09.18-.32.45-.32s-.22.05.27,0,.63.38.63-.19.27-1.06,0-1.06A7.33,7.33,0,0,1,161.91,261.83Z"/>
        <path class="cls-11 aaa" d="M166,261.83a7.5,7.5,0,0,0-1.34,0c-.14,0,.09.66,0,.93s.63.4.65.62.2.45,0,.63-.56.14-.43.63.36.81.43,1.13,0,1.35,0,1.48-.12.5.47.5,1.21-.18,1.3,0,.18.49.54.4.81-.58,1.22-.49.22.7,1.08.51,1.17-.11,1.3-.38.05-.85.36-1.26.72-.63.9-1,0-.72.49-.81,1.17,0,1-.4a.86.86,0,0,0-.68-.54c-.18,0-.18,0-.49.27a5,5,0,0,0-.72.58c-.18.18-.45.22-1,.36s-1.17.27-1.17,0-.4-1,.23-1.44a3.51,3.51,0,0,0,1.21-1.32,4,4,0,0,0,.32-1.61A7.53,7.53,0,0,0,171,259c-.14,0-.72-.8-1.13-.58a3,3,0,0,0-.81.85,8.44,8.44,0,0,1-.67,1,7.67,7.67,0,0,1-2,1.26C165.74,261.8,166,261.83,166,261.83Z"/>
        <path class="cls-11 aaa" d="M171.77,257.86s0,.17.2.27.75-.1,1,0,.74.34.77.48-.1.27-.2.33-.24-.06-.3.27-.07.48.23.58.84.17,1,0a1.78,1.78,0,0,0,.3-.58c.14-.33.24-.3.24-.54a2.59,2.59,0,0,0-.41-.81l-.57-.2Z"/>
        <path class="cls-11 aaa" d="M155.79,265.55s.64-.27.64,0a1.25,1.25,0,0,1-.32.81c-.19.17-.19.44-.32.54s-.44,0-.54-.33-.27-.41,0-.64A3,3,0,0,1,155.79,265.55Z"/>
        <path class="cls-11 aaa" d="M159.19,265.86c-.3-.14-.47-.55-.67-.43s-.75.26-.61.43.32.64.63.67.75.24.82,0a1.07,1.07,0,0,0,0-.5Z"/>
        <path class="cls-11 aaa" d="M162.93,266a3.33,3.33,0,0,1-.64.16c-.2,0-.74-.16-.7.14s-.65.5.18.61a2.72,2.72,0,0,0,1.16,0c.11,0,.51,0,.51-.29a1.44,1.44,0,0,0-.17-.62Z"/>
        <path class="cls-11 aaa" d="M169.32,271a1,1,0,0,1,.8-.3c.2.06.44,0,.61.57s.27.74.16,1a1,1,0,0,1-.43.51c-.21.13-.19.2-.33.2s-.52.24-.31-.24.58-.43.31-.77Z"/>
        <path class="cls-11 aaa" d="M162.93,271.05v.34c0,.17.41.34.51.24S162.93,271.05,162.93,271.05Z"/>
        <path class="cls-11 aaa" d="M167.18,271.82h-.64s-.06.31.32.28S167.18,271.82,167.18,271.82Z"/>
        <path class="cls-11 aaa" d="M165.13,273.75s-.5-.14-.52,0-.51.3.26.34S165.13,273.75,165.13,273.75Z"/>
        <path class="cls-11 aaa" d="M168.77,272.1c-.1.1-.37-.23-.4,0s-.54.44.2.44S168.77,272.1,168.77,272.1Z"/>
        <path class="cls-11 aaa" d="M148.77,267.61s-.57-.34-.71,0-.3.41-.2.6,1.52,2.9,1.75,3.45,6,5.26,6.15,5.43.16.44.67,1a3.71,3.71,0,0,0,1.46,1.18c.46.14,1.09,1.82,1.5,2s1.39.51,1.72,0,.75-1.92,1.45-2.09a10.23,10.23,0,0,0,2.87-1.14,1.54,1.54,0,0,0-.14-1.59l-1.14-1a11,11,0,0,1-1.22-1.89s-.63-.06-.53.14,1.61,2.08,1.28,2.18-1.18-.13-1.28.07-1.11,1.22-1.05.91-.18-1.35-.75-1.31-.94.17-1-.1a10.35,10.35,0,0,1-.17-1.55c0-.07-2-2-2-1.61a1.62,1.62,0,0,0,.37,1.07c.27.3.71.53.47.94s-1,1.85-1.47,1.45a8.7,8.7,0,0,1-1.12-1.85,13.71,13.71,0,0,1-2.2-.89,14.41,14.41,0,0,0-.64-1.65c-.1-.13-2.8-1.41-3-1.61S148.77,267.61,148.77,267.61Z"/>
        <path class="cls-11 aaa" d="M184.72,247.61a16.45,16.45,0,0,0,2.13-.71,3.63,3.63,0,0,1,.2,1.12c-.07.27-.88,2-.88,2s.74,4.35.64,4.62a9.31,9.31,0,0,0-.77,2.26c.13.2.64,1.28.44,1.62s-4.69,9.95-4.69,9.95A38.68,38.68,0,0,1,182,273a10.15,10.15,0,0,1-.94,2.6c-.27.41-1.76,1.76-1.76,2s-.54,6.38-.57,6.68-.7,1-.72,1.28-.26,2.87-.19,3-1.05,1.11-1.05,1.11-1.35-.54-1.21-1a11.53,11.53,0,0,0,0-2.16s-1.37-.91-1.21-1.34a2.87,2.87,0,0,0,.17-1.83c-.23-.37-1.45-1.14-1.48-1.45a9,9,0,0,0-.34-1.38,7.39,7.39,0,0,0-.71-1,3.71,3.71,0,0,0-1-.27,2.17,2.17,0,0,1-1.08-.37.44.44,0,0,1,.47-.51c.47,0,.78.07,1.35.07a3.34,3.34,0,0,0,1.75-.61c0-.17,0-2.93.14-3s1.11-1.28,1.11-1.28a5,5,0,0,0,.17,1.11c.1.11.34.17.71,0s.67-.36.74-.63.41-.6.3-.89-.4-.9-.4-.9-1,.15-1.08.18-.94-.19-.94-.62a5.84,5.84,0,0,1,.1-1.62c.13-.27,1-2.39,1.14-2.58s4.49-5.78,4.62-5.85.51-3.54.88-3.71a5.38,5.38,0,0,0,1-.81s-.2-1.55.31-1.79,1.14-.3,1.18-.84-.68-4.35-.44-4.62S184.72,247.61,184.72,247.61Z"/>
        <path class="cls-11 aaa" d="M197.5,244.91c.51-.37,2.13-1.48,2.16-1.21s.41,1,.17,1.21-.3-.1-.84,1-1,1-1,1Z"/>
        <path class="cls-11 aaa" d="M198.28,237.7c.24-.11.67-.44.88-.34s2.16,4.55,2.22,4.69-.4.64-.5.54-1.32-.64-1.62-1.45S198.28,237.7,198.28,237.7Z"/>
        <path class="cls-11 aaa" d="M212.68,240.36a1.89,1.89,0,0,0,1-.39c.13-.12.24-.55.51-.69a3,3,0,0,1,1.34,0,6.81,6.81,0,0,1,1.32.3l.34.39s.13.19-.24.39a7.17,7.17,0,0,0-.84.51,3.07,3.07,0,0,1-1.15.2c-.44.07-.84-.07-1.21,0a2.62,2.62,0,0,1-1-.2Z"/>
        <path class="cls-11 aaa" d="M211.37,255.74h-.78l-.84,1.25s.67.13.81,0S211.37,255.74,211.37,255.74Z"/>
        <path class="cls-11 aaa" d="M211.77,262.15c-.07-.1-.81-.27-.88-.17s-.37-.17-.33.17.06.54.2.64.24.27.74,0S211.77,262.15,211.77,262.15Z"/>
        <path class="cls-11 aaa" d="M208.06,262.15s-.27-.4-.37-.2-.3.18-.13.49.3.42.5.31S208.06,262.15,208.06,262.15Z"/>
        <path class="cls-11 aaa" d="M206.44,261.64H206s-.2.21,0,.31a1.72,1.72,0,0,0,.78-.06Z"/>
        <path class="cls-11 aaa" d="M220.81,260.5a5.86,5.86,0,0,0-.64.4c-.1.1-.47.57-.17.74s1,.42,1,.8-.34,1.33,0,1.29.61-.06.61-.33-.11-1.32,0-1.29.67-.54.7-.67.37-.44,0-.51S220.81,260.5,220.81,260.5Z"/>
        <path class="cls-11 aaa" d="M218.92,268.39h-.77s-.41.23-.31.4.71.27,1.08.17S218.92,268.39,218.92,268.39Z"/>
        <path class="cls-11 aaa" d="M197.4,267a8.24,8.24,0,0,0-.87,0c-.17,0-.21.44-.31.68a5.5,5.5,0,0,1-.87.91c-.41.4-1.18.91-1.25,1.14s.34.51,0,.91a5.9,5.9,0,0,0-.78.91c-.3.51-.6.61-.44.71a3.78,3.78,0,0,0,.85.17s.4.71.6.68.43-.81.79-.71,1.41.5,1.2.87-.77.95-.94.95-.13-.34-.17,0-.47.74.17.77a9.11,9.11,0,0,0,1.15,0,7.69,7.69,0,0,0,.87,1.32c.14,0,1.15-.71,1.22-.61s.47.78.33,1.08-.87.68-.87.68-.31-.31-.41,0-.57.81-.54,1,.68.87.41,1-1.69,1.18-1.92.81-.61-1.05-1.05-1.15a5.89,5.89,0,0,0-1.18-.2,1.71,1.71,0,0,0-.55.67c0,.14-.06.75.35,1s.47.07.74,0a.84.84,0,0,1,.88.12c.27.29.87.29.91.73s.06,1.21-.34,1.14a18,18,0,0,1-2.77-.91,20.73,20.73,0,0,1-1.72-2.39c0-.24-.4-1.22,0-1.42s.81-.17.85-.44-.1-.5,0-.71a2.61,2.61,0,0,0,.13-.7s-1.07-.07-1.16.1a5.91,5.91,0,0,0-.63,1.85c.07.41,0,2.46,0,2.46s2.37,1.83,2.67,2.17.71,1.88,1.18,2.08,5,1.12,5.63,1.32,2.67,1,3.31,1.28,2.43.57,3,.84,1.42.51,1.55.58,5.13,3.64,5.6,3.74.3-.51,1,.3,2.7,3.61,3.54,3.78,3.1.71,3.37.51,1.08-.58.48-.78-3.58-1.18-3.58-1.45.1-.91.34-1a14.61,14.61,0,0,1,1.79-.94c.44-.11,4-.48,4.48-.71a6.62,6.62,0,0,1,2.3-1.05c1-.17,2.86-.34,3.27-.34s1.62.71,1.95.75a8,8,0,0,0,1.28-.14.87.87,0,0,1,0-.91c.31-.44,1.12-1.25,1.25-.94s.71,1.62,1.25,1.65a25.56,25.56,0,0,0,3.31-.1c.13-.1.3-1.76.84-2s1.38-.91,1.25-1.21a6.09,6.09,0,0,0-2-1.22c-.47-.17-1.75-.6-1.75-.81a.77.77,0,0,1,.27-.6c.17-.1.06-.31.23-.48s1.18-.6,1.28-.5-.23.64.14.57a1.56,1.56,0,0,0,.94-1,5.7,5.7,0,0,0,.1-1.48c0-.24-1.07-1.86-1.14-2.06s-.78-1.35-.95-1.65-1.88-1.25-1.82-1.69a15.91,15.91,0,0,0,0-1.72s-2.33-1.18-2.6-1.28-.68-.24-.71-.64.24-1.65-.17-2a19.21,19.21,0,0,0-2.19-.91,9.5,9.5,0,0,1-1.75-1c-.51-.41-2.6-2.59-2.74-2.44s-1,.52-.6,1,.64.66.64,1-.78.53-.41,1.14,1.32,1.25,1.45,1.75-.4.65-.84.78-.74-.34-1.11-.37-1-.07-1.05.2-.34.68-.2,1,.78.4.84.84a2.92,2.92,0,0,1-.71,1.59c-.2.2.24.64-1.28.44s-2.26-.51-2.69-.51-.71.1-.92-.07a12.19,12.19,0,0,1-1-1.55c0-.1-1.29-1.14-1.29-1.14A11.79,11.79,0,0,1,215,273c0-.14-.71-2.33-1.48-2.36s-1.38,0-1.42-.51-.13-1.52-.1-1.75-.77-.37-1.69-.85a24.66,24.66,0,0,1-3.1-1.92,9.15,9.15,0,0,0-2.8-1.08c-.54-.07-.67-.54-1.25-.23s-4.14,1.41-4.28,1.48-.4.47-.23.54.74.13.8.3a.78.78,0,0,1-.54.78,7.56,7.56,0,0,1-1.48.27C197.23,267.68,197.4,267,197.4,267Z"/>
        <path class="cls-11 aaa" d="M213,263.26c-.34.14-.61.24-.61.47s-.43.54-.16.95.47.6.77,1,.61.8.78.77.91-.23,1-.77a2.21,2.21,0,0,1,.6-1.45c.34-.21.85-1.15,1.25-.95a2.68,2.68,0,0,1,.78.47c.13.17,0,.51,0,.68s.5.3.49.2.11-.54,0-.74a7,7,0,0,1-.16-.94s-1.65.07-1.68-.14-.58-1-.68-.9a.8.8,0,0,0-.33.7,1.93,1.93,0,0,1-.31,1.14c-.17.24-.84.51-.91.43S213,263.26,213,263.26Z"/>
        <path class="cls-11 aaa" d="M232.55,261.88a1.19,1.19,0,0,0-.27.81c.06.17-.27.4-.44.5s-.68.07-.84.24-.81.74-.71,1,.64,1.14.91,1a3.24,3.24,0,0,0,.77-.57c.07-.11.21-.48.37-.44a1.69,1.69,0,0,1,.68.6c0,.11.37.42.37.42a1.32,1.32,0,0,1,.2.77,1.93,1.93,0,0,1-.47.94,3.53,3.53,0,0,0-.27.84l.75.71a2.86,2.86,0,0,1,0,.78c-.08.13.9.6.9.74s-.06,1,.34,1.28,2.06.71,2.12,1.21.17,1.52.38,1.59,1.18-.1,1.24.4.1,1.93.17,2.13a9.19,9.19,0,0,0,.95,1.08,11.75,11.75,0,0,0,1.85.81s.64.77.64,1a9.46,9.46,0,0,0,.34,1.31,6.13,6.13,0,0,1,.17,1.35,2.12,2.12,0,0,1-.31.88c-.06.1-.5.47-.3.74s.1.54.61.64.71-.06.74.41.2.44.2.88a13.33,13.33,0,0,1-.87,2.09,7.27,7.27,0,0,0,.2,1.58,6.15,6.15,0,0,1,.67,1.49c.1.5-.27,1.28,0,1.55s1.66,2.19,1.76,2.36a9.24,9.24,0,0,1,.4,1.79,4.8,4.8,0,0,1,0,.94c0,.2.41.88.57.88a3.23,3.23,0,0,1,1.32.16c.3.21.54,1.35,1,1.22s.94-.2.94-.44.34-.78-.2-1.15-.91-.4-.74-.91.64-1.68.13-2.12a2.78,2.78,0,0,1-.91-1.79,5.48,5.48,0,0,1,.41-1.69,2.18,2.18,0,0,0,.47-1.38c-.07-.47-.47-3.1-.44-3.2s-.74-1.12-.61-1.59.44-1.41.71-2.16,1.86-3.37,2-3.67a2.77,2.77,0,0,1,1.55-1.65,3.36,3.36,0,0,0,1.82-1.15c.31-.44,1.42-2.87,1.66-3.17s1-.71,1.08-.91a1,1,0,0,0-.54-.95c-.48-.2-1-.37-1.05-.91s.41-.81-.61-1.45a18.48,18.48,0,0,0-2.29-1.48,7.82,7.82,0,0,0-1.38-.24c-.14,0-.61-.33-.74,0a1.6,1.6,0,0,1-.58.64c-.13.07-.81-.34-1.11-.61a5.85,5.85,0,0,0-1.25-.87c-.13,0-.57.2-.71-.38a11.63,11.63,0,0,0-.7-2.29c-.21-.23-.31-.57-.85-.47s-1.62.24-1.62.24.14.13,0,.64-1,.57-1.18.6a.59.59,0,0,1-.76-.4,6.31,6.31,0,0,0-.92-2c-.44-.37-.51-.64-1.12-.64a2.27,2.27,0,0,1-1.08-.34,14.48,14.48,0,0,1-1.24-1.24s-.75.27-.41.6.51.41.07,1.15a6.83,6.83,0,0,1-1.38,1.59c-.11,0-.58-1.46-.88-1.46s-1.11,0-1.18-.16A6.65,6.65,0,0,0,232.55,261.88Z"/>
        <path class="cls-11 aaa" d="M247.82,263.73c0,.27.07,1.15.31,1.15s1.38-.3,1.52,0,.16.94.57.94,1.31-.13,1.25-.5.23-1-.21-1.11-1.28-.78-1.45-.78S247.82,263.73,247.82,263.73Z"/>
        <path class="cls-11 aaa" d="M246,261.24s-.57.06-.61.2-.23.51,0,.67a6.3,6.3,0,0,0,.85.41c.13.07.27,0,.47,0s.23-.41.23-.41Z"/>
        <path class="cls-11 aaa" d="M239.66,258.24c-.2-.11-.84-.44-.74-.24a1.8,1.8,0,0,0,.74.78,7.19,7.19,0,0,0,1.15.3l-.2-.57Z"/>
        <path class="cls-11 aaa" d="M250.39,260.87c-.14.13-.6.33-.72.54s-.79.36,0,.48,1.26.12,1.36,0S250.39,260.87,250.39,260.87Z"/>
        <path class="cls-11 aaa" d="M253,258.71c-.13.2-.87.67-.94,1s-.2.44,0,.57a.52.52,0,0,0,.74,0,1,1,0,0,0,.41-.71A2.77,2.77,0,0,0,253,258.71Z"/>
        <path class="cls-11 aaa" d="M255.58,260.06c-.2-.1-.81-.31-1-.17s-.7,1-.74,1a5.62,5.62,0,0,0,.68.37c.16.06.13-.17.18.18s-.22,1.33-.42,1.4-.3.31-.61,1.08a1.94,1.94,0,0,0,.24,1.69c.13.27.3.37.34.71s-.22.6.31.84.63.13.77.4-.41,1.12.23,1,.82-.75.95-.81.37.13.77.33a1.46,1.46,0,0,0,1.35-.13c.34-.24.81-.24.84-.64s-.37-.81,0-1.18,2.9-4.49,3.48-4.89,2.12-2.23,2.83-2.53a7.69,7.69,0,0,1,1.48-.61c.24,0,.48.27.78.41s-.07.33,1.08.2,2.53-.61,3.27,0,.47.83,1,.87a15.57,15.57,0,0,0,2.12-.2s1.15.78,1.28.54.41-3.61.44-3.84a13.52,13.52,0,0,0-2.43-2.84h-2.76s-.2-.77-.85-.64a8.13,8.13,0,0,0-2,.85,11.65,11.65,0,0,1-2.73.13s-1.48-.61-1.82-.71-1.49-.5-1.49-.5-1,.23-1,0-.41-.44-.41-.64a2.87,2.87,0,0,0,0-.91c-.1-.34-.07-.85-.57-.71a1.46,1.46,0,0,0-1,.74c-.24.37-.44.74-.34,1s1.08.77,1.18.84,0-.2.1.07.34.94.48,1,.94-.07,1,.06-.54,1.12-.6,1.49a.89.89,0,0,1-.51.71c-.2,0,.44.6.54.77s.61-.27,0,.34a9.36,9.36,0,0,1-2,1.79,22.18,22.18,0,0,1-3.2.44s.1-1.05,0-1.05a1.69,1.69,0,0,0-.57.44c-.07.1-.24.15-.1.61a3.24,3.24,0,0,0,.57,1.13c.23.32-.16.62-.2.79s-.54.34-.54.18.2-1,.2-1Z"/>
        <path class="cls-11 aaa" d="M256.86,250.09s1.22-.2,1.42,0a4.55,4.55,0,0,1,.61,1c.06.16.27.37,0,.64s-.21.5-.41.7-.6.41-.74.21-.07-.68-.44-.68-.77,0-1.21,0-.74.1-.74,0v-.57s.74-.31.94-.38S256.86,250.09,256.86,250.09Z"/>
        <path class="cls-11 aaa" d="M174.91,214.05c-.14.32-.27,0-.14.32s1.62,0,1.62,0v-.54Z"/>
        <path class="cls-11 aaa" d="M210,94.65c-.12,0-.87.37-.75.79a9,9,0,0,0,.75,2,2.65,2.65,0,0,0,.92.46c.25,0,.87.21,1-.29a3.16,3.16,0,0,1,.62-1.54,17,17,0,0,0,2-2.37,1,1,0,0,0-.25-.63,8.37,8.37,0,0,1-1.17.92,6.77,6.77,0,0,1-1.83.71A9.58,9.58,0,0,1,210,94.65Z"/>
        <path class="cls-11 aaa" d="M174.14,49.43a8.66,8.66,0,0,0-.87.29,3.56,3.56,0,0,0-.83.7c-.25.3,0,.5.37.55a2.49,2.49,0,0,0,1.33-.17c.17-.17.54-.6.54-.6Z"/>
        <path class="cls-11 aaa" d="M167.32,44s-.06.08-.15.15c-.3.22-1,.59-1.14.72s-.91.42-.79.67.61,1.16,1,1.16,1.63-.17,2-.17.08,0,.45.17.92-.25,1.17,0a3.35,3.35,0,0,1,.71.92c0,.2,0,.62.25.7s.87-.08,1.12,0a2.32,2.32,0,0,0,1.16.21c.63,0,1.67-.08,1.58-.21s-1-.25-1.17-.45-.91-.34-.28-.5.79-.21,1.08-.13.58.29,1,0a5.34,5.34,0,0,0,1.54-1c.5-.57.88-.61,1.11-.94s.11-.42,0-.92-.36-.87-.36-1.12-.13-.75-.42-.83-.62,0-.46-.29.42-1,.88-1,0-.25.75-.25a6.51,6.51,0,0,0,1.74-.29c.3-.09.63-.79,1-.79s.59.08.54.33-.5.29,0,.25.83-.17.79-.58,0-1.38-.25-1.54-.91-.88-1.33-.84-1.41.05-1.54.21a3.34,3.34,0,0,1-1.3.79,14.92,14.92,0,0,1-2.11.29,1.94,1.94,0,0,1-1-.12c-.12,0-.92-.54-1.1,0a5.8,5.8,0,0,1-.85,1.66,10,10,0,0,1-1,1c-.12.08-.37,0-1-.08s-1.08-.17-1.2-.13a6.78,6.78,0,0,0-1.46.46C168.32,41.61,167.32,44,167.32,44Z"/>
        <path class="cls-11 aaa" d="M111.91,254.8h-.72a.55.55,0,0,0,0,.67,2.33,2.33,0,0,0,1,.63.37.37,0,0,0,.45-.41C112.63,255.38,111.91,254.8,111.91,254.8Z"/>
        <path class="cls-11 aaa" d="M119.1,259.92s-2.07,1.76-1.66,2,1.62.82,1.66.68.77-1,1.26-1,.77-.08,1,.32.4.63.22.81-.4.15-.67.25-.63.43-.9.27-.17-.24-.47,0-1,.51-.3.91.9.14,1.22.54.67,1,1,.9a10.79,10.79,0,0,1,2-.9c.58-.09,1.71.28,1.66.7s-.76.61-.31,1.08.31,1.06,1.21,1.28,1.26-.34,1.85-.33a6.81,6.81,0,0,1,1.88.38c.18.13.95.4.45.58s-.72.63-.94.77-.85.22-.67.76a5.33,5.33,0,0,0,.62,1.4c.14.08.63.87,0,.93s-1.39.11-1.71-.32-1.26-1.2-1.44-1.65-.27-1.12-.9-1.35-1.66-.49-1.66-.49a3.35,3.35,0,0,0,.44.72c.23.27.77.22.68.8s-.31.92.23,1.36.63.17.76,1.19,0,1.46.41,1.77a4.74,4.74,0,0,1,.94,1.17,1.05,1.05,0,0,0,1.22.68,12.11,12.11,0,0,0,2.65-.86,7.79,7.79,0,0,1,3-.49,3.74,3.74,0,0,0,1,.76,16,16,0,0,0,1.57.6c.32.08,1.4,0,1.53.57s1.17.81,0,1-1.48.32-1.75.23-1.3-.81-1.64-.94-.88-.5-1-.5-.77.14-.86.41a2.11,2.11,0,0,0,0,1.06c.09.24-.09.46.54.55l1.71.23c.68.09.9-.18,1.48,0s.32.22,1,0,1.39-.52,1.48-.83a11.55,11.55,0,0,1,.22-1.39c.14-.27,1.09-.36,1.31-.63a1.35,1.35,0,0,0,.27-1.46,19.21,19.21,0,0,1-1.26-3.17,2.58,2.58,0,0,0-.72-1.36c-.22-.17-2.07-1.39-2.34-2.2a17.62,17.62,0,0,0-.94-2.38l-1.12-1H132s-3.46-2.55-4.27-3.23a39.91,39.91,0,0,0-4.95-2.45Z"/>
    </g>
</svg>