<svg id="NETWORK" 
    xmlns="http://www.w3.org/2000/svg" viewBox="0 0 300 300">
    <defs>
             <style>
         .cls-11{fill:#da1a35;}
                
        </style>
    </defs>
   
    <g id="FRANCE">
         <path   class="cls-11 aaa" d="M281.25,249.78l-1.11.72v2.17a1,1,0,0,0-.34.77c.06.45.39,1,.23,1.22s-.24,0-.23.78.89,1,.72,1.39-.49-.22-.44,1l.06,1.22-.34.44-.77.56-.72-.61-.45-.5a3.11,3.11,0,0,0-.66-.22c-.17,0,.33-.22-.17,0s-.67-.06-.83-.06-.56.06-.67.33-.89.5-.89.5-.55.12-.55.56.55.55,0,.83-.89.17-1.11.5a1,1,0,0,1-.67.39h-1.17s-1,.39-1.39.56a3.36,3.36,0,0,0-.72.44s-.44,0-.55.28a1.46,1.46,0,0,0,0,.72,5.63,5.63,0,0,1-.94,0,2,2,0,0,1-.67-.44s-.45.21-.5.46.17.87,0,1.26-.44.44-.67.72a4.29,4.29,0,0,0-.44.89c-.11.22.22.33,0,.5s.28.16.39.38-.45.5-.45.5.28.5,0,.67-.61-.5-.83,0a1.66,1.66,0,0,0,0,1.06c0,.16-.5.38-.67.49s-.25-.27-.4,0,.09.41.16.52-.46.26-.21.41.55-.3.69-.2.47.29.41.44-.16.28.08.43a3.13,3.13,0,0,1,.92.5,3.52,3.52,0,0,1,.56.83l-.45.57h-1.11a3.63,3.63,0,0,0-.7.24c-.11.1-.46.13-.39.37s.31.23.44.61a5,5,0,0,1,.15.84c.06.2-.15.22-.16.4s.18.3.2.47-.19.09-.11.37.63.33.76.63a1.79,1.79,0,0,0,.57.57s.56.07.85.07.48-.14.54.11.13.28.31.69.65.09.74.55a.74.74,0,0,1-.35.74s0,.45-.13.58-.83.09-1,.09-.31,0-.33.19.24.61.15.81-.69.35-.69.35l-.54.21s-.42-.12-.35.18.3.41.46.7a.67.67,0,0,1,.08.61c0,.21-.46.3-.17.41s.39.19.61,0,0-.09.45,0a1,1,0,0,0,.74-.2l.61-.09.59-.26s.78-.39,1-.07.65.72.18,1-.29.59-.22.79-.09.11-.24.41.15.65.15.65l-.5.55s-.74.15-.69.41.36.74.08.83-.89.61-1,.65-.39.33-.06.33.69-.11.74,0-.37.28,0,.35.5-.11.87-.22a1.37,1.37,0,0,1,.83.11s-.08.58.22.65.63-.28.68-.24,0,.41.38.48a2.78,2.78,0,0,1,1,.24c.16.15.22-.11.52.08s.66.37.48.64-.54.11-.69.41a1,1,0,0,1-.46.43l-.87.13-.24.35-.48.11s-.06.59-.06.89.11.31.17.5-.17.24,0,.44a1.17,1.17,0,0,0,.55.28s.34-.24.49,0a1,1,0,0,1,.07.59,3.06,3.06,0,0,1,1,.52,8,8,0,0,0,2,.78s.89,0,1,.13.53.18.53.18.41-.39.61-.22.5.41.23.46-.13.37-.13.37l.63.11s.48.37.22.56a.59.59,0,0,0-.3.57c0,.19.35.39.59.43a2.25,2.25,0,0,1,.95.29.53.53,0,0,0,.76-.11c.13-.13.77-.65.87-.74s0-.31-.23-.2-.55.09-.33-.17.8-1.11.8-1.11.52-.59.48-.72a.94.94,0,0,0-.24-.3.66.66,0,0,1,0-.76c.29-.37.77-1,.77-1l.61-.63.19-.76-.65.11-.35.18s-.32-.55,0-.74.46-.51.83-.64a2.65,2.65,0,0,0,.84-.5c.16-.15.14-.35.22-.74a6.87,6.87,0,0,0,.65-2.11,28,28,0,0,0-.3-4.22,8.15,8.15,0,0,1,.46-2.74c.43-.65,1.06-1.2.93-1.5a1.62,1.62,0,0,0-.47-.61c-.11-.09,0-1,.36-.89s.51.54.74.32a1.2,1.2,0,0,0,.42-.63c.09-.34-.16-.39-.13-.63s.65-.93.63-1.69.09-2,.09-2.81a29.09,29.09,0,0,0-.18-4c-.19-.79-.52-2.59-.72-3.13s-.13-.59-.39-.75-.39-.3-.15-.36.33-.18.33-.63.34-.62-.09-.9-.52-.08-.78-.46-.18-.41-.4-.78-.59-.61-.59-.82a15.8,15.8,0,0,1,.27-2.31c.13-.33.59-1.83.59-1.83l.37-1.52a4.78,4.78,0,0,1-.72-1.81,7.67,7.67,0,0,0-.29-1.69c-.08-.57.09-1.37-.1-1.7a1.73,1.73,0,0,0-.68-.87C281.88,249.7,281.55,249.58,281.25,249.78Z"/>
         <path   class="cls-11 aaa" d="M160.58,1.64c-.77.08-1.3.33-2,.39a25.53,25.53,0,0,0-2.83.52c-.73.17-1.06.12-1.25.2a9.06,9.06,0,0,1-1.7.44,6.58,6.58,0,0,1-1.55,0,2.83,2.83,0,0,0-1.8,0,11.49,11.49,0,0,0-1.53,1.13,2,2,0,0,0-.83.92c-.09.27-.48.41-.56.47s-.33.36-.53.41-.27-.08-.44.14a1.29,1.29,0,0,0-.31.64c0,.17-.14.25-.14.42s.17.33.23.55a8.62,8.62,0,0,1,.16,1.5,2.38,2.38,0,0,1-.11,1.14c-.08.22-.14.28-.44.5s-.61.78-.47.92.5.33.47.63-.11.78-.14,1-.11.67-.11.92a1.18,1.18,0,0,1-.14.58c-.06.08-.14.19,0,.47a8.88,8.88,0,0,0,.58,1c.17.23.11,1,.14,1.06s-.17.3-.36.47-.39.36-.3.61a2.08,2.08,0,0,1-.06,1c-.08.19-.31.39-.28.5s.25.33.22.5-.31.22-.22.44,0,.11.31.36a3.35,3.35,0,0,1,.77.84c.09.19-.33.3-.52.3s-.46-.19-.58,0-.34.47-.31.7.3.38,0,.58-.47.28-.47.61a1.24,1.24,0,0,0,.25.89c.19.16.41.19.47.39s-.06.72.17.75.55-.06.69.3.22.61.42.67.44,0,.52.36a.94.94,0,0,0,.25.47c.09.11.47.56.34.67s-.45-.06-.64-.28-.31-.5-.56-.44-.39.11-.47-.09,0-.3-.25-.28-.39.14-.61-.08-.5-.39-.58-.55-.22-.42-.42-.17-1.33,1.14-1.33,1.33-.28.43-.31.59a1.36,1.36,0,0,1-.14.88,3.47,3.47,0,0,1-.83.84c-.22.16-1.08.38-1.33.72A10.48,10.48,0,0,1,135.71,34c-1.47.56-1.8.84-2.44,1s-1.31.5-1.42.53-.58-.2-.88-.17-.56-.05-.84.17a4.56,4.56,0,0,1-1.33.55c-.33.09-1.67.34-1.94.36s-.86,0-1.17,0a7.59,7.59,0,0,1-1.16,0,1,1,0,0,0-1,.15,2.63,2.63,0,0,1-.78.47c-.13.09-.44-.11-.63,0s-.5.36-.64.45-1.14.5-1.33.66-1.31.45-1.53.7a1.35,1.35,0,0,1-.92.61,5.07,5.07,0,0,0-1.52.22A9.42,9.42,0,0,0,114.67,41a2.72,2.72,0,0,0-.64.75c-.19.42,0,.56-.19.81s-.56.38-.64.63-1,1.81-1.14,2.09a1.74,1.74,0,0,0-.33,1.08,2.49,2.49,0,0,0,.47,1.28c.33.49.17.49,1,.55a14.68,14.68,0,0,1,1.92.22,4.9,4.9,0,0,0,1.72,0c.25-.08.77-.5.94-.16s-.17.63-.36.8-1.25.78-1.67.67-1.22-.59-1.75-.36a12.24,12.24,0,0,0-2.28,1.16,12,12,0,0,1-1.8,1.42,10.85,10.85,0,0,0-1,.39,3,3,0,0,1-1.17.41c-.33,0-.72,0-.86,0a1.3,1.3,0,0,0-.64.36c-.11.14-.36.81-.36.5s.17-.8-.16-.86a2.35,2.35,0,0,0-.84,0c-.3.06-.41,0-.61-.28A3,3,0,0,0,103,51.24a5.86,5.86,0,0,0-1.25-.52,22.35,22.35,0,0,0-3.19-.61c-.64-.06-2.09-.31-2.59-.39s-2-.42-2.38-.47S91.77,48,91.13,47.94a7.42,7.42,0,0,0-2.14.11,2,2,0,0,0-.8.78c0,.11.53.89,0,1.05a1.14,1.14,0,0,1-1.11-.19c-.11-.14-.25-.36-.39-.33s-.36.3-.47.27-.31-.11-.17-.3.2-.64.28-.67,0,0,.11-.16-.14-.48.08-.59.34,0,.31-.39-.28-.3-.5-1a16.3,16.3,0,0,0-.75-1.72c-.14-.36-.14-.67-.33-.84a1.13,1.13,0,0,1-.56-.75,6.58,6.58,0,0,1,0-.66c0-.14-.15-.7,0-.81s.3-.55.47-.55.25.16.41,0,0-.69.34-.8.47.28.52-.06.06-.61-.11-.75-.44,0-.39-.41.25-.84.14-1-.22-.08-.78-.25-.75-.36-1.19-.47a5.76,5.76,0,0,0-1.17-.33,3,3,0,0,0-.69.5c-.19.19-.64.39-.75.5s-.39-.06-.53,0-.38.47-.55.58-.47-.31-.78-.17-.33.56-.72.61-.53.06-.5-.11.08-.64-.31-.66a1.87,1.87,0,0,1-.86-.17C77,38.14,77,38,76.78,38s-.5.3-.64.16-.47-.58-.69-.63-.53.25-.84,0-.27-.59-.49-.7-.5,0-.64-.19-.14-.22-.31-.28-.28.14-.36.2-.55-.42-.67-.2.12.39.2.53a1.39,1.39,0,0,1,0,.67c0,.13-.08.33.31.52s.75.34.86.61a3.61,3.61,0,0,0,.33.61.89.89,0,0,1,.06.59c-.06.27,0,.5-.06.69s-.86,1.44-1,1.72,0,.75.08.84.31.11.39.36.28.55.22.75-.33.36-.22.58a2.35,2.35,0,0,1,.25.89,3.09,3.09,0,0,1,0,.86c-.08.22.42.66.58.86s.56.22.5.58-.11.86.09.94.33-.25.52-.13.53.47.39.58-.41-.06-.33.28.08.27.5.86a6.06,6.06,0,0,1,.61,1.66c.08.17.42.47.55.28s.34-.39.53-.19.67.5.53.61-.39.05-.53,0-.53,0-.47.25.33.47.31.58S77,53.77,77,54s-.25.59,0,.78.5.22.36.42-.7.3-.72.61a2,2,0,0,0,0,1c.13.27.33.55.27.77s-.19.25-.19.59,0,.63.25.55.44-.36.61-.36a.43.43,0,0,1,.39.22c.11.17.28-.16.39.16s.22.65,0,.59-.28-.22-.45-.22-.3-.1-.3.23.06.49-.11.52-.14.33-.08.47-.17.5.16.72.67.25.42.67-.72.69-1,1.11-.61.69-.55,1.17a5.45,5.45,0,0,0,.44,1.11,7.91,7.91,0,0,1,0,1.49c0,.2-.09.39-.09.7a.82.82,0,0,0,.31.78c.31.25.92.83,1.19,1s.48.7.78.61.42-.83.78-.55.75.78.5,1-.42.2-.61.23-.42.13-.45.3-.11.5-.5.44-.69-.15-.86,0-.25.49-.61.3a2.8,2.8,0,0,0-1.39-.22,3.1,3.1,0,0,1-1.47.28,19.55,19.55,0,0,1-2.72-.14c-.25-.06-.66-.25-.8-.25a.52.52,0,0,1-.56-.2c-.19-.27-.55-.47-.36-.66s.28-.31.25-.56-.17-.83.06-1,.66-.67.36-.7-.59-.36-.72,0-.31.39-.48.33a1.14,1.14,0,0,0-.52-.08,4.3,4.3,0,0,1-.45.08c-.08,0-.19-.25-.39,0s-.27.42-.41.56-.53-.06-.53.25.22.41,0,.64a1,1,0,0,0-.19,1,6.07,6.07,0,0,1,.41,1.11c.09.41,0,.69-.08.75s-.29-.06-.38-.64a2.94,2.94,0,0,0-.37-1.44,2,2,0,0,0-1-.53c-.25-.11-.53-.39-.8-.25s-.64.14-.67.41.25.67-.14.75a3.66,3.66,0,0,1-1.25.06c-.22-.06-.61-.11-.44-.31s.42-.27.25-.44-.45-.14-.5-.36-.08-.56-.22-.56-.47,0-.53.31-.33.58-.44.55a1.27,1.27,0,0,1-.48-.66.69.69,0,0,1,.28-.61,2.7,2.7,0,0,0,.64-.61c.08-.14,0-.5-.19-.53a1.43,1.43,0,0,0-.89.14,3.63,3.63,0,0,0-1,.44c-.31.22-.58.25-.64.17s.08-.42-.22-.33-.5.11-.67.36a3.49,3.49,0,0,1-.61.89,2.38,2.38,0,0,1-.86.38c-.28,0-.69,0-.72.17s.33.53,0,.58a2,2,0,0,0-.92.28c-.22.2-.47.39-.41.58s.37.36,0,.45a.7.7,0,0,1-.58-.09s0-.25-.24-.19-.31.19-.28.36a2.55,2.55,0,0,1,0,.68.17.17,0,0,1-.33,0c-.08-.21-.16-.68-.22-.79s-.47-.42-.39-.56.25-.33.25-.33a.51.51,0,0,0-.26-.36c-.21-.08-.4,0-.46-.19a.83.83,0,0,0-.28-.53l-.27-.28c-.14-.14-.25-.39-.39-.55a1.55,1.55,0,0,1-.36-.64c0-.17.44-.5.47-.67s-.08-.28-.28-.39-.44-.14-.47-.27.33-.45,0-.73a6.23,6.23,0,0,1-.78-.86c-.16-.19-.41-.41-.55-.55s-.39-.17-.23-.45.53-.55.31-.77.11-.34-.75-.31-1,.22-1.08-.08-.31-.58-.22-.78.33-.47.16-.61a.44.44,0,0,0-.44-.08c-.11,0-.42-.17-.42-.17l-.41.14c-.09,0-.39-.25-.2-.47a5.85,5.85,0,0,0,.67-.75c0-.09,0-.22.19-.22s.42-.5.25-.53a2.53,2.53,0,0,0-.5,0c-.11,0-.51.33-.67.33a.75.75,0,0,0-.49.3.75.75,0,0,1-.48.25c-.11,0-.22.09-.33.12s-.36-.2-.42,0-.11.47-.24.47-.48-.28-.45-.42.14-.16.22-.22a.39.39,0,0,0,.09-.47c-.11-.17-.12-.36-.31-.22s-.22.39-.33.44-.42,0-.47.11-.17.34-.31.25-.11-.41-.22-.41a.92.92,0,0,0-.53,0c-.17.11-.42.14-.5.25s-.47-.08-.58-.08a.51.51,0,0,0-.36.39c0,.19,0,.44-.34.33a2.42,2.42,0,0,1-.72-.5s-.16-.33-.3-.31,0,.23-.14,0-.28-.5-.45-.5-.25.2-.25.31-.33-.34-.41-.2-.36.31-.28.53.11.45-.14.53a3.26,3.26,0,0,0-.8.3,1.27,1.27,0,0,0-.36.89,1,1,0,0,0,.52.53c.23.08.48,0,.5.22a.52.52,0,0,1-.44.53c-.28,0-.31-.14-.45,0s-.44.3-.41.44.22.36.22.5-.58.53-.69.56a3.77,3.77,0,0,1-.45,0c-.14,0-.64,0-.61-.2s-.05-.55-.22-.63-.36,0-.56.05-.25-.17-.36-.3-.39-.62-.75-.62-.77,0-.83-.19-.39-.36-.5-.22a3,3,0,0,0-.47.72c0,.17-.31.44-.31.67s-.33.5-.36.63,0,.67-.14.84a.18.18,0,0,1-.3-.2c.11-.25.23-.55,0-.64l-.39-.11-.19-.61s-.33-.16-.42.11,0,.64-.22.61-.53-.19-.47-.41.22-.45.22-.56-.23-.39-.23-.39.05-.08,0-.3.29-1,.17-1.14-.47,0-.63.06a2.88,2.88,0,0,1-.56,0s-.08,0-.14.28A.73.73,0,0,1,25,63c-.28-.08-.72-.53-1.06-.53a2.36,2.36,0,0,0-.89.09,1.38,1.38,0,0,1-.52.22c-.2,0-.5-.06-.5.14s.19.19.27.36a.28.28,0,0,1-.27.42,1.73,1.73,0,0,1-.64-.17c-.25-.11-.45-.17-.53-.11a1.43,1.43,0,0,0-.25.3c-.11.14-.66.31-.78.06s-.3-.53-.13-.64.44-.22.36-.36-.25,0-.27,0-.15-.2-.24-.16a1,1,0,0,0-.37.31c0,.07-.45.2-.56.28a2,2,0,0,1-.44.18c-.09,0-.3-.13-.3-.13s-.24,0-.24.1.24.22.11.33-.16.2-.28.15l-.35-.17-.31.17c-.13.07-.32,0-.37.07a.31.31,0,0,1-.3.11,1.36,1.36,0,0,1-.57-.16c-.2-.12-.48-.26-.48-.26s-.32.14-.32.33.15.2.37.31a2.09,2.09,0,0,1,.54.39.48.48,0,0,1,.18.39.31.31,0,0,1-.29.32.63.63,0,0,1-.48-.12,6,6,0,0,0-.58-.35,1.19,1.19,0,0,0-.4-.15c-.1,0-.23.08-.21.19s-.09.2.15.26a2.38,2.38,0,0,1,.63.22,2.89,2.89,0,0,1,.39.24c.07.09.2.22.11.35s-.09.21-.3.19a1.62,1.62,0,0,1-.63-.24c-.16-.11-.49-.3-.59-.21s-.16,0-.26-.09a1.12,1.12,0,0,0-.48-.33,1.62,1.62,0,0,1-.44,0c-.08,0-.17-.19-.32-.22s-.63,0-.68.07a.59.59,0,0,1-.28.26c-.13,0-.5,0-.59.11s-.61.76-.78,1a1.91,1.91,0,0,0-.29.65c0,.09.11.39.22.4s.22,0,.22.23-.11.42-.24.33-.15-.3-.41-.13-.42.26-.42.43a2.68,2.68,0,0,0,.11.5.78.78,0,0,1-.11.37.39.39,0,0,0-.1.37,2.51,2.51,0,0,0,.23.53,1.13,1.13,0,0,1,.13.5c0,.09-.45.17-.37.32a.83.83,0,0,1,.07.5c0,.11,0,.4.07.46s.37.15.48.09a9.76,9.76,0,0,1,.82-.55c.15,0,.5,0,.59.14s0,.52.46.54a2,2,0,0,0,.91-.11.65.65,0,0,1,.41-.11c.16,0,0-.06.29-.09s1.5,0,1.65-.1l.57-.29c.1-.06.49-.28.6-.19a.63.63,0,0,0,.59.1c.18-.1.28.13.28.13a2.3,2.3,0,0,0-.34.31c-.09.13-.51.63-.51.68s.37.28.49.23.3-.15.34,0,.29.25.41.21.4-.32.55-.28.09.26.22.29a.54.54,0,0,0,.45-.09c.07-.09.39-.24.44-.14a1.53,1.53,0,0,1,.3.48c0,.18.05.28-.15.28s-.35,0-.28.2.2.17.5.35a1.76,1.76,0,0,1,.48.35,2.93,2.93,0,0,1,.37.59c0,.1.24.34.11.37s-.31.08-.31.15.46.26.61.3a1.19,1.19,0,0,1,.42.28c.12.09.26,0,.36.07s.37.17.39.31.14.39-.15.36a2.79,2.79,0,0,1-.74-.28c-.23-.09-.32,0-.43.07s-.24-.24-.33-.26-.24.19-.43.1a1.22,1.22,0,0,1-.37-.34c-.11-.13,0-.24-.18-.35s-.41-.09-.37-.24,0-.24.09-.3.22-.29,0-.31-.32-.09-.39,0-.15.24-.3.2-.2-.18-.31-.22a.66.66,0,0,0-.48,0c-.11.07-.11.22-.34.18a4.19,4.19,0,0,1-.55-.09c-.13,0-.17,0-.28-.2a.59.59,0,0,0-.48-.3c-.17,0-.24.08-.39.15a.36.36,0,0,1-.44,0,1.4,1.4,0,0,0-.35-.18c-.06,0-.06-.15-.1-.26s-.31-.21-.31-.21a1.67,1.67,0,0,1-.13.28c-.07.11,0,.17-.32.11s-.42,0-.42-.14-.09-.26-.06-.32a1.2,1.2,0,0,0,.1-.22s.18-.35.22-.41.15-.28.07-.33-.28-.24-.35-.08a.9.9,0,0,0,0,.41,2.9,2.9,0,0,1-.14.48c0,.1-.06.24-.17.28s-.15.07-.28,0-.22-.22-.37-.11-.28.48-.18.57.2.08.26.24a.27.27,0,0,0,.27.21c.1,0,.26-.17.39,0a.59.59,0,0,1,.21.48.6.6,0,0,1-.23.39c-.11.06-.27.07-.27.2s.2.26.2.26.07.06,0,.26a1.47,1.47,0,0,1-.18.69c-.11.13-.35.35-.35.46s.26.11.33,0,.72-.8.85-1,.35-.35.45-.47.22-.53.64-.51.84,0,.95.14a3,3,0,0,0,.39.56c.26.28.35.31.63.28s.37,0,.42.13.15.27.24.27.46,0,.58.06.16.33.22.39.16,0,.2.19.17.25.13.38a1.5,1.5,0,0,1-.22.37c0,.06.11.32.11.32s.3,0,.39.13.22.11.24.31-.45.56-.56.67-.26.37-.44.44a2.74,2.74,0,0,1-.59.2.63.63,0,0,1-.45-.09c-.13-.09-.35-.28-.53-.28a.6.6,0,0,0-.39.12c-.08,0-.09-.08-.33-.08s-.28.11-.5.13a3.94,3.94,0,0,1-.65-.11c-.13,0-.17.24-.34.24a.73.73,0,0,1-.44-.06,1.17,1.17,0,0,0-.63-.11c-.22,0-.28.15-.46.25a1.21,1.21,0,0,1-.87.14c-.33-.09-.54-.26-.85-.24s-1.09,0-1.09,0-.13.15-.36.15-.42,0-.51.08-.12.23,0,.31.09.24.13.31-.25.26-.08.28a5.2,5.2,0,0,1,.56,0c.22,0,.2-.19.33-.17s0,.41.28.45.37-.45.59-.45.44.39.48.45-.11.29.06.37.22.2.33.35.39.18.39.09-.08-.48.16-.31a13,13,0,0,1,1.28,1.29c.28.32,1,1.06,1.26,1.35s.48.45.54.7,0,.45,0,.71.15.31.34.57a1.38,1.38,0,0,1,.35.78,5.91,5.91,0,0,1-.13.91,1,1,0,0,1-.39.4c-.15.08-.37.13-.33.35s0,.3.16.3.82-.2,1-.18.22.22.31.27.37.19.43.11.13-.27.28-.2.31.39.4.41.34-.08.3-.22.13-.41.26-.3a.58.58,0,0,0,.57.18c.26-.07.52-.16.43-.31s-.28-.33-.26-.57.35-.54.35-.54l.2.31.54-.09.15-.39a1,1,0,0,1-.26-.39,1.8,1.8,0,0,1,.11-.62l.67-.71s.27-.26.2-.42-.17-.37-.09-.5.05-.39.29-.28.35.26.35.41a.57.57,0,0,0,.12.29s0-.13.2,0,.31.37.18.5a.88.88,0,0,1-.4.19.57.57,0,0,0-.61.33,1.45,1.45,0,0,0,0,1.2c.13.21.26.36.42.36s.34-.19.56,0,.37.59.42.63.32-.13.41-.19A3,3,0,0,1,23,89c.19,0,.45-.11.43-.32s-.35-.57-.17-.74.28-.37.5-.18a1.34,1.34,0,0,1,.41.46c.11.21.39.35.4.41s0,.07.19.17.52.35.48.48-.41.22-.37.39.15.25.3.48.51.42.59.63a4.49,4.49,0,0,0,.26.5c0,.12.07.33.15.35a2.07,2.07,0,0,0,.5,0c.12,0,.25.13.38.16s.24-.11.52-.14.56.22.58,0-.23-.52-.1-.71.23-.53.43-.44.11.15.13.39-.19.2,0,.24.55-.22.68,0,.17.44.06.57-.43.22-.21.47a8.56,8.56,0,0,0,1.28,1,2.49,2.49,0,0,0,.59.29c.3.08.43,0,.59,0s.23.06.39-.22.47-.5.52-.3a.5.5,0,0,1-.13.45c0,.07-.07.16,0,.41s.23.37.39.7a2.9,2.9,0,0,0,.83,1.11c.34.17.38.15.62.09a2.08,2.08,0,0,1,.72,0,.27.27,0,0,0,.35-.13,11.16,11.16,0,0,1,.54-1c.14-.19.48-.5.74-.43s.83.17.53.37a5.11,5.11,0,0,0-.89.69c-.13.18,0,.51.12.52s0-.21.35-.15a.84.84,0,0,1,.63.52,1.23,1.23,0,0,0,.16.44c.1.15.22.22.34.41s.25.37.42.29.2-.22.2-.4-.09-.47.21-.54a2.61,2.61,0,0,0,.68-.26l.39-.18c.09-.06.24-.34.43-.24s.37.33.31.46.28.26.28.37.11.33-.28.33-.37,0-.55.17-.47-.06-.58,0-.2.38-.07.48.52.14.24.27-.46.15-.46.36a.78.78,0,0,0,.26.74,3.16,3.16,0,0,1,.76,1.25c0,.17-.23,1.19-.23,1.41a4.29,4.29,0,0,1-.22.72,2.64,2.64,0,0,0,.41,1.19c.2.31.94.55,1,.42a.46.46,0,0,0-.22-.55,1.8,1.8,0,0,1-.62-.65,1.46,1.46,0,0,1-.18-.67c0-.24,0-.59,0-.68a.67.67,0,0,1,.11-.39,2.73,2.73,0,0,0,.2-.48c.1-.19.08-.57.22-.63a.61.61,0,0,1,.62.24c.09.2.27.5.42.46s.19-.05.3-.22,0-.15.2-.26a.34.34,0,0,0,.19-.41c-.06-.18-.32-.5-.15-.55s.37.17.4.35,0,.41.15.45.3,0,.39.2a1.37,1.37,0,0,0,.3.5c.2.2.22.33.29.16s.17-.22.08-.44-.22-.18-.17-.5a4.53,4.53,0,0,1,.28-.7c0-.15,0-.41.13-.45s.59.06.59.19,0,.28.11.31.26.24,0,.37-.54.28-.24.39.61-.24.68-.31.34-.24.39-.08.26.41.37.39.15,0,.19-.18,0-.3.18-.35.58-.13.67,0,.15.24.33.24.22,0,.32-.11.61-.13.61-.13.27.41.33.52a.82.82,0,0,1,.05.4c0,.1.06.3.21.21s.24-.13.33-.28.17-.09.39.11.56.26.48.44-.18.21-.39.3-.57.15-.63.39-.16.37-.11.63,0,.17-.05.28-.13.13-.24.14l-.39.08c-.28,0-.63-.08-.76,0a1.09,1.09,0,0,1-.39.08c-.13,0-.18-.19-.28-.26s-.42-.34-.46-.17-.06.28-.26.3-.24-.1-.39-.08-.22.21-.2.39a.76.76,0,0,0,.44.65,5,5,0,0,0,1.46.26c.19,0,1-.32,1.1-.21s.31.48.48.43.26,0,.28-.33-.13-.39-.13-.61,0-.5.16-.47.08.17.39.24a1.73,1.73,0,0,0,.85-.16c.22-.06.35-.15.54-.11s.35-.17.52,0,.15.28.09.37-.26.11-.28.24,0,0,0,.13,0,.16.13.15.3-.21.47-.23a1.57,1.57,0,0,1,.74,0c.18.11,1,.57,1,.59a1.18,1.18,0,0,1,.61.3c.3.26.85.57.72.87s-1,.42-1.13.29,0-.25-.22-.25-.29,0-.28.16a.51.51,0,0,1,0,.3c0,.15,0,.26.06.28s.3-.23.41,0,.26.53.33.64a.76.76,0,0,1,.17.43c0,.28.05.54-.26.61s-.61,0-.65-.19,0-.33-.18-.29-.28.24-.49.35-.35,0-.48.06,0,.35-.29.46a2.74,2.74,0,0,1-.74.17c-.19,0-.47.12-.26.22s.57.07.68.15a.5.5,0,0,1,.3.4,5.26,5.26,0,0,1,.09.65c0,.13-.13.2-.13.28s0,.13.13.18.32,0,.33.15.28,0,.21.24a1.73,1.73,0,0,1-.3.5c-.09.13-.46.46-.35.69s.48.24.65.46.26.5.39.42a1.72,1.72,0,0,1,.46-.25c.24-.08.67-.23.89.11s.35.83.92,1,.89.52,1.19.19a8.13,8.13,0,0,1,1-.84c.3-.26.26-.53.79-.51s.78-.45,1-.54.25-.33.68-.22a9.63,9.63,0,0,0,1.81.27,6.82,6.82,0,0,1,1.5,0c.39.11.89.45,1.32.61a2.84,2.84,0,0,1,1,.63c.41.36.85.65,1,1s.5.32.33.47a1,1,0,0,1-1,.2,7.35,7.35,0,0,1-1.27-.54,2.35,2.35,0,0,0-1-.63,2,2,0,0,1-1-.31,1.17,1.17,0,0,0-.92-.22,6.9,6.9,0,0,1-1.07.09,3.55,3.55,0,0,0-1.21,0c-.2.13-.44.15-.39.42s.28.34.34.84.2.55,0,1-.4.7-.72.72-.89-.06-1,.07-.74.26-.22.47,1.26.2,1.57.57a2.45,2.45,0,0,0,.91.7,4.2,4.2,0,0,1,1.33,1c.37.47.59.6.76.87s.52.48.2.71a7.5,7.5,0,0,0-1.38,1.48,2.89,2.89,0,0,0-.43.88,1.84,1.84,0,0,1-.76,1,4.41,4.41,0,0,0-1,.67,1.5,1.5,0,0,0-.28,1.13c0,.57-.31.64.09,1.29s1.08,1.11,1.45,1.61a6.69,6.69,0,0,1,.77,1.28c.25.5.52.83.63,1.09s.15.13.49.48a5.4,5.4,0,0,1,1.2,1.7,16,16,0,0,1,.35,1.78c.15.67.28,1.33.43,1.83a3.17,3.17,0,0,0,.66,1.21,6.55,6.55,0,0,0,.87,1c.3.2.7.42,1.07.68a1.62,1.62,0,0,0,.84.33c.07,0,.29-.35.52-.16a1.3,1.3,0,0,1,.42.5c0,.07-.11.27.28.42a9.86,9.86,0,0,1,1,.33c.37.19.89.32,1.17.49s.39.22.39.51a.8.8,0,0,0,.22.63,3.06,3.06,0,0,0,1.31.43c.37.05.48-.19.83,0a3.25,3.25,0,0,1,.86.65c.09.13.48.11.64.29a4.79,4.79,0,0,0,.67.72c.15.08.85-.42,1-.5s.41-.27.57-.24.3.3.6.43.31.15.51,0,.47-.5.54-.21.09.28-.09.51-.22.44-.08.61.45.4.15.64-.7.28-.87.45-.2.31-.46.48-.52.09-.54.31a3.64,3.64,0,0,1-.13.6c0,.14-.4,0-.48.38s-.52.58-.68.63-.09.15-.5,0a1.82,1.82,0,0,1-.85-.42,4.49,4.49,0,0,0-1.41-.8,3.78,3.78,0,0,0-1.2-.09c-.08,0-.32.24.09.48s.7.26,1.18.52,1,.83,1.21.83.5.11.63,0a.76.76,0,0,1,.59-.17c.2.06.44,0,.54.08s0,.15.31.28.41.07.57,0,.71-.09.74.07a1.52,1.52,0,0,1,.06.72c-.07.24-.24.26-.07.58s.33.24.51.64a8,8,0,0,1,.5,2c.08.67.36.76.15.87s-.46,0-.5.26-.16.18.22.46.8.56.93.63a1.67,1.67,0,0,0,.61.13.37.37,0,0,1,.37.24c0,.17,0,.37-.11.37s0,.06-.15.13-.24.19-.41,0a1.9,1.9,0,0,0-.88-.39c-.17,0-.37-.09-.26.15s.31.37.37.57.26.37,0,.6a7.27,7.27,0,0,1-.66.53c-.17.13-.26.22-.56.43a2.43,2.43,0,0,1-.5.28c-.22.11-.33.07-.35.22s-.07.18.15.46.48.46.63.69.28.59.5.9.55.69.5,1-.22.5-.34.43-.33-.34-.61-.63-.48-.24-.61-.45,0-.55-.37-.61a4.43,4.43,0,0,0-.83,0c-.17,0-.3-.18-.52,0a1,1,0,0,0-.28.69.92.92,0,0,1-.27.59,6.72,6.72,0,0,0-.58.76c-.09.17-.27.44,0,.57s.72.5,1.17.69.78.72,1,1.05a7,7,0,0,0,.93.95,10.3,10.3,0,0,0,.94.61s.93.7.8,1a.72.72,0,0,0,.26.89,6.53,6.53,0,0,1,1.52,1,1.35,1.35,0,0,1,.29.46c.11.22.45.41.76.81a8.25,8.25,0,0,0,.87,1.17c.26.2.43.33.5.5s0,.41.09.74.45.33.61,1.11.28,1.55.32,1.92a5.55,5.55,0,0,0,.15,1,6,6,0,0,1,0,.94,11,11,0,0,1,.39,1.39,3.44,3.44,0,0,1-.14,1c-.09.31.08.61,0,.78a2.54,2.54,0,0,0-.31.56c-.08.27-.58.36,0,1a2.59,2.59,0,0,1,.61,1l0,.12s-.37-.25-.45,0-.11.55-.28.41a1.09,1.09,0,0,1-.41-.8,16.23,16.23,0,0,1-.31-2.31,5.83,5.83,0,0,0-.33-1.8,3,3,0,0,1-.17-1.06,1.82,1.82,0,0,0-.14-.88,2.68,2.68,0,0,0-.5-.87,2.34,2.34,0,0,1-.47-.8,4.42,4.42,0,0,0-.47-1.14,8.17,8.17,0,0,0-1-1.61c-.53-.64-1-1.28-1.23-1.64a3.06,3.06,0,0,0-.55-.66,4.86,4.86,0,0,1-.83-1c0-.14-.11-.19,0-.33s.28-.22.25-.45-.22-.36-.22-.55,0-.64-.14-.64a1,1,0,0,0-.61.33c-.11.17-.39.39-.39.61a3.16,3.16,0,0,1-.19.81.84.84,0,0,1-.36.5c-.25.22-.42.3-.42.53a1.78,1.78,0,0,0,.06.66,3.07,3.07,0,0,1,.08,1.14c0,.36-.42.11-.39.75s-.16.78-.16,1.17-.23,2-.25,2.19-.39.5-.39.91,0,.95,0,1.31a5.1,5.1,0,0,1-.39,1.28,3.59,3.59,0,0,0-.45,1.74,8.7,8.7,0,0,1-.41,2.09A11.24,11.24,0,0,1,73,185.1a5.1,5.1,0,0,0-.39,1.75,23.35,23.35,0,0,1-.39,2.63c0,.42-.53,2.22-.61,2.78s-.55,1.89-.58,2.08-.31,1-.39,1.22a10.11,10.11,0,0,0-.33,1.28c0,.17-.06.36.19.25s.78-1,.78-1l.5-1.11.61-.84a6.49,6.49,0,0,1,.58-.88c.14-.11.75,0,.75,0s.56.28.61.59a2,2,0,0,0,.33.75c.12.14.39.25.53.39s.5.16.56.33a.53.53,0,0,1-.2.53c-.14,0-.22.11,0,.3s.61.56.61.72a.58.58,0,0,1-.34.42c-.08,0-.22-.19-.36-.14s-.3.19-.5.31-.52,0-.83,0-.72.25-.89,0a1.71,1.71,0,0,0-.89-.52c-.22,0-.52-.13-.58.23a4.35,4.35,0,0,1-.25,1.16,9.55,9.55,0,0,1-1,1.08c-.14.12-.56.37-.53.53a7.53,7.53,0,0,1,.28,1.36c0,.45-.36,2.31-.39,2.67s-.39.83-.39,1.14a17.75,17.75,0,0,1,0,2,5.22,5.22,0,0,1-.25,1.17c-.17.33-.84,1.05-.84,1.33s0,.64.06,1a3.91,3.91,0,0,1-.22,1.53c-.2.41-.47,1.33-.64,1.77A13.21,13.21,0,0,0,67,215.3c-.11.44-1,2.91-1.16,3.36a2.16,2.16,0,0,0-.22,1.14c.05.36-.2.8-.28,1.61a12.54,12.54,0,0,1-.67,2.41,9.67,9.67,0,0,0-.83,2,12.34,12.34,0,0,1-.58,2,3.41,3.41,0,0,1-.73,1.39,10.06,10.06,0,0,0-.69.83,3.27,3.27,0,0,1-.44.73,5,5,0,0,0-.89.77c-.28.39-.7,1.25-.92,1.48s-1.08.94-1.44,1.27-1.42.47-1.78.7-1.28.33-1.44.55-.47.64-.22.92a5.52,5.52,0,0,0,1.63.66,22.3,22.3,0,0,1,2.25,1.34c.61.3.86.38,1.17.3s.55-.33.83,0A6.84,6.84,0,0,0,62.1,240c.47.27.69.41.63,1.11a9.29,9.29,0,0,1-.63,2.25c-.17.36-.25,1-.48,1.13s-.25.61-.44.78-.44.17-.39.58,1.08,1,1.36,1,.81,0,.86-.55.5-1.34.72-1.17-.08,1.39.39,1.5.39.36,1.25.22.7-.28,1.19,0,.92,1,1.56,1.15,1.39-.27,1.64,0,1.08,2.48,1.72,2.56,4.11-.33,4.52,0a3.35,3.35,0,0,1,.59,2c0,.36.63,1.33.63,1.33a2.07,2.07,0,0,1,1,.7c.33.5,1,1,1.25,1.41s.5.56.81.42a4.23,4.23,0,0,1,1.52-.25c.11.08.75.45,1.08.29a12.57,12.57,0,0,1,1.7-.57c.33,0,.94-.33,1.33-.11s.69.14,1.08.72.64,1,1.25,1.22.75.06,1.36.28a2,2,0,0,1,1.06,1.19,1.88,1.88,0,0,0,.55.7,5.76,5.76,0,0,0,.81.72,2.64,2.64,0,0,0,1.36.25,3.78,3.78,0,0,1,1.5-.36c.58.05.91.28,1.27.14s.42-.39.75-.45a3.72,3.72,0,0,1,1.53.39c.25.17.56,1,.69,1.17a.56.56,0,0,0,.75.19c.28-.19,1-.8,1-.8a.31.31,0,0,1,.53-.17,5.17,5.17,0,0,0,1.08.58s.89.09,1.42.17a19.21,19.21,0,0,0,2.47-.11,4.75,4.75,0,0,0,1.78.41,1.7,1.7,0,0,0,.72-.55s-.19-2.16-.19-2.5.49-1.55,1-1.61a8.57,8.57,0,0,1,2.8.75c.86.39,1.75.53,1.83.86s.64.47.64.47l1-.13,1.22,1,1.11.25.64,1.09s.08.89.69.94,2.2-.25,2.86-.25,1.28.07,1.31.26a1.51,1.51,0,0,0,.33.77c.28.39.58.55.67,1.11a8.75,8.75,0,0,0,.25,1.22c.08.31,0,.5.61.67s.69.05,1.08-.39.2-.86,1-.86a5.26,5.26,0,0,1,1.3.11c.34.05.5.39.73.58s.66,0,1.22.2,1.44.23,1.52.43-.16.29-.05.59.33.39.28.61-.48.34-.61.75a2.63,2.63,0,0,0,.08,1.28c.05.25.11.75.47.8a9.63,9.63,0,0,1,1.94.81c1,.47,2.06,1.11,2.28,1.19a4.47,4.47,0,0,1,1.08,1.39c.17.39.31,1.14.84,1.14a5,5,0,0,0,1.83-.64c.39-.22,2.16-1,2.58-1.11s.75-.5,1.36-.25,1.61.92,2.05,1.11.61,0,1.2.19,1.08,1.14,1.55,1.39a3.51,3.51,0,0,0,1.7.28c.33-.06,2.33.33,2.74.28a3.53,3.53,0,0,0,1.47-1.25,2.38,2.38,0,0,1,1.5-.75,2.09,2.09,0,0,0,1.17-.5,3.07,3.07,0,0,1,1.67-.67,10.46,10.46,0,0,1,2.55-.08,12.18,12.18,0,0,1,2.19,1c.2.25.45.36,1.06.25s.75-.36.8-.44a.82.82,0,0,0,0-.59c-.08-.25-.61-.55-.55-.83s.14-.58,0-.69a5.06,5.06,0,0,1-.94-.59,3.57,3.57,0,0,1-.67-.86c-.27-.47-.58-.55-.58-.94s-.05-.92-.05-1.3.13-.7,0-.86-.39-.25-.39-.5-.09-.2.22-.45a2,2,0,0,0,.47-.69s-.33-.39-.11-.72a6.48,6.48,0,0,0,.47-1.17v-1.19a4.33,4.33,0,0,1-.91-.23c-.09-.08-.59-.5-.56-.72a4.14,4.14,0,0,1,.22-.89,2.25,2.25,0,0,0,.22-.44,1,1,0,0,0,.12-.58c0-.34-.12-1.06,0-1.17s.44-.19.55,0,0,.56.17.67.22.19.33.05a.78.78,0,0,0,.17-.5.56.56,0,0,0-.17-.44c-.14-.17-.17-.14-.28-.36a6.93,6.93,0,0,1-.39-.78c0-.08.12-.22.28-.3s.17,0,.42-.28.44-.95.3-1a2.69,2.69,0,0,1-.8-.67c-.11-.22-.45-.39-.33-.75a1.2,1.2,0,0,1,.41-.69c.2-.14.06-.2.22-.42s.42-.61.42-.41,0,.44.14.47.17-.08.22-.28.25-.42.31-.25-.09.45.05.47.25.17.56-.16a20,20,0,0,1,1.44-1.61,21.31,21.31,0,0,0,1.44-1.59,12.63,12.63,0,0,1,2.11-1.77,9,9,0,0,1,1.92-.59,2.58,2.58,0,0,0,.8.28,4.76,4.76,0,0,1,.92.17c.08,0,0,.39.47,0s1.25-1,1.25-1.28a4.14,4.14,0,0,0-.3-.94l.44-1,.56-.5.77-.39s1.25-1.61,1.5-1.36.11.44.47.44.7-.36.73-.11-.14.48.36.48a5,5,0,0,0,1.38-.5,2.71,2.71,0,0,0,.62-.34l.41-.33a2.12,2.12,0,0,0-.44-.06c-.09,0-.64.14-.42-.11s.36-.8.86-1a6.15,6.15,0,0,1,1.67-.75c.5-.06.72.19,1.08-.06a1.33,1.33,0,0,0,.47-.52s-.28-.23.28-.64a3.24,3.24,0,0,1,1.08-.64c.39-.14,1.06-.83,1.2-.58a1,1,0,0,1,0,.63l.55.06.19.67.48.69a3.3,3.3,0,0,0,.55.44,2.19,2.19,0,0,0,.39-.11l.5.31.33.94h-.5l-.33-.53-.67-.25a2.12,2.12,0,0,1-.47-.11c-.25-.08-.47-.38-.44-.11a6.93,6.93,0,0,0,.33,1c.08.28,0,.5.31.81a2.85,2.85,0,0,0,1.22.61c.28,0,.61-.08,1-.08a1,1,0,0,1,.66.27l1,.37.25-.37-.27-.3-.53-.36-.22-.58-.39-.53,0-.45.62.14s-.67-.77-.12-.64a1.1,1.1,0,0,1,.75.48c.12.11.06.25.14.44s.34.17.47.36a1.1,1.1,0,0,1,.2.83c-.08.28-.42.39-.31.67s.36.61.59.42.25-.31.44-.34.44.34.83.11.45-.44.45-.58-.45-.33,0-.55.8-.25.86-.36a2.27,2.27,0,0,0,0-.59c0-.25-.42-.55-.17-.78s.36-.72.89-.63.83.25,1,.27.33-.44.94-.08.92.53.89.89a.88.88,0,0,1-.33.58s-.36.14-.23.36a2.5,2.5,0,0,0,.56.5s-.28.34-.39.45-.08.27-.08.47-.2.28-.22.41a3.53,3.53,0,0,0,0,.56c0,.14,0,.17,0,.39s-.28.19-.28.3.25.23.52.23.62.08.62.38v.75l.41-.33.34-.25.16.58.14.37a.7.7,0,0,1,.53,0c.25.11.3,0,.8.25a1.8,1.8,0,0,0,.95.19s.44-.11.58-.17.14-.3.14-.3a7.69,7.69,0,0,1-.33-.75c-.09-.25-.17-.53,0-.64s.11-.39.11-.39-.17-.52.05-.61.48.17.48.17-.2-.47.25-.47.13.16.52.3.72-.19.89-.05a3,3,0,0,0,.53.3.91.91,0,0,1,.42.5c.05.31.47.75.49,1.28s0,1.19.5,1.36.59.05,1.59-.06,1.91-.05,2.27-.11.14-.36.56-.36.41.17.78.2.27-.2.61-.34.69-.39.86-.14.27.28.36.53.44,1.17.3,1.28-.55,0-.61.14.11.36.34.44.69.53.66.81-.47.16-.5.36a.76.76,0,0,0,.28.61c.19.16.55.3.67.41s.66-.16.66-.16a1.61,1.61,0,0,0,.64.28c.31,0,.56.05.72-.12a.46.46,0,0,1,.61,0,1.43,1.43,0,0,0,.84.14c.33,0,1.74,1.08,1.91,1.13s1-.22,1.19-.08l.73.58a1.76,1.76,0,0,0,.69.36c.42.11.44.2.72.53a2.64,2.64,0,0,0,1.17.5c.08,0,.19.5.19.5l-.44.5.8.58.64,0,.42-.7.55-.5.84-.25a.79.79,0,0,1,.61,0,1.67,1.67,0,0,0,.61.34,1.51,1.51,0,0,1,.75.24c.08.14.11.37.39.39a5.43,5.43,0,0,0,.88,0l.7.14v.66l-.2.53.67,0a2.09,2.09,0,0,0,.3.5l.53.47.59.17.38-.31-.77-.55-.42-.34-.14-.39-.36-.58s1.08-1.28,1.17-1.3a5.34,5.34,0,0,1,.72,0l.64-.36.61.28.52-.05.48.72.72.19s.53-.11.36-.39-.5-.33-.25-.52a1.14,1.14,0,0,0,.28-.7l.33-.39,1.39.22a5.12,5.12,0,0,0,1.25-.16,3.81,3.81,0,0,0,1.75-.81,5.08,5.08,0,0,1,.69-.47l.61.45.61-.56.58-.25s-.8-.22-.61-.5.5-.42.61-.69a1.83,1.83,0,0,0,.14-.5,3.82,3.82,0,0,0,.17-.5c0-.17-.22-.59-.39-.53a1.87,1.87,0,0,0-.44.31l-.42-.2-.67.2-.38-.42a2.11,2.11,0,0,1,1-.5c.45,0,.61-.11,1.06-.58a4.49,4.49,0,0,1,1-.78s.08-.25.28-.72a4.07,4.07,0,0,0,.19-1.25c0-.28.28-.7.56-.47a2,2,0,0,0,.91.55.46.46,0,0,0,.53-.28c0-.11-.14-.22.22,0s.42-.11.5-.23.11-.52.64-.33.47.2.61-.3.22-1,.53-1.11.58-.23.58-.56-.22-.58-.19-.75.16-.72.44-.53a2.49,2.49,0,0,0,1.56.17c.27-.14,0-.56.33-.75s.61.28.61.28l.64-.09.14-.72-.14-.91s.41-1,.77-1.22a2.66,2.66,0,0,1,1-.25c.2,0,.48-.45.59-.53a1.5,1.5,0,0,1,.86-.14c.25.05.47-.22.61-.17a.67.67,0,0,0,.61-.14,3.73,3.73,0,0,0,.17-.72l.75-.47.86,0,.44-.61,1.19-.36,1.2-.8.44-.75-.61-1.47-.47-1-.08-.94.36-.67a12.36,12.36,0,0,1,1.08-1.08,4.39,4.39,0,0,0,1.33-1.58,8.21,8.21,0,0,0,.61-1.75l-.28-1-.33-.8.25-1a9.89,9.89,0,0,0-1.53.2c-.22.11-.94-.33-.94-.33a1.92,1.92,0,0,1-1.14.69c-.61,0-.83-.61-1.16-.5s-.11,1.19-.78,1.11-2.86-.53-3.78-.75-1.83-.11-2.36-.5a9.31,9.31,0,0,1-1.63-1.39,12.58,12.58,0,0,0-1.25-1.25l-.78-1.44-.89-.83-.36-.95a1.38,1.38,0,0,1-.53-1.16l0-.86.86-.86.11-.64a18.51,18.51,0,0,1-1.89-2.69c0-.39-.17-.89.36-1.2a12.21,12.21,0,0,0,1.36-1,11.4,11.4,0,0,0,.61-1.47,13.92,13.92,0,0,1,.81-1.64l.66-.44.11-.81-.41-1.13-.84-1.86-1-.86-1.59-.39a9,9,0,0,1-1.44-.53,14.68,14.68,0,0,1-1.39-1l-.19-1,.44-1.08-.91-1.31-1.23-1.3s-.22-1.61.28-1.8,1.39-1.23,1.92-1.14,1.16.61,1.72.72,1.05-.64,1.05-.64a7.79,7.79,0,0,1,2.58-1.58c.87-.09,1.64.39,2.56-.14s1-.81.8-1.53-.5-2.58-.08-3.05,1.36-.28,1-1.31a8.68,8.68,0,0,0-2.25-2.44,18.24,18.24,0,0,1-1-1.55c-.45-.75-1.11-2.17-1.11-2.17l-.22-1.36a.64.64,0,0,0-.14-.75,24.82,24.82,0,0,0-2.25-1.25s-1.47-3-.72-3.61a32.16,32.16,0,0,1,3-1.83,6.25,6.25,0,0,0,1-1l.19-2.05s-.47-1.2-.61-1.42-.8-1.53-.8-1.53l-1.36-.66L251,158.5a6.8,6.8,0,0,1-.91-1.16,5,5,0,0,1-.5-1.47l.27-1.28.78-1.8s-.22-.64-.61-1.47l-.39-.84-1.19-.83-2.44.22a1.86,1.86,0,0,1-1.31.11c-.53-.25-.64-.44-1.16-.19s-2.89,1.47-2.89,1.47-.42.17-.61-.08a1,1,0,0,0-.64-.28L238,152.18a1.3,1.3,0,0,1,.48,1c0,.72.05,1.75-.67,2.11a19,19,0,0,0-1.83,1.14l-1.75-.47-.94.05-.84.23s-1.52.5-1.47,0a2.32,2.32,0,0,1,.64-1.06l1.86-1.14a1.58,1.58,0,0,1,0-1.19,12.52,12.52,0,0,1,1-1.64,3.09,3.09,0,0,0-.33-1.53,21.38,21.38,0,0,1-1.16-2.08l1.08-1.41,1.08-1.67s.33-2.39.92-2.89,3.47-3.27,4.27-3.71,1.81-.48,1.61-1.06a12.8,12.8,0,0,1-.33-1.3l.55-1s-.83-1.45-.08-2.31a3.06,3.06,0,0,1,2.11-1.3c.94-.17,1.92-.22,2.33-.72s.28-1.09.58-1.67,1.92-1.61,2.61-2.3.67-1.36,1.53-2.31,1.89-2.11,1.89-2.11l.78-1.27.75-.89-1.5-.81s-1.09-.33-.73-.8a9,9,0,0,0,.73-2.31l.66-.86s2.28-.14,2.36.23a1.67,1.67,0,0,0,1.47,1.19,7.72,7.72,0,0,0,2.78,0c.69-.11,1.89.14,1.89-.25s-1.14-1.11.08-1.08,1.5-.28,1.5-.28l.08-1.16,1-1.33a3.68,3.68,0,0,0,.36-1.78c-.16-.61-.83-.86-.55-1.5s.5-1.42.5-1.42l-.17-1.47.06-1.61.36-1.3,1-2.36a30.17,30.17,0,0,1-.45-3.17,6.48,6.48,0,0,1,.47-1.91l.89-2.14.92-2.16a3.56,3.56,0,0,0,1.19-1.67,12,12,0,0,0,0-2.55s1.08-2.56,1.36-3.42-.14-2.41,0-3.11a16.44,16.44,0,0,1,2.19-3.08,1.41,1.41,0,0,1,.64-1.5c.89-.58,1.45-.27,1.75-1.11s.14-1.83.64-2.58a16,16,0,0,1,1.55-1.94c.45-.47.92-1.36.73-1.64a4.54,4.54,0,0,0-1.75-.89,7.32,7.32,0,0,1-2.2-1.3c-.61-.5-1.08-1-1.58-1s-1.05.53-1.52.36a9,9,0,0,1-1.36-.72,2,2,0,0,1-1.59.33,22.73,22.73,0,0,1-3-1.05,15.42,15.42,0,0,1-2-1.28l-.92-1-1.58.52a1.79,1.79,0,0,1-1.61,1.34,7.19,7.19,0,0,1-2.67-.53l-1.47-.64a8.05,8.05,0,0,1-1.41-1.19c-.25-.39-1.67-.86-1.67-.86s-1.14.55-1.8,1a3,3,0,0,1-2.64-.36,16.46,16.46,0,0,1-1.39-2.33l-1.44-2.23-.67-1.36L243,54s-1.55-.67-2.33-1-2.39-1.17-2.39-1.17l-1.41-.44-1.53,1-1.64.83L232,52.35a4.84,4.84,0,0,0-1.28-.83,4,4,0,0,1-1.28-1l-1.25-.92-1.66-.3a3,3,0,0,1-1.17,1,1.81,1.81,0,0,1-1.14-.11l-1.13.39-1.2-.5s.36-.2-.28-1.23l-.63-1s.22-.61-.56-.72-1.72.66-1.55-.17a2.29,2.29,0,0,0-.25-1.5L217,45.16a15.19,15.19,0,0,0-1.42-1.24c-.69-.53-2-1.45-2-1.45l-1.14-.39L211,40.83s-1.22.31-.72-1-.28-.75.11-1a1,1,0,0,0,.25-1.36c-.34-.47-1.56-1.5-1.2-2.14a4.82,4.82,0,0,0,.36-1.86l-.05-1.05.61-1.09-.92-.64-1.11.84a1.72,1.72,0,0,0-.91.86,2.79,2.79,0,0,0-.34,1.16l-.69,1.31-.53.86-1.47-.28a3.21,3.21,0,0,1-1.42,1.14c-.72.17-.55.44-1.3.19L200,36.17a16.21,16.21,0,0,0-1.84-.19c-.63,0-1.19,0-1.19,0l-.64-.7-.28-.86.25-.94.56-.8s-.47-2.14-.56-2.59-.33-.91.14-1.52,1-.86.39-1.72a6.48,6.48,0,0,0-1.5-1.45,6.59,6.59,0,0,0-.86-1.27c-.36-.34.22-.5-1-.42s-1.27.64-2,.5-1.36-.61-1.86-.58a1.73,1.73,0,0,0-1.13.33c-.31.25-.53.8-1.11.47a2.12,2.12,0,0,1-.84-1,3.83,3.83,0,0,0,.48-2.25c-.25-.91-.34-1.36-.73-1.66s.25-.34-1.19-.42-1.78-.08-2.64-.17a5.09,5.09,0,0,1-2.3-.66A7.42,7.42,0,0,1,179,16.82V15.41l-.25-1.28-.36-1.05-.08-1.42-.7-.39s1-1.53-.33-1.36l-1.33.17a7.14,7.14,0,0,0-1.89.3c-.31.22-.56.42-1.11.86a4.3,4.3,0,0,1-2,.48l-1.22-.92a1.78,1.78,0,0,1-.78-1.42l-.08-1s-.42-.06-1.31-.14-1.28,0-1.19-.67a3.37,3.37,0,0,0-.11-1.61c-.17-.44-.36-.69,0-1.05s.69-.56.69-1a5.26,5.26,0,0,0-.77-1.72,4.89,4.89,0,0,1-.61-1.74c0-.25.3-.53-.31-.37a5.74,5.74,0,0,0-1.64.59,12.19,12.19,0,0,1-1.8.75Z"/>
    </g>
</svg>