<svg id="NETWORK" 
    xmlns="http://www.w3.org/2000/svg" viewBox="0 0 300 300">
    <defs>
        <style>
         .cls-11{fill:#da1a35;}   
        </style>
    </defs>
   
    <g id="GERMANY">
        <path   class="cls-11 aaa" d="M114,37.86v.64l.24.19a.72.72,0,0,1,.19.15c.12.13.28.34.28.34v.19l.34.31v.21l.12.37v.59l-.22.21-.37.19v.12a.6.6,0,0,1-.34,0,.5.5,0,0,0-.33,0l-.37-.34-.41-.24-.43-.1-.34.16a1.63,1.63,0,0,0-.24.12c-.09.06-.28.22-.28.22a.59.59,0,0,0-.25.18c-.09.12.13.34,0,.46s-.17.5,0,.62a.48.48,0,0,1,.15.34l.31.49a.37.37,0,0,1,.06.16,2.43,2.43,0,0,0,.24.43l.4.4,0,.28.12.18c.06.09.47.25.43.34a.75.75,0,0,0,0,.49c.09.13.34.25.4.34s.09.19.25.44a1.34,1.34,0,0,0,.52.4.78.78,0,0,1,.31,0c.22,0,1-.16,1,0s.68.15.68.15h.52l.37.37v.37a.4.4,0,0,1,.15.25,4.51,4.51,0,0,1-.15.61l-.71.25a1,1,0,0,1-.49.34c-.28.06-.46-.12-.77,0a3.86,3.86,0,0,1-.92.12,1.18,1.18,0,0,0-.53.16,6.58,6.58,0,0,1-1.2.3,11.46,11.46,0,0,1-1.18,0c-.27,0-.55.09-.74,0l-.64-.26-.28-.22-1.17-1s-.25-.34-.34-.37-.37-.65-.56-.71-.71-.28-.71-.28l-.77.55-.46.22-.21.46-.4.37-.68,1a5.79,5.79,0,0,0-.28.92,4.41,4.41,0,0,1-.12.81,4.58,4.58,0,0,1-.31.67v.53l-.34.71a4.26,4.26,0,0,0-.31.71c0,.15.15.58,0,.71a.9.9,0,0,0-.28.52c0,.12,0,.86,0,1s.34.8.4,1a4.38,4.38,0,0,1,.13,1c0,.28,0,.59.09.68a2.27,2.27,0,0,1,.49.74c0,.12.1.12.28.43a7.07,7.07,0,0,1,.4.83l.31.19.18.49s.1.37,0,.5-.18.34-.24.43,0,.09-.28.28a1.19,1.19,0,0,1-.62.3,2.32,2.32,0,0,1-.49,0s-.43-.21-.22-.4a1.6,1.6,0,0,1,.37-.24.55.55,0,0,1,.19-.16,1.11,1.11,0,0,0,.28-.28l0-.3-.62-.25-.46-.25-.62-.31a3.64,3.64,0,0,1-.59-.09l-.55-.18-1-.22-.15-.12a1.63,1.63,0,0,1-.34-.46,2.52,2.52,0,0,0-.19-.47l-.55-.61s-.25-.31-.37-.31a4.66,4.66,0,0,0-.65.18l-.34.22-.68.77a3.21,3.21,0,0,0-.21.37,5.08,5.08,0,0,1,0,.68,2.08,2.08,0,0,0,0,.61s-.11.31,0,.44,0,.24.55.34,1.24.15,1.24.15l.27.18s0,.49,0,.73,0,1.12,0,1.22-.09.67-.12.86-.15.77-.15.77a3.5,3.5,0,0,0-.25.4c-.09.19-.37.31-.4.4a.41.41,0,0,1-.28.34,8.73,8.73,0,0,1-.9,0,3,3,0,0,1-.42-.18l-.65-.74a2.6,2.6,0,0,0-.4-.47,5.3,5.3,0,0,0-1-.64s-.58-.07-.71-.07a2.93,2.93,0,0,1-.55-.18,1.45,1.45,0,0,1-.31-.49c-.09-.28-.28-.56-.25-.65a.49.49,0,0,0,0-.22l1.08-.4c.09,0,.06-.12.34-.18a2.27,2.27,0,0,0,.59-.25s.06,0,.24-.31.25-.43.25-.52.18-.06,0-.43a3.79,3.79,0,0,0-.37-.68,4,4,0,0,0-.31-.46c-.12-.16-.34-.4-.34-.4s-.15-.31-.21-.41l-.28-.43s-.09-.74-.12-.83a10.88,10.88,0,0,0-.9-.83s-.46-.13-.49-.22-.22-.28-.22-.43-.12-.55-.15-.77a7.93,7.93,0,0,0-.25-.86.73.73,0,0,0-.21-.34c-.19-.19-.47-.46-.62-.46S90,54.1,90,54.1a4.59,4.59,0,0,0-.86,0c-.25.07-.86.1-1.05.13s-.83.09-.83.09a.42.42,0,0,1-.37.34,2.46,2.46,0,0,1-.56.06,5.54,5.54,0,0,1-.71-.15s-.09,0-.24.09-.16.34-.4.34a5.13,5.13,0,0,0-.68,0,7,7,0,0,1-.9,0l-.24,0-.34.34s-.09.21-.19.24a1.41,1.41,0,0,1-.46,0c-.31,0-.65,0-.65,0l-.27.19c-.13.09-.22.06-.37.06a1.65,1.65,0,0,1-.37-.06l-.37.21c-.13.07,0,0-.28.1a2.3,2.3,0,0,1-.43.06.93.93,0,0,0-.43-.31l-.53-.12h-.58a7.52,7.52,0,0,1-.77-.06l-.28-.25-.22.09s-.21.25-.37.25a1,1,0,0,1-.34-.09,1.64,1.64,0,0,0-.49-.19c-.15,0-.4,0-.4,0l-.49.25-.28.09c-.12,0-.34,0-.43.06s-.5.37-.65.37a2,2,0,0,0-.43.09,5.94,5.94,0,0,0-.53.43,2.18,2.18,0,0,1-.34.34,3.18,3.18,0,0,1-.43.31l-.27.4a3,3,0,0,0-.41.28l-.33.34-.34.43-.22.28a5.33,5.33,0,0,1-.62.49v.25c0,.09,0,.09.19.34a4.51,4.51,0,0,0,.37.43l.12.49,0,.4s.1.25,0,.37-.37.13-.46.13-.71-.25-.8-.25a1.11,1.11,0,0,0-.43.09,3,3,0,0,0-.37.59s-.31.46-.28.55.18.19.18.34v.34a8.11,8.11,0,0,1-.18.93s.12,0,0,.21a2.85,2.85,0,0,0-.37.71c0,.19-.12.53-.12.68v.49c0,.1.15.84.15.84s0,.33,0,.46a.75.75,0,0,1-.12.49.49.49,0,0,0,0,.59l.24.24a2.52,2.52,0,0,0,.47.19,6,6,0,0,0,.74,0h.43a2.11,2.11,0,0,1,.77,0,1.39,1.39,0,0,0,.71,0,2,2,0,0,0,.61,0H72l.49.34h.46a2.3,2.3,0,0,1,.28.55c0,.13-.22.41-.25.5a1.9,1.9,0,0,0-.06.46c0,.15,0,.43,0,.43s0,0-.09.4a3,3,0,0,0-.13.65c0,.09-.09.12,0,.46a.53.53,0,0,0,.43.4.77.77,0,0,0,.37.31c.31.16.34.25.37.34a5.89,5.89,0,0,1,.1.68s-.06.28-.1.43a2,2,0,0,1-.12.35,1.6,1.6,0,0,0,0,.32,1.11,1.11,0,0,1-.09.39h-.09l-.14.3s-.07.26-.1.33-.23.23-.27.3a2.32,2.32,0,0,0-.14.37s-.21.3-.19.46a5.57,5.57,0,0,0,.28.69,1.51,1.51,0,0,0,0,.28c0,.07,0,.4,0,.4l.05.67,0,2.66-.4.76a2.34,2.34,0,0,0-.07.32v.44c0,.07,0,.39,0,.39h-.12s-.09,0-.16.26-.16.53-.16.53l0,.32s.07.35-.18.42-.76.05-.79.12,0,.41,0,.41l-.21.35-.21.39-.18.3s-.21.26-.28.28a.42.42,0,0,0-.26.12,4.89,4.89,0,0,0-.37.39l-.34.65-.1.46a2.78,2.78,0,0,1-.16.51,2.22,2.22,0,0,0-.14.44,6.88,6.88,0,0,0-.16,2c.07,1.11,0,2.5,0,2.5l.12.83-.21.33s-.16,0-.19.11,0,.56,0,.63a2.31,2.31,0,0,1-.39.34c-.09.07-.23,0-.23,0s-.58-.18-.65-.18l-.39,0a3,3,0,0,0-.44,0,2,2,0,0,0-.42.07c-.14,0,0,.21-.32,0a4.69,4.69,0,0,0-.67-.37l-.7-.17s0-.13-.11-.16-.51.28-.51.28a.9.9,0,0,1-.51.21c-.23,0-.58,0-.6-.09s-.09-.33-.23-.35a1.37,1.37,0,0,0-.4.05s-.18.27-.27.27h-.44a2.91,2.91,0,0,0-.4,0s0,.23-.16.3l-.39.23S60,97.89,60,98l.24.25s0,.49,0,.62a3.1,3.1,0,0,0,0,.61l0,.2a2.5,2.5,0,0,0,.32.23c.09,0,.33.1.37.17s.12.27,0,.3-.3-.14-.37,0a1.31,1.31,0,0,1-.25.37c-.07,0-.21-.05-.33,0s-.32-.14-.37,0a6.21,6.21,0,0,0,0,.87.25.25,0,0,0,0,.3c.12.14.26.23.28.44a3.56,3.56,0,0,1-.12.67c0,.07,0,.39,0,.39a.89.89,0,0,0,0,.48c.09.17.11.33.46.33s.41-.16.55,0a2.54,2.54,0,0,0,.67.39,1.79,1.79,0,0,0,.44.21c.14,0,.4.12.51.12a2.33,2.33,0,0,1,.6,0c.28,0,.84-.1.93,0a1.23,1.23,0,0,0,.32.18s.3.09.32.16.19.14.24.21-.14.19.25.16a.87.87,0,0,0,.6-.28s.07,0,.16-.13a1.18,1.18,0,0,1,.44-.42c.19-.07.33-.14.33-.14l.18,0a.59.59,0,0,1,.33.16,3.57,3.57,0,0,1,.3.51s.25.6.27.67a1.71,1.71,0,0,1,0,.39,3.57,3.57,0,0,0,.07.37l.53.53.3.33,0,.3a4.78,4.78,0,0,0-.11.6,1.55,1.55,0,0,1,0,.58c-.07.09-.32.21-.32.27V110a2.3,2.3,0,0,1-.14.53c0,.09-.26.34-.3.44s0,.21,0,.48a1.21,1.21,0,0,0,.16.65l.09.23s.19.49.21.58a1,1,0,0,1,.07.25,3.26,3.26,0,0,1-.23.49l-.55.14-.54.3-.23,0a2.67,2.67,0,0,0-.51.39s0,.31,0,.4-.09.46-.09.46a5.11,5.11,0,0,0-.51.21l-.54.35-.23.32-.2.25s-.17.44-.19.54a3,3,0,0,1-.21.41l-.25.3a.51.51,0,0,1-.37.3,5.21,5.21,0,0,0-.83.12c-.1,0-.61.09-.67.11s-.31.14-.33.21-.35.4-.41.53a4.29,4.29,0,0,1-.47.81,1.86,1.86,0,0,1-.48.21l-.35.16a.54.54,0,0,0-.18.14.5.5,0,0,0-.14.28c0,.11-.07.18,0,.35s.58.48.58.48l.33.33a4.14,4.14,0,0,1,.39.27c.07.07.69.47.69.47s.16-.1.28.13a1,1,0,0,0,.37.37s.32.14.37.26a1.76,1.76,0,0,1,.09.51c0,.11,0,.53-.18.6a2.07,2.07,0,0,0-.4.53v.39l-.34.44a1.65,1.65,0,0,1-.19.46c-.09.1-.44.35-.48.42s-.65,0-.65,0l-.35,0a7.11,7.11,0,0,0-.64-.42l-.33,0-.46.24-.79.67h-.37l-.32.14-.39.16-.47.23-.88.37-.48.21s-.65-.1-.74,0-.67,0-.74,0a5.18,5.18,0,0,1-.65-.07h-.37a1.74,1.74,0,0,0-.37.27,1.1,1.1,0,0,1-.48.24h-.3a3.71,3.71,0,0,0-.58-.14,5.17,5.17,0,0,1-.72-.23l-.35-.33-.3-.14-.2,0a2.35,2.35,0,0,0-.4.16l-.41.14a.57.57,0,0,1-.26,0l-.65-.23-.48-.53-.37-.26-.79-.41-.11,0-.14.26a2.24,2.24,0,0,0,0,.37c0,.07.23.28.3.44a5.6,5.6,0,0,0,.35.48,3,3,0,0,1,0,.4s-.07.3-.16.32a4.79,4.79,0,0,1-.54,0l-.5-.23-.76-.35-.19.09a1.26,1.26,0,0,0-.23.26,1,1,0,0,1-.39.37.71.71,0,0,0-.28.39,1.78,1.78,0,0,0-.49.14c-.07.07-.39.12-.46.16a3,3,0,0,1-.41.16,1.56,1.56,0,0,0,.13.42.73.73,0,0,0,.26.16c.07.05.28.14.3.23a3.4,3.4,0,0,1,.09.33,5.79,5.79,0,0,1-.21.6l-.16.34a4.17,4.17,0,0,1-.07.44c0,.1-.21.17-.09.28a1.79,1.79,0,0,0,.28.26l.51.37.44.32a.66.66,0,0,1,.18.44,3.35,3.35,0,0,1,0,.46,2.79,2.79,0,0,1-.14.56.58.58,0,0,0,.05.18.59.59,0,0,0,.28.21l.43.14s.1-.07.4.25a4.33,4.33,0,0,1,.39.47,1.27,1.27,0,0,1,0,.25c0,.16-.09.69-.09.79a4.48,4.48,0,0,0,.28.64,2.61,2.61,0,0,0,.28.56c.09.09.32.46.39.51a2.73,2.73,0,0,1,.28.25s.37.42.41.49,0,.32,0,.32l.19.25a1.08,1.08,0,0,0,.23.31c.13.11.3.16.34.25a2.86,2.86,0,0,1,.1.42,1.36,1.36,0,0,0,.18.37,2.36,2.36,0,0,1,.19.48s.46.19.39.32a3.57,3.57,0,0,0-.09.81c0,.07,0,.47,0,.63v.69c0,.09.07.74.07.74s.09.3,0,.37a.91.91,0,0,0-.09.23l.13.65v.42a.4.4,0,0,1,0,.32c0,.19-.21.32-.23.39a2.35,2.35,0,0,1-.39.35l-.1.32-.39.3a7.94,7.94,0,0,0-.65.65,1.39,1.39,0,0,1-.16.35c-.09.14-.18.3-.23.39a3.55,3.55,0,0,0-.05.68,2.51,2.51,0,0,1-.34.39.93.93,0,0,0-.3.25c0,.07-.42.3-.44.46a.7.7,0,0,0,.09.58c.14.14.37.32.37.32s-.25.31-.21.54a2.83,2.83,0,0,0,.4.69,3.75,3.75,0,0,0,.18.44A1.59,1.59,0,0,1,46,155l.07.56-.32.48a8.41,8.41,0,0,0-.86.72c0,.09-.53.55-.58.65a7.77,7.77,0,0,1-.62.64,4.12,4.12,0,0,0-.42.37,3,3,0,0,1-.41.4l-.3.23-.16.44-.37.46a1.45,1.45,0,0,1-.35.12l-.49-.26-.57-.14s-.4-.11-.42,0a1,1,0,0,0,0,.25l-.56.59s-.22.4,0,.43.46.52.46.52l.18.34.16.31.18.15s.13.37.31.44a2.25,2.25,0,0,0,.65,0l.74,0a.21.21,0,0,0,.15,0c.1,0,.4-.07.5,0s.37,0,.37,0,.24-.23.15,0-.28.48-.28.57,0,.4,0,.4l.53.34.33.16.07.24a2.28,2.28,0,0,1,.34.56c0,.12,0,.52,0,.52s.34.53.31.62-.43.18-.43.28.06.52.06.64-.27.31-.27.31l-.56.19a1.61,1.61,0,0,0-.43.24c-.06.1-.4,0-.19.31l.4.31.19.19,0,.3-.4.22-.09.25-.47.18,0,.34.31.25-.06.21a1.88,1.88,0,0,0-.37.22,1.23,1.23,0,0,0-.18.31l.3.46a.49.49,0,0,0,.28.15,2.68,2.68,0,0,1,.59.31l.12.22.4.31.49.21a.28.28,0,0,0,.25.19,3.19,3.19,0,0,0,.56,0l.49.18s.06.31.09.4a6.66,6.66,0,0,0,.43.65,1.84,1.84,0,0,0,.13.37c.06.09.27.56.27.56s.1.37.25.46a1.22,1.22,0,0,0,.53.18.75.75,0,0,1,.4.19l.67.21h.34l.34.25.16.15,0,.28s.12.16-.09.28-.59.18-.68.25a.82.82,0,0,0-.22.27,1,1,0,0,1-.31.22,3.37,3.37,0,0,0-.4.46,1.81,1.81,0,0,1-.31.34l-.15.34v.4l.18.31.16.34.43.28.25.37.31.15s.18-.12.3,0a.65.65,0,0,0,.28.15h.34l.46-.21a6.94,6.94,0,0,1,.59.4c.09.09.25.15.31.28s.3.52.3.52l.19.25s.12.46.22.52l.3.22v.49a.65.65,0,0,0-.21.37,3.79,3.79,0,0,1-.46.89s.06.31-.07.41a1.18,1.18,0,0,0-.24.33l.37.31.43.31s.21.19.21.28.25.37.25.37l.12.37,0,.43h-.49l-.55.34-.44-.19-.24.19h-.34l-.22.25-.15.21-.22.56a1,1,0,0,1-.06.34,1.34,1.34,0,0,1-.43.4c-.09,0-.46.15-.59.21s-.43.16-.43.16l-.31.18-.27.34-.19.31-.09.68.18.43-.06.4a.25.25,0,0,0-.24.22c0,.21-.07.3-.22.37l-.56.21a2.43,2.43,0,0,1-.33.4c-.13.09.17.68,0,.68s-.37.69-.37.69l0,.33,0,.27-.1.37-.18,1-.09.28-.33.6.19.56.28.23.13.41.24.56,0,.37.14.32.46.23a3.29,3.29,0,0,1,.1.37,3,3,0,0,0,.13.47,3,3,0,0,0,.65.27h.46l.28.6.09.79.1.51s.18.37.23.51.14.37.14.37.37-.23.5,0a.85.85,0,0,0,.42.32l.46.46.19.51h.23l.23.6s.14.37.37,0a1.06,1.06,0,0,1,.51-.46l.55,0,.47.37v.3l.18.25a.74.74,0,0,1,.46,0,1.32,1.32,0,0,0,.61,0l.18.23h.56s0-.18.18,0l.19.19.13.41,0,.42-.09.37.18.37-.09.46v.42l-.23.32-.14.42,0,.27-.41.56-.51.42-.19.55a1.54,1.54,0,0,0-.13.23,1.52,1.52,0,0,0-.24.51v.46a3,3,0,0,1-.32.74h-.28l-.27.84-.24.46-.32.41a1.28,1.28,0,0,0,0,.61l.09.23a3.53,3.53,0,0,0-.09.51c0,.13.05.78.05.78l-.1.37,0,.56a2.71,2.71,0,0,0,.09.64l.42.28h1.2l.74.37.51.19h.46l.23.23h.37l.23.41.19.56a4.36,4.36,0,0,0,0,.51c0,.18,0,.23.14.41a5.36,5.36,0,0,0,.42.37h.18l.05.23.28.24-.1.27-.18.42-.28.28a1.67,1.67,0,0,0,0,.69c.09.23.19.37.32.37h.42l.56.37,0,.46h.74a5,5,0,0,0,.14,1c.09.19-.23-.09.09.19a3.22,3.22,0,0,1,.6.6l.1.14a3.52,3.52,0,0,1,.55.55c0,.14,0,.28,0,.56s.14.69.14.69a2.94,2.94,0,0,0,.09.42c0,.14,0,.28,0,.41s.05-.13.47,0a1.47,1.47,0,0,0,.78,0s.51.38.7.24a3.07,3.07,0,0,0,.46-.69l.14-.28.23-.51.14-.41a2.37,2.37,0,0,1,.46-.1.81.81,0,0,1,.46.05,1,1,0,0,0,.47,0h.5a.71.71,0,0,1,.74.27l.37.37.51.1.51,0,.23.09.33.47c.14.18,0-.1.14.18a1.87,1.87,0,0,1,.18.7c0,.13.19.74.19.74a.18.18,0,0,0,.13.23,3.92,3.92,0,0,0,.7,0,2.81,2.81,0,0,1,.46,0c.14,0,.88,0,.88,0h.18s.37.43.6.48a1.58,1.58,0,0,0,.47,0l.18,0,.7-.3s0-.28.32-.09,0,.13.37.18a2,2,0,0,1,.6.21l.42-.53.51-.23.32-.24.18-.32.51-.46a1.58,1.58,0,0,1,.47-.19c.13,0,.18,0,.37,0s.5-.14.64-.14h.14l.23.32s.33,0,.47,0a2,2,0,0,1,.32,0L79,231a1.83,1.83,0,0,0-.1.51v.23l.33.46.23.35.18.35.1.23H80s.37-.28.37,0,.37.51.37.51h.51a.22.22,0,0,1,.37,0A2.73,2.73,0,0,0,82,234l0,.42.51.46a.71.71,0,0,1,.37,0,1.48,1.48,0,0,0,.5,0l.19,0,.23-.3,0,.3h.92s0,.35.14.4a1.6,1.6,0,0,0,.46,0l.19,0,.28-.39.23-.37c.27,0-.1,0,.27,0H87l.32.37.28.23.27.21H89l.19-.58.6.14.69.44.23.3h.37l.46.32s0,0,.28.24a1.5,1.5,0,0,0,.46.32h.42l.32.23h.42l.19.23.23.28h.5l.37.42.56.23.51.55-.14.65-.23.32s0,.33-.14.37A1.89,1.89,0,0,0,95,240l-.23.28-.19.37-.23.28,0,.55-.14.33-.1.27v.33l0,.28-.19.41a.89.89,0,0,0-.18.37,1.36,1.36,0,0,1-.09.37l0,.28-.37.23h-.46l-.51.51-.14.37-.55.42h-.74a1.83,1.83,0,0,0-.33.41c0,.14-.23.42-.23.56s0-.23,0,.14a8.62,8.62,0,0,0-.05.92L90,248l-.28.28a1.24,1.24,0,0,0-.33.27,2.13,2.13,0,0,1-.46.37h-.28l-.69.51-.18.23h-.14a1.67,1.67,0,0,1-.33.42l-.14.09-.09.7-.09.41a1.5,1.5,0,0,1-.37.23c-.14,0-.09-.27-.14,0a6.89,6.89,0,0,0,0,.83l0,.46,0,.47.14.55,0,.37-.14.32-.14.28-.37.37s-.18.37-.23.51a4.14,4.14,0,0,0-.09.6v.42l-.14.28-.23.37-.14.46v.51l-.19.64-.13.84L85,261.2l-.55.51s-.84.28-.84.47.1.74.1.74l-.05.41-.28.42-.14.51a3,3,0,0,1,.1.6,2.49,2.49,0,0,1,0,.55c0,.14-.42.37-.42.37h-.46l-.14.7-.19.32L82,267h-.24l-.13.32a5,5,0,0,0-.28.79,4.48,4.48,0,0,1,0,.46l-.18.51-.14.33a2,2,0,0,1,0,.69,6.09,6.09,0,0,0-.23.65l0,.51,0,.37L81,272l.32.41a3.25,3.25,0,0,0,.51.46,3.17,3.17,0,0,1,.19.47,2.37,2.37,0,0,1,0,.51c0,.13-.09.55-.09.69s-.14.23-.19.37a4.12,4.12,0,0,1-.5.65l-.1.6-.37.55a7.13,7.13,0,0,0-.14.74v1a3.76,3.76,0,0,0-.13.65c0,.18,0,.37-.1.46a1.57,1.57,0,0,0-.32.42,1.32,1.32,0,0,0-.14.5,2.76,2.76,0,0,0,0,.65l0,.37a2.69,2.69,0,0,1,.23.6v1.21l-.19.41h-.23a5.37,5.37,0,0,0-.6.56.94.94,0,0,0-.14.6,3.42,3.42,0,0,0,.6.69l.47.37.13.28.47.46a2.68,2.68,0,0,0,.18.74s.42.14.46.28l0,.14.46.32h.23l.42-.23.32-.23.51-.14a4.73,4.73,0,0,1,.19.6l-.05.56a.81.81,0,0,1-.28.23,1.32,1.32,0,0,1-.41,0l-.23.37.41.41a2.27,2.27,0,0,0,.42.23l.14.05h.6a2.55,2.55,0,0,1,.37-.42.46.46,0,0,1,.37-.13c.23,0-.09.13.23,0a3.25,3.25,0,0,1,.55-.19L86,289s.09-.14.18-.32.28-.46.28-.46l.42-.19H88l.37.09c.14,0,0-.27.14,0a5.31,5.31,0,0,1,.37.93l.23.23a.37.37,0,0,0,.28.14c.19,0-.14.13.19,0s.69-.33.69-.33l.23,0,.46,0,.28.19.37.18.46-.14.6-.27.61-.05.27-.23.19-.23.14-.23.23-.28.69-.23.28-.1.23-.13.28-.37.23-.33h.32l.6.28s.42.05.56.05h.14l.51-.19a.8.8,0,0,1,.23.46c0,.23.32.42.32.42l.23.32.65.37.32.05.51.18.42,0,.23-.09.37-.14h.28s.37.09.51.14a2.45,2.45,0,0,0,.55,0,1.09,1.09,0,0,0-.18-.61l0-.32.42-.09.32-.32.14-.37.6-.28.69-.28.19.32v.7c0,.14,0,.18.23.18s.51,0,.51,0l.46-.28-.19-.46.1-.33.14-.32,0-.28.09-.28-.23-.27-.64-.28-.51-.05-.33.05a2.22,2.22,0,0,0-.5.18c-.14.1-.65.37-.65.37l-.37.14h-.7l-.92-1v-.23l.18-.37.33-.88.28-.55.23-.33.37-.37.37-.37.41-.23.33-.23a1.17,1.17,0,0,1,.37-.23l.74-.28s-.14-.51.18-.55l.33-.05.46.37.23.28a2.83,2.83,0,0,1,0,.37c0,.14.05.46.19.51s.69-.23.69-.23l.33-.14.37-.05.23.05.18.41.28.33,0,.27-.1.33-.18.46-.32.37a.38.38,0,0,0-.14.32v.24l1,.27.61,0,.27.18s0,.19.37.33l.37.13.47-.46a3.42,3.42,0,0,1,0-.41,2.43,2.43,0,0,0-.14-.51v-.42l.23-.05.42.61.37.27.18.37.19.47.32.41.28.23.14.33.46,0,.74-.14a1.09,1.09,0,0,0,.42-.23l.23-.18.74-.37a.94.94,0,0,0,.28-.05.68.68,0,0,1,.41-.09h.88l.42,0,.5,0,.24.23.41.19.93.23L121,286s.09-.18.6-.18h.51l.55.32.65.28,1.53.92.23.33a.69.69,0,0,1,.55.23c.33.27.65.51.65.51a1.8,1.8,0,0,1,.56.32,5.45,5.45,0,0,0,.51.42l.87.37.7.3.37.25h.44l.74.26H131s0,.06.35,0a3.73,3.73,0,0,1,.55-.07,5.63,5.63,0,0,1,.58-.05h.16a4,4,0,0,0,.49-.07s0-.05.09-.14.3-.14.35-.3-.14-.44,0-.51a1,1,0,0,0,.28-.34l0-.4s-.18,0,0-.18.42-.35.42-.35l.28-.18h.18s.25,0,.28.13.11.44.11.44v.33c0,.09.19.3.21.39a2.41,2.41,0,0,0,.19.37l.2.23c.07.07.49.37.49.37h1.34l.53,0,.26.12v.09l.32.44.33.28.11.35.19.34.18.17H140l.23-.14.21-.1.35.1.21.3v.78l.46.35v.16h.18l.24.16v.12l.2.23,0,.12v.23l-.21.25-.25.28v.51a.91.91,0,0,0,.07.23l0,.16.16.12.21.2s-.14.14,0,.14h1l.24-.2.25-.19.16-.28v-.25L144,295s.16.09.16.21v.11l.18.14.14.12h.23l.12,0,.32-.18.14.34v.3s.07-.18.12,0a.59.59,0,0,1,0,.3s-.05-.07-.14,0a1,1,0,0,1-.23.12l-.19.16a1.34,1.34,0,0,0-.07.42,2.2,2.2,0,0,1,.07.28c0,.06.07.13,0,.23s.07-.05-.07.09a.35.35,0,0,0-.14.3c0,.09.19.32.19.32v.12l-.28.21-.18.23h-.14s-.16.3-.21.41a.54.54,0,0,0,0,.26c0,.09.17.16.23.21l.07,0s.12-.11.21,0,.12.14.42.14a1.35,1.35,0,0,0,.53-.11l.18-.21a.85.85,0,0,1,.24-.19l.27-.14a1.06,1.06,0,0,0,.21-.18,3.36,3.36,0,0,1,.26-.23l.25-.16.16-.1.26,0,.27-.07a.64.64,0,0,0,.26-.07,1.31,1.31,0,0,0,.28-.21v-.39l.53-.42s.14-.32.16-.39a2.26,2.26,0,0,1,.14-.35,1.18,1.18,0,0,1,.28-.3l.18-.37a1.7,1.7,0,0,1,.23-.11l.07,0a2.08,2.08,0,0,0,.21.16.33.33,0,0,0,.23.05.7.7,0,0,0,.26-.07l.18-.18v-1.25l.28-.21.28,0a.59.59,0,0,0,.3-.12c.06-.07-.05-.21,0-.35s-.21-.39-.21-.39-.21-.16-.05-.25a1,1,0,0,0,.28-.3v-.24a1.82,1.82,0,0,0,.14-.46.47.47,0,0,0-.16-.39c-.14-.12,0,0-.14-.12a1,1,0,0,0-.33-.11l-.27-.21s0-.23,0-.3,0-.37,0-.44a3.63,3.63,0,0,1,.09-.69c0-.12.14-.33.14-.33s0-.32.16-.16.44.25.51.37.25.35.25.35.23.18.35.25a3.19,3.19,0,0,0,.35.14,3.48,3.48,0,0,0,.46.14l.28-.09c.06,0,.5-.49.5-.49l.17-.07.39-.35.21-.13h.14l.27.18.91,0,.25.09.21.16.11,0a.66.66,0,0,0,.33-.07l.21-.1.25.21.25.16.23.19.35.21s0,0,0,.14a2.37,2.37,0,0,0,.19.3.51.51,0,0,0,.27.13,2.23,2.23,0,0,0,.51,0l.26-.18.37-.3.25,0a2.26,2.26,0,0,0,.39.1l.14-.17.35-.25.12,0,.3.2v.19a2.07,2.07,0,0,0-.23.32c0,.07,0,.3-.12.35s-.21,0-.23.09a4.59,4.59,0,0,0,.11.65s0-.05.17.05a2.78,2.78,0,0,0,.81.07l.25.13.14.4s-.21.16,0,.27.37.14.41.28-.2.07,0,.35.14-.07.14-.07a.63.63,0,0,0,.19.53l.23.16v.4l.18.3.26.14c.14.06,0-.1.14.06a2.92,2.92,0,0,1,.3.33l.55,0,1.25.07a2,2,0,0,0,.65-.05c.09-.06.11-.16.18-.27s.1-.23.21-.28a1.51,1.51,0,0,1,.26-.12,1.51,1.51,0,0,0,.32-.11l.09,0a2.09,2.09,0,0,0,.16-.32.49.49,0,0,1,.24-.23l.13,0s.12-.07.19,0a2.11,2.11,0,0,0,.55.14l.47,0a2.54,2.54,0,0,0,.46.16.16.16,0,0,1,0,.21,1.72,1.72,0,0,0-.19.48,2.11,2.11,0,0,0-.37.44.38.38,0,0,0,.26.07c.18,0,.1.05.34,0s.47-.12.47-.12a.27.27,0,0,1,.21-.09.77.77,0,0,0,.41-.07c.09-.07-.07.07.09-.07a2.32,2.32,0,0,0,.31-.32l.18-.42V294l.19-.06c.09-.05.13,0,.23-.07s.23,0,.23-.14v-.28s-.12,0,0-.14a.89.89,0,0,1,.3-.16l.21-.05.57.1s-.25,0,0,.09a.79.79,0,0,0,.42.14l.28,0v.16a1.09,1.09,0,0,0,.39.16,2.51,2.51,0,0,0,.35,0l.16-.35s.16,0,0-.18l-.32-.28-.19-.16-.18-.21-.14-.33s-.16-.11.07-.16l.23,0,.32-.1.19-.34a.58.58,0,0,1,.09-.21.69.69,0,0,1,.21-.12l.27.12.28-.05s.12-.16.19-.14a3.44,3.44,0,0,0,.58,0l.37,0a.8.8,0,0,0,.39,0,.9.9,0,0,0,.35-.09h.27c.12,0,0,.07.12,0a1.66,1.66,0,0,1,.46-.09l.28-.14c.11-.05.28,0,.18-.23a2.38,2.38,0,0,1-.11-.53l.14-.23v-1.09l.23-.23.39-.1c.23,0,.39-.09.49-.09l.62,0,.46-.07.47-.05h.83l.32.07a1.29,1.29,0,0,0,.23.21.77.77,0,0,1,.21.26l.32.13.37-.07a.65.65,0,0,1,.24-.18l.27-.05.47.14s.07.05.16-.09a1,1,0,0,0,.16-.3,1.76,1.76,0,0,1,.14-.3l.32-.23.7,0a1.59,1.59,0,0,0,.3-.09,1.18,1.18,0,0,1,.18-.21.55.55,0,0,1,.19-.07h.2a2,2,0,0,0,.42-.05c.07,0,.25-.13.32-.16l.28-.07.28.07s.25.07.3.14a1.85,1.85,0,0,0,.35.23l.37,0,.2.18a1.28,1.28,0,0,0,.26.07l.32,0,.35.07.23-.07.32-.09.19,0s.12.1.18.1h.07a2.33,2.33,0,0,0,.35.07.66.66,0,0,0,.32,0,.77.77,0,0,1,.26-.07,2.46,2.46,0,0,0,.35.12c.13,0,.41-.28.41-.28a1.94,1.94,0,0,0,.39-.21,1.83,1.83,0,0,0,.19-.35s.16-.53,0-.57-.28-.14-.28-.21v-.23l-.07-.4,0-.32a.37.37,0,0,0-.07-.3,1.27,1.27,0,0,1-.19-.32.16.16,0,0,1,.12-.17.47.47,0,0,0,.23-.18,1.23,1.23,0,0,0,.25-.3,4,4,0,0,0,.12-.46s-.16-.24,0-.28a1.51,1.51,0,0,0,.28-.12.6.6,0,0,0,0,.35,5.36,5.36,0,0,1,0,.81c0,.09,0,.53,0,.53l.12.26.25.11.21-.05L195,285l.26-.12.23-.09a.86.86,0,0,1,.49,0,1.34,1.34,0,0,0,.48,0l.23,0,.26,0a.4.4,0,0,1,.21,0l.43.07.37,0h.19a4.74,4.74,0,0,0,.44.18.81.81,0,0,0,.23,0l.25.28v.28s.19.16.19.23a1.94,1.94,0,0,0,.11.34l.37.14v.21l.12.23s-.42.07,0,.23a1.5,1.5,0,0,0,.67.14l.26-.14.34-.09.19-.05s-.1,0,.18.05.3.07.44,0,.44-.21.44-.28v-.27s.09-.35.23-.42l.14-.07.26-.37a1,1,0,0,1,.25-.09,2.49,2.49,0,0,0,.58.07l.25-.12s.37-.18.51-.23a3.41,3.41,0,0,0,.49-.21.63.63,0,0,1,.32-.11,5.19,5.19,0,0,1,.58.09l.18.23s-.11.37,0,.46.33.21.33.28a3.31,3.31,0,0,0,.14.44l.25.16v.16a1.4,1.4,0,0,1,.37.26l.09.11v.54l-.14.23s-.14.16-.14.25,0,.25-.06.35-.05.44-.05.44l.39.23.16.07a1.51,1.51,0,0,1,.19.27c.05.12.11.31.11.31l.12.2a1.25,1.25,0,0,1,.25.26l.05.09a2,2,0,0,1,.28.19l.35.32.43.14.17.21a2.13,2.13,0,0,0,.39.27s.16.05.18.14a1.23,1.23,0,0,0,.24.28l.18.09.21.07.11.26.26.2.21.37v.1l.3,0s-.14-.09,0-.16a1,1,0,0,0,.26-.22l0,0a1.72,1.72,0,0,0,.28.34,1.54,1.54,0,0,0,.23.17l.2.11a.34.34,0,0,0,.28,0,.56.56,0,0,1,.12-.23,1.14,1.14,0,0,0,.16-.35l.3-.34.21-.17a.53.53,0,0,0,.18-.07c.07,0,.12-.27.12-.27a.43.43,0,0,1,0-.35c.09-.14-.21-.35-.21-.35l-.18-.23s-.05-.46-.05-.53-.09-.18.09-.3a2.42,2.42,0,0,1,.37-.19v-.74l.12-.25.21-.18V288s-.07-.19,0-.28a1.18,1.18,0,0,0,.13-.25l.26-.24a2.07,2.07,0,0,0,.23-.32c0-.07,0-.65,0-.72a3.24,3.24,0,0,0-.21-.48l-.46-.6,0-.44-.33-.49s-.11-.23-.25-.46a.84.84,0,0,0-.39-.32l-.54-.17-.16.05s-.07.25-.16.25-.21,0-.32,0l-.42,0-.35-.09s-.32.16-.41,0l-.17-.37s0-.05,0-.17a3,3,0,0,0,.16-.32l.23-.3-.07-.53s0-.05.09-.21a2.34,2.34,0,0,0,.21-.35l.3-.23a4.36,4.36,0,0,0,.19-.6c0-.18,0-.3,0-.3s.12-.42.12-.49-.09-.13.07-.2.3-.12.3-.37a2.58,2.58,0,0,0-.12-.63.74.74,0,0,1-.09-.3.69.69,0,0,0-.14-.55c-.18-.26-.41-.54-.46-.65s-.28-.49-.37-.67a3.59,3.59,0,0,0-.35-.51s-.41-.35-.44-.46a4.23,4.23,0,0,0-.53-.77c-.09-.09-.51-.34-.55-.48a3,3,0,0,1-.09-.44s-.37-.35-.33-.56.16-.32,0-.48a6.37,6.37,0,0,0-.53-.53,6.21,6.21,0,0,0-.63-.44,1.85,1.85,0,0,1-.44-.3c0-.07-.3-.35-.32-.42a2.46,2.46,0,0,1-.19-.46,3.92,3.92,0,0,0-.14-.56.73.73,0,0,0,.1-.34c0-.19,0-.56,0-.56s0,0,.19-.21.64-.51.71-.55.33-.3.46-.39a4.85,4.85,0,0,1,.54-.28l.44-.65.27-.3.44-.39.56-.23.37-.14.6-.26a.53.53,0,0,0,.25-.07,5.15,5.15,0,0,0,.81-.81c0-.07.16-.2.4-.32a1.63,1.63,0,0,1,.53-.23,1.72,1.72,0,0,0,.34-.07l.47-.32.53-.21.62-.07.28-.09.3-.14.42-.28.94-.12.47.19.27.21a6.26,6.26,0,0,1,.65-.26c.07,0,.21,0,.3,0l.44-.35a1,1,0,0,1,.37-.21c.23-.07,0,.07.23-.07a3.11,3.11,0,0,0,.49-.48l.35-.47.25-.09.51-.39.28-.3.13-.23.21-.47.21-.2.21-.49v-.32l.16-.19.16-.28V257l-.21-.23.1-.51s-.05-.09.11-.21a.66.66,0,0,0,.21-.37l.23-.51v-1.08l-.11-.4s.09-.25.11-.34a.64.64,0,0,1,.14-.21.57.57,0,0,1,.39-.19,2.29,2.29,0,0,0,.65-.23s.12-.39.23-.41l.4-.07s.32.13.34.2.28.49.28.49l1,0,.46,0,.28.25.49.12s.13-.05.13.11.07.21.17.42a1.44,1.44,0,0,0,.44.44l.3.16.48,0,.46-.17a1.77,1.77,0,0,0,.31-.41c.11-.23,0-.47.25-.51a1.93,1.93,0,0,0,.62-.37l.12-.39a2.82,2.82,0,0,0,.3-.4c.07-.14.14-.41.21-.53s.18-.35.25-.44a.68.68,0,0,0,.16-.58,4,4,0,0,1,0-.62v-1.43a1.4,1.4,0,0,1-.1-.35c0-.12.38-.42.1-.65l-.28-.23v-.53l.27-.51.21-.53,0-.37-.14-.35-.16-.48s-.37-.42-.44-.47a2.23,2.23,0,0,1-.28-.34,2.28,2.28,0,0,0-.14-.58,5.91,5.91,0,0,0-.34-.6l-.17-.28-.23-.51a.61.61,0,0,1-.07-.28,1.41,1.41,0,0,0-.2-.48l-.26-.3-.32.09-.23.51-.21,0-.44,0a3,3,0,0,1-.23-.26l-.4-.41a1.19,1.19,0,0,0-.09-.46,3.21,3.21,0,0,0-.3-.42l-.32-.32,0-.4-.42-.55-.55-.26h-.14l-.46-.07-.23-.18-.28-.23-.37,0s-.3,0-.32.14l-.12.47s-.14.3-.23.34a.94.94,0,0,1-.32.05l-.37-.23s-.24-.3-.3-.3h-.61a1.27,1.27,0,0,1-.09-.37s0-.23-.07-.28a2.34,2.34,0,0,1-.23-.16l-.28-.21v-.35c0-.14,0,.49,0-.39s.19.32.14-.39-.09-.49-.09-.49,0,.14,0-.23l.07-.37-.21-.3-.3-.14-.26-.14v-.16c0-.12.07.05,0-.12a1.8,1.8,0,0,0-.3-.39s.07.19-.14-.07l-.2-.25-.24-.28-.2-.07-.37-.3-.26-.07-.28-.21a2.1,2.1,0,0,0-.37,0,.88.88,0,0,1-.39.07c-.18,0,0,.05-.44-.07a5.9,5.9,0,0,1-.62-.18l-.56-.4-.16-.2-.12-.26a3.61,3.61,0,0,0-.09-.58,2.76,2.76,0,0,0-.28-.41l-.48-.19v-.16l-.14-.46-.32-.23-.4-.16v-.24l-.07-.25-.3-.28-.25-.16s0,0,0-.12a1.43,1.43,0,0,0-.07-.32l-.33-.23,0-.25-.44-.24-.12-.3a2,2,0,0,0-.18-.6c-.1-.07-.33-.28-.33-.28v-.34l-.41-.37-.19-.23-.28-.35a.19.19,0,0,0-.13-.3c-.28-.07-.7-.21-.7-.21l-.23-.09-.16-.19-.49,0-.48-.05-.09-.16-.44-.07-.17.17-.2.23-.74,0h-.67a2.08,2.08,0,0,1-.35-.07l-.07-.3a.68.68,0,0,0-.09-.3l-.33-.32-.27-.26,0-.18,0-.54s-.19-.32-.3-.32-.19,0-.23-.05a1.85,1.85,0,0,0-.35-.23s.05,0-.14-.18-.51-.4-.51-.4l-.14-.3-.18.26s.05.16,0,.18a1.09,1.09,0,0,1-.32,0,.32.32,0,0,1-.16-.3c0-.18,0-.41,0-.41s-.11-.42-.16-.54l-.19-.39.12-.44-.16-.62a1.11,1.11,0,0,0,.07-.7l-.07-.46s0-.34-.21-.46l-.58-.3-.37-.14a.22.22,0,0,1-.11-.21,3.94,3.94,0,0,0-.17-.67l0-.37-.09-.46-.26-.26-.14-.41-.41-.16-.28-.4V213l-.09-.58-.23-.51.06-.3,0-.32-.51-.32-.55-.12-.44-.23-.16-.12-.49-.46-.35-.58,0-.44a.14.14,0,0,1,0-.18,3.4,3.4,0,0,0,.17-.4s.16-.34.25-.34a1.23,1.23,0,0,0,.42-.07.8.8,0,0,0,.34-.19l.26-.37v-.62c0-.14-.09-.42-.07-.53a2.5,2.5,0,0,1,.11-.35.17.17,0,0,1,.17-.21,1.81,1.81,0,0,0,.39-.09l.07-.25s-.09-.51.07-.63a1.57,1.57,0,0,0,.32-.35l.16-.39a2.75,2.75,0,0,1,.33-.28,2,2,0,0,0,.28-.16l0-.65a1.28,1.28,0,0,0-.23-.46l-.37-.25-.69-.23-.35-.42a.45.45,0,0,1-.12-.37,2.77,2.77,0,0,1,.07-.39l.49-.14s.32,0,0-.21a2,2,0,0,0-.44-.28l-.37-.27-.41-.35-.47-.16-.64-.26-.23-.07-.24-.3-.55-.16-.35-.25-.14-.3a3.16,3.16,0,0,0-.39-.51c-.07,0-.39-.28-.46-.16s0,.16-.3.18a2,2,0,0,1-.4,0l-.32-.28V197l-.07-.63-.18-.25-.49-.12-.55-.43-.17-.24s-.5-.23-.5-.41v-.35l0-.11a2,2,0,0,0,.3-.3c.07-.12.23-.47.23-.47l.05-.48-.19-.42-.28-.55-.37-.44-.85-.58-.51-.39-.12-.24-.16-.27.16-.72s0-.23.12-.28l.32-.11.1-.21-.1-.3-.18-.58,0-.14.44-.18H192l.27-.21.46.07.44.21s-.25.09-.27.23a.8.8,0,0,1-.1.3,1.74,1.74,0,0,0-.09.3s.05,0,0,.21a.31.31,0,0,0,.28.39h.69a1.69,1.69,0,0,1,.26,0c.09,0,.48.12.48.23s-.34.23-.34.23l-.17.4.61.25,0,.14c0,.07.23.14.23.21v.07l-.21.21,0,.23,0,.23,0,.14V192l.16.09,0,.28,0,.2s.14.07.14.17v.09l-.09.32s.2.19.27.19h.07l.35,0s.16-.23.23-.23h.07l.25-.19v-.23l.07-.18.14-.14,0-.3.16-.23.11-.1-.2-.3-.07-.11s-.05-.23,0-.3a1.14,1.14,0,0,1,.18-.19l.14-.16.07-.23-.12-.35v-.16l.17-.32.09-.26.34-.2.19-.19.25-.23s.28-.51.33-.58.18-.25.18-.25a1,1,0,0,0,.35-.17c.09-.09.3-.34.3-.34l.3-.33,0-.18.07-.12.23-.11.16-.07.16-.23v-.16l.28-.28,0-.3.09-.3.05-.26.12-.18.18-.19.53-.3.23,0,.28,0a2.92,2.92,0,0,0,.35,0,1.72,1.72,0,0,0,.35-.16l.16-.12.18,0,.26-.19.2-.07.24.14.23.19.27,0,.35,0,.19.21.27.09.12.23.14.21a1.15,1.15,0,0,0,.25.07h.23l0-.28,0-.18.09-.31.26-.27.2,0,.24-.11.13-.19.49-.32.28,0,.14,0s.16.07.18.14,0,.18.19.18,0,.09.18,0A.64.64,0,0,0,208,183l.23-.21s.07-.37.16-.39a.56.56,0,0,1,.26,0s-.05.11.11.25a1.33,1.33,0,0,0,.33.21l0,.3.37.19.32.07.07.11.28.16.16.4s0,.23.28.2l.28,0h.37l.18-.11.28-.1.44-.09v-.14l.25-.21.3-.25s0-.14.07-.16.37.23.28-.14l-.09-.37a.42.42,0,0,1,0-.28,1.88,1.88,0,0,0,.09-.28l.05-.37.05-.23.07-.25.25-.32h.39l.37.16a2.51,2.51,0,0,0,.26-.33l.11-.23.23-.07.31,0,.48-.09.35,0,.25.12.3.11.4-.11.18,0,.37-.21,0-.32.14-.23a2.08,2.08,0,0,0,.26-.46,3.34,3.34,0,0,0,0-.37v-.26s.12-.39.16-.48a1.1,1.1,0,0,1,.19-.23s.18-.37.3-.42l.11,0H219l.26-.07.11.1a.72.72,0,0,0,.35-.05,4.53,4.53,0,0,1,.39-.23,2.57,2.57,0,0,0,.19-.21,2.39,2.39,0,0,1,.21-.25,1.63,1.63,0,0,1,.23-.35l.23-.23.32-.39s0-.12.16-.17l.35-.07.14.24.18.39.21.07.21.23.67.16.12.3.3.07.32-.14s-.07.12.12-.14a5.92,5.92,0,0,0,.32-.5s0,0,.23-.12a.47.47,0,0,0,.26-.21s.37-.9.37-1a2.35,2.35,0,0,1,0-.4,4.35,4.35,0,0,0,0-.57,3.85,3.85,0,0,0,.2-.33c0-.09,0-.41.1-.48l.25-.19.25-.18.31,0,.69,0,.28-.21.34-.16.49-.12a.46.46,0,0,0,.23.1,3.33,3.33,0,0,0,.35,0s.07-.14.16,0a.6.6,0,0,0,.25.16l.49-.05.32-.14a.9.9,0,0,1,.42-.07,3.68,3.68,0,0,0,.6,0l.21,0,.34,0,.31,0s0,0,.23,0,.46,0,.46,0l.37-.05a1,1,0,0,0,.3-.16c0-.07.18-.3.18-.3s0-.32.19-.39.21-.4.21-.4a1.92,1.92,0,0,1,.16-.55,4.82,4.82,0,0,1,.35-.37,1.41,1.41,0,0,0,.34-.07c.12,0,.28-.16.37-.19a1.89,1.89,0,0,0,.4-.16c.18-.09.5-.28.5-.28l.42,0a1.65,1.65,0,0,0,.49,0h.34s.42.11.58,0,.63-.4.63-.4.15-.16.24-.16.16.15.25,0a2.09,2.09,0,0,1,.62-.49,1.79,1.79,0,0,1,.4-.09,3,3,0,0,0,.43-.13,1.12,1.12,0,0,0,.52-.21c.22-.16.22-.28.53-.31s0,.22.3,0a4,4,0,0,0,.5-.59c.09-.09.15-.31.34-.37s.21-.21.46-.21a6.92,6.92,0,0,1,.92.15s.56.09.74,0,.65-.37.74-.55a1.92,1.92,0,0,0,.16-.41c0-.09.21-.24.24-.37s.13-.18,0-.37-.37-.49-.37-.49a.51.51,0,0,0,0-.18c0-.1-.53-.31-.53-.31a.6.6,0,0,0-.18-.16.69.69,0,0,1-.31-.15,2.07,2.07,0,0,0-.46-.31,2.94,2.94,0,0,0-.31-.12c-.22-.06,0,.06-.22-.06l-.49-.37a.23.23,0,0,1,0-.16,2.56,2.56,0,0,0,.06-.31l.09-.18s-.24-.25-.15-.34l.43-.46a.58.58,0,0,0,.19-.16c.06-.09.06-.18.24-.27a2.25,2.25,0,0,1,.43-.16.79.79,0,0,1,.28,0c.12,0,.25,0,.34,0l.4.16.31.18.15.16.13.27s.27.1.34.22.3.12.3.12l.31-.21v-.43l.31-.25s0-.12.22-.16.52,0,.55.07.16.12.22.21a.4.4,0,0,0,.31.13c.09,0-.07-.22.09,0a.57.57,0,0,0,.37.27l.65.28h.12c.09,0-.09-.09.09,0a2.76,2.76,0,0,0,.56.15s-.19,0,0,.1l.4.12v.15a.57.57,0,0,1,.15.19,1.86,1.86,0,0,0,.28.34l-.16.25s0,.24-.09.3-.34.13-.37.22a1.34,1.34,0,0,0-.12.37c0,.12-.16.12-.16.25a2,2,0,0,0,.07.37s0,.18.06.18l.37,0s.06.25.24.25a1.26,1.26,0,0,0,.47-.13l.09,0,.4-.12s-.09.06,0,.15,0,.41,0,.41.24.27,0,.33l-.19.07-.1.3a3.77,3.77,0,0,1,0,.53,1.64,1.64,0,0,0,.13.62l.21.21v.34l.37.15.56,0,.18.22.43.22.31.06v.24l.28.13a1,1,0,0,0,.34.06s.22,0,.34,0,.74.24.83.18.46-.24.46-.24.07-.16,0-.25,0-.43,0-.43l.13-.31v-.56l.15-.3v-.84l.19-.21a1.3,1.3,0,0,1,.21-.31c.13-.12.16-.28.28-.37s.06-.09.28-.28a2.73,2.73,0,0,0,.4-.46s0-.09.15-.28.34-.4.4-.49-.18-.15,0-.25.5-.27.5-.4-.13-.49,0-.58a4,4,0,0,0,.34-.53,1.87,1.87,0,0,0,.18-.65c0-.09-.21-.15,0-.24s.22-.28.28-.43-.12-.62,0-.71a1,1,0,0,0,.21-.28,1.43,1.43,0,0,0,.22-.4c0-.16-.09-.34,0-.46s-.08-.28,0-.37a2.52,2.52,0,0,0,.17-.44.63.63,0,0,0,0-.37l.16-.4.18-.8a.88.88,0,0,0,.22-.37c.06-.21-.15-.34,0-.46a.48.48,0,0,0,.15-.4v-.28a2.67,2.67,0,0,0,0-.49,2.22,2.22,0,0,1,0-.53l.2-.58s.15,0,.28-.28.27-.62.27-.62a1.55,1.55,0,0,0,0-.46,2.61,2.61,0,0,1,0-.8c.05-.12-.29-.46-.29-.55a2.78,2.78,0,0,0-.19-.44c0-.09-.06-.49-.21-.61a4,4,0,0,1-.56-.4,2.06,2.06,0,0,1-.34-.53A2.45,2.45,0,0,0,260,148s0-.28,0-.37-.07-.31-.07-.4-.06-.46-.06-.46.06-.47.06-.56,0-.52,0-.68.07-.55.07-.64a2.28,2.28,0,0,0-.19-.53c-.06-.12-.31-.37-.31-.61v-.25s-.89-.59-1-.62a3,3,0,0,1-.4-.06c-.19-.06-.25,0-.53-.12l-.8-.31-.46-.53-.68-.18a.48.48,0,0,1-.4-.09l-.46-.34-.28-.4a2,2,0,0,1-.43-.28c-.07-.09-.47-.49-.47-.59a2.33,2.33,0,0,1,0-.27,1.42,1.42,0,0,1,.16-.34l.4-.59a.93.93,0,0,0,.22-.09c.09-.06.09-.22.15-.31a.79.79,0,0,0,.09-.46c0-.25-.12-.68-.12-.8a3.34,3.34,0,0,0-.09-.43c0-.19,0,0,0-.19a1.74,1.74,0,0,0-.16-.68c-.09-.18-.31-.55-.31-.55a.39.39,0,0,1,0-.16.56.56,0,0,0-.21-.31,1.62,1.62,0,0,1-.37-.37,2.68,2.68,0,0,1-.37-.58c0-.09.21-.09,0-.31l-.41-.37v-.74l0-.58-.43-.74a.22.22,0,0,1-.18-.1c-.06-.09-.53-.52-.53-.52a2.33,2.33,0,0,1-.3-.49,1.12,1.12,0,0,1,.06-.44c.06-.09.09-.37.15-.46s.22-.37.22-.37l.74-1c.06-.09.3-.21.37-.33l.24-.53.06-.12a5.14,5.14,0,0,0,.1-.53c0-.09.15-.27.21-.43s.22-.55.25-.68,0-.49.06-.61-.09-.46,0-.65a2.41,2.41,0,0,0,.16-.74,4,4,0,0,1,.15-.46c.06-.13.12-.56.19-.65s.06-.15.18-.34.22-.21.28-.52a5.78,5.78,0,0,0,.06-.84,2,2,0,0,1-.09-.37.76.76,0,0,0-.06-.43l-.41-.52-.27-.28-.25,0-.28-.43a1.68,1.68,0,0,1-.21-.46,4.52,4.52,0,0,1,0-.59c0-.21-.13-.34,0-.52s.28-.19.28-.4-.13-.68-.13-.77a1.27,1.27,0,0,1,.06-.47c.07-.09.13-.06.13-.24s-.06-.31,0-.4.21-.19.21-.44.13-.34-.09-.55-.77-.74-.77-.74.09-.12-.22-.16a4.52,4.52,0,0,1-.7-.12c-.1,0-.53-.21-.56-.31s-.34-.34-.34-.43-.24-.37-.28-.46-.18-.68-.18-.68l-.34-.8v-.15a4.88,4.88,0,0,0-.18-.74c-.07-.19-.19-.31-.19-.53a3.88,3.88,0,0,0-.06-.68,4.36,4.36,0,0,1-.19-.58,2.91,2.91,0,0,1,.13-.47.42.42,0,0,1,.12-.3,1.6,1.6,0,0,0,.31-.47c.06-.12.21-.58.31-.64s.46-.16.58-.37.16-.37.25-.5a2.61,2.61,0,0,1,.34-.46c.12-.09.31,0,.31-.46s.18-.68,0-.83-.37-.31-.37-.4.12-.62.12-.62a5.79,5.79,0,0,0,.25-.59c0-.12.27-.8.27-.8a.74.74,0,0,0,0-.34.77.77,0,0,0-.21-.34,3,3,0,0,1-.56-.37c-.06-.09-.4-.43-.49-.55s-.06-.13-.31-.22a4.72,4.72,0,0,1-.71-.4l-.34-.43-.24-.09a4.23,4.23,0,0,1-.74-.37l-.31-.43a5.28,5.28,0,0,0-.87-.5s-.4-.31-.4-.46a1,1,0,0,0-.27-.52,4.18,4.18,0,0,1-.37-.37l-.1-.4a2,2,0,0,0-.12-.22,3,3,0,0,0-.43-.59l-.46-.24-.65-.47a7.34,7.34,0,0,1-.59-.52,2.94,2.94,0,0,0-.49-.34.21.21,0,0,1-.22-.21c0-.22,0-.37-.09-.47s-.4-.09-.43-.21-.25-.28-.25-.37,0-.1-.16-.16a1.79,1.79,0,0,0-.52-.06,3.94,3.94,0,0,1-.77-.06c-.21-.06-.61-.22-.71-.25s-.33,0-.33-.24a4.9,4.9,0,0,0-.07-.62.27.27,0,0,1,0-.34,5.08,5.08,0,0,0,.41-.62s.24.22.18-.27a4.7,4.7,0,0,0-.25-1,1.63,1.63,0,0,0,.07-.31v-1.6s-.1-.22,0-.28a1.07,1.07,0,0,0,.27-.28,7.41,7.41,0,0,0,.77-.49c.13-.12.62-.4.65-.49a.91.91,0,0,1,.24-.37,4.1,4.1,0,0,0,.63-.31,1.42,1.42,0,0,1,.37-.43c.15-.1.67-.31.7-.4s-.12-.25.1-.4a1.67,1.67,0,0,1,.21-.16,4.13,4.13,0,0,0,.5-.43,2.27,2.27,0,0,0,.24-.4c.13-.25.19-.4.19-.4a3.41,3.41,0,0,1,.27-.37c.1-.09.1-.09.16-.37s.06-.43.09-.53.09-.15.06-.27.47-.68.47-.68l-.1-.53a.84.84,0,0,0-.12-.43c-.15-.31-.19-.55-.31-.74s-.4-.34-.28-.55.13-.46.25-.59.14-.23.34-.37.09-.18.4-.37a1.65,1.65,0,0,0,.56-.61c.06-.13.06-.44.18-.47s.34-.15.37-.24a3.28,3.28,0,0,0,0-.59s0-.46-.12-.55-.37-.22-.37-.31a3.83,3.83,0,0,0-.1-.59c0-.09-.21-.46-.21-.46l.15-1a1.11,1.11,0,0,1-.15-.34c0-.09-.19-.4-.19-.49a2.4,2.4,0,0,0,0-.55,3.74,3.74,0,0,0-.18-.62c-.06-.25-.46-.74-.46-1a8.82,8.82,0,0,1-.07-.92,1.64,1.64,0,0,0-.09-.84c-.09-.12-.46-.33-.37-.55s.25-.15.13-.52-.31-.71-.34-.81a3.92,3.92,0,0,0-.4-.49l-.19-.28-.06-.24,0-.25-.34-.62a3.26,3.26,0,0,0,.12-.34,4.07,4.07,0,0,0,.16-.67,7.19,7.19,0,0,0,.09-.81s0,0,0-.12.06-.49.06-.49.31,0,.06-.28a4.22,4.22,0,0,0-.52-.55.68.68,0,0,1-.06-.22,2.34,2.34,0,0,0-.09-.77c-.1-.12-.34-.49-.34-.49l.06-.78.12-.21-.31-.25-.27,0-.19-.06a2.69,2.69,0,0,1-.37,0l-.77-.12s-.22-.1-.22-.19-.15.12,0-.09.13-.28.31-.37-.05,0,.19-.09l.52-.22s.16.09.13-.31a1.41,1.41,0,0,0-.28-.69c-.19,0,.05-.39-.35,0l-.39.34-.28.22-.46.18-.4,0a.55.55,0,0,1-.22,0c-.15,0-.12,0-.46-.12a5,5,0,0,0-.9-.25l-.3-.06-.37-.43-.44-.18-.49-.1-.25-.09-.52-.22-.49-.24-.22-.19-.31-.27-.34-.16s0,0-.06-.12a4.15,4.15,0,0,0-.52-.46l-.34-.22-.28-.19-.46-.21s0,.06-.12-.12a4,4,0,0,0-.34-.41l-.28-.18s-.43-.09-.43-.19.06.07,0-.09a3.15,3.15,0,0,0-.34-.49l-.09-.31s-.13,0,0-.18a4.26,4.26,0,0,0,.18-.56c0-.09-.06-.09.12-.21s.25-.13.34-.25.19-.28.28-.37.59-.46.59-.46l.12-.19a2.53,2.53,0,0,0,.22-.25.88.88,0,0,0,.09-.27l0-.53a.66.66,0,0,1-.19-.09l-.15-.09a4.48,4.48,0,0,0-.25-.43,1.38,1.38,0,0,0-.4-.28s0,0-.12-.16-.19-.18-.25-.3a1.29,1.29,0,0,0-.28-.31l-.31-.31s-.12-.28-.21-.31l-.46-.15s-.31-.22-.34-.31.15-.12-.25-.43-.89-.65-.89-.65.18-.43.27-.43.25-.13.34-.13.28-.06.31-.15a.84.84,0,0,0,.12-.37v-.18a.6.6,0,0,1,0-.4l.21-.44s0-.3,0-.4.19-.12,0-.43l-.31-.55-.34-.44-.18-.21a.49.49,0,0,0-.28-.16,1.19,1.19,0,0,1-.34-.12h-.52l-.28-.4h-.12l-.28-.18h-.28a1.64,1.64,0,0,0-.28.37c-.06.15-.15.18-.21.27s-.46.22-.46.22H227l-.68,0a2,2,0,0,1-.74.37l-.31,0-.64,0-.13,0a1,1,0,0,0-.09.28v.37a1.41,1.41,0,0,0,.12.34l.1.21a.82.82,0,0,1,0,.28l-.07.15a.85.85,0,0,1-.27.1,4.06,4.06,0,0,1-.56-.16l-.31-.8s-.55-.4-.55-.49-.09-.22-.09-.37a1.3,1.3,0,0,0-.19-.46l-.28,0a.89.89,0,0,1-.43-.15c-.12-.12.12.15-.12-.12s-.4-.43-.4-.43-.19,0,0-.19a.68.68,0,0,0,.24-.37.2.2,0,0,0-.12-.12,1,1,0,0,0-.31,0,.4.4,0,0,0-.43,0,4.58,4.58,0,0,0-.4.26l-.34.19-.15,0s-.09-.45-.09-.47a.38.38,0,0,1,.06-.3,1.22,1.22,0,0,0,.12-.53c0-.09,0,0-.12-.21s-.22-.25-.22-.37a5.26,5.26,0,0,0-.12-.62l-.31-.31-.31-.31-.34-.24h-.89l-.56-.19-.18-.21-.16-.19-.58-.18h-.56l-.24-.19-.16-.31-.34-.27-.09-.16a.87.87,0,0,1-.06-.24v-.53a.57.57,0,0,0-.16-.34.89.89,0,0,1-.21-.31s-.19-.15-.19-.24a1.22,1.22,0,0,0-.06-.28l.16-1s0-.3,0-.4a.48.48,0,0,0-.13-.27,3.53,3.53,0,0,0-.49-.41,1.76,1.76,0,0,1-.28-.33.59.59,0,0,1-.12-.28c0-.19-.06-.53-.06-.53l0-.21v-.53l-.25-.15-.21-.43-.59.28-.31.21a4.62,4.62,0,0,1-.52.12c-.1,0-.68.07-.68.07l-.19.34a2.77,2.77,0,0,1-.27.24.58.58,0,0,0-.16.43c0,.16-.18.31-.21.44s-.44.46-.44.46,0,.37-.09.43-.4.37-.52.43a4.92,4.92,0,0,1-.87.06h-.33a4.09,4.09,0,0,1-.22-.61,1.1,1.1,0,0,0-.19-.4l-.37.18s-.15.22-.27.22-.68.06-.68.06l-.25-.09-.12-.31a1.58,1.58,0,0,0-.4-.22,1,1,0,0,0-.28.09l-.25.4-.24-.09v-.4s0-.21-.13-.25-.33.22-.33.22l-.37.25s-.07.27-.16.31a2,2,0,0,1-.37,0l-.52.34L202,28s-.28-.09-.31,0a1.78,1.78,0,0,1-.16.28,3.2,3.2,0,0,0-.21.28,1.4,1.4,0,0,0-.09.4l-.9.21h-.58s-.07,0-.1.19-.09.52-.09.52a.22.22,0,0,1-.18.28,5.65,5.65,0,0,1-.71.09l-.4.25-.13.58a1,1,0,0,0-.06.25,2.21,2.21,0,0,0,.09.37l.1.19a.2.2,0,0,1,.12.12c0,.09.09.22-.25.22a2.34,2.34,0,0,1-.8-.22l0-.34a.73.73,0,0,1-.09-.34c0-.18.09-.21-.12-.4a1.74,1.74,0,0,1-.31-.31l-.16-.21-.4.15-.43.43-.18.22-.19.18-.71.28a.42.42,0,0,1-.15.09l-.53.13s0,.06-.09.12a3.42,3.42,0,0,1-.43.18l-.31.31-.15.31-.47.37-.24.22-.37.24-.25.34-.18.4s-.1.16-.16.28-.15.15-.15.25-.06.46-.06.46a1,1,0,0,1,.15.25l.09.24-.15.34-.28.19h-.15l-.16-.06-.12-.13-.22-.49a3.85,3.85,0,0,0-1-.31l-.65,0-.86.09-.22.19-.34.18a.62.62,0,0,0-.46,0c-.19.13-.52,0-.52,0l-.53.19-.46.15-.62.19h-.65l-.49.15-.58,0-.62-.09-.52-.06-1-.13-.52.19-.31.37-.19.37a2.21,2.21,0,0,0-.09.37c0,.09-.25.31-.25.31l-.24.21-.19.22,0,.4V39c0,.15-.12.46-.12.55s0,.19-.06.22-.56.09-.56.09a.57.57,0,0,0-.12.25c0,.09-.09.7-.09.7l-.59.34-.18.31a1.21,1.21,0,0,1-.31.34,2.28,2.28,0,0,0-.37.31s0,.09-.13.22-.3.27-.3.27-.44.28-.47.43,0,.41-.06.56a6,6,0,0,0-.15.65,2.8,2.8,0,0,1-.1.46l0,.46,0,.59-.24.24a.9.9,0,0,0-.28.19,1.19,1.19,0,0,1-.43.28c-.16.06-.87-.1-.87-.19s-.15-.28-.18-.37a2.32,2.32,0,0,0-.28-.37.56.56,0,0,0-.34-.18c-.21,0-.49-.1-.49-.1l-.22-.3-.43-.07-.37.1s0,.31-.21.34l-.37,0a4.46,4.46,0,0,1-.68-.31s-.31-.16-.31-.25v-.34a3,3,0,0,0-.4-.92,5.14,5.14,0,0,0-.65-.5v-.15l-.31-.68-.37-.18-.34-.06-.58.21-.53.22a8.27,8.27,0,0,1-1.14.06h-.3a.93.93,0,0,0-.47.09c-.12.09-.49.31-.49.31l-.4.09-.28.13a1,1,0,0,1-.28.3,1.26,1.26,0,0,0-.4.28.8.8,0,0,1-.49.25l-.46.12a2,2,0,0,1-.37,0l-.37-.06-.31-.49a2.55,2.55,0,0,0-.37-.25c-.09,0-.46-.09-.46-.09l-.37-.16a.41.41,0,0,0-.37-.21H159l-.34-.25-.59-.46a.13.13,0,0,1-.06-.12c0-.1-.37-.74-.31-.87l.07-.12a.89.89,0,0,1,.18-.28,1.91,1.91,0,0,0,.25-.37.82.82,0,0,1,.24-.28c.16-.09.25-.46.34-.52l.1-.06a3.76,3.76,0,0,1,.52-.49,1.62,1.62,0,0,1,.34-.19.69.69,0,0,0,.28.19.9.9,0,0,0,.34.09.35.35,0,0,0,.4-.09c.15-.16,0,.09.15-.16a2.42,2.42,0,0,1,.37-.62c.19-.15.19-.24.34-.3l.15-.07.56-.89.12-.15s-.15.12.16-.1a5.68,5.68,0,0,0,.49-.37c.12-.09.18,0,.37-.12s-.06.06.18-.09.25,0,.5-.31l.24-.28a1,1,0,0,0,.41-.24c.24-.22.4-.37.49-.47a2.55,2.55,0,0,1,.31-.34,3.52,3.52,0,0,1,.4-.27.47.47,0,0,0,.12-.37c0-.1-.06-.13-.09-.34a1.14,1.14,0,0,1,0-.43c0-.13-.19-.37-.19-.47s-.12-.27,0-.49.25-.31.16-.49-.19-.13-.16-.37,0-.59.06-.84a3.62,3.62,0,0,0,0-.61c0-.16.09-.22-.07-.43s-.34-.28-.34-.4,0-.44,0-.44-.18-.34-.3-.4-.16-.15-.28-.21l-.83-.34-.65-.09-.43-.19-.62-.12s-.06-.16-.31.06a6.88,6.88,0,0,0-.68.77l-.37.28-.49.27-.22.25L160,29l-.28.37-.34.4a1.59,1.59,0,0,1-.25.15l-.43.22-.52.12-.43.06-.31.13a2,2,0,0,1-.37-.1c-.19-.06-.83-.18-.83-.18L156,30l-.09-.3-.47-.71s-.12.06-.4-.31l-.28-.37-.4-.31-.43-.25-.46-.21a3.26,3.26,0,0,0-.43-.31,6.7,6.7,0,0,0-.74-.19,5.49,5.49,0,0,1-.62-.18,2.94,2.94,0,0,1-.65-.34,2.94,2.94,0,0,0-.49-.37l-.77-.31-.31-.21a1.41,1.41,0,0,0-.24-.13l-.84-.24a6.08,6.08,0,0,0-.71-.16,5.17,5.17,0,0,1-.64-.15l-.25.34s-.09.3-.19.34-.24,0-.43,0l-.55.18s-.28.06-.34.16-.31.09-.31.24-.22.77-.22.87-.06.3-.06.43.13,0,0,.12a.7.7,0,0,0-.09.43.18.18,0,0,1-.06.22l-.12.09a1.85,1.85,0,0,0-.16.34c0,.12-.15.15-.25.18l-.46.16-.27,0a2.39,2.39,0,0,1-.19-.25,1.89,1.89,0,0,1-.25-.49c0-.09-.06-.43.07-.56a.91.91,0,0,0,.18-.27s-.25-.1.12-.31a.94.94,0,0,0,.4-.34c.1-.09,0,0,.1-.34l.09-.31.18-.58s-.06,0-.12-.28-.18-.31,0-.43a.32.32,0,0,0,.15-.34,2.65,2.65,0,0,0-.06-.46.78.78,0,0,1-.09-.34c0-.19.06-.34-.06-.43s-.4-.37-.4-.37a2.22,2.22,0,0,0-.53-.31,4.85,4.85,0,0,0-.67,0l-.34.12L141,23l-.46.21a3.38,3.38,0,0,0-.74,0,1.21,1.21,0,0,0-.43.16,1.7,1.7,0,0,1-.59.3l-.61.16-.5.15-.67.13h-.41l-.33-.4,0-.41a.38.38,0,0,1,.12-.21,1.36,1.36,0,0,1,.34-.16l.46-.15c.34-.12.22.13.49-.14s.31-.38.47-.41a1.94,1.94,0,0,0,.43-.22l.21-.12a2.47,2.47,0,0,1,.34-.25l.13-.06.37-.4s.06.46.09-.16,0-.8,0-.8-.06,0,.06-.12a1.64,1.64,0,0,0,.25-.43s0-.34,0-.47v-.3c0-.13-.09-.13,0-.41a2,2,0,0,0,0-.83.71.71,0,0,1-.06-.24.41.41,0,0,1,.09-.34,1.47,1.47,0,0,0,.12-.62l-.21-.37a.35.35,0,0,1,0-.22,2.27,2.27,0,0,0-.16-.58,4.57,4.57,0,0,0-.52-.4l-.37-.13h-.31l-.12.56s.06,1,.06,1.05,0,.4,0,.4-.22.46-.31.49-.62.09-.62.09,0,.07-.12.25a6.82,6.82,0,0,1-.62.52,2.45,2.45,0,0,1-.43.28l-.28.25-.43.28a2.64,2.64,0,0,1-.31.27c-.09.07-.37.1-.49.19a2.53,2.53,0,0,0-.49.49.64.64,0,0,1-.25.28,4.75,4.75,0,0,0-.62.46c-.06.13-.27.53-.27.53a1,1,0,0,0-.16.34,2.7,2.7,0,0,0,0,.46c0,.09-.28.37-.28.37a1.13,1.13,0,0,1-.24.15,2.92,2.92,0,0,1-.56,0l-.46-.34-.31-.18-.83-.1s-.06-.09-.12,0-.41.21-.41.21l-.15.4s.06.09-.15.16-.34.15-.5.06a2.62,2.62,0,0,1-.4-.37l0-.16-.27-.34-.34-.21.12-.22a.92.92,0,0,1,.15-.21c.1-.1.16-.25.4-.25H129c.37,0,.4,0,.56-.09s.3-.31.4-.37.12-.28.27-.28h.16s.25.19.37.31a.53.53,0,0,0,.31.18,1.62,1.62,0,0,0,.24,0c.22,0-.06,0,.22,0a1,1,0,0,0,.46-.1l.62-.4s-.12.09.15,0,.34-.12.37-.21-.12-.31.06-.5a4.57,4.57,0,0,0,.62-.74l.06-.12s-.18-.25.16-.37,0,0,.52-.19a4.89,4.89,0,0,1,.56-.18,1.38,1.38,0,0,0,.64-.34,2.17,2.17,0,0,0,.4-.37c.1-.12.1-.21.25-.31s.22-.21.4-.27.28-.22.46-.34,0,.12.19-.13a1.25,1.25,0,0,0,.28-.68c0-.09-.22.59.06-.27l.28-.87,0-.24s-.27.18.16,0a2.07,2.07,0,0,0,.58-.34l.41-.43a2.08,2.08,0,0,1,0-.37,2.41,2.41,0,0,0,0-.71c-.06-.16-.3-.19-.3-.34s-.07-.46-.07-.59a1.84,1.84,0,0,0-.12-.52c-.06-.16-.31-.71-.31-.71l-.24-.28-.34-.21-.4.64a5.43,5.43,0,0,1-.07.71c0,.09-.27.25-.27.25a1.49,1.49,0,0,1-.5.15,2.9,2.9,0,0,1-.64,0l-.9-.4a3.84,3.84,0,0,0-.15-.62c-.06-.09-.68-.7-.68-.7l-.4-.16a3.36,3.36,0,0,0-.56-.21,2,2,0,0,1-.43-.19l-.89-.34-.28-.15-.74-.37-.34-.31a1.71,1.71,0,0,0-.68-.37c-.12,0-.3,0-.34-.15s-.06-.41-.06-.41H129l-.4.53a6.21,6.21,0,0,0-.59.4,2.48,2.48,0,0,1-.64.31c-.1,0-.47.28-.47.37s.1.12-.27.37a1.85,1.85,0,0,1-.59.28s-.55-.31-.55-.47a2.46,2.46,0,0,0-.07-.43l-.49-.21s-.31.15-.34.24a2.06,2.06,0,0,1-.65.5A6.17,6.17,0,0,1,123,9l-.71.12s-.4-.43-.4-.52a5.58,5.58,0,0,0-.37-.62c-.06-.12-.53-.46-.59-.55a3.07,3.07,0,0,0-.55-.34l-.49-.34-.41-.31-.61-.15a3.47,3.47,0,0,0-.87-.13,2.08,2.08,0,0,1-.64.25h-.13s-.83-.09-.92-.26a5.59,5.59,0,0,0-.49-.54,2.63,2.63,0,0,0-.56-.28h-.71l-.86-.15-1.2-.28-.62-.19a1.07,1.07,0,0,1-.4.22,3.79,3.79,0,0,1-.9-.22h-.61l-.34.13s-.56.31-.65.34a6.65,6.65,0,0,1-.77.06c-.09,0-1-.31-1-.31s0-.06-.18-.06a4.56,4.56,0,0,0-.68.15l-.37.31-.31.4.25.4a2.1,2.1,0,0,0,0,.62c.06.12,0,.15.12.4a2.35,2.35,0,0,1,.09.56,1.2,1.2,0,0,0,.25.58,2.27,2.27,0,0,1,.31.31,3.12,3.12,0,0,0,.43.46,3.21,3.21,0,0,1,.43.34,1.45,1.45,0,0,1,.31.37c0,.09.25.22.25.31a1.35,1.35,0,0,0,.12.52,1.1,1.1,0,0,0,.28.47l.25.37.06.46v.55l.24.28.37.12.28.47.16.49.06.62.31.15.24.19.46.37.41.18.15.37s.15,0,.15.15.07.22.07.34,0,.16,0,.44a2.18,2.18,0,0,0,.31.77h.53s.12-.25.27,0a.7.7,0,0,1,.16.49c0,.12,0,.58,0,.58l-.09.22-.1.12s-.06-.37-.12.13a6.56,6.56,0,0,0-.06.67l.12.28.22.19.09.34a.62.62,0,0,1,0,.4s-.4.27-.43.37a3,3,0,0,1-.22.37,1.39,1.39,0,0,1-.25.31,1.34,1.34,0,0,1-.43.33c-.09,0-.49-.06-.52.07s-.28.4-.28.61.59.62.59.62-.13,0,.18.12a1.57,1.57,0,0,0,.62.13,1.08,1.08,0,0,0,.43,0s-.15-.31.06-.41.28,0,.37-.12.25-.28.25-.28l.18-.09a.19.19,0,0,1,.16-.18c.15,0,.21-.1.4-.16a.36.36,0,0,0,.21-.28l0-.33v-.41l0-.27.06-.34.27-.25.13-.12.28.09s-.19-.22.15.25a4.74,4.74,0,0,1,.34.46c.09.15,0,.25.15.43s.16,0,.19.19a2.34,2.34,0,0,1,0,.37v.3l.25.19.09.37-.13.22-.43.18-.24.34s-.22-.09-.56.18a.28.28,0,0,1-.49-.09s-.28.53-.31.62a2,2,0,0,1-.19.43,3.49,3.49,0,0,0-.18.4l-.25.31a.94.94,0,0,0-.18.34c0,.15-.49.12-.59.15a3.49,3.49,0,0,1-.61.06c-.16,0-.13,0-.59.07a2.08,2.08,0,0,1-.8-.1s.18-.18,0-.18a2.82,2.82,0,0,0-.56,0c-.09,0-.49.28-.58.31a1.79,1.79,0,0,1-.56,0,4.31,4.31,0,0,1-.74-.06,1.14,1.14,0,0,0-.43,0c-.09.06.09,0-.43.21s-.43.56-.43.56l.37,0,.58.09.16.34-.16.31s.19.12-.06.18a4,4,0,0,1-.46.1l-.25.06-.24.24a.61.61,0,0,1-.16.22c-.09.06.12,0-.09.06a.61.61,0,0,1-.43,0l-.06-.18-.07-.22a.31.31,0,0,0-.18-.09c-.09,0-.28-.06-.28.09v.16a.5.5,0,0,1-.09.27l-.25.19,0,.31.34.12h.34s.28-.06.34.12.15.13.15.34a2.21,2.21,0,0,0,.06.46,1.33,1.33,0,0,0,.31.22.65.65,0,0,1,.28.31l.43.55s0,.1.28.07.43-.34.49-.44.22-.27.22-.27l.65-.07h.27l.65.13.53-.22.15-.24.37-.1.46.16.28.18.86,0,.19-.09a3.08,3.08,0,0,1,.68-.59l.49-.27s.21-.16.25,0a1,1,0,0,1-.1.43,5,5,0,0,0-.15.65,1.07,1.07,0,0,1-.16.55,3.12,3.12,0,0,1-.33.25l-.13.28-1,.15-.59.22-.15.15a3.77,3.77,0,0,0-.13.55c0,.13,0,.4,0,.56s.1.37,0,.52-.34.16-.37.25-.27.37-.27.49,0,.53,0,.53.1.74.13.83l.09.25.34.3.34.28.09.25.53,0,.33-.31.59-.15.12.55.31.06C114,37.46,114,37.86,114,37.86Z"/>
        <path   class="cls-11 aaa" d="M106.81,20.25v.31h-.74l-.15.19a.72.72,0,0,1,0,.37.53.53,0,0,0,0,.43c.06.15,0,.24.22.4a1.06,1.06,0,0,0,.67.15h.25a2,2,0,0,0,.62-.37c.09-.15,0-.28.15-.4a1.24,1.24,0,0,0,.28-.4c.09-.18-.12-.34,0-.43s0-.25,0-.25h-1.32Z"/>
        <path   class="cls-11 aaa" d="M102.87,24.2h-.13v-.37l-.43-.43a.52.52,0,0,0-.18.4,2.92,2.92,0,0,0,.21.65c.07.12.09.18.16.3a.62.62,0,0,0,.37.34c.15,0,.34-.31.34-.31v-.37C103.21,24.29,102.87,24.2,102.87,24.2Z"/>
        <path   class="cls-11 aaa" d="M102.5,11.53h-.38a.91.91,0,0,0-.49.18l-.12.16-.25.18-.15.46s-.34.16,0,.5l.34.34.67.27.38.19.46.25s-.31.12.25.15a8.79,8.79,0,0,0,1,0s0,.09.19,0l.55-.16a1,1,0,0,1,0-.44,1.18,1.18,0,0,1,.22-.27c.09-.1,0-.28,0-.28s0-.31,0-.46-.08-.31,0-.4,0-.5,0-.5,0-.09-.19-.31a2.39,2.39,0,0,0-.74-.37s-.56,0-.62.13a5.72,5.72,0,0,1-.43.43s.23.12-.12.06l-.35-.06Z"/>
        <path   class="cls-11 aaa" d="M99.57,15.35v-.22l-.46-.58v-.3l-.31-.19s-.13.58-.13.64-.09.34,0,.43a1.42,1.42,0,0,1,.19.44l.24.46s.13.25.25.46.1.19.22.37.21.34.31.37.06,0,.37,0,.37-.09.37-.18.09-.16,0-.37-.25-.31-.28-.4,0-.13-.22-.34a1.31,1.31,0,0,0-.3-.29Z"/>
        <path   class="cls-11 aaa" d="M101.85,6.9s-.12-.06-.28.1,0,.21-.37.21a2.68,2.68,0,0,1-.92-.32L100,6.44l-.71-.28s-.21-.18-.46.16l-.25.34s.13-.31,0-.4a.89.89,0,0,1-.15-.56c0-.15.13-.25.17-.43a1.17,1.17,0,0,0,0-.4s-.16,0,0-.37.17-.71.35-.87a4.89,4.89,0,0,0,.37-.33s.06,0,.13.15a4.28,4.28,0,0,0,.17,1,2.57,2.57,0,0,1,.23.78,5.42,5.42,0,0,0,.27.54.5.5,0,0,1,.28,0c.09.07.77.44.77.44s-.12.12.22.21a1,1,0,0,1,.43.19Z"/>
        <path   class="cls-11 aaa" d="M166.44,26.82a1.46,1.46,0,0,1-.25.12,1.33,1.33,0,0,0-.37.22c-.09.09,0-.13-.09.09a1,1,0,0,0,0,.46s-.15-.09.12,0a.78.78,0,0,0,.59-.09l.28-.34-.16-.46Z"/>
        <path   class="cls-11 aaa" d="M166.72,25.71s-.37-.31-.37-.43-.06-.37,0-.46-.08-.31-.15-.41-.22-.09-.25-.18a3.11,3.11,0,0,0-.26-.4h-.3l-.18.34a1.85,1.85,0,0,1-.31.28c-.09,0-.28.15-.46,0l-.71-.62a.34.34,0,0,1,.15-.19c.12-.06.19-.21.28-.24a.33.33,0,0,0,.21-.19c0-.09,0-.28.07-.4s0-.49.09-.58,0-.19.18-.25a1.51,1.51,0,0,0,.51-.4.19.19,0,0,1,0-.28c.14-.15.11-.43.29-.49s.19-.06.34,0,.34.31.53.37a1.31,1.31,0,0,0,.55.09.93.93,0,0,1,.59,0,5.43,5.43,0,0,1,1,.25l.25.4a4.53,4.53,0,0,0,.68.4c.09,0,.15-.1.15.12a3.31,3.31,0,0,0,.31.83s.56.4.56.5-.13-.1,0,.24a9.84,9.84,0,0,0,.64,1.17l.22.4s.12.28-.18.31-.59.19-.84,0a6.2,6.2,0,0,0-.95-.46s.18-.4.06-.37a1.12,1.12,0,0,0-.31.19.15.15,0,0,1-.12.18l-.16,0s-.21-.65-.4-.65H168s-.19,0-.22.1-.2.4-.2.4.05-.06-.26.12S167,26,166.72,25.71Z"/>
        <path   class="cls-11 aaa" d="M174.64,42.88h-.31v.46s-.09.13-.43.16a4,4,0,0,1-.65,0v-.62s-.43-.12,0-.15a.74.74,0,0,0,.6-.37l.42-.31a2.65,2.65,0,0,1,.59-.4c.18-.06,0-.09.18-.06s0-.16.19,0a1.14,1.14,0,0,1,.33.49c0,.09-.15.3-.18.41s0,.15-.06.36a1.13,1.13,0,0,1-.34.4Z"/>
        <path   class="cls-11 aaa" d="M199.7,27.07h-.27c-.16,0-.62-.13-.62-.25s-.28-.31,0-.49.12-.1.39-.37.47-.41.5-.53a2.46,2.46,0,0,0,0-.55A4,4,0,0,0,200,24a1.43,1.43,0,0,0,0-.4l.34-.34h.31l.37.68.65.31a1.52,1.52,0,0,0,.55.09,4.08,4.08,0,0,1,.53-.06c.15,0,.06-.06.37,0s.4.13.49.22a1.56,1.56,0,0,0,.56.12s.52-.24.27.09,0,.4,0,.4a5.32,5.32,0,0,0-1.2,0c-.12.1-.49,0-.49,0l-.06.44-.25.21-.43.19-.25.58-.18.1s-.68.12-.77.12a.57.57,0,0,0-.25.12,5.18,5.18,0,0,1-.71.13Z"/>
        <path   class="cls-11 aaa" d="M205.87,24.66l-.43.52s.22-.12.22,0,.8.22.8.22l.67-.22,1,.22v-.62s-.34-.3-.43-.3a2.05,2.05,0,0,0-.43,0c-.13,0-.56-.09-.68,0s-.28-.15-.37,0A.85.85,0,0,1,205.87,24.66Z"/>
        <path   class="cls-11 aaa" d="M209.76,24.66h-.62l-.19.24c.19.16.22.16.4.16h.41Z"/>
        <path   class="cls-11 aaa" d="M216.66,23.3a.86.86,0,0,1-.25.19c-.09,0-.33-.09-.43,0s-.27.1-.24-.09.12-.53.12-.53a2.5,2.5,0,0,1,.34-.24h.31a.45.45,0,0,1,.15.27A1.56,1.56,0,0,1,216.66,23.3Z"/>
        <path   class="cls-11 aaa" d="M217.52,23.74l-.27.12a.9.9,0,0,0-.31.25l-.26.15s-.15.4,0,.4.07.06.51.2l.43.14.46.4a.83.83,0,0,1,0,.28v.46l.21.15a.45.45,0,0,1,.24,0,1.17,1.17,0,0,0,.4,0v.5s0,.28,0,.28-.21.09-.31.12a3,3,0,0,1-.52,0s.06.31-.06.37-.43-.16-.53,0-1,0-1,0l-.28.06h-.62v.42a4.34,4.34,0,0,0,.15.71c.07.09,0,.28,0,.28a2.59,2.59,0,0,1,.47.37,5.33,5.33,0,0,0,.62.49s.47.53.45.53h.29l0,.37h.12l.18.27c.07.1.16.19.22.28s.37.09.4.22-.15-.1,0,.12.25.22.42.22.2,0,.29,0a1.77,1.77,0,0,1,.31.21l.55-.24v-.31s.25.15.25.34-.25.3,0,.34a2.2,2.2,0,0,0,.46,0c.1,0,.22-.37.22-.47s-.43-.49,0-.68,0-.18.62-.24l.61-.06.13-.19.15-.31.68-.68s.15-.4.24-.43.25-.18.34-.18a1.47,1.47,0,0,0,.53-.16c.09-.06,0-.18.31-.18h.43a2.26,2.26,0,0,0,.49-.12,1.25,1.25,0,0,1,.37-.22c.12,0,.12-.15.31-.19a3,3,0,0,0,.46-.14.42.42,0,0,0,.25.27,2.44,2.44,0,0,0,.77-.09s-.19-.18,0-.18,1.14,0,1.14,0-.4.58,0-.13l.4-.71s-.06.15-.25-.09,0-.34-.52-.44a2.92,2.92,0,0,1-1-.24c-.06-.1-.33-.37-.43-.53s-.34-.18-.4-.46a2.9,2.9,0,0,1-.06-.54.34.34,0,0,1-.15-.2,2.84,2.84,0,0,1-.25-.49c0-.09-.09-.62-.09-.62l0-.46s0-.25.06-.28a.89.89,0,0,0,.52-.18,1.43,1.43,0,0,0,.28-.4.8.8,0,0,0,.37-.28c.16-.22.06-.34.31-.46s.28-.13.49-.25.1,0,.22-.12a3.23,3.23,0,0,0,.46-.81c0-.12,0-.86,0-1s.06-.28-.18-.34-.13.09-.71,0a9.68,9.68,0,0,0-1.61,0l-1.17,0h-.34l-.52.39-.28.15.31.49.09.22.28.74v.4l-.37.77-.19.53s0,.21-.33.21h-.37L223,22.5l-.37-.27-.18-.41-.22-.55-.15-.59-.34-.43-.37-.12L220.7,20v-.25c0-.09.25-.65,0-.65s-.62-.06-.65,0S220,20,220,20l.12.61-.27.56-.59.15s-.34-.31-.34-.4v-.34a2.21,2.21,0,0,0-.09-.37,2.57,2.57,0,0,0-.46-.28l-.5-.12-1,.19s-.07,0-.17.09a8.76,8.76,0,0,0-.48.8l.48.37a5.84,5.84,0,0,1,.81.18c.1.07.31-.12.56.13a2.06,2.06,0,0,1,.52.68c0,.09.28.37.28.37l.31.34-.28.58-.46.16Z"/>
        <path   class="cls-11 aaa" d="M219.59,16.52l-.14.22c-.07.12-.15.26-.17.31s.22.27,0,.49a3.58,3.58,0,0,0-.49.49.87.87,0,0,0-.16.46c0,.28.25.47.19.59s-.25.25.06.15a2.11,2.11,0,0,0,.71-.58l.46-.62.43-.4.34-.52.53-.43v-.53l.34-.4.52-.31a1,1,0,0,1,.37-.34c.22-.09.37-.12.37-.24s-.22-.65-.52-.65h-.84l-.8.34a2.51,2.51,0,0,0-.55.18,4.15,4.15,0,0,1-.9.19,1.44,1.44,0,0,0-.71.12c-.27.19-.33.31-.58.5s-.25.3-.25.3-.28.22,0,.28a1.4,1.4,0,0,0,.62,0c.34,0,.49-.09.58-.09a1.17,1.17,0,0,0,.37-.06l.25-.06s.16.09.16.18A1.67,1.67,0,0,1,219.59,16.52Z"/>
        <path   class="cls-11 aaa" d="M222,32.06l-.25.2-.25.17s-.43-.22-.15.25a.84.84,0,0,0,.65.46c.27.06.33.15.4,0a3.94,3.94,0,0,0,.12-.5v-.27s0-.31,0-.31Z"/>
        <path   class="cls-11 aaa" d="M229.27,28.11v.31l-.31.25-.24.15s-.07.25.27.34a1.35,1.35,0,0,0,.65,0l.43-.09.22-.41s.28,0,0-.3,0-.28-.28-.28S229.27,28.11,229.27,28.11Z"/>
        <path   class="cls-11 aaa" d="M231.92,36v-.62h-.86a2.32,2.32,0,0,0-.31.49v.47a3.09,3.09,0,0,0,.28.55l.33.62.25.18.37.4.22.47V39s.09.27,0,.4-.34.4-.34.4-.06.43-.06.55-.12.53,0,.59.47,0,.47,0l.42-.16.25-.27s.34,0,.43.09.28.3.31.37a1.05,1.05,0,0,1,0,.31l-.25.28s-.15.33.06.33.53.16.68,0a.85.85,0,0,0,.28-.37,1,1,0,0,0,0-.52c0-.09-.24-.31,0-.43a.51.51,0,0,0,.34-.43,2.69,2.69,0,0,0-.12-.43l-.53-.62a7.29,7.29,0,0,1-.55-.56c-.34-.4-.5-.49-.59-.61a4.3,4.3,0,0,0-.58-.56c-.1-.06-.25-.18-.25-.27a1.06,1.06,0,0,0-.09-.41l-.16-.43Z"/>
        <path   class="cls-11 aaa" d="M234.79,43.16l-.19.28h-.18V44s-.19.09.18.16a3,3,0,0,0,.78,0v-.65l.15-.53-.37-.15Z"/>
        <path   class="cls-11 aaa" d="M235.22,46.43V47l-.43.31-.42.22a2.61,2.61,0,0,1-.63.18A7.7,7.7,0,0,0,233,48a.56.56,0,0,1,0,.24c0,.13-.25.56,0,.59a6.25,6.25,0,0,1,.9.28,3.31,3.31,0,0,0,1.32.21c.31-.12.4-.43.62-.52a1,1,0,0,0,.43-.25c.21-.18.31-.4.49-.52s.37-.31.5-.31a4.72,4.72,0,0,1,.8-.06c.31,0,.8,0,.89.06s.31,0,.4,0a.65.65,0,0,0,.43.15,1.1,1.1,0,0,0,.65-.18,1.15,1.15,0,0,1,.43-.21c.19-.07.47-.1.56-.19s.37-.09.15-.4a10.52,10.52,0,0,0-.68-.83.4.4,0,0,1,.07-.4c.15-.22.43-.1.15-.47a3.26,3.26,0,0,0-.68-.64l-.49-.62-.19-.4a3,3,0,0,0-.4-.53c-.06-.09-.24-.09-.43-.33s-.4-.31-.52-.53a2.18,2.18,0,0,0-.4-.43h-.25l-.22,1.14.13,1-.07.61-.32.65L237,45l-.53-.43a.5.5,0,0,0-.3-.13,3.88,3.88,0,0,1-.4.28,2.51,2.51,0,0,0-.44.49v.53Z"/>
        <path   class="cls-11 aaa" d="M237,41.4a1.11,1.11,0,0,1-.25-.21c-.06-.1-.21-.47-.21-.47s.09-.18.23-.18.07-.19.23,0a3.16,3.16,0,0,1,.29.86l-.23.31-.15-.15"/>
        <path   class="cls-11 aaa" d="M61,59.34s-.32.14-.32.28v.14l-.28.51-.37.09h-.65l-.55-.74v-.28s-.1.47-.37,0l-.28-.46-.09-.37s.32-.09.46,0a3.64,3.64,0,0,0,.74.19h.6l.37-.23.37-.19h1.11v.32l.46.33-.51.39Z"/>
        <path   class="cls-11 aaa" d="M63.1,56.75h-.65l-.28.51.28.28h1l.23.28.51-1.07a4.41,4.41,0,0,1,.78-.32h.37l.37-.23.37-.05h1.16l.42-.27.41-.19h.19l.27-.23s.24-.28,0-.32a1.22,1.22,0,0,0-.46,0h-.18l-.23.27-.33.14-.32.14h-1.2l-.42.05-.42.14c-.14,0-.46.09-.46.09l-.37.18-.23.32h-.37Z"/>
        <path   class="cls-11 aaa" d="M72.16,54.07h-.83s-.19-.23-.33,0a.85.85,0,0,1-.41.33l-.09.32a.49.49,0,0,1,.46,0l.18.14H72.9l1.2-.45H75V54H74.1l-.41.2-.65.24h-.28Z"/>
        <path   class="cls-11 aaa" d="M76.83,53.66h-.46s-.32.25-.19.31,0,.15.31.15h.85Z"/>
        <path   class="cls-11 aaa" d="M79.47,53.33a3.18,3.18,0,0,1,.6-.18h1.76l.18-.23v-.23H81a1.24,1.24,0,0,1-.6,0,1.12,1.12,0,0,0-.6,0l-.74,0h-.46l-.47.35v.34l.19.33h.37Z"/>
        <path   class="cls-11 aaa" d="M86,51.85H83.63v.37a1.82,1.82,0,0,1,.92,0,1.64,1.64,0,0,0,.88,0l.56-.15Z"/>
        <path   class="cls-11 aaa" d="M89.23,51.25H87.88v.33c.28.18.33.32.65.27l.33,0,.69,0S89.46,51.25,89.23,51.25Z"/>
        <path   class="cls-11 aaa" d="M91.45,51.86s0,0,0,.21a2,2,0,0,0,0,.57l.37-.36,0-.21Z"/>
        <path   class="cls-11 aaa" d="M95.05,53.66a2,2,0,0,0-.41.31,1,1,0,0,0-.19.44v.22l.3-.22h.63l0-.29v-.23Z"/>
        <path   class="cls-11 aaa" d="M88.12,34.79v.78h.37l.23-.18.18-.21.09-.39h-.27s0-.23-.17-.23h-.2Z"/>
        <polygon class="cls-11 aaa" points="99.72 49.63 99.72 49.86 100.05 49.86 100.32 49.86 100.56 49.56 100.56 49.26 100.14 49.26 100.14 49.08 99.72 49.03 99.72 49.63"/>
        <path   class="cls-11 aaa" d="M97.55,52.64v.28l.51-.14.23-.5-.37-.21s-.23-.2-.37,0l-.14.2Z"/>
        <polygon class="cls-11 aaa" points="103.01 45.52 103.01 46.03 103.33 46.03 103.33 46.21 103.65 45.77 103.65 45.52 103.33 45.19 103.01 45.52"/>
        <polygon class="cls-11 aaa" points="101.02 44.22 101.25 44.69 101.53 44.69 101.76 44.69 101.76 44.22 101.39 44.22 101.02 44.22"/>
        <polygon class="cls-11 aaa" points="105.5 39.09 105.5 39.41 105.78 39.41 106.11 39.41 106.11 39.09 105.5 38.86 105.5 39.09"/>
        <polygon class="cls-11 aaa" points="107.63 40.15 107.63 40.57 107.91 40.57 108.19 40.57 108.42 40.15 108.02 39.97 107.63 40.15"/>
        <path   class="cls-11 aaa" d="M198.36,27.07l-.5.69v.32s0,0,0,.23l-.05.24h.28v-.24l.27-.23v-.27c-.18-.49,0-.37,0-.37Z"/>
        <polygon class="cls-11 aaa" points="197.07 29.2 197.07 29.42 197.07 29.66 197.44 29.66 197.81 29.2 197.44 29.01 197.44 28.87 197.07 29.2"/>
        <path   class="cls-11 aaa" d="M205.44,24.66s-.09-.34-.23-.26l-.14.08-.32.42v.16l.34.12Z"/>
        <path   class="cls-11 aaa" d="M215.29,17.91l-.42.46v.9s.23-.16,0,.17l-.23.32h0v.6a1.2,1.2,0,0,1-.23.32l-.14.14-.28.39v1.05l-.13.37.5-1.42.21-.25.21-.28.51-.41s.14-.09,0-.33a.67.67,0,0,1,.06-.67l.08-.07.15-.26v-.85S215.48,17.69,215.29,17.91Z"/>
        <path   class="cls-11 aaa" d="M98.5,6.05a3.61,3.61,0,0,1,.13.84c0,.17-.13.38-.17.55a4.8,4.8,0,0,0,0,.77l0,.56v.6l-.16.66v1l.18.26a.21.21,0,0,1,0-.26,1.89,1.89,0,0,0,.17-.27s-.12-.28,0-.45-.13-.25,0-.49-.09-.07,0-.38-.08,0,0-.56a2,2,0,0,0,0-1l0-.28.18-.44V6.64l0-.32,0-.27-.28-.28Z"/>
        <path   class="cls-11 aaa" d="M100.66,0l-.22.59s-.4.25-.29.35.2.21.25.25a.39.39,0,0,0,.26,0s.19.19.3,0a1.65,1.65,0,0,1,.43-.34V0h-.73Z"/>
        <path   class="cls-11 aaa" d="M108.41,15.65l-.52.15.07.45s.14.38.45.21l.32-.18a.24.24,0,0,0,.14-.2v-.14l-.25-.29Z"/>
        <path   class="cls-11 aaa" d="M110.51,19.29h-.63v.24s-.24.28,0,.32a4.06,4.06,0,0,0,.63,0s.31.17.35,0a3.29,3.29,0,0,0,0-.56l-.35-.17"/>
    </g>
</svg>