<svg id="NETWORK" 
    xmlns="http://www.w3.org/2000/svg" viewBox="0 0 300 300">
    <defs>
        <style>
         .cls-11{fill:#da1a35;}
                
        </style>
    </defs>
   
    <g id="ISRAEL">
        <path   class="cls-11 aaa" d="M121,232.78c-2-.52-2.82-2.27-4.35-3.38.42-2,.83-3.89,1.19-5.58l-3.67-6c-.18-3,.46-6.09-.89-9-.51-1.12-.52-2.49-1-3.6-1.49-3.12-3.17-6.15-4.7-9.26a16,16,0,0,1-1.57-4.3,41.22,41.22,0,0,0-2.93-9.07c-2.94-6.57-4.9-13.5-7.51-20.19-.41-1-.18-2.33-.27-3.85,1.23-.94,2.65-1.9,3.93-3,1.07-.95,2-2.09,3.27-3.51l.17-1.56c8-5.42,12.93-13,16.13-22a26.22,26.22,0,0,1,4.38-7.63,29.1,29.1,0,0,0,6.14-13.08c.75-4.16,2.55-8,2.9-12.3.13-1.54,1.43-3,2.13-4.46,1.81-3.85,3.37-7.81,3.12-12.14s1.53-8,2.27-12.07c.92-5,3-9.67,3.29-14.83.1-1.59.63-3.3.79-5a47.23,47.23,0,0,1,1-5.11h3.84a15.81,15.81,0,0,0,4.25-8.32c.42-2.59.59-5.14.79-7.72a17.64,17.64,0,0,1,1.17-3.73l12.5-1.81L170,23.75h3.79l1.38-1.38,5.24-1.4.15-2.19,2.65-2.66c-.24-1.85.56-4-.9-5.72l1.93-6,2.16,3.12h3.76a19.63,19.63,0,0,1,2-3,21.23,21.23,0,0,1,3.08-2.26h2.63L200.31,0l3.35,4.65V8.79l-2.9,5.57,2.23.56-.71.62L206,13.7c.62,4.23-.12,6.12-3.23,7.75L203.92,28l3.23,3.21c-1.45,2-3.69,3.85-4.06,6a27,27,0,0,1-2.18,5.88,13.37,13.37,0,0,1-6.17,6.35c-3.08,1.73-6.36,3.19-8.76,6a7.38,7.38,0,0,1-2,1.11c.18.72.42,1.5.58,2.3a24,24,0,0,1,.39,2.52c.18,1.75-1.25,3.13-1,5,.21,1.47.8,3.29-.8,4.55.42,3.48-.46,7,.54,10.51a18.4,18.4,0,0,1,.13,8.32c-.52,2.61-1,5.24-1.62,7.83-.47,2-1.35,4-.78,5.89,1.32,4.49.57,9,.86,13.54.08,1.09.69,2.13.83,3.22s-.06,2.4.06,3.58a11.22,11.22,0,0,1-.93,5.46c-1.08,2.69-2.2,5.36-3.57,8.67,0,.75.58,2.67-.14,3.64-1.17,1.6.52,2.48.25,3.86-.63,3.09-.83,6.31-1.22,9.44-.32,2.57-2.46,4.92-4.33,8.36-.32,4.1,3.6,8.3,3.7,13l-2.68,3.94v7.64l-5.12,4.47c-1.15,3.61-.64,7.37-3.07,10.52,1,3.2-1.28,5.6-2.87,7.95-2.27,3.36-3.35,6.92-4.47,10.75-1.21,4.14-1.52,7.73.2,11.6a2.15,2.15,0,0,1,0,1.2c-1.34,2.24-2.41,4.05-3.58,6-.34,4.79,2.64,9.32,1.74,13.93-1.12,3-4.23,4.81-3.43,8.58l-2.81,2.37q.63,3.76,1.14,6.75c-3.18,5-6.55,9.57-3.59,15.6l-2.91,2.4v4.19a18.7,18.7,0,0,0-3.36,2.48,13.23,13.23,0,0,0-1.58,3.42,24.19,24.19,0,0,1-1.43-6.42,50.83,50.83,0,0,0-.92-5.88,47.42,47.42,0,0,0-2.68-11.41c-2.49-6.2-3.93-12.7-6.12-19-2.33-6.67-4.2-13.5-6.36-20.23A34.85,34.85,0,0,0,121,232.78Z"/>
    </g>
</svg>