<svg id="NETWORK"
	xmlns="http://www.w3.org/2000/svg" viewBox="0 0 300 300">
	<defs>
		<style>.cls-1{fill:#da1a35;}</style>
	</defs>
	<title>COUNTRIES_SEPARATE</title>
	<g id="KUWAIT">
		<path class="cls-1" d="M183.88,142.3a16.14,16.14,0,0,0,4.68.1c2.46-.52,4.95-.88,7.4-1.41a32.42,32.42,0,0,0,3.57-1.18,20.55,20.55,0,0,0,2.77-1.06c1.42-.76,2.54-.39,3.71.78-.47.34-.92.67-1.38,1a15.33,15.33,0,0,1-1.68,1.12,2.08,2.08,0,0,0-1.17,2A18.68,18.68,0,0,1,201,147a21.52,21.52,0,0,0,3.42,2.25,4.85,4.85,0,0,0,2.9,0c2-.54,4-1.31,6-2,.25-1.1.47-2.15.72-3.19a2.73,2.73,0,0,1,3.11-1.79,10.13,10.13,0,0,1,1.53.5,1.35,1.35,0,0,0,1.48-.26,9.6,9.6,0,0,0,3.5-3.63c.54-1.14,1.8-1.24,2.92-1.89.57.66,1.19,1.29,1.72,2a19.77,19.77,0,0,0,3.65,4.3,3.9,3.9,0,0,0,.86.62q2.6.95,5.22,1.81a2.16,2.16,0,0,0,.91,0c1.23-.23,2.46-.5,3.7-.74.37-.07.76-.09,1.3-.16-.16,1.23-.29,2.33-.45,3.43a36.77,36.77,0,0,0-.65,8.57,54.54,54.54,0,0,0,3,14.18,37.65,37.65,0,0,0,1.82,3.43,8.23,8.23,0,0,1,.86,2.09c.75,4.06,1.45,8.12,2.13,12.19.73,4.47,1.42,9,2.13,13.42a2.44,2.44,0,0,0,.15.66c1.11,2.3,2.09,4.68,3.41,6.86,1.95,3.22,4.12,6.32,6.25,9.43a8.11,8.11,0,0,0,4.78,3.67,27.72,27.72,0,0,1,3.19,1.06c.3.12.71.39.75.64a7.6,7.6,0,0,1,.24,3.19c-.25.94-.3,1.94-.48,2.91a9.91,9.91,0,0,0,2.12,7.93c.79,1.09,1.58,2.19,2.32,3.31.47.71.84,1.48,1.27,2.22.55,1,1.07,2,1.7,2.88a3.12,3.12,0,0,0,1.16.85,24.23,24.23,0,0,0,6.54,2c.78.16,1.55.36,2.34.55-1.92,4.33-2.63,4.06-1.16,11.78l-2.72-1.92c-.66,1.46-.57,1.62,1.8,3.36-.2.29-.39.58-.61.85-.85,1.08-1,1.09-2.19.43a6,6,0,0,0-1.15-.34c-.09,1.16-.22,2.17-.22,3.18,0,.86.86.9,1.31,1.23,1.76-.41,2.78-1.69,4-3.19.19,1.17.38,2,.46,2.9.2,2.19.38,4.38.51,6.58a10.67,10.67,0,0,0,2.21,5.69c.95,1.3,2,2.52,3,3.78.11.14.19.28.45.66H273c-.65,0-1.32-.15-1.9.39-.18.17-.61.09-.92.1l-15.49.13L221,286.2c-7.32.07-14.64.13-22,.22q-9.65.1-19.27.24h-1.53c-.32-1.16-.66-2.23-.91-3.31a4.94,4.94,0,0,0-1.21-2.19,30.36,30.36,0,0,0-4.48-3.85,22.89,22.89,0,0,1-4-3.56,22.41,22.41,0,0,1-2.73-4.61,45.4,45.4,0,0,1-3.15-9.15,12.3,12.3,0,0,1-.26-1.72c-.3-3.94-.28-7.9-1.09-11.79a12.69,12.69,0,0,0-.43-1.69q-3.87-10.69-7.77-21.38a12.05,12.05,0,0,0-.85-1.82c-2.68-4.62-5.4-9.23-8.06-13.86a2.25,2.25,0,0,0-1.87-1.23c-8.14-1-16.28-2.12-24.42-3.21-9.83-1.31-19.65-2.64-29.48-3.93q-12.08-1.58-24.16-3.07-13-1.64-26.05-3.24L9.13,189.54c-1.14-.14-2.27-.31-3.62-.51l4.79-5.39q10.82-12.12,21.61-24.24a14.17,14.17,0,0,0,1.58-2.17c2.77-4.62,5.5-9.27,8.26-13.89a11.58,11.58,0,0,1,1.36-1.83c2.73-3,5.52-6,8.22-9.1A18.15,18.15,0,0,0,55,126.5c.78-2.2,1.67-4.36,2.46-6.56a36.42,36.42,0,0,1,3.34-6.88c2.77-4.46,5.41-9,8.16-13.48A55.13,55.13,0,0,0,73,91.09a22,22,0,0,0,.8-4.34c.26-1.5.5-3,.83-4.48a8.12,8.12,0,0,1,.77-1.86c.54-1.08,1.09-2.17,1.71-3.21,3.45-5.73,5.58-12,8-18.21,2.63-6.68,5.22-13.38,7.85-20.06a10.83,10.83,0,0,1,1.14-2.12c1.28-1.9,2.6-3.78,3.94-5.63a5.62,5.62,0,0,1,1.3-1.32c2.17-1.52,4.37-3,6.57-4.48a11.17,11.17,0,0,1,1.78-.93c7.17-3,14.35-5.94,21.51-8.95a14.93,14.93,0,0,1,4.14-1.06,91.29,91.29,0,0,1,11.81-.81q14.41.13,28.84,0a53,53,0,0,1,10.81,1.1,23.19,23.19,0,0,1,6.06,2.11q14.46,7.36,29,14.61a2.79,2.79,0,0,1,1.43,1.64A26.31,26.31,0,0,0,223,36.61a18.48,18.48,0,0,1,2.69,9.86,39.31,39.31,0,0,0,.44,8.32,9.29,9.29,0,0,0,.21,1.05A69.31,69.31,0,0,0,232,69.32a50.67,50.67,0,0,0,4.44,6.25,1.46,1.46,0,0,0,1,.36c1,0,2.06,0,3.24,0,.14.36.31.81.47,1.27,1.09,3.18,2.15,6.36,3.46,9.47a45.45,45.45,0,0,0,6,10.3c2.38,3.06,3.82,6.58,5.31,10.09a1.83,1.83,0,0,1,.19.9c-.16,1.06-.38,2.11-.59,3.23-1.74.29-3.36.78-5.11-.15-2.26-1.19-4.74-1.94-6.84-3.44a5.82,5.82,0,0,1-1.4-1.4,2,2,0,0,0-1.39-.9c-2.47-.45-4.94-.95-7.41-1.36a6.68,6.68,0,0,0-2.14,0c-2.22.32-4.42.73-6.64,1.08a3.81,3.81,0,0,0-2.13,1q-3.27,3.1-6.59,6.16a11,11,0,0,1-1.82,1.37c-2.29,1.32-4.62,2.59-6.93,3.88a4.43,4.43,0,0,0-.7.41,41.17,41.17,0,0,0-7.74,7.41c-1.84,2.49-3.53,5.08-5.27,7.64a3.68,3.68,0,0,1-1.63,1.34c-1.72.78-3.43,1.59-5.11,2.43-.37.18-.86.52-.92.85A13,13,0,0,1,183.88,142.3Z"/>
		<path class="cls-1" d="M235.75,65.91c1.1-.76,2.12-1.49,3.16-2.18q1.92-1.26,3.87-2.45a6,6,0,0,1,1.66-.82A2,2,0,0,0,246,58.55c.26-1.73.5-3.46.75-5.26a7.46,7.46,0,0,0-5.11-1.17l1.43-2.61a4.45,4.45,0,0,1,3.54.9c.46.36,1,.6,1.46,1,1.37,1.09,3,.91,4.51.72a1.52,1.52,0,0,0,1.12-2c-.15-.52-.3-1-.44-1.56,0-.08,0-.17.05-.29,1.25-.66,2.53-1.29,3.77-2s1.11-.67,1.54-2.16a16.48,16.48,0,0,0-2.15-1.5,2.94,2.94,0,0,0-2.71-.07c-1.67.82-3,.21-3.39-1.62a40.15,40.15,0,0,1-.42-4.26.86.86,0,0,0-.06-.2c-1-.62-2.55.56-3.34-.94.18-1.45,1.39-2.06,2.43-2.67a6.22,6.22,0,0,1,5.91-.64,7.38,7.38,0,0,1,3.2,2.57Q268,48.87,277.89,63c.1.14.19.3.31.44a26.54,26.54,0,0,1,4.95,9.76,4,4,0,0,1,.17,1.57c-.24,2.18-.55,4.36-.83,6.54a1.93,1.93,0,0,1-.14.65c-1.09,2-2.1,4-3.32,5.85a40.15,40.15,0,0,1-3.65,4.67c-1.22,1.36-2.7,2.5-3.94,3.86-2.07,2.27-4.91,3.24-7.52,4.6a1.5,1.5,0,0,1-.78.15c-1.74-.18-3.47-.4-5.21-.56a2.26,2.26,0,0,1-1.67-1c-.76-1-1.61-1.93-2.36-2.93a8.37,8.37,0,0,1-1-1.73c-1.41-3.3-2.71-6.65-4.17-9.93-1-2.2-2.18-4.32-3.32-6.46-.95-1.78-2-3.53-2.91-5.31a10.07,10.07,0,0,0-4.58-4.76A4.73,4.73,0,0,1,235.75,65.91Z"/>
		<path class="cls-1" d="M289.27,138.18c-2.42-.71-4.72-1.15-6.38-3-.48-.53-1.11-.92-1.61-1.43a10.21,10.21,0,0,0-5.75-2.65,19.14,19.14,0,0,0-4.95-.28,5.5,5.5,0,0,1-.8,0,22.12,22.12,0,0,1,.07-4.32,4.43,4.43,0,0,1,1.63-2.67,4.32,4.32,0,0,1,3.09-.4,41.29,41.29,0,0,1,7.4,2.41,15.93,15.93,0,0,1,3.92,3.18c2,1.9,2.73,4.49,3.47,7A7.41,7.41,0,0,1,289.27,138.18Z"/>
		<path class="cls-1" d="M245.24,25.91c0,1.26-.25,2.1-1.33,2.58-.74.32-1.4.81-2.11,1.19A6.62,6.62,0,0,0,239.22,32,7.15,7.15,0,0,1,236,34.76c-.66.28-1.27.67-1.91,1a2.5,2.5,0,0,1-3.8-1.57,5.42,5.42,0,0,1-.13-1c2.1-1,3.21-2.93,4.51-4.69a4.78,4.78,0,0,1,3.49-2c1.33-.14,2.66-.41,4-.53C243.17,25.84,244.19,25.91,245.24,25.91Z"/>
	</g>
</svg>
