<svg id="NETWORK" xmlns="http://www.w3.org/2000/svg" viewBox="0 0 300 300"><defs><style>.cls-11{fill:#da1a35;}</style></defs><title>COUNTRIES_SEPARATE</title><g id="SPAIN"><path class="cls-1" d="M56.64,52.49a.56.56,0,0,1-.27.31c-.16.09-.21.13-.36,0s-.3-.2-.35-.18,0,.11-.19.11-.12-.16-.33-.19-.3-.06-.38.08,0,.33-.23.26-.41-.33-.48-.16,0,.23,0,.41a.64.64,0,0,1-.22.39c-.07.06-.2-.12-.3,0s-.22.21-.05.34.06.27.17.34.26,0,.3-.2.24-.35.32-.24,0,.26.14.37.35,0,.36.18-.25.3-.37.41-.31.24-.42.33-.07.29-.27.06-.35-.4-.48-.28a.63.63,0,0,1-.45.18.31.31,0,0,0-.32.31.4.4,0,0,1-.25.35c-.17.09-.24-.07-.34.13s-.17.28-.1.4-.06.25.16.32.3-.21.47.14.22.31.11.39-.13.06-.16.24-.2.16-.24.33,0,.21-.1.37-.36.16-.37.31-.16.13-.16.25.14.23.22.33,0,.08,0,.25,0,.29-.06.29-.16,0-.11.2.27.32.35.18a.72.72,0,0,0,.07-.41c0-.18-.09-.47,0-.54s.23-.41.46-.39a.86.86,0,0,1,.47.2c.1.07.18,0,.23-.14s.1-.33.2-.32.2.2.3.38a2.13,2.13,0,0,0,.18.31c.09.16-.08.09.19.17a.81.81,0,0,1,.48.36.32.32,0,0,1-.12.32.61.61,0,0,0-.22.23c-.11.17-.23.31,0,.56s.37.2.59.49a.74.74,0,0,1,.18.66,1.12,1.12,0,0,1-.43.41c-.1.05-.46.08-.31.29a5.47,5.47,0,0,0,.51.56c.15.18.23.25.24.38s0,.42.19.37.11-.27.26-.31a.61.61,0,0,0,.4-.23c.06-.11-.06-.23,0-.37a.46.46,0,0,1,.24-.27c.11-.07.14-.39.29-.35s.28.56.43.57a2.66,2.66,0,0,0,.71-.27,2.83,2.83,0,0,1,.44-.12c.21-.08.13-.14.26-.25s.13-.35.26-.15.35.28.21.47a.91.91,0,0,1-.42.33c-.15.06-.6.32-.67.51s0,.41-.21.45-.35-.08-.55.07a1.91,1.91,0,0,0-.57.66,2.52,2.52,0,0,1-.22.53.28.28,0,0,0-.11.27,1,1,0,0,1-.09.55.4.4,0,0,0-.16.39c0,.24.13.23,0,.36s-.29.16-.29.37,0,.16,0,.21,0,.07-.16.11-.27,0-.3.14,0,.3.15.22a.77.77,0,0,0,.18-.15,1.76,1.76,0,0,1,.18-.13s0,0,.14.06.39.08.45.24a1.47,1.47,0,0,1,.08.4.3.3,0,0,1-.09.25c-.09.07-.27.08-.25.25s.09.26.17.28a.55.55,0,0,0,.37-.14c.14-.11.33-.19.35-.29s0-.2,0-.34,0-.16.13-.33.14-.13.33-.32.52-.7.64-.84.15-.4.38-.31.47.25.37.36-.22.3-.18.33a.34.34,0,0,0,.31-.11.44.44,0,0,0,.16-.36c0-.2,0-.24,0-.35a1.52,1.52,0,0,1,.37-.4c.14-.12.17-.31.32-.26a.33.33,0,0,1,.26.32c0,.19.09.06.2.26a.93.93,0,0,1,.1.52c0,.16.19.16.32.07a1.54,1.54,0,0,0,.41-.37c.11-.16.2-.35.29-.33s.16.15.12.2a1.53,1.53,0,0,0-.35.4c-.15.26-.28.67-.39.74a2.65,2.65,0,0,0-.5.45l-.34.55s-.12-.06-.2,0l-.26.32c-.07.07-.35.18-.06.35s.29.07.37.2,0,.24,0,.38-.09.24-.23.27-.22,0-.26.18,0,.24.07.35.28.16.17.33a.68.68,0,0,1-.35.27,1,1,0,0,0-.34.34.56.56,0,0,0-.08.62c.1.21.15.51.32.5s.17-.1.4-.16.36-.08.5,0,.41.21.51.12a2,2,0,0,1,.54-.44c.23-.1.24-.29.34-.05a.57.57,0,0,1,0,.58c-.1.08-.34.27-.37.42a.84.84,0,0,1-.22.44c-.12.13-.21.21-.31.33a.77.77,0,0,1-.35.28.34.34,0,0,1-.25-.07c-.06,0-.35-.22-.45-.29s-.23-.14-.28-.07a.91.91,0,0,0,.11.57c.1.2.36.49.36.66s0,.43-.18.5-.3,0-.37-.13,0-.36-.2-.34-.27.21-.29.36-.14.35-.09.47.17.12.29,0,.17-.09.24,0,.18.29.29.15.31-.23.33-.11.27.22.35.08.25-.22.31-.17a.22.22,0,0,0,.32,0c.11-.14.13-.37.32-.4s.33-.08.36.1.14.1.28.13.12.39,0,.51-.36.2-.61.38-.7.51-.92.73-.45.25-.55.52.08.09-.13.4-.28.41-.37.56.05.22-.15.43-.27.21-.37.16-.15-.18-.3.07-.21.19-.36.38-.2.14-.22.44a4.79,4.79,0,0,0-.07.75,5.93,5.93,0,0,1,0,.87,5.17,5.17,0,0,1-.06.82c-.07.27,0,0,0,.29s-.21.3-.17.6,0,.47,0,.71.09.47,0,.58-.22.18-.11.5.33.43.43.22.13-.56.4-.66.38-.15.63-.23a2,2,0,0,0,.88-.34,10.31,10.31,0,0,0,.65-.84c.11-.14.05-.33.46-.4a2,2,0,0,0,.87-.36,6,6,0,0,0,.59-.48c.12-.08.21-.36.52-.43a4.35,4.35,0,0,0,.81-.25c.34-.14.54-.33.79-.41s.23-.11.72,0,.37.3,1.17.12a5,5,0,0,0,1.52-.54c.41-.22.5-.5,1.07-.69s.59-.41.87-.12.16.37.3.8.69.56,1.07.67.57,0,.63.6.14.73-.31.87-.84.2-1,.51.14.44-.27.76-.68.45-.69.77.57.76.69,1a3.81,3.81,0,0,1,0,1.13c0,.33,0,.72.63.76a3.83,3.83,0,0,0,1.7-.24,2.58,2.58,0,0,0,.61-.66,2.21,2.21,0,0,1,.71-.65c.24-.15.39-.17.57-.43s.21-.81.51-.44.2,1.08.32,1.36.57-.06,1.34-.2a5.46,5.46,0,0,1,1.8-.21c.53.08.83,0,1.27.41s.27.91.59,1.07a2,2,0,0,0,1.25.06c.28-.11.21-.63.55-.59s.94.88,1.3,1.08.52.12.87-.13a1.78,1.78,0,0,1,1-.26,2.52,2.52,0,0,0,1-.3c.43-.21.3-.06.73-.41s.35-.17.43-.56-.15-.83,0-1.16.28-1,.74-1,.85-.27,1,.2.15.92.77.86.93-.66,1.4-.64-.15.68.9.88,1.42.2,1.72,0,.17-1.09.63-1.07.48,1,1.37,1.14a3.35,3.35,0,0,0,1.42,0c.51-.06,1.07-.38,1.31-.3s.16.5.19,1,0,.74.39,1,.19.51.16,1.08a1.77,1.77,0,0,1-.29,1.2,1.52,1.52,0,0,0,.06,1.75c.44.61.54,1.07,1.12,1a4.83,4.83,0,0,1,1.76-.12,3.88,3.88,0,0,1,1.55.72,3.5,3.5,0,0,1,1.11.92c.37.46.79.5.75,1a10,10,0,0,1-1.34,2.42c-.26.41-.59,1.24-1,1.47s-.7.16-.86.46-.15.56-.37.71-.93.56-1,.73.17.38-.12.49l-1.09.39a3.3,3.3,0,0,0-1,.47c-.23.2-.31.38-.65.35s-.78-.33-1.11.17-1.53,1.44-1.7,1.92a3.59,3.59,0,0,0-.27,1,2.38,2.38,0,0,1-.53,1.32,3.58,3.58,0,0,1-1,.62c-.36.16-.42,0-1,.23s-.76,0-.85.37.07.67.47,1.3a2.9,2.9,0,0,1,.56,1.16,1.73,1.73,0,0,0,.34.87c.29.53.74.56.64,1.06s-.43.36-.39,1a12.71,12.71,0,0,0,.1,1.67c.12.53,0,.37.15.86a6.24,6.24,0,0,1,.16,1c0,.29.17.87,0,1.15s-.51.61-.61.82.14.68.37,1.1a1.12,1.12,0,0,1-.2,1.27c-.3.37-.61.29-.56.76a5.14,5.14,0,0,0,.29,1.24c.14.35.54.87.67,1.3s.27.5.06.62-.33,0-.55.17-.14-.34-.49.43-.44,1-.69,1-.49,0-.76,0a2.2,2.2,0,0,0-1.15.64,1.27,1.27,0,0,0-.36,1.1c0,.68-.37,1.3.08,1.67s.63.28.86.68a4.34,4.34,0,0,0,.46.79,2.07,2.07,0,0,1,.6,1,1.78,1.78,0,0,1-.1.77c-.1.44.17.38.13.66s-.19.19-.41.45-.18.63.1,1-.49,1.05-.74,1.27a1.66,1.66,0,0,0-.43,1.06,3.11,3.11,0,0,1-.06,1c-.1.55.09.73-.21,1.13s-.24.35-.49.72-.42.65-.72.71-.49.4-1,.34-1.18-.19-1.58-.2-.91.28-1.17.2-.32-.31-.78-.21-.33.33-.87.13a6.2,6.2,0,0,0-1.1-.39c-.38,0-.64-.15-1.22-.21s-1-.23-1.14-.09a.94.94,0,0,0,0,.88,6.6,6.6,0,0,1,.53,1c.07.25.05.11.62.9a9.26,9.26,0,0,0,1,1.19,6,6,0,0,0,.88,1c.46.38.54.18.52.65s.06.75-.19,1.1-.52.56-.31,1a4.56,4.56,0,0,0,.8,1.27c.44.46.77.21.73.9a3.84,3.84,0,0,0,0,1.43,3.34,3.34,0,0,0,1,1c.49.35.77.47.78.87s-.21.73.16.85.42,0,1,0,1.08.15,1.21.51a7.32,7.32,0,0,1,.38,1.17c.14.59.25.76,0,1.15s-.51.51-.6.86-.54.91-.66,1.32a5.88,5.88,0,0,1-.36,1c-.22.5-.19.63-.69.74s-.94.08-1.08.33a3.41,3.41,0,0,1-.82.9c-.38.29-.44.55-.83.61s-.68.07-.88.59a3.43,3.43,0,0,0-.29,1.53,3,3,0,0,1-.37,1.63c-.22.38-.45.35-.45.9a3,3,0,0,1-.11,1.45,2.36,2.36,0,0,0,0,1.79A4.67,4.67,0,0,0,82,173a10.18,10.18,0,0,0,1.28,1.61,3.55,3.55,0,0,1,1,1.22,15.77,15.77,0,0,1,.54,1.58c.14.4,0,.78.7.46s1.19-.67,1.61-.56a.6.6,0,0,1,.38.83,4,4,0,0,0-.43,1.06c-.14.6-.37,1-.45,1.51s-.14,1.17-.55,1.18-.91-.34-1.33-.23-.93.37-1.28.46a5,5,0,0,0-.94.26,2,2,0,0,0-.84.7,21.4,21.4,0,0,0-1,2.38c-.1.33-.46.6-1.06,1a4.52,4.52,0,0,0-1.36,1.15,2.44,2.44,0,0,0-.47,1,2.12,2.12,0,0,1-.41,1.16A7.75,7.75,0,0,0,76,192.47c.06.55-.09.28.29,1.05a4.71,4.71,0,0,1,.53,1.25,17.54,17.54,0,0,1,0,2,7.21,7.21,0,0,0,.11,1c.06.37-.09.35.15.81s.13.57.14,1.12a5.36,5.36,0,0,0,0,1.17c.09.34,0,.88.34,1s.61,0,.67-.2-.06-.52.25-.52.32.18.44.37.94-.05,1.56-.11a4.78,4.78,0,0,0,1.61-.22,1.13,1.13,0,0,0,.57-.64,1.15,1.15,0,0,0,0-.44c0-.11-.21-.16,0-.29s.45-.21.42.08-.11.51,0,.65.93,0,1.09.2.37.19.64.44a6,6,0,0,0,.57.57c.2.13.41.23.52.16s.3,0,.13-.24-.31-.29-.34-.49-.19-.13-.06-.37.23-.22.25-.52a1.9,1.9,0,0,0,0-.68c-.06-.25-.15-.21-.13-.51s-.2-.57.07-.64a.44.44,0,0,1,.61.37,5,5,0,0,1,.09.7,4,4,0,0,0,.28,1.05s0,.43.33.18.72-.94.85-1a5.37,5.37,0,0,1,.66-.49c.16-.06.29-.15.33,0a.6.6,0,0,1-.17.57c-.16.13-.53.46-.72.66a6.6,6.6,0,0,0-.58.9.39.39,0,0,0,.1.5c.21.18.81.82.94.92s1.43,1,2,1.4,2.29,1.53,2.55,1.76,1.52,1,1.93,1.35a10.67,10.67,0,0,1,1,.83,1.48,1.48,0,0,1,.53,1A10.12,10.12,0,0,0,97,211a1.54,1.54,0,0,0,.62.68c.18.1.22-.06.35,0s.17.33,0,.38a2.77,2.77,0,0,0-.75.28,2.71,2.71,0,0,0-.64.51c-.21.23-.35.15-.28.55s-.11.43.16.83a3.83,3.83,0,0,1,.49,1,2.27,2.27,0,0,0,.27.64c.14.27.19.32.44.38s.77-.29,1-.09.52.23.69.56.06.57.33.53.3-.32.47,0,.4.54.18.71A4.16,4.16,0,0,0,99.12,219c-.19.41-.12.24.1.77a7.56,7.56,0,0,0,.67,1.06c.08.2.07.43.25.39s.52,0,.42.18-.36.23-.19.43.13.19.34.31.3.46.35.54a10.64,10.64,0,0,1,.43,1.1c.06.24,0,.45.35.52s.76.28.79.62a.83.83,0,0,0,.26.67c.21.18.15.14.26.45s0,.26.25.64.1.5.37.53.09-.14.41-.11.45.22.54.22a1.27,1.27,0,0,0,.31-.12.88.88,0,0,1,.42-.11,2.26,2.26,0,0,1,.91.13c.18.11.66.11.9.42s.66.52,1,.87,0,.51.4.89.45.4.59.35.39-.16.56.09.53.63.67.61a1.62,1.62,0,0,1,.42-.1,1.06,1.06,0,0,1,.67.29c.14.15.37.29.66.56a.67.67,0,0,0,.75.17c.15-.08.61-.23.81-.3a2.68,2.68,0,0,0,.7-.31,1.09,1.09,0,0,1,.74-.16c.38,0,.59-.06.73-.27s.31-.39.17-.5-.32-.2-.26-.32.25-.23.21-.34a.38.38,0,0,1,.26-.37,1.06,1.06,0,0,1,.72,0c.19.11.17.37.42.38s.36,0,.44-.17.17-.13.13-.42-.09-.23-.09-.4,0-.31,0-.43,0-.25.1-.41.21-.14.27-.33-.15-.61,0-.84a4.6,4.6,0,0,1,.44-.72l.45-.46a3.67,3.67,0,0,0,.65-1.15c.08-.34,0-.6.13-.93s.25-.55.55-.68a3.74,3.74,0,0,0,.76-.34c.26-.17.15-.2.31-.25s.58-.05.82-.1.35-.3.53-.39a2.43,2.43,0,0,1,.81-.24,3.73,3.73,0,0,0,1.31-.6c.42-.25.37-.52.74-.53a1.58,1.58,0,0,1,.68.09c.29.09.33,0,.54,0a1.81,1.81,0,0,1,.69,0c.23.05.46.18.76.27a2.39,2.39,0,0,0,1.1.12,6.63,6.63,0,0,0,1.24-.32c.29-.1.32,0,.57-.25a3.35,3.35,0,0,0,.66-.54c.16-.23.12-.66.44-.83s.73-.18,1.06-.37a6.21,6.21,0,0,0,1-1,14.76,14.76,0,0,0,.82-1.25c.22-.27.43-.79.64-.87a2.89,2.89,0,0,1,1.06-.21,4,4,0,0,1,1,0c.29.09.27.27.62.21s.71-.33,1.06-.31a5.84,5.84,0,0,0,1.1.11,8,8,0,0,0,1.61-.32,1.62,1.62,0,0,1,.91-.24,5.43,5.43,0,0,0,1.09.27c.3,0,1.08-.06,1.51-.12a5.53,5.53,0,0,1,1-.05,6.21,6.21,0,0,1,1.12.1,7.1,7.1,0,0,0,1.17.42c.33,0,.35-.11.6-.24a1.11,1.11,0,0,1,.75-.2c.32,0,.52-.16.77-.22a1.06,1.06,0,0,1,1,.12c.54.32.38.47.72.57s.62-.17.79-.05.22.45.65.52a3.34,3.34,0,0,0,1.17-.07,1.56,1.56,0,0,0,1-.38,1.48,1.48,0,0,1,.59-.49c.43-.24.5-.36.74-.37s.33-.32.77-.22.35.24.82.26.59-.22,1-.28a1.92,1.92,0,0,1,.89,0c.35.08.48-.1.82-.12s.31.08.67.23a2.6,2.6,0,0,0,1.17.26c.27-.07.21-.43.5-.44a4.88,4.88,0,0,1,1.21.36,1.59,1.59,0,0,1,.7.46c.25.25.58.52.85.4s.18-.33.52-.13.61.48.94.52.37-.17.68-.29.64,0,1-.12a2.6,2.6,0,0,0,.71-.53,10.21,10.21,0,0,0,.66-1.14c.17-.28,0-.39.28-.66a1.93,1.93,0,0,1,1-.6c.38,0,.62-.37.81-.44a2.35,2.35,0,0,1,1.09.34.83.83,0,0,0,.79.05c.2-.11.44-.36.78-.35a2.48,2.48,0,0,1,.7.16c.3.07.67,0,.91.21a2.32,2.32,0,0,1,.56.65c.12.26.08.45.37.65a2,2,0,0,1,.62.58c.2.27.16.46.54.45a1.43,1.43,0,0,0,1.06-.36c.23-.28.33-.63.55-.67s.6-.13.63-.28-.23-.38-.08-.55a5.5,5.5,0,0,1,.72-.61c.21-.16.45-.23.4-.45s-.13-.36,0-.59,0-.48.32-.65.36-.26.36-.55a.65.65,0,0,1,.47-.68,1,1,0,0,0,.65-.41c.17-.21-.06-.43.13-.71a7.13,7.13,0,0,0,.38-1c.11-.25.07-.6.32-.78a2.22,2.22,0,0,0,.52-1c.08-.26.16-.89.25-1.19s.24-1,.27-1.21a.77.77,0,0,1,.26-.48,10.41,10.41,0,0,0,.61-.88,6.72,6.72,0,0,1,.51-.63c.3-.32.6-.77.92-1.11s.48-.81.92-1.08.91-.79,1.27-.87a2.74,2.74,0,0,0,.9-.39c.16-.11.2-.06.65,0s.61-.28.72-.58.06-.46.23-.74a1.51,1.51,0,0,1,.53-.69c.26-.15.57-.33.79-.43s.44-.6.78-.87a.89.89,0,0,1,.83-.2c.22,0,.37.34.65.35s.5-.33.65-.35a1.21,1.21,0,0,1,.73.16c.38.19,0,0,.31.1s.5,0,.57.16.1.21.33.2.42-.07.3-.15-.31-.13-.1-.24.49-.38.73-.35.31.17.56.19.21-.19.44-.3.65-.31.8-.22.22,0,.32.22.33.28.35.41a.4.4,0,0,0,.28.31,2,2,0,0,0,.49-.06c.11,0,.22-.16.47-.4s.49-.56.71-.59.35.08.59.1.32-.17.76-.33a2.89,2.89,0,0,1,.75-.18c.17,0,.21,0,.3-.16s0-.09.12-.26a.53.53,0,0,0,.07-.4.39.39,0,0,0-.21-.21c-.09,0-.3,0-.49-.08a2.33,2.33,0,0,1-.54-.26,2.53,2.53,0,0,1-1.05-.67,1.85,1.85,0,0,1-.38-.94,1.16,1.16,0,0,1,.24-.7l.5-.55a.73.73,0,0,0,.19-.48c0-.23.12-.6.22-.63s.13.17.27.2.13-.08.1-.38a1.39,1.39,0,0,1,.1-1c.23-.41.24-.65.43-.83a1.18,1.18,0,0,0,.26-.58c.09-.25,0-.32.19-.57a2.25,2.25,0,0,1,.53-.51c.21-.12.66-.49.71-.79a1,1,0,0,0,0-.76,2.32,2.32,0,0,1-.17-1.11c0-.47.06-1.34.11-1.62a1.42,1.42,0,0,1,.33-.87c.25-.22.39-.35.64-.55a2.13,2.13,0,0,1,.82-.36c.15,0,.52,0,.51-.29a7.15,7.15,0,0,0-.1-.78c0-.21-.26-.24-.09-.62s.11-.82.24-1.1a8.66,8.66,0,0,1,.46-.81c.15-.23.2-.41.49-.33s.23.31.47.26.25.22.35-.2,0-.65.16-1a4.78,4.78,0,0,1,.86-1.12c.34-.31.71-.71.94-.91a10.43,10.43,0,0,1,1.13-.57,10.23,10.23,0,0,1,1.4-.71c.25-.07.55-.4.84-.25s.27.27.61.23a1.3,1.3,0,0,0,.84-.71c0-.21,0-.17-.09-.46s-.16-.43.1-.69.35-.58.56-.75a.75.75,0,0,1,.61-.19c.18,0,.18-.07.4-.11s.45.12.59-.05-.18-.25,0-.43a3.62,3.62,0,0,1,.53-.59c.22-.16.31-.47.62-.34s.44.19.44,0-.05-.3.14-.48.24-.36.39-.45.45,0,.57-.13.17-.17,0-.33a5,5,0,0,1-.54-.68c-.08-.13-.34-.53-.15-.53s.37,0,.25-.11-.22-.12-.44-.29a4.77,4.77,0,0,0-.62-.43c-.15-.06-.29,0-.55-.14a2.78,2.78,0,0,1-.64-.37,2.32,2.32,0,0,0-.8-.31c-.4-.08-1,.2-1.46-.14s-.82-.67-1.13-1-1-1-1.07-1.08-1.34-1.67-1.4-1.94-.06-.22.05-.31.27,0,.1-.45-.23-.78-.36-1.13a1.72,1.72,0,0,1-.21-.7,2.05,2.05,0,0,1,0-.78c.07-.1.2,0,0-.4s-.72-.77-.79-1-.18-.89-.29-1.25-.52-1.2-.59-1.41a2.75,2.75,0,0,1-.29-.79,8.28,8.28,0,0,1-.16-1.24c0-.6-.1-.92.05-1.25s-.06-.36.08-.64a5.94,5.94,0,0,1,.53-1.16,3.13,3.13,0,0,0,.45-.88c.09-.2-.12-.17.18-.7s.61-1,.8-1.41a15.76,15.76,0,0,1,.73-1.49,10.8,10.8,0,0,0,.69-1.11c.12-.23.61-1.65.71-1.85s.51-.84.58-.92,1.17-2.33,1.22-2.38l.69-.76c.07-.06.83-1.18,1.07-1.45s.6-.68.79-.94.64-1.12.85-1.44.64-1,.77-1.16a3.94,3.94,0,0,1,.43-.62c.29-.36,1.09-1.86,1.28-2.14a4.45,4.45,0,0,1,.66-.9,1.23,1.23,0,0,0,.4-.67,1.53,1.53,0,0,1,.32-.62c.18-.27.45-.84.68-1.2s2.12-3.61,2.17-3.65a1.85,1.85,0,0,1,.78-.27c.29,0,.57-.25.76-.33a1.55,1.55,0,0,1,.75-.17c.2,0,.23.14.45.09a3.3,3.3,0,0,0,.75-.46,14.67,14.67,0,0,0,1.21-1c.36-.34.69-.69.58-.72s0,0-.32,0a.92.92,0,0,1-.66-.17,2.18,2.18,0,0,1-.22-.17,3.59,3.59,0,0,1-.47-.56c-.07-.17,0-.26-.2-.35a2.51,2.51,0,0,0-.43-.16c-.06,0-.48,0-.22.11s.39.13.39.28,0,.25-.1.32-.06.23-.33.09-.62-.17-.64-.26a1.15,1.15,0,0,1,0-.49c0-.28,0-.39.15-.6a2.33,2.33,0,0,1,.47-.47c.19-.17,1-1.38,1.18-1.52a1.89,1.89,0,0,0,.42-.6,14.65,14.65,0,0,1,1.57-2.3c.35-.3.67-.66,1.05-1a8.39,8.39,0,0,1,1.19-.93,2.71,2.71,0,0,1,1.1-.13,1.75,1.75,0,0,0,.51,0c.2,0,.16.15.33-.13s0-.33.25-.47a1.24,1.24,0,0,1,.45-.24.81.81,0,0,0,.48-.22,6.62,6.62,0,0,1,1.27-.58c.51-.22,1.18-.38,1.51-.53s.93-.48,1.31-.62.6-.33.9-.42.9-.06,1.4-.13a4.17,4.17,0,0,0,1.4-.39c.38-.22.31-.35.8-.47s1.52-.39,2.1-.58.88-.32,1.18-.44a5.76,5.76,0,0,1,.9-.21c.42-.1.76-.11,1.19-.18a4.84,4.84,0,0,0,2-.77c.32-.38.46-.34.48-.88a2.17,2.17,0,0,1,.76-1.56,7.59,7.59,0,0,0,1.15-1.4,3.34,3.34,0,0,1,1-.88c.37-.27,1.37-.83,1.92-1.18s2.85-2,3.37-2.35,1.19-.57,1.61-.9.63-.41,1.06-.74.63-.54.84-.66.38-.11.58-.22.33-.34.52-.4.23-.06.45-.14.29-.23.45-.24.24.07.26-.11,0-.42.11-.55a1.54,1.54,0,0,1,.39-.34c.13-.07,0,0,.33-.12s.5-.23.61-.49a4,4,0,0,0,.22-.67,1.09,1.09,0,0,1,.32-.62c.16-.12.43-.08.58-.11s.16-.08.27-.25a1.62,1.62,0,0,1,.24-.4c.17-.18.32-.63.41-.71a1.79,1.79,0,0,0,.37-.4c.07-.12.15-.07.18-.31s-.27-.31-.22-.49.17-.23.22-.46-.22-.29-.31-.53-.39-.5-.35-.68a2,2,0,0,0,0-.54,1.09,1.09,0,0,1,.13-.6c.08-.09.39-.15.14-.33a4.87,4.87,0,0,1-.68-.69,1,1,0,0,0-.42-.29c-.25-.12-.4,0-.51-.3s.07-.4-.09-.59-.51-.35-.46-.68a2.27,2.27,0,0,1,.15-.71,8.65,8.65,0,0,0,.24-.94c.09-.22,0-.44.21-.48s.21-.2.5,0a.86.86,0,0,0,.66.25,1,1,0,0,0,.62-.09c.19-.11.31-.21.47-.29a.34.34,0,0,0,.18-.33c0-.14-.08-.23,0-.37s.12-.21.11-.31-.15,0-.11-.26.14-.32,0-.43-.15-.12-.17-.19-.07-.24-.2-.19-.08.32-.24.24a1.23,1.23,0,0,1-.43-.3c-.1-.13-.19-.28-.3-.25s-.23.19-.33.21-.48,0-.53-.09a.86.86,0,0,1-.07-.48c0-.25-.16-.59,0-.74s.36-.28.3-.48-.18-.3-.26-.24a8.94,8.94,0,0,1-.92.28,1.72,1.72,0,0,1-1.08-.18c-.31-.25-.55-.63-1-.6a4.49,4.49,0,0,0-1.32.47c-.49.22-.75.07-1.08.15s-.15.43-.9.6-1.45.27-1.71.75-.57,1.47-1.19,1.39a4,4,0,0,0-1.83.16c-.62.2-1,.33-1.38-.2a2.94,2.94,0,0,0-1.84-.93,2.19,2.19,0,0,1-1.31-.3,1.47,1.47,0,0,0-1.78,0,9.29,9.29,0,0,1-2,1.14c-.45.19-.94.69-1.39.49s-.85-.19-1.26-.81.66-.19.76-.61.23-.9-.15-.94-.27.22-.76.44-.46.64-.89.2a7.89,7.89,0,0,0-2.63-1.25,3.92,3.92,0,0,0-1.62.66A18.11,18.11,0,0,1,245,72.42a5.14,5.14,0,0,1-1.8.35c-.49,0-1.25,0-1-.47s.65-1.19.56-1.34-.67-.47-.69-.86.46-1,.3-1.65a9.44,9.44,0,0,0-1-2c-.21-.37-.3-.33-.4-.51s0-.37-.21-.44a1.48,1.48,0,0,0-.88-.12c-.4.09-1.69.22-1.93.23s-.65.33-1,0a5.47,5.47,0,0,1-.68-1.07c-.09-.17-.19-.2-.56-.33a5.73,5.73,0,0,1-1-.45,1.19,1.19,0,0,0-1.09,0c-.23.21-.66.1-.95-.2a1.21,1.21,0,0,0-.79-.46,3.19,3.19,0,0,0-1.33-.2c-.58.06-.56-.11-1,.15a.91.91,0,0,0-.45,1.08c0,.48.13,1.31.17,1.57s-.1.62-.34.69a5.64,5.64,0,0,1-1.23,0,10.49,10.49,0,0,0-1.81.26c-.46.1-1.31.28-1.48.09s-.58-.51-.83-.5a1.44,1.44,0,0,0-.82.53c-.12.2-.65.24-.69.21a1.44,1.44,0,0,1-.92-.31c-.32-.35-.71-.63-.95-.51s-.35.37-.71.4-.95-.12-1.21,0a3.33,3.33,0,0,0-.81.34c-.25.15,0,.44-.58.18s-.72-.15-.91-.34-.16-.12-.54-.27-.43-.2-.59-.53-.25-.69-.51-.71,0,.15-.6.06a1.25,1.25,0,0,1-.91-.39c-.3-.27-.36-.81-1.13-1s-1-.26-1.25,0a2,2,0,0,1-1.27.72c-.52,0-1-.07-1.34-.06a2.68,2.68,0,0,0-.87.12c-.33.12-.54.3-1-.25s-.66-1-1-1.12a5.3,5.3,0,0,1-1-.46c-.06-.11-.34-.35-.29-.61a1,1,0,0,0-.22-1.15c-.44-.36-.4-.51-1-.35s-.82.21-1.2.29-.7.29-1.16.12a6.3,6.3,0,0,1-1.51-1.23c-.3-.31,0-.55-.89-.53s-1.28.15-1.51,0-.33-.5-.8-.41-.63.31-.83.15-1-.19-1-.58,0-.86-.26-.74-.39-.21-.41.41.05.73-.22,1-.19.38-.7.23-.85,0-1.12-.43-.5-.48-.23-.73.47-.43.63-.61,0-.26.22-.73a5.08,5.08,0,0,0,.62-1.77c0-.43.19-.76-.28-.91a3,3,0,0,0-1-.25c-.33,0-.6-.31-.79-.3s-.33.06-.74.36-.51.84-.77.45-.54-.64-.52-.89,0-.77-.4-.67-.72.06-.88.11-.31.11-.41-.07,0-.72-.49-.7a3.65,3.65,0,0,1-.95,0c-.26-.06-.74-.42-.91-.3a6.39,6.39,0,0,1-1.12.62,5.43,5.43,0,0,0-1.17.28,4.82,4.82,0,0,1-.62.3c-.13.08-1.25.15-1.54.23a2.61,2.61,0,0,1-1,.32,2.56,2.56,0,0,1-1-.13c-.06-.05-.24-.43-.5-.32l-.52.2a.8.8,0,0,1-.59,0c-.23-.07-.12-.37-.49-.29a2.29,2.29,0,0,1-.92.09,3,3,0,0,1-.85-.41,4.7,4.7,0,0,1-.81-.13c-.17-.06-.33-.07-.45-.33a1.27,1.27,0,0,0-.44-.51c-.14-.09-.33-.34-.6-.29s-.34.22-.82.11-.55-.14-.61-.19l-.67-.49c-.06,0-.19-.24-.61-.09s-.42.18-.74.07a7.39,7.39,0,0,1-.77-.36c-.17-.08-.3-.38-.41-.44a.8.8,0,0,0-.61,0,1.27,1.27,0,0,1-.51.2c-.22,0-1.15-.17-1.2-.11a9.42,9.42,0,0,1-.69.67c-.26.24-.69.32-.66.5s.12.22.17.42a1.11,1.11,0,0,0,.26.52c.11.09.26.19.21.37s-.23.23-.45.12-.32-.26-.54-.38-.47-.35-.71-.34a1.33,1.33,0,0,1-.51-.1s-.2-.39-.46-.08a.86.86,0,0,1-.73.43c-.42.05-.78.07-.9-.22a2.59,2.59,0,0,0-.44-.69c-.2-.27-.26-.47-.55-.5s-.75,0-.83,0-.52.27-.51.08.25-.3.07-.39-.23-.23-.45-.1-.36.26-.44.12-.12-.24-.28-.18-.39,0-.34.22,0,.43-.2.35-.49-.12-.51-.24a.31.31,0,0,1,.08-.26.09.09,0,0,0,0-.17c-.13,0-.41-.15-.42-.22s.08-.27.21-.25.27-.27.36-.17.36.22.43.13.25-.26.1-.41-.36-.35-.55-.34-.22.12-.33.07-.2,0-.24-.13.12-.2-.09-.27-.37,0-.41-.13.06-.39-.06-.42-.17.16-.38.21-.19-.24-.38-.3-.23.17-.47.27-.41,0-.43.21.08.52-.17.56l-.67.07c-.1,0-.33,0-.37.11s-.3.18-.12.32.23.06.26.19.12.44,0,.5-.42-.07-.56-.09a.33.33,0,0,0-.32.08c-.07.07-.2,0-.26-.06s-.36,0-.37.12-.1.34-.32.21-.45,0-.3-.33a1.94,1.94,0,0,1,.3-.44s-.34-.25,0-.28.31.06.48-.09.29-.11.22-.28.08-.43-.32-.4a8.64,8.64,0,0,0-1.08.07,4.56,4.56,0,0,0-.84.23c-.16.08-.27,0-.41,0a4.48,4.48,0,0,0-.55.1c-.14,0-.36.15-.17.23s.23.26.13.3a.44.44,0,0,1-.29.06c-.2,0-.29,0-.33.07a.16.16,0,0,1-.19,0s-.14-.21-.22-.1,0,.15-.08.28-.07.35-.22.21-.07-.18-.22-.23-.22-.13-.39,0a1.89,1.89,0,0,0-.52.31c-.23.21-.32.17-.65.2s-.37-.09-.56.14-.11.34-.39.29a2.62,2.62,0,0,1-.58-.15c-.34-.11-.44,0-.74,0s-.55-.09-.72,0,0,.21-.27.21-.19-.08-.39-.08-.29-.09-.45.06a1.17,1.17,0,0,1-.36.24c-.13.07.13.16-.06.25s-.3.13-.31,0,.14-.26-.16-.3a1,1,0,0,0-.53,0c-.09,0-.1,0-.27-.07s-.15-.07-.34.07-.27.16-.4.08-.16-.08-.23,0,0,.26-.19.16a.83.83,0,0,1-.24-.16c-.12-.09-.16-.13-.5-.13a13.48,13.48,0,0,1-1.66-.2c-.26-.05-.7-.06-.9-.29s-.1-.39-.57-.47a9.87,9.87,0,0,0-1.14-.11.93.93,0,0,1-.47-.13,3.57,3.57,0,0,1-.55-.24l-.45-.31c-.06,0,.07-.23-.45-.25s-.19.15-.46.09-.46-.15-.66-.19a1.15,1.15,0,0,0-.52,0,1.11,1.11,0,0,1-.48-.1,1.22,1.22,0,0,0-.47-.17,1.75,1.75,0,0,1-.79-.28,2.58,2.58,0,0,0-1.18-.27c-.33,0-.55,0-.71-.09a4.66,4.66,0,0,0-.86-.72,1.88,1.88,0,0,0-.83-.32,3.77,3.77,0,0,1-.75-.17c-.22,0-.27-.07-.39.13a.61.61,0,0,1-.44.26c-.06,0-.06-.06,0-.18s.13-.28.09-.33,0-.1-.14-.2,0-.17-.42-.22-.68-.11-.88,0a1.88,1.88,0,0,1-.72.12,3.78,3.78,0,0,1-.57-.12,3.87,3.87,0,0,0-.56,0c-.13,0-.21-.08-.32-.08s-.44-.13-.54,0-.13.32-.37.29-.53-.12-.46-.24.16-.17,0-.23-.13-.12-.29-.08-.36.11-.46,0-.3-.14-.36-.31-.23-.31-.26-.46a1.89,1.89,0,0,0-.41-.66c-.19-.18-.15-.26-.45-.33s-.44,0-.5-.19-.11-.5-.25-.45-.12.2-.19.34-.25.22-.31.3-.05.26-.17.28-.28-.09-.31.09.12.29.17.44-.1.15-.21.3a.64.64,0,0,0-.1.36c0,.06-.09.08-.16.12s-.18.05-.21,0-.09-.2-.23-.14-.08.15-.33.14-.24,0-.49-.13a1.17,1.17,0,0,0-.51-.1c-.18,0-.3.17-.49.24s-.14-.07-.27.12-.17.27-.35.31-.17.16-.31.13-.18-.15-.23-.2,0-.2-.22-.17-.33.09-.41,0,0-.23-.22-.26-.34,0-.36-.11,0-.31-.2-.37-.29-.17-.39-.08a2.73,2.73,0,0,1-.52.42,1.61,1.61,0,0,1-.63.08c-.13,0-.15,0-.4.06s-.11,0-.39,0-.17-.11-.49-.08-.5,0-.56.05a.82.82,0,0,1-.24,0,.73.73,0,0,1-.3-.11s-.11-.23-.21-.19,0,.1-.25.25-.8.08-1,.09-.14-.07-.31,0-.22,0-.3,0l-.35,0a.85.85,0,0,1-.53-.07c-.09,0-.22-.21-.36-.15s-.07.19-.33.22-.62-.08-.72-.05a.2.2,0,0,1-.23-.08c-.09-.09-.23,0-.36.05s-.12.17-.42.13-.23-.13-.33-.12-.17.07-.33.17-.2,0-.3,0a.49.49,0,0,0-.36,0c-.14,0-.41,0-.45-.06s-.18-.09-.27-.09-.36-.06-.37-.13.12-.29-.22-.26-.76-.06-.92.05-.29.13-.4.24-.39.14-.49.22-.19.06-.49,0-.49-.13-.72-.07a1,1,0,0,1-.61-.11s0-.27-.27-.27a5.44,5.44,0,0,0-.7,0c-.19,0-.22-.13-.39-.14a1.54,1.54,0,0,0-.7-.06c-.28.09-.45-.06-.61,0s-.11.24-.3.18-.18,0-.09-.14.49-.14.23-.32-.74-.52-.82-.59-.38-.3-.41-.39a.93.93,0,0,0-.29-.39,2,2,0,0,1-.54-.92c0-.19.22-.22-.15-.41S86.33,42,86.2,42a2.89,2.89,0,0,1-.43-.1c-.16-.07-.47-.11-.43-.2a.62.62,0,0,0,0-.28s0-.09-.17-.1-.2-.1-.3-.12-.22-.07-.3,0-.1.12-.19.08-.09-.18-.21-.17a.37.37,0,0,0-.25.12c-.09.07-.16,0-.23.07s-.1.14-.1.22.11.17,0,.34a1.48,1.48,0,0,1-.8.45.21.21,0,0,1-.12-.35c.11-.09.2-.15.18-.3a.87.87,0,0,0-.23-.36c-.11-.15-.26-.15-.26-.29s.16-.23,0-.28-.35-.15-.47-.1-.08.15-.28.2-.4,0-.43,0-.16-.12,0-.31.15-.27.22-.4.08-.38.21-.48.24-.17.19-.26-.21-.21-.33-.12-.24.14-.24.29A1.08,1.08,0,0,1,81,40a.93.93,0,0,1-.31.29c-.11,0-.27,0-.39.09s-.36.23-.5.28-.09.1-.27.19-.43-.06-.51.06a1.23,1.23,0,0,0-.18.39c0,.1,0,.19-.15.25s0,.12-.3.16-.52.06-.55,0-.12-.3,0-.39.12-.13.24-.16.17-.07,0-.18-.36-.06-.27-.22.08-.22.21-.3a.5.5,0,0,0,.2-.41c0-.08,0-.18-.24-.13a1.37,1.37,0,0,0-.52.17c-.1.09-.3.25-.51.4a3.82,3.82,0,0,1-.51.25c-.13.09-.59.29-.6.32s.1.08,0,.16-.14.12-.28,0-.16-.28-.32-.25-.41.46-.41.46a1.51,1.51,0,0,0,.11.31c0,.13,0,.12-.06.3s0,.16.08.29.38.23.13.32a.68.68,0,0,1-.51,0,.77.77,0,0,0-.31-.05s-.16-.29-.28-.17,0,.21-.1.32-.29,0-.41.05-.23.09-.23.19a.35.35,0,0,1-.09.29.22.22,0,0,1-.34,0c0-.08,0-.25-.14-.21s0,0-.16.17-.29.25-.35.37,0,.15-.22.25-.48,0-.61.12-.33.1-.43.16a.59.59,0,0,1-.29,0c-.09,0-.3-.1-.36,0s-.29.07-.06.21.29.12.38.29.17.22.12.3a3.38,3.38,0,0,1-.33.34c-.24.26-.27.25-.44.45s-.33.23-.3.38.1.15.26.19a1.17,1.17,0,0,0,.41.09,1,1,0,0,0,.55-.07,1.33,1.33,0,0,1,.49-.13,1.48,1.48,0,0,1,.28.09.31.31,0,0,0,.34,0c.19-.09.24-.26.37-.16s.39.15.11.28a4.65,4.65,0,0,1-.67.34c-.13,0-.16-.07-.42,0s-.36-.08-.49.09a1,1,0,0,1-.33.27c-.1,0-.39,0-.22.12s.29,0,.45.13.08,0,.23.24.13.29.3.19.25-.37.48-.23a.37.37,0,0,1,.17.51c-.1.11-.28,0-.33.23s0,.31.08.37.33-.09.12.22-.28.18-.21.45-.1.23-.17.29A.37.37,0,0,1,71,49.5,2.52,2.52,0,0,1,70.8,49c-.08-.27-.09-.43-.29-.56s-.49-.42-.68-.43a4,4,0,0,0-.64-.07s-.22.06-.13.2a.92.92,0,0,1,.19.31.32.32,0,0,1,0,.26c-.06.13-.11.2-.19.36s-.22.33-.35.28-.52-.12-.3-.32a.9.9,0,0,0,.29-.6c0-.11,0-.28-.17-.32a.58.58,0,0,0-.41,0c-.13.07-.33.11-.43.25a1.23,1.23,0,0,1-.29.33,4.49,4.49,0,0,1-.49.37,3.64,3.64,0,0,0-.86.43,2.07,2.07,0,0,1-.58.4.93.93,0,0,1-.49.14c-.07,0-.45-.35-.49-.3s-.1.32-.18.37-.19,0-.36,0-.22,0-.29.11a.51.51,0,0,1-.32.11c-.14,0-.37-.1-.4,0a.81.81,0,0,1-.27.2c-.13.07.1.13-.3,0s-.29,0-.54-.15-.4-.06-.53-.3-.28-.35-.37-.54-.23-.37-.4-.37-.48.1-.53.23a.53.53,0,0,1-.25.26c-.1.05-.16,0-.28.07s-.31-.06-.34.07,0,.18,0,.36-.1.22-.22.23-.34-.07-.38,0a.41.41,0,0,1-.14.1s-.27-.16-.34-.14-.22.06-.17.17.24.06.3.24,0,.33.13.49.26.08.39.2.2.2,0,.29a.77.77,0,0,1-.39.11c-.17,0-.23-.09-.41,0a.51.51,0,0,1-.35,0s-.23-.13-.26-.06-.13.11-.1.22.05.27,0,.28a.4.4,0,0,0-.22.09A1.49,1.49,0,0,0,56.64,52.49Z"/><path class="cls-1" d="M6.15,250.71s-.29.25-.41,0,.12.09-.12-.24.53-.33-.25-.33-.65,0-.77.34-.29.21-.41.34-.25,0-.33.3a.83.83,0,0,0,0,.62c.08.29.16.33.16.62s-.16.49,0,.74.78.49.7.82-.61.45-.21.82.86.45.7.82-.51.46-.24,1,.73.7.93.33,0-.57.25-1-.16-.28.33-.61.61-.37.61-.74a3.64,3.64,0,0,1,0-.66c0-.37-.08-.41.2-.7a1,1,0,0,0,.33-.49c.12-.25.21-.21.17-.58a2.08,2.08,0,0,0-.29-.9c-.16-.25,0-.66-.29-.66A10.41,10.41,0,0,0,6.15,250.71Z"/><path class="cls-1" d="M3.08,267.82a1.32,1.32,0,0,0-.49.24,3.75,3.75,0,0,1-.73.58,1.69,1.69,0,0,0-.57.29,2.14,2.14,0,0,1-.41.29,2.8,2.8,0,0,1-.58,0c-.16,0-.36.08-.28.41s.17.49.5.57.48,0,.77.21.32.61.45.41,0-.21.24-.66-.24-.44.49-.81.9-.5.9-.75A2.55,2.55,0,0,0,3.08,267.82Z"/><path class="cls-1" d="M11.06,260.79c-.13.08-.41-.09-.54,0s-.4.45-.36.57a1.63,1.63,0,0,1,0,.62c0,.2-.32.29-.28.49s.08.29.37.54.57.2.82.45a.56.56,0,0,0,.69.16c.25-.08.29-.2.57-.2h.62c.12,0,.32.16.45,0s-.17-.33.2-.45.37-.11.49-.24.2-.23,0-.51-.29-.2-.37-.41-.12-.41-.28-.45a1.56,1.56,0,0,1-.45-.29,5.22,5.22,0,0,0-.66-.57,3.91,3.91,0,0,0-.73-.25c-.17,0-.21.33-.25.45S11.06,260.79,11.06,260.79Z"/><path class="cls-1" d="M20.58,257.08a4.57,4.57,0,0,1-.78,0c-.32,0-.53-.36-.65-.32s-.49.23-.7.32-.53.25-.69.34-.45-.33-.49,0,0,.53.16.65.41.17.49.33a4.41,4.41,0,0,0,.25.58c.12.2.37.2.37.49s-.13.62-.09.78.13.17.17.45,0,.5,0,.62.57.54.65.64a2.67,2.67,0,0,1,.25.77c0,.11-.08.36.08.52a2.1,2.1,0,0,0,.94.42,2.25,2.25,0,0,1,.94-.33,1.3,1.3,0,0,0,.86-.25,4.54,4.54,0,0,0,.37-.58c.16-.24.4-.15,1-.55s.77-.47.81-.8-.32-.54,0-.91.49-.49.49-.66-.32-.24,0-.61a3.23,3.23,0,0,0,.5-1.19v-.46s-.41-.46.16-.58a2.65,2.65,0,0,0,1-.28,1.19,1.19,0,0,0,.69-.78,4.23,4.23,0,0,1,.37-.87c.17-.2.08-.32.45-.37s1-.08,1-.32.09-.38-.36-.52a1.87,1.87,0,0,0-.94,0l-.7-.06s-1.14.16-1.18.33a1,1,0,0,1-.33.53c-.16.09-.45,0-.57.21a6.61,6.61,0,0,0-.37.82c-.21.41-.49.45-.57.74a1.67,1.67,0,0,1-.7.7c-.12,0-.24.4-.49.2s-.16-.13-.57,0a3.42,3.42,0,0,1-1.19,0s0-.36-.24-.36S20.58,257.08,20.58,257.08Z"/><path class="cls-1" d="M35.74,261.4a9.3,9.3,0,0,1-1.06,0c-.12,0-.37.18-.37.56a.94.94,0,0,1-.49.77c-.16.07-.49-.2-.65,0s-.37.15-.41.52,0,.78-.2.87-.49-.17-.21.28.7.62.61.91-.44,0,0,.78.37,1,.54,1.23.28.42.53.46.57,0,.73,0,1,.53,1.39.49.37.29.66,0a3,3,0,0,1,.57-.45c.2-.17,1.1-.37,1.31-.62s.55-.45.52-.66a1.55,1.55,0,0,1,0-.61c0-.29,0-.37.17-.54s.25-.25.21-.49-.21-.37-.17-.66a2.12,2.12,0,0,1,.18-.57s-.44-.62-.39-.75a1.57,1.57,0,0,0,0-.61c0-.13-.24-.62-.24-.62s.15,0,.24-.57.5-.25.09-.54a.57.57,0,0,0-.9.45c0,.41-.82.58-.86.33S35.74,261.4,35.74,261.4Z"/><path class="cls-1" d="M59.24,254.5l-.8,1.14a3,3,0,0,0-.4,1.17c.06.12-.52.55-.7.8a2.86,2.86,0,0,0-.28,1.14,2.42,2.42,0,0,1-.34.86,5.68,5.68,0,0,1-.61.68,10,10,0,0,1-1.1.65,5.9,5.9,0,0,1-1,.59,2.51,2.51,0,0,1-.68,0c-.34,0-.4.11-.61,0s-.43.1-.4.25-.12.22.28.28a1.14,1.14,0,0,0,.64,0,4.16,4.16,0,0,1,.58-.15,8.84,8.84,0,0,0,1.29.2c.49,0,.92-.6,1.13-.88s.34-.53.77-.56a1.71,1.71,0,0,0,1.16-.46,1.58,1.58,0,0,1,.77-.62c.37-.12.58-.37.83-.4s.4,0,.52-.15.12-.4.37-.49.92,0,1.07-.26a2.28,2.28,0,0,0,.55-1.62s.4-.22.49-.47-.15-.71,0-1.05.49-.3.52-.67a8.66,8.66,0,0,1,0-1.14c.1-.44.46-.59.56-.81A4.55,4.55,0,0,0,64,251.1,9.61,9.61,0,0,1,64,250c0-.21.11-.58-.16-.64l-.28-.06s-.18-.47-.37-.44-.18.16-.43.28a.75.75,0,0,1-.58,0c-.09,0-.21.4-.43.49s-.46-.33-.46-.33.12.18-.06.24-.43-.21-.43-.21-.58.34-.3.58.55.28.46.59-.5.8-.53.92,0,.22-.12.68a3.93,3.93,0,0,1-.49,1.3,3.88,3.88,0,0,0-.4.8Z"/><path class="cls-1" d="M65.68,243.73c-.19.13-.56.19-.59.37a2.17,2.17,0,0,1-.3.71c-.16.25-.31.37-.34.65s.15.28,0,.53,0,.21-.4.61-.64.53-.49.83.4.53.71.34.33-.46.49-.4,0,.37.36.31.59,0,.56-.34-.43-.52,0-.61.36-.1.79-.19.34-.25.71-.28.52,0,.61-.18,0-.37.22-.29a.42.42,0,0,0,.46,0,7.07,7.07,0,0,1,.85-.39c.34-.12.53-.19.59-.53s-.16-.4,0-.67.24-.47.24-.47a1.16,1.16,0,0,1,.31-1c.43-.37.61-.31.61-.87s.09-1.23-.21-1.35a.94.94,0,0,0-.74,0c-.21.06-1,.58-1,.95a1.35,1.35,0,0,1-.18.83c-.16.22,0,.53-.19.62s-.06.06-.37.06-.33.06-.55.22a.89.89,0,0,1-.58.15,1.53,1.53,0,0,0-.8.06A7.34,7.34,0,0,1,65.68,243.73Z"/><path class="cls-1" d="M69.29,239.88c-.23.08-.58.74-.58.74l-.21.37a.33.33,0,0,0,.39,0c.19-.15.62-.3.8-.57s.37-.54.37-.54.31-.19,0-.34-.12-.12-.31-.15-.57-.25-.4,0S69.81,239.69,69.29,239.88Z"/><path class="cls-1" d="M70,237.13l-.65.31a1.21,1.21,0,0,0,.65.16.74.74,0,0,0,.46-.23C70.55,237.26,70.16,237.06,70,237.13Z"/><path class="cls-1" d="M247,154.06a.33.33,0,0,0-.11.17c0,.09.09.18,0,.23a.83.83,0,0,1-.28.12.15.15,0,0,1-.19-.09s-.16,0-.22.09a.46.46,0,0,1-.11.34,1.73,1.73,0,0,1-.47.35c-.11,0-.29.07-.31.22s-.12.12,0,.32a.25.25,0,0,1-.06.37c-.08.07-.31,0-.15.22s.14.2.21.28.23.09.11.18a.29.29,0,0,1-.26.09c-.14,0-.17.11-.22.24a.14.14,0,0,1-.24.07c-.08-.07-.14-.17-.22-.09s0,.12-.12.22-.21.06-.24.12a.3.3,0,0,0,0,.31c.07.12.27.11.16.28s-.19.24-.21.35.11.28.14.42a1.42,1.42,0,0,0,.14.41c.07.14.24.36.38.2s.26-.49.43-.32.31.41.55.38.25-.1.37.07.14.18.3.09.31-.37.46-.11-.18.54.16.49a1.15,1.15,0,0,0,.58-.21c.09-.06.09,0,.11-.2s.11,0,0-.29-.29-.22-.06-.39.17-.22.23-.32.1-.39.15-.41a1.08,1.08,0,0,0,.34-.15c.12-.09.06-.29.29-.15s.41,0,.53-.25.4-.56.57-.57.23-.12.32-.23.1-.13.13-.31.07-.28.23-.35.07-.07.23-.25,0-.11.15-.19.21.05.21-.23.1-.23.17-.35.13-.14,0-.26-.44,0-.46-.27,0-.26.09-.43a.45.45,0,0,0,0-.38s-.24,0-.19-.17.23-.2.06-.31-.23.14-.43.15-.48.11-.48-.09.26-.32-.07-.42-.37.08-.4.17-.11.11-.37.08-.14.11-.26.25a.92.92,0,0,1-.52.17c-.05,0,0,.14-.17.23s-.29.07-.31,0a.09.09,0,0,0-.15-.06c-.05,0,0,.23-.17.28A.57.57,0,0,1,247,154.06Z"/><path class="cls-1" d="M248.73,162.44c-.13-.13-.43-.37-.44-.23s.16.36,0,.39-.17-.06-.36,0-.4,0-.36.17.23.32.24.48-.17.13-.14.35.09.39.09.6a.73.73,0,0,0,.07.39c0,.09-.05.23.21,0a3,3,0,0,0,.51-.64.49.49,0,0,1,.58-.26,3.83,3.83,0,0,1,.9.34,4.1,4.1,0,0,0,.6.43.38.38,0,0,0,.51,0c.15-.19.3-.26.35-.42a.63.63,0,0,0-.23-.52c-.11,0-.14-.18-.34-.07a4.44,4.44,0,0,0-.46.33c-.09.06-.2.09-.38-.06a5.82,5.82,0,0,0-.55-.42,1.11,1.11,0,0,1-.42-.34A2.6,2.6,0,0,0,248.73,162.44Z"/><path class="cls-1" d="M268.13,137.25c-.14.06-.51.08-.53.16a2.66,2.66,0,0,1-.27.56,8.27,8.27,0,0,1-.83.84,4,4,0,0,1-.62.37c-.22.15-.47.66-.61.7s-.39,0-.47.21-.27.31-.31.51-.06.23.08.39.25.12.41.23a.46.46,0,0,1,.25.41,3.13,3.13,0,0,0,0,.43c0,.16,0,.31.18.25s.08-.29.31-.33.28.11.49.34a2.23,2.23,0,0,0,.57.42c.12.08.08.14.25.27a.8.8,0,0,0,.45.2c.18,0,.3.15.4,0s.15-.29.29-.47a.91.91,0,0,0,.23-.41c0-.15-.19-.19,0-.35s.08-.33.36-.31a.43.43,0,0,0,.43-.17c.1-.1,0-.14.31-.28s.69-.52.84-.39a4.84,4.84,0,0,0,.55.35c.2.12,0,.21.39.32a1.2,1.2,0,0,1,.63.42c0,.06.33.37.29.51s-.23.16-.31.35-.1.22.08.5.53.3.53.49a7.53,7.53,0,0,0-.16.8c0,.22.23.35.35.51s-.17.27.39.31.32-.08.71-.14a.6.6,0,0,1,.59.15c.17.09.41.3.56.2s.26-.39.34-.44.19,0,.33.05.06-.27.29-.15a2,2,0,0,1,.38.29c.13.1.41.53.33.64s-.44.26-.19.31.36-.05.54,0a2.33,2.33,0,0,1,.61.43c.15.1.08.08.23.22s.18,0,.28.23.43,0,.53-.12,0-.23.31-.33.19-.06.43-.31a2.8,2.8,0,0,0,.43-.56c.16-.22.16-.08.41-.39a1.68,1.68,0,0,1,.45-.47c.16-.12.08-.18.39-.37s.49-.14.59-.41.06-.35.18-.8a4.56,4.56,0,0,1,.25-.85c.22-.59,0-.49.24-.78a1.17,1.17,0,0,0,.29-.76c0-.33-.1-.18.12-.57s.21-.46.35-.64a1.47,1.47,0,0,1,.45-.39.63.63,0,0,0,.31-.35c0-.12-.15-.08,0-.31a2,2,0,0,0,.22-.39c.08-.18-.18-.25.08-.31s0,.17.27-.06.35-.14.35-.45-.15-.39,0-.58.28-.33.24-.47.06-.29,0-.43,0-.39-.15-.58-.08-.37-.29-.35-.33.23-.47.09a3.76,3.76,0,0,1-.45-.6c-.1-.19-.3-.31-.43-.23l-.12.09s-.12.16-.2.12-.27-.37-.41-.35.1.29-.06.49a7.37,7.37,0,0,1-1.13.93c-.14.06-.16.16-.69.1a2.68,2.68,0,0,1-1.15-.47c-.28-.17-.43-.06-.69-.25s-.6-.23-.6-.55-.14-.52,0-.81a1.11,1.11,0,0,1,.65-.45.72.72,0,0,0,.41-.41,2.53,2.53,0,0,0,.2-.55c0-.15.17-.29.06-.35s-.26-.25-.34,0-.17.49-.29.53-.69.1-.76.12a2.58,2.58,0,0,1-.43.07c-.08,0-.22.08-.28-.13s-.33-.12-.12-.43a1.11,1.11,0,0,1,.38-.43c.15-.1.25-.12.35-.27s-.24-.31.25-.33.49.27.59,0,0-.29.2-.41.39-.06.33-.22-.45-.09-.51,0-.08-.19-.22-.1-.29.32-.45.36-.33-.12-.41-.1-.27.25-.39.35a2.84,2.84,0,0,1-.49.37,4,4,0,0,1-.48-.19s-.2.17-.38.35-.08.44-.35.44a2,2,0,0,1-.67,0c-.15-.06,0-.39-.27-.24a.73.73,0,0,0-.35.45c0,.08.11.23-.16.33s-.51.18-.57.29a.92.92,0,0,1-.43.24c-.1,0-.27.15-.35.17s-.16-.06-.28.08-.39.08-.41.17.1.39-.1.43-.39-.11-.56,0a2.72,2.72,0,0,0-.59.45,10.16,10.16,0,0,1-.86.68s.06.06-.14.24-.14.33-.27.42-.26.08-.32.2a2.74,2.74,0,0,1-.27.35c-.1.12-.12,0-.33.16s-.34.19-.28.35.08.31,0,.39A2.43,2.43,0,0,1,268.13,137.25Z"/><path class="cls-1" d="M295.66,126.37c-.08,0-.08.13-.18.25s0,.15-.17.23-.18-.06-.36,0-.29.19-.35,0-.06-.33-.17-.29a.7.7,0,0,0-.3.27c-.06.1-.15.07-.29.11s-.12.15-.24.22-.21,0-.27,0-.1-.15-.33-.19-.45-.29-.49,0-.16.22-.26.25-.1.09-.33,0a1.08,1.08,0,0,0-.59-.09l-.45.25s-.21-.12-.23.17a1.42,1.42,0,0,1-.14.65c-.08.09-.24,0-.18.21s.1.31.41.23.38-.29.47-.13,0,.31,0,.48.2.37.08.41-.19.1-.17.2-.1,0-.1.17a.3.3,0,0,0,.35.28,4,4,0,0,1,.84,0c.37,0,.3.14.49,0a.74.74,0,0,1,.35-.17s-.45-.12-.1-.21a1.42,1.42,0,0,1,.77.09c.16,0,.22,0,.74.16s.16-.09.87.2l1.25.52a3.54,3.54,0,0,1,.72.49,6.06,6.06,0,0,1,.55.48c.2.18.43.18.53.28s.22.23.37.19,0-.07.26,0,.31.11.43,0,.23-.13.21-.3-.2-.35,0-.47.26-.17.2-.31-.1-.1-.26-.31-.37-.23-.17-.36.47.09.53,0-.34-.44-.38-.58-.05-.31-.27-.39-.53-.21-.55-.29-.27-.15-.19-.29l.15-.25c.08-.12.3-.51-.11-.51a6.41,6.41,0,0,1-.65,0c-.14,0-.31-.27-.45-.47s-.18-.25-.26-.23a.79.79,0,0,1-.31-.08.16.16,0,0,0-.21-.13c-.18,0-.18.25-.26.25a.26.26,0,0,1-.23-.06c-.08-.08-.34-.19-.34-.33a.83.83,0,0,0,0-.35C295.82,126.37,295.66,126.37,295.66,126.37Z"/></g></svg>