<?xml version="1.0" encoding="UTF-8" standalone="no"?><!DOCTYPE svg PUBLIC "-//W3C//DTD SVG 1.1//EN" "http://www.w3.org/Graphics/SVG/1.1/DTD/svg11.dtd">
<svg width="100%" height="100%" viewBox="0 0 223 212" version="1.1" 
    xmlns="http://www.w3.org/2000/svg" 
    xmlns:xlink="http://www.w3.org/1999/xlink" xml:space="preserve" 
    xmlns:serif="http://www.serif.com/" style="fill-rule:evenodd;clip-rule:evenodd;stroke-linejoin:round;stroke-miterlimit:1.41421;">
    <g>
        <path id="Bogen" d="M215.505,143.346c-15.855,9.401 -32.094,20.064 -48.331,31.86c-16.236,11.796 -31.395,23.946 -45.236,36.12c5.097,-18.415 17.292,-36.34 35.477,-49.552c18.185,-13.212 39.001,-19.271 58.09,-18.428Z" style="fill:url(#_Linear1);"/>
        <path id="Bogen1" serif:id="Bogen" d="M6.697,143.346c15.856,9.401 32.095,20.064 48.331,31.86c16.237,11.796 31.396,23.946 45.236,36.12c-5.097,-18.415 -17.292,-36.34 -35.477,-49.552c-18.185,-13.212 -39.001,-19.271 -58.09,-18.428Z" style="fill:url(#_Linear2);"/>
        <path id="Bogen2" serif:id="Bogen" d="M0,122.733c7.301,-16.925 14.171,-35.096 20.373,-54.183c6.202,-19.087 11.325,-37.826 15.366,-55.811c6.7,17.894 7.37,39.564 0.424,60.941c-6.946,21.378 -20.225,38.515 -36.163,49.053Z" style="fill:url(#_Linear3);"/>
        <path id="Bogen3" serif:id="Bogen" d="M222.202,122.733c-7.301,-16.925 -14.171,-35.096 -20.373,-54.183c-6.201,-19.087 -11.324,-37.826 -15.366,-55.811c-6.7,17.894 -7.37,39.564 -0.424,60.941c6.946,21.378 20.225,38.515 36.163,49.053Z" style="fill:url(#_Linear4);"/>
        <path id="Bogen4" serif:id="Bogen" d="M53.274,0c18.353,1.713 37.758,2.632 57.827,2.632c20.07,0 39.475,-0.919 57.828,-2.632c-14.948,11.902 -35.35,19.235 -57.828,19.235c-22.478,0 -42.88,-7.333 -57.827,-19.235Z" style="fill:url(#_Linear5);"/>
    </g>
    <g>
        <path d="M75.034,138.834c0.938,0 1.917,0 1.917,-2.713c0,-2.675 -1.02,-2.96 -1.917,-2.96l-4.858,0l0,5.673l4.858,0Zm-6.368,-7.203l6.368,0c1.938,0 3.447,1.104 3.447,4.49c0,3.878 -2.019,4.202 -2.591,4.284l3.142,6.163l-1.632,0l-3.142,-6.1l-4.082,-0.285l0,6.385l-1.51,0l0,-14.937Z" style="fill:#4a4949;fill-rule:nonzero;"/>
        <path d="M86.457,145.141c3.183,0 4.246,-0.857 4.246,-5.939c0,-6.102 -1.471,-6.163 -4.246,-6.163c-2.715,0 -4.286,0.061 -4.286,6.163c0,5.243 1.063,5.939 4.286,5.939m0,-13.612c3.53,0 5.755,0.674 5.755,7.673c0,6.592 -2.083,7.448 -5.755,7.448c-3.674,0 -5.795,-0.652 -5.795,-7.448c0,-6.999 2.366,-7.673 5.795,-7.673" style="fill:#4a4949;fill-rule:nonzero;"/>
        <path d="M94.64,135.142c0,-2.96 1.754,-3.634 4.041,-3.634c1.082,0 4.325,0.388 5.1,0.49l0,1.224c-1.305,-0.082 -5.1,-0.204 -5.1,-0.204c-1.43,-0.061 -2.529,0.084 -2.529,2.124l0,1.346c0,1.857 0.854,2 2.078,2l2.899,0c2.716,0 3.185,1.836 3.185,3.508l0,1.39c0,2.897 -2.104,3.345 -4.123,3.345c-1,0 -4.164,-0.346 -5.102,-0.51l0,-1.224c0.818,0.082 3.205,0.225 5.102,0.225c0.836,0 2.611,-0.041 2.611,-1.836l0,-1.39c0,-1.16 -0.347,-1.997 -1.673,-1.997l-2.856,0c-3.266,0 -3.633,-1.797 -3.633,-3.511l0,-1.346Z" style="fill:#4a4949;fill-rule:nonzero;"/>
        <path d="M105.942,131.631l10.368,0l0,1.51l-4.49,0l0,13.428l-1.512,0l0,-13.428l-4.366,0l0,-1.51Z" style="fill:#4a4949;fill-rule:nonzero;"/>
        <path d="M123.733,145.141c3.183,0 4.243,-0.857 4.243,-5.939c0,-6.102 -1.468,-6.163 -4.243,-6.163c-2.713,0 -4.286,0.061 -4.286,6.163c0,5.243 1.061,5.939 4.286,5.939m0,-13.612c3.529,0 5.753,0.674 5.753,7.673c0,6.592 -2.083,7.448 -5.753,7.448c-3.674,0 -5.798,-0.652 -5.798,-7.448c0,-6.999 2.367,-7.673 5.798,-7.673" style="fill:#4a4949;fill-rule:nonzero;"/>
        <path d="M136.297,131.467c1.063,0 3.55,0.245 4.98,0.513l0,1.201c-0.02,0 -3.103,-0.204 -4.98,-0.204c-2.55,0 -3.465,1.165 -3.465,6.122c0,3.348 0.752,6.082 3.465,6.082c2.142,0 4.98,-0.143 4.98,-0.143l0,1.204c-1.43,0.265 -3.917,0.448 -4.98,0.448c-3.776,0 -4.975,-3.243 -4.975,-7.629c0,-4.778 0.916,-7.594 4.975,-7.594" style="fill:#4a4949;fill-rule:nonzero;"/>
        <path d="M143.823,131.631l1.51,0l0,6.694l1.673,0l4.694,-6.694l1.836,0l-5.143,7.449l5.143,7.489l-1.836,0l-4.694,-6.735l-1.655,0l0,6.735l-1.528,0l0,-14.938Z" style="fill:#4a4949;fill-rule:nonzero;"/>
    </g>
    <g>
        <path d="M50.826,66.287l13.862,0l0,20.794l12.148,0l0,-20.794l13.862,0l0,52.306l-13.862,0l0,-19.078l-12.148,0l0,19.078l-13.862,0l0,-52.306Z" style="fill:#878787;fill-rule:nonzero;"/>
        <path d="M113.346,65.716c10.287,0 12.719,0.572 18.865,2.857l0,10.792c-0.075,0 -7.22,-1.217 -14.578,-1.217c-6.001,0 -8.503,-0.286 -8.503,14.293c0,11.719 1.357,14.147 8.575,14.147c7.503,0 14.506,-0.643 14.506,-0.643l0,10.79c-4.432,1.859 -8.29,2.502 -18.865,2.287c-13.218,-0.215 -18.078,-9.147 -18.078,-26.724c0,-16.721 3.858,-26.582 18.078,-26.582" style="fill:#878787;fill-rule:nonzero;"/>
        <path d="M152.516,65.716c10.287,0 12.717,0.572 18.86,2.857l0,10.792c-0.07,0 -7.215,-1.217 -14.576,-1.217c-5.998,0 -8.503,-0.286 -8.503,14.293c0,11.719 1.358,14.147 8.578,14.147c7.503,0 14.501,-0.643 14.501,-0.643l0,10.79c-4.429,1.859 -8.285,2.502 -18.86,2.287c-13.219,-0.215 -18.081,-9.147 -18.081,-26.724c0,-16.721 3.861,-26.582 18.081,-26.582" style="fill:#878787;fill-rule:nonzero;"/>
    </g>
    <defs>
        <linearGradient id="_Linear1" x1="0" y1="0" x2="1" y2="0" gradientUnits="userSpaceOnUse" gradientTransform="matrix(-93.567,67.9799,-11.3062,-15.5615,209.852,135.565)">
            <stop offset="0" style="stop-color:#850000;stop-opacity:1"/>
            <stop offset="1" style="stop-color:#ff1414;stop-opacity:1"/>
        </linearGradient>
        <linearGradient id="_Linear2" x1="0" y1="0" x2="1" y2="0" gradientUnits="userSpaceOnUse" gradientTransform="matrix(93.567,67.9799,11.3062,-15.5615,12.3505,135.565)">
            <stop offset="0" style="stop-color:#ffe082;stop-opacity:1"/>
            <stop offset="1" style="stop-color:#e4b600;stop-opacity:1"/>
        </linearGradient>
        <linearGradient id="_Linear3" x1="0" y1="0" x2="1" y2="0" gradientUnits="userSpaceOnUse" gradientTransform="matrix(35.7394,-109.994,18.2938,5.94396,9.14689,125.705)">
            <stop offset="0" style="stop-color:#cade19;stop-opacity:1"/>
            <stop offset="0.53" style="stop-color:#b3c616;stop-opacity:1"/>
            <stop offset="1" style="stop-color:#67730d;stop-opacity:1"/>
        </linearGradient>
        <linearGradient id="_Linear4" x1="0" y1="0" x2="1" y2="0" gradientUnits="userSpaceOnUse" gradientTransform="matrix(-35.7394,-109.994,-18.2938,5.94396,213.056,125.705)">
            <stop offset="0" style="stop-color:#dc00a1;stop-opacity:1"/>
            <stop offset="1" style="stop-color:#6b0050;stop-opacity:1"/>
        </linearGradient>
        <linearGradient id="_Linear5" x1="0" y1="0" x2="1" y2="0" gradientUnits="userSpaceOnUse" gradientTransform="matrix(115.655,0,0,19.2351,53.2736,9.61754)">
            <stop offset="0" style="stop-color:#85ceff;stop-opacity:1"/>
            <stop offset="1" style="stop-color:#005f9e;stop-opacity:1"/>
        </linearGradient>
    </defs>
</svg>