<svg id="LANGUAGES" xmlns="http://www.w3.org/2000/svg" xmlns:xlink="http://www.w3.org/1999/xlink" viewBox="0 0 50 50"><defs><style>.cls-1{fill:none;}.cls-2{clip-path:url(#clip-path);}.cls-3{fill:#fff;}</style><clipPath id="clip-path"><circle class="cls-1" cx="25" cy="25" r="25"/></clipPath></defs><title>WEBSITES_LANGUAGES_FLAGS</title><g id="GREECE"><g class="cls-2"><path class="cls-3" d="M25,0A25,25,0,1,0,50,25,25,25,0,0,0,25,0Zm0,46.56A21.56,21.56,0,1,1,46.56,25,21.59,21.59,0,0,1,25,46.56Zm0,0"/><path class="cls-3" d="M32.79,33.11a2.82,2.82,0,0,1-.07.31,6.73,6.73,0,0,1-.78.71c-.32.19-.68.19-.72.67,0,.16.12.38.12.48s-.24.45-.24.45a1.33,1.33,0,0,0-.22.2c0,.14,0,.29.09.36s0,.11,0,.23a.41.41,0,0,0,.43.45c.62-.07.77-.65,1-1.09A4.49,4.49,0,0,0,33,34.13l.17,0c0-.05,0-.11,0-.15-.09-.25,0-.89-.36-.91Zm0,0"/><path class="cls-3" d="M40.9,26.88c0,.14.08.29.18.29s.23-.26.24-.46-.19-.46-.29-.71c0,.32-.11.56-.13.88Zm0,0"/><path class="cls-3" d="M43.64,27.42s0,0,0,0,0-.26-.11-.31,0,0-.12,0,0-.08-.07-.08,0,0,0,0a.2.2,0,0,0,0,.07c0,.09,0,.32.09.34s.06,0,.07.07a1.09,1.09,0,0,0,0,.24c0,.12.08.07.1.26a1.38,1.38,0,0,0,0,.29s0,0,0,0,0,.07,0,.07c0-.23.07-.46.11-.69l0-.07c0-.08,0-.18-.09-.21Zm0,0"/><path class="cls-3" d="M43.53,28.59s0,0,0,0,0,0,0,0,0,.18,0,.18a.34.34,0,0,0,0-.18v0Zm0,0"/><path class="cls-3" d="M43.46,28.1s0,0,0,0,0,.16.05.18,0-.15,0-.21Zm0,0"/><path class="cls-3" d="M32.88,9.23c.15,0,.09.08.16.13s.16,0,.22.05a.1.1,0,0,1,.07,0L34,9.6l0,0c-.2-.11-.48-.19-.52-.3s.45-.25.84-.18c.14,0,.15,0,.34,0s.09,0,.14,0c.24,0,.42.11.66.16a1.11,1.11,0,0,1,.23.07l-.3-.21A5.87,5.87,0,0,1,34.75,9a2.6,2.6,0,0,0-.25-.1c-.14-.05-.13,0-.23-.05-.29-.08-.46,0-.66-.06a2,2,0,0,0-.32-.06s-.09,0-.08,0,.07,0,.08.06-.39,0-.39.07.12,0,.15.09c-.13,0-.39-.05-.38,0V9c0,.07-.24,0-.22.06s.17.1.17.1l.26.05Zm0,0"/><path class="cls-3" d="M37.57,11s.13,0,.22.09l-.32-.3s0,0-.06,0,.07.14.16.18Zm0,0"/><path class="cls-3" d="M37.87,11.11c-.11,0-.2-.1-.21-.08s.18.27.06.22l-.09.05a.47.47,0,0,1-.28,0c-.09,0,0-.13-.06-.14s.19,0,.17-.07,0-.05,0-.08-.17-.11-.2-.17-.05-.17-.11-.26A.52.52,0,0,0,37,10.4s0,0,0,0l-.34-.27h0l-.14-.1s0,0,0,0v0a.3.3,0,0,0-.13,0c-.1,0-.09.1-.18.1s-.17,0-.22,0,.13.1.15.13-.06.08,0,.13l.32.18c.19.17.19.21,0,.15s-.25-.15-.39-.21-.55-.26-.71-.33c-1.13-.44-.57,0-.61,0-.49,0-.27-.15-.42-.2a4.75,4.75,0,0,1-1.25-.14s.22,0,.17-.07a3.6,3.6,0,0,0-1,0c-.16,0-.31,0-.46,0s0,.21-.51.11c-.11,0-.4-.13-.36-.19s.45.08.45,0-.64-.4-.82-.26.19.08,0,.24.19.08.19.17-.32,0-.41,0,0-.11-.09-.11-.59.14-.72.14.14.16.08.2a3.93,3.93,0,0,1-1.09-.2.9.9,0,0,0,.15.19l.37.1c-.24,0-.37.05-.55,0a.88.88,0,0,1-.3-.1c-.07,0,0-.1-.05-.16a2.55,2.55,0,0,0-.36-.27,8.34,8.34,0,0,1,1.11.11c.58.09,1.68-.12-.07-.49a8.16,8.16,0,0,0-1.22-.23,2.16,2.16,0,0,0-.54-.09l-.37,0s-.09,0-.21-.06c.27,0,.37,0,.46-.07l-.41-.07a.17.17,0,0,0-.16.05c-.13,0-.11,0-.12-.08a2.54,2.54,0,0,0-.43.08s0,0-.06-.06a3.15,3.15,0,0,1-.5.1c.05,0,.24,0,.25-.11s-.44,0-.62,0a.78.78,0,0,1-.24-.05s-.24,0-.24.05.08,0,.17,0a1.8,1.8,0,0,0-.55.1V8.71c-.25,0-.28.1-.43.11v0c-.18,0-.37,0-.5.06a.13.13,0,0,0,.09,0,2.33,2.33,0,0,1-.38,0,.62.62,0,0,0-.24.07h.17s-.15.06-.2.07a1.44,1.44,0,0,1-.21,0c.05,0,0,0-.07,0l-.09.06H22.1c-.07,0-.14,0-.16.07s-.07,0,0,0a.91.91,0,0,0-.2.08,7.9,7.9,0,0,0,.82-.09,1.49,1.49,0,0,1-.57.29,1.28,1.28,0,0,0-.5.2l-.11.11c-.07,0-.08.13-.2.19a5,5,0,0,1-1,.33h.25c-.37,0-.38.13-.58.17a1,1,0,0,0-.47.21c-.06,0-.17.08-.18.15a.44.44,0,0,0,.22.39c-.05,0-.16.1-.17.14l.27,0a.17.17,0,0,1,0,.07s-.18,0-.19.09a2,2,0,0,0,.46.1,2.47,2.47,0,0,0,1.07-.39.83.83,0,0,0,.21.1s-.06,0-.06.07.14.09.2.17,0,.17.21.25c0,0,0,0,0,.05s.09.27.17.28c.28,0,.33-.25.52-.27h.39c.05-.1.3-.12.34-.25s-.16,0-.16-.08,0-.29.2-.3.43-.14.43-.21,0-.22-.23-.22a.09.09,0,0,0-.08-.09l-.17-.12c.18,0,.08-.12.15-.19a1.43,1.43,0,0,1,.46-.17c.22,0,.71-.21.72-.32s0,0,0-.09.26-.23.61-.23.61,0,.61.13-.45.24-.6.28-.2.21-.65.22c0,0,0,.19,0,.22a.16.16,0,0,0,.14.14s-.16,0-.16.11.23.15.46.15c0,0,.05.06.18.07s.32,0,.54,0a.79.79,0,0,0,.52-.13c.1.05.55.06.64.14-.13,0-.24.16-.39.16s-.56-.08-.81-.08-.9.24-.74.31.35-.07.54.08-.07.23-.15.23-.26-.11-.44-.12-.38.33-.4.46-.37.14-.41.32a2.61,2.61,0,0,1-.4,0l.05,0a1.89,1.89,0,0,0-.37,0,3.56,3.56,0,0,0-.42.12,4.4,4.4,0,0,0-.45,0,.59.59,0,0,1-.19.06s-.18-.06-.18-.08l.07-.06c-.26,0-.46.13-.76.15a3.15,3.15,0,0,1-.3-.24c-.07,0,.09.15,0,.17s0,0,0-.06-.11,0-.11-.09.14-.15.25-.22.13,0,.13-.07v0c-.07,0-.2,0-.2,0a.25.25,0,0,1,.07-.16s0,0,0-.06c-.27.11-.67.16-.71.39s.15.17.19.31.07.11.07.15a.82.82,0,0,1-.25.11.74.74,0,0,0-.26,0s-.07,0-.09,0,0,0-.15,0a2.52,2.52,0,0,0-.8.41s-.11.06-.11.08,0,.16-.07.23l-.54.2-.14,0c-.08.18,0,.22-.31.26a.27.27,0,0,1-.18.12.54.54,0,0,1-.3-.05H17V14s0,.12,0,.14v0l-.24.06c-.07,0-.23,0-.26-.05s-.38.11-.39.17v0c0,.11.42.11.58.12s.05,0,.11.05.1.36.31.34c0,.06.05,0,.05.11a.61.61,0,0,1-.05.12s0,0,0,0,0,.19,0,.21-.2.15-.21.3l-.27.07c-.1,0-.15,0-.27,0l-.48.05a.32.32,0,0,1-.17,0l-.44.05c-.05,0-.11,0-.15,0a2.33,2.33,0,0,0-.41.24c0,.06.1.15.08.27s-.13.39-.14.58c0,0-.12.09-.13.18s.07.1.14.09a3.73,3.73,0,0,1,0,.46.07.07,0,0,0,.08.07c.16,0,.25-.08.43-.1s.2.34.36.33.37-.22.61-.25c.05,0,.24-.05.32-.05h0c.2.05.24-.21.37-.28a1.34,1.34,0,0,0,.45-.5s-.09,0-.09-.09a1,1,0,0,1,.53-.55.8.8,0,0,0,.54-.28.84.84,0,0,1-.05-.17c0-.1.18-.19.35-.21s.14.07.39.06.38-.15.6-.24.11-.13.31-.14c.43,0,.68.16.67.45,0,0,.18.08.26.13a1,1,0,0,0,.61.22c0,.05.18.08.22.08a5.84,5.84,0,0,0,.56.42c0,.06.11.1.11.22a.21.21,0,0,1-.2.22s0,.07.12.06.17-.19.27-.26.11-.09.11-.12-.1-.05-.1-.15,0-.21.16-.21.2.1.37.11c0-.16-.29-.29-.52-.36-.06,0-.34-.05-.3-.15l0-.06a1.77,1.77,0,0,1-.46,0c-.07,0-.18-.22-.22-.33a.44.44,0,0,0-.29-.22c-.13,0-.23-.06-.23-.18a.53.53,0,0,1,.06-.14s-.06,0-.06,0,.25-.09.37-.15,0,.2.15.19h.33c0,.18.34.48.59.48h.16c0,.1.18.11.34.16s.41.21.41.32,0,.13,0,.2,0,.18.09.28a.6.6,0,0,1,.24.26s0,.08.07.08a1.34,1.34,0,0,1,.2,0s-.15.18-.15.25a.5.5,0,0,0,.44.4.43.43,0,0,0,.16,0c-.12,0,0-.19,0-.24a.64.64,0,0,0-.07-.28v-.07c.05,0,.18.22.3.25h0a.41.41,0,0,1,.2-.17.22.22,0,0,0-.05-.08,1.36,1.36,0,0,1-.4-.22s0-.06,0-.1l-.22-.17s.09-.09.13-.09.12.13.3.12a.2.2,0,0,0,0-.17A1.29,1.29,0,0,1,25.1,16c.21,0,.21.08.39.09a1,1,0,0,0,.39,0,3.19,3.19,0,0,1,.42,0s.11,0,.15,0-.38-.17-.38-.33.2-.27.31-.34v-.19c0-.05,0,0,.07-.11s.12-.11.23-.13a.53.53,0,0,0,0-.12c.25,0,.28-.31.53-.32a3.76,3.76,0,0,0,.68.16s-.24.11-.22.13a2.24,2.24,0,0,0,.44.3,2.86,2.86,0,0,0,.78-.21,2.91,2.91,0,0,1-.31,0s-.19,0-.2-.12a6.62,6.62,0,0,1,1.11-.28.89.89,0,0,1-.2.11s.34.26-.32.35c.32.44,1.54.51,1.59,1.14h.05a1.31,1.31,0,0,1-.54.16c-.21,0-.42,0-.64,0s-.55-.07-.57-.17c-.26,0-.24-.12-.56-.14a2.3,2.3,0,0,0-.66.05,1.44,1.44,0,0,1-.47.15h-.35s-.28,0-.28,0,.07,0,.09.1c-.21.06-1.2-.07-1.23.17,0,0,.12,0,.2,0s0,.05,0,.09-.11.15-.24.22a.87.87,0,0,1,.39.28c-.1.11.22.26.31.32l-.1.06h.13c.23-.08.34.18.57.19s.15-.23.4-.23.48.29.72.3.39-.12.58-.24a.34.34,0,0,0,.23.08c.07,0,.13-.06.22-.08v.1a.15.15,0,0,0-.07.1c0,.12.05.28.06.45s-.22.29-.28.5l-.18.56s-.09,0-.09.11l.07.17,0-.1a1,1,0,0,1-.35,0c-.26,0-.5-.12-.73-.12s-.16.1-.55.11a5.68,5.68,0,0,1-1.33-.3c-.19-.07-.46,0-.56-.11s-.18-.09-.18-.25H24.3l0,0c-.37.11-.64.1-.65.45v.22a.36.36,0,0,1-.24.16c-.88,0-1.34-.68-2.11-.69h-.33a.53.53,0,0,1-.5-.48c0-.16.15-.25.16-.41s-.13-.12-.14-.22.16-.11.18-.27c-.05,0-.12.06-.17.06s-.11-.16-.33-.16-.24.16-.46.16-.19-.05-.33-.05-.35.17-.47.18a3.34,3.34,0,0,0-.39-.09,4.86,4.86,0,0,0-1.63.52,1.52,1.52,0,0,1-.57.2.85.85,0,0,1-.71-.19c-.11.1-.16.34-.25.46a1.2,1.2,0,0,0-.17.11c-.28.33-.54.39-.83.74a1.06,1.06,0,0,0-.16.63,2,2,0,0,1-.43.52,2.34,2.34,0,0,0-.65.46A4.06,4.06,0,0,0,12.53,22c-.07.17-.26.29-.28.5,0,.42.17.72.17,1.18a1.38,1.38,0,0,1-.35.89,1.91,1.91,0,0,1,.21.49c0,.07,0,.17.05.33h0a.67.67,0,0,0,.11.14,6.69,6.69,0,0,0,.53.59,3.36,3.36,0,0,1,.47.77c.2.34.6.29,1,.95a.69.69,0,0,0,.29.1c.38,0,.63-.19,1-.18.2,0,.48.17.64.18s.2-.14.37-.19a5.71,5.71,0,0,1,1.58-.39c.47,0,.09.69.44.72.1,0,.49,0,.7,0a.81.81,0,0,1,.73.47c-.12.1-.11.41-.11.56s-.05.06,0,.16a.81.81,0,0,0-.26.43c0,.52.64,1,1,1.4.15.19.12.42.21.64a2.91,2.91,0,0,1,.31.88,4.57,4.57,0,0,1,.17.59c0,.54-.61.79-.59,1.48a2.53,2.53,0,0,0,.71,1.45c.1.13.23.19.24.32s0,.17,0,.24A1.62,1.62,0,0,0,22.61,38c.08.07.31.48.53.76a.19.19,0,0,1,0,.26c.09.06.09.18.09.35,0,0,0,0,.11,0a.39.39,0,0,0,.34.17c.42,0,.52-.24,1-.24.12,0,.18.08.3.08s.18-.05.33-.06.39-.07.58-.13a2.19,2.19,0,0,0,.88-.68c.18-.16.32-.17.58-.36a.85.85,0,0,0,.35-.57q0-.11-.15-.18c.13-.22-.06-.19.37-.34.13,0,.34,0,.45-.13a1.37,1.37,0,0,0,.17-.66c0-.35-.26-.27-.26-.53s.18-.28.34-.31c.17-.63,1.56-.57,1.64-1.35a.25.25,0,0,0-.09-.19c0-.21,0-.43,0-.65a1.41,1.41,0,0,1,0-.25.3.3,0,0,0,.08-.15c0-.19-.41-.42-.41-.78s-.18-.58-.18-.92.31-.38.4-.65.44-.38.72-.63c.11-.09.14-.49.25-.59.3-.2.61-.39.91-.63a4.67,4.67,0,0,0,.9-1.06,4.33,4.33,0,0,0,.81-1.93s0-.09-.06-.16a9.5,9.5,0,0,1-1.14.36c-.16,0-.28-.05-.44,0s-.16.19-.34.2-.35-.35-.48-.46c.11-.15,0-.16,0-.36-.38,0-.47-.45-.66-.6a3.51,3.51,0,0,1-.52-.33c-.21-.21-.1-.48-.3-.76a3.6,3.6,0,0,1-.56-.79c0-.2,0-.39,0-.59-.18-.14-.5-.36-.45-.61-.36-.65-.71-1.27-1.08-1.91v-.18c.19.2.4.67.66.71,0-.11.15-.36.2-.53,0,.14-.05.26-.05.34a1.85,1.85,0,0,0,.2.27c.12.19.24.29.39.49a.83.83,0,0,1,.16.27s0,.22.08.3.2,0,.24.05a1,1,0,0,0,.15.15c.06.2.22.26.23.52,0,.42.1.64.52.74a1.32,1.32,0,0,0,.39.75c.13.14.38.26.33.51,0,.07-.11.31,0,.33a1.29,1.29,0,0,0,.09.62c.08.11,0,.11,0,.12l.36.16.07-.05c.22,0,.28-.18.47-.31l.42,0a5.53,5.53,0,0,1,.69-.42,4.21,4.21,0,0,0,.75-.27.3.3,0,0,1,0-.1c0-.24.58-.26.87-.32a.41.41,0,0,1,.28-.31c.16,0,.14-.3.29-.3s.11-.18.15-.3.13-.16.29-.16c0-.26.38-.35.38-.6,0-.08-.14-.08-.19-.17h0c-.06,0-.09-.22-.19-.25-.3-.11-.48-.16-.64-.48,0-.13,0-.25,0-.39-.36.27-.36.69-1.09.68-.17,0-.43-.09-.44-.25s.06-.21.06-.33a.49.49,0,0,1,0-.12c-.12,0-.09.16-.21.18s-.07-.12-.09-.25a1.48,1.48,0,0,1-.64-.78c0-.07,0-.16,0-.25s.05-.33.2-.33c.31,0,.56.35.68.59,0,0,0,.13.06.19s.29.07.42.2a1.21,1.21,0,0,0,.36.31c.18,0,.35,0,.52,0s.08-.15.21-.15.22.32.33.43a1.82,1.82,0,0,0,.35.11c.27,0,.68.16.87.18,0,0,0,0,.05,0l.19,0a.25.25,0,0,1,.09-.07l.23.09a2.69,2.69,0,0,1,.32,0,.76.76,0,0,1,.26,0c.12,0,.18.29.25.42a.93.93,0,0,0,.53.38l.19,0c0,.05,0,.13-.1.15s-.13,0-.21,0c.13.17.24.46.5.49s.23-.23.33-.36h.06s0,.11,0,.14.09.25.1.41,0,.14,0,.28h0a.59.59,0,0,0,0,.14,1.78,1.78,0,0,0,.15.58c0,.23.12.53.17.68a1.28,1.28,0,0,0,.09.32c.06.12,0,.24.07.4a.87.87,0,0,1,.17.32c.06.21.14.4.19.62,0,0,0,.1.06.11a.09.09,0,0,0,.11.09c.06,0,.07-.12.09-.2s0-.06.14-.12,0-.29.14-.34.07,0,.07,0h0c0-.07,0-.16,0-.24s.09-.34.09-.58S41,24.68,41,24.5s.14-.14.26-.21.11-.14.16-.22.22-.38.34-.57.26-.2.35-.37,0-.19.06-.32.12,0,.16-.11c0,.07,0,.1.13.11s.26,0,.25-.31a.37.37,0,0,1,.19.24,3.48,3.48,0,0,0,.07.38,1.3,1.3,0,0,0,.16.31,1.79,1.79,0,0,1,.11.37.45.45,0,0,1,0,.11,2.09,2.09,0,0,0,0,.26c0,.12,0,.2.06.2s.15-.22.21-.36a.7.7,0,0,1,0,.14s.05,0,.05.05-.08.36,0,.37c0,.27.06.66.06,1,0,.1,0,.26,0,.32h0a1.86,1.86,0,0,0,0,.34s0,.05,0,.05a0,0,0,0,1,0,0s0,0,0,0,.07.28.08.4,0,.35,0,.58a.31.31,0,0,0,0,.1c0-.24.05-.49.07-.75l0-.08c0-.08,0-.2,0-.26h0c0-.24-.08-.15-.07-.41s.05-.32.06-.6a2.17,2.17,0,0,0,0-.25s0-.1,0-.1.06,0,.07.11,0,.11,0,.11h0V25a18.91,18.91,0,0,0-6.07-13.89Zm-3.81,5.3c-.08,0-.16.14-.17.25.21.05.32.14.34.3s0,.12,0,.18,0,.2,0,.22,0,.13,0,.18a2.19,2.19,0,0,1-.46,0c-.13,0-.39,0-.48-.1s-.1-.15-.19-.19a.57.57,0,0,1-.32-.2c0-.11,0-.16-.06-.26s-.14-.06-.14-.13l.14,0c.12-.12.1-.3.27-.34a1.79,1.79,0,0,1-.78-.89c0-.06-.24-.2-.25-.32a1.71,1.71,0,0,1,.22-.33,2.32,2.32,0,0,0,.38-.07,2,2,0,0,1,.72-.09,1.23,1.23,0,0,1,.89.53c-.15.06-.34,0-.53,0a2.33,2.33,0,0,0-.68.11c0,.16.18.16.26.25.21.26.51.35.54.65l.33-.09c0,.13.21.25.22.37l-.29,0Zm0,0"/><path class="cls-3" d="M31.72,7.62h0s0,0,0,0Zm0,0"/><path class="cls-3" d="M30.81,7.4l.21.06H30.9a1,1,0,0,0,.15,0h-.17a.61.61,0,0,0,.24.06.19.19,0,0,0,.1,0c.08,0,.08,0,.16,0a1.26,1.26,0,0,1,.28,0s0,0,0,0l.09,0c.09,0,.2.09.21,0l-.26-.08a2.72,2.72,0,0,0-.31,0c-.15,0-.27-.09-.49-.13a5.31,5.31,0,0,0-.66-.07l.19,0,.38,0Zm0,0"/><path class="cls-3" d="M33,8l.09,0c.07,0,.08.05.11,0l.17.06c.08,0,.08,0,.14,0L33.42,8C33.33,8,33,7.91,33,8Zm0,0"/><path class="cls-3" d="M33.26,8l-.21-.1-.32-.09h-.09l.41.14.21,0Zm0,0"/><path class="cls-3" d="M33,7.82l0,0v0Zm0,0"/><path class="cls-3" d="M21.72,7.34c-.06.06.08.06.24.07H21.9a.47.47,0,0,0,.28,0,.5.5,0,0,0,.29-.09s.06,0,.08,0l.14,0a.93.93,0,0,1,.24,0,2.5,2.5,0,0,1-.49.09s-.26,0-.26.06.24,0,.35,0a3.09,3.09,0,0,1,.43,0,1.58,1.58,0,0,0-.32,0l-.35,0c0,.09.5.1.73.13s.11-.13.28-.17l.16,0A.75.75,0,0,1,24,7.27a.61.61,0,0,0,.22,0h-.13c.05,0,.12.07.19.07s-.12,0-.15.08h.45s0,0,0,0a4.49,4.49,0,0,0,.61-.09c-.09,0-.35,0-.37-.09h-.3s0,0,0,0h-.08a6.4,6.4,0,0,0-.75-.08h-.09s.05-.06-.11-.06l-.16,0s0,0,0,0-.25,0-.37,0-.19,0-.2,0,.06.07.11.11c-.24,0-.16-.09-.41-.09-.07,0-.16,0-.17.06s0,0,0,0-.14,0-.22,0l.12,0-.47,0a1.7,1.7,0,0,0-.33.09.93.93,0,0,0,.22,0Zm0,0"/><path class="cls-3" d="M23.84,7.1h0s0,0,.13,0l.53,0a.69.69,0,0,0,.33.05,6.7,6.7,0,0,0,1-.13A1.85,1.85,0,0,0,25.39,7h-.31l-.29,0s0,0,0,0h-.11a.66.66,0,0,1-.23,0,2.46,2.46,0,0,1-.37,0,1.2,1.2,0,0,1-.27,0l.05,0H23.7s0,0,0,0a.61.61,0,0,1-.19,0h-.14s.07,0,.14,0,.16,0,.33,0Zm0,0"/><path class="cls-3" d="M21.43,7.4s0,0,0,0,0,0,0,0h0c-.15,0,.11.08.28.08-.06-.07-.16-.06-.27-.08Zm0,0"/><path class="cls-3" d="M15,13.73a.45.45,0,0,0,.19-.05.75.75,0,0,1,.36-.19c.08,0,.2,0,.25-.07s0-.13,0-.18a.89.89,0,0,1,0-.22s.17-.07.18-.12,0-.24-.28-.2l-.16,0a.57.57,0,0,0-.31.17s0,0,0,.07a1.08,1.08,0,0,1-.28.11s-.1,0-.12.09.07.09.15.1c-.07.16-.29.2-.32.37s.09.13.21.1Zm0,0"/><path class="cls-3" d="M16.08,11.9a1.58,1.58,0,0,0-.24.1s0,.07,0,.07a.25.25,0,0,0,.2-.17Zm0,0"/><path class="cls-3" d="M16.16,12.19a.07.07,0,0,1,0,.05s-.08.06-.09.09.09,0,.15,0l0,.05,0,.05a.44.44,0,0,1,0,.1l.08,0s0,0,0-.09a.25.25,0,0,0,.16,0s0,0,0,.12-.11.09-.12.14.06,0,.15,0l.23-.07s.06,0,.08,0-.07.05-.07.1.12.06.22,0a.41.41,0,0,0,0,.11.87.87,0,0,1-.47.17c0,.07.08.09.05.18s-.27.13-.3.24l0,0s0,0,.11,0,.13,0,.27,0a.46.46,0,0,0,.19-.08.1.1,0,0,1,0,0c0,.1-.21.08-.35.12l-.38.29a.1.1,0,0,0,0,0h.08a.19.19,0,0,1,.14-.07.36.36,0,0,1,.15,0c0-.05.07-.12.17-.13s.1,0,.18,0,.43-.11.54-.12l.41,0a.67.67,0,0,0,.3-.13.07.07,0,0,1,0,0h-.21c.1-.09.34-.19.36-.31s-.07-.1-.2-.1a.17.17,0,0,0-.13,0l.05,0a1.13,1.13,0,0,1-.14.06s0,0,0,0a.06.06,0,0,0,.06-.05s-.1-.08-.1-.13-.24-.17-.39-.24-.06-.22-.24-.23-.14,0-.23,0,.05-.05.08-.06.34-.24.33-.42c-.19,0-.38.06-.58.09a.08.08,0,0,1,0,0c0-.1.25-.1.26-.2a.11.11,0,0,0-.09,0l-.28,0a.29.29,0,0,0-.16.1s-.06.06-.06.11-.14,0-.15.1l0,0a.07.07,0,0,1-.05,0s-.05,0-.05,0l-.16,0c0,.07.06.09.21.07Zm0,0"/><path class="cls-3" d="M16.42,12.83s0,0,0,0-.09.05-.09.08h.11a.24.24,0,0,0,0-.08Zm0,0"/><path class="cls-3" d="M14.28,10.78c-.08,0-.14,0-.13,0s0,0-.09,0l-.05.08c-.09,0-.18.06-.28.1l-.24.07s0,0,0,0,0,0-.09,0l-.2.09s0,0-.08,0,0,0,0,.06a.61.61,0,0,1-.14.07c-.06,0-.1,0-.08,0s0,0,0-.05h-.06c-.07,0-.08.08-.14.11s0,0,0,0a.31.31,0,0,0-.13.05c0,.06.24,0,.32,0s0,0,0,0a2,2,0,0,1-.39.18c.09,0,.19-.07.31-.09,0,.06-.08.08-.1.14l-.06.05c.16-.06.19,0,.29,0a4,4,0,0,0,.67-.14,5.2,5.2,0,0,0,.66-.29,2.09,2.09,0,0,0,.43-.27h0c0-.14-.28,0-.24-.15s0,0,.06-.06a1.18,1.18,0,0,1-.2.07Zm0,0"/><path class="cls-3" d="M8.5,31.65a1.94,1.94,0,0,0,.21-1.17.63.63,0,0,0-.2-.44c-.07-.05-.12,0-.2-.06A1.51,1.51,0,0,1,8,29.52a1.34,1.34,0,0,0-.26-.19.46.46,0,0,0-.17,0c-.11,0-.13-.16-.22-.18s0,0-.09.06,0,0,0,0a2.11,2.11,0,0,0,0-.21c0-.06,0-.05-.1-.11s-.21-.26-.28-.28-.08,0-.09,0v-.13s0-.07,0-.08,0,.08-.05,0,0-.05-.08-.1h0c-.1,0,0,.06,0,.19a.69.69,0,0,0,.16.28s0,0,.06-.05a.49.49,0,0,1,0,.13s0,.09,0,.08,0-.07,0-.09,0,0-.09,0a.52.52,0,0,0-.07-.21s0,0,0-.09a1.75,1.75,0,0,1,.08-.64c0-.07,0-.08-.08-.17s-.08-.34-.09-.44,0-.27-.17-.32a19.11,19.11,0,0,0,2.11,6.92l.08.06c.09.05.14,0,.14-.08s0-.08,0-.13,0-.17.06-.31,0-.16,0-.23,0-.1,0-.15,0,0,0-.08-.08-.48-.1-.61-.14-.3-.09-.4.08-.06.11-.16,0-.08.06-.14Zm0,0"/><path class="cls-3" d="M13.55,9.92l-.19.14a.89.89,0,0,0,.24-.14Zm0,0"/><path class="cls-3" d="M12.68,10.82c.12-.09.19-.1.31-.18a4.18,4.18,0,0,1-.58.22l-.46.42.21-.12a5.24,5.24,0,0,1,.52-.34Zm0,0"/><path class="cls-3" d="M13.79,9.74l-.18.14a1.34,1.34,0,0,0,.29-.18l-.11,0Zm0,0"/><path class="cls-3" d="M13.22,10.21s0,0,0,0l-.2.16.1,0c.1-.05.12-.08.14-.12Zm0,0"/><path class="cls-3" d="M13,10.59a.34.34,0,0,0,.19-.11c.05-.11-.08-.1-.23-.08l-.26.22c.08,0,.06.06.3,0Zm0,0"/><path class="cls-3" d="M14.31,9.47l-.12,0s0,0,0,0l-.11,0-.1.08s0,0,.07,0l.24-.12Zm0,0"/><path class="cls-3" d="M22,16.9c-.18,0-.25.06-.4.07s-.24-.11-.49,0V17s.13,0,.16.05c.18,0,.31.18.51.23,0,0,.07,0,.09,0a.09.09,0,0,0,.07-.06c0-.06-.05-.09-.05-.16s.06-.1.06-.1A.54.54,0,0,1,22,16.9Zm0,0"/><path class="cls-3" d="M20.2,15.56s0-.07,0-.1-.11.08-.18.1l-.08,0c0,.06.07.32.18.35s.08-.26.12-.37Zm0,0"/><path class="cls-3" d="M19.89,16.31c0,.05-.06.12-.07.18s0,.2.1.2.29-.15.31-.27a.55.55,0,0,0-.05-.38A.32.32,0,0,0,20,16c-.09,0-.12.09-.25.13s.11.11.1.19Zm0,0"/><path class="cls-3" d="M18.19,16.51a.56.56,0,0,0-.17.07s.1.07.14.07.08,0,.08,0,0-.08,0-.09Zm0,0"/><path class="cls-3" d="M20.9,12.19s0,0,0-.08h-.13v.05s.07.05.15,0v0s0,0,0,0Zm0,0"/><path class="cls-3" d="M21,12.21l0,0s0,0,.09,0,.11-.14.24-.18c0-.07,0-.1-.19-.09s-.13.11-.13.13.06.05.14.06-.06,0-.1.05Zm0,0"/><path class="cls-3" d="M23.18,11.58l.12-.05v0s.05,0,.06-.05a.16.16,0,0,1-.07,0l-.07,0s0,0,.05.05l-.16,0s0,.06.07.06Zm0,0"/><path class="cls-3" d="M25.54,17.79a2,2,0,0,0-.74-.06,1.7,1.7,0,0,0,.45.09.54.54,0,0,0,.29,0Zm0,0"/><path class="cls-3" d="M28.1,17.83s0-.08,0-.09.12,0,.15-.09a3.67,3.67,0,0,0-.67.18s0,.05.06.05,0,.06.08.05.33-.05.35-.1Zm0,0"/><path class="cls-3" d="M34.51,25.34a.32.32,0,0,0,.19-.14.64.64,0,0,0-.3.06s.08.08.11.08Zm0,0"/><path class="cls-3" d="M31.76,9.34s-.11,0-.1.05.05.06.16.07a1,1,0,0,0,.38,0,.11.11,0,0,0,0-.05l-.33-.1-.1,0Zm0,0"/><path class="cls-3" d="M34.22,9.7c0,.05.21.13.31.15s.11,0,.11,0-.43-.21-.42-.16Zm0,0"/></g></g></svg>