<svg id="LANGUAGES" xmlns="http://www.w3.org/2000/svg" xmlns:xlink="http://www.w3.org/1999/xlink" viewBox="0 0 50 50"><defs><style>.cls-1{fill:none;}.cls-2{clip-path:url(#clip-path);}.cls-3{fill:#d61e34;}.cls-3,.cls-4,.cls-6,.cls-7{fill-rule:evenodd;}.cls-4{fill:#f5c426;}.cls-5{clip-path:url(#clip-path-2);}.cls-6{fill:#000101;}.cls-7{fill:#f6d92a;}</style><clipPath id="clip-path"><circle class="cls-1" cx="-45" cy="25" r="25"/></clipPath><clipPath id="clip-path-2"><circle class="cls-1" cx="25" cy="25" r="25"/></clipPath></defs><title>WEBSITES_LANGUAGES_FLAGS</title><g id="SPAIN"><g class="cls-2"><polygon class="cls-3" points="-76.23 50 9.48 50 9.48 0 -76.23 0 -76.23 50 -76.23 50"/><polygon class="cls-4" points="-76.23 37.5 9.48 37.5 9.48 12.5 -76.23 12.5 -76.23 37.5 -76.23 37.5"/></g></g><g id="GERMANY"><g class="cls-5"><polygon class="cls-6" points="-10.81 16.68 75 16.68 75 0 -10.81 0 -10.81 16.68 -10.81 16.68"/><polygon class="cls-3" points="-10.81 33.37 75 33.37 75 16.68 -10.81 16.68 -10.81 33.37 -10.81 33.37"/><polygon class="cls-7" points="-10.81 50.05 75 50.05 75 33.37 -10.81 33.37 -10.81 50.05 -10.81 50.05"/></g></g></svg>