<svg id="LANGUAGES" xmlns="http://www.w3.org/2000/svg" xmlns:xlink="http://www.w3.org/1999/xlink" viewBox="0 0 50 50"><defs><style>.cls-1{fill:none;}.cls-2{clip-path:url(#clip-path);}.cls-3{fill:#000101;}.cls-3,.cls-4,.cls-5{fill-rule:evenodd;}.cls-4,.cls-9{fill:#d61e34;}.cls-5{fill:#f6d92a;}.cls-6{clip-path:url(#clip-path-2);}.cls-7{fill:#334094;}.cls-8{fill:#fff;}</style><clipPath id="clip-path"><circle class="cls-1" cx="-45" cy="25" r="25"/></clipPath><clipPath id="clip-path-2"><circle class="cls-1" cx="25" cy="25" r="25"/></clipPath></defs><title>WEBSITES_LANGUAGES_FLAGS</title><g id="GERMANY"><g class="cls-2"><polygon class="cls-3" points="-80.81 16.68 5 16.68 5 0 -80.81 0 -80.81 16.68 -80.81 16.68"/><polygon class="cls-4" points="-80.81 33.37 5 33.37 5 16.68 -80.81 16.68 -80.81 33.37 -80.81 33.37"/><polygon class="cls-5" points="-80.81 50.05 5 50.05 5 33.37 -80.81 33.37 -80.81 50.05 -80.81 50.05"/></g></g><g id="UK"><g class="cls-6"><rect class="cls-7" x="-12.3" y="0.03" width="30.97" height="16.57"/><polygon class="cls-8" points="-3.8 0.03 -12.3 0.03 -12.3 5.24 29.17 32.62 39.26 28.46 -3.8 0.03"/><polygon class="cls-9" points="-12.3 0.46 -12.3 4.04 29.72 31.79 31.36 29.3 -12.3 0.46"/><rect class="cls-7" x="31.33" y="0.03" width="30.97" height="16.57"/><polygon class="cls-8" points="53.8 0.03 62.3 0.03 62.3 5.24 20.83 32.62 10.74 28.46 53.8 0.03"/><polygon class="cls-9" points="62.3 0.46 62.3 4.04 20.28 31.79 18.63 29.3 62.3 0.46"/><rect class="cls-7" x="31.33" y="33.41" width="30.97" height="16.57"/><polygon class="cls-8" points="53.8 49.97 62.3 49.97 62.3 44.76 20.83 17.38 10.74 21.54 53.8 49.97"/><polygon class="cls-9" points="62.3 49.54 62.3 45.96 20.28 18.21 18.63 20.7 62.3 49.54"/><rect class="cls-7" x="-12.3" y="33.41" width="30.97" height="16.57"/><polygon class="cls-8" points="-3.8 49.97 -12.3 49.97 -12.3 44.76 29.17 17.38 39.26 21.54 -3.8 49.97"/><polygon class="cls-9" points="-12.3 49.54 -12.3 45.96 29.72 18.21 31.36 20.7 -12.3 49.54"/><polygon class="cls-8" points="62.3 16.59 31.39 16.59 31.39 0.03 18.48 0.03 18.48 16.59 -12.3 16.59 -12.3 33.03 18.48 33.03 18.48 49.97 31.39 49.97 31.39 33.03 62.3 33.03 62.3 16.59"/><polygon class="cls-9" points="62.3 19.96 28.66 19.96 28.66 0.03 21.22 0.03 21.22 19.96 -12.3 19.96 -12.3 29.67 21.22 29.67 21.22 49.97 28.66 49.97 28.66 29.67 62.3 29.67 62.3 19.96"/></g></g></svg>