<?xml version="1.0" encoding="utf-8"?>
<!-- Generator: Adobe Illustrator 23.0.0, SVG Export Plug-In . SVG Version: 6.00 Build 0)  -->
<svg version="1.1" id="Layer_1" xmlns="http://www.w3.org/2000/svg" xmlns:xlink="http://www.w3.org/1999/xlink" x="0px" y="0px"
	 viewBox="0 0 50 50" style="enable-background:new 0 0 50 50;" xml:space="preserve">
<style type="text/css">
	.st0{fill:#FFFFFF;}
	.st1{fill:none;stroke:#FFFFFF;stroke-miterlimit:10;}
</style>
<g>
	<g>
		<g>
			<path class="st0" d="M8.66,15.39c-0.21,1.56,0.32,2.36,0,3.11c-0.32,0.75-0.7,2.09-0.38,3.01c0.32,0.91,0.81,2.9,1.23,2.95
				c0.43,0.05-0.32-2.15,0.11-1.45c0.43,0.7,0.43,1.74,1.18,2.45c0.75,0.72,1.77,0.61,2.58,1.31c0.81,0.7,1.61,1.72,2.36,1.61
				c0,0-0.05,0.54-0.43,1.45c-0.38,0.91-0.43,1.99,0.05,2.63c0.48,0.64,0.97,1.61,1.4,2.09c0.43,0.48,0.75,3.06,0.64,4.35
				c-0.11,1.29,0.48,4.19,1.82,4.83c1.34,0.64,0-0.32-0.27-1.13c-0.27-0.8,0.21-2.68,0.86-2.95c0.65-0.27,1.24-1.34,1.72-2.09
				c0.48-0.75,1.72-1.07,2.09-1.99c0.38-0.91,0.21-1.99,0.43-2.47c0.21-0.48,0.81-1.56-0.48-2.2c-1.29-0.64-1.82-0.32-1.88-0.91
				c-0.05-0.59-0.38-1.23-1.29-1.5c-0.91-0.27-1.72-0.79-2.74-0.9c-1.02-0.12-1.23,0.69-1.77,0.26c-0.54-0.43-0.97-0.86-1.18-1.4
				c-0.21-0.54-0.86-0.21-0.8-0.54c0.05-0.32,0.91-1.23-0.05-0.91c-0.97,0.32-1.82,0.21-1.77-0.64c0.05-0.86,1.23-1.18,1.72-1.29
				c0.48-0.11,0.86,0.48,1.45,0.86c0.59,0.38,0.05-0.54,0.38-1.18c0.32-0.64,1.56-0.59,1.72-1.5c0.16-0.91-0.05-1.66,0.91-1.77
				c0.97-0.11,1.99,0.05,2.09-0.43c0.11-0.48-1.13,0.16-1.18-0.43c-0.05-0.59,1.07-1.4,1.4-0.8c0.32,0.59,1.13,0.64,1.23,0.43
				c0.11-0.21,0-0.59-0.38-1.5c-0.38-0.91-0.75-0.64-1.07-1.66c-0.32-1.02-0.86,0.05-1.4-0.48c-0.54-0.54-1.18-1.66-1.29-0.7
				c-0.11,0.97-0.11,1.5-0.59,2.25c-0.48,0.75-0.7,0.16-1.13-0.32c-0.43-0.48-1.4-0.97-1.07-1.4c0.32-0.43,0.64-1.56,1.13-1.23
				c0.48,0.32,1.23,0.32,1.13-0.21c-0.11-0.54,0-0.75,0.21-1.02c0.21-0.27,0.97-0.75,0.97,0.21c0,0.97-0.11,1.23,0.64,1.34
				c0.75,0.11,1.61,0.16,1.56-0.32c-0.05-0.48,0.21-0.38,0-1.18c-0.21-0.8-0.86-0.86-1.56-1.23c-0.7-0.38-1.07-0.97-1.66-0.75
				c-0.59,0.21-0.64,0.43-0.7,1.02c-0.05,0.59-0.38,0.81-0.59,0.54c-0.21-0.27,0.05-1.13-0.75-0.59c-0.81,0.54-1.13,1.45-1.56,0.8
				c-0.43-0.64,0.64-1.77-0.48-1.29C12.1,10.99,11.41,11.79,12,12c0.59,0.21,1.06,0.33,0.47,0.54C11.88,12.76,11.43,12.57,11,13
				C10.57,13.43,8.66,15.39,8.66,15.39z"/>
		</g>
		<g>
			<path class="st0" d="M13.99,10.59c0,0.6,0.16,1.07,0.7,0.54c0.54-0.54,0.86-1.18,1.23-0.91c0.38,0.27,1.02,0.2,1.29,0.18
				c0.27-0.02,0.32-0.82,1.07-0.72c0.75,0.11,0.48-0.16,1.29-0.59c0.81-0.43,2.52-1.18,0.75-0.97c-1.77,0.21-1.88-0.27-3.11,0.54
				c-1.23,0.81-1.5,0.81-1.82,1.02c-0.32,0.21-0.7-0.64-1.13,0C13.83,10.32,14,9.98,13.99,10.59z"/>
		</g>
		<g>
			<path class="st0" d="M21.43,7.93c-0.63,0.55-1.61,1.34-0.86,1.34c0.75,0,1.12-0.39,1.52,0.13c0.41,0.52,0.25,1.32,0.25,1.7
				c0,0.38-0.21,1.23,0.32,2.31c0.54,1.07,0.59,1.77,1.13,1.07c0.54-0.7,1.82-2.04,2.47-2.15c0.64-0.11,1.29-0.38,1.61-0.91
				c0.32-0.54,0-1.06,0.54-1.44c0.54-0.38,0.43-0.87,0.59-1.46c0.16-0.59,1.61-0.59,0.97-0.91c-0.64-0.32-1.82-0.54-3.22-0.38
				C25.35,7.39,22.62,6.91,21.43,7.93z"/>
		</g>
		<g>
			<path class="st0" d="M15.53,24.51c-0.34,0.56-0.16,0.59,0.21,0.7c0.38,0.11-0.16,0.75,0.27,0.81c0.43,0.05,1.4,0.32,1.66,0
				c0.27-0.32-0.43-0.2-0.91-0.55C16.28,25.1,15.77,24.11,15.53,24.51z"/>
		</g>
		<g>
			<path class="st0" d="M41.51,33.26c-0.58,0.29-0.32,0.75-0.86,1.07c-0.54,0.32-0.32,0.43-0.48,1.18
				c-0.16,0.75,0.05,1.18,0.43,0.59C40.97,35.51,42.15,32.94,41.51,33.26z"/>
		</g>
		<g>
			<path class="st0" d="M43.68,25.13C43.48,24.04,43,22,41,16c0,0-1.83-2.09-2.37-1.66c-0.54,0.43-1.45,0.36-1.34-0.06
				c0.11-0.42,0.8-0.32-0.38-1.12c-1.18-0.81-1.4-1.5-2.31-0.48c-0.91,1.02-1.13,1.88-1.66,2.15c-0.54,0.27-0.97,1.13-0.38,1.34
				c0.59,0.21,0.64,0,1.13,0.43c0.48,0.43,1.13,0.32,1.23,0.05c0.11-0.27,0.21-1.13,0.27-1.45c0.05-0.32,0.6-1.4,0.54-0.54
				c-0.06,0.86,0.75,0.86,0.21,1.45c-0.54,0.59-0.21,1.07-1.29,1.18c-1.07,0.11-1.13-0.54-1.72-0.21c-0.59,0.32-0.54,0.54-0.75,0.86
				c-0.21,0.32-1.34,0.97-1.34,0.97s-0.91-0.32-0.48,0.27c0.43,0.59,0.81,1.29,0.43,1.34c-0.38,0.05-1.4-0.54-1.4,0.11
				c0,0.64-0.16,1.34,0.27,1.5c0.3,0.11,0.5,0.36,0.78,0.33c-0.22,0.09-0.41,0.23-0.56,0.43c-0.42,0.55-0.16,1.5-1.02,1.82
				C28,25.02,28,25.4,27.84,26.1c-0.16,0.7,0,2.47,0.21,2.63c0.21,0.16,0.59,1.5,1.5,1.4c0.91-0.11,1.88-0.15,2.2,0.01
				c0.32,0.15,0.86-0.33,1.02,0.91c0.16,1.23,0.54,1.4,0.75,2.04c0.21,0.64-0.11,1.99,0,2.79c0.11,0.8,0.86,2.2,0.86,2.9
				c0,0.7,0.81,1.02,1.23,0.75c0.43-0.27,1.34-0.81,1.72-1.66c0.38-0.86,0.38-1.29,0.97-2.42c0.59-1.13,0.43-1.93,0.7-2.79
				c0.27-0.86,0.91-1.45,1.8-2.42c0.88-0.97,0.73-1.5,0-1.45c-0.73,0.05-1.21-0.64-1.58-1.5c-0.38-0.86-0.8-3.01-0.48-2.31
				c0.32,0.7,0.97,2.63,1.61,2.95c0.64,0.32,1.82-0.55,2.09-0.86c0.27-0.32,0.16-1.23-0.54-1.6c-0.7-0.38-0.27-0.7,0.43-0.27
				C43.03,25.61,43.84,26.04,43.68,25.13z M37.99,22.82c-0.05,0.43,0.16,1.13-1.02,0.86c-1.18-0.27-1.18-0.91-1.66-0.43
				c-0.48,0.48-1.07,0.91-1.77,0.16c-0.7-0.75-0.59-0.97-0.97-1.02c-0.27-0.04-1.16-0.24-1.9-0.02c0.06-0.03,0.12-0.08,0.19-0.14
				c0.54-0.48,0.43-0.64,1.02-1.18c0.59-0.54,1.02-1.02,1.45-0.54c0.43,0.48,1.34,0.59,1.02,1.13c-0.32,0.54-0.11,0.86,0.27,0.54
				c0.38-0.32,0.91-0.54,0.54-0.97c-0.38-0.43-0.75-1.56-0.21-0.81c0.54,0.75,0.7,1.13,1.02,1.56c0.32,0.43,0.64,0.7,0.75,0.43
				c0.11-0.27-0.05-0.86,0.11-0.97c0.16-0.11,0,0.91,0.48,0.97C37.77,22.45,38.04,22.39,37.99,22.82z M39.22,21
				c-0.38-0.21-1.07,0-1.93,0.27c-0.86,0.27-0.17-0.6,0.21-1.18c0.35-0.52,0.16,0.16,0.91,0.21C39.17,20.35,39.6,21.21,39.22,21z
				 M41.1,22.66c-0.16,0.16-0.43-0.75-0.59-1.18c-0.16-0.43-0.16-1.18,0.3-1.59c0.56-0.52,0.29,0.68,0.29,1.32
				C41.1,21.86,41.26,22.5,41.1,22.66z"/>
		</g>
		<g>
			<path class="st0" d="M31.63,15.22c-0.33,0.1-0.59,0.75-0.43,1.07c0.16,0.32-0.16-0.16-0.59,0.11c-0.43,0.27-1.07,1.02-0.48,1.07
				c0.59,0.05,0.48-0.43,1.02-0.21c0.54,0.21,1.13,0.16,1.13-0.38C32.28,16.35,32.17,15.06,31.63,15.22z"/>
		</g>
		<g>
			<path class="st0" d="M28.14,12.76c-0.32,0.05-0.43,0.86,0.27,0.97c0.7,0.11,1.95-0.16,1.48-0.59
				C29.43,12.7,28.89,12.65,28.14,12.76z"/>
		</g>
	</g>
</g>
<circle class="st1" cx="24.75" cy="25.75" r="18.75"/>
</svg>
