<svg id="NETWORK" 
    xmlns="http://www.w3.org/2000/svg" viewBox="0 0 300 300">
    <defs>
               <style>#NETHERLANDS .cls-1{fill:rgb(144,144,144);}
                #NETHERLANDS .aaa {
        stroke-dasharray:  1;
        stroke-width:1;
   
    }

   
        </style>
    </defs>
    <title>COUNTRIES_SEPARATE</title>
    <g id="NETHERLANDS">
       <path  class="cls-1 aaa" d="M263,32.89c.28.47,1.2,3,1.3,3.25a8,8,0,0,1,0,1.48l0,.84s.32.46,0,.74l-.32.28-.28,1s-.93.18-.74.55a1.13,1.13,0,0,1,0,.84v2.5l.76.84V46s-.3.93,0,1.3-.3.65,0,1.11-.3.56,0,1.11.75,1.39.75,1.39v1a1.33,1.33,0,0,0,0,1.11,4.24,4.24,0,0,1,.37,1.11,1.5,1.5,0,0,0,0,.93,2.43,2.43,0,0,1,0,1.2s.74.47.74.75.56.64,0,1.2a4.9,4.9,0,0,0-1.18,2.18,3.15,3.15,0,0,1,0,1.07s-.16.55-.21.74-.37,1-.41,1.2a2.91,2.91,0,0,1-.28.79c-.19.33-.54.84-.54.84s-.2.51-.34.79-.28.18-.51.69a5.31,5.31,0,0,0-.37.93c-.05.18.23.18,0,.46a3.83,3.83,0,0,0-.47.65,6.06,6.06,0,0,0-.51.88,5.13,5.13,0,0,1-.37.84l-.46,1.16a4.46,4.46,0,0,0-.28.69c-.09.33-.23.74-.23.74l-.33.84s0-.23-.37.56-.74,1.43-.79,1.62.1,1.06,0,1.2-.6,1.26-.65,1.39a2.39,2.39,0,0,0-.27.79,2.84,2.84,0,0,1,0,.88c-.1.19.09.56,0,.7s0,.7,0,.7a1.3,1.3,0,0,1,0,.64c-.09.47-.09,0-.09.47v2.87a15,15,0,0,1,0,2.51,14.65,14.65,0,0,0-.33,2.59,10.21,10.21,0,0,0,0,2.65,10.07,10.07,0,0,1,.28,2.36l-.38,1.21a5,5,0,0,1-.36.79c-.14.18-.28.27-.42.23a2.52,2.52,0,0,1-.46-.33l-1-.55-.46-.1-.74-.23-.7-.14-.32.1-.88.27s.37.14-.42.33a5.89,5.89,0,0,1-1,.18,4.61,4.61,0,0,1-.65-.09c-.14,0-.51-.23-.51-.23l-.74-.42-1.07-.23h-1.06c-.14,0-1-.19-1-.19a7.4,7.4,0,0,0-.83,0c-.37,0-.93.14-1.07.14h-.88a11.2,11.2,0,0,0-1.3,0c-.14,0-.79.14-.79.14a2.85,2.85,0,0,0-.69.28c-.19.14-.93,0-1,.18a3.85,3.85,0,0,1-.7.47,1.13,1.13,0,0,0-.46.18,2.4,2.4,0,0,1-.79.2v.27l-.23.51v.83l.23.28s.05-.09.05.46,0,.93,0,.93l.05.46-.09.28s-.05.42-.05.56,0,.23.05.37a3.14,3.14,0,0,0,.27.51c.14.14,0-.09.14.14s.47.69.47.69l.41.24.65.41s.19.19.19.33,0,.51-.19.6-.6.51-.6.51h-.42a1.29,1.29,0,0,1-.46,0,3.2,3.2,0,0,0-.74,0,5.16,5.16,0,0,0-.42.35l-.56.56a1.24,1.24,0,0,1-.46.23s-.28.18-.28.32.14.19,0,.47a.72.72,0,0,0,0,.69c.1.14.42.33.42.47s-.19-.19,0,.14a2.72,2.72,0,0,1,.37,1.16v1s0,.41,0,.55-.13.37-.13.51-.1.51-.1.65a.56.56,0,0,0,.05.37,1.35,1.35,0,0,0,.37.51c.14.09.42.14.56.33a2.17,2.17,0,0,0,.55.46c.33.23.28.23.7.51a2.72,2.72,0,0,0,.83.37,5.75,5.75,0,0,1,.56.37c.23.19.42.1.65.33a1,1,0,0,0,.65.37,7.84,7.84,0,0,0,1,0c.23-.05.37.18.88,0s.19-.16.51-.16.7.39.88.22a1,1,0,0,1,.56-.17l.23-.19.56-.09s.37,0,.46.23.14-.08.23.26.61.62.61.62,1.25.37,1.43.37a4.85,4.85,0,0,1,.93.37,4.25,4.25,0,0,0,.84.28A6.08,6.08,0,0,0,250,119c.27,0,.45.09.59,0s.33-.09.46-.28a2.94,2.94,0,0,0,.33-.69,1.35,1.35,0,0,1,.32-.51c.14-.14.47-.42.47-.42a2,2,0,0,0,.23-.28l.37-.55.46-.33s.1-.14.42.09a7.47,7.47,0,0,1,.88.89c.14.32.37.78.42.92a4.06,4.06,0,0,0,.19.65c.13.33.41.56.46.88s.18.42.23.65a5.41,5.41,0,0,0,.37.88,4.5,4.5,0,0,0,.37.51,5.82,5.82,0,0,0,.47.56c.14.14.46.28.65.46s.32.14.46.28.46.05.6.6.56,1.26.56,1.53v1c0,.14,0,.55,0,.83a3,3,0,0,1-.13.84,5.5,5.5,0,0,0-.24.88,2.9,2.9,0,0,1-.18.74c-.09.23-.33,1.95-.33,1.95l-.23.51a2.32,2.32,0,0,0-.37.74,6.8,6.8,0,0,0-.18.79,4.91,4.91,0,0,0-.05.83,2.89,2.89,0,0,0,0,.88c.09.37.28.75.32,1a7.5,7.5,0,0,0,.37.83c.14.33.28.33.47.65s.42.47.51.7a1,1,0,0,1,0,.74c-.09.23-.27.56-.32.74a.68.68,0,0,1-.37.42c-.14,0-.42-.23-.56,0a2.06,2.06,0,0,1-.79.51c-.18.09-.55,0-.78,0a9.49,9.49,0,0,1-1,0,.94.94,0,0,1-.37.25c-.18,0-.28.18-.42.27s-.46.42-.46.42l-.32.28-.65,1.44s-.51.6-.61.74-.23.23-.41.51a5,5,0,0,1-.79.74s-.47.28-.65.37a1.55,1.55,0,0,0-.51.56c-.14.23-.17.46-.36.56a1.37,1.37,0,0,0-.52.46c-.19.23-.79.88-.93,1.07a1.81,1.81,0,0,1-.51.46c-.28.18-.56.28-.65.51s-.18-.46-.18.51,0,1.44-.1,1.49a2.55,2.55,0,0,0-.37.46.81.81,0,0,1-.41.37l-.7.23a1.45,1.45,0,0,0-.51,0,7,7,0,0,1-1,0c-.28,0-1.21,0-1.35,0a4.92,4.92,0,0,0-1.15,0c-.14.06-.38-.07-.75,0l-.78,0-.14.37a2.41,2.41,0,0,0-.33.69c0,.28-.23.7-.28.93a3.33,3.33,0,0,1-.09.74c-.09.19-.6.93-.6.93a4.79,4.79,0,0,1-.7,1,1.74,1.74,0,0,0-.55.32,8.84,8.84,0,0,1-1.12.65,3.47,3.47,0,0,0-.51.42l-.32.51-.28,1a2.11,2.11,0,0,0,.23.42,4.64,4.64,0,0,0,.7.55s.69-.18.88,0,.46,0,.46,0l1.07.09s-.05.24.32.52.7.69.88.74l1,.28.79.6s.09-.28.37,0l.28.28,1,.46a.68.68,0,0,1,.32.23,2.3,2.3,0,0,0,.37.37,2.38,2.38,0,0,1,.46.28c.24.19.38.19.47.42s.23.28.37.51.37.37.42.56a4.35,4.35,0,0,1,.18.55c0,.14.09.19.09.51a3.78,3.78,0,0,1-.09,1.07.66.66,0,0,1-.6.37c-.37.05-.84-.23-1,0s-.38.14-.42.37-.19,1.21-.19,1.21a.61.61,0,0,1,0,.51c-.14.32-.33.51-.37.65a3.09,3.09,0,0,1-.28.46l-.51,1a2.56,2.56,0,0,0-.56.51,2,2,0,0,1-.69.6,6,6,0,0,0-.89.47,6.32,6.32,0,0,1-.6.37,6.16,6.16,0,0,0-.46.42,1.74,1.74,0,0,1-.42.37c-.19.09-.37-.14-.56-.24a1.65,1.65,0,0,1-.55-.41c-.14-.19-.28-.47-.51-.47a3,3,0,0,1-.79-.27l-.46-.19-.47-.14-.55.23s-.41.51-.7.56a13.92,13.92,0,0,0-1.72,1l-.83.3a5.77,5.77,0,0,0-1,.46c-.38.24-.79.51-1,.65a5,5,0,0,0-.55.42,2.36,2.36,0,0,1-.61.56c-.28.14-.65-.28-.92,0a2,2,0,0,1-.65.41c-.24.14-.88.47-1.07.61a4.9,4.9,0,0,0-.74.65c-.09.14-.37.32-.47.51a4.74,4.74,0,0,1-.69.65c-.14.14-.19-.14-.42,0s-.6,0-.74,0l-.7,0-.32-.4-.37-.23a.46.46,0,0,0-.28,0c-.14,0-.19.19-.32.32a1.81,1.81,0,0,1-.47.31c-.14.07.05.44-.32,0a4.63,4.63,0,0,0-1-.82s-.05,0-.23,0l-.75.19s.14.32,0,.51,0,.42,0,.65a5.92,5.92,0,0,0,.24.69s.27.28.23.51a3.41,3.41,0,0,1-.54.79s-.53-.14-.67,0-.23-.07-.56,0a2.22,2.22,0,0,1-1.25-.42,2.55,2.55,0,0,0-.55-.47c-.14,0-.79-.51-1-.51a9.32,9.32,0,0,1-1.21-.28l-1-.6a6.6,6.6,0,0,1-.32-.65,11.48,11.48,0,0,0-.84-1s0-.14-.23-.14-.93,0-1.07.14a4.57,4.57,0,0,1-.69.47,1,1,0,0,1-.88.09c-.37-.14-1.26-.6-1.26-.6a6.9,6.9,0,0,0-.78-.61c-.14,0-.61-.37-.75-.42s-1.25-.74-1.25-.74a2.9,2.9,0,0,0-.41,0c-.19,0-.52,0-.7,0a2,2,0,0,0-.65.09,2.63,2.63,0,0,1-.83,0l-.65-.19-.65.14c-.19,0-.51.1-.51.1s.18.27,0,.41.51,1,.51,1a3.28,3.28,0,0,1,1.11.65,9,9,0,0,1,.74,1.11l.19.46a1.68,1.68,0,0,0,.28.37l.23.28s.46.28.51.56.23.84,0,.88-.27-.09-.41,0-.7-.37-.84-.37-.83-.37-1-.37-.74-.19-.93-.19-.46-.18-.69-.18a8.89,8.89,0,0,1-1.3-.24c-.14,0-.51-.27-.69-.32a2.66,2.66,0,0,1-.61-.42l-.88-.6s-.42.05-.51.19,0,.51,0,.51.2.18,0,.41a12.76,12.76,0,0,0-.93,1.39l-.7.2s-.69.27-.83.31a3.09,3.09,0,0,0-.61.24c-.13.09-.46.18-.64.27s-.47-.23-.65,0a5.52,5.52,0,0,1-.65.61.66.66,0,0,0-.28.41c0,.28-.19.65,0,.79s.88.23,1,.37a1.47,1.47,0,0,1,.28.47c.05.18.28.55.14.69a2,2,0,0,0-.42.47,4,4,0,0,0-.09.74c0,.18.28.42.28.74s.37,1.39.37,1.67a4.57,4.57,0,0,1-.09.83,6.73,6.73,0,0,1-.33.61c0,.14-.14.18-.28.37a1.34,1.34,0,0,0-.32.55c0,.14-.28-.14,0,.14s-.05.33.23.65a.79.79,0,0,0,.7.37,3.34,3.34,0,0,1,.69,0,10.85,10.85,0,0,1,1.3.33c.19,0,.7.09.79.23a4,4,0,0,0,.37.42s.28,1,.14,1.2-.33.23-.47.65a8.19,8.19,0,0,0-.13,1.44c0,.37-.1,1.07-.1,1.07l.79.88s-.05-.47.42,0,.23.41.74.51a3.92,3.92,0,0,1,1.25.28c.33.18.74.27.93.41s.65.28.74.42.28.05.42.28.37.46.37.65a1,1,0,0,1-.14.55,4.94,4.94,0,0,0-.37.88c-.09.38-.32.89-.32,1.07s.37,1.25.37,1.62a1.38,1.38,0,0,0,.41,1c.19.09.1-.09.42.28s.56.23.7.55a1.11,1.11,0,0,0,.51.65,4.78,4.78,0,0,1,.88.65c.23.28.32.19.41.56a1.87,1.87,0,0,0,.38.74c.23.37.46.46.55.79a2.06,2.06,0,0,0,.33.6.89.89,0,0,1,.28.46,2.9,2.9,0,0,0,.32,1,3.54,3.54,0,0,0,.74.74c.42.32.74.23.93.46s.46.19.56.56a2.38,2.38,0,0,0,.27.7c.14.27.33.37.33.64v1.12a1.07,1.07,0,0,1,.28.83c0,.6,0,2.13,0,2.74s0,2.18,0,2.69-.14,1.9-.14,2.41.41,1.2.41,1.48a1.2,1.2,0,0,0,.19.79c.23.46,0,.14.23.46s-.09-.18.23.33.42.51.37.93a3,3,0,0,1-.41,1.11,1.23,1.23,0,0,0-.33.79,5.53,5.53,0,0,1-.18,1.2c-.1.42-.14.79-.37.93a5.81,5.81,0,0,1-.56.28c-.19.09-.46-.33-.56,0a4.89,4.89,0,0,1-.55,1.2,7.53,7.53,0,0,0-.88,1.26c-.1.27-.28,1-.14,1.16s-.37,1.06-.47,1.25-.46.83-.46.83a3.53,3.53,0,0,0-.37.56c-.14.28-.42,1.06-.42,1.06l-.37.28s-.46.56-.56.7a3.84,3.84,0,0,1-.41.42c-.19.18-.47.55-.61.65a1.57,1.57,0,0,0-.41.32,7,7,0,0,0-.61.6c-.09.14-.41.23-.51.51a1.91,1.91,0,0,0-.18.79.7.7,0,0,1,0,.46,2.85,2.85,0,0,1-.18.75c-.09.23-.05-.51-.09.69s-.05,1-.05,1.44.05,1.39.05,1.39a2.55,2.55,0,0,0,.27.93,2,2,0,0,1,.42.79.86.86,0,0,0,.28.46,1,1,0,0,0,.79.32c.37,0,.69.51,1,0s.23-.69.55-.88.38-.32.65-.6a6.55,6.55,0,0,1,.65-.6,4.6,4.6,0,0,1,.88-.56,1.07,1.07,0,0,1,.75-.09c.27.09.14-.14.27.09s.19.51,0,.65-.6.14-.79.37a5.25,5.25,0,0,1-.6.74c-.14.1-.37.05-.32.42s.92.28.92.28c.14.37-.18.93-.23,1.07s-.51.18-.65.37-.37.55-.51.69l-1.81,1.9a2.78,2.78,0,0,0-.6.65c-.23.37,0,.47-.65.84s-1.11.55-1.16.74a2.62,2.62,0,0,1-.65.83,9.17,9.17,0,0,0-1,.79c-.09.14-.05.33-.51.37a6.15,6.15,0,0,1-1,0s-.09-.09-.51.51-.23,1.39-.42,1.72-.93,1.71-1.07,1.95,0,.46-.6.51a2.16,2.16,0,0,1-1.3-.24c-.18-.13-.55-.27-.32-.69a1.81,1.81,0,0,0,.23-.79s-.14-.32-.28-.32-.6,0-.74.14-.14-.1-.56.32-1.16.79-1.34,1.11a8.1,8.1,0,0,0-.56.93,5.73,5.73,0,0,0,0,.83c0,.14,0-.13,0,.14a11.15,11.15,0,0,0,.74,1.21c.1.23.24.28.33.56s.23.46.28.64.69,1,.65,1.35a4.14,4.14,0,0,0-.05.79c0,.32-.23.55.14.74s.19.37.7.28,1.76-.28,2-.65.41.23.64.14a1.26,1.26,0,0,1,.65-.09,2.16,2.16,0,0,0,.84-.14c.28-.1.69-.33.83-.37a1,1,0,0,1,.47-.1c.28,0,.41-.14.51.23a1.75,1.75,0,0,1,0,1.21c-.18.23-.14.23-.32.7a2.56,2.56,0,0,0-.1,1.53,3.74,3.74,0,0,0,.79,1.8c.19.19.42.19.47.42a2.75,2.75,0,0,0,.23.79c.14.28.28.23.41.46a.65.65,0,0,0,.51.33c.14,0,0,.32,0,.32s0,.05.47,0a7.19,7.19,0,0,0,1.11-.23s0-.37.23-.09.28,0,.33.34a9.85,9.85,0,0,1,0,1,.91.91,0,0,1-.18.56,1.4,1.4,0,0,0-.14.69c0,.28.09.42.09.65s.19.19.19.56v.88c0,.23,0,.32-.28.65s-.28.14-.6.65-.47.78-.47.78a3,3,0,0,1-.41.56c-.14.09-.38.42-.51.51a2.71,2.71,0,0,0-.47.51c-.18.23-.42.28-.55.42a.78.78,0,0,0-.19.6,3.06,3.06,0,0,1,.05.93,1.85,1.85,0,0,1-.24.65c-.13.23-.13.65-.27.79a3.44,3.44,0,0,1-.79.41,2.65,2.65,0,0,0-.65.42c-.23.19-.88.37-.93.51s-.46.14,0,.46.32,0,1,.42.7.84,1.07,1.07.83.46.93.69a.94.94,0,0,1,0,.79c-.14.28-.23.56-.42.93a3.39,3.39,0,0,1-.46.65c-.09.14-.18.28-.6.32a2.71,2.71,0,0,1-1.07-.23,4.49,4.49,0,0,0-1.11-.46,8.21,8.21,0,0,0-1.35-.23s-.37-.1-.46,0-.46.71-.56.89a1.17,1.17,0,0,1-.88.46c-.37,0-1-.47-1.2-.51s-.88-.47-1.07-.47-.74-.32-.93-.32-.46-.09-.65,0a1.43,1.43,0,0,1-.65.33c-.27.05-.74-.05-.92,0a2.48,2.48,0,0,1-.61,0,1.44,1.44,0,0,0-.6.28s-.18.28-.37.32a1.52,1.52,0,0,1-.93-.55,8.16,8.16,0,0,0-1.57-1v-.14s-.14-.92-.47-.92a7.91,7.91,0,0,0-1-.05c-.18.05-.41.42-.6.51a2.87,2.87,0,0,0-.56.56s-.23.32-.46.6-.09.23-.23.51-.19.93-.65.79a6.31,6.31,0,0,0-1.11-.19,2.31,2.31,0,0,0-1-.37c-.47,0-.65-.09-.75.05a1.59,1.59,0,0,0-.23.53c-.09.3-.23.25-.46,0s-.42-.26-.33-.49a4.57,4.57,0,0,1,.37-.79,4.44,4.44,0,0,0,.47-1c.14-.37.14-.83.23-1.11a1.35,1.35,0,0,0,.05-.83,4.83,4.83,0,0,1-.7-.84c-.23-.41-.6-.6-.83-1.11a3.49,3.49,0,0,1-.37-.93c0-.14.13-.55,0-.69a3.18,3.18,0,0,1-.33-.79v-1.44a3.66,3.66,0,0,1,0-.74c0-.14-.27-.46,0-.6a1.44,1.44,0,0,0,.44-.56,10.14,10.14,0,0,1,.42-.93,4.22,4.22,0,0,1,.32-.51,18,18,0,0,0,.88-1.95,6.15,6.15,0,0,0,.6-.69c.28-.37.38-.79.65-1a4.42,4.42,0,0,0,.65-.84c.19-.23.51-.74.51-.74a3.41,3.41,0,0,0,.28-.92c.09-.56.19-1,.23-1.16a3.21,3.21,0,0,1,.05-1.12,5.18,5.18,0,0,0,.23-.83,2.89,2.89,0,0,1,.23-.84c.14-.18.1-.46.56-.88a3.29,3.29,0,0,0,.79-.92,9.19,9.19,0,0,1,.65-.93c.27-.37.27-.6.41-.74a1.72,1.72,0,0,0,.24-.61,2,2,0,0,0,.09-.69,7.15,7.15,0,0,0-.93-.84,8.06,8.06,0,0,0-.74-.6,1.38,1.38,0,0,1,0-.7,3.85,3.85,0,0,1,.46-1.29,1.89,1.89,0,0,1,.65-.42s-.42-.14.51-.14h.93s.46-.05.56-.19a7.38,7.38,0,0,0,.32-1.06c.19-.6.23-.74.19-.88s-.47-.33-.61-.47.37-.46.37-.6a1.5,1.5,0,0,1,.19-.46s.14-.61.05-.75l-.56-.83a1.05,1.05,0,0,1-.23-.46c0-.19-.7-.84.09-1s1.11-.1,1.53-.24.56,0,.88-.32.51-.51.51-.7.09-.83.09-1a3.85,3.85,0,0,0-.55-1c-.19-.23-.47-.65-.47-.65s-.69-.74-.92-.79a5.31,5.31,0,0,0-.79-.09,1.65,1.65,0,0,0-.74.19,5.39,5.39,0,0,0-.79.46,7.19,7.19,0,0,1-.65.46s-.28,0-.28-.28a5.27,5.27,0,0,1,.09-.83c.05-.19.1-1,.1-1a6.21,6.21,0,0,0-.28-.61,1.53,1.53,0,0,0-.6-.46l-.79-.23H177.2a1.93,1.93,0,0,0-.51.28,1.35,1.35,0,0,1-.74.37,6.33,6.33,0,0,1-1.2.09c-.75,0-.42,0-1.21-.09s-1-.14-1.14-.23a6.67,6.67,0,0,1-.81-.89,3.22,3.22,0,0,0-1.16-1c-.46-.18-.83-.27-1.06-.37a11.53,11.53,0,0,0-1.3-.46,4.85,4.85,0,0,1-1.3-.23c-.88-.23-1.16-.28-1.16-.28l-.83-.7a5.82,5.82,0,0,0,0-.88,4.41,4.41,0,0,1,0-1.16,5.58,5.58,0,0,0,0-1.25c-.06-.42,0-.69-.29-1s-.28-.47-.6-.65a4.35,4.35,0,0,1-.83-.7c-.19-.18-.42-.46-.56-.6a3.93,3.93,0,0,0-.74-.65,5.82,5.82,0,0,0-1.25-.46c-.14,0-.47-.23-.7-.14a1.28,1.28,0,0,0-.6.46,7.15,7.15,0,0,1-.61.79,1.78,1.78,0,0,1-.74.46,1.92,1.92,0,0,0-.65.24,1.48,1.48,0,0,0-.55.37c-.42.37-.79.74-.79.74s.51,0-.42.28-1.48-.19-1.67-.1a1.19,1.19,0,0,1-.74.1c-.33-.05-.74-.14-.74-.14s-.61-.14-.74,0-.61.6-.75.65a4.15,4.15,0,0,1-.83,0c-.23,0-1.07-.1-1.07-.1a3.61,3.61,0,0,0-.79,0c-.13,0-.13.14-.37.32s-1-.18-1-.18a.51.51,0,0,0-.46-.1,2.31,2.31,0,0,0-.47.28,4.66,4.66,0,0,1-.83.37c-.37.14-.28.47-.93.14l-.65-.32s-.37-.28-.37-.47-.42-.51,0-.78.32-1,.37-1.16a7.61,7.61,0,0,0,.14-1.12c0-.23,0-1,0-1s-.65-.41-.65-.69,0-.47-.13-.51-.61-.42-.79-.42a1.65,1.65,0,0,0-1,.14,8.82,8.82,0,0,0-.83.46,1.42,1.42,0,0,1-.7.19,1.83,1.83,0,0,1-.74,0,4.5,4.5,0,0,1-1-.28l-.51-.65-.74-1.06s.18-.75,0-1a5.67,5.67,0,0,1-.47-1l-.46-.93-.7-.74-.79-.32s-.55-.33-.88-.51-.74-.47-.78-.61a3.29,3.29,0,0,1-.24-1c.05-.18-.18-.74.19-.93s.79-.32.88-.69a3.25,3.25,0,0,0,.14-.84c0-.27-.19-.32,0-.65a1.65,1.65,0,0,0,.37-.69c0-.14-.42-1.07-.47-1.39s-.14-.19-.14-.65,0-.7,0-.88a.9.9,0,0,0-.14-.56,2.17,2.17,0,0,0-.87-.69,2.93,2.93,0,0,0-.94-.05,2.29,2.29,0,0,1-.74-.09,5.38,5.38,0,0,0-.37-.75c-.14-.18-.24-.27-.42-.23a5,5,0,0,0-.84.61l-.46.46s-.18.28-.28.46.28.7,0,1a9.6,9.6,0,0,0-.88,1.16c-.09.13-.46.83-.6,1.06l-.37.61a7.05,7.05,0,0,1-.7,1,8.34,8.34,0,0,0-.79.83c-.37.47-.55.61-.78.93s-.65.7-.84.93-.09.37-.56.23-.64-.14-.78-.42-.14-.55-.28-.79a2,2,0,0,0-.51-.64c-.28-.24-.23-.42-.56-.42s-.46,0-.65,0-.14.24-.41.42a9.56,9.56,0,0,1-2,.33,1.35,1.35,0,0,0-.46,0,4.2,4.2,0,0,0-.74,0,6.51,6.51,0,0,1-1,.1c-.28,0-.69-.24-1-.24s-.55-.14-.83-.14-.7.14-.74-.27a12.35,12.35,0,0,0-.28-1.26s0-.69.23-.74.09-.23.46.05.7.23.93.51a2.32,2.32,0,0,0,.79.46c.14.1,0,.23.42.23s-.1.1.37,0a4.16,4.16,0,0,0,.46-.09c.37-.09.88-.14.56-.51s-.61-.51-.65-.79-.47-.6-.14-1,.51-.56.55-.84a9.58,9.58,0,0,0,.14-1.2v-.74a1.92,1.92,0,0,0-.18-.74,4.11,4.11,0,0,0-.7-.93,3.37,3.37,0,0,0-.83-.65,7.21,7.21,0,0,0-.84-.23,4.55,4.55,0,0,0-1.11-.33c-.28,0-.79,0-.93,0a1.36,1.36,0,0,0-.92.32,16.61,16.61,0,0,1-1.21,1.25,4.54,4.54,0,0,0-1.11,1.07c-.33.42-.84.93-1.07,1.2s-.46.47-.79.84a7.39,7.39,0,0,0-.6.83,6.89,6.89,0,0,1-.56.75,5.29,5.29,0,0,0-.6,1.06c-.14.28.09.51-.42.7s-.78.74-1.2.46-.28-.42-.79-.46a5.33,5.33,0,0,1-1.21-.28,4.64,4.64,0,0,0-1-.28c-.23,0-.79-.32-1-.23s-1.11.32-1.25.42a1,1,0,0,1-.56.28,4.22,4.22,0,0,1-.79.09s-.41-.6-.51-.79a1.94,1.94,0,0,1-.41-.88,3.37,3.37,0,0,1,0-1.25c.09-.14.13-.47.27-.61a4.47,4.47,0,0,0,.38-.51,1.06,1.06,0,0,0,.23-.23,3.59,3.59,0,0,0,.23-.55c0-.14.09.18,0-.14l0-.33s-.51-.65-.65-.65.59-.41-.52.19a4.19,4.19,0,0,1-1.38.6h-1a12.4,12.4,0,0,0-2.46.74l-1.67.79s-.28.19-.51.37a5.26,5.26,0,0,1-.93.42,1.17,1.17,0,0,1-.6.23c-.37,0-1.11-.05-1.16.09s-.32.28,0,.47.65.09.79.23.28.09.42.46a1.64,1.64,0,0,1,.18.93,2.09,2.09,0,0,1-.32,1.07c-.19.14-.42,0-.42.41s-.09.51.14.75-.28-.1.56.51A7.22,7.22,0,0,1,88.92,235v.84s-.1.83-.19,1.2-.37.37-.56.65a1.79,1.79,0,0,1-.83.65,7.48,7.48,0,0,1-1.45-.09c-.22,0-2.82-1.3-2.82-1.3l-.83-.46S82,236,81.68,236s-1.67-.18-1.67-.18l-1.11.09-1.2.46s-.56,0-.75.75-.37,1.29-.46,1.76-1.21,1.39-1.58,1.85-1.85,2.51-2,2.78-2.78,2.88-3.15,3.16a23.2,23.2,0,0,0-2.13,1.48,12.64,12.64,0,0,1-2,1.67,5.81,5.81,0,0,1-2.11.8,6.33,6.33,0,0,0-1.23.19l-.68.31a5.61,5.61,0,0,1-.87.8,8.31,8.31,0,0,0-1.23.62,7,7,0,0,1-.81.68,9.91,9.91,0,0,1-1.11.43,3.29,3.29,0,0,0-.8,0c-.31.07-.87.13-.87.13a2.15,2.15,0,0,0-.87.62,1.86,1.86,0,0,1-.92.55l-.44-.49V254a9.5,9.5,0,0,1,.56-1.11l-.56-.25-.86.38s-.31.37-.62.37-1.42-.07-1.42-.07L49.47,253a1.54,1.54,0,0,0-.62-.24,4.41,4.41,0,0,0-1,0c-.55.06-.92.12-1-.13s-.5-.86-.38-1.05.25-.37.44-.68a4.67,4.67,0,0,0,.24-1.3s0-.43-.24-.55a1.8,1.8,0,0,0-.93-.37,2.54,2.54,0,0,1-.87-.19L44,247.77s.12-.06-.62,0a4.13,4.13,0,0,1-1.23,0,8.41,8.41,0,0,1-1.36-.37s-1.67-1.55-1.86-1.61-.56-.06-.86-.12a3.64,3.64,0,0,1-.81-.25c-.74-.25-1.17-.43-1.17-.43a1.14,1.14,0,0,0-.68-.37c-.44-.06-.68-.19-.93-.19s-.87-.43-1.11,0l-.25.43s-.25.38-.49.38H31.6a2.09,2.09,0,0,0-.86.06c-.43.12-.31-.44-.74.37s-.31,1.11-.31,1.11a.88.88,0,0,0-.31.62c0,.37-.19.62,0,1a4.87,4.87,0,0,1,.49,1c0,.18-.22.8-.57.86a6.91,6.91,0,0,1-1.22.25,7.8,7.8,0,0,0-1.11.12c-.5.07-.68,0-1.61.07s-.93.18-1.3-.13a4.62,4.62,0,0,1-1-.93,7.06,7.06,0,0,0-1.55-1.48c-.55-.37-1.6-1.11-1.6-1.48s.31-.62,0-1a3,3,0,0,1-.62-1.12,11.16,11.16,0,0,1,0-1.42c0-.49-.18-.74,0-1s-.15-.62-.06-1.11a5,5,0,0,0,0-1.61c-.08-.25-.26-1.05-.32-1.36s-.44-.49,0-.74,1.73-1.67,2.16-1.67a29.82,29.82,0,0,0,3.52-.93c.81-.24,4.15-.8,5-.92a5.19,5.19,0,0,1,3,.43c.62.43,2.84,1.36,3,1.48a12.18,12.18,0,0,0,2.29,1c.86.25,2.9,1,2.9,1l.19.31s-.19.31.25.37a5.56,5.56,0,0,0,.86.06c.19,0,.19-.24.68.25a7,7,0,0,0,.87.74l.55.43.31.25s.31-.12.25.13a1.33,1.33,0,0,1-.19.55,5.22,5.22,0,0,1-1.05,1.05c-.18.06-.43-.24-.49.19s-.19,1,.06,1-.25.12.25,0,.8-.93.8-.93l.93-.8.06-.31v-.25L45,240.1l.62-.49s-.19-.12.37-.19.93-.24,1.17-.24a6.67,6.67,0,0,1,1.55.49,6.46,6.46,0,0,0,.83.59c.3.14.44.49.81.44a2.54,2.54,0,0,1,.58-.07h.51s1.56-.67,1.65-.74.28-.28.53-.51.84-.65.84-.65-.19,0,.18-.14.79-.28.95-.35.72-.21.86-.28-.07-.07.37-.16a2.42,2.42,0,0,0,.74-.28l.26-.25.14-.21a1.69,1.69,0,0,0,.18-.58c0-.23,0-.56,0-.56s.07-1,.09-1.09-.07-.37.09-.58.23-.39.37-.46.24-.26.42-.3.12-.16.46-.12a2.42,2.42,0,0,1,.72.26s.84.28,1.07.39a3.81,3.81,0,0,1,.44.23c.09.07.37.26.42.4a4.38,4.38,0,0,0,.32.58s.44.55.47.62.07.1.25.3.44.4.46.54a.91.91,0,0,0,.42.53,1.82,1.82,0,0,1,.56.12,3.45,3.45,0,0,0,.51.25,5.43,5.43,0,0,0,.69.16,2.48,2.48,0,0,0,.72.07c.33,0,.4-.07.44,0s.19.07.44.35.47.28.58.47a2.79,2.79,0,0,0,.31.44,1.66,1.66,0,0,0,.41.23.87.87,0,0,0,.3.39,1.57,1.57,0,0,0,.75.23c.39,0,.67.07.67.07s-.16-.09.16-.11.79-.1,1-.14.58,0,.72-.14l.14-.14,0-.3a1.61,1.61,0,0,0-.3-.14c-.23-.09,0,0-.23-.09l-.24-.12a.92.92,0,0,1-.16-.39c0-.17-.07-.33,0-.4s.07-.09.25-.14a2.86,2.86,0,0,1,.63-.09l.37,0a1.57,1.57,0,0,0,.21-.37,3.78,3.78,0,0,1,.14-.42.43.43,0,0,1,.32-.33c.28-.06.63-.16.77,0s.27.23.48.37.28.35.47.53.28.23.37.35.09.28.23.28a.42.42,0,0,0,.26-.07.72.72,0,0,0,.23-.35c0-.14.09-.39.09-.39s.05-.14.12-.3.16-.35.16-.35.09-.26.18-.3a1.36,1.36,0,0,0,.37-.31,3,3,0,0,1,.28-.27s.1-.17,0-.26-.23-.28-.37-.42a4.36,4.36,0,0,0-.56-.44,5.52,5.52,0,0,0-.62-.41,3.61,3.61,0,0,1-.68-.37,2,2,0,0,0-.58-.38,1.81,1.81,0,0,0-.69,0,2.29,2.29,0,0,0-.56.32,4.91,4.91,0,0,1-.53.42c-.14.07,0,.14-.44.16a5.58,5.58,0,0,1-1,0,3,3,0,0,1-.72-.31c-.31-.16-1.26-.69-1.67-.85a9.34,9.34,0,0,0-1.44-.4,4.3,4.3,0,0,1-.88-.09,2.13,2.13,0,0,1-.74-.35c-.17-.14-.81-.62-1-.83s-.51-.49-.75-.74a9.68,9.68,0,0,0-.9-.77,3.08,3.08,0,0,0-.9-.51,3.66,3.66,0,0,1-1.14-.23l-1-.6a4.83,4.83,0,0,0-.58-.47l-.86-.55a.76.76,0,0,0-.67-.4,4.6,4.6,0,0,0-1.11.19s-.28-.19-.63.41-.44.54-.46.86,0,.67-.05.79a7.49,7.49,0,0,1-.23.81,3.94,3.94,0,0,1-.37.49,1.42,1.42,0,0,0-.21.46c-.07.21-.35.4-.35.79s.19.53,0,.84-.58.6-.62.85.2.42-.19.51a9.88,9.88,0,0,1-1.27.21,14.56,14.56,0,0,1-1.47.12,2.8,2.8,0,0,0-1,0,1.25,1.25,0,0,1-.91.33,10.85,10.85,0,0,1-1.39-.37,3.92,3.92,0,0,0-.69-.12,1.9,1.9,0,0,1-.7-.28,3.83,3.83,0,0,0-.37-.67,3.51,3.51,0,0,0-1.25-.83c-.28,0-.4-.05-.72-.05s-.81,0-.93-.23-.69-.67-.88-.95a10.94,10.94,0,0,0-.72-.88c-.18-.24-.23-.37-.41-.61s-.58-.51-.61-.67a3,3,0,0,1-.07-.37,2.76,2.76,0,0,0-.25-.67c0-.07-.28-.3-.37-.3s-.35-.07-.49,0-.21.23-.37.34-.6.24-.93.42l-1,.6s-.11.17-.53.21a9.39,9.39,0,0,1-1.23,0c-.23,0-.67,0-1,0H33.18a4.81,4.81,0,0,1-.9-.16c-.1,0-.58-.28-.58-.37s-.07-.6-.3-.72L30,227.62c-.1,0-.51.16-.51-.28s-.61-.83-.61-.9-.55-.58-.64-.77a1.14,1.14,0,0,1-.17-.51.8.8,0,0,0-.3-.67c-.25-.18-.53-.32-.53-.39a.44.44,0,0,0-.21-.53c-.32-.17-.88-.31-1-.42s-.42-.09-.44-.3-.1-.61-.28-.72-.54-.19-.7-.35-.32-.35-.32-.44-.12-.07-.3-.42-.24-.46-.21-.65-.1-.25.09-.53.09-.26.32-.46S25.37,218,25.44,218H26a3.45,3.45,0,0,0,.95-.44c.21-.21.3-.3.48-.46s.65-.54.65-.54a3.65,3.65,0,0,1,.63-.62l.51-.3a5.77,5.77,0,0,0,1-.61,2.68,2.68,0,0,1,.53-.39,3.58,3.58,0,0,1,.68-.35c.3-.11.81-.3,1.11-.39s.79-.23.79-.23a13.76,13.76,0,0,0,1.48.27l.77-.09a1.33,1.33,0,0,1,.62,0l.26.07a1.27,1.27,0,0,1,.44.1.48.48,0,0,1,.09.23l.12.3-.28.28s-.26.44-.28.51-.12.07-.09.21.48.6.48.6a1.3,1.3,0,0,1,.35.3,5.59,5.59,0,0,0,.51.49,1.74,1.74,0,0,1,.19.25s.51.51.6.58a10.55,10.55,0,0,1,1,.93c0,.09.26.44.42.81a6.36,6.36,0,0,0,.37.7c.09.16.21.14.28.44a1.89,1.89,0,0,0,.3.6c.05.09.09.05.12.26a2.6,2.6,0,0,0,.14.57c0,.07,0,.05.2.12s.42.3.63.14a2.22,2.22,0,0,0,.6-.81c.17-.35.26-.16.35-.16a5.79,5.79,0,0,1,.63.18,2,2,0,0,0,.46,0c.26,0,.49.07.42-.19s.07-.3-.28-.39a1.5,1.5,0,0,0-.63-.07c-.09,0-.41,0-.34-.16s0-.33.23-.42.35-.16.69-.28a1.71,1.71,0,0,1,.77-.16c.42,0,.86-.05,1.23-.05a1.7,1.7,0,0,0,.83-.09,2.73,2.73,0,0,1,.4-.23c.2-.09.23-.33.3-.37s.11-.19.21-.23,0-.21.39-.17.67.1.67.1l.77,0c.16.07,1.46.33,1.46.33s-.19,0,.11,0,.21,0,.49.09a1.67,1.67,0,0,0,.77,0,3.41,3.41,0,0,0,.76-.28c.14-.09.51-.28.51-.28a1.65,1.65,0,0,0,.4-.09,1.82,1.82,0,0,1,.67-.23c.25,0,.58-.16.74,0s.67.39.72.53a5.65,5.65,0,0,1,.25.86,1.3,1.3,0,0,0,.07.41.65.65,0,0,0,.21.31,2.05,2.05,0,0,0,.51,0c.23,0,.51-.09.58-.09l.53.07.7.46a.57.57,0,0,1,.28.14l.18.14s.1-.23.75,0a4.5,4.5,0,0,1,.92.28l.65.33a1.45,1.45,0,0,1,.47.37l.69.69s.7.28.7.42a1.65,1.65,0,0,0,.28.51s.32.09.37.33.18.64.23.92,0,.42.18.51a4.83,4.83,0,0,0,.79.28l.14.42a1.33,1.33,0,0,1,.51.09c.14.09.6.46.6.46l.42.51s.23,0,.23.19.1.14.19.37a1.14,1.14,0,0,0,.37.42.7.7,0,0,0,.32.28c.19,0,.47-.14.61,0s.55.65.69.69a4.86,4.86,0,0,0,1.12.19c.13,0,.27-.23.46-.23s.37-.05.65-.05a1.59,1.59,0,0,0,.69-.09,1.91,1.91,0,0,1,.61-.24c.14,0,.46-.27.6-.09a6.48,6.48,0,0,0,.65.56l.14.14s.51.37.55.55,0,.51.33.51,0,.33.28,0,.41-.37.32-.64a1.57,1.57,0,0,0-.32-.52s-.51-.41-.1-.46.56-.14.7,0-.09-.14.14.14a2.51,2.51,0,0,0,1,.46l.37-.37s-.42-.32,0-.32a2.6,2.6,0,0,1,.83.14,1.28,1.28,0,0,1,.42-.1.85.85,0,0,0,.46-.09c.19-.09.51,0,.47-.46a3,3,0,0,0-.24-1.16c-.18-.33-.46-.6-.46-.79s.14-.51,0-.74a6.73,6.73,0,0,0-.51-.65.74.74,0,0,1-.14-.32,1.21,1.21,0,0,0-.32-.79c-.28-.28-.42-.28-.56-.51s-.32-.37-.37-.51-.28-.56-.28-.56a1.93,1.93,0,0,1-.51-.28c-.14-.14-.42-.37-.42-.37l-.37-.6h-.41a.53.53,0,0,0-.47.18,1.71,1.71,0,0,0-.18.65l-.19.33-.23.09-.56-.09-.65-.47a1.18,1.18,0,0,0-.32-.14c-.28-.09-1-.37-1-.37a7.08,7.08,0,0,0-.65-.37,5,5,0,0,0-.74-.18c-.14,0-1.39-.1-1.76-.1h-1a5.26,5.26,0,0,1-1.34,0c-.14-.09-.79-.33-.79-.47a1.6,1.6,0,0,0-.28-.78c-.14-.1-.65-.65-.65-.65s.14-.1-.28-.42-.79-.56-.79-.56.24,0-.27-.41L63,216.8s-.51-.42-.7-.56a9,9,0,0,0-1-.74c-.28-.14-1.11-.75-1.11-.75s.09,0-.1-.32l-.18-.32s0-.42.56-.56a4,4,0,0,1,1-.19c.28,0,1.44-.37,1.81-.37a2.79,2.79,0,0,0,1-.09c.14-.09.23-.05.47-.28a3.44,3.44,0,0,0,.55-.65,1.31,1.31,0,0,1,.74-.55c.19,0,1.53.09,1.53.09a5.29,5.29,0,0,0,.65.42,2.76,2.76,0,0,0,.65.27,9.9,9.9,0,0,0,1.12.19c.13.05.23.05,1,0a2.29,2.29,0,0,0,1-.19c.14,0,0,.42.14,0s.14-.93,0-1a2,2,0,0,0-.65-.09,7.63,7.63,0,0,1-1.07,0,1.32,1.32,0,0,1-.7-.42l-.64-.51a.65.65,0,0,1-.47-.32,5.69,5.69,0,0,1-.46-1,2.87,2.87,0,0,0-.14-.56c0-.14-.23,0,0-.42l.33-.74.23-.46a.77.77,0,0,1,.65-.1c.28.14-.33-.09.6.24a7.73,7.73,0,0,1,1.16.46,4.1,4.1,0,0,0,1,.18l.65.28s0,.1.32.1H73s0,.14.42.14-.09-.61.56-.24a5.52,5.52,0,0,1,1.11.79c.14.14.46.42.46.42a1,1,0,0,0,.28,0c.14,0,.23-.1.37-.1h.84a4.77,4.77,0,0,0,1.43.05,5.47,5.47,0,0,1,1.16-.37c.51-.09.56-.23,1.21-.33s1.06,0,1.48-.41.28-.75.74-.84.75,0,1.07-.32.7-.7,1-.88.56-.28.75-.65.37-.42.51-.79a6.09,6.09,0,0,0,.23-1,3.2,3.2,0,0,0,.28-.74A5.26,5.26,0,0,1,87,202l.74-.33s0-.23.37-.23.65-.05.84.09a25.73,25.73,0,0,0,3.75,1.21,11.43,11.43,0,0,0,4.13.42,15.91,15.91,0,0,0,4.17-1.07c1.16-.51,3.48-2.27,4.27-2.32s2.22-.09,2.55-.18a3.07,3.07,0,0,1,2-.51,10.33,10.33,0,0,1,2.51.64c.41,0,1,.28,1.3.24s.13.27.32,0,.19-.46-.09-.65.32-.18-.88-.42l-1.44-.27-.42-.33a.69.69,0,0,0-.56-.32c-.41,0-1.43-.1-1.43-.1l-.37-.37-.19-.6s.14-.28.23-.42.47-.88.23-.83-.6.6-.78.74-.75.6-.93.74-.74.6-1,.74a2.93,2.93,0,0,1-1.16.47c-.7.14-1.58.37-1.58.37l-1.07.79a9.66,9.66,0,0,1-1.16.32l-1.2.14-.84.28a2.85,2.85,0,0,1-.55.46,2.83,2.83,0,0,0-.7.37,9.91,9.91,0,0,1-2.36.42,3.46,3.46,0,0,1-1.39-.05c-.89-.18-2.32-.78-2.79-.92s-1.8-.61-2.36-.7a7.63,7.63,0,0,1-1.67-.37c-.42-.19-.37-.19-.84-.37a22,22,0,0,1-1.94-1.44,1.24,1.24,0,0,0-.56-.55c-.18-.05-1-.42-1.16-.47a7.87,7.87,0,0,1-.83-.37,8.85,8.85,0,0,0-1.3-.42c-.28,0-.74-.18-1-.23s-.83-.23-.83-.23.56-.05-.46-.32a9.47,9.47,0,0,1-1.49-.51l-.37-.56v-.37l.09-.23a6.24,6.24,0,0,1,.47-1.26l.74-.51.23-.46a1,1,0,0,0,.47-.19,3.75,3.75,0,0,1,.69-.37,2.14,2.14,0,0,0,.88-.14c.65-.18,1-.46,1.21-.46a8.6,8.6,0,0,0,1.06-.28,3.75,3.75,0,0,0,.75-.28c.37-.18.55-.37.83-.51a6.25,6.25,0,0,0,.74-.46,2,2,0,0,0,.33-.32l.14-.14.37-.14-.61-.65-.6.46-.37.47-.42.23s.51-.05-.41.28-1.49.46-1.49.46l-.69.37-.93.19-.88.14-.65.18a1.33,1.33,0,0,1-.33.23,2.57,2.57,0,0,0-.46.42l-.6.42-.33.46-.23.42-.37.55s.23.28-.28,0-.79-.28-.88-.42a1.3,1.3,0,0,0-.37-.41c-.23-.19.37,0-.65-.42s-1.25-.6-1.25-.6a1.29,1.29,0,0,1-.46-.28,2.21,2.21,0,0,0-.47-.42,1.6,1.6,0,0,0-.42-.28c-.13,0-.46-.18-.46-.18s-1.07-.47-1.34-.56l-.28-.09s-.79-.14-.93-.14-.23-.09-.65-.19-1-.27-1-.27a4.4,4.4,0,0,0-.46-.24c-.23-.09.09,0-.23-.09a1,1,0,0,0-.79.19,12.06,12.06,0,0,1-1.35.55,2.1,2.1,0,0,0-.51.42c-.14.14-.65.51-.65.51a1.18,1.18,0,0,0,.14.32c.14.28.23.61.47.7s-.14.19.65.42,2.17.55,2.92.79.88.23,1.94.6,2,.74,2,.74l2,.88a4,4,0,0,1,1.25.65c.28.33.56.46.61.6a.88.88,0,0,0,.28.51c.18.14.6.37.83.56a6.21,6.21,0,0,1,.79.65,3.56,3.56,0,0,0,.6.83c.46.47,1.44.88,1.72,1.3a3.7,3.7,0,0,0,1,.84c.23.18,1.07.37,1.44.78a2.87,2.87,0,0,0,.74.65c.37.28,1.07.56,1.25.89s.37.27.51.64.51.75.51,1,0,.75-.18.89-.28.51-.7.55a7.89,7.89,0,0,0-1.48.42c-.37.14-.84.14-1.12.23s-.65.14-1.11.28a2.19,2.19,0,0,1-1.44.14,13.24,13.24,0,0,1-1.39-.79,8,8,0,0,0-1.25-.56l-1.34-.41-.93-.42c-.19-.09-.93-.42-1.44-.6a8.63,8.63,0,0,1-1.07-.51,1.8,1.8,0,0,0-.27-.7,2.18,2.18,0,0,0-.65-.51,3.69,3.69,0,0,0-1.49-.65c-.55,0-.41.14-1.06-.09a17,17,0,0,1-1.63-.7,7,7,0,0,1-.83-.46c-.19-.09-.42-.14-.42-.42a5.86,5.86,0,0,0-.14-1.16,4.8,4.8,0,0,0-.37-1.16c-.14-.27-.14-.14-.18-.51s-.1-.74-.14-1,0-.23-.14-.55a4.38,4.38,0,0,1-.42-1.16c0-.14-.18-.23-.42-.61a7.79,7.79,0,0,0-.6-.92c-.14-.14.05-.1-.32-.47a3.22,3.22,0,0,0-1.26-.74c-.41-.14-1.53-.6-1.53-.6a4.47,4.47,0,0,1-1.06.14,1.89,1.89,0,0,0-1.07.23,4.69,4.69,0,0,0-.51.56,1,1,0,0,1-.6.32,2.89,2.89,0,0,0-.93.14c-.28.14-.51.14-.65.28s-.46.55-.6.69a5.75,5.75,0,0,0-.47.75,1.39,1.39,0,0,1-.41.6,5.42,5.42,0,0,0-.79,1.16,3.52,3.52,0,0,0-.42.6c-.23.42-.46.42-.51.7s-.09.6.09.65a6.27,6.27,0,0,0,.84,0c.14,0,.88-.18,1.2,0s.42.18,1,.55.83.51,1.2.51.42,0,1.16.05a7.6,7.6,0,0,0,1.76-.14c.33,0,.56-.55.6,0s0,.74.28,1.06.56.23.79.7a2.38,2.38,0,0,0,.51.65c.09.14.6.65.65.79s.28.09.37.41.05.05.23.61-.14.37.19.55.65.14,1,.33a14.12,14.12,0,0,0,1.48.46,1.27,1.27,0,0,1,.65.28c.37.28.93.23,1.16.6s.42.51.46.7.47.65.33,1.06a1.81,1.81,0,0,1-.46.93,6.55,6.55,0,0,0-.61.46l-.37.56c-.18.28-.18.37-.51.56a2.2,2.2,0,0,1-.69.23,2.32,2.32,0,0,0-.65.09c-.23.09-.65.14-.84.23s-.46.19-.69.33a1.16,1.16,0,0,1-.74.23,9,9,0,0,0-1.21.09,2.6,2.6,0,0,1-.88.23,4.13,4.13,0,0,1-1.16-.09c-.14-.09-.65-.6-.93-.88s-.6-.83-1.06-.83a4.79,4.79,0,0,0-.89.09s.47.23-.32.14-1.11-.23-1.21-.37-.32-.19-.37-.56a1.82,1.82,0,0,0-.28-1.07,16.5,16.5,0,0,0-1.48-1.71c-.09-.19.14-.37-.42-.51a4,4,0,0,0-1-.23,1.51,1.51,0,0,0-.74.09,2,2,0,0,1-.79.09.66.66,0,0,1-.51-.23c-.14-.23-.37-.65-.37-.65l-.65-.69-1.06.46-2.69,1.76-.33.05a.7.7,0,0,0-.28.32,3,3,0,0,0-.13.65,5.49,5.49,0,0,1-.19,1,4.59,4.59,0,0,0-.28.79c0,.32,0,.56-.09.83a5.64,5.64,0,0,1-.28.7c-.05.19-.05.19-.18.6a7,7,0,0,0-.33,1.35c0,.23.05.32.05.69a1,1,0,0,0,.37.93,1.42,1.42,0,0,0,.79.23,12,12,0,0,0,1.76-.32c.51-.14,1.3-.47,1.3-.47a10,10,0,0,1,1.16-.23,3.31,3.31,0,0,0,.92-.32,1.4,1.4,0,0,1,.7-.19c.46,0,1,0,1.16,0s-.28-.38.69,0,1.16.23,1.35.55.55.47.69.84.24.41.37.78.28.1.47.61a7.39,7.39,0,0,0,.42,1.11c.14.23.46.14.41.56a1.09,1.09,0,0,1-.41.83c-.24.19-.28.05-.51.33s-.24.14-.65.51-.42.46-.75.51-.32,0-.6-.24-.37-.41-.65-.51a4.43,4.43,0,0,0-1-.18,4.14,4.14,0,0,0-1.07-.14,1.83,1.83,0,0,0-.74.19,6.91,6.91,0,0,1-1.76-.1,1.45,1.45,0,0,0-.84-.14,11.28,11.28,0,0,0-1.34.19c-.19,0,0,.23-.23.42a2.34,2.34,0,0,1-.61.46,4.68,4.68,0,0,1-1,.42c-.37.09-.69.09-.69,0a3.83,3.83,0,0,0-.19-.93,1.27,1.27,0,0,0-.41-.55c-.19-.14-.79-.47-.79-.47a3.19,3.19,0,0,1-.37-.55,2.93,2.93,0,0,0-.65-.61,4,4,0,0,1-.7-.6,4.3,4.3,0,0,0-.37-.65l-.14-.14-.23-.23-.14-.32a.5.5,0,0,1,.28-.19.94.94,0,0,1,.46-.09,1.43,1.43,0,0,0,.74-.19c.33-.14,1.21-.69,1.21-.69s.09-.05.23-.37.1-.56.19-.75-.09,0,.18-.51a2.77,2.77,0,0,0,.37-.78,2.68,2.68,0,0,1,.33-.84c.23-.32.32-.28.46-.79a12.52,12.52,0,0,1,.33-1.25,1.77,1.77,0,0,0,.18-.6,2.35,2.35,0,0,0,.14-.7v-.69c0-.14.28-.19-.18-.47l-1.07-.6a.46.46,0,0,1-.23-.23,6.46,6.46,0,0,1-.37-1.11c-.1-.42-.23-.56-.23-.7v-.6a5,5,0,0,1,.18-1.3,2.59,2.59,0,0,1,.28-.51,3.86,3.86,0,0,1,.88-.74,11.62,11.62,0,0,1,2.5-1c.47-.05.61-.19,1.49-.28a6.63,6.63,0,0,0,1.71-.33c.61-.18.47,0,.88-.23s.56-.14.89-.51a9.66,9.66,0,0,1,.78-.88,10.46,10.46,0,0,0,1.26-1.53c.13-.23.41-.55.41-.69s-.14.14-.18-.75.09-1,0-1.29-.6-.61-.42-1.3-.14-.7.42-1a4.77,4.77,0,0,1,1.48-.74c1.26-.42,2-.69,2.18-.79s-.18.14,1.07-.41a10.62,10.62,0,0,1,1.81-.75c.65-.18.14-.27,1.2-.23a6.73,6.73,0,0,1,1.44.14c.14.05.51.05.65.23s.19.24.37.47a.67.67,0,0,0,.74.23c.28-.09,0,.05.28-.09s1.12-.28,1.35-.42a4.58,4.58,0,0,0,.69-.51c.14-.14.51-.19.33-.84a5,5,0,0,0-.65-1.29s-.23-.38-.37-.56a3,3,0,0,1-.51-.79c-.14-.37-.51-.74-.51-.93s-.47-.37,0-.92.69-.84.92-1.16.1-.37.47-.74.55-.52.55-.7a1,1,0,0,0-.18-.74c-.23-.33-.79-.74-.93-1s0,.19-.14-.23,0-.93-.14-1.16a2.77,2.77,0,0,1-.32-.65A3,3,0,0,1,63,174c.05-.28.1-.51.1-.51a4.61,4.61,0,0,1,.83-.79c.28-.14,1.25-.84,1.72,0s.23,1.16,0,1.3a4.63,4.63,0,0,0-.46.37,2.1,2.1,0,0,0-.19.79,2.27,2.27,0,0,1,.23.6c.19.55.28.79.42.79s.47.18.6,0l.14-.19a10.15,10.15,0,0,1,.1-1.62,6.12,6.12,0,0,1,.51-1.25,7.09,7.09,0,0,1,1.34-.14.52.52,0,0,1,.37.23c.19.23.14.51.42.83s.14.37.56.51.78.24,1,.33.41,0,.51.18.6.61.69.75a9.37,9.37,0,0,0,.79.69s-.19.09.7.6,1.53.93,1.53.93l1,.7s.09.46.79.65,1,.18,1.34.32a3.67,3.67,0,0,0,.37.14,3.76,3.76,0,0,0,1,.19c.14,0,.28-.1.41,0s-.09.64.14.74a1.58,1.58,0,0,1,.51.46l.84.65s.18.28.28.46a1.3,1.3,0,0,1,0,.56s-.18.28-.32.28a8.06,8.06,0,0,1-1.39-.33c-.37-.14-.79-.37-.93-.41l-.56-.24a2.36,2.36,0,0,0-.78-.55c-.51-.23-1.72-.65-1.72-.65l-.83-.51a5.49,5.49,0,0,1-.52-.51,7.67,7.67,0,0,0-.69-.7l-.6-.51-.84-.65-.79-.6-.46-.37-.74-.19h-.37l.37.79a2.2,2.2,0,0,0,.46.42c.33.23.7.7,1.16.84a1.65,1.65,0,0,1,.74.46l.56.56c.18.18.69.51,1,.78a6.89,6.89,0,0,0,.6.51,5.06,5.06,0,0,1,.47.37,1.88,1.88,0,0,0,.83.51,9,9,0,0,1,.88.38s.14.32.88.55a12.58,12.58,0,0,1,1.49.56,1.35,1.35,0,0,0,.69.32,4.22,4.22,0,0,1,1.07.42c.14.09,0-.05.69.23s1,.37,1,.37l.18-.23-.88-.83s-.18-.14,0-.37a1,1,0,0,0,.28-.61l0-.23s-.09-.42,0-.6l.14-.19,1.58-.92c.23-.14-.24-.14.6-.24l.83-.09s1-.09,1.12-.09a.71.71,0,0,1,.55.14c.28.18.42.23.65.37s.6,0,.7.28,0,.46.46.51.56,0,.74.18.61-.23.61-.23,0-.7-.33-1-.74-.61-.74-.61a3.44,3.44,0,0,0-.74-.83c-.28-.14-1.21-.79-1.21-.79s-.09-.56-.23-.05,0,.7-.28.84-.28.32-.51.37a2.19,2.19,0,0,1-.74.14c-.42,0-1.48,0-1.81,0a3.33,3.33,0,0,0-1,0c-.23.09,0,.65-1.07.14l-1.53-.7a6,6,0,0,1-.93-.09c-.51-.09-1.2-.19-1.48-.28a7.2,7.2,0,0,1-.93-.37l-.88-.42a1.73,1.73,0,0,1-.69-.51c-.24-.32-.19-.6-.47-.83s-1.11-.79-1.11-.79l-.51-.51a3.46,3.46,0,0,0-.79-.65,3.61,3.61,0,0,1-1-.51c-.23-.23-.83-.56-1.07-.79a2.41,2.41,0,0,0-.65-.55,5.69,5.69,0,0,1-1.11-.61c-.32-.27-1.11-.83-1.11-.83l-.47-.79s2.32-2.78,2.74-3.11,1.53-2.5,1.9-2.87,1.86-2,2.23-2.46,1.71-1.85,2.18-2.46a21.13,21.13,0,0,1,1.81-2.22c.69-.7,1.43-1.53,2-2.14s2.69-4,3.24-4.4,2.64-4.08,3-4.54,1.2-2.83,1.53-3.25a32.58,32.58,0,0,0,1.62-3.29,16.47,16.47,0,0,1,.93-2.23c.55-1,1.8-3.62,2.22-4.45s1.3-3,1.67-3.85.7-2.73,1-3.43,0-.14.75-2a7.46,7.46,0,0,0,.51-2.59c.18-.33.55-1.35.83-2a4.19,4.19,0,0,0,.47-1.81,6.78,6.78,0,0,1,.23-2.27c.28-.65.23-1.39.51-2a15.27,15.27,0,0,0,.51-2.37c.14-.6.32-1.57.37-2a6.57,6.57,0,0,1,.28-1.76c.23-.7.51-7,.65-7.79s-.14-3.11,0-4.08a41,41,0,0,1,.79-4.64c.42-1.25.37-1.62.7-2.83s.92-3.24,1.15-3.8.28-2.46.47-3.06a20.88,20.88,0,0,1,.69-2.69,6,6,0,0,0,.56-2.13c0-.46.05-.65.09-1.76s-.46-.88,0-2.09a10.23,10.23,0,0,0,.51-3.11c.14-1.2-.18-1.29.33-1.94s.37-.79,1.2-1.16,1.72-.7,2-.47a5.36,5.36,0,0,0,1.12.61,5.19,5.19,0,0,0,.69,0s-.09,0,.19-.37,0-.6.28-.32a1.06,1.06,0,0,1,.37.88,5.85,5.85,0,0,1,0,1.57,1.29,1.29,0,0,0-.23,1,2.5,2.5,0,0,0,.6,1.86c.46.37-.74-.09,1.11.74s2.27,1.3,2.64,1.39l.88.23-.27.75a5.91,5.91,0,0,1-.88,1c-.42.32-1.86,2-2,2.18s-.38.6-.7.79.65.23.65.23a3.68,3.68,0,0,1,.42-.7,6.31,6.31,0,0,1,1-1c.23-.19,1.34-1.44,1.34-1.44s.42-.46.7-.41a7,7,0,0,1,1.72,1.11,1.37,1.37,0,0,0,.83.46c.28,0,.7-.18.7-.37s.32-.46.14-.83-.51-.75-.79-.75a3.06,3.06,0,0,1-1-.23,4.13,4.13,0,0,0-.51-.18l-.28-.28s.14-.37.32-.42a6.42,6.42,0,0,0,.65-.32c.23-.1,1-.51,1-.51l.92-.7s.75-.51.79-.65a2.79,2.79,0,0,1,.47-.74c.18-.19.51-.79.83-.93s.51-.14.93-.32a15.08,15.08,0,0,1,2.27-.56c.14,0,1.39.65,1.39.88a2.08,2.08,0,0,0,.37,1.25c.37.56.6,1.44,1.25,2.56s1.12,1.62,1.63,2.68a11.34,11.34,0,0,1,.78,2.14,8.69,8.69,0,0,1,.19,1.9c0,.69-.14.6-.14,2.46a12.27,12.27,0,0,0,.37,3.61,7.72,7.72,0,0,0,1.35,2.65c.41.27,1.11.88,1.71.74a4.36,4.36,0,0,0,1.58-.7c.56-.37.83-.74,1.25-.79s.74-.41,1.16-.13a5.25,5.25,0,0,1,.74.69.65.65,0,0,0,.65.14,3.4,3.4,0,0,1,1.44-.09c.51.14.6,1,.79,1.48a10.87,10.87,0,0,1,.74,1.67,4.75,4.75,0,0,1,.14,1.72c-.14.23-.41,1-.6,1.11s-.7.56-.93.6-.51.19-.79.28-.46.79-.46.79a3.81,3.81,0,0,1-.19.74c-.14.37-.56.37-.65,1a1.54,1.54,0,0,1-.56,1.16,3,3,0,0,0-1,.6,10.16,10.16,0,0,0-1,1,2.08,2.08,0,0,1-.56.46s-.83-.14-.92,0-.19.55-.47.69a.9.9,0,0,1-.6.19,4.68,4.68,0,0,1-1.11-.33,8.2,8.2,0,0,1-1.21-.46,2,2,0,0,0-.83-.37,1.36,1.36,0,0,1-.65-.14,2.08,2.08,0,0,0-1-.28,9.92,9.92,0,0,0-1.39.19s0-.42-1,.09-1.07.65-1.25,1a1.7,1.7,0,0,0-.19,1.2,16.37,16.37,0,0,1,.56,1.67,16,16,0,0,0,.23,2.32,9.44,9.44,0,0,0,.65,1.81c.14.33.19.51.42,1.11s.79,1.12,1,1.81.55,1.62.55,1.62a5.71,5.71,0,0,1,.84,1.26,5.58,5.58,0,0,1,.09,1.48,6.83,6.83,0,0,1-.37.88,1.48,1.48,0,0,1-.6,0c-.19-.1-.47-.1-.51.18a1.91,1.91,0,0,0,0,.74.9.9,0,0,0,.19.47c.18.32-.05,1-.24,1s-.27-.1-.41.14a1.1,1.1,0,0,0-.28.74c.05.28.65.69.65.83a3.25,3.25,0,0,0,.18.7c.1.28,0,.51.51.65s1.26.37,1.35.6a1.26,1.26,0,0,1-.42,1.39c-.6.51-1.53,1.35-1.53,1.35s-.6.55-1,.83a1.74,1.74,0,0,0-.61.88,2.34,2.34,0,0,1-.55,1.07l-1,.65-.13.65c-.42-.1-1.3-.24-1.3-.24a.38.38,0,0,0-.47.14c-.18.28-.65.19-.32.88s.09.33.6.84a10.49,10.49,0,0,0,1.35.93,2.19,2.19,0,0,0,1.2.37c.42,0,.7-.14,1.16.09a2.62,2.62,0,0,0,.93.37,4.38,4.38,0,0,0,1.62.19c.56,0,.37-.24,1-.19s.7.09.93.23-.09-.37.69.14a6.61,6.61,0,0,1,1.49,1.3c.09.14,1.71,1.07,1.95,1.3a3.46,3.46,0,0,0,1.39.79c.32,0-.1-.23.92-.23a17,17,0,0,0,1.77-.14c.74-.05,1.1-.33,1.69-.05a13.22,13.22,0,0,1,1.27.6c.75.42,1.12.65,1.35.74s.46-.09,1.06.19.24.46,1,.88a4.76,4.76,0,0,0,1.48.56c.37.09.47,0,.65.23a6.3,6.3,0,0,0,.88.69l1.35.47s1.34.6,1.48.6a1,1,0,0,0,.84.09,7.6,7.6,0,0,0,1.11-.37c.65-.18,1-.79,1.76-1a4.67,4.67,0,0,0,1.53-.6,11.71,11.71,0,0,0,1.53-1,11.17,11.17,0,0,0,1.16-1,11.48,11.48,0,0,0,.93-2.09,1.39,1.39,0,0,1,.18-1,8.11,8.11,0,0,0,.88-1.43c.24-.51-.18-.61.56-1a6.09,6.09,0,0,0,1.35-1l.6-.79s0-.28.79-.74,1.11-.79,1.53-1.07,1.3-.74,1.3-.74,1.2-.56,1.71-.88a15.37,15.37,0,0,0,2-1.16c.51-.46.88-1,1.44-1.44s.88-.65,1.29-.93.33-.23.89-.64.64-.7,1.2-1.12a4.91,4.91,0,0,0,1.11-2c0-.18.37-.83.24-.64s-.56.09-.93.69a28.37,28.37,0,0,1-2.46,2.6,4.88,4.88,0,0,1-.88.65,5.21,5.21,0,0,1-1.11.6c-.33.09-1.44,0-1.81,0a2.73,2.73,0,0,0-1.3.46,12.53,12.53,0,0,0-1.44,1.07c-.32.32-1.11.88-1.53,1.29s-.69.89-1,1.16a3.34,3.34,0,0,1-.93.84,20.55,20.55,0,0,0-2,1.11,5.62,5.62,0,0,0-1.43,1.62c-.42.51-.79.56-.93,1.21s-.05.83-.19,1.67.19.51-.27,1.53-.75,1.72-1.16,1.9-.28.14-1.44.74-1.58.79-1.86.93a4.55,4.55,0,0,1-1.57.14h-1.95a1.73,1.73,0,0,1-1.53-.28c-1-.56-2.78-.83-3.48-1.62A10.83,10.83,0,0,1,146,136a11.36,11.36,0,0,0-2.14-1.86,7,7,0,0,0-2.31-1c-.61-.09-1.63-.32-2.23-.42a14.09,14.09,0,0,0-1.58-.18c-.32,0-.51,0-.83,0s-.42.24-1.25.05a3.44,3.44,0,0,1-1.39-.65s.46-.88.32-1.25a4.1,4.1,0,0,1-.42-1.07c-.09-.55-.18-.55-.18-.79s-.47-.23,0-.64,4-3.06,4.63-3.44,2.69-2,3.3-2.45a12.18,12.18,0,0,1,2.78-1,2.44,2.44,0,0,0,1.44,0c.65-.28,1.06-.56,1.34-.7s.56,0,.6-.37-.09-1,.14-1.34.47-.79.56-.93.19-.7.65-.56.69.14.69.56a3.49,3.49,0,0,1-.27.93c0,.23-.37.41,0,.46s.6,0,.69-.14.09-.56.47-.46,1.11.37,1.15.51a.57.57,0,0,0,.51.23c.14,0,.47-.47.19-.65s-.32-.28-.7-.51-.74-.51-.88-.6-.46-.28-.46-.56-.19-.83.37-.83a6.32,6.32,0,0,0,.88,0,3.17,3.17,0,0,0-.09-.79l-.09-.23s0-.23.37-.47,1.44-1.48,1.62-1.48.51-.46.56-.74-.28-.56.09-1.25a4.7,4.7,0,0,1,1.21-1.53c.37-.28.27-.37.64-.42s.33.46,1.16-.09a8,8,0,0,0,1.39-1.12c.47-.41,1.72-2.31,2-2.55s1.07-.6,1.48-.88a5.58,5.58,0,0,1,1.21-.74c.79-.37.65-.46,1.34-.46a3.61,3.61,0,0,1,1.95.37,8.38,8.38,0,0,0,2.5,1.06c.89.19,2,.38,2.51.47s.65.14,1.3.32a12.44,12.44,0,0,0,1.34.37c.14,0,1.11.19,1.39.19s.28-.28.7,0a3.93,3.93,0,0,1,.93.61,1.21,1.21,0,0,0,.88.37c.14,0,.55,0,.23-.42a6.15,6.15,0,0,1-.47-.74,4.49,4.49,0,0,0,.47-.84,3.53,3.53,0,0,1,.09-.51.72.72,0,0,0-.18-.55c-.24-.28,1.06-1.39,1.25-1.44a3.3,3.3,0,0,1,1.2-.33,11.39,11.39,0,0,1,1.67-.18c.51,0,1-.09,1.44-.09a4.24,4.24,0,0,0,.93,0c.14,0,.55.14.83-.14a3.22,3.22,0,0,0,.51-.79,1.11,1.11,0,0,1,.56-.32,6,6,0,0,1,.65-.14s-.1-.42.41-.42,1,0,1,0l.14-.41s.24-.33.38-.33.6.33.6-.14-.19-1-.6-1-1-.65-1.35-.37a2.17,2.17,0,0,0-.74,1,4.23,4.23,0,0,1-.7.92s-.55.14-.65.37a1.11,1.11,0,0,1-.83.84,12.11,12.11,0,0,1-2.5.14,5.18,5.18,0,0,0-1.21.28A6.84,6.84,0,0,0,180,102a4.42,4.42,0,0,1-.92.51,13.73,13.73,0,0,1-1.67.47c-.37,0-1.07.09-1.9.14s-1.54.09-2.28.14-1.67,0-2.32,0-1.34,0-1.9,0h-1.67c-.23,0-1-.79-1-.79a6.83,6.83,0,0,1-.37-.88c0-.23-.92-1-1.16-1.16s-1-.79-1-.79a3.41,3.41,0,0,1-.74-1,2.32,2.32,0,0,1-.28-1.3c0-.93-.27-5.66-.27-5.8s-.19-3.2-.1-3.75a4.61,4.61,0,0,1,1-2,29,29,0,0,0,2-2.87,18.42,18.42,0,0,1,1.11-2.13c.46-.51.37-.74.83-.93s.65,0,1.26-.37l.6-.33s.83-.74.14-.78a2.71,2.71,0,0,0-1.35.09l-.55.28s-.47,0-.51-.19-.42-.51-.47-.79-.14-1-.41-1.06a2.07,2.07,0,0,0-1.12.46,3.66,3.66,0,0,0-.51.6,8.17,8.17,0,0,1-.88,0,1.83,1.83,0,0,0-1.16.23,4.2,4.2,0,0,0-.79.79,1.62,1.62,0,0,1-.88.79,16.91,16.91,0,0,1-3.71-.93,23,23,0,0,0-2.36-.65c-.19,0-.6-.05-1.53-.05a5.8,5.8,0,0,1-1.81-.09,4.27,4.27,0,0,1-2.27-.93,7.45,7.45,0,0,0-1.35-1.34c-.41-.32-.92-.7-1-1s-.88-.74,0-1.07,1.76-.74,1.76-.74a1.43,1.43,0,0,0,.83-.83c.19-.61.37-.75.37-1.26a8.56,8.56,0,0,0-.27-1.53s-.37-.27,0-.78.79-.88.84-1.26a4.55,4.55,0,0,0,0-1.43c-.09-.65-.41-1.35-.41-1.53a11.37,11.37,0,0,1-.33-1.72c0-.65-.23-.79,0-1.58a3,3,0,0,0,.13-1.62c-.13-.37-.09-.69-.37-.83s-.65.18-.92-.37-.47-.89-.28-1.12-.19,0,.18-.23.47-.09.79-.42a.87.87,0,0,0,.23-1.06c-.18-.28-.55-.47-.69-1s-.33-.65-.14-1.3.23-.93.23-.93l-1.07-1.85s1-.37,1.16-.7a2.61,2.61,0,0,0,.42-1c.09-.6,0-1.39.09-2.13s0-.84.19-1.62.37-2.28.42-2.74-.42.37.37-1,.55-1.21,1.3-1.72A11.46,11.46,0,0,0,153.05,38c.32-.32,1.06-1,1.43-1.25a9.61,9.61,0,0,0,1.3-1c.28-.32,1.81-2.18,1.95-2.32a28.63,28.63,0,0,1,2.13-2.82c.42-.28,1.35-1.12,1.67-1.3a4.53,4.53,0,0,1,1.21-.42c.79-.23,1.53-.28,2-.79s.37-.65.84-.88a7.55,7.55,0,0,1,.88-.37,3.52,3.52,0,0,0,.92-.23,6.8,6.8,0,0,0,1.49-.74c.55-.42.65-.65,1.11-.79s.23-.19.93-.37a2.1,2.1,0,0,0,1.06-.47c.38-.28.42-.65,1-1s.65-.6,1.12-.79,2.22-.7,2.69-.93,1.06-.37,1.62-.6.56-.42,1.07-.37,1.71.45,2.18,0a7.89,7.89,0,0,1,1.57-1.2,7.08,7.08,0,0,1,1.49-.55c.6-.19.74-.37,1.39-.56s1-.74,1.48-.74a10.42,10.42,0,0,1,1.25,0c.56.05,1.86-.14,2.09,0s.93,0,1.81.25a9.94,9.94,0,0,0,1.76.37,4.65,4.65,0,0,1,1.44.47s0-.75.14.27.18,2,.23,2.28.23.13.14.69a2.39,2.39,0,0,0,.09,1.39,7.55,7.55,0,0,0,.51,1.07,3,3,0,0,0,1,1.16c.33.18,0,.18.33.18s.88-.55.6-.92a2.49,2.49,0,0,1-.51-.79c0-.14-.37-.09,0-.14a.81.81,0,0,1,.65.28l.51.46a6.16,6.16,0,0,1,1.25.33c.19.13.51.46.79.46a2.27,2.27,0,0,0,.84-.09.91.91,0,0,0,.32-.61.93.93,0,0,0-.32-.78,8.13,8.13,0,0,0-.93-.47c-.19-.09.14-.83-.33-1a5.37,5.37,0,0,0-1.34-.23c-.33,0-.56-.1-.93-.1h-.37l-.28-.46.61-.65a.26.26,0,0,0-.14-.28l-.19-.09s-.28-.33-.14-.37l.93-.37.18-.28s.42-.42.28-.51-.18-.37-.55-.56l-.37-.18,1.11-.85s-.05.31.42,0,.32-.31.83-.5.88-.28.88-.28a1.7,1.7,0,0,1,.51,0,5.26,5.26,0,0,1,1,.47,2.06,2.06,0,0,1,.74.46,2.66,2.66,0,0,0,.83.42h.56A14.23,14.23,0,0,0,210,16.64a6.94,6.94,0,0,1,2.92-1.51c1.11-.14,1.58-.09,3.34-.41a19.14,19.14,0,0,0,3.06-.61,17,17,0,0,1,2.64-.88,8.7,8.7,0,0,0,2.5-.69,27.84,27.84,0,0,0,2.69-1.35,6.89,6.89,0,0,1,3.3-1.11c1.43,0,4.59-.09,5.05,0s1.3.37,1.53.42.37-.28.37.32-.46,1.07.05,1.25.6.51,1,.24a2.88,2.88,0,0,0,.93-.79c.09-.23-.28-.79-.28-.79s-.65-.33-.09-.37,1.71-.19,2.13.28.23-1,.55.92a12.33,12.33,0,0,1,.19,3.16,7,7,0,0,0,.23,1.53,18.57,18.57,0,0,0,.65,2.5,9.48,9.48,0,0,1,.93,1.72c.23.74.18,1,.55,1.11s1.26.14,1.3.51,0,.56,0,.79a5.5,5.5,0,0,0,1.72,1.53,7.59,7.59,0,0,1,1.8.65,9.51,9.51,0,0,0,2,.74,18.94,18.94,0,0,0,2.55.65c.14,0,.1,0,.7-.14a8.89,8.89,0,0,0,1.25-.56c.33-.14.51-.55.6-.18s-.92,1.43-1,1.57-.09.7-.14,1.07a1.83,1.83,0,0,0,0,1.21c.23.55.28.6.47,1.06a1.82,1.82,0,0,0,.92,1.12c.51.23.47.27,1.07.51a4,4,0,0,0,2,.69c1.48.14,1.25.14,1.48.14s1.21-.09,1.21-.09Z"/>
        <path class="cls-1" d="M106.41,54.93s.37-.55-.24.87a11,11,0,0,0-.87,2.72,2.64,2.64,0,0,1,0,1.42c-.25.56.19,1.49,0,1.73s.57,2.23.57,2.23.67.25.91.31a1.49,1.49,0,0,0,.75,0,2.88,2.88,0,0,0,1-.37l.49-.44s.37-.49.56-.55a4.65,4.65,0,0,1,.86-.25c.19,0-.18.25.19,0a.88.88,0,0,0,.43-.74c0-.19-.25-.31,0-.68s.25-.74.62-.87.06-.06.37-.12a2,2,0,0,0,.74-.25,2.93,2.93,0,0,0,1-.74,8.09,8.09,0,0,0,.87-1.05c.24-.43.43-.5.74-1.11s.18-1.24.55-1.49.68,0,.87-.72a4.85,4.85,0,0,0,0-1.75s0,.06.08-.37a3.79,3.79,0,0,1,.29-1.24,4.9,4.9,0,0,0,.43-1.91v-.87a5.89,5.89,0,0,0,0-1.17,1.46,1.46,0,0,0-.49-.93,2.94,2.94,0,0,1-.56-.74,7,7,0,0,0-.49-1c-.13-.19-.13-.5-.31-.5s-.43-.31-.74-.49a.92.92,0,0,0-1.12,0,9.79,9.79,0,0,0-1.42,1.79c-.31.37-.85.43-1,1.11s0,.68,0,.68.42-.49.61-.18a1.31,1.31,0,0,1,.19.62s-.86.43-.8.43a5.23,5.23,0,0,0-.63.25c-.37.18-.62.49-1,.74a5.81,5.81,0,0,0-1.23,1.11,5.52,5.52,0,0,0-.31,1l-.31.68-.5.62-.49.8-.37.81Z"/>
        <path class="cls-1" d="M119.27,35.52A8.23,8.23,0,0,0,118,36.94c-.13.25-1,.62-1,.62s-.56.5-.93.81l-.74.61s-.93.75,0,.68a8.65,8.65,0,0,1,1.48,0,3.33,3.33,0,0,1,.83-.25c.59-.13.47,0,.9-.31s.68-.25,1.11-.74,0-.31.68-.78a4.58,4.58,0,0,0,1.3-1,3.71,3.71,0,0,0,.31-1,2.83,2.83,0,0,1,.31-.93c.19-.24-.68.31.19-.24a6.57,6.57,0,0,1,1.73-.93,4.32,4.32,0,0,0,1.42-.5c.19-.18.25-.61.62-.86a5,5,0,0,1,1.17-.68c.19,0-.24.12.19,0l1.17-.31c.74-.19,1.55-.19,1-.68a2.12,2.12,0,0,0-1.3-.68c-.18.06-.68.43-.86.43s-1.86.5-1.86.5-1,.43-1.3.55-1.11.62-1.11.62a3.68,3.68,0,0,1-.88,1,9.14,9.14,0,0,0-1.1.87c-.43.37-1.11,1-1.11,1l-.43.35Z"/>
        <path class="cls-1" d="M140.23,19.26c-.49.12-1.85.43-2.16.56l-1.18.43a8.52,8.52,0,0,0-1.23.74,10.72,10.72,0,0,0-1.73,1.36,5.48,5.48,0,0,0-1.12,1.49.89.89,0,0,0,0,.8c.19.43-.18.62.5.8s.37.19.68.19.37.25,1,0a3.91,3.91,0,0,0,1.17-.8c.5-.38.06-.5.93-.75a6.44,6.44,0,0,0,1.67-.68c.31-.18.37-.55,1-.61s1.79-.33,2-.29,1,.39,1,0v-.58a2.46,2.46,0,0,0,1.23-.12,5.51,5.51,0,0,0,.93-.5c.31-.18.49-.62,1-.8s.56-.31,1.36-.56a11,11,0,0,1,1.92-.68c.8-.12.24.06,1.17,0s1.3,0,1.49,0-.25.76.55,0a5.7,5.7,0,0,0,1.05-1.2s-1.17,1,.37,0l1.55-1a8.72,8.72,0,0,1,1.36-.75c.19,0,.19.68.68,0s.8-1,.8-1.36.44-1.11-.31-1.11a8.83,8.83,0,0,0-2.84.8,12.82,12.82,0,0,1-1.67.75c-.43.12-1.67.43-2.22.55s-1.06.44-1.49.56-1.05.25-1.67.43a18.69,18.69,0,0,0-2.49.81,13,13,0,0,1-1.71.8,9.31,9.31,0,0,0-1.6.56c-.07.12-.87.79-1.06.7S140.23,19.26,140.23,19.26Z"/>
        <path class="cls-1" d="M178.13,11.84c-.18,0-1.3-.43-1.85,0a3.7,3.7,0,0,1-1.49.74c-.37.07-.86-.18-1.48,0a4.29,4.29,0,0,1-1.61,0s0,.16-1,.08-.86.13-1.36,0-.74.12-1,0a1,1,0,0,0-.93,0,2.18,2.18,0,0,1-1.23,0s.18.23-.62.1a19.25,19.25,0,0,0-2.41,0c-.31-.05-.44-.05-.87.63s-.68.8-.49,1.3a5,5,0,0,0,.86,1.36c.31.37.37.56.87.68s1.17.19,1.3,0,.12-.56.49-.56-.12.19,1,0,1.17-.24,1.55-.49,1.11-.81,1.48-1-.93-.25,1.05-.25h5.13a4.39,4.39,0,0,0,1.61-.25c.43-.24,1.11-.3,1.11-.49s1.73-.43,1.73-.43a2,2,0,0,1,1-.68,9.34,9.34,0,0,0,1.49-.13,15.17,15.17,0,0,1,2-.18s.43-.13.86-.31,1-.14.5-.44-.56-.67-1.43-.67-1.48-.31-2.16,0a6.38,6.38,0,0,1-1.67.55,9.84,9.84,0,0,0-2,.13Z"/>
        <path class="cls-1" d="M202,6.52l-1.86.38s-.43-.25-.62,0-.86.37-.86.37a.63.63,0,0,0-.62,0,3.24,3.24,0,0,1-1,.37,10.55,10.55,0,0,0-1.11.24,2.91,2.91,0,0,1-.5.56,5.42,5.42,0,0,0-.68.56c-.18.18-.25.06-.25.55s-.37.75,0,1a1.45,1.45,0,0,0,1,.3c.25-.05.5-.42.68-.54s.44-.09.75-.26.43.17.92,0,1.12.3,1.61,0a4.39,4.39,0,0,1,1-.55c.25-.06.37-.74.8-.8a12,12,0,0,0,1.67-.56s-.43-.12,0-.25.37-.24.93-.37.19-.18.87-.18a4.88,4.88,0,0,0,1.05-.06,9.67,9.67,0,0,0,1.67-.75s-.25-.74-.5-.8-.8.06-1.11,0a1.18,1.18,0,0,0-.87.25,10.5,10.5,0,0,1-1.3.49h-1C202.43,6.46,202,6.52,202,6.52Z"/>
        <path class="cls-1" d="M217.27,3.37h-.5L216,2.88a1.25,1.25,0,0,0-.74.24,4.22,4.22,0,0,1-.56.56,5.2,5.2,0,0,1-.74.43l-.62-.61s.93-.13,1-.62.06-.87.31-1,.31-.13.65-.38.15-.24.59-.24a6.46,6.46,0,0,1,1.36.31s.06-.13.68,0,.62.06.86.31a.82.82,0,0,1,.31.55c.06.25-.37.62-.37.62l-.55-.06Z"/>
        <path class="cls-1" d="M221.41.59c-.19.25-.25.12-.25.62v.86a4.13,4.13,0,0,0,.5,1.05s0,.07.31,0l.31-.06a2.11,2.11,0,0,0,.3-.8c0-.31-.3-.62,0-.81s-.18.07.5-.24.8-.87,1-.62.62-.5.43-.56-.49.06-.68,0a5.3,5.3,0,0,0-1,0l-.39.32Z"/>
    </g>
</svg>