<svg id="NETWORK" 
    xmlns="http://www.w3.org/2000/svg" viewBox="0 0 300 300">
    <defs>
        <style>#SWITZERLAND .cls-1{fill:rgb(144,144,144);}
                #SWITZERLAND .aaa {
        stroke-dasharray:  1;
        stroke-width:1;
   
    }

   
        </style>
    </defs>
  
    <g id="SWITZERLAND">
          <path  class="cls-1 aaa" d="M237.05,84.35l0,.06h0Z"/>
          <path  class="cls-1 aaa" d="M191,68.26a1.15,1.15,0,0,1,0,.26c0,.09,0,.21-.11.24a.59.59,0,0,1-.41-.06l-.15-.06a1.58,1.58,0,0,1-.15-.12l-.12-.1-.29-.16-.26-.1-.11,0h-.14l-2.38-1.53v-.9l-2.67-1.44-.11-1.35,2.14-1.27,2.15,2,2,0,.64,1.36-1.38,1,.93,1.41a4.13,4.13,0,0,1,.36.73Z"/>
          <path  class="cls-1 aaa" d="M156.63,135.84c-.31-.11-.5-.07-.75-.32s-.13-.37.1-.61,0-.42-.06-.71a1.2,1.2,0,0,1,0-.57l-.64-.11-5.43,1.16-.48,1.08.48.49v.55l1.09-.46.62-.51,3.59.24,1.34.63a3.84,3.84,0,0,1,.13-.41C157,136.27,157,136,156.63,135.84Z"/>
          <path  class="cls-1 aaa" d="M197.86,135.79c-.23-.16-1-.58-1-1a2.79,2.79,0,0,0-.23-1.08,6.64,6.64,0,0,0-1.12-1.7c-.38-.3-.42-.41-.79-.36s-.78.36-.75-.08-.29-.91,0-1.2,1-1.11,1.35-1.08.88.48,1.29-.16,1.35-1.47,1.54-2.4.63-1.46.25-1.58-.68,0-.67-.46-.06-.75.36-1,.83-.23.76-.88a10.79,10.79,0,0,1,.18-3.53c.33-.66,1.67-1.92,1.93-2.52-.15-.28-.26-.51-.34-.64-.43-.79-2.69-1.1-2.69-1.1s-.2-2-.33-2.69c0-.14-.33-.21-.82-.24a1.06,1.06,0,0,1-.1.17c-.43.56-1.35,1.32-2.12,1.1-.35-.1-.64-.33-1-.45a1.28,1.28,0,0,0-1,.06,9.93,9.93,0,0,0-.94.59c-.27.16-.55.29-.83.43a1.65,1.65,0,0,1-.68.29,1.9,1.9,0,0,0-.4,0,.79.79,0,0,1-.76-.2,4.54,4.54,0,0,0-.58-.58,1.92,1.92,0,0,0-.28-.18c-.1,0-.32-.06-.39-.16s.34-.5.47-.62a2.2,2.2,0,0,1,.43-.39c0-.22-.05-.52-.06-.86l-.5.05a3.12,3.12,0,0,1-.83,1.07,2.91,2.91,0,0,1-2.39.47c-.46,0-.91-.16-1.37-.19a3.83,3.83,0,0,0-1.3.15,2.24,2.24,0,0,1-.72.21,5.71,5.71,0,0,1-.5.35c-.28.18-.36,1.36-1.37,1.76s.42,2.16.42,2.16c.6.52.4,1.13.37,1.85a2.66,2.66,0,0,1-.82,1.76,17.63,17.63,0,0,0-1.69,2.46c-.43.68-3,.72-3.78.65s-.75.41-1.13.9-1-.2-1.26-.44-.67-.17-1.36-.25a3.56,3.56,0,0,0-.78,0,1,1,0,0,1,.24.53c0,.35,0,.72,0,1.07a6.74,6.74,0,0,1,0,1.1c-.11.71-.8.14-1.09-.13-.48-.43-.86-.94-1.37-1.34a2.32,2.32,0,0,1-.94-1.22s0-.08,0-.12a3.22,3.22,0,0,1-2.26-1.41l-2.59,1,0,2.63-.8.81v.49l.57.47c.13-.22.17-.13.39-.19a3.12,3.12,0,0,0,.7-.41,2.66,2.66,0,0,0,1.1-1.08c.13-.25.45-.67.62-.22a2.74,2.74,0,0,1,0,1,2.21,2.21,0,0,1-.6,1.4l1.66-.14,1.2.79,2,2-.59,2.44-.4.39a1.54,1.54,0,0,0,.87.24.91.91,0,0,0,.49,0,2.44,2.44,0,0,1,.43-.21c.37-.07.72.37,1,.51s.5.14.76.23a1.44,1.44,0,0,0,1.09-.27c.28-.28.41-.69.71-1,.65-.58,1.7,0,2.29.39s.59,1.09.71,1.82.68,1.48.21,2.12a4.11,4.11,0,0,1-.38.45,5.31,5.31,0,0,0,2,.26c1.51-.1,3.41-.15,3.3.52s-.51.92-.23,1.2.6,1.31,1.19,1.1.56-.84.94-1.15,2.36-1.26,2.54-1.08.68,1,1.1.84.82-.35,1-.39.41,0,.4-.32-.13-.79.28-.73.7,0,.79.24.81.7.52.93-.47.47-.36.7-.22.6.32.6.81.17.86.61.2,3.61,1,3.06,3.86-2.71,5-3.64h0a4.57,4.57,0,0,0,.38-.32c.46-.5,1.64-1.46,1.62-1.82s-.08-.64.11-.83.77-.68.67-1A7.45,7.45,0,0,0,197.86,135.79Zm-3.44-12.66a.69.69,0,0,1,.84-.3c.11.07.16.23.27.32a1.46,1.46,0,0,1,.27.3,11,11,0,0,0,.56,1.08c.23.35.07.67-.1,1s-.41.87-.79,1c-.19.06-.32,0-.3-.22a7.13,7.13,0,0,1,.18-.8,1.42,1.42,0,0,0,.24-.92c-.09-.29-.34-.33-.54-.51l0,0C194.82,123.89,194.32,123.44,194.42,123.13ZM188.78,125c-.26.24-.69-.11-.85-.31s-.26-.59-.53-.74-.49-.07-.66-.26-.11-.46-.24-.66c-.25-.35-.75-.58-.7-1.08a2.71,2.71,0,0,0,.06-1,.73.73,0,0,0-.2-.33.52.52,0,0,0-.11-.1,3.13,3.13,0,0,1-.39-.42s0,0,0,0l-.06,0-.11-.09a.88.88,0,0,1-.18-.21.66.66,0,0,1-.06-.31c0-.14.07-.11.18-.17a2,2,0,0,0,.83-.89c.19-.32.63-.25.89,0a1,1,0,0,1,.36.61c0,.3-.16.52-.21.8a1.21,1.21,0,0,0,.23.8,1.64,1.64,0,0,1,.28.76,7.74,7.74,0,0,0,.07.83,4.54,4.54,0,0,0,.18.83,2.38,2.38,0,0,0,.45.71,8.36,8.36,0,0,0,.58.61C188.72,124.42,189,124.75,188.78,125Z"/>
          <path  class="cls-1 aaa" d="M64.73,152.8c-.55-.14-.84.44-1.21.29a.82.82,0,0,1-.54-.91,3.92,3.92,0,0,1,.43-2.27c.48-.54.82-1.37,0-1.29s-1.45.25-1.64-.2.46-1,1.21-1,1.94-.38,1.58-.78-1.41-1.3-2.13-2l-.45.45-.11.09h0a1,1,0,0,0-.14.13,3.58,3.58,0,0,1-.26.29c-.15.14-.32.26-.46.41-.36.38-.67.77-1.05,1.14s-.84.52-1.23.84a8,8,0,0,1-1.16.87c-.43.24-.81.57-1.24.78a2.26,2.26,0,0,0-1.07.93c-.2.42-.33.9-.54,1.32a2.37,2.37,0,0,1-1.07.93l-.17.08c.86,1.06,2.16,3.23,2.46,3s.63-.75.95-.56,1.27.87,1.64.61,1.39-1.14,1.39-1.14l1.23,1.22,2-.11a5.88,5.88,0,0,1,1.12-1.66C64.77,154,65.28,153,64.73,152.8Z"/>
        <polygon class="cls-1" points="98.97 92.09 98.24 92.99 95.78 93.19 94.34 93.83 93.71 93.68 93.19 93.83 92.38 94.08 91.97 92.88 92.61 93.03 96.82 90.6 96.95 90.33 98.97 92.09"/>
        <polygon class="cls-1" points="103.62 87.35 103.92 88.56 103.5 88.97 100.07 89.54 99.22 89.97 97.77 88.6 98.09 87.92 95.99 86.95 97.03 85.81 100.37 87.11 102.71 85.17 102.71 85.17 103.98 85.32 103.62 87.35"/>
          <path  class="cls-1 aaa" d="M105.89,101.24l-.7,1.73s-1.12,0-1.46,0-.6.44-1.47.94-2.7.32-3.69.37a2.83,2.83,0,0,1-1.69-.41,4.55,4.55,0,0,0-1.78-.39c-.64,0-1.78-1.2-1.78-1.2s-2.21,2.21-3,3a4.55,4.55,0,0,1-2.55,1.19c-1,.29-3.2-.36-3.61-.32a1.76,1.76,0,0,1-1.18-.38,7.55,7.55,0,0,0-2.68-.29c-.74,0-.39.91-.58,1.69s-.74.79-1.1,1.11.58,1,.19,1.7-2.31.73-2.72.89a1.36,1.36,0,0,1-1.16-.14c-.29-.19-1.06.1-1.54.22s-1.66,2.43-2.13,3.25a3.24,3.24,0,0,1-2,1.21c-.6.21-1.18,2.19-1.18,2.19s-1.3-1-1.56-1.18-.89,0-1.49.21-.54,1.06-.85,1.54-1.35.61-2.07,1-1.16-1.15-1.4-1.45-.8-.12-1.34,0L59,116.37l7.39-6.12v-4.64l3.55-.83.08-2.19,2.8-.13.65-2.3-1.85-1.65a36.75,36.75,0,0,1-10.09.76l.4-2.31,3.75-2.88.2-2.11,3-2.11-.21-4.15,2.87-1.08,3.72,1.83S77.44,85,77.5,85l4.09,1.52L80.5,90.94l3.24,1.17.67,2,4.24-2,3.32.77.41,1.2.81-.25,1.66.91.61.94.37,1.46,1.93.12.74.77,4,.07a11.66,11.66,0,0,1,1.87,1.49c.28.42.15,1,.65,1.25S105.89,101.24,105.89,101.24Z"/>
          <path  class="cls-1 aaa" d="M131.67,91.94l-.07,1-4.67,2.45s-1.33,1.57-2.22,1.78a8.67,8.67,0,0,0-2.81,1.59c-.53.46-1,.75-1,1.28a2.13,2.13,0,0,1,0,.75l-2.63-.53a3.5,3.5,0,0,0-.89-1.23c-.48-.31-.58-1.44-1.27-1.3s-4.88.72-4.88.72a8.73,8.73,0,0,0-.84-1.81c-.26-.19-.14-2.53-.14-2.53l2.91-.21s.68-4.29,1-4.61,1.08-.45.93-1.08-.23-.94-.23-.94l-2.08-.6-.46-1.28H112s-.44,1.64-1.11,1.5a7.46,7.46,0,0,1-1.52-.55L109,88.37l.65.36-.47,2.58-1.86.55-.72,1.6-1.08.2-.32-.42-1.77.22-.39,1.78-2.21.84-.54-.85-2.24-.06-.3,2.09-1.93-.12-.37-1.46-.61-.94-1.66-.91.52-.15.63.15,1.44-.64,2.46-.2.73-.9-2-1.76.82-1.73L99.23,90l.84-.43L103.5,89l.42-.41-.3-1.21.36-2-1.27-.15h0l-1-1.32,1.83-.83-.73-.86-2.6-.09,0-1.48,2.75-.8,1.12-1.07,3.26-.14,2.41-.71.91-1.58,3.15-.65,1,1.65.09,2.09-3.07.76-.29.93,3.84.74.75-.45.64,1.06,1.8-.56L120.61,83l-.25,1.15,1.15,1.17,2.22-2.17v-.68l.46-.65,2.07.77V83.7l2.43,2.8,1.82-.06.19,1.48.62.72-.66,2.09Z"/>
          <path  class="cls-1 aaa" d="M171.28,136.46l-1.23,4.31-3,1a4.66,4.66,0,0,0-1.13,1.49c-.29.75.14,1.16.26,1.5a15.69,15.69,0,0,1-.39,2.85h0l-3,.2-1.5-1.4-2-.1-.61.87.8,2.72,1.64,3,2.15,1.08v1.9l-3.84-1.35-2.77-3.27.27-5.11.31-4.74V141l-1.9-.41-.14-2.16a1.53,1.53,0,0,0,.63.05,1.42,1.42,0,0,0,.41-.24,1.66,1.66,0,0,0,.43-.32,5.54,5.54,0,0,1,.65-.8,1.51,1.51,0,0,0,.51-.66c.09-.25,0-.66.2-.88s.28-.13.39-.22.19-.22.3-.32a1.84,1.84,0,0,0,.57-.78,1.86,1.86,0,0,1,.45-.87,1.68,1.68,0,0,1,.36-.21l.16.63,2.72.18.54-.51a.92.92,0,0,0,.74.14c.43-.13.75-.5,1.25-.36s.15.73-.05.95a.42.42,0,0,1-.52.16,1,1,0,0,0-.72.07,1.23,1.23,0,0,0-.77.84.74.74,0,0,0,0,.55c.06.1.18.11.27.17s.18.17.28.24c.36.26.64,0,1-.05a2.18,2.18,0,0,1,1.2.29l.63.35a5.19,5.19,0,0,1,.62.42c.26.18.35.33.67.2a8.56,8.56,0,0,0,.92-.66,3.41,3.41,0,0,1,.86-.31,3.63,3.63,0,0,1,1.09-.05A.73.73,0,0,0,171.28,136.46Z"/>
          <path  class="cls-1 aaa" d="M159.38,154.55l-5.88,2.87s-1.2-.91-1.25-1a12.36,12.36,0,0,0-1.42.67l-2.53-1.06-3.16.8-2.81-1.2-1.06-1.51-2.94.17.76-1.88v-.72l-1.29-1.93,1.41-3.27v-1.45l1.41-2.43,1.84.72,2.95-3.77-.19-1.72,2.07-1.13,2.52.05,1.09-.46.62-.51,3.59.24,1.34.63a.82.82,0,0,1-.59.68c-.29.08-.6.05-.82.3a1.13,1.13,0,0,0-.32.69,3.77,3.77,0,0,1,.43.1l.14,2.16,1.9.41v.39l-.31,4.74-.27,5.11Z"/>
          <path  class="cls-1 aaa" d="M161.5,126.42l0-2.63,2.59-1-.41-1.94-1.74.26L158,118.88l-1.2-3.31-2.07-6.19-.82-2.87-3.09-.89.29,1.57-1.18,0v.13a4.3,4.3,0,0,1-.09.72,1,1,0,0,0-.09.66,1.24,1.24,0,0,1,.06.71c-.18.3-.38-.31-.41-.43-.07-.31-.27-.6-.36-.91a1.42,1.42,0,0,1,0-.22l-.19.25-.53,3.13-1.59.22-1.25-.08-.41-.58,0-.37,1.23-.7-.43-.34-.34-.41-1.79,0-.52.58-1.6-.43-.26-.49-.1-.88-2.24.66-.43.35.51.91-3.26.43-.86-2.72-.13-.7-3-.12.07,2.2-2,1.87-1.14-.88-4.55,1.55v0l.93,2.85,1.7,2.11-.3,2.08.3,1.39.83,1.95-1,1.38-.3,5.61,2,3.91L132,133l-.24,2.94-2.58,4.81-1.73-.13-1.16,1.72.83.82-.1,1-1.11,1.91,1,1.47-.19,2.19,4.8,2.92,1.92,2.88.29-.48.56.27.88-.07.56-.76,2.68-.24.76-1.88v-.72l-1.29-1.93,1.41-3.27v-1.45l1.41-2.43,1.84.72,2.95-3.77-.19-1.72,2.07-1.13,2.52.05v-.55l-.48-.49.48-1.08,5.43-1.16.64.11a.48.48,0,0,1,.07-.18c.19-.26.51-.19.78-.18s.56.09.78-.1a1.2,1.2,0,0,0,.38-.87c0-.31-.2-.54-.25-.83a3.17,3.17,0,0,0-.76-1.95c-.16-.15-.29-.32-.45-.48s-.47-.24-.4-.43a6.37,6.37,0,0,1,.76,0c.31,0,.52,0,.73.23s.32.42.49.63.32.49.56.59a3.93,3.93,0,0,0,.75.19,1,1,0,0,0,.7-.23,1.87,1.87,0,0,0,.47-.46,3.61,3.61,0,0,0,.25-.3,1.45,1.45,0,0,0,.11-.37,5.55,5.55,0,0,1,.41-.7s0,0,0,0l-.57-.47v-.49Zm-14.11-5c0,.19-.32.15-.39.32s.06.3.05.44a.33.33,0,0,1-.47.25,1.61,1.61,0,0,1-.62-.54,2.27,2.27,0,0,0-.7-.49c-.17-.1-.35-.14-.51-.24a4.9,4.9,0,0,1-1-1,5.24,5.24,0,0,1-.87-1.13,2,2,0,0,1-.12-1.47c0-.18.07-.49.27-.57s.45.14.58.27.33.37.5.54a4.78,4.78,0,0,0,.61.48,7.65,7.65,0,0,1,1.18,1c.33.34.7.66,1,1a1.51,1.51,0,0,1,.35.58C147.32,121,147.43,121.29,147.39,121.41Zm5.13-5.24a1.66,1.66,0,0,1-.32-.38c-.17-.25-.3-.52-.45-.78a1.27,1.27,0,0,0-.29-.75,2.06,2.06,0,0,1-.45-.69,2.35,2.35,0,0,1,0-.7c0-.16,0-.56.18-.66s.5.63.56.78a4.47,4.47,0,0,0,.55,1.09,3.43,3.43,0,0,1,.45,1,1.71,1.71,0,0,1,.13.38,1.15,1.15,0,0,0,.06.43C152.87,116,152.73,116.31,152.52,116.17Z"/>
          <path  class="cls-1 aaa" d="M180,117.38a8.88,8.88,0,0,0-1.42.5c-.39.21-.73-.79-.88-1.26s-.92-.4-1.56-.49-.63-.65-.57-1.46-1.12-1.73-1.5-2a7.11,7.11,0,0,1-1.07-1.36l-5.5,1.17c-.7.15-1.09.05-1.3-.23s-1.14-.06-1.81.06-1.78-1.46-2.09-2c-.07-.12-.18-.38-.33-.71,0,0-1.3,1.32-1,1.8s.92,1.59.65,2.17a1.62,1.62,0,0,0-.18,1.46,18.78,18.78,0,0,1,.52,2.31,5.09,5.09,0,0,1,.3,2.27c-.19.84-.45.7-.33,1.52l1.74-.26.41,1.94a3.22,3.22,0,0,0,2.26,1.41c-.07-.43.16-.69.5-1,.16-.14.41-.32.45-.54s-.15-.36-.31-.48a1.82,1.82,0,0,1-.56-.58,2.17,2.17,0,0,1-.13-.76c-.05-.49-.41-.81-.5-1.29a4.21,4.21,0,0,1,0-.94,3.9,3.9,0,0,0-.1-1.36.9.9,0,0,1,.24-1.07,1.49,1.49,0,0,1,1.08,0c.39.11.62.55.9.81s1,.67,1,1.15c0,.2-.17.33-.26.49a6.13,6.13,0,0,0-.22.6,1.59,1.59,0,0,0-.14.58,2.36,2.36,0,0,1,0,.65c-.11.35-.6.56-.55.94a3.67,3.67,0,0,0,.42,1c.12.27,0,.56.14.83s.3.33.47.45a4.32,4.32,0,0,1,.83.63,3.56,3.56,0,0,1,.78,0c.69.08,1.13,0,1.36.25s.88.94,1.26.44.31-1,1.13-.9,3.35,0,3.78-.65a17.63,17.63,0,0,1,1.69-2.46,2.66,2.66,0,0,0,.82-1.76C180.37,118.51,180.57,117.9,180,117.38Zm-2.59,5.8c-.44.39-1-.32-1.19-.65a2.22,2.22,0,0,1-.29-.46c-.05-.11-.05-.22-.1-.31s0,0,0,0c-.2-.24-.59-.18-.87-.26a1.29,1.29,0,0,1-.72-.6c-.15-.25-.38-.64-.1-.86s.62,0,.86.19a1.43,1.43,0,0,0,.45.36c.14,0,.26,0,.4,0a1.42,1.42,0,0,1,.8.4,5,5,0,0,1,.75.84C177.59,122.12,177.77,122.83,177.38,123.18Z"/>
          <path  class="cls-1 aaa" d="M163.62,101.83c-.36,1.07-.67,2.88-1.18,3s-2.19.17-1.92,1c.2.67.95,2.61,1.42,3.71,0,0-1.3,1.32-1,1.8s.92,1.59.65,2.17a1.62,1.62,0,0,0-.18,1.46,18.78,18.78,0,0,1,.52,2.31,5.09,5.09,0,0,1,.3,2.27c-.19.84-.45.7-.33,1.52L158,118.88l-1.2-3.31-2.07-6.19-.82-2.87-3.09-.89.29,1.57-1.18,0a1.71,1.71,0,0,0-.29-1,5.25,5.25,0,0,1-.55-1.35c-.13-.5.07-1.09-.23-1.52-.13-.2-1.1-.88-1.1-.29a4.52,4.52,0,0,0,.2.72,1.65,1.65,0,0,1,0,.7,2,2,0,0,0,.13,1.41c.12.17.29.3.42.48a2.17,2.17,0,0,1,.35.86c0,.22.07.45.12.67l-.19.25-.53,3.13-1.59.22-1.25-.08-.41-.58,0-.37,1.23-.7-.43-.34-.34-.41-1.79,0-.52.58-1.6-.43-.26-.49-.1-.88-2.24.66-.43.35.51.91-3.26.43-.86-2.72-.13-.7-3-.12.07,2.2-2,1.87-1.14-.88-4.55,1.55-.64-3.37,1.53-2.57c.46-.77.87-1.66,1.57-1.91a3.78,3.78,0,0,0,1.85-2.52s5.37,1.23,5.86,0a10.29,10.29,0,0,1,1.13-2.32c.38-.43,1.2-2,.82-2.48s-1.24-1.81-2-2.12S133,93.22,133,92.81s-.21-.89.08-1.07.5-.24.22-.8-.92-2.35-.92-2.35l-1,0-.62-.72-.19-1.48-1.82.06-2.43-2.8V82.63l-2.07-.77-.46.65v.68l-2.22,2.17-1.15-1.17.25-1.15-2.06-1.18-1.8.56-.64-1.06,1.49-.9,2.94-.46,1.2-.79.76-1.76,4.6-.62,1.47,1.31,1,2,7.71-.23,1.34-1,1.87-.44,1.1-2,1.45.05,4-3.3,1.66.3.55,1.2,1.47-1,3.07.53.7,1.59L156,77.6l3.19.15,1.71-.86,1,.91.39,0-.14,1.75-3,4.07-.93.11.17,3.51,1.72,4.2-1.59,3.13s-.08.33.47.32,1.38.19,1.37.76a23.2,23.2,0,0,0,.78,3.64c.13.31.65,2.68,1,2.56S164,100.75,163.62,101.83Z"/>
          <path  class="cls-1 aaa" d="M180.64,62l1.15,2-3.47,0-1,2a4.14,4.14,0,0,0-3.3,2.08c-.1,0-2.62,1-2.62,1l-.73-.8-.88.11-1.37,2.2-3.23.29-1.71-1.66-2.28-.59-.65-3.19,3.05-2.31,2-4.31,2.84-.47,2.18-2,.1-1.17,2.68-.38,1.49,1.1,0,2.79,1,1,.63-1.32V56l2.38,1v2.08s.95-.45,1-.45,2.48,1.22,2.48,1.22Z"/>
          <path  class="cls-1 aaa" d="M172.12,77a1.2,1.2,0,0,0-.69,1.08c0,.46.13,1.79-.89,1.65s-.73-2.18-1.45-2.49l2.61-2.89.68,1C172.39,75.94,172.37,76.89,172.12,77Z"/>
          <path  class="cls-1 aaa" d="M197,96.64s-.57-1.54-1.15-1.77a2.21,2.21,0,0,1-1.38-1.66,3.44,3.44,0,0,1,.31-1.95c.28-.45.41-.88-.26-1a2.83,2.83,0,0,1-1.8-1.77c-.06-.61-.8-2.07-.44-2.32s1.12-.69,1.07-1.45a3.75,3.75,0,0,0-2.25-3.2c-1.84-.84-3.18-1.48-2.52-2.08s1.16-2.35-1.26-2.77-3.85-1.43-4.53-2.46-.45-1.64.79-1.55,1.25,0,1.67.47,1.14.91,1.65.3,1.56-2.24,1.2-3-.67-2.08-1.89-2-.64,1.53-1.52,1.63-3.07.82-4.7,0a4.41,4.41,0,0,1-2.2-2.77,2.65,2.65,0,0,1-.2-1l-.36-.14h0a4.09,4.09,0,0,0-3.3,2.07h0s1.36,2.12,1.36,2.12l-.56.86-1.11-1.24-.62.31.48,1.26-.1,3-1,1-.07-.1c0,.63,0,1.58-.26,1.7a1.2,1.2,0,0,0-.69,1.08c0,.46.13,1.79-.89,1.65s-.73-2.18-1.45-2.49l2.61-2.89-1.23-1.72L168.54,72l-1.21,1.59-3,1.38L164,76.11l2.08.17.21,1.18-4,.31-.14,1.75-3,4.07-.93.11.17,3.51,1.72,4.2-1.59,3.13s-.08.33.47.32,1.38.19,1.37.76a23.2,23.2,0,0,0,.78,3.64c.13.31.65,2.68,1,2.56s1.9-1.07,1.54,0-.67,2.88-1.18,3-2.19.17-1.92,1c.21.67.95,2.61,1.42,3.71.15.33.26.59.33.71.31.54,1.43,2.13,2.09,2s1.61-.34,1.81-.06.6.38,1.3.23l5.5-1.17a7.11,7.11,0,0,0,1.07,1.36c.38.26,1.57,1.18,1.5,2s-.07,1.37.57,1.46,1.42,0,1.56.49.49,1.47.88,1.26a8.88,8.88,0,0,1,1.42-.5s-1.42-1.77-.42-2.16,1.09-1.58,1.37-1.76a5.71,5.71,0,0,0,.5-.35.38.38,0,0,1-.28-.11,2.09,2.09,0,0,0-.32-.25,3.18,3.18,0,0,1-.58-.58l-.5-.6a6.11,6.11,0,0,0-.57-.67c-.21-.2-.46-.31-.67-.49s-.42-.34-.63-.5-.43-.43-.66-.63a1.24,1.24,0,0,0-.73-.2,3.32,3.32,0,0,1-1.57-.42c-.2-.14-.44-.19-.63-.32a4.06,4.06,0,0,1-.51-.42,2,2,0,0,1-.77-1,4.39,4.39,0,0,1-.12-.71,1,1,0,0,0-.3-.64c-.29-.38-.62-.72-.89-1.11a2,2,0,0,1-.32-1.27A3,3,0,0,0,171,102c-.21-.34-.51-.63-.73-1a3.06,3.06,0,0,1-.65-1.82c0-.22,0-.76.34-.72s.75.56,1,.82a6.06,6.06,0,0,1,1.16,2.09,6,6,0,0,0,.56,1.24c.3.5.54,1,.86,1.51a3.25,3.25,0,0,1,.86,1c.19.41.24.88.43,1.29a1.66,1.66,0,0,0,1,.82,5.07,5.07,0,0,1,.75.34,1.9,1.9,0,0,0,.62.21h0a7.06,7.06,0,0,0,.89.28,2.31,2.31,0,0,1,.52.12l.42.19a9.77,9.77,0,0,1,1.59.94c.22.15.46.26.68.41s.4.33.62.47a5.44,5.44,0,0,0,2.79.73,5,5,0,0,0,1.22-.11,6.93,6.93,0,0,1,1.51-.27c.41,0,.77.18.65.66l-.06.17.5-.05c0-.1,0-.21,0-.32,0-1-1.26-1.57-1.26-1.57a3.19,3.19,0,0,1,1.8-.36l1.43,1.08,2.19-1.77,1.53.67,1.95-1.1.88-3.64s1.79.1,2-1.47S197,96.64,197,96.64Zm-16.08,5c-.09.11-.2.32-.37.3s-.27-.38-.34-.53-.19-.27-.25-.43a1.67,1.67,0,0,0-.37-.65c-.23-.27-.47-.49-.72-.74s-.43-.48-.62-.73a2.57,2.57,0,0,1-.35-.77,3.55,3.55,0,0,1-.09-.47.28.28,0,0,1,0-.22c0-.06.09-.11.12-.17.49-.24,1,.14,1.26.51.16.2.26.43.43.61a1.94,1.94,0,0,1,.4.55c.08.23,0,.41,0,.63a.62.62,0,0,0,.34.5c.32.23.8.43.86.88A1,1,0,0,1,181,101.62Zm5.37-1.46c-.2,0-.44,0-.61-.1s-.14-.37-.11-.56a.75.75,0,0,0-.14-.63.87.87,0,0,1-.25-.64c.12-.54.75-.38,1-.1a2.64,2.64,0,0,1,.68.94,3,3,0,0,1,.13.72C187.08,100.25,186.64,100.24,186.33,100.16Z"/>
          <path  class="cls-1 aaa" d="M229.25,83.74l-1.37.67-3.2.64H223.6l-.23-.76s.69-.73.41-1-1.05,0-1.05,0l-1,.39-.47-1,.82-.59L221.37,81h-1.54l-1.92,1.26.15.9,1.16-.67.56.8-.67.39.13.4h.9v.59L218.29,86l-.74-.53-2,1.15-.56-.51s.13-1.39-.56-1.23-.8.3-.8.3l-.41-.59-1.08.57-.79-.59s.46-.85,0-1a1.46,1.46,0,0,0-1.54.51c-.2.44-1.05,1.72-1.05,1.72l-3-.07-.46-.93-4.39.67.75,2.67.76,1.51-.56,1.1h-1.95l-1.05,2.87s-.87.36-.95.83.41,1.2,0,1.53l-.89.72s-.57-1.54-1.15-1.77a2.21,2.21,0,0,1-1.38-1.66,3.44,3.44,0,0,1,.31-1.95c.28-.45.41-.88-.26-1a2.83,2.83,0,0,1-1.8-1.77c-.06-.61-.8-2.07-.44-2.32s1.12-.69,1.07-1.45a3.75,3.75,0,0,0-2.25-3.2c-1.84-.84-3.18-1.48-2.52-2.08s1.16-2.35-1.26-2.77-3.85-1.43-4.53-2.46-.45-1.64.79-1.55,1.25,0,1.67.47,1.14.91,1.65.3,1.56-2.24,1.2-3-.67-2.08-1.89-2-.64,1.53-1.52,1.63-3.07.82-4.7,0a4.41,4.41,0,0,1-2.2-2.77,2.65,2.65,0,0,1-.2-1l.9.33,1.06-.8,1.43.33s0-1.32,0-1.32h.9l.51,1.16,1.17.23,3.31,1.16v-.75l2.38,1.53,0,0v.07s0,.07.05.11h0s0,0,0,.06l.05.07a1.47,1.47,0,0,0,.1.13.69.69,0,0,0,.13.11l.12.08.1,0a.5.5,0,0,1,.22.13,1.82,1.82,0,0,0,.45.2,10.78,10.78,0,0,0,1.56.67,6.77,6.77,0,0,0,1.85.25,3.48,3.48,0,0,0,1,0,8.26,8.26,0,0,0,.86-.2s-.09,0-.05,0a.75.75,0,0,1,.2-.1,1.67,1.67,0,0,1,.44-.11,5.8,5.8,0,0,0,.67-.15A2.71,2.71,0,0,0,198,69c.25-.19.52-.33.78-.51s.33-.28.5-.42a2.55,2.55,0,0,1,.7-.35,8.73,8.73,0,0,1,1-.23,6.85,6.85,0,0,1,.91-.1,2.23,2.23,0,0,1,1.06.08c.15.06.26.19.4.25.36.15.86,0,1.25.1a2.77,2.77,0,0,1,.61.27,11,11,0,0,0,1.5.52,1.88,1.88,0,0,0,.71.15,1.91,1.91,0,0,1,.79,0c.05,0-.07.06,0,.07l.36.15a1.61,1.61,0,0,0,.52.14.85.85,0,0,0,.5-.13c.16-.12.19-.35.33-.48a.65.65,0,0,1,.32-.12h0l.23,0a6,6,0,0,1,1.41,0c.23,0,.51.12.45.41h0c-.05.22-.35.33-.38.53s.29.46.42.55,0-.06,0-.06l.14.08.25.14c.14.07.33.12.48.19.3.14.45.53.76.64a3.38,3.38,0,0,0,.55,0c.2,0,.41,0,.61,0a2.42,2.42,0,0,1,1.06.61c.28.27.46.54.88.61l.55.09a2,2,0,0,1,.48.12,4.27,4.27,0,0,1,.48.13,4.5,4.5,0,0,1,.45.31c.34.23.67.48,1,.73a4.49,4.49,0,0,1,.81.82,10.29,10.29,0,0,0,1.1,1.09,1.32,1.32,0,0,1,.78.27,5.07,5.07,0,0,0,.65.35c.21.11.44.19.65.3a4.08,4.08,0,0,1,1.29,1.47,3.2,3.2,0,0,1,0,1.27,2,2,0,0,0,.69,1.81,10.84,10.84,0,0,1,1.07.69A16.93,16.93,0,0,1,228.57,83,7.74,7.74,0,0,1,229.25,83.74Z"/>
          <path  class="cls-1 aaa" d="M243,91l.25-2.92L239.45,86c-.18,0-.29-.23-.45-.32a2.81,2.81,0,0,1-.48-.35c-.35-.36-.64-1.29-1.25-1.19-.15,0-.17.1-.22.21v.05h0a3.57,3.57,0,0,1-.3.38,4.05,4.05,0,0,1-.61.56,2.86,2.86,0,0,1-.58.46L235,86a4.42,4.42,0,0,1-1.49.28,4.06,4.06,0,0,1-1.37-.26,3.36,3.36,0,0,1-.89-.49c-.36-.34-.68-.7-1.07-1a4.59,4.59,0,0,1-.88-.77l-1.37.67-3.2.64H223.6l-.23-.76s.69-.73.41-1-1.05,0-1.05,0l-1,.39-.47-1,.82-.59L221.37,81h-1.54l-1.92,1.26.15.9,1.16-.67.56.8-.67.39.13.4h.9v.59L218.29,86l-.74-.53-2,1.15-.56-.51s.13-1.39-.56-1.23-.8.3-.8.3l-.41-.59-1.08.57-.79-.59s.46-.85,0-1a1.46,1.46,0,0,0-1.54.51c-.2.44-1.05,1.72-1.05,1.72l-3-.07-.46-.93-4.39.67.75,2.67.76,1.51-.56,1.1h-1.95l-1.05,2.87s-.87.36-.95.83.41,1.2,0,1.53l-.89.72s2.15,4.67,2,6.23-2,1.47-2,1.47l-.88,3.64-1.95,1.1-1.53-.67-2.19,1.77-1.43-1.08a3.19,3.19,0,0,0-1.8.36s1.26.59,1.26,1.57c0,.11,0,.22,0,.32,0,.33,0,.64.06.87a.62.62,0,0,1,.27-.09,1.12,1.12,0,0,1,.41.09,2.89,2.89,0,0,0,.5.08,1.42,1.42,0,0,0,.94-.26,1.79,1.79,0,0,1,.85-.28c.55,0,1.1.07,1.65.09a3.24,3.24,0,0,0,1.28-.1c.4-.12.76-.34,1.17-.43.6-.13,1.4.15,1.07.78.49,0,.79.1.82.24.13.74.33,2.69.33,2.69s2.26.31,2.69,1.1c.08.13.19.36.34.64a6.67,6.67,0,0,0,6.33,3.75c0-.06,0-.14.13-.23s.41-.23.59-.39a1.18,1.18,0,0,1,.57-.28,1.64,1.64,0,0,1,.66,0c.26.07.51.18.78.24.53.11,1,.18,1.57.24a5.27,5.27,0,0,1,1.19.18,6.39,6.39,0,0,0,.77.28,5.13,5.13,0,0,0,1.9.24,10.51,10.51,0,0,1,1.57-.19c.51,0,1,.2,1.54.2a4.65,4.65,0,0,0,1.32-.33c.36-.1.59.06.62.45a1.08,1.08,0,0,1-.66,1.06,3.05,3.05,0,0,1-1.61-.12,3.39,3.39,0,0,0-1.52,0A5.71,5.71,0,0,1,214,122h0l0,0c-.09,0-.16,0-.24,0l-.33-.09-.61-.18-.14,0a2.51,2.51,0,0,1,.41,1.45s.81,3.41-.26,4-3.06,1.21-2.59,1.9a2.7,2.7,0,0,0,2.79,1.18c1.51-.18,2.08-.39,2.44.18s1.72,1.59,1.82,3.33.48,2.87,0,3.23-1,1.18-.56,1.41,1.07.7,1,1.18a4.38,4.38,0,0,0,0,1.11c.12.82.49,1.76,1.54,1.74,1.67,0,6.08.15,6.9.64s4.49,2.51,4.93,2a3.79,3.79,0,0,0,1.43-2.72,7,7,0,0,1,1-3.56c.49-.57,1.69-3.08,2.41-3.18a1.12,1.12,0,0,0,.77-1.72c-.42-.81-3.44-4.22-3.68-6.31h0l-.11-1.37L235,124s-.09-2.74-.2-3.56a7.78,7.78,0,0,0-1.28-3.25c-.9-1.4.17-5.62.41-7.42s2.8-5.58,3.24-6.25a2.47,2.47,0,0,1,1.41-1.25c1-.52,1.25-1.73,1.66-3.09s1.65-2.25,3.43-3.67S243,91,243,91Zm-3.85-.39-.84.84.48,1-.41.29-1.61,1.2L236,93.8l-2.63.81-.46,1,.36,3.12.63,1.87-.86,3.9-3,3.38-4.19,2.21-3-1.22-1.25.63-3.09-2.8-1,.68-3.74-1-.1-.53,1.78-1.52-1.22-1.08v-1.66l1.11-1s-2.17-1.41-2.27-1.38,1.9-3.38,1.9-3.38l.48-1.94,2.73-.24,1.35.65H223l1.74-1.35,1.28.91L228,92.62l.21-.39-.36-.79.12-.34s.73-.25.79-.25.8.46.8.46l.94-.19,1.26-1.56,2.57-.75.13-.67,1.44-.32,3,1.2-.12.64.31.2Z"/>
          <path  class="cls-1 aaa" d="M238.93,89l-.12.64-.33-.2-1.43,1,.1.9.7.09v.49l.5.82-1.61,1.2L236,93.8v-.56h.77l.26-.38-.17-.59h-1.11V91.5l-.4-.38-1.19.67-.79,2.82-.46,1,.36,3.12-3,.09-3-2.26-1.68-.22-.72-.82-1.69.17s.31,1.13.5,1.75a11.89,11.89,0,0,0-1,2.51,1,1,0,0,0-1,.77l-1.25.49a5.47,5.47,0,0,1-.34,2.26A2.75,2.75,0,0,1,222,105.5c.23,1.55.4.46.57,1.54a14,14,0,0,0,.39,1.79l-1.25.63-3.09-2.8-1,.69-3.74-1-.1-.53,1.78-1.52-1.22-1.08v-1.66l1.11-1s-2.17-1.42-2.27-1.39,1.9-3.38,1.9-3.38l.48-1.94,2.73-.24,1.35.65H223l1.74-1.35,1.28.91L228,92.62l.21-.39-.36-.79.12-.34s.73-.25.79-.25.8.46.8.46l.94-.19,1.26-1.56,2.57-.75.13-.67,1.44-.32Z"/>
          <path  class="cls-1 aaa" d="M164.42,159.61a2.09,2.09,0,0,1,.48-2c.34-.25-.41-1.41-.41-1.41l-.2.08-1.07-.36-3.84-1.35-5.88,2.87s-1.2-.91-1.25-1a12.36,12.36,0,0,0-1.42.67l-2.53-1.06-3.16.8-2.81-1.2-1.06-1.51-2.94.17-2.68.24-.56.76-.88.07-.56-.27-.29.48-1.92-2.88-4.8-2.92.19-2.19-1-1.47,1.11-1.91.1-1-.83-.82,1.16-1.72,1.73.13,2.58-4.81L132,133l-3.59-.43-2-3.91.3-5.61,1-1.38-.83-1.95-.3-1.39.3-2.08-1.7-2.11-.93-2.85v0l-.64-3.37s-.93,0-1.47,0-.91,1.06-.91,1.06l-1.32-.07-.23-.8.23-.65-.82-.15-.91,1.21-1.58-.46-3-2.88-3.27,1.28-2.72.3.1.49.22.91s.13,1.36.22,1.8a1.3,1.3,0,0,0,.83.82c.32.14.3.12.45.32a2.22,2.22,0,0,0,1.17.77c.77.25.92,2.47.92,2.47l1.76.36.14,1.77-1.19.91-.58,1.36-3,.32-1.37-1.55-2.7.29-.9.9-.4,3L99.57,123l.27,2.36-.19.24-1.75.77-.37-.11.22-1.68L97,124l-2.22.94L93,122.24l.88-.68,2.93,1,.45-.73-.47-.42-.26-1.18a21,21,0,0,0,1.68-1.46c.45-.51,1.62-.4,2.46-.35s1-.19.78-1.28-1.69-1.32-2-1.32a3.61,3.61,0,0,0-1.78.64,16.83,16.83,0,0,1-2.54,1.23l-1.64-3H92.16L91,112.61a20.32,20.32,0,0,0,2.39-.91,29.05,29.05,0,0,0,2.75-1.7l.34-1.22,3.07-1,1.36-2,3.24-1,.49-.46.55-1.37s-1.12,0-1.46,0-.6.44-1.47.94-2.7.32-3.69.37a2.83,2.83,0,0,1-1.69-.41,4.55,4.55,0,0,0-1.78-.39c-.64,0-1.78-1.2-1.78-1.2s-2.21,2.21-3,3a4.55,4.55,0,0,1-2.55,1.19c-1,.29-3.2-.36-3.61-.32a1.76,1.76,0,0,1-1.18-.38,7.55,7.55,0,0,0-2.68-.29c-.74,0-.39.91-.58,1.69s-.74.79-1.1,1.11.58,1,.19,1.7-2.31.73-2.72.89a1.36,1.36,0,0,1-1.16-.14c-.29-.19-1.06.1-1.54.22s-1.66,2.43-2.13,3.25a3.24,3.24,0,0,1-2,1.21c-.6.21-1.18,2.19-1.18,2.19s-1.3-1-1.56-1.18-.89,0-1.49.21-.54,1.06-.85,1.54-1.35.61-2.07,1-1.16-1.15-1.4-1.45-.8-.12-1.34,0l.25.78-.07,0a3.54,3.54,0,0,1,2.17,3.3,10.9,10.9,0,0,1-1.13,3.48l.84.81,2.17-2.12,3.76-.41.26-.65,4-1,.18.38L71,124.07l1,1.26,1-1.06,1.59,1.2-.73,1.36,1.66,1.31.13-.12a8,8,0,0,0,.79-.85,1.45,1.45,0,0,1,.78-.48,4.91,4.91,0,0,0,1.27-.86c.56-.46,1.3-.58,1.87-1a17.25,17.25,0,0,0,1.64-2A13.25,13.25,0,0,1,83,121.77c.23-.21.59-.58.93-.61s.39.34.35.62a4.67,4.67,0,0,1-.81,1.9,6,6,0,0,0-1.42,2.37,1.4,1.4,0,0,1-.24.71,7.18,7.18,0,0,0-1.47,2,3.83,3.83,0,0,1-1.12.89c-.46.17-1,.11-1.41.26a5.12,5.12,0,0,0-.82.47c-.25.14-.74.37-1,.19s-.05-.49.14-.66c.55-.47,1.19-.55,1.64-1.16a3.06,3.06,0,0,0,.88-2.19c-.18,0-.32.18-.42.31v0c-.35.49-.71,1-1.08,1.45a4.42,4.42,0,0,1-2.25,1.3c.07.05-.29.06-.4.05s-.32,0-.42-.16a.37.37,0,0,1-.06-.3A5,5,0,0,0,71,134a1.82,1.82,0,0,1,.23.15,1.4,1.4,0,0,1,.37.44.64.64,0,0,1,.7.46c.06.24.21.9.4,1.67l3-.57,1.58-.44,1-.12,1.94-1,2.46-1.73,1.81,1.92-1.65,2.24-.18,1.27-1,.71,1.07,1.14.19,1.19.71-.18-2.28,2.18.57.75,1.83-.39,2,.14s1.17,1.4,2.4,1.25,2.66-1.25,3.61-.58,1.23.63,1.18,1.54.09,1.67-.24,2.15-.8,1.46-1.06,1.13a2.5,2.5,0,0,1-.27-1.19l-1.26-.64-.53,1.34s1.73.75,1.58,1.63-.91.91-.94,1.76a13.89,13.89,0,0,1-.49,2.31,1.67,1.67,0,0,1-.53,1.08c-.31.2-.66.34-.5.81s1.06,2,.7,2.58-.48.86-.37,1.28a9.16,9.16,0,0,0,.36,1s3.19.86,3.14,1.1a.94.94,0,0,0,.56.94c.44.2,1,.25.85,1.18s-.07,3.24-.41,3.38-.52.7-.86.45-.65-.63-1.09-.6-1.08,0-1.09.47.53,1.36,0,1.58-1.06.32-1,.79a1.9,1.9,0,0,0,.36,1.25c.29.34.79.64.57,1s-.44,2.1-1.06,2-1.64-.27-2,.38a9.9,9.9,0,0,1-3.46,3.12L85,179.49s.35,2.93-.07,3.34a2.61,2.61,0,0,0-.92,1.72c0,.82,0,3.74-.72,3.88s-2,.41-1.47,1.58a2.78,2.78,0,0,1,.33,2.44,2.67,2.67,0,0,0,.14,2.65,3.72,3.72,0,0,1,1.07,2.21c-.05.61-.1,2.54-.1,2.54l1.5-.22.5-.36,1.1-.29.18-.8-.11-1.11,1.37-1.16h1.81l.16,2s3.75-1.2,3.76-1.24.49-.89.49-.89l3.52-1.09s1-.59,1-.59H100l1.43.6,4.57-.8V193h-2.2l-.48-.77,1.1-.75,1.36-.14,1.63-.6,1.13.61,2.6-3.37,1.84,1.27,1.51.34,2,1,3.36-1.93,2.62-1.36s2.4-2.71,2.43-2.71h2l1.33-.41a1.39,1.39,0,0,1,.87-.45,3.85,3.85,0,0,0,2-.92,1.25,1.25,0,0,1,.86-.59c.32-.09.65.09.9-.47s1.09-1.71.87-1.93-.73-.86-.25-1.23,3.12-2.49,3.12-2.49a6.84,6.84,0,0,0,3,1.18c1.38,0,2.24.11,2.24.11l2.23,1.92s4.3-.21,4.62.27.92,1.28,1.82.93,5.56-2.47,5.56-2.47,3.18-2.09,3.49-3.58,1.25-5.42,1.25-5.42l1.28-2.08-.54-1.57.95-1.44,1.7.1,1-1.06S164.7,160.38,164.42,159.61ZM124,166.67c-1.16.14-2.29-.14-2.75.19s-1,.78-1.76.34-2-1.15-2.64-1.56-1.74-1.66-2.13-1.71-.82-.06-1.06-.41-.45-.78-.84-.85-.46.05-.62-.36.14-.55-.2-.74-1.47-.65-1-1,.89-.31.61-.79-.54-1.29.14-.73a20.9,20.9,0,0,1,1.9,1.66,4.42,4.42,0,0,0,2.56,1.81c1.51.34,1.32.92,1.82,1.47s.53,1.43,2.13,1.23,2.16-.44,2.81,0S125.15,166.53,124,166.67Zm14.81-8c-.4.82-1.58.13-2.62,1.2s-4.11,3.34-4.11,3.34-.75.6-1,.6-.7.11-.75.28a1.49,1.49,0,0,1-1.22.42c-.58,0-1.67-.33-.82-.64s1.05-.38,1.45-1,2.16-1.43,2.79-2.34,1.76-2.36,2.68-2.48S139.19,157.85,138.8,158.67Z"/>
          <path  class="cls-1 aaa" d="M75.51,128.14a.79.79,0,0,1-.24.15s-.24,0-.24,0c-.27.22-.9.56-1,.94A5,5,0,0,0,71,134a2.47,2.47,0,0,0-1-.17,6.2,6.2,0,0,1-1.48-.2,2.55,2.55,0,0,0-1.38-.21c-.47.15-.69.68-.88,1.08-.57.63-1,1.35-1.94,1.26-.23,0-.46,0-.69,0a1.45,1.45,0,0,0-1,.4c-.33.29-.76.33-1.07.62a1.44,1.44,0,0,0-.56,1,1.89,1.89,0,0,1-.08.58c-.09.21-.3.36-.41.55,0,0,0,0,0,0-.58.47-1.17.71-1.29,1.48,0,.32,0,.7-.38.81s-.57,0-.84,0a3.7,3.7,0,0,0-2.26,1.93c-.46.55-1.06,1.41-1.83,1.52-.38.05-.53.22-.67.61a3.63,3.63,0,0,0,0,1.14,1.15,1.15,0,0,1-.14.51A1.67,1.67,0,0,1,51.75,145c0-.76-.75-1.32-1-1.63s-.16-.88.12-1.68-.28-1-.58-1.32-1.21.56-2.6,1.11-1.61.7-2.23,1.7-3.25,1.34-3.79,1.63-3.49,2.93-4.86,3.38a7.79,7.79,0,0,1-2.94,0l.19-5.38-1.69-2.56,3.19-3.75,1.56.27,8.61-3.24,1.08-2.45L51,129.49l-1.22-3.74,2.9-1.34.11-2.32,6.77-3.63a3.54,3.54,0,0,1,2.17,3.3,10.9,10.9,0,0,1-1.13,3.48l.84.81,2.17-2.12,3.76-.41.26-.65,4-1,.18.38L71,124.07l1,1.26,1-1.06,1.59,1.2-.73,1.36Z"/>
          <path  class="cls-1 aaa" d="M85,179.49l-1.13-1.09s-.54,1.06-.93,1.72-.79-1-.94-1.35-2,1.18-2.9,1.78-1.43,1.9-2,2.81-1.48.78-2.82.87-2.24,1.28-2.89,1.66a2.22,2.22,0,0,0-1.18,1.82c-.24,1.12-1.54,1-2.13,1.36s-.21-1.63-.13-2.43a8,8,0,0,0-.64-2.76c-.38-1.31-4.41-1.48-5.87-1.59s-1.3,1.17-2.15,1.34-1.28-1.87-1.23-2.34-.39-.48-.92-.65-.11-1.59-.11-1.59l.7.13.74-.77s.89,1.37,1.38,1.53.65-.57.58-1.1,2.38-2.39,2.38-2.39l-3-.24-.79-.79h-.61l-.86-.4-2,.85-.39-6.49.82-1.31,2.51-1.23c.77,1.23,1.31,1,1.7.8s-.13-2.72-.13-2.72l.41-.44,1-.12,4-5.52-1.8-.33,2-3.13,1.8-1.62-.31-.46-.61.46-.29-.82.67-1.69h1.51l.54-.85-1.28-2.71.69-.93-.74-1.87-.8.26-1.23.89-1.35-2.43h0a.62.62,0,0,1-.37-.08c-.11,0-.18-.16-.34-.11s-.43.48-.57.67a8.09,8.09,0,0,1-.56.61c.72.65,1.88,1.68,2.13,2s-.82.78-1.58.78-1.41.54-1.21,1,.79.29,1.64.2.5.75,0,1.29a3.92,3.92,0,0,0-.43,2.27.82.82,0,0,0,.54.91c.37.15.66-.43,1.21-.29s0,1.18-.46,1.53A5.88,5.88,0,0,0,63.15,156l-2,.11-1.23-1.22s-1,.89-1.39,1.14-1.31-.42-1.64-.61-.61.3-.95.56-1.6-1.94-2.46-3a1.4,1.4,0,0,1-.94.12,5.25,5.25,0,0,0-1-.32,3.84,3.84,0,0,0-1.15.26,5.1,5.1,0,0,0-.94.21,26.38,26.38,0,0,0-2.62,1.11c-.39.2-1.34,1.06-1.48.21a3.84,3.84,0,0,1,.26-1.87c.28-.55,1-.62,1.47-.82a5.16,5.16,0,0,0,2.07-1.73,3.9,3.9,0,0,1,1-.91,9.74,9.74,0,0,1,1-.37,5.55,5.55,0,0,0,1.48-1.34,1.92,1.92,0,0,0,.42-.56A1.67,1.67,0,0,1,51.75,145c0-.76-.75-1.32-1-1.63s-.16-.88.12-1.68-.28-1-.58-1.32-1.21.56-2.6,1.11-1.61.7-2.23,1.7-3.25,1.34-3.79,1.63-3.49,2.93-4.86,3.38a7.79,7.79,0,0,1-2.94,0v.21l-1.65,2.27.5,4.35-3.18,2.4-1.89,3.1-5.92,3.16L10.71,175l2.63,4-5,6.37L9.06,188l-1.38,2.41L13.06,194l.07,3.29-2.34,4.3,3.46.44a8.06,8.06,0,0,1,1.58-1.72c.3-.28.29-.56.37-.93a7.24,7.24,0,0,0,.15-1,3.45,3.45,0,0,1,.19-.89,1.55,1.55,0,0,1,.39-.79,2.28,2.28,0,0,0,.33-.29c.13-.15.19-.34.31-.5.23-.31.59-.47.82-.78s.38-.47.55-.72a8.63,8.63,0,0,1,.48-.75,1,1,0,0,1,.72-.45,1.13,1.13,0,0,0,.94-.37c.19-.27.17-.6.37-.86s.29-.18.44-.29a.63.63,0,0,0,.21-.43c.08-.35,0-.68,0-1s.49-.41.76-.53a.58.58,0,0,0,.36-.29,2,2,0,0,1,.17-.46c.15-.23.54-.27.77-.44a.74.74,0,0,0,.36-.74c-.05-.3-.29-.58,0-.81s.59-.12.9-.12a3.82,3.82,0,0,0,1.2-.24,2.37,2.37,0,0,1,1.08-.24,3.7,3.7,0,0,1,.93.16,1.15,1.15,0,0,0,.8.06,1.62,1.62,0,0,0,.74-.37.81.81,0,0,1,.67-.31c.3,0,.57,0,.86.06a1,1,0,0,0,.71-.3c.11-.09.19-.22.3-.31a4.09,4.09,0,0,0,.83-.72c.15-.26.16-.65.4-.85a1.21,1.21,0,0,1,.77-.15c.64,0,.62-.4.9-.87a3.66,3.66,0,0,1,.87-.93c.46-.35.83,0,1.22.27s.82.18,1.31.06a5.54,5.54,0,0,0,1.35-.24c.4-.21.64-.55,1.14-.47a12.35,12.35,0,0,0,1.36.36,1.47,1.47,0,0,1,1.15.55,1.13,1.13,0,0,0,1.18.38,4.55,4.55,0,0,1,1.6-.16c.54.07,1.05.24,1.59.33s1.15.05,1.46.5.35,1,.86,1.07a7.73,7.73,0,0,0,1.48-.2,1.77,1.77,0,0,1,1.33.48,2.43,2.43,0,0,0,.68.47,2.59,2.59,0,0,0,.74.09,2.58,2.58,0,0,1,1.2.39c.35.22.66.73,1.12.7.22,0,.4-.12.62,0s.47.45.69.7a6.27,6.27,0,0,0,.48.42,4.06,4.06,0,0,0,1.57,1.05,10.11,10.11,0,0,1,1.63.56,5.45,5.45,0,0,1,1.2,1.15,3.16,3.16,0,0,1,1,1.68,1.26,1.26,0,0,1-.94,1.34,3.12,3.12,0,0,1-1.84.1,2.67,2.67,0,0,0-.88-.15l-.15,0,1,1.5c.42.59.33,1.15.14,2.07s1.13,1.76,2.14,2.07.79,2.31,1,3.32.52,1.2,1.39,1.54,1,2.05,1,2.05.46,2.41,1.25,3.21.38,2.14,1,2.57a1.88,1.88,0,0,1,.75,1.06s2.72-.31,4-.41,1.78-1.7,2.38-2.89,2.61-2.41,3.62-3.1,1.27-2.63,1.1-3.57,1.86-2.79,1.86-2.79,0-1.93.1-2.54a3.72,3.72,0,0,0-1.07-2.21,2.67,2.67,0,0,1-.14-2.65,2.78,2.78,0,0,0-.33-2.44c-.54-1.17.76-1.44,1.47-1.58s.67-3.06.72-3.88a2.61,2.61,0,0,1,.92-1.72C85.39,182.42,85,179.49,85,179.49Zm-29.2-20.08,1.8-.44,1.58-2.36.86-.18.73,1.25.89.68a.37.37,0,0,1-.34.41c-.38.07-.59.11-.52.46a5.32,5.32,0,0,1,0,1,3.57,3.57,0,0,1-.47.35s-2.54-.85-2.54-.85l-2.08.67Zm-31.37,7.47a15.68,15.68,0,0,0-1.09,1.35c-.35.43-.77.68-1.13,1.1a4.89,4.89,0,0,1-1.29.85,7.24,7.24,0,0,0-.93.63l-.24.19c-.13.12-.63.66-.82.4s.3-.73.4-.86A7,7,0,0,1,20,170c.2-.2.42-.39.63-.59a3.8,3.8,0,0,1,1.12-.83,5.24,5.24,0,0,0,1.19-.79,2.84,2.84,0,0,0,.59-.56,2,2,0,0,1,.58-.64c.13-.08.38-.19.51-.07S24.57,166.77,24.47,166.88Zm29.9-7.33.09,1.42a8.59,8.59,0,0,0-.83.31s-.76-1.35-.76-1.35l-.19-.79,1.77-.94.74.72Z"/>
          <path  class="cls-1 aaa" d="M167.09,179.25l-1.64,3.58-3.45.77-.15,4-.61.38-3.73.94-2.07,2.7,2,2.25-3.13,2.1-.57,2.18-2.33.8-2.2,2.89-3.93.74a24.13,24.13,0,0,0-3.1,3.66l1.33,1.14,1,1.62,1.43.34,2,4-.43,2.84L146.4,218l-1.66.31-.61,1.76-4.62.83-1.27,3.76.63,1.26-1,1.81.13,1.49-2.55,2.18-4.58.11-2,1.66-.83,3.06,1,2.35-1.55.61-2-1.2-2.43.81-3.57-1.94-.7,2-1.88-.13.07-2.57-2.43-2.66-4.73.46-1.16-1.27-2.42,0-.16,2.53-4.89.63-.23,1.57s-4.09,2.27-5.46,4.1l-1.88-1.57-4.28-.47-2.62,2.79-3.2.15-.66,2.79-1.61,0-1.42-1.94L77,245.35l-1.24,0-.7-2.53-2.83-3.6.28-2.56-2.27-1.89-1-4.45-2.1-.51L65,225.64,63.42,227l-1.85-.61,0,1.5-1.44-.93L62,219.79l-6.93-1.13-.55-2.56,1.88-2.29-.22-3.14,3.34-5.83-3.21-2.4L54.17,197l1.36-1.83a7,7,0,0,1,.61-.92l.16-.24a.8.8,0,0,1,.15-.17s0,0,.08,0l.16,0c.17,0,.34.11.51.1a2.42,2.42,0,0,1,.47,0l.87.07a2.11,2.11,0,0,0,1.58-.49,1.43,1.43,0,0,1,.48-.3l1,1.5c.42.59.33,1.15.14,2.07s1.13,1.76,2.14,2.07.79,2.31,1,3.32.52,1.2,1.39,1.54,1,2.05,1,2.05.46,2.41,1.25,3.21.38,2.14,1,2.57a1.88,1.88,0,0,1,.75,1.06s2.72-.31,4-.41,1.78-1.7,2.38-2.89,2.61-2.41,3.62-3.1,1.27-2.63,1.1-3.57,1.86-2.79,1.86-2.79l1.5-.22.5-.36,1.1-.29.18-.8-.11-1.11,1.37-1.16h1.81l.16,2s3.75-1.2,3.76-1.24.49-.89.49-.89l3.52-1.09s1-.59,1-.59H100l1.43.6,4.57-.8V193h-2.2l-.48-.77,1.1-.75,1.36-.14,1.63-.6,1.13.61,2.6-3.37,1.84,1.27,1.51.34,2,1,3.36-1.93,2.62-1.36s2.4-2.71,2.43-2.71h2l1.33-.41a1.39,1.39,0,0,1,.87-.45,3.85,3.85,0,0,0,2-.92,1.25,1.25,0,0,1,.86-.59c.32-.09.65.09.9-.47s1.09-1.71.87-1.93-.73-.86-.25-1.23,3.12-2.49,3.12-2.49a6.84,6.84,0,0,0,3,1.18c1.38,0,2.24.11,2.24.11l2.23,1.92s4.3-.21,4.62.27.92,1.28,1.82.93,5.56-2.47,5.56-2.47,3.18-2.09,3.49-3.58,1.25-5.42,1.25-5.42l1.28-2.08.14.37,1.59,1.28s-.62,2.56-.85,3.65a4.16,4.16,0,0,0,.17,2.72c.39,1,.9,2.59.9,2.59Z"/>
          <path  class="cls-1 aaa" d="M300,168.44l-1.61,7.72-1.75.07-4.15-2.51-1.33.81-3.75-.15-.74-2-2.56-.57-1-1.53,1.46-2-2.33-1.95-1.05,1.75-7,.63-.22,3.17-3.08,3.88.44,7.1-1,1.5,1.31,3.58,4-.72,3,1.05.61,2.22-1.94,1L275.43,196l5,7.12L279,204.47l-.55,2-3.12.06-2.27,1-1.42-1.18.87-3-3.86-2.09-1.42-3.63.81-2.37-2.62-2.93-2.23.81-1.65-1.2-1.84,1.66-5.5,2.14-2.66-.9-1.61,2,.48,1.93L248.87,201l-1.79-.7-2.66.88-2.8-.14-4.06-2.66L236.14,195l-3-2.12-.83-4.84.83-3-.57-3.55-1.85-.64-2,2.75-2.19-.93-.39-2-5.61.61-.48,3.43-1.66,2.31,2,2.7.15,4.22,1.14,3.82L219,206.7l-2.84,2.94-.89,3.67-2.6.7,0,0a9.9,9.9,0,0,0-4.68-4.61l-.56-5-1.1-.56-.41-2.21,1-.59.18-4.2,1.35-1.26,0-4.91.46-1.45-1.1-1.18,0-.61.82-.85-.36-3-1.28-.85-1.41.72-1.59-1.56-1.13-3.7,1.49-4.48L202.16,171l-2.76.23,0-1.31-.44-.64-1.15,1-2.31-.54-.82,1.11,1,1.28-.08,1.64-3.74,2-4.42.21-2-1.26-4.67-.18-.3-3-1.45-1.61,0-1.75,1.44-1.74V163l2.35-.36,1.9-1.55.15-1.63,0-.64,1.61-.08.89.58,1.61-.69.35-1.6.37-.57.38-2.64,1.6-1.62,1.52-1,2.51.08,1.14,1.87s3.79-1,4.5-1.26,1.71-1.95,2.23-2.54a5.25,5.25,0,0,0,.86-2.57,5.37,5.37,0,0,1,.59-1.61l2.1.12,1.41,2a13.51,13.51,0,0,1,2.12-1.11c.37-.14.58-.64.78-1.24s3.07-.6,3.07-.6l3.16-3.77c.12.82.49,1.76,1.54,1.74,1.67,0,6.08.15,6.9.64s4.49,2.52,4.93,2a3.79,3.79,0,0,0,1.43-2.72,7,7,0,0,1,1-3.56c.49-.57,1.69-3.08,2.41-3.19a1.11,1.11,0,0,0,.77-1.71c-.42-.81-3.44-4.22-3.68-6.31l3.48-.74,1.07,1.27,3.17-1.11,1.53.73,1.28-.74,2.78-.34,3.83,2.33,2.25-.08,2.35,1.39,2.88-.2,2.12,2.92-1.22,2.21.45,3.26,3.3,1.91,3.38.15,3.55,1.8,1.56,3.08,2.69.29.39,1.33,4.25-.16,1.16-1.92L281,145l1.33-1.9-.91-2,1.63-2.73,3.74.54.93-.93-.58-1.06,1.6-1.61.92-3.18,3.14-.58,1.63,2,.06,1.47,2.17.19,2.25,1.72a18.43,18.43,0,0,1-1.09,4.22c-.65,1.21-.41,1.13-.26,1.66s.71,3.51.71,3.51a9.89,9.89,0,0,1-2.7,4.95l1.16,3.84-2.42,1.73.7,2.25-2.27,2.68,1.13,4,3.19-.21Z"/>
          <path  class="cls-1 aaa" d="M13.7,203.3a2.05,2.05,0,0,0,.26,1,.92.92,0,0,1-.14.92A5.21,5.21,0,0,0,13,207a5,5,0,0,0-.21,1c0,.34,0,.68,0,1s0,.45,0,.67.08.36.09.54a1.49,1.49,0,0,1-.19,1,6.63,6.63,0,0,1-.57.88,11.06,11.06,0,0,1-1.46,1.52,2.73,2.73,0,0,1-.69.33,1.56,1.56,0,0,1-.77.15c-.28,0-.53,0-.8-.07s-.65,0-1,0A12,12,0,0,0,6,214a2.86,2.86,0,0,0-1.34.36c-.26.12-.54.14-.81.26A5.8,5.8,0,0,0,3,215a4.68,4.68,0,0,0-.94.84c-.26.28-.59.46-.84.77A7.23,7.23,0,0,0,.1,218.15s0,0,0,0l-.27-.07.31-2L2,213.91l-1.19-2.1,2.6-3.31,2.14-.23,2.29-1.68,2.9.28-.22-4.75.3-.56,3.46.44-.06.12A3,3,0,0,0,13.7,203.3Z"/>
          <path  class="cls-1 aaa" d="M23,206.18l-1.14,3.23-7.34,3.09-.74,2.79-3.56,1.34-6,.55L1,218.43l-.14,0c0-.09.09-.2.14-.29a4.35,4.35,0,0,1,.73-.92,7.81,7.81,0,0,1,2.07-1.77,3,3,0,0,1,.75-.26c.35-.07.66-.23,1-.33,0,0,0,0,0,0a2.1,2.1,0,0,1,.24-.06l.42-.09a4.34,4.34,0,0,1,.63-.09,5.05,5.05,0,0,1,1.6,0,2.71,2.71,0,0,0,1.37-.17,3.85,3.85,0,0,0,1.16-.5,5.19,5.19,0,0,1,.64-.45,5.55,5.55,0,0,0,1.45-1.87,1.15,1.15,0,0,1,.1-.13,2.34,2.34,0,0,0,.24-.31c.14-.23.11-.49.22-.73a4.38,4.38,0,0,1,1.17-1.22,3.47,3.47,0,0,0,.32-.34c.09-.1.2-.34.31-.38a7.85,7.85,0,0,0,.3-1.18c0-.35.05-.69.09-1a2.37,2.37,0,0,1,.82-1.64c.26-.21.54-.4.78-.63a4,4,0,0,0,.91-1,1.2,1.2,0,0,0,.11-.55c0-.09.28-.46.23-.51.21,0,.52.32.68.44s.33.17.37.29-.33.61-.41.75l-1.14,1.07,2.55,2.31,1.38-1.25Z"/>
          <path  class="cls-1 aaa" d="M212.66,214.05l-4.82,4,1.35,2.18-.68,3.05-3.31,1L204,226.1a16,16,0,0,1,1.17,2.25,3.28,3.28,0,0,0-.54.3,3.36,3.36,0,0,0-.59.6,2.75,2.75,0,0,1-.77.52,2.32,2.32,0,0,1-.54.19.6.6,0,0,0-.23.16l-.08.11s.05,0,0,0c-.25.36-.59.51-.91.18s-.5-.16-.85.06c-.18.12-.39.25-.43.48a3.86,3.86,0,0,0,.05.83,4.38,4.38,0,0,0,.08.82,2.41,2.41,0,0,1-.12,1.35c-.18.61-.46,1.18-.66,1.78a2.94,2.94,0,0,1-.91,1.47,2,2,0,0,1-.47.16c-.16.07-.27.19-.45.1s-.3-.48-.29-.74a7.62,7.62,0,0,0,0-1.17,2.1,2.1,0,0,0-.17-.84,2.08,2.08,0,0,1-.38-.81,3.06,3.06,0,0,1,0-1,1.94,1.94,0,0,1,.38-.67c.35-.49.59-1.25,0-1.64a.93.93,0,0,0-.6.79,8.63,8.63,0,0,1-.56,1.57c-.11.3-.15.59-.28.88a2.91,2.91,0,0,0-.18.35c-.05.15,0,.34-.08.5,0,0,0,.07,0,.09a5.76,5.76,0,0,1-.82-.11l-.79-.06-1.19-2-.67-.69-2.23-.25.16-3.05,3.33-3.36.51-1.77L191,221l-2.57.2c-.11,0-.23,0-.35,0a.3.3,0,0,1-.28-.24,1.25,1.25,0,0,0-.18-.39c-.15-.23-.35-.49-.66-.47l.35-.26c.56-.44,1-1,1.52-1.46a5.23,5.23,0,0,1,1.89-.9c.64-.15,1.39-.11,1.88-.61a1.53,1.53,0,0,0,0-1.88c-.25-.43-.75-1.43-1.38-1.19a6.68,6.68,0,0,0-.93.55c-.29.16-.77.31-1,.6a2.4,2.4,0,0,0-.2.87,3.1,3.1,0,0,1-.13.62,1.53,1.53,0,0,1-.23.5.55.55,0,0,1-.55.11c-.16,0-.3-.11-.45-.15s-.22,0-.33,0a2.33,2.33,0,0,0-1,0,4,4,0,0,0-1,.51,3.87,3.87,0,0,1-.55.34c-.15.08-.28.12-.36.29s-.08.23-.13.34c-.12.27-.34.45-.45.72s-.08.47-.18.68a1.91,1.91,0,0,1-.49.57c-.17.16-.17.39-.25.63,0,0,0,.05,0,.09h0v0a2.53,2.53,0,0,1-.55-.48c-.16-.17-.43-.21-.58-.38l-1.11-1.18-2.64-.12-1.31-2.34-1.49-.74-4-5.87-2.12-.35L166,206.63l.81-1.66-1.86-3.1,1.77-2.64.7-3.82-.48-1.15-.33-6.7-2-1.7-2.75,1.69.15-4,3.45-.77,1.64-3.58,2.39-1.06-.06-1.13.61-.83.07-1.54,4.26-.34s.28.72.31.76,1.37.07,1.37.07l1-.07,1.23,1.38,2.59-2,4.67.18,2,1.26,4.42-.21,3.74-2,.08-1.64-1-1.28.82-1.11,2.31.54,1.15-1,.44.64,0,1.31,2.76-.23,2.26,2.77-1.49,4.48,1.13,3.7,1.59,1.56,1.41-.72,1.28.85.36,3-.82.85,0,.61,1.1,1.18-.46,1.45,0,4.91-1.35,1.26-.18,4.2-1,.59.41,2.21,1.1.56.56,5a9.9,9.9,0,0,1,4.68,4.61Z"/>
          <path  class="cls-1 aaa" d="M205.49,229.18a4.82,4.82,0,0,1,.18.8l-3,2.1-1.72,2.48,1,.33L203,233.5l1.27.18.9,2.85s2.12.53,2.18.53,2.4,2.55,2.4,2.55L207.73,242,206,247.42l-1.45.22L200.74,246l-2.42.77-.74-1.42,2-2.07-.76-2.87a1.52,1.52,0,0,0-.22-.65,2.4,2.4,0,0,0-.21-.46A1.48,1.48,0,0,0,198,239a7.83,7.83,0,0,1,1.75-1.65,1.14,1.14,0,0,1,1-.24,1.22,1.22,0,0,1,.65.82,8.85,8.85,0,0,1,.31,1.15c0,.16,0,.5.19.56s.35-.17.44-.27c.23-.28.11-.7.15-1a1.3,1.3,0,0,0,0-.52c-.06-.27-.26-.29-.44-.47a1.31,1.31,0,0,1-.29-.63c-.07-.29-.11-.35-.41-.43s-.51-.18-.76-.25-.37-.08-.44-.27c-.14-.38.17-1,.32-1.28a4.17,4.17,0,0,0,.32-.68,4.68,4.68,0,0,1,.15-.67,4.23,4.23,0,0,1,.83-1.46,2.18,2.18,0,0,1,.57-.38,4.26,4.26,0,0,1,.5-.32,6.26,6.26,0,0,0,.74-.44,3.88,3.88,0,0,0,.31-.26l.15-.09,0,0,0,0C204.54,229.92,204.89,229.24,205.49,229.18Z"/>
          <path  class="cls-1 aaa" d="M233.92,100.56l-.86,3.9-3,3.38-4.19,2.21-3-1.22a14,14,0,0,1-.39-1.79c-.17-1.08-.34,0-.57-1.54a2.75,2.75,0,0,0-1.81-2.07,5.47,5.47,0,0,0,.34-2.26l1.25-.49a1,1,0,0,1,1-.77,11.89,11.89,0,0,1,1-2.51c-.19-.62-.5-1.75-.5-1.75l1.69-.17.72.82,1.68.22,3,2.26,3-.09Z"/>
        <polygon class="cls-1" points="237.05 92.86 236.79 93.24 236.02 93.24 236.02 93.8 233.39 94.61 234.18 91.79 235.37 91.12 235.77 91.5 235.77 92.27 236.88 92.27 237.05 92.86"/>
        <polygon class="cls-1" points="239.12 90.62 238.28 91.46 238.76 92.45 238.35 92.74 237.85 91.92 237.85 91.43 237.15 91.34 237.05 90.44 238.48 89.46 238.81 89.66 239.12 89.86 239.12 90.62"/>
        <polygon class="cls-1" points="169.5 148.96 168.61 150.86 167.72 151.3 167.41 152.73 166.63 153.47 167.33 155.61 165.47 155.79 164.49 156.18 164.29 156.26 163.22 155.9 163.22 154 161.07 152.92 159.43 149.9 158.63 147.18 159.24 146.31 161.23 146.41 162.73 147.81 165.76 147.61 165.76 147.6 167.23 147.83 169.5 148.96"/>
          <path  class="cls-1 aaa" d="M216.68,138.31c-.39-.23,0-1.05.56-1.41s.13-1.48,0-3.23-1.46-2.77-1.82-3.33-.93-.36-2.44-.18a2.7,2.7,0,0,1-2.79-1.18c-.47-.69,1.51-1.31,2.59-1.9s.27-4,.27-4a2.48,2.48,0,0,0-.42-1.45,9.19,9.19,0,0,1-1.06-.29,3.18,3.18,0,0,0-1-.22c-.4,0-.79-.12-1.18-.13a3.23,3.23,0,0,1-.53,0,4.8,4.8,0,0,0-.75-.09c-.18,0-.81-.11-.85-.34a6.67,6.67,0,0,1-6.33-3.75c-.26.6-1.6,1.86-1.93,2.52a10.79,10.79,0,0,0-.18,3.53c.07.65-.33.65-.76.88s-.34.53-.36,1,.29.34.67.46,0,.65-.25,1.58-1.14,1.76-1.54,2.4-.95.19-1.29.16-1.1.79-1.35,1.08.08.77,0,1.2.38.13.75.08.41.06.79.36a6.64,6.64,0,0,1,1.12,1.7,2.79,2.79,0,0,1,.23,1.08c0,.43.78.85,1,1a7.45,7.45,0,0,1,1.22,1.56c.1.29-.48.78-.67,1s-.13.47-.11.83-1.16,1.32-1.62,1.82a4.57,4.57,0,0,1-.38.32h0l1.18.76,1,2.5s-2.69,2.31-3.24,2.67a23.57,23.57,0,0,0-2,1.9v2.07l2.51.08,1.14,1.87s3.79-1,4.5-1.26,1.71-1.95,2.23-2.54a5.25,5.25,0,0,0,.86-2.57,5.37,5.37,0,0,1,.59-1.61l2.1.12,1.41,2a13.51,13.51,0,0,1,2.12-1.11c.37-.14.58-.64.78-1.24s3.07-.6,3.07-.6l3.16-3.77a4.29,4.29,0,0,1,0-1.1C217.75,139,217.06,138.54,216.68,138.31ZM200.85,131a1.92,1.92,0,0,1-.85.26,5.14,5.14,0,0,0-.86.21,2.89,2.89,0,0,1-.83.14c-.24,0-.79.14-.93-.15s.18-.58.42-.64a1.34,1.34,0,0,1,.63,0,2.15,2.15,0,0,0,.62,0,.64.64,0,0,0,.3-.08l.24-.09a2,2,0,0,0,.2-.21,3.5,3.5,0,0,1,.49-.37c.27-.18.95-.28,1,.18S201.08,130.81,200.85,131Z"/>
          <path  class="cls-1 aaa" d="M198.45,144.55s-2.69,2.31-3.24,2.67a23.57,23.57,0,0,0-2,1.9v2.07l-1.52,1-1.6,1.62-.38,2.64-.37.57-.35,1.6-1.61.69-.89-.58-1.61.08,0,.64-.15,1.63-1.9,1.55-2.35.36v3.36l-1.44,1.74,0,1.75,1.45,1.61.3,3-2.59,2L177,175.11l-1,.07s-1.38-.11-1.37-.07-.31-.76-.31-.76l-4.26.34-.07,1.54-.61.83.06,1.13-2.39,1.06L164,177.53s-.51-1.56-.9-2.59a4.16,4.16,0,0,1-.17-2.72c.23-1.09.85-3.65.85-3.65l-1.59-1.28-.14-.37-.54-1.57.95-1.44,1.7.1,1-1.06s-.53-2.57-.81-3.34a2.09,2.09,0,0,1,.48-2c.34-.25-.41-1.41-.41-1.41l1-.39,1.86-.18-.7-2.14.78-.74.31-1.43.89-.44.89-1.9-2.27-1.13-1.47-.23a15.69,15.69,0,0,0,.39-2.85c-.12-.34-.55-.75-.26-1.5a4.66,4.66,0,0,1,1.13-1.49l3-1,1.23-4.31.13-.06c.15-.1.29-.23.44-.32a1.54,1.54,0,0,0,.69-.67.84.84,0,0,1,.75-.55c.22,0,.63,0,.79.16a1.45,1.45,0,0,1,.18.6,5.29,5.29,0,0,0,.13.78,1.16,1.16,0,0,1,0,.84c-.19.58.07,1.23-.19,1.8-.1.15-.2.29-.29.44-.44.75.08,1.17.53,1.75a1,1,0,0,1,.23.83,2.35,2.35,0,0,0-.13,1c.1.55.7,1.34,1.23.74a2.22,2.22,0,0,0,.51-1.88,7.38,7.38,0,0,0-1-1.94c-.34-.62,0-1,.34-1.42a5.31,5.31,0,0,0,2,.26c1.51-.1,3.41-.15,3.3.52s-.51.92-.23,1.2.6,1.31,1.19,1.1.56-.84.94-1.15,2.36-1.26,2.54-1.08.68,1,1.1.84.82-.35,1-.39.41,0,.4-.32-.13-.79.28-.73.7,0,.79.24.81.7.52.93-.47.47-.36.7-.22.6.32.6.81.17.86.61.2,3.61,1,3.06,3.86-2.71,5-3.64l1.18.76Z"/>
          <path  class="cls-1 aaa" d="M135.51,98.66a10.29,10.29,0,0,0-1.13,2.32c-.49,1.18-5.86,0-5.86,0a3.78,3.78,0,0,1-1.85,2.52c-.7.25-1.11,1.14-1.57,1.91l-1.53,2.57s-.93,0-1.47,0-.91,1.06-.91,1.06l-1.32-.07-.23-.8.23-.65-.82-.15-.91,1.21-1.58-.46-3-2.88-3.27,1.28-2.72.3.1.49.22.91s.13,1.36.22,1.8a1.3,1.3,0,0,0,.83.82c.32.14.3.12.45.32a2.22,2.22,0,0,0,1.17.77c.77.25.92,2.47.92,2.47l1.76.36.14,1.77-1.19.91-.58,1.36-3,.32-1.37-1.55-2.7.29-.9.9-.4,3L99.57,123l.27,2.36-.19.24-1.75.77-.37-.11.22-1.68L97,124l-2.22.94L93,122.24l.88-.68,2.93,1,.45-.73-.47-.42-.26-1.18a21,21,0,0,0,1.68-1.46c.45-.51,1.62-.4,2.46-.35s1-.19.78-1.28-1.69-1.32-2-1.32a3.61,3.61,0,0,0-1.78.64,16.83,16.83,0,0,1-2.54,1.23l-1.64-3H92.16L91,112.61a20.32,20.32,0,0,0,2.39-.91,29.05,29.05,0,0,0,2.75-1.7l.34-1.22,3.07-1,1.36-2,3.24-1,.49-.46.55-1.37.7-1.73s-.34-.14-.83-.4-.37-.83-.65-1.25a11.66,11.66,0,0,0-1.87-1.49l-4-.07-.74-.77.3-2.09,2.24.06.54.85,2.21-.84.39-1.78,1.77-.22.32.42,1.08-.2.72-1.6,1.86-.55.47-2.58-.65-.36.33-2.06a7.46,7.46,0,0,0,1.52.55c.67.14,1.11-1.5,1.11-1.5h.38l.46,1.28,2.08.6s.07.31.23.94-.58.75-.93,1.08-1,4.61-1,4.61l-2.91.21s-.12,2.34.14,2.53a8.73,8.73,0,0,1,.84,1.81s4.2-.58,4.88-.72.79,1,1.27,1.3a3.5,3.5,0,0,1,.89,1.23l2.63.53a2.13,2.13,0,0,0,0-.75c-.05-.53.44-.82,1-1.28a8.67,8.67,0,0,1,2.81-1.59c.89-.21,2.22-1.78,2.22-1.78l4.67-2.45.07-1-1-1.21.66-2.09,1,0s.65,1.78.92,2.35.07.61-.22.8-.08.66-.08,1.07.54.94,1.33,1.25,1.66,1.62,2,2.12S135.89,98.23,135.51,98.66Z"/>
          <path  class="cls-1 aaa" d="M163.47,133.52l-.54.51-2.72-.18-.16-.63a1.16,1.16,0,0,1,.46-.12,5.16,5.16,0,0,0,1-.07c.24,0,.47-.13.7-.07a8.11,8.11,0,0,1,.82.31A3,3,0,0,1,163.47,133.52Z"/>
          <path  class="cls-1 aaa" d="M168.42,131.42l-.59,2.44-.4.39-.06-.06a.68.68,0,0,1-.23-.84c.19-.29.52-.5.25-.88s-.66-.29-.92-.55-.28-.56-.73-.57a1.35,1.35,0,0,1-.53-.06,1.74,1.74,0,0,1-.38-.29c-.69-.53-1.49,0-2.24.1-.27,0-.73.11-1-.09a.62.62,0,0,1,.08-.84c.2-.19.43-.33.63-.52s.6-.36.87-.6a2.5,2.5,0,0,0,.32-.33l1.66-.14,1.2.79Z"/>
          <path  class="cls-1 aaa" d="M73.66,145.72l1.13,1.42-3.23,2.23-1.13-2.26-.88-.44s.65-2,0-2.17l-1.08-.29-.41-1s1-.53.62-1.05-1,0-1,0l-.85-1.39.14-.15h0l1-1a13,13,0,0,1,1.27-.94,9.15,9.15,0,0,0,2.18-1.77,2.11,2.11,0,0,0,.38-1.23,2,2,0,0,0-.27-1,.64.64,0,0,1,.7.46c.06.24.21.9.4,1.67.29,1.21.65,2.71.8,3.31l-.29.13a4.86,4.86,0,0,0-1.16.91,1.18,1.18,0,0,0-.35,1.38,2.08,2.08,0,0,0,1.21.76,2.11,2.11,0,0,0,1.36-.28c.18-.08.28-.43.42-.67l.9,1.58Z"/>
          <path  class="cls-1 aaa" d="M54.37,159.55l.09,1.42a8.59,8.59,0,0,0-.83.31s-.76-1.35-.76-1.35l-.19-.79,1.77-.94.74.72Z"/>
          <path  class="cls-1 aaa" d="M61.36,158.77c-.38.07-.59.11-.52.46a5.32,5.32,0,0,1,0,1,3.57,3.57,0,0,1-.47.35s-2.54-.85-2.54-.85l-2.08.67.09-1,1.8-.44,1.58-2.36.86-.18.73,1.25.89.68A.37.37,0,0,1,61.36,158.77Z"/>
          <path  class="cls-1 aaa" d="M93.09,163.36a.94.94,0,0,1-.56-.94c0-.24-3.14-1.1-3.14-1.1a9.16,9.16,0,0,1-.36-1c-.11-.42,0-.68.37-1.28s-.55-2.1-.7-2.58.19-.61.5-.81a1.67,1.67,0,0,0,.53-1.08,13.89,13.89,0,0,0,.49-2.31c0-.85.79-.87.94-1.76s-1.58-1.63-1.58-1.63l.53-1.34,1.26.64a2.5,2.5,0,0,0,.27,1.19c.26.33.73-.64,1.06-1.13s.19-1.24.24-2.15-.23-.87-1.18-1.54-2.38.42-3.61.58-2.4-1.25-2.4-1.25l-2-.14-1.83.39-.57-.75,2.28-2.18-.71.18-.19-1.19-1.07-1.14,1-.71.18-1.27,1.65-2.24-1.81-1.92-2.46,1.73-1.94,1-1,.12-1.58.44-3,.57c.29,1.21.65,2.71.8,3.31.39-.15.81-.21,1.22-.33,1-.3,1.76-1.62,2.92-1.3s-.31,1.62-.64,2.11a4.39,4.39,0,0,1-1.57,1.23,4.29,4.29,0,0,0-.63.36.5.5,0,0,0-.11.16l.9,1.58-1.92,1.84,1.13,1.42-3.23,2.23-1.13-2.26-.88-.44s.65-2,0-2.17l-1.08-.29-.41-1s1-.53.62-1.05-1,0-1,0l-.85-1.39-.17.16-.1.12-.48.47a5.75,5.75,0,0,1-.54.44,2.74,2.74,0,0,0-.85,1.23c-.1.23-.18.38-.44.43L65.63,146l1.23-.89.8-.26.74,1.87-.69.93L69,150.39l-.54.85H66.94l-.67,1.69.29.82.61-.46.31.46-1.8,1.62-2,3.13,1.8.33-4,5.52-1,.12-.41.44s.51,2.54.13,2.72-.93.43-1.7-.8l-2.51,1.23-.82,1.31.39,6.49,2-.85.86.4h.61l.79.79,3,.24s-2.45,1.86-2.38,2.39-.08,1.25-.58,1.1-1.38-1.53-1.38-1.53l-.74.77-.7-.13s-.43,1.42.11,1.59,1,.17.92.65.37,2.51,1.23,2.34.7-1.44,2.15-1.34,5.49.28,5.87,1.59a8,8,0,0,1,.64,2.76c-.08.8-.47,2.73.13,2.43s1.89-.24,2.13-1.36a2.22,2.22,0,0,1,1.18-1.82c.65-.38,1.56-1.58,2.89-1.66s2.27,0,2.82-.87,1-2.21,2-2.81,2.74-2.17,2.9-1.78.54,2,.94,1.35.93-1.72.93-1.72a9.9,9.9,0,0,0,3.46-3.12c.33-.65,1.35-.45,2-.38s.85-1.68,1.06-2-.28-.66-.57-1a1.9,1.9,0,0,1-.36-1.25c0-.47.52-.57,1-.79s0-1.1,0-1.58.66-.45,1.09-.47.76.36,1.09.6.53-.31.86-.45.26-2.46.41-3.38S93.53,163.56,93.09,163.36Zm-17.3-17.65-.2-1.06.72-.41.36.2.17.84Zm3-1.68-.81.16-.58-.21-.12-1,1-.94.48.14Z"/>
    </g>
</svg>