<svg id="NETWORK" 
    xmlns="http://www.w3.org/2000/svg" viewBox="0 0 300 300">
    <defs>
       <style>
         .cls-11{fill:#da1a35;}
                
        </style>
    </defs>
    
    <g id="GREECE">
        <path class="cls-11 aaa" d="M142.39,267.17c.14.29.17.25.28.52a1,1,0,0,1,0,.63c0,.19-.35-.14-.39-.47a1.65,1.65,0,0,0-.23-.62v-.67S142.24,266.87,142.39,267.17Zm-.2,1.69a.25.25,0,0,1-.14.16.26.26,0,0,1-.23,0s-.43-.08-.41.17a1,1,0,0,0,.23.61c.2.31.12.54.16,1.17s-.06.62-.22.78-.47.29-.41.58.28.47.33.7-.19.51-.33.71a1.08,1.08,0,0,0-.35.72c0,.35,0,.45.22.6s.29-.06.46.29a2.45,2.45,0,0,1,0,1.37c-.07.25-.17.35-.31.39s-.33-.14-.37-.14-.19.06-.19.28.19.6,0,.74a.66.66,0,0,1-.45.11c-.14,0-.26,0-.26.2s.41.43.59.72a.77.77,0,0,1,0,.76c-.1.1-.45.29-.27.49s.4.17.46.43.08.58-.09.62-.59,0-.39.35a1.3,1.3,0,0,0,.66.64c.23.1.41,0,.54.34s.2,1,.32,1.24a1,1,0,0,0,.85.45,3.47,3.47,0,0,0,1.25-.41c.18-.15.84-.37,1.05-.13a.91.91,0,0,0,.8.39c.35-.06.55-.16.69-.16s.25.23.54,0,.33-.37.61-.29.54.49.85.57.43.29.71,0,.87-.92,1.26-.92.57.37,1.08.42a2.25,2.25,0,0,0,1.07-.11c.21-.08.47-.35.78-.26s1.05.74,1.36.67,1-.65,1.6-.51a2.28,2.28,0,0,1,1.46.95c.35.57.72.88.9.88s.51-.37.7-.33,0,.25.35.33.63-.54.9-.45.43.35.58.28.43-.55.61-.49.27.45.56.37.59-.6.9-.55.62-.37.9-.19.19.41.48.49.45.13.78.19.51.31.8.25a3,3,0,0,0,.67-.31c.17-.06.42-.35.6-.31a5,5,0,0,0,.8.33c.31,0,.8.12.95.12s.39-.66.63-.61.66.3.7.51-.31.27-.33.38,0,.21.19.27a8.17,8.17,0,0,1,1.27.19c.37.14.45.43.78.55a20.42,20.42,0,0,0,2.07,0,1.18,1.18,0,0,1,.89.42,2.83,2.83,0,0,0,1,.71c.19.07.56.19.58.41s.55.54.55.54a4,4,0,0,1,.84-.17h1s.33-.18.49,0-.43.19.57.31a8,8,0,0,0,1.75,0,2.41,2.41,0,0,1,1.17.29c.25.18.35.25.41.37s.15.16,0,.31a.48.48,0,0,0-.1.61c.14.15.57.41.55.62s-.24.45-.31.62a.83.83,0,0,0-.06.75c.13.35.41.62.29.81s-.57.59-.7.8-.41.59-.3.71a.7.7,0,0,0,.73-.1.66.66,0,0,1,.76-.24,4.18,4.18,0,0,0,.91.32c.22,0,.51-.3.7-.35a2,2,0,0,1,1.25.07,12.88,12.88,0,0,0,1.43.55,2,2,0,0,0,1,0,.78.78,0,0,1,.74-.23c.41.09.72.19.92.21s.43.12.76.17a1.26,1.26,0,0,0,.8-.11c.19-.1.62-.68,1-.68s.22.17.74.27a2.31,2.31,0,0,0,1.21,0c.25-.1.64-.82,1-.76s.41.16.55.16.16-.38.39-.34.43.32.88.32a4.22,4.22,0,0,0,.93-.16c.18,0,.51.12.67-.08a3.41,3.41,0,0,1,.5-.47c.3-.25.72-.39.8-.6s0-.66.43-.7a5.3,5.3,0,0,1,1,0c.31,0,.41-.18.7-.22s.78-.48,1-.52.63,0,.7.13.49.39.63.32.06-.43.56-.43.72-.18,1-.16.68.27.91.27.51-.33.92-.44a6.17,6.17,0,0,1,1.36-.22c.32,0,.8.29,1,0s.33-.47.64-.56,1.19-.2,1.58-.28.72-.43,1.38-.41a6.06,6.06,0,0,1,1.54.35,5.78,5.78,0,0,0,2.15.14,3.94,3.94,0,0,0,1.62-.35,21.19,21.19,0,0,1,2.32-.84,18.28,18.28,0,0,1,1.89-.64c.62-.1,1.32-.2,1.38,0s.16.6.37.66.31-.08.55-.08.13.16.5.22.67-.24,1,0,.31.56.6.7a1.15,1.15,0,0,0,1.23,0c.45-.33.74-1,1.17-1a7.74,7.74,0,0,0,1,0c.28-.07-.07-.11.47-.41s1.15-.56,1.19-.85-.19-.43.12-.76a2.54,2.54,0,0,0,.6-1c.06-.25.24-.43.22-.72s-.3-.56-.22-.93a4.81,4.81,0,0,1,.22-.86,1.9,1.9,0,0,1,.41-.78,3.88,3.88,0,0,0,.62-.57,4.2,4.2,0,0,0,.27-.62s-.31.23-.5,0a1.19,1.19,0,0,1-.3-.74c0-.2,0-.12-.15-.43s-.3-.57-.3-.57a5.43,5.43,0,0,1-.11-.76c0-.35-.26-.33,0-.62s.72-.94.72-.94a4.92,4.92,0,0,0,.53-.93c0-.2,0-.47-.18-.45s-.59.1-.47.27.31.28.14.57-.47.25-.47.51a2.53,2.53,0,0,1,0,.37l-.31,0a.94.94,0,0,0-.45.21c0,.08-.16,0-.31-.06a.4.4,0,0,0-.53.18,1,1,0,0,0-.08.62.78.78,0,0,1,.65.35c.17.35.25.68.08.88s-.36.39-.51.35a.44.44,0,0,1-.31-.33.33.33,0,0,1,.13-.26A.13.13,0,0,0,234,279c-.14,0-.39,0-.36.21s.24.41.12.55a9.16,9.16,0,0,1-.76.61,1.53,1.53,0,0,1-.82.44c-.39,0-1,.16-1.23.14s-.4-.41-.4-.41-.49-.31-.69-.27a2.69,2.69,0,0,0-.62.25,1.86,1.86,0,0,1-.66.08l-.67-.43s.12-.57-.29-.27a7.89,7.89,0,0,0-1,.91,6.23,6.23,0,0,1-.47.8c-.1.08-.18.12-.57,0a2.94,2.94,0,0,0-.84,0,4.19,4.19,0,0,0-.66.57.27.27,0,0,1-.33.31c-.33,0-.58-.25-.86,0a4.53,4.53,0,0,0-.54.47c-.28.27-.22.6-.59.58s-.52-.15-.74.12-.37.25-.41.58,0,.65-.21.73a3.74,3.74,0,0,1-.76.07,4.87,4.87,0,0,0-1-.37c-.21,0-1.15,0-1.4-.33a4.09,4.09,0,0,1-.72-1.27c0-.23-.31-.85-.24-1.11s.12-.46.18-.7a8.7,8.7,0,0,0,.29-1.11,3.64,3.64,0,0,0-.35-1.23,2.48,2.48,0,0,1-.33-1.38,4.21,4.21,0,0,1,.88-1c.17-.09.76-.23.8-.35s-.41-.52-.59-.5a2.09,2.09,0,0,0-.62.27c-.18.1-.61.41-.9.27a5.05,5.05,0,0,0-1-.37c-.16,0,.07.25-.55.31a11.91,11.91,0,0,1-1.32-.06c-.26,0-.39.24-.75.39a6.43,6.43,0,0,1-1.05.3l-1,.47-.92.13-.66.47a1.5,1.5,0,0,1-1.43.39,22.51,22.51,0,0,1-2.45-1.44,6.34,6.34,0,0,0-2.05-.45,10.88,10.88,0,0,0-1.32.6,10.15,10.15,0,0,1-1.66.06l-1.83-.72s-1.8-.39-2.28-.1-.53.63-1.39.63a3,3,0,0,1-1.34-.26s-.43-.56-.35-.84.41-.39.21-.62-.35-.39-.49-.25-.19.48-.41.15-.31-.43-.29-.62,0-.37-.25-.37-.33.15-.43.29-.51-.15-.51-.15-.21-.53-.41-.47-.27.25-.45.47.1.7-1.73.7a25.58,25.58,0,0,1-4.19-.14,15.38,15.38,0,0,1-2.22-.62c-.59-.18-.73-.39-1.15-.28a3,3,0,0,0-1.27.69,6.58,6.58,0,0,1-1.33,1.19c-.39.17-1.34.58-1.75.7a5.5,5.5,0,0,1-1.09.15c-.59.06-.73-.07-1.25,0s-1.68.45-2.32.57a21.17,21.17,0,0,1-3,.29,2.68,2.68,0,0,1-1.62-.41,3.14,3.14,0,0,1-.92-1.36c0-.39.22-1,.08-1.37s-.39-1.56-.84-1.56-.62.28-.87.41-.36.59-.9.47a2.58,2.58,0,0,1-1-.45s-.35-.27-.58-.17-.29.29-.55.13a16.52,16.52,0,0,1-1.83-1c-.14-.2-.19-.45,0-.41a2.64,2.64,0,0,0,.88,0c.19-.06.29-.31.48-.31a1.67,1.67,0,0,1,.76.19.88.88,0,0,0,.9-.31,1.58,1.58,0,0,1,.63-.51s.4-.56.23-.82-.49-.05-.49-.5.06-.82-.19-.92l-1.25-.49s-.47-.31-.64-.13a3.51,3.51,0,0,0-.43.62l-.76-.06s-.39.16-.06.41.62.55.51.74-.36.24-.57.37-.43.06-.59.1-.48.1-.48.47.21.52-.18.7a4.67,4.67,0,0,1-1.93.31c-.5-.08-.8-.27-1.15-.33a2.56,2.56,0,0,0-.88-.14c-.31.06-.48,0-.93,0a3.61,3.61,0,0,1-1.68.06c-.87-.19-1.4-.25-1.6-.54s-.7-.67-.78-.86-.19-.92-.19-.92a7.26,7.26,0,0,0-.43-1,1,1,0,0,1-.12-.72.81.81,0,0,0-.23-.78c-.27-.2-.39-.88-.25-1s.37-.15.33-.48a2.1,2.1,0,0,0-.74-1.1c-.26-.13-.41-.39-.53,0a10.37,10.37,0,0,0-.23,1.1l.21.66-.31.58s-.41.41-.29.69a3.21,3.21,0,0,1,.27.93,4.92,4.92,0,0,0,0,.63,2.24,2.24,0,0,1,.37.83v1.08s.08.35-.06.42-.33.3-.27.43.17.06.25.32a1,1,0,0,1-.12.85,2.64,2.64,0,0,1-.68.41,1.2,1.2,0,0,1-.91-.19,3,3,0,0,0-1.15-.49,2.92,2.92,0,0,1-.82-.33l-.06-.59-.14-.64v-.84a3.59,3.59,0,0,0-.15-.5C142.5,269,142.32,268.71,142.19,268.86Zm56.63,2.28a1.19,1.19,0,0,0-.33,0,.36.36,0,0,1-.32.28c-.27,0-.41-.1-.66,0s-.6.41-.25.48a3,3,0,0,0,.88,0l.52.18c.18.06.59.27.63-.16A.79.79,0,0,0,198.82,271.14Zm18.83,7a.81.81,0,0,0-.31-.37c-.12,0-.39,0-.37.19a1.4,1.4,0,0,0,.17.59c.1.16,0,.24.17.35a1.51,1.51,0,0,0,.48.16s-.08-.06,0-.18,0-.37,0-.37Zm14.81-3.51a.49.49,0,0,0-.35.14c-.09.14-.21.29,0,.33s.26.16.35,0A.71.71,0,0,0,232.46,274.65Zm5.74,2c0-.05-.57-.08-.63.12a.75.75,0,0,0,0,.39H238S238.29,276.84,238.2,276.68ZM232,291.57c-.06-.05-.39,0-.39,0s-.26,0-.26.22a.31.31,0,0,0,.33.31c.14,0,.28,0,.32-.14A1.24,1.24,0,0,0,232,291.57ZM217.63,296a3.35,3.35,0,0,1-.45,0,2.25,2.25,0,0,0-.37,0s-.47-.06-.51,0,0,.28.32.36.35.2.76.1.56-.09.56-.23S217.63,296,217.63,296Zm-6.12-31.17h-.39l.19.31S211.59,265,211.51,264.79ZM261,269.86a.36.36,0,0,0-.3-.1c-.15,0-.52.1-.52.1a.93.93,0,0,0-.63.23c-.17.24-.21.37-.56.43s-.68-.08-.74,0-.22-.1-.3-.08-.37.12-.37.31a.7.7,0,0,1-.23.47c-.08.06-.45.18-.58.37s-.36.31-.36.66,0,.57.26.61.62-.27.62-.27a1.17,1.17,0,0,1,.66-.22.75.75,0,0,0,.63-.21c.21-.16.21-.43.68-.61s.53-.16.76-.24.27-.26.41-.46a3.52,3.52,0,0,1,.33-.39A1.65,1.65,0,0,0,261,269.86Zm3.13-3.43a1.62,1.62,0,0,1,0,.74.68.68,0,0,0-.48.54c-.06.43-.22.57,0,.82s.28.24.53.18.58-.14.64,0a.58.58,0,0,0,.33.38c.15.05.33.07.43.33s.09.33,0,.49-.39.29,0,.31.35-.08.6-.3.47-.35.51-.46-.18-.18-.33-.35-.29-.3-.16-.53a2.16,2.16,0,0,1,.41-.62c.2-.16.45-.1.53-.36s-.14-.27,0-.58-.06-.49.23-.62.41-.24.64-.2.38,0,.43-.35.12-.43-.29-.62-.86-.33-.76-.61.23-.35.47-.64a1,1,0,0,0,0-1,4.66,4.66,0,0,0-.66-.59,4.24,4.24,0,0,1-.65-.43c-.35-.25-.62-.25-.76-.64s-.41-.59-.27-.88a2.34,2.34,0,0,0,.2-1.11c-.06-.27-.3-.51,0-.66s.48-.14.56-.57a11.75,11.75,0,0,1,.12-1.5c.12-.14.86-1.17.68-1.54s-.49-.53-.37-.9.2-.76.29-1a.83.83,0,0,0,.08-.72c-.12-.25-.17-.78-.31-.33s0,.78-.23.93-.77-.09-.86.18-.24.25-.06.52.45.57.15,1-.44.49-.44.64.13.39,0,.64-.41.2-.67.57-.17.78-.35,1.05-.39.35-.54.72,0,.41.09.63.31.35-.22.95-.56.73-.89,1.11-.72.53-.56,1a1.9,1.9,0,0,0,.58,1c.24.18.61.27.63.59s-.12.39,0,.91a2.92,2.92,0,0,0,.39,1A7.68,7.68,0,0,1,264.1,266.43Zm3-16.71a1.74,1.74,0,0,1,.15-.53s-.08-.54-.15-.52-.16.07-.3.37a2.6,2.6,0,0,1-.29.58c-.14.2-.31.2-.43.31s-.37.1-.15.51a1.19,1.19,0,0,0,.62.59c.17.09.14.23.29.25a.39.39,0,0,0,.41-.27,2,2,0,0,0,.1-.61.59.59,0,0,0-.14-.43A.61.61,0,0,1,267.15,249.72Zm11.28-16.63c-.13,0-.37-.16-.37-.16l-.49-.19s-.37-.08-.27.18.24.33.24.42a.37.37,0,0,1-.25.32c-.18.05-.36.15-.32.37s.12.39.31.23.45-.57.67-.45.17.29.27.37.37.16.45,0,.07-.39.21-.43.06.08.35.12.31,0,.49-.08.37-.11.49-.29.35-.41.21-.59-.49-.56-.68-.33-.18.43-.35.55a.68.68,0,0,1-.43.08Zm2.91-1.66s-.35.08-.2.2a1,1,0,0,0,.47.12S281.43,231.41,281.34,231.43Zm.37,2.19a1.86,1.86,0,0,0,0,.35c0,.13.31,0,.31,0v-.15Zm2.42-3.65a5.18,5.18,0,0,0-.49.25s-.24.26-.14.49a.65.65,0,0,0,.3.33s.4.16.52-.21S284.29,229.91,284.13,230Zm1.3,4.56a3,3,0,0,0-.49.63s-.15.56-.33.64-.56,0-.69.23a1.29,1.29,0,0,1-.44.55,1.75,1.75,0,0,0-.37.37v.43s.53-.35.61-.1,0,.55.07.74.24.22.57.39a2.11,2.11,0,0,1,.78.74,1.49,1.49,0,0,1,.29.94c0,.29-.1.88-.14,1.34s.1.65-.05.92a8,8,0,0,0-.39.76c-.08.16-.45,1.5-.49,1.58a1.88,1.88,0,0,0,.35.8c.19.31.45.45.55.76s.06.64.17.94a3,3,0,0,1,.22.58c0,.14,0,.18-.12.35s-.37.41-.2.39.18,0,.32-.19l.35-.55a4.37,4.37,0,0,1,1-.94,5.06,5.06,0,0,1,1.17-.54c.31-.08.25,0,.53-.39s2.3-3.43,2.55-3.76.23-1.1.72-1.39a5,5,0,0,1,1.27-.33,1.82,1.82,0,0,0,.62-.68c.2-.33.33-1,.78-.88a1.26,1.26,0,0,1,.76.59c.18.19.3.25.43.19a1.13,1.13,0,0,1,.47-.14c.19,0,.51,0,.49-.15s-.16-.27-.49-.45-.49-.16-.43-.43.14-.51.14-.51a1.14,1.14,0,0,1-.55-.66,1.26,1.26,0,0,1,.14-1.15c.27-.37.52-.43.6-.86s-.19-.64.14-1a4,4,0,0,1,.92-.95c.31-.18.48-.06.44-.57s-.31-.63-.07-1.15a8.55,8.55,0,0,1,.83-1.62c.35-.49.43-1.27.69-1.6a1.19,1.19,0,0,0,.23-1c0-.43-.14-.88,0-1.07a4.84,4.84,0,0,0,.6-.82,1.14,1.14,0,0,0,0-.47l-.25-.66-.21-.57-.28-.39s-.45.18-.41.47.18.37-.11.68-1.09.59-1.33.41-.31-.47-.72-.33-1.05.47-1.33.6-.46-.23-1.13.2-1.19.9-1.67,1.23a6.68,6.68,0,0,1-1,.56,5.26,5.26,0,0,0-.9.14,7.92,7.92,0,0,0-1.54,1.6c-.36.47-1,1.13-1.17,1.42s-.59.76-.73.78-.64,0-.76.16a3.56,3.56,0,0,0-.19.82s-.06.54-.18,1.11a5.34,5.34,0,0,1-.21.87A2.6,2.6,0,0,1,285.43,234.53Zm-.27-18.32c0-.08-.16-.31,0-.45l.56-.51.37-.23s0-.31-.17-.16a5.72,5.72,0,0,0-.7.55,3.84,3.84,0,0,1-.35.35c-.08.06-.41.06-.45.33s0,.49-.12.59a1,1,0,0,1-.45.19c-.29.08-.58,0-.64.33s-.33.49,0,.65a.6.6,0,0,0,.56,0s.47-.61.8-.39.3.5.2.62-.32.29-.2.41.61-.53.76-.27.49.52.39.64-.44.19-.46.35.05.33.23.33.37,0,.45.2.24.33.16.43-.28.07-.24.23.74.39.92.16,0-.78,0-.78l-.45-.59s.35-.19.33-.39-.18-.25-.27-.49-.39-.39,0-.57.89-.36.78-.63-.3,0-.67-.06-.58-.08-.48-.26.29-.33.27-.45-.47-.29-.62-.09-.5.35-.55.27S285.16,216.21,285.16,216.21Zm-11.25,12c-.15-.11-.58.46-.58.46h.4S274.05,228.31,273.91,228.22Zm-5.05-3.38c-.1,0-.21.34-.21.43s-.16.06-.18.24.14.29.2.45a2.26,2.26,0,0,1,0,.52.48.48,0,0,0,.19.45.9.9,0,0,0,.53,0l.7-.82c.19-.23.53-.68.72-.47s.33.55.23.67-.41.13-.35.43a.75.75,0,0,0,.53.52c.19.06.35,0,.39.22s0,.73.35.72.55,0,.62-.18.2-.45.43-.47a1.2,1.2,0,0,0,.62-.25,1.27,1.27,0,0,0,.12-.39c0-.1.16-.29-.12-.27s-.17.13-.3.27-.43.23-.43.14-.08-.3-.24-.26-.19.3-.35.28-.27-.2-.19-.26.13-.24,0-.29-.33-.08-.26-.27.14-.37.3-.41.35-.08.17-.25a3,3,0,0,0-.54-.39.81.81,0,0,1-.32-.36.8.8,0,0,1-.09-.37c0-.13.09-.41-.1-.42a.34.34,0,0,0-.41.31.61.61,0,0,1-.39.48c-.16.06-.21,0-.35.14a.72.72,0,0,1-.31.18l-.45.05S269.06,224.82,268.86,224.84Zm-5.79-5.67a1,1,0,0,0-.55.06c-.31.12,0,.29,0,.47s.09.15.29.31,0,.19-.14.31.12.2.39.1.12-.14.23-.14.24.16.59.28.29-.26.29-.53.24-.31.2-.49-.2-.11-.33-.29-.11-.3-.41-.43C263.51,218.77,263.13,219.17,263.07,219.17Zm-2.1-2.59c-.3.12,0,.17.19.29s0,.33,0,.33v.47s.31,0,.35-.23a3.3,3.3,0,0,1,.27-.65l.37-.29.41-.42a.68.68,0,0,0-.33-.28c-.21-.08-.13.14-.31.31a1.06,1.06,0,0,1-.41.27S261.26,216.46,261,216.58Zm-1.78,4c-.06-.06-.33,0-.33,0s.06.33.17.35.4-.35.28-.35Zm1.35.62c-.06,0,0,.25,0,.25s.28.08.31,0S260.54,221.2,260.54,221.2Zm-4.06-8.54-.76.14a.75.75,0,0,0-.49.21,5.38,5.38,0,0,0-.31.51c-.08.15-.21.12-.23.33a.54.54,0,0,0,.17.56,1.5,1.5,0,0,1,.35.45s-.07.26-.11.47a1.12,1.12,0,0,0,.13.68c.12.24.2.47.53.57a.45.45,0,0,0,.49-.1l-.37-.49s-.2-.52.06-.6.46,0,.54-.16.14-.17,0-.37-.41-1-.21-1.11a3.86,3.86,0,0,1,1.09-.15,2.21,2.21,0,0,1,.47,0c.23,0,.33-.18.54-.34s.39-.39.72-.35.3,0,.84.06.74.29,1.25,0a3.36,3.36,0,0,0,.92-.8l.95-1.19.68-.95a5.25,5.25,0,0,1,1.37-.41,2.07,2.07,0,0,0,1.15-.29c.74-.34,1.23-.8,1.6-1a4.74,4.74,0,0,1,.84-.25l.21-.49s-.27-.39-.51-.39-.8,0-.93-.27-.47-.72-.63-.76-.23-.16-.64.11a2,2,0,0,1-1.21.55,8.33,8.33,0,0,0-1.73,0,1.63,1.63,0,0,0-1.08.49c-.5.46-1.09,1-1.44,1.36s-.88.41-1,.66a2.39,2.39,0,0,1-.53,1c-.49.66-.68,1-1,1.27a3.74,3.74,0,0,1-.86.68A2.37,2.37,0,0,1,256.48,212.66Zm5.62-8.07a1.5,1.5,0,0,0-.88.1c-.27.19-.37.41,0,.64a1.35,1.35,0,0,0,.88.31c.17-.06.29-.13.19-.25s-.23-.09-.27-.28,0-.33.1-.38S262.1,204.59,262.1,204.59ZM253.25,200l-.45-.12a1.62,1.62,0,0,0,.23.49c.12.12.16.18.16.23s.08.34.31.36.31,0,.45,0,.23.31.29.5.44.49.44.49a3.75,3.75,0,0,1,.11.68,4.35,4.35,0,0,1,0,.68l-.39.67-.37.64.17.29s0,.22-.1.25-.19.43-.19.69.68.25,1.17.31a.76.76,0,0,0,.73-.37l.22-.63a1.79,1.79,0,0,1,.65-.19c.27,0,.56.24.95.31s.06-.27,0-.52-.37-.49-.43-.76.2-.45.32-.72a2,2,0,0,0,.27-.82c.06-.53-.12-.3-.45-.49s-.8.29-.8.29a.65.65,0,0,1-.49-.14c-.17-.17-.15-.35-.31-.46s-.35-.06-.54-.18.06-.31.21-.45,0-.39,0-.39a1.12,1.12,0,0,0-.49-.13,1.11,1.11,0,0,1-.56-.28s-.51-.25-.53-.35Zm-4.43-4.41-.35.26a3,3,0,0,0-.62.25c-.18.12,0,.35.09.53s.39.15.78.17a3.05,3.05,0,0,1,.78.13c.18.05,0,.42-.08.5s-.15.5-.15.5.23.24.37.22.19-.18.23-.27.08-.16.44,0,0,.46-.14.62.37.45.37.45H251l.32-.3a.64.64,0,0,0,.54-.15c.18-.22-.15-.22-.25-.27a7.28,7.28,0,0,1-.59-.78s-.23-.35-.5-.7-.28,0-.55,0-.19-.07-.19-.23.23-.35.6-.45.41-.06.59-.17-.08-.32-.32-.49-.39.17-.62.12-.14-.3-.35-.36-.24.24-.41.24-.44-.41-.53-.49S248.82,195.54,248.82,195.54Zm-1.33-.91c-.21.12-.62.21-.44.31s.25.18.44,0a.47.47,0,0,0,.2-.33Zm11.68,5h-.25l.35.23.16-.11A.37.37,0,0,0,259.17,199.6Zm-12.79-9.3c0-.13-.35-.41-.35-.41s-.19-.08-.19.21v.47c0,.18-.29.35-.16.47s.22.16.33.1.24-.35.47-.25.27,0,.39.15a.68.68,0,0,1,.25.37c.1.25.65.57.65.57s.68,0,.68-.26,0-.87-.19-.95a.53.53,0,0,0-.57,0c-.21.14-.43.28-.64.18S246.36,190.55,246.38,190.3Zm-5.86-1.91c-.07.14-.63.14-.63.14s-.31-.24-.33,0a4,4,0,0,0,.1.8,2.66,2.66,0,0,1,.62.4c.12.16.12.49.33.45s.3-.13.33-.32-.23-.53.14-.46.24.26.55.33.45,0,.45-.13-.37-.41-.57-.51-.35-.12-.31-.35.06-.47-.1-.53S240.59,188.21,240.52,188.39Zm-.1,2.54c0,.15-.33-.36-.33-.36a.79.79,0,0,0-.22.82c.16.53.28.7.49.59s.08-.35.35-.28.12.26.39.14a.51.51,0,0,0,.29-.41.91.91,0,0,0-.39-.29.82.82,0,0,1-.39-.39A.22.22,0,0,0,240.42,190.93Zm.66,1.34c-.07.06-.26.29-.26.29s-.46.57,0,.45.42-.21.57-.19.24.18.35.21.34-.16.34-.16l-.24-.35-.25-.06S241.23,192.15,241.08,192.27Zm5.21-5.83c0-.14-.6-.55-.64-.55s-.08.28-.08.28.44.52.56.5S246.29,186.44,246.29,186.44Zm.66.6s-.35.08-.23.26.13.39.33.29.31-.31.23-.41A.68.68,0,0,0,247,187Zm5.09-3.93c-.43,0-.26.09-.3.33s.14.21.32.34.29,0,.46.13.2.21.14.31a2.69,2.69,0,0,0-.14.47.52.52,0,0,0,.43-.24c.2-.25.33-.27.33-.27h.49a.79.79,0,0,1,.28-.2c.15,0,.21.08.4,0s0-.21-.19-.35a1.47,1.47,0,0,1-.33-.33c-.1-.13-.24-.33-.41-.32a.41.41,0,0,0-.27.11,1.74,1.74,0,0,1-.57-.22A.87.87,0,0,1,252,183.11Zm-13.75-5.91c-.17,0-.46,0-.56.18a1.51,1.51,0,0,0-.16.39l.47.31s.31.25.25.48a1.15,1.15,0,0,1-.35.49s.2.18,0,.29-.13.36-.37.28a.88.88,0,0,1-.37-.26s-.15,0-.15.27a.73.73,0,0,0,.21.51l.18.61a1.51,1.51,0,0,0,.09.6c.12.24-.06.39.28.47a.68.68,0,0,0,.6-.23,3,3,0,0,0-.19-.69c-.14-.27-.34-.39-.22-.64s0-.29.31-.53a3,3,0,0,0,.47-.42.28.28,0,0,0,.31-.3,5.39,5.39,0,0,0,0-.62l-.29-.55Zm1.89,1.52a1.48,1.48,0,0,0-.21.33.42.42,0,0,0-.49.47H240a1,1,0,0,0,.45-.29.45.45,0,0,0,0-.43C240.36,178.72,240.18,178.72,240.18,178.72Zm-5,1.38a3.42,3.42,0,0,1-.57-.09s-.39-.06-.43.09a.36.36,0,0,0,.16.39l.33.18h.51s.13.33.37.37.62.06.46-.17-.29-.19-.27-.34.1-.29.12-.44-.22-.32-.31-.2A1,1,0,0,1,235.16,180.1Zm.21,2.31a1.53,1.53,0,0,0-.55-.28l.1.28Zm-12.09-3s-.37.45-.5.63-.41.23-.63.56a6.62,6.62,0,0,1-.86.9,5.74,5.74,0,0,0-.85,1.05,4.54,4.54,0,0,0-.32,1.23c0,.27.22.47.41.41a1.59,1.59,0,0,0,.49-.27c.2-.14.74-.35.8-.24s.12.31.35.3a1.31,1.31,0,0,0,.76-.26,1.29,1.29,0,0,1,.78-.25c.2,0,.26.23.43-.16s.23-.93.59-1.15a4,4,0,0,1,1.32-.7,11.46,11.46,0,0,0,1.85-.16,3.81,3.81,0,0,0,1-.58l.8-.55s0-.52.35-.52.72.4,1.13-.1.37-1.11.8-1.5a6.64,6.64,0,0,0,1.07-1.21c.1-.21.06-.45.14-.6a3.45,3.45,0,0,1,.33-.45c.09-.16.23-.33,0-.28s-.47.39-.57.43-.33,0-.5,0a1.12,1.12,0,0,0-.61.26c-.27.17-.33.23-.64.19s-.59-.15-.84,0a13.67,13.67,0,0,0-1.35,1.11,14.42,14.42,0,0,0-1.24,1.29c-.43.55-1,.91-1.41.8s-1.23-.23-1.62-.31-.68.21-.68-.09-.09-.85-.17-.83a.22.22,0,0,0-.2.22c0,.17,0,.44,0,.52S223.28,179.38,223.28,179.38Zm20.43-8.87c-.13,0-.66,0-.66,0l-.72.43a2,2,0,0,0-.66.35,2.53,2.53,0,0,0-.34,1c0,.1-.19.06-.33.31s-.11.37-.21.49a.41.41,0,0,0,0,.45,1,1,0,0,1,.23.42c0,.22.2.22.24.34s0,.7.07.72.82-.14.89-.43,0-.59.32-.7a9,9,0,0,1,1.72-.24,2.36,2.36,0,0,1,1.19.28c.27.21.33.5.68.58s.53,0,.68.35.18.78.31,1,.41.37.45.7-.17.58.2.7.68-.19,1-.31.94,0,1.07-.1a1.16,1.16,0,0,0,.32-.78c0-.39-.08-.7.27-1a4.64,4.64,0,0,1,1.4-.88c.7-.27,1.19-.7,1.56-.7a3.22,3.22,0,0,0,1.21-.08,1.48,1.48,0,0,0,.6-.31l.53-.28s-.08-.11-.54-.17-.61,0-.78-.25a1.07,1.07,0,0,1-.08-.71l.72-.5.45-.43a2.43,2.43,0,0,0-.74,0,1.78,1.78,0,0,1-.76-.1,7.56,7.56,0,0,0-.78-.6c-.08,0-.3-.35-.32.19s-.09.53-.21.57-.12.06-.35-.06-.72-.57-.78-.57-.22.06-.12.28.37.37.67.62.77.64.72.76-.57.66-.92.37-1.73-1.21-2.11-1.62-.48-.8-.79-.86a10.63,10.63,0,0,0-1.27,0,5.94,5.94,0,0,1-.68.2,2.13,2.13,0,0,1-1.08-.08,5.84,5.84,0,0,0-1.05-.25ZM213.42,140c-.25.17-.22.81-.14,1.24a29.22,29.22,0,0,0,1.82,2.71c.25.49.56.41,1,.41a1.13,1.13,0,0,1,1,.39c.2.3.61,1.27.86,1.7s.49.1.74.39a1.82,1.82,0,0,1,.43,1.11c0,.33,0,.53,0,.68s-.08,1.09-.27,1.25-.08.7-.06,1.07-.16.39-.29.59a.73.73,0,0,1-.61.27c-.23,0-.09-.2-.25-.21s-.1.21-.41.17-.12-.31-.35-.47-.82,1.29-.82,1.29a1.62,1.62,0,0,1-.58.49c-.3.09-.49.58-.49.58s.1.53.33.63.49.21.49.39.13.72.37.81.29-.29.52-.23a.58.58,0,0,1,.39.53c0,.21.16.37.55.43s.47-.28.72,0,.62.87.88,1.13a2.21,2.21,0,0,0,.91.54c.36.12,0-.47.06-.88a2.37,2.37,0,0,1,.57-1.22,2.69,2.69,0,0,1,1.42-.71c.61-.19.51-.37.61-.64a15.79,15.79,0,0,0,0-2c0-.42.25-.35.35-.72s.56-.64.93-.95.22-.68.14-1-.21-.27-.49-.48,0-.53-.11-.86a5.65,5.65,0,0,0-.2-.88.8.8,0,0,1,.31-.93v-1.06a3.11,3.11,0,0,0-.41-1.46c-.25-.37-.45-.29-.7-.55s-.15-.56,0-.95.35-.23.59-.43.19-.58.23-1.07a1.23,1.23,0,0,0-.29-1c-.18-.1,0,.15,0,.44s-.26.26-.43.33-.47-.15-.47-.15a.74.74,0,0,1-.41-.14,1.24,1.24,0,0,1-.45-.48c-.17-.32-.17-.3-.39-.41s-.29-.39-.42-.71-.36-.17-.63-.11a1.52,1.52,0,0,1-.74.11c-.31-.07-.45-.29-.78-.41s-.78.39-.78.39-.53.24-.9.37-.35,0-1-.17A8.59,8.59,0,0,0,213.42,140Zm-9.34-.39c-.16.09-.51-.16-.72-.1s.27.47.55.64a3,3,0,0,1,.76.74c.15.26.07.41.05.76s-.39.24-.46.51.31.41.52.43.33-.55.57-.53.21.59.37.61.41-.43.41-.72-.29-.75-.29-1,.72-.76.66-1.17a1,1,0,0,0-.7-.88c-.45-.17-.26.24-.59.2s-.28-.26-.7-.41C204.35,138.54,204.24,139.46,204.08,139.56Zm-1.56,2.28c-.1,0-.66.35-.53.46a.8.8,0,0,0,.43.12Zm23.9-.65A3.85,3.85,0,0,1,226,141l.24.45s.45.35.64.35h.43l.33-.29Zm4.6,2.58-.47.33s-.07.39.06.54a1.19,1.19,0,0,0,.41.26l.1-.47.39-.31S231.22,143.65,231,143.77Zm-62.24-17.86a3.56,3.56,0,0,0-.92-.29l-.86.78a1.5,1.5,0,0,0,.39.6c.28.24.55.27.39.74s-.39.47-.49.67-.09.48-.19.64-.25.39-.21.49,0,0,.42,0,.53-.06.67.21.08.57.31.59.27-.1.49-.2a1.33,1.33,0,0,1,1.24.06c.53.31.74.21.94.78s.41.62.18,1-.22.39-.39.43-.36-.15-.55-.13-.39,0-.39.31.08.54.31.56.35-.13.53.16.17.6.35.39-.1-.55.12-.82.64-.82.93-.47a1.55,1.55,0,0,1,.37.88c0,.21-.15.35,0,.41a1.06,1.06,0,0,0,.49,0s.21-.45.43-.33-.06.35.35.35.93-.06.93-.37a1.5,1.5,0,0,0-.17-.62,1.64,1.64,0,0,0,.31-.63.55.55,0,0,0-.39-.6,8.42,8.42,0,0,1-1.69-1.17,3.53,3.53,0,0,0-1.23-.58c-.37-.16-.8-.07-.8-.42s.19-.5.17-.7-.09-.23-.21-.52a1.27,1.27,0,0,1-.08-.8c.06-.26.25-.41-.08-.43s-.84-.08-.84-.08Zm-.55,5.54a1.81,1.81,0,0,0-.21.52l.39.22S168.48,131.23,168.23,131.45Zm-2.12,0v.24l.35-.06S166.3,131.21,166.11,131.42Zm-3.08-.95s-.06,0-.08,0a.28.28,0,0,0-.28,0l.18.29S163.12,130.9,163,130.47Zm-8.29-9.53a1.49,1.49,0,0,0,.27-.47l-.27.12s-.19.33-.19.35.13,0,.13,0Zm-16.51-4a2.81,2.81,0,0,0,.62.92c.22.23.59.53.74.68s1.5,1.11,1.5,1.11a.46.46,0,0,1,0,.31c-.05.12-.21.22-.33.39s0,.43-.08.6-.29.2-.29.42,1,.21,1.41.23.19-.35.64-.35.93.64,1.23.49a1.29,1.29,0,0,0,.56-.55c.1-.19.55-.11.55-.11a1.08,1.08,0,0,0,.29-.61c0-.37.29-.39.29-.54s-.19-.16-.37-.34-.52-.09-.74,0-.23.36-.37.36a1.19,1.19,0,0,1-.7-.41c-.27-.3-.14-.41-.29-.59s-.45-.14-1-.19-1.38-.24-1.75-.32-.61-.81-.61-.81l-.09-.71a1,1,0,0,1-.51-.44c-.14-.32.09-.55-.31-.57S138.21,116.73,138.23,116.94Zm-3.88.12a3.71,3.71,0,0,0-.39.88s-.08.23-.47.31a8.53,8.53,0,0,1-1.21.08,1.46,1.46,0,0,0-.09.62c.05.2.33.22.58.22s.25-.08.47,0,.47.44.7.76.23.11.45,0,0-.34.1-.63.27-.37.5-.68.45,0,.65,0,.46-.31.46-.31l-.13-1-.39-.22a1.73,1.73,0,0,0-.59-.41C134.66,116.51,134.51,116.9,134.35,117.06Zm15-3.24a4.49,4.49,0,0,0-.25.8c-.06.35-.18,1-.18,1l-.84,1.48-.17.56.25.32a.86.86,0,0,1-.21.42c-.18.18-.26.26-1.06.61s0,.29.1.33a5,5,0,0,0,1.11-.23,2.71,2.71,0,0,0,1-1c.25-.41.09-.41.25-.7a16,16,0,0,1,.68-1.48,15.56,15.56,0,0,0,.86-1.44c.23-.49-.06-.33-.25-.39s-.55.15-.74.11-.12-.41-.22-.62S149.32,113.82,149.32,113.82Zm1.72,3a.2.2,0,0,0-.28.21,2,2,0,0,1-.13.64l-.45.3.31.39s.25.11.55-.22.15-.1.29-.33S151.25,116.76,151,116.79Zm1.69-5.81v.54l.45.06a.72.72,0,0,0,.55,0c.37-.12.13-.15.25-.41a2.5,2.5,0,0,0,.29-.86c0-.23-.31,0-.31,0a.61.61,0,0,1-.51.13c-.25-.08,0-.51-.27-.54S152.73,111,152.73,111Zm.94,1.17c0,.06-.27.06-.39.17a.66.66,0,0,1-.39.12l.39.27h.39l.41-.28S153.77,112,153.67,112.15Zm3.55-4.23a5.53,5.53,0,0,1-.65.29.49.49,0,0,0-.25.35c0,.23-.25.58,0,.64s.39.1.56,0a.54.54,0,0,0,.34-.43A4.59,4.59,0,0,0,157.22,107.92ZM122.3,119s-.39,0-.43.14-.25.45,0,.48.18-.09.43-.19a2.28,2.28,0,0,0,.41-.2Zm.88.47c-.06,0-.2.39-.2.39l-.46.24s-.47.15-.59.38a.88.88,0,0,0-.1.68c0,.41,0,.65.26.69a1.82,1.82,0,0,0,.76-.16l.52-.37s.3-.16,0-.19a1.47,1.47,0,0,1-.41-.1l.37-.27.3-.38v-.28l-.35-.32C123.22,119.69,123.51,119.46,123.18,119.42Zm59.07-18.7c-.14.2.21.59.21.59l.24.66a4.44,4.44,0,0,1-.3.68.62.62,0,0,0,.12.67c.1.15.39-.08.68-.34s.26-.31.49-.46.51-.06.76-.2.08-.25.21-.54.39-.35.37-.73-.17-.19-.37-.42a5.5,5.5,0,0,0-.54-.53c-.29-.29-.29-.1-.45-.12s-.14-.06-.6-.29C182.79,99.55,182.38,100.53,182.25,100.72Zm1.46-18.4.45.59s.25.25.21.44a1.84,1.84,0,0,0,.14.69c.06.23.35.27.64.31a.56.56,0,0,1,.43.21c.12.12.06.26-.1.51s-.33.27-.33.47a.36.36,0,0,0,.16.29l-.14.33c-.06.14.06.35,0,.45a1.49,1.49,0,0,0-.06.84.66.66,0,0,1-.13.48l-.12.43.39-.17.59,0a1.84,1.84,0,0,0,.58-.1c.25-.1.18-.21.39-.47s.41,0,.57,0,.62.16.62.16a.83.83,0,0,0,.45-.31c.13-.24.56,0,.68.15s0,.32-.14.45a3.81,3.81,0,0,0-.39.51l-.17.54-.29.34,0,.27.89,0,.57,0a.8.8,0,0,1,.54.25c.18.16.59.08,1,0s.06-.17,0-.41-.25-.29-.45-.54-.06-.1-.21-.57-.26-.23-.35-.25a.71.71,0,0,1-.36-.41c-.07-.22,0-.33,0-.55s.18-.15.59-.41.66-.37.66-.37l-.31-.29A3.11,3.11,0,0,1,190,86c-.3-.14-.16-.39-.1-.69s.31-.35.64-.6a2.44,2.44,0,0,1,1.06-.49,1.2,1.2,0,0,1,.89.8c0,.33-.11.41-.25.86a1.72,1.72,0,0,1-.24.56l-.58.34c-.19.11,0,.41.14.6s.41,0,.58.06a1.4,1.4,0,0,1,.59,1,2.13,2.13,0,0,0,.13.71c.1.21.8.29.8.29a3.54,3.54,0,0,1,.63.27,3.54,3.54,0,0,0,.89.41c.29.08.12-.18,0-.41s0-.35.2-.54.23-.22.21-.28-.25-.31-.31-.43-.33-.15-.51-.29a3.72,3.72,0,0,1-.47-.82c-.19-.35.41-.62.45-.8a.7.7,0,0,0-.23-.7c-.27-.25-.25-.27-.25-.56s.35-.41.42-.51.43-.61.55-.8-.23-.43,0-.75.41-.28.7-.3.31.13.31.13a1.48,1.48,0,0,0,.06-.74,1.69,1.69,0,0,1,.16-1c.15-.49.29-.2.64-.24s0-.6,0-.6a1.61,1.61,0,0,1-.25-.41.48.48,0,0,0-.64-.29c-.34.08-.26.21-.43.21s-.41-.21-.57-.21-.17.43-.17.6-.71.45-.71.45-.07.2,0,.27a.57.57,0,0,1,.14.28l-.12.35s-.06.29-.19.31-.2-.08-.57-.18-.15.22-.29.3a2.15,2.15,0,0,0-.53.84c-.15.39-.15.19-.6.19s-.12-.16-.1-.49a.65.65,0,0,0-.27-.6c-.18-.17-.25.08-.39-.18s-.06-.35-.2-.58-.37-.33-1.24-.49a.74.74,0,0,0-.9.75l-.72.21a2.16,2.16,0,0,1-.8-.12c-.31-.14-.27-.43-.45-.57s-.45.22-.45.22a3.16,3.16,0,0,1-.6.45A3.78,3.78,0,0,1,185,82a1.12,1.12,0,0,1-.63,0Zm12.83-21.13c.11.23,1,.37,1,.37l.84.45.47.62a2.6,2.6,0,0,0,.8.35c.31,0,.58.53.58.53a.89.89,0,0,0,.72.21c.49,0,.41-.21.7-.47a1.24,1.24,0,0,1,.9-.11s.45,0,.61-.24.19-.33.46-.33.43-.23.39-.52-.13-.18-.27-.34,0-.33,0-.74-.21-.25-.43-.42A.86.86,0,0,1,203,60c0-.22-.41-.07-.7,0s-.37-.09-.63-.26a1.75,1.75,0,0,0-.54-.28c-.26-.1-.47.08-.78.1a2,2,0,0,1-.74-.08c-.37-.07-.51.06-1,.26a3.55,3.55,0,0,0-1,.7,2.47,2.47,0,0,1-.94.14C195.91,60.51,196.42,61,196.54,61.19ZM168,50a.31.31,0,0,1-.45,0c-.16-.1-.23,0-.35.16a12.3,12.3,0,0,1-.61,1.11,5.46,5.46,0,0,0-.76,2,1.91,1.91,0,0,0,.34,1.23,1.77,1.77,0,0,1,.09.9c-.08.51.51.49.51.49s.37-.06.72-.14.68.16,1.15.53.41.31.7.37.86.74.86.74a.76.76,0,0,0,.64.17c.34-.1.43-.49.63-.7s.54-.16.84-.16.27-.17.58-.58.59-.12.94-.1.43-.41.35-.82a1.87,1.87,0,0,0-.31-.91,1.51,1.51,0,0,1-.26-.88,3.57,3.57,0,0,1,0-.8c0-.39.53-.66.53-.66a1.15,1.15,0,0,0-.2-.53c-.15-.17,0-.45.24-.62s-.14-.51-.53-.74-.37,0-.78-.18-.33-.21-.49-.51-.41-.17-.78,0-.46-.12-.72-.32-.85-.68-.85-.68l-.78.49a6,6,0,0,1-1.19.51S168.13,49.8,168,50Zm65.4,202.85-.62.42s.47.36.62.23S233.55,252.71,233.36,252.81Zm7.25,1.25a.87.87,0,0,0-.57.13s-.44.36,0,.36.57-.13.57-.13Zm12.92-3.25c-.08,0-.52-.15-.47.13s.11.53.37.34a3.64,3.64,0,0,1,.34-.22Zm-14.09-4.39-.36-.34,0,.65a.2.2,0,0,0,.31,0A.19.19,0,0,0,239.44,246.42Zm-.14-2.21a1,1,0,0,0-.61-.16l.21.55S239.45,244.29,239.3,244.21Zm-1.18-1.92c-.13,0-.42.41-.42.41l.65.21S238.61,242.36,238.12,242.29Zm8.76-11.86v.39a2.54,2.54,0,0,1,.1.7c0,.24.05.21.37.24a1.13,1.13,0,0,0,.83-.37c.15-.18-.11-.49-.18-.65s-.34-.1-.52-.31-.06-.41-.13-.54Zm2.65,2.06s-.26-.06-.24.18a.3.3,0,0,0,.24.26l.18-.23Zm1.43.21c-.11,0-.26-.19-.29,0a.2.2,0,0,0,.15.23Zm-.6.8a2.52,2.52,0,0,0-.52.42s-.05.39.26.15.13,0,.31-.23S250.36,233.5,250.36,233.5Zm-10-9.36s-.5.16-.5.31a1,1,0,0,0,.13.39Zm-1.25-.44-.39.13s-.13.44.19.31S239.37,223.93,239.08,223.7Zm-5.54-1.95a.16.16,0,0,0-.12,0c-.1,0-.14.18-.29.29s-.34-.28-.42,0-.34.45,0,.47.68,0,.7.21.16.26.13.36-.1.21-.28.37-.77.31-.22.46.58,0,.76.21a1.58,1.58,0,0,1,.37.7c.08.26,0,.5.39.5s.36-.39.72-.21.94.62,1.17.36.24-.85,0-1-.54-.35-.41-.56.34-.36.41-.57.19-.62.55-.49.36,0,.65,0,.81-.39,1-.44.72.21.57.34.14.26.27.1.46-.1.15-.52-.93-.66-1.17-1.12-.6-1-.86-1.06-.62-.29-.75,0-.1.36.13.44.57.15.62.35-.18.27-.18.27l.21.53s-.29.65-.47.52-.39-.42-.54-.21-.48.74-.48.74-.28-.21-.43,0-.26.5-.39.24-.18-.57-.31-.64a3.17,3.17,0,0,0-.84-.19C233.93,222.17,233.54,221.75,233.54,221.75Zm-1.95,1.53h-.72l.18.42h.44Zm-3.58,0c-.17.17,0,.42,0,.42s-.31.08-.31.23.41.08.46.24,0,.34.18.52.42.1.42,0v-1S228.24,223.05,228,223.28Zm-11.67-9.07c-.08,0-.39.08-.47.24a2.21,2.21,0,0,1-.34.39s-.08.28-.23.36-.26,0-.26.24.15.39.49.36a6.1,6.1,0,0,1,1.17-.21c.6,0,.83.13,1.12-.08s.23-.36.6-.5a8.55,8.55,0,0,0,1.06-.67,3,3,0,0,0,.91-.72c.34-.39.75-1,.75-1l.37-1.43a4.15,4.15,0,0,0,.78-.31c.26-.15.86-.7,1.19-.75s.47-.13.76,0,.39.26.78.13.6-.31.6-.42-.19-.31-.68-.36-.49.1-.75-.16a4.14,4.14,0,0,1-.6-.91c-.11-.18-.34-.36-.47-.33a.57.57,0,0,0-.44.15,1.22,1.22,0,0,1-.65.18l-.76.26s-.54.11.13.24l.68.13s.18.46-.13.59a6.61,6.61,0,0,0-1.25.6.57.57,0,0,1-.37.18,3.93,3.93,0,0,0-.67.55c-.15.21-.2.18-.52.34a7.38,7.38,0,0,0-1,.78L218,213a1.31,1.31,0,0,0,.39.31c.16,0,.39.23.21.34s-.73.47-1,.62-.6.42-.73.34S216.34,214.21,216.34,214.21Zm-3,6.58h-.46l.46.55a.49.49,0,0,0,.19-.16C213.61,221.08,213.63,220.79,213.37,220.79Zm15.34-12.69c-.05.09-.13.37,0,.42a1.24,1.24,0,0,0,.44,0l.1-.42S228.79,208,228.71,208.1Zm3.27-2.65-.26.13s-.46-.26-.46,0,.36.54.36.54a2.92,2.92,0,0,0,.6-.34A.21.21,0,0,0,232,205.45Zm2.55-.54c-.15,0-.41,0-.44.13s.31.23.31.23Zm2-1c-.08,0,.21.24.49.45s0,0-.18.15.08.11.31.18.5-.26.65-.41a.58.58,0,0,1,.55-.18c.23,0,.13-.06.13-.06s.36.13.47,0,.23,0,.49-.2,0-.21-.29-.24a.89.89,0,0,1-.54-.13c-.21-.13-.26-.31-.42-.36s-.15.52-.15.52h-.24s-.34.12-.65.21C237,203.86,236.64,203.87,236.56,203.89Zm-26.25,6.68c0,.11-.06.19-.19.38s-.36,0-.36,0l-.26.38.31.18.5-.26.33.42a.63.63,0,0,0,.52,0c.26-.13.21-.26.37-.26a.44.44,0,0,0,.28-.16l-.52-.55-.46-.23s-.24-.31-.52-.29Zm-2.14-.83a.77.77,0,0,1-.31.31l-.31.13s-.13.26.1.29.29,0,.37-.16a1.18,1.18,0,0,1,.15-.2ZM206.36,211c-.11,0-.39-.19-.55,0s-.31.46-.21.59a.73.73,0,0,1,.21.41.75.75,0,0,0,.68.47c.23,0,.2-.08.31-.29s-.21-.34-.24-.49a2.12,2.12,0,0,0-.13-.42Zm-2.08,2c-.06-.13-.5-.26-.5-.26a2.33,2.33,0,0,1-.49.44c-.24.13-.47.11-.55.21s-.6.13-.28.42.49.28.72.21a1.5,1.5,0,0,1,.52-.13c.55-.11.68-.06.68-.34A1.73,1.73,0,0,0,204.28,213Zm-6,3c-.31.08-.1.55-.1.78s-.1.18-.34.42-.15.36-.28.54.1.18.11.21.12.39,0,.57.26.55.26.55a8.6,8.6,0,0,1,.83-.34c.39-.13.36.29.36.49a3.37,3.37,0,0,0,.13.65,2,2,0,0,1,.55.39c.2.24.13.26.28.55s.34.34.44.55a1.27,1.27,0,0,1,.08.57.49.49,0,0,0,.52,0,.79.79,0,0,0,.24-.57,2.81,2.81,0,0,0,.57.2c.26.06.21-.13.37-.65s-.29-.57-.29-.57a1.36,1.36,0,0,1-.19-.6c0-.23.52-.36.81-.46s.39-.08.31-.37-.64-.39-.64-.39h-.53s-.1-.28-.18-.57-.42-.21-.62-.29-.29,0-.65-.18-.32-.1-.43-.26-.14-.34,0-.75-.45-.65-.45-.65a1,1,0,0,1-.67.18A.83.83,0,0,0,198.32,216Zm-5.56,3.41a1.73,1.73,0,0,1-.65.33s-.31.24-.26.52a.91.91,0,0,1-.1.55l-.73.55s-.34.78,0,.88.44,0,.68-.23a1.31,1.31,0,0,1,.65-.39c.36-.16.62-.13.75-.26s.34-.07.34-.52-.34-.52,0-.68.72-.7,1-.75a.9.9,0,0,0,.52-.34c0-.11,0-.1-.29-.16s-.39-.15-.67,0a4,4,0,0,0-.58.39A1.51,1.51,0,0,1,192.76,219.39Zm-4.13,3.38-.47.28.47.1L189,223Zm1.06.57c-.13.07-.28.2-.28.31s.28.15.28.15l.42-.31ZM182.91,222c-.08.07-.39.65,0,.78s.44-.08,1,.19.57.22.81.61.36.6.62.73.68.28.81.1.15-.21,0-.49-.42-.26-.39-.57.18-.68,0-.68a3.39,3.39,0,0,0-.62.11h-.6Zm4.26,1.35-.23.23.41.23Zm27.29-23-.05.05c-.06.11-.13.28-.13.28l.18.5s-.33.34,0,.39.37.1.58,0,.33-.19.41.06,0,.3.31.38.5.13.63,0a.4.4,0,0,0,0-.62c-.26-.24-.63-.37-.55-.68s.34-.57.34-.78.08-.57-.16-.36.16.2-.33.59-.65.39-.65.39Zm-5,8a2,2,0,0,0-.55,0c-.07.05-.13.44-.13.44a2.12,2.12,0,0,0,.58,0C209.58,208.81,209.5,208.42,209.5,208.42Zm-8.11-6.29c-.1.05,0,.39,0,.49a1,1,0,0,1,0,.36s-.5.26-.63,0-.2-.48-.33-.37a.83.83,0,0,0-.21.61c0,.26.08.44.23.44a.47.47,0,0,1,.38.16c.14.13.17.39.3.52s.22-.08.32.28.16.6,0,.78-.4.39-.14.6.78.49.73.7-.42.6-.18.81.65.15.75.36a4.33,4.33,0,0,1,.23.89,2.86,2.86,0,0,1-.15.41c-.08.23-.18.91.31.81a2,2,0,0,0,1-.52c.21-.21.15-.08.44-.24a1,1,0,0,0,.39-.58,3.57,3.57,0,0,1,1-.25,2.07,2.07,0,0,0,1.41-.67c.2-.32.65-1.36.65-1.36l.18-1.53s-.47-.49,0-.7.91-.39.8-.6a9.24,9.24,0,0,1-.65-1.12c0-.21.16-.31.16-.59a6.71,6.71,0,0,0-.16-1s-.41-.3-.44-.58a4.56,4.56,0,0,0-.47-1.25c-.13-.21-.41-.47-.57-.68s-.46-1-.65-1-.62.78-.75.91a1.8,1.8,0,0,1-.6.37c-.41.21-.88.65-.93.92a1.71,1.71,0,0,0,0,.9c.11.23.13.49-.21.54s-.33-.15-.75.08-.81.52-.81.52Zm-8.37-.24c-.26.21-.7.44-.7.65s.29.37.35.55a1.5,1.5,0,0,1,0,.7c0,.13-.14,0-.35,0s-.55-.1-.73.29a3.1,3.1,0,0,0-.34.88c0,.18.13.39,0,.52s-.44.29-.39.65a1.34,1.34,0,0,0,.63,1c.34.13,0-.24.7,0l.73.23.33.42s1.28.26,1.41,0-.11-.31.23-.52.21-.21.52-.26a1,1,0,0,0,.7-.52c.19-.29.45-.57.6-.78a.51.51,0,0,0,0-.5s-.28-.2-.18-.41.25-.47.25-.47.2-.08,0-.23-.43-.28-.38-.41a1.49,1.49,0,0,1,.23-.56c.24-.39.16-.54.42-.59a1.36,1.36,0,0,0,.51-.29v-.52s.45-.71.14-.87-.39-.27-.65-.14a1.7,1.7,0,0,0-.49.44s.26.42.15.57a.72.72,0,0,1-.52.42c-.34.07-.39.18-.65.13s-.62-.21-.57-.37.36-.36.36-.36.32-.39.21-.57-.18-.32-.41-.12-.52.3-.65.56-.16.36-.47.39a2.58,2.58,0,0,1-.63,0Zm-3,3.17c-.1,0-.21.42-.21.42l-.39.57s-.68.55-.75.86-.24.47-.11.7a.49.49,0,0,0,.31.27l.4.12v.73l.75.83s.47-.05.39-.31-.24-.18-.37-.61-.33-.35-.26-.87a8.82,8.82,0,0,1,.21-1.07C190.14,206.31,190.5,205.19,190.06,205.06Zm-2.84,4.16-.26.34.19.55.67.07a4.78,4.78,0,0,0,.73-.33c.24-.16,0-.34-.13-.55s-.62,0-.62,0-.32-.43-.42-.42C187,208.93,187.22,209.22,187.22,209.22Zm-1,1.43c-.08-.05-.39-.41-.5,0s-.44.34-.1.42a1.25,1.25,0,0,0,.6,0Zm-9.65-4.73c-.1.05-.41.34-.23.55s.36.15.52.49a4.06,4.06,0,0,1,.26,1.22c0,.21.05.08.16.37a4.35,4.35,0,0,1,.1,1s.18,0,.39.46a4.79,4.79,0,0,0,.52,1c.21.26.62.11.62.11l.24-.92h.52a1.34,1.34,0,0,0,.39-.44.72.72,0,0,0,0-.75c-.13-.29-.37-.34-.47-.68s-.05-.54-.44-.88a2.69,2.69,0,0,0-.7-.52c-.26-.13-.63-.16-.78-.23S176.59,205.92,176.59,205.92Zm-3.3,9.49a7.41,7.41,0,0,1-.75.67c-.47.42.26.42.26.42a2,2,0,0,1,.44.36c.1.16.16.45.29.71s.57-.24.62-.68.23-.57.29-.86a.49.49,0,0,1,.33-.36l-.31-.49a1.76,1.76,0,0,1-.54,0c-.24-.06-.29-.37-.39-.37A1.6,1.6,0,0,1,173.29,215.41Zm2.76,1.92h-.37l.21.63a2.66,2.66,0,0,0,.41.52s.63,0,.66-.24a.41.41,0,0,0-.16-.34l-.48-.26Zm-6.76,2.42a1.23,1.23,0,0,0,.65.34,1.17,1.17,0,0,1,.7.63c.13.29,0,.2-.13.33a1.65,1.65,0,0,1-1.19.08A10.09,10.09,0,0,0,168,221c-.31-.11-.15-.32-.28-.58a4.18,4.18,0,0,0-1-.78l-.26.45-.33.5-.21.72s.36.36.34.52-.6.48-.6.48v.7s.21.35.47.28.2-.16.41-.28.29-.22,1.17-.19a3.21,3.21,0,0,0,1.48-.26,1.09,1.09,0,0,0,.68-.52,1,1,0,0,1,.7-.11c.44.08.63.26,1,.11a7.48,7.48,0,0,0,1.41-.6c.26-.24,0-1.07,0-1.07l-.32-.73s-.05-.75-.31-.88-.13.23-.52.57-.57.16-1,.16a1.22,1.22,0,0,1-1.17-.63c-.44-.57-.54-.68-.73-.62C168,218.5,169.13,219.57,169.29,219.75Zm-6.47-2.86c-.24,0-.68-.23-.78,0a1.64,1.64,0,0,0,0,.75h.57ZM162,228c-.11,0-.63.39-.63.39l.13.37s.38,0,.5-.26S162.21,228.15,162,228Zm8.57-28.64-.59-.13-.26.47-.26.31a1,1,0,0,1-.42.31c-.21,0-.36.49-.36.49s-.06.42-.11.65-.15.13-.5.42.32.21.48.34-.19.31-.19.31a.66.66,0,0,0-.28.57c.05.34.26.13.57,0s.34-.42.7-.45.47.71.47.71a1.75,1.75,0,0,1,.55-.32c.31-.1.18.73.18.73l.6.18a3.11,3.11,0,0,0,.52-.83c.18-.47-.19-.7-.19-1s.94.24.94.24a.51.51,0,0,0,.6-.18c.31-.34.07-.44-.19-.73a1.22,1.22,0,0,1-.36-.89c0-.42.16-.28.13-.59s-.23-.39-.49-.57a1.65,1.65,0,0,0-.89-.2h-.07Zm24-9.67c-.1.1-.6,0-.6,0a.93.93,0,0,0,0,.39c.05.15.6.28.6.39s.18.21.26.21.23-.19.23-.19.24-.65.16-.8a.91.91,0,0,0-.29-.29Zm.67,1.25-.12.46-.32.24s.23.26.38.13a1.37,1.37,0,0,0,.25-.4S195.39,190.92,195.25,191Zm2.74-4.5c-.13.23.1.42.26.57s.33.26.49.42.1.59.1.59a1.42,1.42,0,0,1-.33.47c-.19.13-.29.05-.52,0s-.29,0-.21.26.26.16.47.34-.08.31,0,.55.36-.08.49-.39.16-.39.23-.45.5.52.76.6.28-.08.33-.18.47-.16.84-.29a.94.94,0,0,0,.54-.49c.08-.13.29-.16.55-.16a1.2,1.2,0,0,0,.86-.33c.26-.26,0-.44,0-.6s-.52-.26-.52-.26l-.5.26a1.2,1.2,0,0,0-.54-.13c-.32,0-.37-.13-.5-.31a1.36,1.36,0,0,0-.62-.47c-.21,0-.31.68-.31.68l-.18.23-.63-.31,0-.42,0-.47s-.5-.18-.8-.26C197.6,185.76,198.12,186.25,198,186.48Zm-14.79-.7a1.41,1.41,0,0,0,0,.6l.57.46-.13.84-.18.67v1.09l-.63.86s-.26,1-.26,1.11-.08.19.18.16a.7.7,0,0,1,.71.27.68.68,0,0,1,.13.64c-.08.11-.5.24-.11.26s.6.08.76-.13,0-.65.44-.65.47.16.75.11.42,0,.49-.23.19-.69.24-.87-.16-.49-.34-.89-.49-.43-.28-.92.46-.6.13-1.1-.65-.72-.65-1,.15-.31-.34-.54a4,4,0,0,1-.86-.44A3.13,3.13,0,0,0,183.2,185.78Zm3-5.88c.06.24.35.34.56.5a7.85,7.85,0,0,1,.83.65,3.29,3.29,0,0,0,.86.54c.42.21.49.6.75,1s.63.39,1.07.58.18.23.13.44-.05.41.1.52.42-.08.62-.26.37.08.61.18a6,6,0,0,0,1,.42c.47.13.44,0,.93,0a18,18,0,0,1,1.8.31c.6.1.49-.23.39-.44s-.57-.29-.89-.68-.07-.41-.13-.75.71-.31,1-.94.18-.54-.18-.7-.45,0-.84-.18-.26-.26-.85-.49-1,.13-1.59.13-.34-.08-.47-.29-.91-.21-1.14-.21-.52.37-.7.37a1.71,1.71,0,0,1-.91-.94c-.05-.36.18-.34.21-.65s-.55-.1-1.28-.16-.67.19-.67.55,0,.23-.47.26-.57-.37-.77-.52S186.11,179.67,186.17,179.9Zm-8.63,2.58-.37.28a2.87,2.87,0,0,0-.71.39c-.07.13.26.16.63.18s.36-.05.57-.18.29.11.49.31.48-.2.48-.2l-.24-.55s.05.18.21-.47-.19-.52-.45-.54Zm-9.81,5.38,0,.67,0,.6-.62.31.08.39.39.25.18.19-.11.7.29.44a1.2,1.2,0,0,1-.08.61,2,2,0,0,1-.36.52c-.21.26-.13.39-.16.57a2.78,2.78,0,0,1-.39.73c-.21.36.26.33.26.33l.6-.15a1.1,1.1,0,0,0,.57-.29,5.63,5.63,0,0,0,.55-1,2.34,2.34,0,0,0,.23-.93c0-.25,0-.21.16-.43s.34-.33.49-.44.44,0,.63-.12-.08-.34-.21-.77-.21-.35-.37-.64-.23-.18-.49-.41a.89.89,0,0,0-.44-.26s-.26-.19-.26-.37a3.87,3.87,0,0,1,.26-.78s0-.64-.13-.62C168.35,187.1,167.73,187.86,167.73,187.86Zm-4.44-5.62a1.55,1.55,0,0,1-.24.89c-.18.28-.31.26-.49.54s.23.37.47.55a.84.84,0,0,1,.33.59c.08.28-.13.34-.41.66s.13.44.31.67.23,0,.34-.18a2.78,2.78,0,0,1,.73-.88c.31-.24.31-.06.36-.27s.62-.64,1.12-1.09.59-.28.88-.52.23-.7.26-1.37.21-.45.36-.6.37-.21.37-.55-.26-.41-.47-.49a1,1,0,0,1-.6-.49c-.23-.36-.34-.06-.49,0s-.26.2-.42.28-.13,0-.23-.18a.63.63,0,0,0-.68,0c-.23.13-.41.73-.41.73l-.39.31a1,1,0,0,0-.63.26S163.29,181.9,163.29,182.24Zm-5-4.7H158a9.48,9.48,0,0,0-.15,1.09,7.62,7.62,0,0,1-.16,1.2c-.08.36-.41.67-.36.91s.34.15.34.15L158,180a2.32,2.32,0,0,1,.42-.65,1,1,0,0,0,.26-.57S158.55,177.54,158.27,177.54Zm-7.85,10.73c-.16,0,.13.34.31.52a5.82,5.82,0,0,1,.39.52c.21.26.42.21.65.26s.26.18.49.34.37-.13.32-.29-.26-.54-.26-.54l-.55-.39h-.65s-.34-.24-.54-.42Zm-17,9.13a6.05,6.05,0,0,1-.44.46c-.29.24-.16.16-.13.55s.18.08.18,0,.23-.29.44-.4.29-.07.55,0,.36,0,.67-.15a1.27,1.27,0,0,0,.52-.47,3.21,3.21,0,0,1,1-.68c.34-.13.94,0,1.17,0s.21-.42.26-1,.29-.19.7-.56a2.17,2.17,0,0,1,1.2-.36s.52-.31.49-.52-.28-.16-.62-.13a3.74,3.74,0,0,0-.86.25.75.75,0,0,1-.49,0c-.32-.08-.68.31-.68.31l-.7.47-.73.44-1.06.91-1.23.78Zm-3.51-.59a2.34,2.34,0,0,0,.78,0c.39-.08.52,0,.94,0s.28-.16.52-.31a1.72,1.72,0,0,0,.65-.76c.07-.28-.13-.26-.45-.21a1.27,1.27,0,0,0-.59.39l-.47.14-.65-.27a5,5,0,0,0-.73.54Zm-5.41,1.79-.26.12a3.59,3.59,0,0,0,0,.47c0,.1.19.1.26.36s-.2.55.16.65.44,0,.65.19.1.39.49.31a1.28,1.28,0,0,0,.65-.39l.37-.24-.18-.7-.71-.08-.52-.33A.84.84,0,0,0,124.5,198.6Zm51.7-30c-.28.29.16.37.52.37s.21-.19.34-.11.21.31.11.65-.45.5-.45.78.39.05.47.13,0,.31,0,.63a.37.37,0,0,0,.42.39,3.88,3.88,0,0,0,.7-.5l.39.44a4.07,4.07,0,0,0,1.09.42c.49.08.36.23.36.47a9,9,0,0,0-.28,1.14c0,.44.39.18.65.08a1.13,1.13,0,0,1,.83-.1c.31.1.26.46.16.85s.39.65.54.83.57.11.83.34a1,1,0,0,1,.11,1c-.13.42.18.5.49.65a3.24,3.24,0,0,1,1,.73c.29.34.81.57.94.42s-.16-.94-.13-1.12.36-.37.64-.57.13-.47.18-.71.63-.41.55-.65-.7-.07-1.32-.13-.76-.28-.76-.49.29-.18.52-.29.19-.28.19-.44.52-.36.67-.59-.36-.26-.86-.39-.52-.26-.7-.68.37-.75.52-1a2.35,2.35,0,0,0,.37-.86c.07-.39-.24-.37-.6-.34s-1,.34-1.2.34-.26-.26-.6-.34-.36.23-.62.22.08-.19-.16-.38-.31.16-.88.32-.57,0-.78-.37.78-1,.78-1.19-.29-.13-.42-.27.29-.44.13-.64-.46.1-.72.39a.71.71,0,0,1-.73.23c-.26,0-.44-.62-.37-.83s.37-.21.37-.42-.39,0-.39,0a.65.65,0,0,0-.31-.34c-.21-.08-.24.36-.44.6a2.33,2.33,0,0,1-1.15.72A4.7,4.7,0,0,0,176.2,168.62Zm35.61,33.51c-.11,0-.31.26-.26.46s-.05.37.26.21S212.05,202.13,211.81,202.13Zm.84.91c-.12,0-.21.41-.21.41h.44S213.17,203,212.65,203ZM214,110.27c-.2.21-.31,1.43-.54,1.61s-.78-.29-1-.08.86,1.28.6,1.52-.57.22-.7.41,1.06.85,1.43.91.28.15.36.18a1.39,1.39,0,0,1,.47.49c0,.13.52.5.75.63s.18.33.21.59.49.42.8.39.65-.15.91-.18a1.47,1.47,0,0,1,.94.42c.36.28.44.13.73,0a7.34,7.34,0,0,0,.93-1.33,3.17,3.17,0,0,1,.86-.75,2.19,2.19,0,0,0,.52-.42c.16-.21.39-.26.42-.39A5.71,5.71,0,0,1,222,113a1.85,1.85,0,0,1,.65-.76,3.91,3.91,0,0,1,1.56-.46.73.73,0,0,1,.72.33.31.31,0,0,0,.37-.2c.13-.29.41-.42,1.06-.55s.89.23,1.2,1.17a.87.87,0,0,1-.49,1.2l-.91.44a4.14,4.14,0,0,0-.55.78c-.18.36-.42.28-1.3.23s-.7.11-1.14.34-.24.42-.42.83-.23.37-.65.6a2.37,2.37,0,0,1-1.12.23c-.46.06-.49.24-.93.42s-.24.41-.08.52.7.1,1.09.23a11.18,11.18,0,0,1,2,1.54c.23.26.88.28.88.28l.57-.36,1.38.23s1.61.94,1.95,1.22a6.36,6.36,0,0,0,1,.63,13.7,13.7,0,0,0,2.16.13c.88,0,.73-.08,1.06-.37s.32-.05.71-.05a5.53,5.53,0,0,0,1.35,0,1.43,1.43,0,0,0,.62-.49c.18-.21.62-.39.7-.78s-.13-.42-.33-.55a6.72,6.72,0,0,1-1-.36c-.65-.34-.57-.52-.67-1s-.94-1-1.3-1.14-.42-.39-.58-.94.24-.57.55-.81.62,0,.81.11a3.72,3.72,0,0,1,.72,1c.13.23.58.15.71.15s.44.57.44.57a1.36,1.36,0,0,1-.6.42c-.36.1,0,.39,0,.39l.47-.05s.47.13.5.41,0,.21.05.37.44.18.65.36,1,0,1,0h1.43a6.49,6.49,0,0,0-.44-.81c-.31-.49-.55-.67-.94-1.29a13.38,13.38,0,0,0-1-1.69c-.39-.45-.62-.6-1.09-1.1a9.09,9.09,0,0,1-.91-1.63c-.34-.52-.7-.26-1-.76a2.36,2.36,0,0,0-.86-1.09c-.62-.49-.54-.15-.78-.54s-.49-.29-.57-.6-.67-.24-1-.37-.29-.36-.11-.85,0,0,.6-.45.08-.65.08-.65a3.14,3.14,0,0,0,.42-.7c.13-.34-.32-.36-.6-.44s-.52,0-.91-.08-.26-.15-.63-.26-.23-.23-.15-.7-.44-.6-.88-.58-.84.76-.84.76-.52,0-1-.13-.36-.26-.73-.54-.57.2-1.22.39-.36-.16-.65-.16-.57.49-.62.91.6.83.39,1.22-1,.11-1.3.24-.39.59-.68.75-.57-.1-.85,0-.26.49-.42.57a2.71,2.71,0,0,1-.88.6c-.55.18-.65,0-.84,0s-.57.75-1,.88-.52-.36-.73-.4-.49.3-.78.2a7.59,7.59,0,0,0-.8-.39S214.23,110.06,214,110.27ZM203.37,228.59a.47.47,0,0,0-.34.62c.1.26.34.29.6.29a.9.9,0,0,1,.75.41c.08.24.05.7.13,1.17a1.79,1.79,0,0,1,0,.86,2,2,0,0,1-.44.83c-.21.16-.29.44-.5.5s-.65.07-.8.13a1.35,1.35,0,0,0-.52.36c-.11.13-.26.31,0,.36s.23.11.54,0a1.3,1.3,0,0,1,.84-.1c.2.1.28-.14.39.16s.41.57.54.54a.65.65,0,0,0,.47-.49c.1-.34.47-.81.7-.83s.78,0,.81-.26.34-.29,0-.52-.68-.21-.5-.55.37-.23.37-.57.08-.37-.18-.6a5.79,5.79,0,0,0-.58-.49c-.36-.29-.36-.47-.65-.68s-.36-.1-.49-.41-.16-.52-.34-.63A.79.79,0,0,0,203.37,228.59Zm-1.88,1.12s-.33.23-.36.33a1.63,1.63,0,0,0-.1.6c0,.21.33.6.46.34s.16-.54.29-.59.08-.24,0-.43S201.65,229.59,201.49,229.71Zm14.43.66c-.23.07-.34.06-.34.43s-.23.41-.47.57-.44.1-.52.54.24.76.29.94-.13.31.08.36.18.29.65,0,.93-.26,1.06-.1.26.57.58.42.8-.24.8-.42-.08-.39,0-.49.21-.29,0-.47-.34-.68-.41-.73a.75.75,0,0,0-.58-.1c-.31.05-.36.26-.46-.06S216.08,230.32,215.92,230.37Zm3.12,2a1.25,1.25,0,0,1-.57,0s-.24.41,0,.44a1.81,1.81,0,0,0,.57,0C219.3,232.82,219,232.41,219,232.41Zm1.3,3.92s-.36.06-.44.21-.44.24,0,.29.6.39.67,0S220.46,236.31,220.34,236.33Zm-2.42,0a.91.91,0,0,0-.1.34c0,.16.25.26.34.18S217.92,236.33,217.92,236.33ZM217,235l-.36.21s.23.16.36.13S217,235,217,235Zm-85.85,21.66c-.11,0-.18-.34-.18-.34s-.26-.11-.29,0,.29.52.23.7a1.65,1.65,0,0,0,0,.7c.06.13.19.13.37.29a3.85,3.85,0,0,1,.57.59c.08.13.29.52.34.19s0-.42-.11-.6-.26-.11-.23-.44a2.18,2.18,0,0,0,0-.73c-.05-.18-.34-.52-.4-.44s.14.47,0,.49S131.16,256.69,131.16,256.69Zm-12.82-18.8a.57.57,0,0,0-.1.7,4.74,4.74,0,0,1,.6,1.33c0,.29-.31.55-.31.73s.44.52.44.83-.65.81-.9,1,.38.44.56.83-.21.34-.47.47.08.34.23.39.24.29.27.55a.26.26,0,0,0,.39.23.78.78,0,0,1,.59,0c.21.08.42.55.55.6s.31-.18.39-.39.42-.23.57-.23.16.49.16.67a.63.63,0,0,0,.13.5c.13.1.49-.16.57-.31s.18-.32.39-.34.36.15.57.39a.36.36,0,0,0,.57-.13c0-.16-.23-.68-.31-.89a2.91,2.91,0,0,1,0-1.09,2.13,2.13,0,0,1,.84-1.06c.15,0,.57.1.7,0a2.33,2.33,0,0,0,.13-1.07c0-.26-.44-.44-.44-.44l-.65-.21a2.35,2.35,0,0,1-.89-.54,6.7,6.7,0,0,0-1-.89,3.57,3.57,0,0,1-1-.88,3,3,0,0,1-.55-1.07,1.12,1.12,0,0,1,.13-.57s.1-.31-.18-.39-.11.13-.21.26,0-.37,0-.37-.26.09-.34,0,0-.3-.15-.46-.11.16-.19.19-.26.2-.44,0-.39.16-.52.26.16.47.16.47A1,1,0,0,1,118.34,237.89Zm1.25-6.63c0,.21-.36.45-.57.55s-.55.31-.49.65.54,0,.7-.1a1.29,1.29,0,0,1,.7-.29c.16,0,.42.6.57.81s.6-.21.55-.45-.42-.54-.47-.93.11-.69-.18-.81S119.62,231.06,119.59,231.26Zm16.72-18.76c-.19-.24-.37-.65-.39-.29s.26,1,.39.94S136.31,212.5,136.31,212.5Zm14.32,3.43s-.31-.26-.29,0a.27.27,0,0,0,.29.28C150.71,216.21,150.63,215.93,150.63,215.93Zm-19.89-40.37a1.3,1.3,0,0,0-.52,0,1.34,1.34,0,0,0-.34.47,1.69,1.69,0,0,0-.18.62c0,.19-.36.39,0,.45s.39.1.55-.21.08-.49.36-.56.31-.09.39-.2S130.74,175.56,130.74,175.56Zm1.93,4.21a5,5,0,0,0-.52.52c-.06.11-.34.11-.21.29s.36.26.62,0S132.67,179.77,132.67,179.77Zm2.23-1.17c.29.29.63.32.81.5s.21.23.13.47-.26.13-.47.2,0,.47.21.49.23.16.28.49.37.32.63.15.1-.27.18-.53.39-.13.52-.36a2.53,2.53,0,0,0,.21-.79c0-.32.28-.36.57-.41s.28-.34.31-.6.1-.15.29-.33.05-.42-.13-.63-.32.11-.32.11-.33.26-.57.18-.31.05-.65,0a1.48,1.48,0,0,0-.8.21c-.21.07-.5.31-.57.31s-.52-.31-.63-.31C134.51,177.75,134.62,178.32,134.9,178.6Zm-.41-10.39a1,1,0,0,0,.28.31c.21.15,0,.23-.12.31s-.06,0-.29-.05a.34.34,0,0,0-.45.28c0,.13.32.29.6.32s.39-.24.64-.45.61.21.66.42a1.69,1.69,0,0,1-.44,1,2.8,2.8,0,0,1-1.14.73,1.92,1.92,0,0,1-.76-.11c-.26-.08-.57.44-.76.73s.55.55.92.73a1.47,1.47,0,0,0,1.3-.16c.41-.23,2-1.61,2.28-1.84s.47-.58.39-.81-.36-.23-.52-.39-.1-.23,0-.42.26-.15.37-.39-.21-.2-.37-.15a1.26,1.26,0,0,1-.77-.34c-.16-.16-.24-.31-.45-.34s-.18.21-.23.39-.39.21-.7.29Zm.36,20.06a1.3,1.3,0,0,0,.52.11c.39,0,.39.23.49.36s.37.42.54.37.22-.16.35-.34.54,0,.8,0,.39-.5.39-.5-.31-.13-.31-.18a.49.49,0,0,0-.52,0c-.18.13-.57-.2-.7-.41s-.18-.44-.34-.42-.21.57-.34.63a5.26,5.26,0,0,1-.88.2Zm-3.69-4.21c-.11,0-.55.16-.57.26s0,.31.42.39.94.24.89.37-.26.28,0,.49.07.42.4.49.51.24.49.34a.73.73,0,0,0,0,.44l.06.11s.21-.13.24-.21.08-.44.13-.62,0-.32.15-.5.11-.18.21-.39a1.82,1.82,0,0,0,.24-.75,4.9,4.9,0,0,0-.19-.6s-.41-.42-.67-.36a.74.74,0,0,0-.52.33.4.4,0,0,1-.42.19ZM120.94,192c-.15.08-.36.29-.28.39a.27.27,0,0,0,.47,0C121.28,192.09,120.94,192,120.94,192ZM77.85,219.88c-.21-.18-.39-.42-.65-.29s-.44.26-.44.58-.16.7.28.8.7.16.81-.13A3,3,0,0,0,77.85,219.88Zm1.82,1.77c0,.06-.37.44-.47.6s-.34.39-.31.67,0,.6.15.55.16-.21.42-.24.08.16.21.39.26.5.41.5.34.1.26-.13-.18-.32-.2-.58-.06-.41-.06-.52a.86.86,0,0,1,0-.36C80.14,222.38,79.78,221.48,79.67,221.65Zm-2.81-.29c0,.11-.24.47-.13.57s.49.34.49,0,.13-.57,0-.57Zm1.74-.31c-.18.23-.44.45-.34.58s.24.22.34.11S78.6,221.05,78.6,221.05ZM72,207.2c-.1,0-.57.05-.6.26s.31.44.3.54-.17.18,0,.21.14-.08.3-.36S72.41,207.11,72,207.2ZM40.52,173.25c-.15.36-.26.36-.65.57s-.18.88-.23,1.12a3.71,3.71,0,0,0,.41,1.45,1.64,1.64,0,0,0,.73.55c.52.26.44.29.47.44a1.8,1.8,0,0,0,.91.81c.49.21.47.91.62,1.25s.39.23.81.23.47.31.6.68.41.44.78.64.52.45.72,1.12.6.55,1.17.7.89-.46,1-.75-.07-.55-.41-.81-.31-.2-.39-1,.44-.65.73-.89a4.38,4.38,0,0,1,1.79-.41,2.72,2.72,0,0,1,1.56.57c.23.23.36.55.55.52s.26-.49.18-.86-.81-.47-1.22-.73-1-.2-1.28-.33a1,1,0,0,1-.36-.86,2.78,2.78,0,0,0-.24-1.07c-.15-.39-.85-.52-1.37-.88a7.7,7.7,0,0,0-1.23-.78c-.26-.11-.59.13-.72.21a.92.92,0,0,1-.81-.24c-.23-.23,0-.52,0-.88s-.34-.21-.6-.29a3.83,3.83,0,0,1-1-.65c-.34-.26,0-.46.18-.91a2,2,0,0,0,0-1.27c-.13-.44-.63-.08-.73,0a5.83,5.83,0,0,0-.34.49c-.1.13-.6.58-1,1A13.58,13.58,0,0,0,40.52,173.25Zm-8.32-18.9a4.43,4.43,0,0,1,.13,2.16c0,.73-.33.83-.85,1s-.47.34-.47.78a1.76,1.76,0,0,1-.26,1.07c-.18.21-.1.6,0,.91s.75.41,1,.62.21.7.47.68.28-.39.49-.5a1.2,1.2,0,0,0,.6-.65,2.7,2.7,0,0,0,.21-1.14c-.08-.39-.19-.31-.29-.8s.16-.21.26-.86-.18-.52-.29-.82.52-.74.68-.72.29.68.34,1.15a3.06,3.06,0,0,0,.52,1.17,3.91,3.91,0,0,1,.54,1.22,2.24,2.24,0,0,1-.2,1.09,3.24,3.24,0,0,0-.21,1.12,1,1,0,0,0,.34.86c.23.2.8.57,1.11.46s.55-.33.84-.39.33.6.49.6.16-.28.31-.26a1.21,1.21,0,0,0,.76-.23c.14-.16.93-.16,1.4-.13s.8.62,1,.88.65.11,1.24.24.78.83,1,.93.68-.34.94-.36.55.57.81.62.31-.88.33-1.35a3.65,3.65,0,0,0,0-1.33c-.13-.23-.31-.33-.31-.57s-.31-.39-.52-.44a2.47,2.47,0,0,1-.67-.31,9,9,0,0,1-1.3-1.95c-.24-.62-.47-.81-.81-1.53s-.49,0-.65,0,.16-.65,0-.78-.73.52-1,.81a.78.78,0,0,1-1-.21,4.55,4.55,0,0,0-.36-1.14,2.27,2.27,0,0,1-.31-1.49c.1-.54.64-.1.67-.57s-.16-.31-.18-.61,0-.22,0-.4a12.51,12.51,0,0,1,0-1.4c0-.58-.16-.39-.57-.86s-.21-.83-.26-1.67-.44-.72-1-.72-.11.91-.18,1.35-.24.49-.29.73.23.33.28.75-.54.31-.54.49.34.6.34.81a5.73,5.73,0,0,1-.55,1.3,2.17,2.17,0,0,1-1.2.78.92.92,0,0,1-1-.6c-.26-.49-.28-1.22-.57-1.38s-.31.83-.65.82-.43-.73-.86-.92C31.71,152.59,31.89,153.75,32.2,154.35Zm8.35-6.42a.76.76,0,0,1-.31.62c-.13.08-.26.08-.52-.23s-.37,0-.52.23.31.71.52,1a4.06,4.06,0,0,1,.36.67,3.18,3.18,0,0,1,.34,1,3.58,3.58,0,0,0,.57,1.25,4,4,0,0,1,.34,1.15c0,.27,1.12,1.47,1.32,1.89s.45.1.63-.13a.58.58,0,0,1,.62-.21c.24,0,.57,0,.63-.13s-.39-.39-.6-.7-.39-.32-.52-.6,0-.42.08-.82,0-.14,0-.35a.82.82,0,0,0-.76-.39c-.28,0-.49.54-.77.7s-.68-.18-.77-.73a3.36,3.36,0,0,1,.24-1.45c.08-.26.55-.55.52-.78s0-.44,0-.68-.31-.28-.57-.18-.52.26-.62.13a.54.54,0,0,1,0-.63,1.3,1.3,0,0,0,.33-.85c0-.44-.41-.5-.67-.57C40.42,147.13,40.5,147.72,40.55,147.93Zm9.28-6.42s-.68.21-.81.55-.39.75-.44.91,0,.31.49,0a10.51,10.51,0,0,0,1.12-1c.21-.16.5-.34.18-.5A.57.57,0,0,0,49.83,141.51Zm-4.14,6.16c-.12.16-.59.57-.54.65s.49.41.54.23a1.92,1.92,0,0,0,.19-.59A.59.59,0,0,0,45.69,147.67Zm-3-2.7c0-.13-.55-.39-.55,0s0,.52.27.57.43.05.46-.15A.65.65,0,0,0,42.71,145Zm7.27-.81c-.11.12-1.27,1.15-1.3,1.25s.29,0,.5-.13.73-.44.8-.65S50.12,144,50,144.16Zm-4.83-3.06c.2-.08.05-.08,0-.29s-.26,0-.44,0a1.89,1.89,0,0,0-.68.31,1.44,1.44,0,0,0-.18.89c0,.1.36.18.36,0a1.1,1.1,0,0,1,.32-.68Zm-3.82-8.24a1.82,1.82,0,0,1-.63.67c-.23.13-.75.16-.91.31a5.2,5.2,0,0,0-.78,1.51c0,.39-.67,2.24-.77,2.76a11.48,11.48,0,0,0-.26,1.35,5.31,5.31,0,0,1,0,1.26c-.13.35,0,.58-.16.84a4.69,4.69,0,0,0-.42,1.23,6.27,6.27,0,0,1,0,.88c0,.13-.11.54,0,.47a11.9,11.9,0,0,0,.73-1.35c.11-.21.42-1,.6-1s.5.31.6.65a.63.63,0,0,0,.52.44.55.55,0,0,1,.36.26c.1.16.1.13.16,0s-.06-1,.23-.85a1.25,1.25,0,0,0,.62,0c.13,0,.63-.68.76-.66s.36.37.54.24a.92.92,0,0,0,.21-.89c-.1-.26-1-1.51-.78-1.92s.73-1.38.82-1.56a1.92,1.92,0,0,0,.12-1,.69.69,0,0,1,0-.67c.15-.32.34-.58.21-.94a1.85,1.85,0,0,0-.58-1c-.36-.28-.54-.34-.54-.67s-.37-.34-.44-.39S41.33,132.86,41.33,132.86Zm1.19,6.49c-.07.26-.1.68,0,.68s.29-.21.29-.34S42.52,139.35,42.52,139.35Zm-19.36-23a1.18,1.18,0,0,0,0,.62c.08.16.16.19.18.45s.18.49.31.51a.55.55,0,0,0,.42,0c.16-.07.39.11.42.21s.38.08.44.18.05.42.31.42.75,0,.62-.26a1.34,1.34,0,0,0-.8-.93,4.48,4.48,0,0,1-1-.63C23.78,116.72,23.16,116.3,23.16,116.3Zm31.55,33.89c-.07-.1-.28-.23-.28,0a1.62,1.62,0,0,0,.14.55c0,.13.14.42.25.42s.18-.08.15-.32A2.32,2.32,0,0,0,54.71,150.19Zm.76,4.71c-.12,0-.16.31-.13.44s-.18.12-.18.36-.13.71,0,.42-.06-.53.2-.57.39-.08.34-.29S55.65,154.92,55.47,154.9Zm4.94.8a6.75,6.75,0,0,0-.78,0,4.37,4.37,0,0,0-.78.39c-.08.08.23.12.23.12L60,156s.39,0,.42,0A1,1,0,0,0,60.41,155.7Zm5.82-1.06a1.75,1.75,0,0,1-.52,0c-.13,0-.31.13-.31.26a.26.26,0,0,0,.41.21A1.13,1.13,0,0,0,66.23,154.64Zm-1.82-.24c0-.07-.31,0-.34,0s.42.29.34.37-.41.21-.17.23.35.11.35-.11A1.05,1.05,0,0,0,64.41,154.4ZM68,156.21c-.1-.14-.62-.7-.6-.52s.37.43.42.52S68,156.21,68,156.21Zm51.49,5.68s-.41.16-.36.29.05.13.18.13S119.46,161.89,119.46,161.89Zm.83.42-.23.18s0,.21.12.26.3.05.3,0A3.85,3.85,0,0,0,120.29,162.31Zm-1.58-2.52c-.13,0-.26,0-.26.1a.24.24,0,0,0,.26.21C118.86,160.1,118.71,159.79,118.71,159.79Zm1.17-.47c-.08-.08-.26,0-.31,0s-.21.1-.11.18.42-.05.42,0Zm-66-6.71-.34-.23s0-.11,0,.23,0,.42.17.39S53.83,152.61,53.83,152.61ZM52,152.17s-.24-.1-.24,0,.16.26.24.36.34.16.34,0S52,152.17,52,152.17Zm11.07,3c-.1,0-.49,0-.49.14s.13.32.24.26.43-.1.46-.19S63.11,155.15,63.11,155.15ZM47.51,124.1h-.18s-.13.18,0,.21,0,.1.13,0A.15.15,0,0,0,47.51,124.1Zm-20-4.4c-.08,0-.47-.1-.6,0s-.13.29,0,.47.55.21.6.34.1.31.29.26.2-.32.13-.55A1.71,1.71,0,0,0,27.5,119.7ZM9.23,93.14a11.2,11.2,0,0,0-.6,1,3.69,3.69,0,0,1-.88.89c-.37.23.1.34.41.47s0,.39,0,.62.18.08.39-.08.5.08.57.21-.33.8-.44,1,.47.65.68.57a2.2,2.2,0,0,1,.78,0c.26,0,0,.39,0,.68a2.22,2.22,0,0,0,.41,1,5.85,5.85,0,0,1,.68.93c.08.26.75.7,1,.89a9.88,9.88,0,0,1,.72.85c.26.29.94.63,1.2,1a4.28,4.28,0,0,1,.52,1.85,13.51,13.51,0,0,0,.55,2.34c.07.23.72.41.78.54a1.81,1.81,0,0,0,.8.83,9.46,9.46,0,0,0,1.09.21,5.89,5.89,0,0,1,1.15.68,8.88,8.88,0,0,0,1.17.39c.44.15,1.56.75,2,.83s.42.13.6,0,.13-.29,0-.62-.36-.32-.65-.65a2,2,0,0,1-.41-1.41c0-.62-.32-.54-.63-.57s-.93.55-1.17.68-.6-.16-.75-.29-.29-.73-.39-.88-.39-.16-.55-.24-.34-.47-.6-.49-.75-.13-.8-.63-.1-1.61-.1-2.07a3.5,3.5,0,0,0-.34-1.54,2.37,2.37,0,0,1-.34-1.06.42.42,0,0,1,.42-.39c.18,0,.2.18.39.23s0-.39,0-.65-.18-.08-.23-.42-.58-.33-.76-.41a3.62,3.62,0,0,1-.88-.44,1,1,0,0,1-.29-.65c0-.21.13-.24.11-.45s-.26-.31-.34-.57a1.61,1.61,0,0,1,.23-1.11,1.21,1.21,0,0,1,.68-.58c.34-.13.7,0,.93,0s.39-.26.65-.52a13.19,13.19,0,0,0,.83-1.19c.24-.31.29-.47.13-.5s0,0-.33-.1a.83.83,0,0,1-.47-.27,4.72,4.72,0,0,0-1.2-.25,4.07,4.07,0,0,1-.8-.19c-.13,0-.7-.43-1-.43s-.86.49-.94.53-.88.14-1,.17a5,5,0,0,1-.91-.16.73.73,0,0,0-.63.26c-.1.13-.38,0-.67,0A1.06,1.06,0,0,0,9.23,93.14Zm-2.81-4.6c-.13-.29-.26-.55-.42-.34s-.52.42-.13.63.55,0,.55,0ZM4.89,94c-.06-.13-.34-.26-.34-.26a1.47,1.47,0,0,0,.17.57c.11.13.17,0,.17,0Zm-4.32-4a1,1,0,0,0-.57,0s0,.7.13.7a1.14,1.14,0,0,0,.44-.1c.05-.05,0-.25.24-.27s.46-.07.31-.15S.57,89.94.57,89.94Zm117.66,40c-.24.08-.74.75-1,.8a2.29,2.29,0,0,1-.74,0c-.27,0-.54.61-1.09.58s-.62.22-.78.3a1.09,1.09,0,0,0-.35.7c0,.28.47.63.74.63a6.68,6.68,0,0,0,.86-.2c.27,0,1.13.43,1.4.35s.74-.54,1.06-.7.38-.23.38-.58-.58-.59-.31-1.08,1,.37,1.29.37.47-.39.66-.37a2.93,2.93,0,0,1,1.38,1.19c.21.55.42.16.73.22s.62-.53,1.15-.68,2.08.89,2.55,1.28a30.78,30.78,0,0,1,2.22,2.5c.08.11.32.11.86.15a1.12,1.12,0,0,1,.94.51c.11.19,1.28,2.11,2,2.22a3.11,3.11,0,0,1,1.38.51,2,2,0,0,1,.27,1c0,.24.16.74.67.63s.85.35,1.09.66.89,1.64.89,1.64.82,0,1.13,0a7,7,0,0,1,2.34.78c.59.35,1.1,2.26,1.21,3.23a1.42,1.42,0,0,1-.66,1.45c-.19.19.16.89.19,1.21a2.08,2.08,0,0,0,.71,1c.23.16,1.13-.55,1.24-.59a12.38,12.38,0,0,1,1.88.47,6.12,6.12,0,0,0,1.91.51c.35-.08,1.63-.35,1.87-.35s.78.51,1,.66a6.78,6.78,0,0,0,1.93.24c.47,0,1.05-.71,1.25-.78s.43.39.74.39.7-.43,1.09-.36.27.71.31.86.31.43.39.59a.47.47,0,0,1-.19.7c-.39.15.7.27.93.27a2.59,2.59,0,0,1,1.37.78.8.8,0,0,1,.12.78c0,.16-.55.24-.67.31s.12.39.2.51.08.39.27.47.31-.39.47-.74.89-.28,1-.12a2.77,2.77,0,0,1-.31,1.4c-.16.28-.55.59-.39.78s.47-.11.78-.39a.72.72,0,0,1,.62-.19,1.44,1.44,0,0,1,.35,1c0,.63.36.63.59,1.06a5.16,5.16,0,0,1,.78,1.67,1.3,1.3,0,0,1-.43.94.75.75,0,0,0-.27.39c-.08.19.15.27.43.35s.23.43.19.62.12.39.51.51.78-.19.93-.23.43.23.59.39.62.5.74.66a3.57,3.57,0,0,1,.31,1.13c0,.19-.23.39-.23.55s.47.35.89.39.16.42,0,.87.12.37.31.37.32.31.39.52.39.65.59.58.27-.16.27-.32a5.07,5.07,0,0,0,0-.78c0-.19-.23-.31-.08-.62a2,2,0,0,1,.59-.59,4.48,4.48,0,0,1,1.33.08c.38.16.77,1.48.85,1.65s.35.61.51.57a2.59,2.59,0,0,0,1-.57c.24-.26,1.25-.71,1.56-1.18a7.34,7.34,0,0,0,.74-2.11,5.29,5.29,0,0,0-.23-1.63.9.9,0,0,1,.23-.94,1.63,1.63,0,0,0,.51-.66,3.67,3.67,0,0,0,0-1.33c0-.15-.27,0-.39,0a1.19,1.19,0,0,0-.54.39c-.08.12-.78.74-1.17.73a3.42,3.42,0,0,1-1.33-.42c-.23-.15-.74,0-1.17,0s-.66.28-1,.39a1.14,1.14,0,0,1-1-.31c-.15-.15-.43-.62-.74-.7a12.13,12.13,0,0,1-1.56-.27c-.31-.16-.19-.59-.19-.7s-.43-.28-.63-.32a1.58,1.58,0,0,1-.74-.82c-.23-.46-.62-1.05-.82-1.4a7,7,0,0,1,0-2c0-.43-.27-.58-.7-.74a1.36,1.36,0,0,1-.8-.51,1.39,1.39,0,0,1-.33-1.13,5.13,5.13,0,0,1,.16-1.09c.08-.31-.12-.47-.28-.66a1.1,1.1,0,0,1-.31-.82,3.09,3.09,0,0,0-.39-1.56c-.19-.12,0-.39.12-.51a1.5,1.5,0,0,0,.27-.66,4.86,4.86,0,0,1,.12-1.25,4.44,4.44,0,0,1,.62-.7c.12-.11-.5-.43-1-.74a17.83,17.83,0,0,1-1.87-1.71c-.51-.51-.31-2.66-.31-2.93a.47.47,0,0,0-.43-.43c-.16,0-.43.2-.55.2a2.31,2.31,0,0,1-.7-.08,6.17,6.17,0,0,1-1-.58,6,6,0,0,0-1.9,0c-.27,0-.27.42-.35.54a2,2,0,0,1-.93.39,4.53,4.53,0,0,1-1.19-.51c-.29-.15-1.23.16-1.45.16a7.28,7.28,0,0,1-1.22-.27,18.09,18.09,0,0,1-2.13-.7,3.23,3.23,0,0,1-1.5-1.17,6.52,6.52,0,0,0-1.67-1.25.37.37,0,0,0-.59.27c0,.2-.47.35-.94.35a3,3,0,0,1-1.52-.93c-.07-.2-.27-.67-.5-.74a2.79,2.79,0,0,1-1.37-.32,5.36,5.36,0,0,1-1.19-1.2c-.09-.2-.64-.28-.83-.36a4.22,4.22,0,0,1-1.13-1,5,5,0,0,1-.86-1.87,7.73,7.73,0,0,0-.31-1.91c-.16-.39-1.17-.43-1.56-.66s-.28-.59-.16-.9.31-.35.55-.59,0-.58-.28-.93-1.09,0-1.44-.23-.7-.9-.94-1.1-.62.47-.93.51a12.25,12.25,0,0,0-1.41.2c-.19.07-.7.7-1,.85a3.76,3.76,0,0,1-1.13.16s-.58-.47-.78-.47-.23.39-.21.51-.45.27-.81.43.16.31-.1.58a.8.8,0,0,0,0,1c.23.19,0,.35,0,.46s-.31.28-.23.78a.77.77,0,0,1-.47.88c-.27.13-1.13-.37-1.25-.41s-.66.7-.86.78a2.55,2.55,0,0,1-.78,0S118.46,129.91,118.23,130ZM25.88,101.12a4.53,4.53,0,0,0-.54.52c-.13.18-.08.57-.15.68a1,1,0,0,1-.47.44,1,1,0,0,0-.52.47c-.13.18-.23.41-.16.46a.72.72,0,0,0,.46,0,3.53,3.53,0,0,1,.66-.36c.08,0,.31-.13.39,0s.08.42.16.55.36.2.59.23.42.1.6,0,.18,0,.31,0,.29.13.42,0,.42-.14.39.07-.55.89-.55,1-.57.15-.7.31-.67.29-.13.73a6.35,6.35,0,0,1,1.22,1c.06.18.47.78,0,.67s-.93-.26-1,0,.34.4.44.63a2.15,2.15,0,0,1,.08.84c0,.26.7.2.71.33a2.35,2.35,0,0,1,.36,1,3.16,3.16,0,0,0,.67,1.82,5.77,5.77,0,0,0,1.95,1.17,5.33,5.33,0,0,0,1.3.65,3.84,3.84,0,0,0,1,.2c.45,0,1-.15,1.36.16a2.88,2.88,0,0,1,.41,1.61c0,.21-.17.5,0,.7a16.15,16.15,0,0,0,2,.76,1.43,1.43,0,0,1,.83.75c.18.44.57.65.81,1.46s.18,1,.65,1.48a1.83,1.83,0,0,0,1.32.57c.29,0,.5.16.73.57a10.77,10.77,0,0,0,1.07,1.46,3.51,3.51,0,0,1,.72,1c.11.34.32.7,0,.7s-.54.21-.28.63a2.49,2.49,0,0,0,1.06.91c.29.07.6.1.39-.24s-.36-.6-.18-.62.57.39.89.52.39,0,.7.18.52.26.52.05.18-.34-.21-.6a11.39,11.39,0,0,1-1.07-.75c-.18-.18-.46-.62-.39-.88s.21-.8.52-.91.73-.13.86-.26.26-.34.13-.42-.36-.15-.36-.31-.08-.29.07-.36.58-.08.49-.26-.38-.19-.36-.34-.18-.34,0-.39a4,4,0,0,1,.52-.11c.23,0-.08-.62.21-.59s.72,0,.71.41-.1.52,0,.6.3.31.2.36-.36,0-.34.32a.5.5,0,0,0,.37.49c.2,0,.31.13.28.29a3,3,0,0,1-.16.44s0,.16.16.13,0-.16.21,0,1.4,1.2,1.4,1.2.13.26.21.28.1-.21.1-.21L48.4,124.1l0-.42s-.06-.15.18-.18a.61.61,0,0,0,.36-.18s0-.44.13-.52.26-.24.39-.16.47.34.47.52-.1.16.1.34.32.66.39.73.24.39.34.41.39,0,.52.13a2.08,2.08,0,0,0,.42.42,2,2,0,0,0,.78.21c.26,0,1.24-.06,1.45,0s.26-.21.34-.47-.13-.45.36-.54.86-.39,1.25-.26a1.42,1.42,0,0,1,.83.65,2.68,2.68,0,0,0,.76.83c.23.13.49.21.57.49s.34.5,0,.86-.52.42-.52.94a1.57,1.57,0,0,0,.26,1.17c.31.44.68.8.81,1a.53.53,0,0,1,0,.68c-.21.21-1.67-1.35-1.9-1.33s-.47.16-.39.37-.16,1.25-.52,1.32a2.14,2.14,0,0,1-1.35-.62c-.26-.26-.63-.39-.68-.7s.16-.91-.21-1-.67.13-.91.13-.75-.65-1-.65a2.29,2.29,0,0,0-.91.08c-.36.13-.52-.52-.67-.47s-.11.37-.39.55-.91.47-1,.26-.34-1.07-.55-1-.24.1-.43.34a2.46,2.46,0,0,1-1,.8,4.52,4.52,0,0,1-1.14.16c-.19,0-.52-.86-.65-.88s-.19.59-.13.75-.08.42-.13.68,0,.41.49.8.86.91,1.32,1a1.33,1.33,0,0,0,1.07-.29c.29-.18.57-.57.73-.26s0,.31,0,.57.21.44,0,.55a.8.8,0,0,1-.92,0,3.85,3.85,0,0,0-1.6-.42c-.49,0-1.69.21-1.72.75s.32,1,.21,1.25-.45.42-.33.86.07.73.36.94a2.47,2.47,0,0,1,.7,1,.65.65,0,0,0,1,.31c.31-.28.8-.65,1-.83s.68-.83,1.2-.83.62.15.75.62.11,1.69.26,2a7.27,7.27,0,0,1,.63,1.33,4.16,4.16,0,0,0,.49,1.22c.29.49.57.57.78.52s.57-.18.76,0,.05.46.31.74a5.35,5.35,0,0,1,.62.71c.23.33.57.51.47,1.14a12,12,0,0,0-.21,1.77c0,.44-.1.7,0,.86s.44.31.42.49-.08.65.15.65a2.32,2.32,0,0,0,1.07-.26c.1-.16.14-.68.42-.63s.8.39.59.55-.4.13-.47.23a.67.67,0,0,0-.12.71c.12.44.21.3.43.62s.47.39.3.7a.75.75,0,0,0,0,.83c.17.21.72.24.88.52s.33.47.15.68-.36.18-.49.29-.13.18-.21.44a.93.93,0,0,1-.33.52,1.52,1.52,0,0,0-.3.24.77.77,0,0,0,0,.46c.06.15,0,.34,0,.54s-.1.34.14.39.33-.15.57,0a1.06,1.06,0,0,1,.39.37c.05.1.34.15.26.24s-.26,0-.13.34.91.62,1.19.66.86.17.83,0,.06-.51.17-.46.25.23.36.14-.06-.61.1-.68.47-.25.57,0,.31.27.47.34.31-.38.44-.34a3.2,3.2,0,0,1,.42.27c.15.09.31.21.49.07s.55-.24.34-.48-.6-.44-.68-.61-.36-.83-.13-.93.39.2.68.33.3,0,.19-.33-.24-.56.22-.8a2.49,2.49,0,0,1,1-.39c.31,0,.54-.07.49-.33s-.26-.81-.26-.94.21-.6,0-.83-.42-.34-.71-.6-.52-.78-.33-.91.15-.16.48.13a5.22,5.22,0,0,1,.66.81c.23.28.78.67.7,1a1.65,1.65,0,0,0,0,1.14,1.31,1.31,0,0,0,.76.94c.15.05.67,0,.72.21s.29.35.19.56-.26.42-.19.58.24.44.42.21.21,0,.34-.46a5.2,5.2,0,0,1,.23-.63,2.14,2.14,0,0,1,.87.3c.22.22.09,1,0,1.1a.42.42,0,0,0,0,.42c.07.07.51.34.53.43S68,155,68,155s-.13.24,0,.4.7.36.7.51a2.59,2.59,0,0,0,0,.4c0,.06.34,0,.44-.1s.06-.36.39-.3.34.12.55,0a11.62,11.62,0,0,0,1-.8,6.21,6.21,0,0,1,1.43-1.27,5.32,5.32,0,0,1,2-.65,3.59,3.59,0,0,1,1.56.38,2.1,2.1,0,0,0,1,.48c.24,0,.55,0,.83,0s.24,0,.55-.32,0-.7.62-.83a2.47,2.47,0,0,0,1.36-.8c0-.21.15-.6.44-.52s.72.47,1.09.47a1.9,1.9,0,0,0,1.12-.39c.33-.26.46-.71,1-.76a1.94,1.94,0,0,1,1.3.21,4.12,4.12,0,0,0,1.43.39,10.52,10.52,0,0,1,2.24.31,2.64,2.64,0,0,0,1,.55c.26,0,.28,0,.39.28a.79.79,0,0,0,.62.57.6.6,0,0,1,.52.38c.11.25.52.56.81.38s.47-.73.78-.73.31.21.6.21.36-.34.57-.31.26.36.78.45.83-.38,1.17-.27a6.5,6.5,0,0,1,1.3.47c.28.18.49.31.62.26s.08-.27.34-.46.44-.38.41-.56-.28-.26-.28-.41.21-.18.29-.42-.84-1.06-.71-1.27.26-.42.86-.37,1,0,1-.23-.26-.65.18-.7,1-.05,1,.13.13.34.52.49a.9.9,0,0,1,.57.52c.13.24.62.24.67.47s.34.42.45.52.07.08.18.36.31.37.47.52.07.31.18.37.34.07.41.33-.33.47-.41.58.36.39.42.44.36,0,.46.31.13.68.34.88.68.37.83.24.24-.83.5-1,.54-.34.54-.52-.21-.13-.41-.24a.67.67,0,0,1-.45-.65c0-.36.06-.93.58-1.11s.85-.34,1.09-.42.57-.57.85-.54.55.41.6.62.37.21.31.42-.26.13-.23.44.26.41.42.7.23.75.39.86.2-.24.44-.11.47.7.62.81a2,2,0,0,0,.83.21c.19,0,.81.18.86.39a1.2,1.2,0,0,1-.34.85,1.43,1.43,0,0,1-.83.32c-.26,0-.41.15-.34.36s.26.47.47.47.44-.18.55-.13.1.34.34.36.65.08.72-.1.18-.42.42-.11.21.24.52.24.29-.39.57-.37.26.24.57.26.47-.36.6-.28a2,2,0,0,1,.34.78c0,.15-.16.28-.13.62s.23.65.49.62.37-.38.47-.44.62.06.73,0,.28-.1.16-.36-.34-.45-.45-.37-.08.29-.23.31-.16.06-.31,0-.24-.08-.24-.18-.18-.21,0-.39.57-.5.73-.5a3,3,0,0,1,1,.26c.22.13.24.13.79.08a2.67,2.67,0,0,1,1.06,0,1.05,1.05,0,0,1,.39.55.37.37,0,0,1-.36.39c-.23,0-.52.1-.39.23a1,1,0,0,0,.76.5c.57.1.85.07,1.06-.14a13.88,13.88,0,0,1,1-1c.1,0,.33,0,.72.42s.73.58.58.78-.71.44-.71.62.55.34.75.34.66-.44.89-.42a1.11,1.11,0,0,1,.7.26c.24.21,1.07.44,1.2.68s.21.47,0,.52l-.7.18c-.11,0-.6-.16-.68,0s-.39.21-.18.42.44.35.7.24a2,2,0,0,1,1,0s0,.25.13.54a1.51,1.51,0,0,1,0,.7.82.82,0,0,1-.65.23,2.4,2.4,0,0,0-1.09.16c-.21.13-.42.54-.76.7a3.41,3.41,0,0,1-.88.18,3.82,3.82,0,0,0-.65.42,4.89,4.89,0,0,1-1.35-.34,1.16,1.16,0,0,0-1,0c-.18.13-1-.24-1.17-.37a2.3,2.3,0,0,0-.81-.28c-.13,0,0-.24-.37-.13a4.24,4.24,0,0,0-1,.49c-.29.16-1,.42-1.36.61s-.75.46-.78.59.21.23.34.2.42.08.29.26-.44.34,0,.39.75-.31,1.09.13.23.63.52.76.67,0,.85.35.26.56,0,.71-.77.42-1.14.65a9.28,9.28,0,0,1-2.62.31c-.47,0-1.74-.07-2.21-.67a23.38,23.38,0,0,1-1.35-2.08,36.75,36.75,0,0,0-4.16-2.83c-.34-.19-1.56-.81-2.24-1.15a7.08,7.08,0,0,0-2.31-.8,24.75,24.75,0,0,1-3.07-.21,8.26,8.26,0,0,1-2.34-1.25c-.44-.39-2.78-.73-3.5-.91a3.83,3.83,0,0,1-1.49-.54,5.83,5.83,0,0,0-1.19-.52,13.31,13.31,0,0,1-1.15-1.23,3.33,3.33,0,0,0-1.43-.59,3.11,3.11,0,0,1-1.22-.86,4.21,4.21,0,0,0-.83-.94c-.23-.13-.62-.1-1-.28s-.54-.73-.93-.76-.73.34-1.22.14-1.17-.66-1.62-.63-.26-.34-.88.34-.67,1.06-1.06,1.3-.81.18-1.07.46a4.62,4.62,0,0,0-.83,1c-.39.65-.55.78-.81,1.23a15.65,15.65,0,0,1-.83,1.63c-.34.44-1.43,1.48-1.43,1.48a3.28,3.28,0,0,1-1.33.81,3.43,3.43,0,0,1-1.53-.05c-.18-.13-.78-.34-.91-.42s-.13.18-.44.16-.36-.29-.55-.39a5,5,0,0,1-.72-.37c-.29-.2-.39-.65-.6-.8a2,2,0,0,0-.83-.26,6.79,6.79,0,0,1-.73.08c-.37,0-1-.44-1-.24s.34.29.26.68-.21.62-.39.47-.36,0-.6-.6a2.72,2.72,0,0,0-.75-1v1.06a3.47,3.47,0,0,1-.16,1.51,1.78,1.78,0,0,0-.18.86c0,.31.26.39-.13.75s-1.24.71-1.27,1.1a3.1,3.1,0,0,1-.13,1,13.5,13.5,0,0,1-1.12,1.58,4.36,4.36,0,0,0-.62,1.36,3.05,3.05,0,0,1-.34,1.17c-.24.28-.58.18-.69.93s-.07,1.09-.4,1.22a2.81,2.81,0,0,1-1.43-.31.56.56,0,0,0-.5,0c-.1.08-.33,0-.41,0s-.24-.15-.34-.07a2,2,0,0,0-.44.49c0,.08.18.16.21.34a2.66,2.66,0,0,1-.26,1c-.13.26-.34.44.1.83s.55.23.86.13.49-.2.8.12.71.3,1,.5a6.32,6.32,0,0,0,.67.63,3.16,3.16,0,0,0,1.12.52,3,3,0,0,1,1.48,1,11.19,11.19,0,0,1,.55,1.46c.1.31.62.57.67.91s.21.75,0,.8-.47.08-.42.45a5.36,5.36,0,0,1,.1.7c0,.36,0,.49,0,.78s.24.33.37.39.13-.21.31-.5.68-.57.78-.31,0,.34.36.47.84-.18.94-.13,3,3.3,3.38,3.72,1.43,1.48,1.95,2,1.27.89,1.53,1.35a12.49,12.49,0,0,1,.88,1.95c.19.6,1.17,2.6,1.46,3.2a3.26,3.26,0,0,1,.39,1.12,1.56,1.56,0,0,0,.65,1c.16,0,.23.44.23.63a7.37,7.37,0,0,1-.07,1c-.06.18-.06.05-.45.49s-.39.6-.75.94a4,4,0,0,1-1.3.75c-.39.13-1.09.44-1.22.73a5,5,0,0,0-.26,1.06,2.12,2.12,0,0,1-.42,1c-.2.21-.57.7-.49.83s.39.11.49.52a4.94,4.94,0,0,1,.26,1.17c0,.24,0,.29,0,.58s0,.26,0,.57,0,.65.29.8.54.34.59.6a6.06,6.06,0,0,0,.24,1.35c.15.24.65,1.12.8,1.43s.47.65.6.63.18-.26.29-.29.31,0,.52.29.65.62.73,1,.31.8.1,1.22a8.46,8.46,0,0,0-.42,1,3.45,3.45,0,0,0-.1,1.12c0,.26.31,1.79.39,2.21a1.28,1.28,0,0,0,1,1c.61.1.66.26,1.1,0a4,4,0,0,1,1.07-.5c.26-.05,1.09,0,1.19.21s.29.88.52,1.3a7.9,7.9,0,0,0,1.28,1.35c.28.26.44.38.59.27s0-.45.19-.74.36-.16.54-.58,0-.64.24-.75a1,1,0,0,0,.39-1.42,6.57,6.57,0,0,1-.76-1.35,1.87,1.87,0,0,1,0-1.51,4,4,0,0,0,.18-1.72,12.94,12.94,0,0,1,.39-3.06,4.43,4.43,0,0,1,1.72-1.23,8.83,8.83,0,0,1,2.65-.44c1.35,0,1.74-.33,2,.13a2.14,2.14,0,0,1-.11,1.41,4,4,0,0,0-.1,1.22,3,3,0,0,1,.08.73c-.06.18.1.18,0,.36s-.21.21-.39.34.23.47.36.62a1.38,1.38,0,0,0,1,.44,3.82,3.82,0,0,1,1.33.08,2.79,2.79,0,0,1,1,1.17c.15.39.36.44.38.7s-.07.68.16,1,.47.29.55.63,0,.7.2.83.58.39.63.7a1.25,1.25,0,0,0,.23.81,7.91,7.91,0,0,1,.7,1.19A6,6,0,0,0,98,222.4c.34.44.55.83.89.83a5.18,5.18,0,0,0,.7,0c.13,0,.34.11.34.42s0,.31-.21.47-.36.18-.16.59.26.68.13.78-.44.42-.28.78.6.47.67.84-.23.75-.26,1.19a8.4,8.4,0,0,1-.07,1.3c-.08.16-.39.42-.45.62s-.1.29-.23.21,0-.28-.26-.23-.44-.07-.26.26.26.26.29.62a6.48,6.48,0,0,1,0,1.15c-.05.23-.13.52.11.44s.23-.24.36-.29a.19.19,0,0,1,.29.16c0,.18-.11.44.2.57s.32-.41.6-.18a5.8,5.8,0,0,1,1,.8c.16.24,0,.32.52.84s.39.23.52.52.31.13.31.41a1.79,1.79,0,0,0,.13.65c.06.13,0,.5.19.44s.44-.31.39-.49-.19-.23-.19-.36.26-.24.26-.42-.2-.16-.18-.39.34-.47.42-.68a4.31,4.31,0,0,0,0-1.56c-.1-.2-.39-.07-.31-.33s.18-.5.1-.68-.49-.88-.62-1.14-.34-.39-.21-.63a1.71,1.71,0,0,0,.21-.7c0-.15-.21-.93-.21-1.19a1.72,1.72,0,0,1,.16-.91c.15-.21.18-.6.52-.55s.44.18.67.21.55-.05.37-.37-.52-.41-.68-.78-.49-1-.08-1.09.58-.26.73-.08.31.34.42.16.28-.34,0-.57-.39-.24-.39-.47a3.39,3.39,0,0,1,.16-1.09,1.85,1.85,0,0,1,.7-.88,4.72,4.72,0,0,0,.88-.52c.13-.16.08-.26.16-.52s0-.71.15-.84.58-.65.94-.65.49-.28.62-.41.11-.29.37-.29a4.26,4.26,0,0,0,1,0c.23-.08.42-.23.62-.28s.45.18.71.07,1-.46,1-.46a4,4,0,0,1,1,.44c.31.21.73.05.88.31a2.48,2.48,0,0,1,.45.91,2.31,2.31,0,0,1,0,1.2.85.85,0,0,0-.13.7c.11.26.39.78.47,1a1.17,1.17,0,0,1,0,.91,1.52,1.52,0,0,0,0,1.07c.11.23.08.49.34.39a.61.61,0,0,0,.39-.5.81.81,0,0,0,0-.44.55.55,0,0,1-.06-.42c.06-.18.34-.36.42-.41s0-.31.15-.34.45-.13.63.11a2.15,2.15,0,0,1,.39.67,1.53,1.53,0,0,0,.18.62c.13.24.68.55.75.63s.29.34.21.52-.41.39-.36.67a1.35,1.35,0,0,0,.41.71c.08,0,.46-.13.57,0s.34.52.4.63.31.2.33.52-.07.44,0,.72a5.09,5.09,0,0,0,.83,1,2.06,2.06,0,0,0,1.09.57,7.83,7.83,0,0,1,.78-.12c.29,0,.73-.06.78.18s.44.46.47.64.26.27.44.34.24.6.24.8,0,.45.23.5a.57.57,0,0,1,.39.29c0,.1.1.3.18.34s.57,0,.68,0,.15.31.39.31.57-.42.78-.44.36.19.67.13.64-.26.6-.37,0-.36-.31-.36-.62.1-.68-.1-.1-.34-.28-.42a.57.57,0,0,1-.26-.26,2,2,0,0,0-.42-.18c-.13,0-.34-.24-.28-.37a.65.65,0,0,1,.33-.44.82.82,0,0,0,.37-.75c0-.29,0-.29,0-.49s0-.24-.39-.34-.18.1-.34-.11a1.89,1.89,0,0,0-.59-.52c-.19-.07-.37,0-.47-.36a1.78,1.78,0,0,0-.44-.75c-.16-.13-.26-.24-.26-.39s.1-.26-.16-.52-.39-.34-.39-.47a.83.83,0,0,0-.29-.5c-.18-.18-.28-.28-.28-.46a5.31,5.31,0,0,0,0-.68.65.65,0,0,1,.11-.52c.1-.1.23,0,.28-.36s.26-.57.21-.81-.31-.65-.39-.62-.62-.29-.65-.44A.91.91,0,0,0,122,221c-.05-.08.26-.47.39-.47s.16.19.42.26.7-.26,1-.23.37.39.63.36,0-.49.26-.59.46.07.49-.29-.21-.23-.1-.55-.21-.33-.32-.52-.33,0-.33-.36.15-.42,0-.6-.26-.23-.24-.39,0-.49.16-.49-.16-.16-.39-.31-.24-.24-.44-.39-.26,0-.52-.19-.52,0-.52-.4.41-.5.36-.82-.7-.65-.65-1a7.6,7.6,0,0,0,.11-1.14.78.78,0,0,0-.19-.55,1.34,1.34,0,0,1-.23-.73c0-.18-.08-.52-.18-.39s-.11.34-.24.34-.18,0-.23-.08-.31-.65-.21-.83.24-.16.42-.42.36-.33.26-.62-.47-.26-.53-.49,0-.6-.12-.78-1.12-.5-1.3-.73-.6-.75-.52-.88.15-.29.39-.26a.85.85,0,0,0,.49-.19s.11-.49,0-.49a1,1,0,0,1-.42,0,.62.62,0,0,1-.41-.28c-.08-.16-.24-.21-.24-.34s0-.47-.13-.39-.23.34-.36.42-.47.46-.7.1-.47-.6-.39-1a3.13,3.13,0,0,0,0-.83c0-.26-.16-.89.05-1s.42-.15.44-.34a.54.54,0,0,0-.2-.59c-.26-.24-.34-.11-.39-.44a1.87,1.87,0,0,0-.47-.81c-.16-.18-.21-.13-.37-.47a1.57,1.57,0,0,0-.44-.62c-.21-.21-.41-.52-.62-.7s-.55-.21-.62-.52a2.36,2.36,0,0,0-.5-.76c-.08-.1-.31-.34-.31-.49s-.23-.44-.34-.83a4.81,4.81,0,0,0-.21-.71c0-.13-.39-.49-.46-.67s-.11-.49-.5-.42-1,.13-.8-.13a6.69,6.69,0,0,0,.49-.78c.1-.26.21-.66,0-.9a1.81,1.81,0,0,1-.45-.66,3.89,3.89,0,0,1-.1-.8c0-.31-.21-2-.21-2.19a1.83,1.83,0,0,0-.36-.88c-.18-.23-.6-.49-.52-.75a4.08,4.08,0,0,1,.88-1.25c.29-.21.7-.78,1.07-.47a1.85,1.85,0,0,1,.62,1c0,.19,0,.42.26.42a3.44,3.44,0,0,1,1.15.21,4.08,4.08,0,0,1,.8.67c.34.37.13.56.47.68s.39-.08.65-.18a1.22,1.22,0,0,1,.86,0c.2.1.18,0,.36-.05s0-.55.44-.29.55.53.81.55.8-.17.93,0,.62.31.74.54a5.77,5.77,0,0,1,.26,1.07,2.19,2.19,0,0,0,.27.73,1.56,1.56,0,0,1,.16.49c.06.16.39.21.55.08s.62-.83.94-.65.25.73.38,1,1,.39,1.23.39.52-.07.52.42.45.64.58.93.18,1,0,1.09-.77-.23-.92-.31-.34.13-.38.21a.43.43,0,0,1-.32.31c-.29.1-.32-.05-.32.29s-.26.57,0,.51a7.08,7.08,0,0,1,1.09-.18c.34,0,.47.42.39.52s-.31.05-.31.24-.1.48.18.48.63-.22.78-.16a1.19,1.19,0,0,1,.37.68c-.06,0-.34,0-.34.14a.68.68,0,0,0,.15.55c.19.15.78.26.89.39a.77.77,0,0,0,.44.33.39.39,0,0,0,.44-.33c0-.24.13-.29-.28-.6s-.91-.42-.78-.76.75-1.05,1-1.07.23-.23.49-.2.55.29.81.36.65.11.67,0,.42-.11,0-.26-.41-.05-.54-.29a1,1,0,0,1-.13-.72c.08-.16.26-.26.57-.42s.31-.44.44-.6.18-.41.42-.41.46.18.78.18.93-.52,1.1-.61a.76.76,0,0,1,.72,0c.28.14.59-.07,1.11,0s.39.27.81.27a7.26,7.26,0,0,0,1.8-.39c.15-.1.25,0,.59-.15s.55-.14.57-.42.16-.47-.1-.7a1.48,1.48,0,0,0-1.06-.34c-.37,0-.5-.05-.63-.29a.91.91,0,0,0-.52-.52c-.36-.18-.67-.23-.85-.49s-.24-.42-.5-.35a1.92,1.92,0,0,1-.83,0c-.16-.07-.19-.33-.19-.48s.29-.34.58-.37.54,0,.31-.26a1.09,1.09,0,0,0-.65-.39c-.31-.05-.24.13-.31-.05a2.48,2.48,0,0,1-.13-.47s-.22-.2-.22,0-.16.26-.4.52-.45.36-.68.23-5.31-3.45-5.44-3.76-.7-.84-.49-1.1.39-.59.31-.75-.7-.78-.67-1,.33-.47.36-.81,0-.52-.47-.65-1.25-.46-1.19-.88,0-.88.44-1a3.08,3.08,0,0,0,1.51-.72,1,1,0,0,0,.26-1c-.06-.34-.68-.4-1-.68s-.44-.7-.73-.93-.68-.26-1-.44a2.18,2.18,0,0,0-1.3-.29c-.31.11-1.7-.18-1.63-.59s.3-.68.3-.89-.2-.49-.07-.6.39-.26.23-.57-.52-.57,0-.6.8.06,1.19.06a5.81,5.81,0,0,0,2.39-.32c1.15-.41,1.64-1.06,2.5-1.37a10.32,10.32,0,0,1,2.86-.52c.26.05.72.24,1.22.39a3,3,0,0,0,1.39,0c0-.06.36-.29,0-.42s-.87-.31-.61-.47.27-.23.64-.23.63.1,1-.16.7-.73,1-.73.44.08.75-.1,1.15-.93,1.41-1,1.43-.18,1.71.08A1.62,1.62,0,0,1,139,167a1.28,1.28,0,0,1-.44.6c-.16.16-.42.34-.26.59s.38.61.71.58.95-.18,1.06,0a1.21,1.21,0,0,1,0,.73c-.05.21.1.42.41.75a2.49,2.49,0,0,0,.91.58c.34.15.47.07.91.07s.6-.1.84.16a7.65,7.65,0,0,0,.8.65c.34.29.81.39.91.82s-.08.77,0,.84,0,.21,0,.39.28.34.28.63-.23.49-.23.62.05.16.23.26.21-.29.31-.1.13.52.21.59.34,0,.39-.21.26-.41.37-.23l.18.34a2.32,2.32,0,0,1,.36-.44c.11,0,.65-.34.89-.08a1.06,1.06,0,0,0,.72.34.62.62,0,0,1,.63.36c.18.37.41.52.47.73s.46.62.54.75a2.47,2.47,0,0,1,.16.81.92.92,0,0,0,0,.52c.08.1.59.38.65.59a2.53,2.53,0,0,0,.15.68,3.16,3.16,0,0,1,.26.81,2.45,2.45,0,0,1,0,.47c0,.15-.05.1.39,0a1.16,1.16,0,0,1,.91.31,3.57,3.57,0,0,0,1,.39,2,2,0,0,0,1.33,0,3.35,3.35,0,0,0,.86-.62c.13-.16.28-.26.28-.41a2.48,2.48,0,0,0-.26-.79,4.51,4.51,0,0,1-.28-1.19c0-.19.18-.29.41-.39a.87.87,0,0,0,.37-.76,2.27,2.27,0,0,1-.13-.78,4.69,4.69,0,0,1,.28-.75.52.52,0,0,0-.13-.63c-.23-.18-.75-.52-.75-.52a1.56,1.56,0,0,1,0-.83,1.25,1.25,0,0,0,0-.91c-.1-.15-1-.31-1.14-.39s-.55-.16-.39-.46.59-.55.65-.84-.73-.93-.89-1.06,0-.55.13-.68-.39-.44-.31-.67a2.62,2.62,0,0,1,.62-.78,1.21,1.21,0,0,0,.32-1.15c-.13-.26-.68-.72-.73-1.06s-.31-.37-.68-.78-.57-.34-.47-1a7.14,7.14,0,0,0,.11-1.3c0-.26-.11-.62.08-.88s.05-.23.33-.62.5-.78.73-.86a2.09,2.09,0,0,1,.57-.11.44.44,0,0,0,.45-.31,1.28,1.28,0,0,0,.13-.49,8,8,0,0,1,.31-1c0-.08.08-.47-.13-.6s-.29-.18-.31-.44-.63-.06-1-.45-.8-.36-.83-.72-.18-.24-.68-.89a1.29,1.29,0,0,0-1.19-.67,4.84,4.84,0,0,1-1.38,0,4.21,4.21,0,0,1-1.58-.73,5.8,5.8,0,0,0-1.64-.77c-.5-.17-2.06-.12-2.76-.35a6.61,6.61,0,0,1-1.66-.55,5.9,5.9,0,0,1-1.12-.9c-.26-.37-.83-.86-1.06-1.23s-.68-.36-.86-.72.13-.42-.18-.68-.52-.16-.65-.36-.37-.6-.16-.76.39-.08.42-.36.1-.42-.13-.68-.58-.31-.84-.57-.39-.44-.46-.49-.37.39-.52.54-.21.5-.7.34a9.4,9.4,0,0,0-1.72-.18c-.16,0-.73,0-.78.13s-.42.41-.47.7-.15.73-.39.81a4.16,4.16,0,0,0-1,.36c-.42.23-.63.18-.65.47s.13.34.18.49,0,.65-.21.78-.54,0-.67.24a2.83,2.83,0,0,1-.37.59c-.2.21-.23.52-.67.6s-1.33-.23-1.35-.39.1-.21-.39-.62-.78-.24-.84-.6-.54-.68.26-.73,1,.08,1.17.31a1.17,1.17,0,0,0,.84.47c.23,0,.15-.18.36-.18s.1.18.39.18a2.06,2.06,0,0,0,.83-.31c.13-.08.52-.16.23-.31s-.28,0-.44-.21-.36-.16,0-.49a4.55,4.55,0,0,1,.94-.89c.31-.18.65-.41.88-.54l.55-.29a2.66,2.66,0,0,0,.52-.42c.15-.15.33-.26.31-.46a.92.92,0,0,0-1.38-.42c-.26.21-.34.39-.68.44s-.57,0-.65-.08-.26-.31,0-.49.68-.28.81-.44.15-.44,0-.49-.18-.16-.54,0a3.34,3.34,0,0,1-.91.13.5.5,0,0,0,0-.44c-.1-.21-.44-.11-.46-.37s.59-.44.33-.7-.7.13-.77-.26-.11-.67.28-.83.83-.42.83-.68a.94.94,0,0,0-.62-.85,15.47,15.47,0,0,1-1.61-.26,2.77,2.77,0,0,1-.89-.45c-.28-.23-1.82-1.5-2-1.27s0,.52.18.62.81.34.7.58.31,0-.54.26-.6.13-.86.28a4.08,4.08,0,0,0-.6.55c-.18.15-.34.47-.78.23a2,2,0,0,1-1-1c-.2-.5-.39-.86-.49-1.07s-.31-.13-.39-.41a5.55,5.55,0,0,1-.08-.83c0-.42.24-.91-.08-1.25s-.36-.94-.8-.94-.42.21-.78.42a2.07,2.07,0,0,1-1.56.34c-.5-.21-.5-1.07-1-1.17s-.65.13-1.3,0a3.27,3.27,0,0,1-1.58-.6c-.49-.34-.34-.26-1.2-.44s-1-.18-1.19-.37a5.56,5.56,0,0,0-1-1,5.71,5.71,0,0,1-.89-.62c-.1-.16,0-.47-.26-.45s-.36.37-.65.42a4.59,4.59,0,0,0-1.09.13c-.2.13-.23.29-.49.49s-.16.29-.52.32-.13-.68-.34-.65-.26.91-.65.72-.31-.52-.44-.57-.49.44-.55,0,.29-.63.26-.81-.78-.28-.83-.44-.67-.08-.39-.49.18-.31.7-.34.84-.42,1.12-.57.16-.68.57-.57.29.41.86.49.5-.31,1-.08.46.39.72.47.29-.16.73-.1.44.26,1.09.44.42.26,1.07.28.75.24,1.12-.07.78-.29,1-.58.39-.91.6-1,.29-.33.65-.33.75.2,1,.15a1.88,1.88,0,0,0,.78-.49,1.62,1.62,0,0,1,.52-.34c.26-.13.29-.31.39-.42s-.15-.57.16-.65a3.3,3.3,0,0,1,.81.06c.1,0,.18-.32.44-.89a2.88,2.88,0,0,1,1-1.43c.47-.23,1-.31,1.2-.65s.34-.85,0-.8-.78.28-1.24.41a5.13,5.13,0,0,0-1.33.34c-.29.21-.26.39-.55.49s-1-.1-.75-.46.29-.52.57-.57.44,0,.63-.08.23.16.23-.4-.62-.77-.68-1.21.45-.58.21-.89-.91-.1-1-.44.37-.7-.18-.85-.78.41-1,0a.76.76,0,0,1-.11-.78c.08-.19.06-1-.07-.94s-.26.15-.34-.19-.11-.52-.26-.52-.13.21-.08.5a1.08,1.08,0,0,1-.1.83c-.18.31-.31.48-.6.32s-.36-.29-.31-.71-.76-1.3-.89-1.58-.52-.62-.33-1.09.18-1.07.62-1.38a4.49,4.49,0,0,1,1.9-.84c.52,0,.93.22,1.24-.15s.6-.65.42-.86-.73,0-.57-.39.41-.36.57-.52a.65.65,0,0,0,.21-.65c-.08-.26-.08-.62.15-.7s.58.41,1.36,1.09a2.87,2.87,0,0,0,2.08.94c.93,0,1.37-.16,1.68.23s.23.49.56.6.41.26.54.65a1.18,1.18,0,0,0,.54.65,1.83,1.83,0,0,1,.68,1.14,1.18,1.18,0,0,0,.44,1c.34.31,1,.57,1.09.9s.24,1,0,1.21-.7.73-.88.52,0-.66-.16-.74a.49.49,0,0,0-.65.34c0,.34,0,1-.13,1.33a.66.66,0,0,1-.49.44c-.16,0-.52.15-.31.31s.08.26.49.21.39-.18.83-.24.5,0,.58,0,.13.23.31.13.36-.29.13-.39-.47,0-.47-.16a1.15,1.15,0,0,1,.68-.72,1,1,0,0,1,1,0,2.16,2.16,0,0,0,1.17,0,5.34,5.34,0,0,0,1.14-.86,2.56,2.56,0,0,0,.78-1.22c0-.29-.13-.34-.34-.52s-.39-.33-.31-.44-.18-.44-.34-.55-.26,0-.18-.33a.8.8,0,0,0-.21-.92,7.14,7.14,0,0,1-1-.91c-.23-.31-.15-1.14-.36-1.84s-.23-1.51-.68-1.69a6.2,6.2,0,0,1-1.89-1.59,17.93,17.93,0,0,0-1.23-1.58,19.34,19.34,0,0,1-1.43-1.82,7.68,7.68,0,0,0-1.11-1.2,3.29,3.29,0,0,0-1.09-.6,3.7,3.7,0,0,1-.94-.44c-.18-.18-.65-1-.81-1.06s-.7-.29-1.11-.5a2.43,2.43,0,0,1-1.2-1,7.11,7.11,0,0,1-.6-1.54,6.77,6.77,0,0,0-.46-2.13c-.29-.42-.58-.36-.55-.93s-.29-1-.29-1.64.13-1-.39-1.48-.59-.19-1.06-.58a2.31,2.31,0,0,1-.63-1.19,4.42,4.42,0,0,0-.59-.83,14,14,0,0,1-1.72-2.32,8.14,8.14,0,0,1-.36-1.79,1.48,1.48,0,0,0-.65-1,11.36,11.36,0,0,1-3.17-1.74c-.91-1-2.16-2.76-2.24-3.93s-.44-3.35.16-4a4.07,4.07,0,0,0,.91-1.43c.07-.31.07-2,.07-2.24a7.64,7.64,0,0,1,1-2.23c.42-.5.68-.81.65-1.1s-.44-.59-.7-1.24a5.79,5.79,0,0,1-.57-1.9c0-.47-.31-.75-.36-.94s-.26-.57-.13-.8.15-.26.49-.42.44-.05.52-.47-.08-.91.18-1.14.37-.36.57-.41.5,0,.5-.21-.18-.52-.08-.6.34-.29.52-.23a9.12,9.12,0,0,1,1.12.57c.2.13.15.21.57,0s.39-.13.57-.39.6-1.25,1-1.12.36.55.73.39.7-.55,1-.68.65-.18.86-.39.41-.23.26-.52-.37-.41-.16-.72a2.69,2.69,0,0,1,.89-.84c.26-.1.93-.07,1,.13s-.08,1.15-.08,1.46.44.78.67,1a1.14,1.14,0,0,1,.45.91c0,.44-.19.65-.6,1a5.73,5.73,0,0,1-1.87,1.09c-.52.13-1.15,0-1.28.18s-.26.1-.26.55.08.83.37.75,1.09,0,1.25.23.33.52.2.78-.31.21-.18.58.83.49.81.93-.24,1.07-.24,1.3-.15.81.32.37,1.35-1,1.81-.76a7.52,7.52,0,0,1,1.93,1.3c.28.42.67,1.17.83,1.38s0,.23,1.12.75,2,.89,2.8,1.28,1.41.62,2.19,1,.52.52.91.65a3.62,3.62,0,0,1,1.22.42,3.16,3.16,0,0,1,1.25,2.21c.05,1,.31,1.3-.13,2s-.89.6-.52,1.19a2.91,2.91,0,0,0,.8,1c.5.46.32.31.73.93s.73.86.7,1.35a4.15,4.15,0,0,1-.44,1.25c-.16.47-.34.73-.13.94s.49,0,.83-.16,1-.57,1.46-.21a2.81,2.81,0,0,0,1.3.55c.44.1,1.25.86,1.9,1.12a6.75,6.75,0,0,0,1.94.54c.47,0,.37-.36.91-.23s.94.49,1.36.41a5.94,5.94,0,0,0,1.22-.41c.21-.11.44-.31.67-.42s.24-.52-.13-.44-.49.13-.59.1a11.91,11.91,0,0,1-1.46-1.69c-.23-.36-.73-.57-1.56-.72A14,14,0,0,1,134.46,82a6.23,6.23,0,0,1-1.3-2,14.46,14.46,0,0,0-.73-2,8,8,0,0,0-1.79-1.3c-.31-.13-.88-.28-1-.83a8.53,8.53,0,0,1,0-2.42,2.94,2.94,0,0,1,2-1.5c.75,0,2.31.57,3,.62l.73,0s1.17,1.12,1.79,1.17,1.27-.41,1.66-.44,1.2.08,1,.49-.21.26-.21.71,0,.36.45.59.78-.07,1,.26a2.75,2.75,0,0,1,.41,1c.18.5.52.78.55,1s.36.39.52.73a6.12,6.12,0,0,1,.47,1.3c0,.23-.29.39-.08.55s.23-.11.57-.11.65-.1.8.34a2,2,0,0,1,.08.88c0,.34.42.68.44.89s0,.41.08.52.24,0,.34-.24.23-.59.42-.52.44.06.52.37a1,1,0,0,0,.44.62,2,2,0,0,1,.44.18c.23.13.44.24.49.5a.56.56,0,0,1-.2.52c-.08,0-.21-.08-.21.23s-.05,1,.31.83.44-.41.57-.41.42.33.44.52.13.52.29.54a1.39,1.39,0,0,0,.65-.21c.23-.1.47.19.52-.1a2.82,2.82,0,0,0,0-.65c0-.26,0-.75.36-1s.68-.18.81-.37.08-.46.15-.77.21-.37.24-.6a2,2,0,0,0,0-.6,2.25,2.25,0,0,0-.62-.75c-.34-.26-.57-.29-.44-.55a.78.78,0,0,0-.05-.88c-.24-.21-.5-.21-.47-.52a2,2,0,0,1,.18-.73.47.47,0,0,0-.44-.55c-.31,0,.23.21-.55,0a4.18,4.18,0,0,1-1.69-.59c-.18-.21.05-.39-.49-.42a2,2,0,0,1-1-.23c-.31-.16-.7-.52-.88-.63s-.52,0-1-.13a1.89,1.89,0,0,1-1-.67,4.5,4.5,0,0,0-.42-.55c-.18-.23.24-.26-.26-.65s-.67-.15-1-.6-1.27-1.11-1.33-1.61-.23-1.66,0-1.82.5-.93.94-.93.6.26,1,.28.42.24.91,0,.57-.55.94-.76a3.06,3.06,0,0,1,1.81.16,3.69,3.69,0,0,1,.73.6,1.83,1.83,0,0,0,.83.33c.11,0,.71.13.34-.07s-.73-.37-.83-.45a2.09,2.09,0,0,1-.36-.67c0-.08.2-.39.83-.29a4.24,4.24,0,0,1,1.77.78,4.72,4.72,0,0,1,1.24,1.17c.26.37.6.73.94.76l1.25,0a1.59,1.59,0,0,1,.88-.16,4.13,4.13,0,0,0,.83.24c.29,0,.81-.08,1.07.23a9.48,9.48,0,0,1,.86,1.27c.15.32.49.73.67.73a1.12,1.12,0,0,1,.73.5c.18.28.42.54.31.72s-.34.13-.13.52a3.66,3.66,0,0,0,1,.94,1.07,1.07,0,0,1,.55.62c.13.39.1.86.18,1.17s.21.6.39.6a1.18,1.18,0,0,0,.6-.34,1.93,1.93,0,0,1,.67-.34c.16,0,.32-.31.45-.46a.81.81,0,0,1,.59-.39c.29,0,.5,0,.58-.21s.15-.6-.13-.7-.47-.13-.45-.52.13-.94-.31-1.12-.47,0-.73-.18a2.07,2.07,0,0,1-.75-.65,1,1,0,0,0-.6-.52c-.28-.11-.67-.24-.78-.5s-.36-.39-.26-.65.18-.41.05-.62a11.29,11.29,0,0,0-1-1.22c-.15-.13-.26-.24-.54,0s-.42.44-.78.28a1,1,0,0,1-.68-.83c0-.39.1-.57-.52-.83a2.18,2.18,0,0,0-1.22-.26,1.73,1.73,0,0,1-.63,0,.22.22,0,0,1-.33.08c-.24-.13-.94-.37-1.17-.76s-.89-1.61-1-1.87-.31-.7-.39-.7S150,64,150,64a1.2,1.2,0,0,0,0,.39,7.09,7.09,0,0,1,.23,1.17,1.59,1.59,0,0,1-.1,1.12c-.16.23-1.09.91-1.59.72a13.79,13.79,0,0,1-2.42-1.24,5.83,5.83,0,0,1-1-1.28c-.1-.23-.33-.54-.41-.7a2.63,2.63,0,0,1-.08-1,1.85,1.85,0,0,0-.08-.83,1.5,1.5,0,0,1-.08-.81c.08-.18.16-.85.78-.72a3.55,3.55,0,0,0,1.12.18c.21,0,.7.05.31-.39s-.44-.57-.8-.78a5.4,5.4,0,0,1-1-.49c-.32-.26,0-.45-.47-.6a4.25,4.25,0,0,1-1-.44,2.2,2.2,0,0,1-1-1.07,7.31,7.31,0,0,0-1-1.85,5.91,5.91,0,0,1-1-1.22,3.47,3.47,0,0,1,1-2.83c.73-.39,2-1.3,2.73-1.25a2.73,2.73,0,0,1,1.84,1c.39.52.29.49,1.15.59a8.43,8.43,0,0,1,1.48.24c.34.1.57.23,1.27.41s1.56.45,2.08.11,2.84-1.61,3.28-1.87a26.65,26.65,0,0,0,2.68-1.33,12.73,12.73,0,0,0,1.11-1.2.37.37,0,0,0-.05-.57c-.18-.1-.6-.36-.39-.49a.63.63,0,0,1,.55-.16c.33,0,.67,0,.62-.18a5.42,5.42,0,0,1-.16-.78.79.79,0,0,1,.34-.7c.31-.18.57-.16.89-.49s.52-.81.8-1.12a1.92,1.92,0,0,1,1.25-.76,25,25,0,0,1,2.91-.28c.81,0,1.46-.05,1.79.44s.94,1.2.94,1.56-.13.47,0,.7a1.72,1.72,0,0,0,.49.6c.16.08.06.78.55.21s.81-.81,1.17-.73.75.62,1,.55.86-.65,1.28-.55,1,.81,1.32.57.44-.52,1-.86a8.69,8.69,0,0,0,1.45-1.11c.37-.34.55-1.12,1-1.28a12.42,12.42,0,0,1,1.92-.1c.5-.05,1.15-1.67,1.75-2.24a10.05,10.05,0,0,1,1.87-1.61c.41-.15.6-.21.49-.62s-.52-.81-.18-1,.21-.26.21-.5a1.92,1.92,0,0,1,.31-.86c.16-.23.6-.67,1-.23a2.67,2.67,0,0,1,.55,1c.08.24.49.31.57.42a.71.71,0,0,1,.31.67c-.08.39-.31.55-.34.81s-.18.78-.21,1a.89.89,0,0,1-.18.57c-.1.11-.67.39-.1.68a2.08,2.08,0,0,0,1.32.28c.45,0,.94.05,1.2-.1s.21-.83.7-.34a1.65,1.65,0,0,1,.57,1.07c0,.13.19,0,.5-.29a2.52,2.52,0,0,1,1.43-.65c.36,0,.62.39.91.78s0,.34.83.34a6.11,6.11,0,0,1,2.21.44c.41.21.13.29,1,.18s1.15-.21,1.64,0a6.63,6.63,0,0,0,1.64.26,4.51,4.51,0,0,1,1.22.23c.34.11.52-.13,1.09.11a8.87,8.87,0,0,1,1.4.83,2.46,2.46,0,0,0,1.56.65,6,6,0,0,0,2-.39,14.54,14.54,0,0,1,2.86-.13,6.39,6.39,0,0,1,2,.42,4.13,4.13,0,0,0,.83.67c.29.13.73.16.75.34s-.13.29,0,.49.55.45.76.71a3.15,3.15,0,0,1,.57.83,7.87,7.87,0,0,1,.34,1.14s.1.34.72-.1a3.4,3.4,0,0,0,1.2-1.41c.1-.33,0-1.17.26-1.43a1.73,1.73,0,0,0,.57-.83c0-.26-.23-.57.39-.65s1.2-.23,1.25-.39-.55-1.77-.13-2.1,2.23-.89,2.39-1.2.18-1,.47-1.27,1.09.08,1.14-.44-.28-1-.31-1.38a6.81,6.81,0,0,1,.32-1.43c.1-.47-.74-.83-.66-1.25a5.16,5.16,0,0,0,.26-1.71c-.13-.34-.78-.65-.78-1.15s.44-1,.39-1.38-.91-1.11-.83-1.5.49-.71.62-1-.13-1.48.24-1.66,1.58.16,2.1-.23,3.36-3.83,3.67-4,1.14.1,2.1-.11,1.82-.23,1.64-1.27a10.56,10.56,0,0,0-1-2.49,7.23,7.23,0,0,1-.68-2.94c.11-.78-.15-1.87-.13-2.71a3.59,3.59,0,0,0-.33-1.84,4.51,4.51,0,0,1-.58-1.59c0-.52.21-1.14-.44-1.32s-.65.15-1.66,0a11.12,11.12,0,0,1-2.11-.65,10.78,10.78,0,0,1-2.1-.47A12.92,12.92,0,0,0,220,5.52a3.17,3.17,0,0,0-1.48.31c-.68.23-1.2.42-2.19.73s-1.71.31-1.71,1S214.41,8.66,215,9s1.56.49,1.82,1.59a26.11,26.11,0,0,1,.41,3.74,3.62,3.62,0,0,0,.68,2c.44.7,1.09,1.17.73,1.79a6.51,6.51,0,0,0-1.15,2.31c0,.73,0,2-.52,2.06s-2.83.15-3.74.7a20.55,20.55,0,0,1-3.07,1.38c-.36.1-.23-1.67-1-1.46a46.75,46.75,0,0,1-4.76,1.43c-.85,0-4.26,0-4.26,0a34.5,34.5,0,0,1-3.38,2.33,30.9,30.9,0,0,1-5,2,29.48,29.48,0,0,1-3.82-.88L184.29,24s-3.51-.86-4-1.1-1-.93-1.56-1.17a7.5,7.5,0,0,0-2.55.26,18.48,18.48,0,0,1-1.92,2.16c-.37.18-2-1.27-2.37-1.69s-3.19-.34-3.4-.28-.24-2.24-.5-3.12-.67-2-1.19-2.06a2.68,2.68,0,0,0-1.59.42,24.71,24.71,0,0,1-2.31,1L161.65,18a6.09,6.09,0,0,1-2.21.54c-.52-.15-1.61-1.19-2.05-1.17a8.87,8.87,0,0,0-2,1.07,16.4,16.4,0,0,0-2.08-.91c-.26,0-1.53,1.4-1.4,1.74s.49,1.53.15,1.84-1.56,1.15-1.56,1.15-1.82.26-2-.05a14.16,14.16,0,0,0-1.25-2.45c-.18,0-.62,1-.72,1.12a12.91,12.91,0,0,1-2.29.81c-.34.07-1,.13-1.17.49a6.82,6.82,0,0,1-1.43,1.22s-6.78-.1-7.59,0-5.54,1.9-5.54,1.9-.65.36-.67.23a22.42,22.42,0,0,0-2.16-1.32l-1.35.83-.91,1.82s-5.46.44-6.21.34-4,0-4.14-.06-.26-.7-.7-.28a11.41,11.41,0,0,0-1.22,1.77,2.64,2.64,0,0,0-.18.78c0,.49-.47,4.49-.47,4.93a6.69,6.69,0,0,1-.26,1.33l-2.44-1.27S106.49,36,106,36.48s-3.3.72-3.9.67a12,12,0,0,0-2.31.42c-.47.08-1.64-.86-2-1s-1.11.28-1.3.18-.52-1.22-.83-1.25-3.58.08-3.58.08a6,6,0,0,0-1.41.62,1.44,1.44,0,0,1-1.09.18s-1.46-.7-1.79-.49a12.06,12.06,0,0,0-2.26,1.27c-.29.39-.71,1-1.23,1.75s-1.09,1.48-1.09,1.48a9.26,9.26,0,0,0-.93,1.06c-.19.31-.71,1.8-.71,1.8a12.66,12.66,0,0,1-1.14,1.5,23.42,23.42,0,0,1-4,.24s-2,1.53-2.21,1.61a19.59,19.59,0,0,1-2.75-.94,27.89,27.89,0,0,0-2.86.11,5.38,5.38,0,0,0-1.33,1,6.29,6.29,0,0,1-1,.7L64.36,48l-1.3-.31L61.5,48l-1.07.37s-1.63-.24-2.31-.24-2.94-.13-3.33.42a12.46,12.46,0,0,0-1,2.31c-.23.63-.18,1.28-.7,1.85a1.11,1.11,0,0,0-.28,1.14,18.91,18.91,0,0,1,1.61,2,7.68,7.68,0,0,1,.23,2.19,9,9,0,0,1-.28,3.25c-.47,1-1.51,1.63-1.82,2.21a4.88,4.88,0,0,0-.44,1.74,1.6,1.6,0,0,1-1,1.06s-.78-1-1.22-.7-.68.6-.86.65-.39-.86-.68-.62-.08,1.06-.67,1.25a12.74,12.74,0,0,0-1.54.65l.39,2-1,2L45,72.74a3.42,3.42,0,0,0-.8,1A2,2,0,0,0,44.08,75c.11.36.45.88,0,1.32a10.5,10.5,0,0,0-1,1.56,5.38,5.38,0,0,1,0,1.74A5.17,5.17,0,0,1,42.47,81s.26.65-.31.81-1.95.62-1.95.62l-1.77-.1-1.61.57s-1.27-.47-1.69-.24-.39.68-.65,1.12a5,5,0,0,1-.7,1.2,3.33,3.33,0,0,1-1.12.83s-1.4-.5-1.58.1a1.54,1.54,0,0,0,.21,1.35,5.43,5.43,0,0,1,.64,1.38c.06.47-.44,0,.29,1.14s1.56,1.77,1.69,2.08.29,1.23-.16,1.62a3.49,3.49,0,0,1-1.43.54s-1.45-1.14-1.76-.65a2.86,2.86,0,0,0-.11,1.9,2.42,2.42,0,0,0,.39.7l-.72,1.59a18.85,18.85,0,0,0-1.64,1.27,4.77,4.77,0,0,0-.68.78c-.28.34-.83.31-1.06.6S25.88,101.12,25.88,101.12Z"/>
    </g>
</svg>