<svg id="NETWORK" 
    xmlns="http://www.w3.org/2000/svg" viewBox="0 0 300 300">
    <defs>
          <style>
         .cls-11{fill:#da1a35;}
                
        </style>
    </defs>
   
    <g id="ITALY">
        <path   class="cls-11 aaa" d="M282.48,196.06c1.07-1.37,1-2-.1-3.28-.56-.67-1.14-1.39-.65-2.41a1,1,0,0,0-.38-1.28q-1.07-.84-2.1-1.74c-.92-.81-2.17-1.48-2.64-2.5-.56-1.23-1.3-1.24-2.31-1.23a2.54,2.54,0,0,1-2.65-1.94,11.07,11.07,0,0,0-.63-1.92,1.17,1.17,0,0,0-1.28-.93c-2.63.29-5-.78-7.26-1.75a28.88,28.88,0,0,1-6.26-3.79,34.74,34.74,0,0,0-6.12-4.13,45.27,45.27,0,0,0-8.84-2.9c-2.11-.53-4.1-1.38-6.12-2.1-1.85-.66-3.68-1.44-5.49-2.23a32.78,32.78,0,0,1-6.25-3.17c-1.83-1.32-2.27-2.21-1.78-4.35.09-.37.25-.48.57-.36a2,2,0,0,0,2.6-.77,1.93,1.93,0,0,1,.71-.62,5.1,5.1,0,0,0,2.47-3.88c.37-2-1.76-4.59-4.94-3.62a31.5,31.5,0,0,1-6.27,1.31,30.73,30.73,0,0,0-5.74.61,1.82,1.82,0,0,1-1.69-.21,3.87,3.87,0,0,0-3-.77,4.66,4.66,0,0,1-3.63-1.38,4.48,4.48,0,0,0-3.48-1.53,3,3,0,0,1-3.19-1.76c-.54-1-1.1-2.14-2.54-2.2a.86.86,0,0,1-.44-.23,19.66,19.66,0,0,1-4.6-4.9,4.32,4.32,0,0,0-2.82-1.94,2,2,0,0,1-.92-.47c-2.33-2.25-4.71-4.48-5.82-7.64s-2.44-6.1-3-9.38c-.26-1.66-.5-3.44-1.65-4.71a8.43,8.43,0,0,1-1.79-3.68,19.83,19.83,0,0,0-1.88-4.69,4.12,4.12,0,0,0-2.87-2.42A10.34,10.34,0,0,1,164,97.54c-2.08-1.25-3.72-3.08-5.57-4.65a24.09,24.09,0,0,0-5.66-3.23,15.2,15.2,0,0,1-2.26-1.1c-1.24-.84-2.33-1.89-3.53-2.77-3.15-2.3-4.65-5.54-5.45-9.22-.46-2.12-.3-4.34-1.14-6.42a4.24,4.24,0,0,1-.23-2.63c.17-.62.37-1.25-.28-1.75-.17-.14-.14-.32,0-.53.58-.79,2.47-.74,2.86.13.11.24.13.47.46.38s.2-.33.2-.52a3.38,3.38,0,0,0-.1-.71c-.13-.47-.33-1,.32-1.2s.68.37.81.79a.48.48,0,0,0,.5.42c.46,0,.3-.39.32-.63,0-.85.07-1.7.15-2.56.19-1.82-.17-2.05-1.91-2.3-.73-.1-.68.73-1.24.67a3.38,3.38,0,0,1-.31-1.47.46.46,0,0,0-.5-.54c-.35,0-.46-.28-.27-.58a2.73,2.73,0,0,0-1.67-4.22c-.53-.13-1.08-.44-1.07-1,0-1.25-.44-2.66.76-3.63a2.08,2.08,0,0,0,.51-.76,3.21,3.21,0,0,1,2-2.29,4.38,4.38,0,0,0,2.94-2,.41.41,0,0,1,.54-.17c.59.29,1.57.47,1.6,1s-.88.85-1.55.81-.86.37-1,.84-.16.72.2,1a1,1,0,0,0,1.15-.18c1.33-1,2.77-1.73,4.1-2.69a4.18,4.18,0,0,1,1.84-.81c1.68-.24,2.15-1.27,1.44-2.78-.16-.33-.41-.67-.13-1.11.47.25,1.08.25,1.18,1.06,0,.41.46.69,1,.7a8.28,8.28,0,0,0,2.34-.51,1.27,1.27,0,0,0,.93-1.33.91.91,0,0,0-.76-1c-.69-.23-.3-.64.07-.81a3.74,3.74,0,0,1,3.16-.39c.56.24,1.13.47,1.67.71.82.36,2,.68,1.79,2a.23.23,0,0,0,.28.25,23,23,0,0,0,2.37-3l3.88,3c.57.44.67.79-.12,1.13-.44.19-.93.46-.57,1.16a1.06,1.06,0,0,0,1.53.56A3.28,3.28,0,0,0,173,38a9.31,9.31,0,0,0-3.05-2.63c-.85-.47-1.72-1-1.64-2.22.18-2.44.18-2.45-2.25-3-.69-.16-.76-.46-.43-1a6.62,6.62,0,0,1,1.73-1.69c.59-.47,1.37-.88,1.15-1.8A2,2,0,0,0,166.76,24c-.7-.14-1.38-.36-2.1-.44s-1.74-.37-1.89-1.3c-.12-.7.45-1.3,1-1.76a15.42,15.42,0,0,1,6.43-3.71c.59-.13.62-.49.56-.91s.27-.9-.3-.94c-.83-.05-1.65-.54-2.52-.09a.87.87,0,0,1-.79,0c-.86-.88-2-.5-3-.67s-2-.57-3,.12a.74.74,0,0,1-.51,0c-1.15-.28-2.3-.6-3.46-.85-1.71-.37-3.35-1.35-5.21-.61a1.82,1.82,0,0,1-2.47-.53,1.16,1.16,0,0,0-1-.28,15.71,15.71,0,0,0-2.38,0,2.94,2.94,0,0,1-3.32-1.74,4.77,4.77,0,0,0-.29-.55c-.63-.78-1-1.81-2.21-2a.91.91,0,0,1-.72-1.15,1.77,1.77,0,0,0-.95-2c-1.63-.71-2.27-1.73-1.76-3.5.2-.67-.24-1.1-1-1.09a9.4,9.4,0,0,0-2.62.32,11.69,11.69,0,0,0-3.24,1.86c-.78.54-1.48,1.21-2.61.39a4.24,4.24,0,0,0-2.61-.75c-.68,0-1,.46-1.54.69-1.48.69-3.08.54-4.62.79a4,4,0,0,0-3.57,3.61c-.15.88-.41,1.91-1.57,2a26.26,26.26,0,0,1-2.66-.08c-1.15,0-1.43-.66-1.73-1.5a1.47,1.47,0,0,0-1.91-1,13,13,0,0,1-2.3.53C103.29,7,102.67,8,103,9.62s1.23,3.47.93,5.39a.76.76,0,0,1-1,.62A6.41,6.41,0,0,1,99.39,13c-.18-.26-.41-.45-.68-.3a10.12,10.12,0,0,0-2.58,1.7c-.93,1-.7,2.41-1.27,3.55-.22.44.17.75.7.73s1.31,0,2,0c.37,0,.69,0,.8.48s-.26.6-.55.74a1.74,1.74,0,0,0-1,1.69,10.21,10.21,0,0,1-.16,2,1.28,1.28,0,0,1-1,1.2c-.42,0-.55-.64-.59-1.06-.13-1.25-1.26-2-1.52-3.17,0-.2-.32-.47-.54-.4-.68.2-1.49.08-2,.63a8.56,8.56,0,0,1-3.36,1.83,1,1,0,0,1-1.37-.51c-.27-.59-.65-1.11-.91-1.71a10.41,10.41,0,0,0-4.07-4.64,1.8,1.8,0,0,0-1.68-.11c-.52.19-.27.78-.3,1.2a5,5,0,0,0,.52,2.89,1.33,1.33,0,0,1,0,1.31c-1.1,1.54-1.67,3.42-3,4.81a3.56,3.56,0,0,0-1.31,3c.06.39-.29.6-.41.9-.26.64-1.22,1.1-.71,1.95s1.41,1.55.53,2.66c0,0,0,.13,0,.19.27.76,0,1.38-.75,1.48a3,3,0,0,1-3-2.5,17.51,17.51,0,0,0-.46-2.29,4.72,4.72,0,0,1-.24-2.69c.31-1.13-.22-1.59-1.38-1.25a2.91,2.91,0,0,1-3.53-1.07A30,30,0,0,0,63.52,24a2.08,2.08,0,0,1-.05-2.68,7.58,7.58,0,0,0,1.22-3.43.89.89,0,0,0-.61-1,3,3,0,0,0-3.47,1.71,3.89,3.89,0,0,1-4.06,2.83c-.53,0-1.22,0-1.48.5s0,1.19.33,1.8c.93,1.7,1.62,2.48-.57,4a8.77,8.77,0,0,0-3.13,3.45,2,2,0,0,1-2.39,1.25c-.44-.1-.69-.45-1-.67-1.2-.8-2.71-.67-3.92-1.36-.86-.49-1.35-.08-1.88.47-.21.22-.39.47-.59.71A3.44,3.44,0,0,1,38.65,33a11,11,0,0,0-3.29.06c-.43.07-.74-.18-.93-.64-.27-.63-.59-1.16-1.28-.25a3,3,0,0,1-1.29.8c-1,.38-2,.84-3,1.2a.9.9,0,0,0-.54,1.4,11.24,11.24,0,0,0,3.06,3c.4.26,1.23-.17,1.21.74,0,.55,0,1.1-.08,1.65a1.51,1.51,0,0,1-.18.58,1.08,1.08,0,0,0,.49,1.55,9.58,9.58,0,0,0,2,1.08.93.93,0,0,1,.33,1.69,2.6,2.6,0,0,0-.76,2.89c.11.43.2.86.34,1.27s0,.49-.23.54c-1.9.35-3.06,1.7-4.17,3.09a1.11,1.11,0,0,1-1,.47c-1.07,0-2.14,0-3.21,0a1.5,1.5,0,0,0-1.52,1c-.29.7.39,1,.82,1.34s.74.35.95.74a10.76,10.76,0,0,1,1.32,4.13.52.52,0,0,0,.28.45c.78.38,1.5,1.23,2.32,1.05,1.69-.38,2.36.39,2.74,1.8,0,.06.11.1.14.16a1.21,1.21,0,0,1-.88,1.85,1.69,1.69,0,0,0-1.49,1.83A2.65,2.65,0,0,1,29.05,71c-.32.18-.69.24-.85.67-.36.89-.08,1.31,1.36,1.76.39.13.87.26.85.61a.88.88,0,0,1-.89.66c-.67,0-.8.34-.67.82.37,1.34.54,2.68,1.89,3.63,2.24,1.58,4.79,2.67,6.8,4.57a1.46,1.46,0,0,0,1.55.31c1.53-.65,3.48-.15,4.7-1.69.22-.29.65-.2,1,0a.41.41,0,0,1,.22.61c-.7,1.12-.08,1.87.67,2.63.44.46.65,1-.07,1.43-3.19,2.08-3.88,3.42-3.06,6.76.18.74.53.9,1.2.94a16.08,16.08,0,0,0,3.67-.43,12.52,12.52,0,0,0,4.91-1.48c1.23-.8,1.89-2.22,3-3.17a1.38,1.38,0,0,0,.28-1.17,1.74,1.74,0,0,1,.57-1.52C57.13,86,58,85,59,84.13a.94.94,0,0,1,.94-.24c1.2.36,1.79-.1,1.89-1.38a6.11,6.11,0,0,1,3.35-4.28,31.22,31.22,0,0,0,3.52-1,1.65,1.65,0,0,1,1.42.05,5.44,5.44,0,0,0,3,.51,2.51,2.51,0,0,1,2.65,1.49c.29.58.63,1.31,1.47,1.22,2.7-.29,4.68,1.49,7,2.4a3.38,3.38,0,0,1,1.27,1.14c.86,1.14,1.86,2.19,2.81,3.28a1,1,0,0,0,1.6.13.81.81,0,0,1,1.36.06,3,3,0,0,0,1.53.93,5.05,5.05,0,0,1,3.8,2.74,12.22,12.22,0,0,0,3,4.59c.48.42.26.64-.25.72-1.1.19-1.55.8-1.13,1.49a6.5,6.5,0,0,1,.8,2.81c.12,1.11-.13,2.44.4,3.29a16,16,0,0,0,2.54,3.57,6.43,6.43,0,0,1,1.69,2.79,14.47,14.47,0,0,1,.34,4.48,7.7,7.7,0,0,1-.69,3.34,1.43,1.43,0,0,0,.24,1.67,1,1,0,0,0,1.34,0,1.33,1.33,0,0,1,1.75.25c.32.25.58.58,1.07.52a1.47,1.47,0,0,1,1.6.7c.27.59-.24,1-.63,1.44-.61.7-.37,1.2.52,1.4a7.55,7.55,0,0,1,1.52.51c1.61.77,2.4,2.46,3.94,3.25a5.84,5.84,0,0,1,2.48,2.51c.56,1.07,1.69,2.15.28,3.5-.48.46-.09,1.42.62,1.66a4.62,4.62,0,0,0,2.54.27,7,7,0,0,1,3-.08c3.58.85,5.21,3.66,6.74,6.43a2.73,2.73,0,0,1,.46,1.55,2.43,2.43,0,0,0,1.57,2.31c2.29,1.21,4.87,1.85,6.85,3.62a1.73,1.73,0,0,0,.46.2,2.33,2.33,0,0,1,1.28,2c0,.48,0,1,0,1.44a1.86,1.86,0,0,0,1.92,1.77,2.41,2.41,0,0,1,2.5,1.38c.2.37.61.63.86,1a12.68,12.68,0,0,1,1.68,2.41c.6,1.42,1.24,2.81,2.92,3.42.81.29,1.67.1,2.39.4a7.58,7.58,0,0,1,4.52,3.9,1.69,1.69,0,0,0,2.3,1.12c1-.32,1.94-.78,2.92-1.13.76-.26,1.63-.88,2.31-.53a19.38,19.38,0,0,0,2.33,1.15c1.23.42,2.46,1.15,3.6-.19a1.07,1.07,0,0,1,.55-.24c1.67-.45,4.54,1.08,5.28,3.4a25.55,25.55,0,0,0,1.17,2.68,2.05,2.05,0,0,0,1.25,1.26,2.58,2.58,0,0,1,1.76,2.86c0,.56,0,1.35.39,1.63,1.08.84,2.23,1.92,3.7,1.61a5,5,0,0,1,4.34,1.28c1,.79,1,1.49-.16,2.11-.18.1-.39.14-.58.24a1.77,1.77,0,0,0-.81,2,1.51,1.51,0,0,0,1.85.76,4.6,4.6,0,0,0,1.37-.64,4.13,4.13,0,0,1,3.06-.74,2.86,2.86,0,0,0,3.31-1.21A.83.83,0,0,1,199,185a19,19,0,0,1,4,4.76c.16.31.31.63,0,.8-1.1.53-1.61,1.13-1.09,2.47a1.71,1.71,0,0,1-1,2c-.27.14-.74.42-.65.74.12.48.66.39,1.07.39s.83,0,1.24,0a1.28,1.28,0,0,1,1.4.83,2.91,2.91,0,0,0,1.56,1.34c1.64.87,3.89,1,4.52,3.25,0,.08.15.13.23.18,2.19,1.37,3.51,1.15,5.08-.87.3-.39.72-.9,1.12-.71,1.47.67,3.18,1.11,3.64,3.05a4.8,4.8,0,0,0,.66,1.48,10.49,10.49,0,0,1,1.69,5.25,2.57,2.57,0,0,0,.86,1.9c.45.41,1,.82,1,1.5a1.44,1.44,0,0,0,.45,1.05,9.34,9.34,0,0,1,1.91,2.63,17.76,17.76,0,0,1,1.68,3.93c.18.94.2,1.91.46,2.82a37.64,37.64,0,0,1,1,5c.28,1.93.82,3.42,2.7,4.2a1.35,1.35,0,0,1,.52.62,3.22,3.22,0,0,1,0,3c-.43,1.09-2,2.33-3.07,2.06a3.41,3.41,0,0,0-2.61.41,9.52,9.52,0,0,0-2.22,1.8c-1,.93-.94,1.18.16,2.08a7.63,7.63,0,0,1,1.85,2.15,1.46,1.46,0,0,1,0,1.52c-.71,1.49-1.94,2.69-2.28,4.39a1.5,1.5,0,0,1-1.6,1.19c-.44,0-.88,0-1.31,0a1.36,1.36,0,0,0-1.29,1.8c.26.83.66,1.61.93,2.44a3.36,3.36,0,0,1-.26,3.23c-.37.51-.53,1.24.19,1.58.92.42,2,.95,2.94.62a10.16,10.16,0,0,1,5.52-.12,3.44,3.44,0,0,0,3.68-2.91,7.43,7.43,0,0,1,1.5-4,4.05,4.05,0,0,0,.91-1.46c.46-1.71,1.87-2.41,3.25-3a9.41,9.41,0,0,0,3.57-2.57,2.31,2.31,0,0,0,.53-1.32c.19-2.55-.75-4.94-1.09-7.42a.45.45,0,0,0-.17-.24c-.52-.43-.57-.77.07-1.17a1.25,1.25,0,0,0,.48-.88,3.4,3.4,0,0,1,1.89-2.6c.17-.1.21-.25.33-.36.85-.79,1.57-1.89,2.74-2.11,1.85-.34,3.73.18,5.62,0,.76-.06,1.71.2,2.08-.48a3.43,3.43,0,0,0,.11-3c-.6-1.34-1.7-2.4-1.89-4-.23-2-1.18-3.88,0-5.86.29-.49,0-.84-.53-1.07a6.42,6.42,0,0,1-2.7-1.71,6.31,6.31,0,0,0-2.48-1.81,16.91,16.91,0,0,1-3.07-1.94,2.3,2.3,0,0,0-2.24-.6,2.45,2.45,0,0,1-2-.56c-1.62-1.05-1.26-2.9-1.89-4.34a.56.56,0,0,1,.19-.45,23.13,23.13,0,0,0,1.94-2,1.8,1.8,0,0,0,.38-2.58,2.86,2.86,0,0,1,.22-3.48,12.71,12.71,0,0,0,2.43-4.5,21.38,21.38,0,0,1,3-5.68c.66-1.05,1.57-2.29,3.15-2a23.46,23.46,0,0,1,3.14,1c-.7.4-1.13.69-1.59.9a.7.7,0,0,0-.43.82c0,.43.36.29.6.38a6.12,6.12,0,0,0,2,.18,5,5,0,0,1,2.41.67,13.74,13.74,0,0,0,2.37,1.17A5.84,5.84,0,0,0,262,191c3.65-1.06,5.9-.86,7.13,2,.31.72,1.38,1.15,1.18,2-.33,1.47,1.51,2.49.7,4,0,0,.11.16.18.23,1.59,1.43,3.27,2.7,5.53,2.78.89,0,1.73-.08,2.42.75.49.58,1.27.22,1.79-.08s.46-1,.2-1.48c-.15-.3-.35-.58-.51-.88a1.75,1.75,0,0,1,.07-2.18C281.34,197.53,281.9,196.79,282.48,196.06Z"/>
         <path   class="cls-11 aaa" d="M219.35,250.91a1.06,1.06,0,0,0-1.12.28,31.15,31.15,0,0,1-2.77,1.93,1.92,1.92,0,0,1-3-.76c-.09-.33,0-.81-.46-.76s-.66.45-.82.89a18.3,18.3,0,0,1-1.24,3.33,1.62,1.62,0,0,1-2.45.49c-.94-.75-2.13-.94-3.1-1.59-.41-.28-.77,0-1,.18a1.69,1.69,0,0,1-1.73.19,1.56,1.56,0,0,0-2.25,1.18c-.68,2.26-1.23,2.6-3.55,2.7a9.91,9.91,0,0,0-5.11,1.2,1.94,1.94,0,0,1-2.58-.3c-.57-.46-1.18-1-2-.36-.18.13-.53,0-.81.07A5.66,5.66,0,0,0,182,261c-1,1-4.29,1.55-5.47.76a8.34,8.34,0,0,1-3.31-3.3c-.64-1.39-1.37-1.45-2.2-.47a1.14,1.14,0,0,1-2-.28,4.76,4.76,0,0,0-.73-1.21,1.83,1.83,0,0,0-2.47-.44,2.23,2.23,0,0,1-1.71.41c-1-.26-1.51.26-2,1s-1,1.09-.65,2a.92.92,0,0,1-.81,1.26,4.64,4.64,0,0,1-4.44-1.9,18.11,18.11,0,0,0-1.67-1.82.67.67,0,0,0-.76-.17c-.29.1-.37.31-.3.65a1.27,1.27,0,0,1-.8,1.38c-1.67.8-2.51,2.49-3.92,3.57a1.92,1.92,0,0,0-.92,1.74c.32,1.58-.19,3-.47,4.52s.27,3.89,2.14,4.22a3.52,3.52,0,0,1,2.6,1.89.75.75,0,0,0,.92.42,60.25,60.25,0,0,1,6.85-.15,1,1,0,0,1,1,.71c.39,1.39.58,1.51,2.09,1.41a1.92,1.92,0,0,1,2.35,1.57,2.14,2.14,0,0,0,1.85,1.77,2.61,2.61,0,0,1,1.7,1,4.09,4.09,0,0,0,4.43,1.46c.58-.13,1.26-.27,1.63.47a7.58,7.58,0,0,0,2.53,2.41,12.26,12.26,0,0,0,4.4,2,5.19,5.19,0,0,0,4.26-.28c1.45-.9,2.3-.66,3.55.58,1.57,1.56,3.3,2.91,5,4.32.94.78,2,1.36,2.64,2.53.49,1,1.06,1.94,2.43,1.87.22,0,.5.35.67.59a3.1,3.1,0,0,0,4,1.3c.34-.11.62-.45.83-.43,1.9.13,3.84.09,5.53,1.2,1,.63,1.19.46,1.21-.71,0-1.42.05-2.84,0-4.26-.05-1.15,0-2.19,1.28-2.67a1.51,1.51,0,0,0,.61-.68,4,4,0,0,1,2.15-2c.43-.16.83-.8.37-1-.82-.32-.69-.85-.64-1.4s-.11-.76-.7-.84a2.41,2.41,0,0,1-1.95-1.66c-.14-.37-.29-.81,0-1.15s.66,0,1,.05.51.21.71-.1-.14-.47-.29-.67c-.8-1-2-1.31-3.13-1.8-.4-.18-.75-.33-.65-.87a2.72,2.72,0,0,0-.95-2.32c-.35-.42-.52-.77.08-1.26a7.42,7.42,0,0,0,2.56-5c.21-1.69.12-3.46,1.36-4.87a14.72,14.72,0,0,0,1.48-1.95,33.93,33.93,0,0,0,3.84-7.36,13.91,13.91,0,0,0,1-5.19A1.21,1.21,0,0,0,219.35,250.91Z"/>
         <path   class="cls-11 aaa" d="M87.82,186.15a3.91,3.91,0,0,0-1.39-3.58,1.31,1.31,0,0,1,.29-2c.32-.12.9.15.89-.42s-.64-.47-.93-.77c-.12-.12-.41,0-.6-.12-.73-.31-1.39-.66-1.24-1.69a14.45,14.45,0,0,0,0-2.28,1.17,1.17,0,0,0-1.22-1.14c-.86,0-.74-.52-.54-1a1.76,1.76,0,0,0,.25-1.26A1.5,1.5,0,0,0,81,171c-1,.54-1.33.4-1.51-.71a1.07,1.07,0,0,0-1.14-1c-.59-.05-1.07.52-1.71.1-.92-.6-1.74-.14-2.39.75a2.68,2.68,0,0,1-1.38,1c-1.57.46-3,.91-3.88,2.56-.58,1.16-1.58,2.13-2.11,3.31-.73,1.6-.62,1.63-2.37,1.65-1.12,0-2.35-.31-3.27.55-1.22,1.14-2.64,1.07-4.08.88-1.7-.22-3.08-.91-3.59-2.76a1.85,1.85,0,0,0-.89-1.19c-.56-.3-.79-.23-.8.46s.27,1.43-.17,2a5.25,5.25,0,0,0-.85,2.25,3.25,3.25,0,0,0,.31,2.46c.58,1-.36,1.9-.74,2.79-.11.26-.23.44,0,.58s.54,0,.62-.33-.1-.89.59-.83.32.69.46,1c.06.15.08.33.15.48.17.39.36.74.87.76s.65-.28.66-.72a.25.25,0,0,1,.23-.29c.19,0,.29,0,.38.24.38.86.88,1.69,1.19,2.58.37,1.08,1,2.22,0,3.31a.37.37,0,0,0,.07.54c1.56,1.26,1.72,3,1.63,4.81a4.53,4.53,0,0,0,.68,2.83c.32.49.47,1.17-.61,1.27l-1.73.16c-.47,0-1.06.34-.72.81.8,1.07.66,2.24.78,3.42.06.55-.12,1.44.58,1.63s.88-.66,1.3-1,.6-.95,1-.6a1.34,1.34,0,0,1,.28,1.43,1.87,1.87,0,0,1-.43.7,1.3,1.3,0,0,0-.27,1.43,12.61,12.61,0,0,0,.78,1.86c.23.45.71,1,.26,1.34s-1-.21-1.27-.68a3.33,3.33,0,0,0-.55-.73c-.36-.31-.47-.93-1.13-1,0,.68,0,1.31.1,2,.13,1.57.73,3.2-.62,4.67-.43.47-1.21,1.37-.63,2.1a1.3,1.3,0,0,1,0,2,.66.66,0,0,0-.1.58,4.73,4.73,0,0,1,.22,3.74c0,.1.11.24.14.37.39,1.8,1.69,3.24,2,5.07.07.35.39.44.65.6a4.06,4.06,0,0,1,1.88,4.37c-.14.5-.2,1,.21,1.16a1.27,1.27,0,0,0,1.6-.32,10.62,10.62,0,0,1,.74-1,1.15,1.15,0,0,1,1.51,0,1.84,1.84,0,0,0,2.47.88,9.44,9.44,0,0,0,4.13-3.5,1.23,1.23,0,0,0,.11-1.38c-.36-1-1.11-2-.66-3a2.24,2.24,0,0,0-.2-2.07c-.22-.55-.91-1.23-.31-1.6s1.08.58,1.59,1c0,0,0,.13.07.19.58,1.13,1,1.24,2.16.66,1.7-.84,1.7-.84,2.92.74a6.2,6.2,0,0,0,.53.62,3.64,3.64,0,0,0,2.17,1.2,2.14,2.14,0,0,1,1.44.65c.43.49.87.46,1.16-.19A11.82,11.82,0,0,0,82.82,227,13.64,13.64,0,0,1,84,222a2.22,2.22,0,0,0-.06-1.71c-.14-.33-.3-.53-.12-.88.76-1.5.71-3.18,1-4.78.38-2.08.32-4.23.72-6.31a10.15,10.15,0,0,1,1.83-4.87c.37-.44.23-.79-.13-1.16-.88-.92-1.74-1.87-2.61-2.8a2,2,0,0,1-.47-2.22,3.75,3.75,0,0,1,1.26-1.58,11.07,11.07,0,0,0,2-2.35c.57-.84.42-1.86,1-2.69a2.31,2.31,0,0,0-.1-3.07A2.1,2.1,0,0,1,87.82,186.15Z"/>
         <path   class="cls-11 aaa" d="M101,121.39a.8.8,0,0,0-.67,1.22c.33.68.15,1-.61.87-.28,0-.55,0-1.08,0-1.14-.38-2.1.57-3.08,1.23a1.28,1.28,0,0,0-.61,1.68,1.17,1.17,0,0,0,1.4.62A13.06,13.06,0,0,0,99,126.1c.77-.41,1.21-.58,1.64.36a1.17,1.17,0,0,0,1.63.46c.58-.29-.1-.8-.14-1.22a.45.45,0,0,0-.12-.28c-.58-.56-.28-.8.3-1.08s1.32-.86.88-1.68A2.18,2.18,0,0,0,101,121.39Z"/>
         <path   class="cls-11 aaa" d="M56,230.35c.2-.33-.27-1.19-.64-1.16a9.46,9.46,0,0,0-1.56,1.48s0,.28.13.35A3.36,3.36,0,0,1,55,234.23c0,.29.11.43.37.52a.54.54,0,0,0,.61-.2c.34-.4.44-3.1.05-3.48S55.8,230.63,56,230.35Z"/>
         <path   class="cls-11 aaa" d="M54.39,171.23c-.74-.18-.79.64-1,1-.38.6-1,1.15-.85,2a2,2,0,0,0,.92,1.23c.15.12.63.18.71-.15.22-.91,1.09-1.62.86-2.6C55,172.12,55.14,171.41,54.39,171.23Z"/>
         <path   class="cls-11 aaa" d="M111.29,133.61a1.36,1.36,0,0,0-1.52,1.4c0,.6,1,1.29,1.8,1.31a1.17,1.17,0,0,0,1.31-1.32C112.89,134.05,112.38,133.61,111.29,133.61Z"/>
         <path   class="cls-11 aaa" d="M51.78,227c-.33,0-1.17-.24-1.15.87,0,.85.95,1.88,1.71,1.83,1.19-.09.86-1.09,1-1.78C53.49,226.9,52.75,227,51.78,227Z"/>
         <path   class="cls-11 aaa" d="M203.2,246.58a4.44,4.44,0,0,0,1.1,2.23c.21.17.54.3.61.08a4.94,4.94,0,0,0,.42-2.06,1.6,1.6,0,0,0-1.09-1.3C203.74,245.75,203,246,203.2,246.58Z"/>
         <path   class="cls-11 aaa" d="M95.35,128.08C95,128,93.9,129.34,94,129.77c.22.81,1,.65,1.43.73.61,0,1.21,0,1-.63S96.14,128.37,95.35,128.08Z"/>
         <path   class="cls-11 aaa" d="M81.31,169.74c.72-.18.65-.87.82-1.36s-1.14-1.57-1.51-1.47a.71.71,0,0,0-.56.78C80.21,169,80.75,169.87,81.31,169.74Z"/>
         <path   class="cls-11 aaa" d="M98.6,135l-1.26-1c-.2-.16-.52-.27-.58,0a1.84,1.84,0,0,0,.07,1.49c.28.38.56.9,1.22.83a.78.78,0,0,0,.83-.44C99.13,135.49,98.87,135.24,98.6,135Z"/>
         <path   class="cls-11 aaa" d="M88.55,118.87a1.69,1.69,0,0,0-.61.06c-.45.25-.92.57-.78,1.19s.71.45,1.12.42a5.9,5.9,0,0,0,1-.28c.8-.2.71-.55.22-1A1.13,1.13,0,0,0,88.55,118.87Z"/>
         <path   class="cls-11 aaa" d="M201.27,243.48c-.38-.11-.8-.22-1,.22s.09.76.47,1c.92.58,1.78.42,2.71-.67A5.13,5.13,0,0,1,201.27,243.48Z"/>
         <path   class="cls-11 aaa" d="M206.82,252.77c.67-.33,0-1.06-.14-1.61a.89.89,0,0,0-.82-.72c-.64.29-.56.81-.21,1.22S206.26,253.05,206.82,252.77Z"/>
    </g>
</svg>