<svg id="NETWORK" 
    xmlns="http://www.w3.org/2000/svg" viewBox="0 0 300 300">
    <defs>
         <style>.cls-1{fill:rgb(144,144,144);}
                .aaa {
        stroke-dasharray:  1;
        stroke-width:1;
   
    }

   
        </style>
    </defs>
  
    <g id="AUSTRALIA">
         <path  class="cls-1 aaa" d="M199.8,298.13h0"/>
        <polygon  class="cls-1 aaa" points="185.41 31.05 186.57 30.62 188.49 30.92 188.91 29.85 188.38 29.62 187.78 29.75 187.47 29.4 188.68 28.31 188.52 28.01 187.31 28.33 187.28 27.24 186.47 27.61 186.23 28.24 185.1 28.18 185.41 28.54 185.16 28.83 185.65 30.37 184.89 30.97 185.41 31.05"/>
        <polygon  class="cls-1 aaa" points="294.02 145.09 294.19 143.42 293.14 140.82 292.7 139.98 292.65 138.58 293.14 137.96 293.19 136.35 294.46 134.27 294.35 133.64 294.24 129.63 295.07 128.27 294.46 127.5 294.08 126.09 294.13 123.39 293.52 123.18 294.29 121.67 292.87 121.1 292.15 119.74 292.2 118.19 290.55 116.83 289.5 114.85 289.06 112.93 288.13 111.26 287.19 111.21 286.09 111.67 285.1 110.79 284.88 109.02 284.17 108.72 284 107.72 282.24 106.27 281.41 105.53 281.8 104.5 280.8 102.83 282.18 101.17 282.51 99.09 282.07 98.1 282.29 96.74 281.3 96.22 281.03 96.95 281.46 97.57 280.91 98.31 277.67 95.5 276.95 93.88 276.34 94.19 276.34 95.13 275.96 96.17 276.73 98.31 275.13 96.48 274.36 97.32 274.36 96.02 273.76 94.92 273.48 91.07 273.92 90.65 273.92 89.72 272.55 88.89 273.09 87.74 272.05 86.96 272.38 85.76 270.01 83.84 269.35 82.48 269.24 80.87 270.56 81.19 270.56 79.83 269.41 77.85 268.8 78.17 267.53 78.01 266.1 76.08 265 76.03 263.68 74.94 262.91 75.72 262.3 74.94 260.71 74.42 259.71 75.3 260.54 74.05 261.97 73.69 262.08 72.7 261.64 71.92 259.99 72.08 258.72 71.97 258.34 71.14 257.62 71.14 254.6 69.53 253.27 67.02 253 64.54 252.12 62.91 252.17 61.62 252.89 61.35 253.49 58.6 252.67 54.96 251.79 53.29 252.56 52.93 251.62 52.1 250.52 52.1 249.14 49.38 249.09 46.01 249.63 45.59 249.7 44.86 249.03 44.08 248.7 39.81 249.09 38.67 248.7 37.31 249.19 36.9 249.36 35.91 246.83 33.62 245.28 32.74 245.73 32.11 244.07 30.55 242.59 31.49 241.87 31.02 241.04 32.53 239.84 32.58 238.35 30.45 238.51 29.3 237.58 27.37 238.13 24.82 237.8 21.76 237.2 22.02 236.64 20.77 237.3 19.57 236.2 18.16 236.15 16.97 235.38 16.5 235.43 14.78 236.31 13.95 235.32 13.43 234.11 13.69 233.17 12.86 233.72 9.58 233.28 8.85 232.84 6.93 231.3 6.61 231.36 5.73 229.65 6.35 228.82 7.44 228.82 9.89 228.05 11.97 228.05 12.55 227.72 13.95 226.89 13.85 225.96 16.09 224.69 17.75 225.8 18.73 227.17 19.78 226.29 20.35 225.35 20.2 224.75 21.54 223.98 22.9 225.02 24.51 225.19 25.66 224.09 25.24 223.26 25.82 222.6 29.19 223.26 31.49 222.76 33.98 223.48 35.75 223.32 37.78 221.94 38.98 221.94 40.13 220.45 42.78 220.18 46.68 218.91 48.03 219.35 49.44 218.52 51.58 217.2 52.82 217.04 55.43 214.78 57.04 210.16 58.76 208.28 57.51 206.36 57.35 205.42 56.15 203.6 54.8 203.55 53.97 203.05 53.34 202.61 51.84 200.9 51.58 199.47 51 197.21 50.84 195.12 49.6 194.74 48.45 193.14 46.52 191.21 46.37 189.5 45.33 189.39 44.44 188.46 44.34 187.63 43.72 186.04 43.77 184.71 43.45 185.1 42.88 183.28 41.48 182.95 40.13 181.08 38.3 179.87 38.15 178.27 36.38 178.21 34.66 179.59 32.58 179.92 30.91 181.35 29.98 181.79 28.05 182.4 26.81 181.13 27.68 180.09 25.82 181.58 24.88 181.3 23.42 182.07 23.48 182.95 23.11 183.33 23.63 184.66 23.89 186.47 23.11 187.09 21.54 185.81 20.56 186.8 19.83 187.85 20.09 188.57 17.75 189.5 17.28 190.49 16.03 190.55 15.36 189.06 14.68 188.13 15.72 187.19 15.36 186.97 13.01 185.76 13.54 184.06 15.46 184.94 15.82 184.94 16.76 183.72 17.33 182.56 16.66 182.29 15.82 181.69 15.04 181.19 15.92 180.2 16.18 180.25 15.31 181.08 14.47 181.41 13.79 180.36 14.21 179.59 15.04 177.94 15.56 177.72 16.14 176.84 16.29 176.4 15.72 175.02 15.61 174.97 14.99 173.86 13.54 173.26 13.38 171.55 14.26 170.34 13.79 169.63 14.21 169.07 13.22 168.41 13.07 167.59 11.61 165.93 12.33 164.17 12.07 162.58 11.4 162.68 10.41 161.58 9.11 160.93 9.26 161.09 9.84 158.89 10.47 158.34 9.22 157.13 8.8 155.19 7.76 154.92 8.28 153.93 7.6 152.72 8.49 154.15 9.53 153.71 9.89 155.09 10.2 156.3 9.68 158.39 11.35 158.22 12.28 158.66 14.47 157.18 14.58 156.63 16.14 156.13 15.2 155.03 14.89 153.88 15.61 149.69 15.82 148.09 14.52 147.87 15.1 146.22 15.67 146.39 16.97 145.01 16.7 145.45 18.53 144.96 17.85 143.25 17.33 142.59 18.27 143.25 19.15 143.13 19.73 141.32 19.2 140.38 20.09 141.1 20.82 140.33 21.18 139.12 21.83 139.23 22.69 140.33 23.76 140.63 24.53 139.34 23.84 138.29 24.66 137.02 24.66 135.75 26.59 134.6 28.78 133.66 29.04 133.22 30.86 132.07 31.54 133.06 32.53 135.54 32.94 134.6 33.21 134.05 34.19 137.02 35.13 135.87 35.6 134 35.39 133.39 34.55 133.44 35.39 134.66 36.27 134.6 37.78 135.87 39.4 134 37.99 132.84 35.96 131.46 35.8 131.41 36.64 130.85 37.58 130.69 36.48 127.61 34.62 125.35 35.02 126.06 35.8 125.29 36.54 124.53 35.91 123.92 35.91 123.26 36.74 124.3 38.04 124.03 38.83 123.81 38.25 123.09 38.41 123.09 39.08 121.66 39.86 119.57 40.23 121.22 39.5 122.32 38.09 122.21 35.96 123.37 34.62 122.65 33.73 121.44 33.57 119.35 29.98 118.25 28.41 116.21 27.95 114.83 27.11 113.95 27.63 114.66 28.31 113.84 28.57 112.85 29.98 111.86 29.82 112.19 29.04 110.87 29.4 110.53 30.24 109.54 28.26 108.72 28.05 108.5 29.19 109.54 29.77 108.11 30.76 107.62 32.16 108.11 32.99 106.62 33.83 105.97 32.84 105.14 32.78 104.86 32.06 105.91 30.91 104.81 30.96 104.25 32.42 102.72 32.78 102.08 33.62 101.81 35.12 104.03 35.72 102.17 37.21 100.74 36.48 99.02 37.58 99.35 38.56 101.4 38.83 100.68 39.91 99.69 40.13 98.26 38.52 97.05 39.81 95.59 40.02 95.9 41.04 96.17 41.98 96.28 42.86 97.16 42.57 96.11 43.92 96.82 44.91 95.61 45.48 94.84 46.42 97.38 46.84 95.78 47.62 95.45 48.24 94.07 47.93 93.3 46.94 92.14 46.21 91.04 47.1 90.55 46.11 89.17 45.27 88.18 46.06 90 47.25 89.34 47.56 88.57 48.92 90.05 50.17 91.54 50.12 90.88 51.26 90.82 52.51 90.22 51.99 89.45 51.99 89.72 53.45 89.12 55.01 88.9 56.73 86.58 52.04 85.04 49.18 84.22 48.09 84.6 46.42 84.05 47.2 82.51 48.29 82.13 50.12 80.96 50.38 80.8 51.16 79.37 51.06 78.54 52.1 77.33 53.09 77.61 54.85 77.61 58.45 78.33 58.8 78.33 60.05 77 60.73 76.23 62.08 74.25 62.6 74.41 63.38 72.71 64.43 72.76 66.2 71.83 67.02 69.56 69.99 65.22 72.44 61.42 72.75 59.93 73.27 57.73 73.43 55.97 73.85 54.2 73.43 51.95 74.26 51.67 75.52 50.18 76.19 45.45 76.03 44.23 76.7 43.85 77.91 40.88 79.05 38.62 79.05 37.41 78.58 36.26 78.69 35.81 77.91 34.6 78.48 33.44 80.14 30.36 80.67 30.09 81.29 29.26 81.29 26.84 83.31 23.7 84.72 19.57 85.92 17.75 88.31 17.7 90.5 16.04 91.85 14.89 91.12 15.43 90.34 15.22 89.25 15.99 87.53 15.93 86.28 13.62 87.95 13.07 89.98 11.42 92.94 12.52 95.02 11.75 96.74 11.86 99.92 9.05 103.25 7.95 107.78 8.72 110.12 8.33 113.39 10.86 117.45 10.98 119.02 12.02 120.16 11.09 122.19 11.63 124.01 10.1 124.58 9.43 123.49 9.32 121.1 8.39 122.4 7.95 121.93 8.06 119.74 6.57 116.73 5.63 118.23 5.96 121.26 7.95 123.13 9.32 125.73 7.29 126.04 5.63 123.96 5.25 121.51 4.59 122.56 3.76 122.98 5.03 125.26 7.56 128.23 9.05 132.13 8.77 139.1 9.82 140.4 10.59 144.31 12.79 149.45 12.02 151.28 12.24 158.97 11.92 160.02 12.68 162.16 12.63 164.55 14.17 167.93 14.23 169.59 12.85 170.53 13.56 171.26 13.07 173.08 12.79 176.1 11.53 177.2 11.92 178.08 11.53 179.9 10.26 180.78 10.54 182.56 8.17 184.28 7.12 183.39 5.3 185.99 5.41 190.26 6.4 191.09 7.5 191.14 10.59 194.1 10.54 195.2 11.09 195.83 12.68 196.08 13.4 196.91 15.49 197.23 16.32 197.07 16.76 197.65 18.35 197.85 20.23 197.49 20.72 198.47 21.55 197.85 21.99 198.16 24.08 197.8 25.89 197.65 26.12 196.81 27.22 196.6 28.43 194.89 30.58 195.15 30.58 193.95 31.95 193.22 33.06 193.22 34.16 194.32 35.32 192.81 35.92 193.06 36.64 192.7 37.02 191.04 41.04 188.7 42.59 188.9 43.58 189.47 44.89 188.65 48.75 187.87 49.25 188.59 51.72 188.07 52.44 188.54 53.59 188.65 55.09 188.12 55.63 189.58 56.52 189.58 57.67 189.01 58.33 189.74 59.49 189.01 62.36 189.01 62.19 190.15 62.69 190.36 64.28 188.9 65.88 189.32 67.81 188.07 68.52 186.4 69.24 186.2 70.78 184.75 71.66 182.29 73.42 180.99 75.52 180.42 76.28 180.89 79.31 179.9 83.17 177.66 85.54 175.58 86.64 175.17 87.68 175.22 88.95 175.17 91.1 176.04 93.08 176.16 94.45 175.69 97.38 175.84 101.4 174.49 103.76 173.97 105.53 172.77 106.62 172.77 108.67 171.36 111.69 171.16 119.67 170.58 122.27 171.26 124.03 171.31 126.22 170.58 127.99 170.8 130.19 172.77 131.91 175.53 133.22 175.95 134.16 175.22 135.04 174.91 135.71 175.58 136.53 175.22 138.07 175.58 139.45 177.3 141.32 177.61 142.09 177.14 145.29 179.28 145.01 180.58 146 180.63 147.1 181.72 146.66 182.71 145.45 182.71 145.18 183.65 146.44 186.31 147.76 186.4 149.25 187.92 149.75 189.84 149.47 191.3 151.06 194.63 150.52 196.14 151.17 196.97 150.9 198.74 150.29 199.78 149.41 199.26 148.97 199.67 150.13 201.08 151.23 201.65 151.78 203.06 152.99 202.64 154.26 203.58 154.31 202.38 153.6 201.29 154.43 200.46 155.14 199.1 156.3 198.9 156.96 197.75 158.22 197.23 158.61 196.03 159.93 194.42 163.02 192.96 163.35 192.08 163.96 192.08 166.38 190.99 166.98 189.06 168.91 186.25 171 185.83 171.82 184.69 171.28 183.23 171.61 181.57 172.49 183.49 172.54 185.26 172.54 186.98 171.66 188.07 171.22 191.56 168.19 193.43 167.75 194.94 166.87 196.03 166.98 197.6 165.22 199.94 165.77 200.61 164.5 203.94 161.03 203.58 160.32 205.4 159.44 206.85 159.44 207.38 161.58 206.85 163.68 205.97 166.16 206.81 168.58 202.96 169.24 199.41 171.28 197.44 171.82 198.06 171.88 201.34 172.66 203.27 172 203.47 172.21 206.75 170.62 209.56 167.86 210.6 168.3 211.54 170.06 211.33 171.95 211.37 172.77 210.57 174.04 210.28 175.58 209.09 176.81 209.43 177.75 209.3 177 210.49 176.29 211.61 174.97 211.53 174.62 212.26 175.91 214.05 176.45 215.54 177.39 217.73 177.5 220.28 177.22 223.46 175.41 225.28 175.74 226.16 175.46 228.56 176.73 229.6 177.83 231.42 178.16 233.66 180.75 236.94 182.73 237.41 184.11 238.34 184.77 240 186.25 240.11 186.59 239.49 187.53 239.17 189.39 239.75 190.93 241.51 192.59 241.67 194.41 243.28 194.63 244.69 196.06 245.16 197.55 246.82 198.64 246.82 199.14 245.89 201.95 244.63 202.81 243.45 204.57 243.39 206.44 241.63 207.79 241.89 208.39 241.21 208.03 240.51 206.44 240.1 206.96 239.19 209.82 237.4 212.21 238.99 212.12 240.49 209.21 242 209.9 243.29 210.8 243.5 211.88 242.43 213.06 241.58 214.54 242.36 214.4 243.68 213.53 243.66 212.35 244.74 214.29 246.88 214.67 249.22 215.39 248.8 216.38 248.9 216.49 250.31 217.53 251.76 218.58 250.05 218.47 248.18 217.32 249.01 217.04 248.23 217.92 247.29 221.5 247.4 221.94 248.07 222.43 247.29 224.25 244.95 228 242.82 230.09 241.05 228.99 241.05 228.16 241.51 228.49 241.1 227.22 240.68 228.6 240.58 230.47 240.58 233.23 239.8 238.84 238.75 243.35 239.59 245.23 238.54 245.23 237.41 246.56 237.41 247.93 236.52 249.19 234.07 248.65 231.36 248.59 229.91 251.07 227.57 251.07 223.51 252.23 221.94 252.73 219.2 254.16 218.57 254.05 217.23 258.46 212.01 259.67 211.81 260.45 208.99 262.21 206.8 263.32 203.88 265.08 202.21 264.89 200.72 266.16 200.09 267.31 197.44 266.38 196.6 268.63 195.61 270.18 193.43 271.12 192.55 272.21 190.31 274.36 189.68 275.68 189.06 273.48 189.06 274.03 188.38 276.62 188.23 278.94 186.67 279.43 185.06 279.1 184.22 279.43 182.82 281.8 181.09 281.85 179.64 283.5 179.01 285.1 176.47 284.88 175.17 285.71 173.08 285.1 172.41 285.32 171.31 287.36 166.84 287.86 164.45 290.5 159.97 290.39 158.31 291.76 155.07 293.75 153.51 294.46 151.65 293.91 149.62 295.13 148.21 294.02 145.09"/>
        <polygon  class="cls-1 aaa" points="213.05 243.55 212.57 242.93 211.81 243.23 212.69 244.01 213.05 243.55"/>
        <polygon  class="cls-1 aaa" points="225.02 264.72 224.19 265.25 224.64 266.13 226.84 266.24 227.94 266.65 228.16 265.87 226.68 264.56 225.02 264.72"/>
        <polygon  class="cls-1 aaa" points="186.65 9.25 187.62 9.68 187.89 8.63 189.15 7.54 188.57 6.88 187.07 8.4 186.65 9.25"/>
        <polygon  class="cls-1 aaa" points="205.5 53.72 206.26 53.33 206.15 52.58 205.07 53.09 205.5 53.72"/>
        <polygon  class="cls-1 aaa" points="185.91 10.82 185.81 10.07 185.1 10.42 185.91 10.82"/>
        <polygon  class="cls-1 aaa" points="189.25 42.49 188.44 41.46 187.97 42.59 188.49 43.45 189.25 42.49"/>
         <path  class="cls-1 aaa" d="M207.36,48.66l-1.89-.43-1.79,1a5.08,5.08,0,0,0-.31.9l.63.62.86-.3.87-1.05,1.6-.22Z"/>
        <polygon  class="cls-1 aaa" points="200.78 263.69 200.38 264.75 201.36 265.3 201.83 264.36 201.77 263.17 200.78 263.69"/>
        <polygon  class="cls-1 aaa" points="184.84 10.9 183.97 10.9 184.39 11.44 184.84 10.9"/>
        <polygon  class="cls-1 aaa" points="202.08 267.24 203 267.5 203.7 266.85 202.76 266 201.83 266.2 202.08 267.24"/>
        <polygon  class="cls-1 aaa" points="228.49 3.54 228.52 5.22 229.2 4.85 229.93 4.8 229.41 3.68 228.49 3.54"/>
        <polygon  class="cls-1 aaa" points="220.44 247.84 219.18 247.93 219.95 248.43 220.44 247.84"/>
        <polygon  class="cls-1 aaa" points="203.17 263.35 202.43 263.66 202.49 264.67 203.31 264.59 203.17 263.35"/>
         <path  class="cls-1 aaa" d="M222.93,269.93l-.83,1.25-.38-.26-.83-.06-1,.73-.77.47-4.35-.26-.94.57.06,1.25-1.1-1-1.44.06-.93.67-1.37-.93-2-1.72-2.53-1.3.05-2-.6.67-.22.73-1.11-.83-1.33-.63-1.43-1-.46.65-.11,1.58-.44.31v1.43l.33,2.69-.36,1.75.17,3,.33,2.44-.38,1.93.66.41.05.89,1.33,1.25-1.55-.11-1.22-1.29-.59,1.34.1,2.4,1,.78-.34.73.06,3.85.77.57-.33.57.33,1.78,1.38.46-.83.89v1.45l.61.26,1.32-.26,1,.93,1.16-1.45v1.14l.71,1.25h1.16l1.37-2,.17-1.25.66-2.24,1,.89.44-.73,1.32-1,.56-1.46v1.46l.93.31.72-1.2,1.21-.21.82.68-.19,1.17-1.48-.59.08,2,1.28-.6.59.18,1.65-2.23v-.83l-1.15-.73,1-1.25,0-1.56h1.15l.61-.57.17-3,.93-.62.77-1.31.44,2,.28,1,.71-1.5-.05-1.25.38-.63-.38-1.72,1-1.46.11-2.55,1.27-1.45.66-3.54.5-1.2-1.71-1.14Z"/>
        <polygon  class="cls-1 aaa" points="209.44 295.58 209.44 296.78 208.39 298.34 209.33 298.86 209.82 296.88 210.49 296 210.16 295.27 209.44 295.58"/>
        <polygon  class="cls-1 aaa" points="199.08 259.12 200.04 257.66 199.55 256.7 199.88 254.7 199.03 254.03 198.2 254.66 197.21 255.8 197.41 256.99 196.44 258.16 196.77 259.3 196.61 260.29 197.63 260.75 198.81 259.87 199.08 259.12"/>
        <polygon  class="cls-1 aaa" points="217.7 290.74 218.52 290.33 217.7 289.6 217.7 290.74"/>
        <polygon  class="cls-1 aaa" points="281.13 95.74 280.98 94.97 280.37 95.54 281.13 95.74"/>
        <polygon  class="cls-1 aaa" points="182.18 11.61 181.34 12.21 182.18 12.29 182.18 11.61"/>
        <polygon  class="cls-1 aaa" points="296.99 116.33 296.58 117.42 296.99 118.37 296.2 119.85 294.95 121.24 294.79 122.48 294.53 123.87 295.21 125.9 296.05 126.14 295.63 124.81 296 122.03 297.62 119.95 297.94 118.02 297.68 116.44 296.99 116.33"/>
        <polygon  class="cls-1 aaa" points="224.75 259.52 225.19 260.66 224.64 261.92 225.13 262.74 225.57 263.69 228.16 262.59 228.16 261.4 225.8 259.15 224.75 259.52"/>
        <polygon  class="cls-1 aaa" points="179.37 13.41 179.5 14.22 180.26 13.48 181.5 13.35 181.95 12.61 180.74 12.66 179.37 13.41"/>
        <polygon  class="cls-1 aaa" points="177.74 15.12 179.03 14.62 178.92 14.2 177.16 14.72 177.74 15.12"/>
        <polygon  class="cls-1 aaa" points="157.85 7.79 158.66 9.15 158.77 7.89 159.21 6.61 158.11 6.81 157.85 7.79"/>
        <polygon  class="cls-1 aaa" points="294.54 143.13 295.38 142.16 295.03 140.62 294.54 143.13"/>
        <polygon  class="cls-1 aaa" points="284.02 105.59 283.34 105.15 283.02 105.49 284.34 107.21 285.05 108.42 285.34 107.21 284.81 106.57 284.92 105.69 284.02 105.59"/>
        <polygon  class="cls-1 aaa" points="101.94 33.06 102.11 32.31 101.5 32.24 101.08 32.96 101.94 33.06"/>
        <polygon  class="cls-1 aaa" points="225.57 268.53 225.91 267.43 224.85 267.75 225.57 268.53"/>
        <polygon  class="cls-1 aaa" points="229.52 0 229.91 0.89 230.51 0.15 229.52 0"/>
        <polygon  class="cls-1 aaa" points="254.09 66.14 254.69 64.77 254.51 62.51 254.01 62.76 252.82 63.06 253.91 64.2 253.41 65.32 254.09 66.14"/>
        <polygon  class="cls-1 aaa" points="183.15 28.31 183.55 28.06 183.76 28.73 184.57 27.86 183.86 26.92 183.02 27.66 183.15 28.31"/>
        <polygon  class="cls-1 aaa" points="2.06 118.61 2.96 121.34 3.54 119.31 2.75 117.03 2.06 118.61"/>
        <polygon  class="cls-1 aaa" points="24.78 80.29 25.57 79.35 25.72 77.81 24.36 79.6 24.78 80.29"/>
        <polygon  class="cls-1 aaa" points="146.94 13.43 149.41 10.96 150.04 11.07 150.14 10.35 150.83 9.8 150.25 9.36 149.83 8.46 149.2 8.46 148.31 8.88 146.33 8.91 145.52 9.87 144.65 9.45 144.47 9 143.6 8.88 142.71 7.99 142.29 7.99 142.52 8.43 142.71 10.07 143.9 11.39 144.91 12.64 146.94 13.43"/>
        <polygon  class="cls-1 aaa" points="166.12 212.95 164.81 212.9 165.31 212.33 164.42 212.33 164.1 211.66 164.34 210.56 163.21 210.92 161.92 210.79 158.03 211.81 156.3 212.66 156.22 213.45 157.27 214.15 158.95 214.2 159.45 214.1 160.76 214.29 161.66 213.97 162.21 214.67 162.92 214.65 163.08 214.22 163.84 214.2 164.34 213.55 166.97 213.9 167.89 213.1 166.88 212.63 166.12 212.95"/>
         <path  class="cls-1 aaa" d="M3.8,114.94l-.16-1.88-.58,3S3.8,114.94,3.8,114.94Z"/>
         <path  class="cls-1 aaa" d="M95.51,38.43l.52.69,1.19-.22-1-1.21S95.43,38.48,95.51,38.43Z"/>
        <polygon  class="cls-1 aaa" points="95.82 43.16 95.69 41.69 94.98 40.67 95.09 42.69 95.82 43.16"/>
        <polygon  class="cls-1 aaa" points="142.36 11.72 144.02 12.06 143.84 11.64 142.63 11.24 142.03 8.78 141 9.25 141.19 9.48 141.13 10.22 141.47 10.37 141.47 10.75 140.76 10.55 140.29 10.62 140.24 11.39 141.76 11.76 142.36 11.72"/>
    </g>
</svg>