<svg id="Layer_1" data-name="Layer 1" xmlns="http://www.w3.org/2000/svg" viewBox="0 0 260 219"><defs><style>.cls-1{fill:rgb(144,144,144);stroke:#000;stroke-miterlimit:10;stroke-width:0.05px;}</style></defs><title>SA</title><polygon id="SAUDI_ARABIA" class="cls-1" points="157.64 46.38 146.22 42.87 144.54 42.85 121.03 42.46 62.67 1.93 50.97 0.49 46.47 5.17 27.91 10.94 41.97 26.25 36.74 32.55 36.38 36.15 26.84 37.59 17.83 46.41 5.23 42.81 1.35 42.98 1.01 47.57 1.2 52.86 -0.12 56.44 0.16 57.76 1.96 57.11 2.53 58.05 4.13 56.91 6.96 58.52 6.19 59 11.68 65.13 12.25 67.77 13.47 68.33 13.94 70.88 16.68 73.34 18 73.43 21.59 79.57 21.68 81.55 22.62 83.72 24.6 84.09 25.17 87.21 26.39 88.91 29.23 90.14 31.5 96.09 33.29 97.31 34.04 101.09 33.29 102.69 33.29 104.49 35.93 106.37 36.02 108.44 37.73 109.49 39.61 107.59 42.26 109.77 46.22 111.57 49.34 114.77 50.28 117.5 51.21 117.7 51.6 120.81 52.82 121.86 53.86 126.1 56.32 128.26 57.09 132.62 57.84 133.99 56.89 138.09 55.96 138.93 56.89 140.91 58.12 145.44 58.64 150.18 60.9 152.16 61.27 153.9 67.63 160.68 69.75 161.56 72.26 161.77 73.96 164.22 75.19 164.22 78.87 167.34 78.96 169.22 82.08 169.78 81.7 171.59 83.31 172.25 86.23 183.01 88.87 184.61 89.07 187.82 98.51 197.34 99.92 197.34 100.77 202.73 104.73 203.86 106.96 210.25 109.17 210.47 111.06 211.27 112.42 208.76 115.73 206.6 113.48 202.37 115.11 196.45 118.44 195.01 122.2 198.07 130.03 198.33 140.74 202.65 151.88 208.05 152.42 219.37 175.07 188.71 222.25 174.61 257.71 164.02 259.51 136.83 256.63 126.73 256.67 126.61 252.49 130.52 215.93 124.93 213.23 115.21 210.24 111.65 210.32 107.35 210.24 107.32 209.58 107.59 208.46 105.63 208.55 104.39 209.68 102.97 207.6 103.17 207.27 102.57 205.2 102.57 201.16 100.42 200.64 99.23 199.96 99.67 197.88 96.74 197.31 93.53 190.99 85.61 189.38 82.59 190.8 82.97 190.8 81.55 188.54 75.51 188.54 74.1 186.94 71.64 185.8 71.64 181.75 65.79 180.23 65.7 178.44 63.71 178.63 62.86 179.38 62.67 180.42 63.34 179.38 61.83 177.3 61.45 173.06 60.41 170.7 54.09 169.38 51.07 167.77 50.22 167.77 48.14 166.92 48.62 165.97 47.41 158.36 50.96 157.64 46.38"/></svg>