<svg id="ICONS" xmlns="http://www.w3.org/2000/svg" viewBox="0 0 500 500"><defs><style>.cls-1{fill:#fff;}</style></defs><title>Artboard 1 copy 26</title><path class="cls-1" d="M344.56,0H153.44C68.69,0,0,68.93,0,154V345.75c0,85,68.69,154,153.44,154H344.56C429.31,499.7,498,430.77,498,345.75V154C498,68.93,429.31,0,344.56,0ZM450.2,327.34c0,68.73-55.53,124.41-124,124.41H171.78c-68.48,0-124-55.68-124-124.41v-155C47.79,103.68,103.3,48,171.78,48H326.23c68.44,0,124,55.73,124,124.41Z"/><path class="cls-1" d="M255.68,119.11c-72.47,0-131.19,58.91-131.19,131.61s58.72,131.62,131.19,131.62,131.16-58.95,131.16-131.62S328.11,119.11,255.68,119.11Zm0,210.8a79.19,79.19,0,1,1,78.91-79.19A79.06,79.06,0,0,1,255.68,329.91Z"/><path class="cls-1" d="M411.12,117.05a33.36,33.36,0,1,1-33.36-33.49A33.43,33.43,0,0,1,411.12,117.05Z"/></svg>