<svg id="ICONS" xmlns="http://www.w3.org/2000/svg" viewBox="0 0 500 500"><defs><style>.cls-1{fill:#fff;fill-rule:evenodd;}</style></defs><title>Artboard 1 copy 29</title><g id="UG8QpP"><path class="cls-1" d="M215.54,341.32c25.69,29.46,68.4,40.52,105.82,29.08a217,217,0,0,0,22.84-8.32A141.93,141.93,0,0,0,384,337c33.36-30.43,51.5-68.74,59.93-112.29,10.95-56.6,1-109.39-34.74-154.78C387.42,42.3,356.75,24.2,324,12.77,279.54-2.76,229.63-4.6,184.7,9.87a204.52,204.52,0,0,0-37.59,16.5C105,50.28,72.66,88.8,59.44,135.58A220.26,220.26,0,0,0,52.58,174c-3,31.21,3.89,62.12,18.07,89.91,2.23,4.41,5.06,8.44,7.17,12.9,5,10.56,12.6,21,21.88,28.18,4.31,3.33,9.63,6.24,15.28,5.86,7.83-.55,9.79-8.06,12-14.54,2.36-7.17,3.16-14.71,4.74-22,1.4-6.7,1.59-10.71-2.57-16.65-33-46.83-21.65-122.66,19-160.64C184.91,62.57,226.7,52.51,273.5,59.14c41.7,5.94,78.9,33.28,95.2,72.58,6.67,16.1,8.82,37.94,9.05,55.06.35,24.67-3.54,46.75-13.13,69.8-8.14,19.71-20.43,38.77-37.64,51.79-25.31,19.11-78.48,27.4-89.19-12.37a76.73,76.73,0,0,1-1-32.42c5-25,14.58-48.69,20.33-73.42,3-13.19,5.08-26.46,1.47-39.91-4.24-15.88-14.1-26.13-30.58-28.36-17.54-2.42-34,3-44.17,16.69-21.25,28.46-24,61-13.52,94.51,2.21,7.21,3,13.4,1.17,20.89-10,40.66-18.77,81.65-29.22,122.18-7.11,27.55-9.51,55.84-8.16,84.2.36,7.87.54,15.81,2.35,23.51,1.19,5.17,3.09,12.54,8.16,15.25,7,3.71,13-5.23,16.26-10.08,13-19.2,23.17-40.6,30.84-62.44,5-14.18,8.88-28.72,12.67-43.28C205.75,378.2,213.14,351.79,215.54,341.32Z"/></g></svg>