<svg xmlns="http://www.w3.org/2000/svg" viewBox="0 0 500 500"><defs><style>.cls-1{fill:#fff;}</style></defs><title>Artboard 1 copy 32</title><g id="ICONS"><path id="Bird" class="cls-1" d="M250.67,99.33C184,99.33,134,116.08,84,166.08H.67s0,25,33.37,33.38C19,219.83.67,255.33.67,282.71c0,68.75,47.87,116.62,116.62,116.62,39,0,77.13-21.87,100-50l33.38,50,33.37-50c22.88,28.13,61,50,100,50,68.75,0,116.63-47.87,116.63-116.62,0-27.38-18.38-62.75-33.38-83.38C500.67,191,500.67,166,500.67,166H417.29c-50-50-100-66.63-166.62-66.63Zm0,16.63C334,116,384,166,384,166c-66.75,0-133.37,83.37-133.37,166.75,0-83.38-66.63-166.63-133.38-166.63,0-.12,50-50.12,133.38-50.12ZM117.29,199.33a83.38,83.38,0,1,1-83.37,83.38,83.36,83.36,0,0,1,83.37-83.38Zm266.75,0a83.38,83.38,0,1,1-83.37,83.38A83.36,83.36,0,0,1,384,199.33ZM117.29,232.71a50,50,0,1,0,50,50,50,50,0,0,0-50-50Zm266.75,0a50,50,0,1,0,50,50,50,50,0,0,0-50-50ZM117.29,249.33a33.38,33.38,0,1,1-33.37,33.38A33.45,33.45,0,0,1,117.29,249.33Zm266.75,0a33.38,33.38,0,1,1-33.37,33.38A33.45,33.45,0,0,1,384,249.33ZM117.29,266a16.63,16.63,0,1,0,16.63,16.62A16.61,16.61,0,0,0,117.29,266ZM384,266a16.63,16.63,0,1,0,16.63,16.62A16.61,16.61,0,0,0,384,266Z"/></g></svg>