<svg id="ICONS" xmlns="http://www.w3.org/2000/svg" viewBox="0 0 500 500"><defs><style>.cls-1{fill:#fff;}</style></defs><title>Artboard 1 copy 28</title><path class="cls-1" d="M157.25,453.19c188.71,0,291.89-156.36,291.89-291.91,0-4.44-.07-8.86-.3-13.25A208.08,208.08,0,0,0,500,94.9a205.23,205.23,0,0,1-58.89,16.15,103.23,103.23,0,0,0,45.12-56.74,206.49,206.49,0,0,1-65.16,24.92,102.6,102.6,0,0,0-177.44,70.13,104.94,104.94,0,0,0,2.63,23.44A291.52,291.52,0,0,1,34.8,65.59a102.66,102.66,0,0,0,31.78,137A101.93,101.93,0,0,1,20.1,189.69c0,.46,0,.87,0,1.31a102.61,102.61,0,0,0,82.27,100.57,103,103,0,0,1-27,3.62,101.19,101.19,0,0,1-19.29-1.89,102.69,102.69,0,0,0,95.81,71.29A205.72,205.72,0,0,1,24.46,408.51,208.48,208.48,0,0,1,0,407.07a290.11,290.11,0,0,0,157.25,46.12"/></svg>