<svg id="ICONS" xmlns="http://www.w3.org/2000/svg" viewBox="0 0 500 500"><defs><style>.cls-1{fill:#fff;}</style></defs><title>Artboard 1 copy 31</title><path class="cls-1" d="M499.42,195c-.21-5.91-.51-11.83-1-17.74-1.92-25-4.71-53.74-21.26-73.78-14.17-17.15-36.11-21-56.94-23.38-26.37-3-52.87-4.79-79.39-5.8-53.72-2-107.49-.86-161.21.33-27.6.61-55.22,1.23-82.74,3.42-33.79,2.69-68.55,7.64-84.29,41.41C-1.51,149.74.25,188.22.07,220.84c-.16,29.24-.26,58.49.91,87.71,1.53,37.92,3.78,87.31,44.71,104,21.85,8.87,48.24,10.86,71.58,12.37,24.73,1.61,49.54,1.42,74.31,1.79,52,.77,103.91-1,155.85-2,36.08-.72,73.11-1.13,107.64-12.91,29.8-10.17,37.57-42.46,41.6-70.48,4-27.83,3-56.08,2.94-84.11C499.58,236.42,500.13,215.67,499.42,195ZM199.23,325.49V173.43l129.42,76Z"/></svg>