<svg id="NETWORK" 
    xmlns="http://www.w3.org/2000/svg" viewBox="0 0 300 300">
    <defs>
       <style>
         .cls-11{fill:#da1a35;}
                
        </style>
    </defs>
 
    <g id="PORTUGAL">
       <path   class="cls-11 aaa"  d="M114.8,10.52a4,4,0,0,1-.22,1.39,2.78,2.78,0,0,1-.82.77c-.32.24-.17,0-.53.34a4.74,4.74,0,0,0-.8,1.07c-.15.22-.9.14-1.14.24s-.42,0-.63.34-.34.87-.54,1.09a12.53,12.53,0,0,1-1.09.85c-.17.15-.34,0-.44.34s-.24,1-.29,1.16.44,1.22.44,1.48-.44,1.82-.44,2.09a6.66,6.66,0,0,0,.39,1.28c.1.3,0,.68.2,1.1a13.24,13.24,0,0,0,.94,1.5,4.51,4.51,0,0,0,.7.39.37.37,0,0,1-.19.24c-.17.1-.44.56-.19.68s.68.63.55,1a3,3,0,0,0-.14,1.77c.19.73.34,1.53.39,1.85s.14.94.24,1.38-.2.58.24.8.56.36.68.68a1.08,1.08,0,0,1,.07.77c-.07.2-.19.22-.22,0s.08-.36-.19-.48-.51-.1-.53,0a1.59,1.59,0,0,0,.09,1c.22.34,1.46,3.57,1.6,3.93s.34.63,0,1.07a3,3,0,0,0-.6,1.67,5.41,5.41,0,0,0,.87,2,10.43,10.43,0,0,1,.85,1.82c.1.41,1,6.08,1,6.08a10.82,10.82,0,0,0,.44,2.23c.24.42.53,2.33.75,2.53a1.92,1.92,0,0,0,.83.29c.36.09,1,0,1,.26s0,.25-.29.25-.89-.32-.92,0a3.75,3.75,0,0,0,.15,1.62,12.69,12.69,0,0,1,.6,2.89,17.61,17.61,0,0,1-.09,2.59c-.1.66-.42,3.88-.42,3.88s-.7,3.66-.7,3.91-.8,3.46-.85,3.68a15.47,15.47,0,0,1-.26,1.75,11,11,0,0,1-.73,1.91,4.47,4.47,0,0,0-.44,1.65c0,.29-.29,1.12-.41,1.7s-.36,1.19-.44,1.67-.29.78-.11,1.17.06.56.33.6.29,0,.41-.12.61-.09.73-.24-.05-.51-.05-.51l-.34.22c-.12.07-.36-.27-.34-.53a2.47,2.47,0,0,1,.1-1.14,11.67,11.67,0,0,0,.8-1.36,2.67,2.67,0,0,0,.24-1.41c0-.8-.14-.29.08-1a6.15,6.15,0,0,1,.67-1.53c.22-.34.56-.44.49-.9s-.22-.46-.27-1a5.53,5.53,0,0,1,.39-2.11c.24-.53.41-.85.58-.75s.44.22.34.49a13.56,13.56,0,0,0-.65,1.62c-.1.46-.2,1,0,1.19s.49,0,.61,0,.51-.19.51-.58-.22-.66,0-.56.3.1.29.34,0,.36.2.32.29-.27.36-.13.56.34,0,.59a7,7,0,0,0-1.36.72c-.31.25-.6.39-.77.71s-.49.58-.37.87.37.41.27.51-.34.14-.24.53.24.73.46.61.46-.34.53-.07a.38.38,0,0,0,.63.14c.25-.19.46-.6.51-.34s.2.71.44.56.44-.66.65-.46,0,.46,0,.75-.55.73-.72.7a1.5,1.5,0,0,0-.56.1c-.27.07-.24.17-.51,0a2.35,2.35,0,0,0-.58-.24c-.12,0-.44.17-.32.46a2.26,2.26,0,0,0,1.12.8,4.4,4.4,0,0,1,1.28.53,1.27,1.27,0,0,1,.4.68c0,.19-.08.44-.37.17s-.71-.63-1-.58-.58,0-.6.34a3.67,3.67,0,0,1-.27,1.14,15.25,15.25,0,0,1-1.65,1.06c-.12.1-.46,0-.75,0s-.68,0-.71.61a13.81,13.81,0,0,1-.32,1.58,15.85,15.85,0,0,1-.82,2.47c-.14.32-.65.56-.63,1s.22.64.13.83-.3,0-.44.39,0-.17-.15.34a1.7,1.7,0,0,1-.48,1.06,2.27,2.27,0,0,0-.63.88c-.05.24-1.14,5.57-1.24,5.89s-1.67,5.29-1.82,5.75-1.6,3.54-1.77,3.78-.75.9-.75,1.28a1.46,1.46,0,0,0,.53,1c.22.12.46.1.59.34s.12.66.31.71a1.41,1.41,0,0,1,.58.14c.17.12.49.49.42.66s-.3.29-.39.38a2,2,0,0,0-.39.56c0,.1-1.36,5.12-1.41,5.31s-1.38,5.34-1.65,5.92-2.23,5.6-2.57,6.16-1.6,2.64-1.91,3.13a10.12,10.12,0,0,0-.92,2.18,4.31,4.31,0,0,0-.2.85c0,.36-.22,2.18-.17,2.45s-1.89,3.93-1.94,4.07.37.49.41.73a1,1,0,0,1-.24.9c-.24.17-.34.09-.53.36s-.7,1.31-1,1.72-1.26.88-1.35,1.29,0,1-.27,1-.78-.17-.92.12a11.78,11.78,0,0,1-1.7,2.25c-.41.27-.87.34-.7.75s.41.39.63.56.34.22.36.78,0,1,.29,1.11a2.51,2.51,0,0,0,.61.17c.1,0,.41.39.19.44s-.48-.1-.53,0,.1.22-.1.41-.58-.24-.7-.12.12.12-.29.46-.54.49-.63.2.14-.3.22-.51-.13-.46-.1-.61.24,0,.31-.19-.41-.37-.17-.46.49-.13.51-.22-.41-.15-.36-.32.19-.27.15-.36-.44,0-.76-.05a1.72,1.72,0,0,1-.63-.53s-3.51,3.85-3.66,4-.46-.12-.43-.36-.08-.61-.3-.41-.19.52-.26.81-.29.38-.51.25-.63-.09-.58-.36-.17-.39-.37-.17a1.35,1.35,0,0,1-.77.32c-.25,0-.56.24-.56.43s.05.2.29.44.44.31.58.27a2.12,2.12,0,0,1,.58-.22c.2,0,.78.19.83.41s-.1.41-.12.75-.08.63.12.85.85.65,1,.82.12,1.19,0,1.63-.42.68-.39,1.11.17.8.17,1.22a1.75,1.75,0,0,1-.17.85c-.15.36-.85,2.83-.88,2.95S82,173.7,81.87,174s-.92,3.22-1.09,3.44a3.3,3.3,0,0,0-.17,1.87,12.11,12.11,0,0,1-.06,2,3.83,3.83,0,0,1-.13,1.19c-.08.43-.17,2.71-.17,3.15A2.08,2.08,0,0,1,80,186.8c-.17.19-.39.24-.39.51s.14,1.14.12,1.38a5.53,5.53,0,0,1-.63,1.09s0,1.41,0,1.67-.2.83-.37.88-.38,0-.41.12.2.29,0,.38a6.72,6.72,0,0,0-1.28.93c0,.12-.25.63-.2.8A14.61,14.61,0,0,0,78,196.25a.9.9,0,0,1,.27.78,1.79,1.79,0,0,1-.34,1,.64.64,0,0,0-.17.61,2.12,2.12,0,0,0,.6.8c.32.24,1.12.58,1.31.48s.83-.34,1-.46.83-.27,1-.07.7.37.82.55.32.22.46.37a2.22,2.22,0,0,0,.61.29c.12.05.29.44.63.24s1.24-.51,1.84-.77.56-.42,1.29-.27a10.23,10.23,0,0,0,1.82.19c.53,0,1.5-.07,2-.07s.22.15.95-.29a12,12,0,0,0,1.79-1.7A5,5,0,0,0,95,196.81a5.8,5.8,0,0,0,.63-1.7,2.94,2.94,0,0,0,.17-1c0-.31-.24-.51-.17-.75a.87.87,0,0,1,.46-.7,6.37,6.37,0,0,0,1.38-1.19,5.52,5.52,0,0,0,.51-1.09c0-.22,0-.39-.1-.27s-.19,0,0-.17a2.41,2.41,0,0,0,.51-.7,13.44,13.44,0,0,0,.61-1.56c.21-.6.09-1,.77-1.72a12.09,12.09,0,0,0,1.43-1.77c.29-.43,1.17-1.79,1.36-2.06a6.85,6.85,0,0,1,.85-1c.36-.34.77-1,1.36-1s2,0,2.16,0,.07,0,.21.3a1.49,1.49,0,0,1,.15.89c0,.22,0,.42-.1.58s-.39.3-.48.44-.08.53-.17.56-.27-.17-.22-.36,0-.32.14-.47.49-.46.42-.72-.12-.2-.66-.34-.6-.29-.94-.24-.83-.08-1.14.38a5.23,5.23,0,0,0-.8,1.34,14.62,14.62,0,0,1-1.17,2.23,14.44,14.44,0,0,0-.82,1.45,5,5,0,0,0-.39,1,3.82,3.82,0,0,0,0,1.31c.12.32.41.58.53,1a.9.9,0,0,1,0,.88,6.2,6.2,0,0,0-.39,1.3c0,.17,0,.64.27.54a3.44,3.44,0,0,0,.61-.49c.24-.19.21.1.09.42s-.36.46-.41.67a1.55,1.55,0,0,0,.12,1.07c.22.34.44.49.39,1a1.45,1.45,0,0,1-.39,1,1.24,1.24,0,0,1-.75.46c-.24,0-.46-.12-.78-.14s-.46-.15-.82.12-.78.7-1,.82-.36.15-.68.34-.34.27-.51.37-.51.09-.51.43.05,1,.39,1.05a.68.68,0,0,0,.68-.17c.19-.15.46,0,.8,0s.36-.27.61-.37.75-.1.87.1.19.44.51.48.75.1.68.25a.87.87,0,0,1-.68.34c-.32,0-.54-.25-.78-.25s-.56-.12-.8.22a.54.54,0,0,0,.1.83c.26.17.77.63.53.67a6.86,6.86,0,0,1-1.36-.19.39.39,0,0,0-.38.2c-.08.14-.73-.32-1.17-.39a1.22,1.22,0,0,0-.87.31s-.27.49-.46.51-.29.05-.29.27-.1.46.09.56.44-.1.76.31a3.85,3.85,0,0,1,.65,1.33,2.45,2.45,0,0,1,0,.83c0,.22-.36-.07-.58-.39a5.77,5.77,0,0,0-1.22-1.31c-.24-.07-.58.15-.72.17s-.56.07-.66-.1a.49.49,0,0,1,.17-.58c.2-.14.37-.29.24-.51s-.21-.17-.48-.19a.93.93,0,0,1-.63-.44c-.07-.14-.2-.05-.12-.41s.53-.68.17-.85-.27-.31-.61-.19a1.65,1.65,0,0,0-.77.36,2.05,2.05,0,0,1-.93.49,8.28,8.28,0,0,1-1.31.17c-.46,0-.48-.17-.89,0a1.6,1.6,0,0,1-1.09.1A5.83,5.83,0,0,0,86,201.1a.22.22,0,0,0-.12.39.72.72,0,0,0,.61.22c.24,0,.34-.17.58,0a7.35,7.35,0,0,1,.87.9,11.24,11.24,0,0,1,1.17,1c.12.24.41,2,.55,2.25a2.93,2.93,0,0,1,.68,1c.17.53.15.72.27,1s.29.42.17.9a6.87,6.87,0,0,0-.27,1.26c0,.32.07,1.19.07,1.46a3.19,3.19,0,0,1-.09,1,9.67,9.67,0,0,1-.34,1.26,8.58,8.58,0,0,0-.44,1.12,5.71,5.71,0,0,1-.77,1.06c-.08.1-.15.44,0,.44s.59-.17.68,0,0,.51.25.36,1.21-.82,1.45-1a2.36,2.36,0,0,1,1.31-.1,2.47,2.47,0,0,0,1.53-.34,7.78,7.78,0,0,1,2.67-.55,5.26,5.26,0,0,0,1.57-.17,11.29,11.29,0,0,1,2-1.34,10.84,10.84,0,0,0,2-.92,1,1,0,0,0,.34-.65c0-.22-.29-.44-.1-.8a2,2,0,0,1,2-.68,2.6,2.6,0,0,1,1.11.56,12.87,12.87,0,0,1,1.55,1.18,5.19,5.19,0,0,1,.37.66c0,.07.48-.07.89,0s.61.2.83.2.8,0,.9-.27.65-1.26.51-1.58-.64-.8-.56-1.11.53-.78.63-.95-.05-.68.17-.77.58-.34.73-.29-.17.53-.17.68.31.53.29.72-.2.27-.17.49.07.73.17.75.31-.22.43,0,.08.41.15.53a.2.2,0,0,1-.1.31c-.14.05-.31-.17-.36.13a1,1,0,0,0,0,.63c.07.17,0,.26,0,.72a6.26,6.26,0,0,1-.12,1.39c-.1.19-.22.17-.1.36s.2.75.49.63.19-.24.55-.19.71,0,.76.26a3.23,3.23,0,0,0,.21.78,4.33,4.33,0,0,0,.85.81,2.94,2.94,0,0,1,.46.43,4.23,4.23,0,0,0-1.11,0,2.79,2.79,0,0,1-1.65-.15c-.22-.22-1.29-1.41-1.55-1.58s-.22-.31-.41-.26a.51.51,0,0,0-.3.51c0,.17,0,.36-.17.21s-.48-.26-.48-.48,0-.49,0-.49-.07-.19-.14-.14-.22.31-.34.31a.24.24,0,0,1-.22-.17c0-.07-.41-.09-.48-.14a1.89,1.89,0,0,1-.37-.32c-.05-.07-.22-.14-.22,0a1.66,1.66,0,0,0,.27.63c.15.25.27.39.22.49s-.15.34-.29.36-.88-.85-1.24-1.19-1.16-.8-1.26-1.11a5,5,0,0,0-.17-.66,1.82,1.82,0,0,0-.65-.92,2.43,2.43,0,0,0-.76-.22c-.24,0-.46,0-.46,0a.78.78,0,0,0,.27.49c.27.26.48.29.56.55s-.1.2.07.51.07.2.39.46a6.81,6.81,0,0,0,.87.76,1.74,1.74,0,0,1,.9.48,4.47,4.47,0,0,1,.77,1.24,15,15,0,0,1,.73,1.5c.17.44.24,1.53.56,2.4a6.85,6.85,0,0,1,.34,2.35c0,.73.46,5.92.41,6.38s-1.07,2.86-1.09,3.49.07.63-.19,1.12-.29.63-.49,1-.39,2.72-.63,3.15-.78,2.16-.92,2.5a5.08,5.08,0,0,1-.9,1.31c-.26.22-.94,0-1.21.39s-.34.34-.34.68-.17.65,0,.6.83-.34,1-.21.1.26.13.48,0,.24.31.44.83.68,1,.68.37-.32.63,0a2.72,2.72,0,0,1,.51,1c.1.31.15.75.2,1a1,1,0,0,1,0,.61,4,4,0,0,1-.25.58,2.69,2.69,0,0,0,0,1.19,10,10,0,0,0,.29,1.57c.07.39.14.51.07.75s-.53,1.6-.56,1.94a8.93,8.93,0,0,0-.14,1.56,1.93,1.93,0,0,0,.34.58c.12.17.14.68.21.8s.25.12.37.12a2.14,2.14,0,0,1,.46.14s0,.3-.15.42a1.59,1.59,0,0,0-.38.46s-.1.14,0,.41a17.26,17.26,0,0,1-.09,2.5c0,.24-.2.39-.32.56s-.29.29-.24.55.22.39.12.83-.53,1.67-.58,2a1.37,1.37,0,0,0,.12.9c.15.32.24.83.39,1.07s.34.39.34.56.51,2.45.46,2.74a25.11,25.11,0,0,0-1.07,2.69c0,.53,0,1.5,0,2a22.11,22.11,0,0,1-1.46,3.37,4.16,4.16,0,0,1-.46.8c-.17.17-.8.44-.85.68a4.36,4.36,0,0,0,.12.9,3.37,3.37,0,0,1-.34.73,1.92,1.92,0,0,1,.27.48c0,.15-.07.54-.05.75s.29,1.07.32,1.39a5.82,5.82,0,0,1-.39,1.43c-.1.26-.39.87-.49,1.06a3.21,3.21,0,0,1-.48.66,1.07,1.07,0,0,1-.51.41c-.22.07-.78,0-.78.22s.13.24.2.41,0,.49,0,.58.38.12.38.39a7,7,0,0,1-.07.75,3,3,0,0,1,0,.78.83.83,0,0,1-.41.53,3,3,0,0,0-1,.88c-.3.41-.85.89-1.07,1.21a.91.91,0,0,0-.22.77c0,.27.15.71.07.83s-.19.1-.36.24a1,1,0,0,0-.34.49,1.57,1.57,0,0,1-.24.55c-.1.1,0,.32-.27.39s-.39-.05-.41.17-.12.27,0,.41.25.22.34.15.07-.19.15-.32.09-.31.19-.19a1.44,1.44,0,0,0,.37.32,4.61,4.61,0,0,1,.41.22.7.7,0,0,1,.34.36c.07.24.34.46.24.65s-.1.44,0,.49.19-.05.24-.17-.22,0,0-.12.44-.1.56-.29.1-.64.17-.76a.61.61,0,0,1,.53-.31,2.4,2.4,0,0,0,.75-.05c.17-.07.42-.7.63-.78a2,2,0,0,1,1.12-.09c.48.12.53.22.87.14s1-1.09,1.17-1.19a2.58,2.58,0,0,1,1.35.13,2.09,2.09,0,0,0,1.48,0c.25-.19.17-.7.78-.78a11.07,11.07,0,0,1,1.28-.19,6.83,6.83,0,0,1,1.27.22c.19,0,.29,0,.29.14s.09.42.17.37.24,0,.29-.25.19-.65,0-.89-.42-.17-.25-.41.27-.56.63-.56.13.05.37,0,.36.14.48.14.32-.09.27-.24-.17-.22-.15-.31.15-.34.34-.32a1.76,1.76,0,0,1,.76.36c.19.17.36.27.26.32s-.24.1-.17.19a.44.44,0,0,0,.34.22c.17,0,.46-.19.75-.19a6.75,6.75,0,0,0,1-.2,1.61,1.61,0,0,1,.6-.12,5.66,5.66,0,0,0,.68.24c.1,0,.07-.21.22-.31a1,1,0,0,1,.65-.07c.08,0,.44.14.51.34a1.23,1.23,0,0,0,.34.51,1,1,0,0,0,.59.24,4.75,4.75,0,0,1,.46.14c.09,0,1.23,0,1.65,0s1.11.17,1.35.17a3.87,3.87,0,0,0,.9,0A8.77,8.77,0,0,1,127,293a2.77,2.77,0,0,1,1,0c.12.08.75.66,1.11.9a4.41,4.41,0,0,0,1.26.73c.32,0,.27.1.51-.1s.71-.7,1.07-.72a1.74,1.74,0,0,1,.83.24,2.41,2.41,0,0,0,.94.05c.2-.08.53-.27.7-.32a8.55,8.55,0,0,1,1.36-.19c.34,0,.61-.1.78.14s.44.73.75.88.58,0,.9.17S147,300,147.05,300s.32,0,.32,0-.32-.17,0-.12a4.24,4.24,0,0,0,.95.15c.26,0,.5.19.65,0s.15-.4.44-.38.41.14.58.07,1.07-.31,1.21-.53a1.55,1.55,0,0,1,.61-.49,1,1,0,0,0,.48-.48,1.8,1.8,0,0,1,1.05-.75,6.22,6.22,0,0,0,1.52-.44c.42-.24.95-.9,1.39-1a15,15,0,0,1,1.69-.51.88.88,0,0,0,.92-.17c.51-.39,1.92-1.58,2.28-1.84a2.5,2.5,0,0,0,.9-.83,12.55,12.55,0,0,1,1.41-2,11.82,11.82,0,0,1,1.72-1.12,7.67,7.67,0,0,1,2.16-.39,24,24,0,0,1,3.13-.07c.63.15,1.21.24,1.28.39s.17.46.17.46a.36.36,0,0,0,.22-.36c0-.29.05-.29-.22-.75s-.51-.73-.51-1.05,0-.14,0-.72-.13-.47-.2-.78-.46-.9-.46-1.14-.31-.32-.14-.51a4.65,4.65,0,0,0,.53-1.12,1.36,1.36,0,0,0,.1-1c-.15-.49-.17-.32-.49-1a8.93,8.93,0,0,1-.68-2.6c0-.65,0-2.23,0-3.13a9,9,0,0,0-.39-2.76c-.29-1-1.7-3.69-1.8-4.15s-.75-1.72-.58-2.33a6.35,6.35,0,0,1,.46-1.84c.39-.7,2.82-5.38,3-5.77s.12-2.43.34-2.84,5.58-4.75,5.92-5.43,2.52-7.93,2.74-8.15,4.85-1,5.16-1.16.88-1.34,1.14-1.38a20.05,20.05,0,0,1,2.62.8,3.05,3.05,0,0,0,1.19-.27c.27-.15,1-.15,1-.58s-.32-1.53-.17-1.77,2.54-7.64,2.54-7.84.3-.5-.26-.53-5.29,1.5-5.58,1.55a1.77,1.77,0,0,1-1.28-.72c-.2-.39-1.19-3.88-1.29-4s-1.82-1.31-2-1.58-2.62-3.63-2.94-4.07-2.4-4.39-2.64-4.61-1.09-.19-1.21-.53-.46-.73-.25-1,1.12-1,1.14-1.38-.41-.92-.24-1.41a5.37,5.37,0,0,0,.46-1.62c0-.54-.39-1.6,0-2.21s1.72-1.65,1.89-2.69-.29-3.66-.1-4.39a6.79,6.79,0,0,1,.78-2.16c.36-.41,2.79-.85,3.35-1.55s1.67-3.37,2.23-3.44,1.6-.32,2.06-.39.43.09.77-.24.44-.64.73-.83.75-.19.8-.58a2,2,0,0,0,.07-.87c-.07-.37-.55-.71-.38-1.17a2,2,0,0,1,.46-.75c.17-.22-.15-.73.12-1.07s2.76-3.66,3-4.24,0-.66,0-1a2.93,2.93,0,0,0,.22-1.14c-.07-.44-1.11-.9-1.06-1.36s.24-.61,0-1.17a8.87,8.87,0,0,0-1.65-1.79,1.38,1.38,0,0,0-1.09-.27,15.1,15.1,0,0,1-3,.76c-.36-.15-1.16-.51-1.06-.95a7.7,7.7,0,0,0-.12-2.64c-.22-.34-3.21-1.6-3.4-1.82a2.51,2.51,0,0,1-.63-.92c-.07-.34-.75-1.7-.75-2s.26-1.57.24-1.82-2.67-2.35-2.91-3-.65-1.14-.68-1.63-.17-.58-.05-.85,0-.31.29-.63.39-.24.44-.53a3.52,3.52,0,0,1,.1-.78c.09-.21.24-.07.14-.43s-.63-.2-.53-.83.12-1,.17-1.33a2,2,0,0,0-.53-1.16c-.25-.32-.78-.2-1.05-.51a13.32,13.32,0,0,0-1.16-1.26c-.24-.2-.53-.71-1.38-1.48s-1.26-1.46-1.75-1.9-1.19-.89-1.41-1.18-.14-.27-.48-1.12a7.41,7.41,0,0,0-1.41-2.16c-.51-.56-1-1.11-1-1.36s-.05-.67.54-.67,1.11-.17,1.16,0,.15.76.29.56.17-.46.41-.34a7.58,7.58,0,0,0,1.8.34c.41,0,1.65-.05,2.18,0s1.29.34,2.26.56a3.3,3.3,0,0,0,2.08-.22c.34-.14.75-.51,1.09-.46s.58.27.78.29,1.84-.07,2,0,.19.22.36.22.63-.51.87-.46a11.6,11.6,0,0,1,1.14.27,2.41,2.41,0,0,0,.88.19c.26,0,.82-.17,1.09-.17a5.25,5.25,0,0,0,1.65,0,5.76,5.76,0,0,0,1.31-.87c.14,0,.7.05.89,0s.73-1.26,1.29-1.91a6.58,6.58,0,0,0,1-2.6c.17-.75.34-1.6.51-2.2a4.33,4.33,0,0,0,.32-2c-.17-.44-.58-.87-.37-1.19a33.11,33.11,0,0,0,2.06-2.62c.34-.63-.65-2.23-.63-2.81s1.36-1.31,1.41-1.94-.56-1.11-.51-1.65.52-1.14.51-1.67-1.5-1.46-1.87-2.09a6.85,6.85,0,0,1-1-2.3c0-.46-2.62-.8-2.74-1.38a32.13,32.13,0,0,1,0-4.9,6.54,6.54,0,0,1,1.77-2.3c.58-.44.75-.93,1.43-1.12s2.16.17,2.47-.12,1.63-3,1.87-3.2,1.45-.44,1.6-.8.73-1.24.41-1.87-1.55-1.48-1.91-2.3-1.41-2.11-1.36-2.5a4.28,4.28,0,0,1,.51-1.72c.31-.42,1-1,1.26-1.46s.46-.58.46-1.07a14.94,14.94,0,0,0-.29-2c-.05-.22-1-.51-1.12-.71a1,1,0,0,1-.1-1c.17-.32.54-.92.83-1.43a4.1,4.1,0,0,0,.51-1.51,13.89,13.89,0,0,0-.17-2.66,17.3,17.3,0,0,1-.68-2.19c0-.5.07-2.78,0-3.9s-.85-3-.66-3.27,1-.32,1.05-.85-.37-.75-.68-1.19a8.11,8.11,0,0,1-1.58-2.16,13.26,13.26,0,0,0-.63-2.5,4.91,4.91,0,0,0-1.28-1.62c-.37-.22-.78-.17-1-.53a7.18,7.18,0,0,1-.63-1.8c0-.34-.51-.63.22-.56a10.15,10.15,0,0,0,2.38-.19,8.78,8.78,0,0,0,2.76-.95A24.64,24.64,0,0,0,199.89,61a8.53,8.53,0,0,0,.66-2.06c.12-.61,0-1.48.41-2s1.87-2.23,2.43-2.88,1-2.43,1.74-2.6,1.39,0,2.14-.19A6.92,6.92,0,0,0,209.38,50a14.54,14.54,0,0,1,1.84-.58c.51-.22,1-.49,1.43-.61s.75.12,1-.17.1-1.53.49-1.7a4.37,4.37,0,0,0,1.57-.75c.47-.46.56-.46.68-1.11s-.26-1.07.17-1.34a8.92,8.92,0,0,0,1.51-.75c.7-.51,1.09-.44,1.43-1.21s1.77-3.11,2-3.71a8,8,0,0,1,1.12-1.8,8,8,0,0,0,1-2.18c.17-.48.9-1,.56-1.41s-1-1-1.53-1.52-1-.78-1.23-1.26-.2-.8-.88-1.05-3.29-1.53-3.63-1.65a10.23,10.23,0,0,0-1.85,0,8.55,8.55,0,0,0-1.94.12c-.48.1-.63.1-.8.27s-.46.58-.82.51a21.13,21.13,0,0,1-2.6-3c-.12-.2-1.47-1.65-1.45-2a9.53,9.53,0,0,1,.63-1.77,6.94,6.94,0,0,0,.65-1.56c.08-.55-.09-1.26,0-2a2.42,2.42,0,0,1,.42-1.21c.17-.29.53-.49.09-.73s-.94-.12-1.38-.27-.77-.12-.73-.94a4,4,0,0,1,.46-1.87c.25-.34.64-.46.34-1a2.8,2.8,0,0,0-1.18-1.13c-.39-.13-.54-.15-1.17.14s-.8.75-1.65.92a19.58,19.58,0,0,1-4,0,2.15,2.15,0,0,1-1.24-1.24c-.19-.58-.26-1.06-.72-1.26s-1.36-.55-1.53-.34a1.88,1.88,0,0,0-.39,1.29c.05.6.15,1.33-.48,1.53a4.25,4.25,0,0,1-2.26.17c-.78-.22-1-.27-1.19-.17s-.77.53-1,.46A4.47,4.47,0,0,1,190,10.57c-.17-.46-.63-.92-.8-.82s-1.43,1.53-1.77,1.55-2.62.32-2.79,0,.2-1.53-.87-1.75-1.84-.48-2.47-.21a3.77,3.77,0,0,0-1.41.75,1.47,1.47,0,0,0-.36,1.23c.09.61.46,1.53.58,2.21s.19.9-.22,1.38a30.1,30.1,0,0,1-4.22,2.67A2.41,2.41,0,0,1,174,18c-.54-.07-.71-.17-1.19-.24s-.71-.05-.85.29a11.51,11.51,0,0,1-.58,1.17c-.22.36-.29.75-.68.58a4.85,4.85,0,0,1-1.21-1.07c-.32-.34-.9-.48-1-.95s0-.84-.19-1a3.5,3.5,0,0,0-1.9-.43c-.29.17-.38.29-.12.67s.61.76.1.93a11,11,0,0,1-1.87.41c-.39,0-.8,0-1,.24s-.53.58-1,.44-.7-.22-.65-.54-.15-.63.17-1,.8-.75.82-1.11-1.16-.76-1.67-.66-1.36.41-1.6.15-.75-1-1.16-1-4.85.71-5.07.8-1.85,1.9-2.31,1.73-.45-.39-.54-1.14a22.37,22.37,0,0,0-.57-3.54c-.2-.2-1.36.24-1.36.24a8.32,8.32,0,0,1-.31,2.08,9.69,9.69,0,0,0-1.56.46,3.2,3.2,0,0,0-1,1.51,1.6,1.6,0,0,1-.58,1.16,2.61,2.61,0,0,1-1.89.92,9.79,9.79,0,0,1-2.67.25c-.6-.15-1.48,0-1.55-.83s-.46-2.21-.48-2.57.17-.82-.27-1-.9.12-1.29-.59-.8-1.67-.65-1.79,1.31-1.67,1.72-2,.61-.31.63-.7-.39-1,.17-1.38,2.16-.83,2.38-1.09.22-.39.29-1.27.12-1-.27-1.47-.68-1.22-1.33-1-.75,1.14-1.68.68-.72-.37-.8-.72a16.39,16.39,0,0,1,0-1.87c0-.68.63-1.92-.29-1.53s-4.12,1.84-4.48,2.11a4.33,4.33,0,0,0-.83,1.06c-.26.37-2.45.95-3.61,1.1a6.21,6.21,0,0,1-2.38-.08,3.69,3.69,0,0,0-1.14-.31,4.45,4.45,0,0,0-1.55.9,5.41,5.41,0,0,1-2.11,1.06c-.46,0-1.31-.26-1.65,0s-.51,1.16-.65,1.48-.66,1.43-1.21,1.62-1.75.22-2.21.58A2,2,0,0,0,114.8,10.52Z"/>
    </g>
</svg>