<svg id="GAMEOVER_MAP" xmlns="http://www.w3.org/2000/svg" viewBox="0 0 304.35554 163.99057"><defs><style>.cls-1{fill:#d71a35;stroke:#000;stroke-miterlimit:10;stroke-width:0.05px;}</style></defs><polygon id="SLOVENIA" class="cls-1" points="64.791 144.383 86.01 140.94 122.177 163.043 142.932 163.965 152.967 129.43 187.139 116.958 194.653 91.072 260.235 65.945 304.331 71.107 304.329 32.422 282.223 0.028 256.451 5.223 208.982 24.989 198.455 22.66 183.57 22.791 159.126 30.729 137.099 28.15 111.693 34.897 100.325 17.506 54.701 12.511 38.794 8.84 11.473 39.796 16.929 56.86 1.299 75.87 2.199 111.16 3.817 111.827 22.735 123.356 20.429 137.174 2.916 139.814 0.029 158.235 36.098 160.448 64.791 144.383"/></svg>