<svg id="GAMEOVER_MAP" xmlns="http://www.w3.org/2000/svg" viewBox="0 0 416.24725 245.29463"><defs><style>.cls-1{fill:#da1a35;stroke:#000;stroke-miterlimit:10;stroke-width:0.05px;}</style></defs><g id="USA"><polygon class="cls-1" points="370.734 106.692 370.681 106.319 368.611 107.463 366.303 107.489 364.421 108.044 362.884 107.676 360.788 108.552 359.171 108.789 358.349 109.823 358.556 110.475 359.49 110.528 358.88 111.085 359.94 110.756 360.417 110.279 362.035 110.196 363.522 109.745 365.936 109.695 367.048 109.056 369.141 109.134 369.673 108.653 370.295 108.773 372.272 108.156 373.069 107.41 371.85 107.835 371.078 107.489 369.649 108.101 370.176 107.329 370.734 106.692"/><polygon class="cls-1" points="53.718 174.734 53.451 175.314 78.442 186.748 99.46 187.387 99.606 184.697 111.49 185.07 112.868 185.92 114.035 187.593 114.673 188.364 114.805 189.028 115.574 189.056 116.24 190.034 115.999 190.755 117.142 191.177 118.255 192.108 118.174 192.769 117.803 193.333 118.705 193.595 119.714 194.259 120.375 195.324 120.537 196.942 121.038 197.55 121.463 197.638 121.702 198.191 122.551 198.989 122.603 200.106 122.179 200.424 121.331 200.634 121.331 201.167 122.603 202.678 123.611 203.875 123.938 204.914 123.884 205.311 124.335 205.3 124.947 205.907 125.41 205.881 126.113 206.163 126.379 206.695 126.47 207.158 126.96 207.662 127.795 207.674 129.295 208.436 129.493 208.934 130.727 209.338 132.212 210.095 132.65 210.598 133.274 210.704 133.964 210.425 134.109 209.965 135.158 209.126 135.886 208.934 136.045 208.317 135.899 207.93 136.537 207.119 137.6 205.131 138.367 204.37 139.213 204.063 139.761 204.196 139.904 204.422 140.487 204.313 140.9 203.428 142.224 203.442 143.486 203.626 144.879 203.52 145.435 203.799 145.752 204.222 146.696 204.05 147.67 204.543 148.307 205.632 149.738 206.824 150.881 208.581 151.434 210.121 151.832 210.758 152.017 211.871 152.125 213.6 152.921 213.999 153.292 215.005 154.248 217.69 154.857 218.089 155.176 219.022 156.316 219.629 156.661 221.064 157.352 222.29 158.571 223.565 158.439 224.864 158.297 226.227 158.293 226.606 158.415 227.051 159.896 231.349 159.816 233.262 160.44 234 160.617 234.197 161.48 234.524 162.41 234.389 163.341 234.91 164.535 236.089 166.946 236.9 168.327 237.592 169.659 237.913 170.11 238.811 170.751 239.132 171.504 236.957 171.979 235.369 171.606 234.365 171.766 231.189 171.131 230.074 171.979 228.27 172.616 226.157 173.62 224.728 173.142 221.924 174.202 221.448 175.685 220.279 174.838 219.325 176.162 217.687 176.9 218.161 178.225 217.528 178.121 215.675 178.915 216.311 180.45 215.728 179.656 214.986 181.03 214.191 181.561 214.564 182.246 214.191 183.36 214.986 182.09 216.099 183.096 215.995 184.472 214.826 185.426 214.88 188.549 213.345 190.878 211.228 191.832 211.228 192.786 210.43 192.466 208.949 192.522 207.469 191.672 205.3 192.466 206.355 193.209 206.355 194.64 205.142 194.743 204.243 195.273 205.778 194.427 206.94 194.798 208.052 194.531 209.372 196.172 209.165 197.389 207.416 198.449 207.309 199.456 206.624 201.944 206.093 203.851 206.093 207.291 206.94 207.872 207.628 212.107 208.052 213.418 207.871 213.177 206.969 213.284 206.221 214.771 205.668 215.566 206.013 215.009 206.861 215.805 207.13 216.813 206.757 217.288 207.291 217.288 208.377 217.739 208.934 219.224 208.775 219.729 209.57 218.747 210.344 218.164 211.085 218.932 211.433 220.154 211.22 221.162 211.834 222.992 212.387 223.736 211.539 224.822 210.74 226.041 211.617 226.614 212.552 227.728 211.914 227.782 210.118 227.143 208.897 228.469 208.789 229.527 210.376 230.586 210.803 231.328 211.811 232.173 211.705 232.915 212.179 232.967 213.613 233.445 212.713 234.553 212.392 234.661 211.914 232.915 210.592 230.586 209.799 230.16 208.739 230.108 207.469 232.438 206.571 232.915 206.038 231.644 205.508 231.115 204.823 230.636 204.714 229.793 205.562 228.838 205.938 228.838 204.927 230.16 203.553 232.595 202.547 233.816 201.488 238.157 200.694 239.796 200.959 240.697 200.637 241.755 200.853 242.444 199.686 243.078 198.421 243.977 198.571 243.769 199.525 243.821 200.373 245.249 201.593 246.415 201.114 248.481 201.22 249.539 200.778 250.392 201.389 252.592 201.099 253.256 201.441 254.873 200.3 256.464 200.406 256.809 200.86 255.931 201.125 254.209 201.021 253.942 201.389 255.853 201.654 257.737 201.654 258.877 202.665 259.992 203.302 259.274 202.32 259.458 201.654 260.096 201.733 260.363 202.506 261.741 203.488 261.505 203.968 260.547 203.514 260.308 203.595 262.112 204.842 262.83 205.881 263.2 206.571 262.856 206.7 262.643 206.221 262.459 206.783 262.802 207.316 264.924 206.997 266.275 206.835 268.159 204.948 268.77 205.215 269.009 204.978 269.009 204.631 269.989 203.864 271.451 203.621 272.405 204.152 274.076 204.735 274.815 207.291 275.587 208.058 276.091 208.218 276.276 209.73 277.337 210.502 277.97 210.502 277.922 211.029 278.584 212.094 279.67 212.281 280.626 214.113 280.494 215.813 279.511 219.242 278.081 221.924 278.026 223.015 278.903 224.501 279.299 224.13 280.147 222.936 279.882 222.321 280.44 221.868 281.499 222.321 281.552 223.677 279.75 226.255 280.175 227.157 280.283 228.565 281.183 229.627 281.476 230.346 282.059 230.183 282.43 231.541 282.906 230.88 282.906 230.268 283.49 230.691 284.871 230.319 283.783 231.382 283.518 232.605 282.932 233.297 283.065 234.169 284.871 235.553 285.081 237.037 285.003 238.979 285.556 239.485 286.807 239.539 287.332 240.519 287.148 241.766 288.927 243.207 288.081 243.575 289.617 244.002 290.304 244.897 291.68 245.268 293.057 244.796 294.274 244.37 294.487 242.52 295.387 241.192 296.074 239.443 297.346 236.851 297.183 235.582 297.554 234.894 297.823 232.303 297.45 231.766 298.297 230.919 297.823 228.751 296.338 227.801 295.545 223.086 295.016 222.344 295.226 220.121 295.863 218.428 295.333 217.104 294.381 215.836 293.637 212.285 293.002 210.963 292.686 207.785 291.891 205.778 292.318 202.604 292.101 200.533 292.473 195.979 292.473 193.492 293.533 191.372 294.803 189.306 296.022 188.992 296.654 188.095 297.292 187.987 298.297 186.56 298.458 185.342 297.926 184.967 298.349 184.599 300.098 184.599 300.363 183.697 301.791 183.806 302.16 183.013 304.386 182.743 305.177 181.686 306.716 181.846 307.084 181.157 307.878 180.942 308.727 181.317 309.997 179.882 310.104 178.932 310.843 178.987 312.009 177.977 312.009 177.136 314.763 173.479 316.192 172.209 318.309 171.946 319.049 172.422 319.688 172.316 320.904 170.04 324.608 167.02 328.05 164.957 329.849 164.796 330.326 164.428 331.225 164.323 331.385 164.796 332.656 164.744 334.03 163.156 333.503 162.941 333.185 162.415 331.863 163.631 330.011 163.475 328.897 162.415 330.22 162.941 332.181 162.098 331.863 161.57 332.603 160.935 332.127 160.194 330.38 159.875 329.587 158.919 330.594 158.971 331.598 159.449 332.603 159.027 332.761 158.021 333.345 159.613 334.351 159.449 335.358 160.085 335.979 159.576 336.509 158.485 338.049 157.189 338.526 157.158 338.869 155.595 338.314 154.346 337.943 154.452 337.175 155.914 337.095 156.839 336.378 156.521 336.165 154.346 335.582 154.077 332.612 154.53 331.152 154.981 331.42 154.129 331.471 151.93 331.976 151.607 332.687 153.149 333.62 153.467 334.363 152.778 336.325 152.242 336.67 151.848 337.624 151.848 338.073 151.076 337.811 149.482 337.201 148.867 337.253 148.156 338.018 148.527 338.586 147.114 338.212 145.757 337.526 145.157 336.52 145.422 335.249 145.103 334.667 143.305 333.783 143.286 332.603 142.88 331.598 141.662 332.814 142.247 334.618 142.299 335.358 143.619 336.258 144.048 336.839 143.036 334.985 141.452 336.52 141.768 336.626 141.076 337.104 140.659 336.68 139.648 335.094 138.644 334.457 136.845 335.144 137.164 335.62 138.434 336.68 138.535 337.104 137.004 336.891 135.733 335.833 135.099 334.19 133.087 332.552 132.45 331.704 131.073 330.646 130.597 330.646 129.327 331.704 127.898 331.069 129.435 331.331 130.172 332.023 130.228 332.918 131.869 334.351 132.081 336.096 134.143 336.52 134.041 336.68 131.179 336.575 129.749 336.787 128.743 336.471 127.898 336.697 125.76 336.963 124.908 336.269 123.874 336.88 123.954 337.835 123.264 339.294 122.095 339.692 120.711 339.639 120.286 340.037 120.844 339.692 122.228 340.065 122.704 338.845 123.45 338.018 125.017 339.189 126.956 338.845 129.055 337.811 130.568 337.835 131.95 339.029 133.463 339.508 132.878 339.692 133.49 340.358 133.437 340.408 133.758 339.959 134.445 340.462 135.485 342.212 135.456 340.939 136.149 341.178 136.489 340.275 137.66 340.491 138.592 339.659 140 339.275 141.614 339.431 143.036 339.806 142.459 339.96 141.768 341.447 139.119 341.603 139.648 341.709 140.234 342.132 139.648 342.132 138.75 342.981 137.318 344.145 134.358 345.786 133.404 347.004 130.649 347.056 128.798 346.112 126.345 345.397 125.573 345.21 123.581 344.545 122.876 344.36 121.38 345.052 119.995 346.367 118.788 347.964 117.976 345.579 120.556 345.164 121.639 345.765 122.704 347.462 124.404 348.525 124.138 349.135 124.803 348.339 126.769 349.428 125.973 349.56 126.371 350.724 124.908 350.885 123.979 351.496 124.006 352.051 123.155 353.087 122.836 353.723 120.635 354.44 119.807 355.078 119.807 355.659 118.267 356.216 117.341 356.005 116.675 356.641 115.292 356.587 114.766 357.408 113.734 357.195 112.832 356.27 112.067 355.687 111.088 357.647 109.979 357.699 108.999 358.89 107.991 360.186 107.568 362.465 106.352 364.052 106.298 366.379 104.657 367.229 104.601 367.809 105.08 370.721 104.869 372.097 105.24 373.952 104.817 376.967 104.601 377.817 104.287 377.231 103.595 377.446 101.638 377.446 99.942 378.929 101.531 378.929 102.961 378.766 103.968 379.719 104.125 381.047 102.752 382.42 100.212 383.111 101.583 383.058 102.587 383.959 102.91 387.399 101.217 388.299 99.681 387.609 97.194 386.922 97.402 387.08 98.677 386.497 100.316 384.379 100.368 384.17 99.152 383.374 96.767 381.52 95.709 381.52 95.023 384.117 92.692 384.011 91.58 383.058 91.58 383.216 90.678 383.959 90.098 384.275 89.04 385.175 87.926 386.126 85.332 388.829 83.214 389.727 81.259 390.523 81.259 391.368 79.931 391.476 80.884 392.479 81.201 393.168 80.306 393.964 78.821 394.177 80.357 395.02 80.357 395.87 78.717 396.292 79.402 397.142 78.821 398.515 76.548 400.423 74.161 400 75.589 400.368 76.757 401.745 76.548 403.017 75.169 404.658 75.169 405.079 76.809 406.087 76.809 407.303 75.169 408.417 75.643 409.21 75.219 410.534 74.319 411.644 74.426 413.427 73.397 413.93 74.277 415.23 74.09 416.21 72.868 414.806 72.045 414.197 73.056 413.162 71.942 413.658 70.294 410.903 68.71 410.938 68.716 410.859 68.686 410.513 68.204 410.886 67.57 410.726 66.883 410.886 66.141 410.938 64.924 410.303 64.127 409.827 63.283 409.192 63.125 409.56 62.064 411.149 52.798 411.042 50.413 408.186 47.664 407.55 48.244 405.535 47.715 404.005 48.139 402.969 47.159 402.093 46.549 401.642 46.684 400.397 47.905 399.837 49.074 397.216 51.995 395.942 53.644 396.02 54.893 394.162 55.876 393.923 57.523 393.283 59.169 391.406 61.481 390.476 61.802 388.115 64.35 387.718 65.441 386.867 66.022 385.541 65.704 384.615 65.758 383.95 66.263 383.34 66.393 381.697 67.963 360.249 67.59 357.675 67.974 356.433 69.21 354.612 69.98 353.176 71.17 349.894 74.241 347.88 74.614 346.507 75.62 340.362 80.226 326.526 84.249 325.917 87.859 322.719 88.903 297.481 95.687 296.231 93.478 297.665 91.685 300.477 90.334 301.618 88.771 302.428 87.17 303.157 85.389 303.779 75.564 298.992 53.034 294.51 49.449 292.603 47.119 263.263 33.349 262.124 32.551 260.373 32.152 259.601 31.433 256.13 31.224 255.542 30.026 254.779 29.334 253.606 30.078 251.221 30.132 250.106 29.624 249.098 28.512 247.639 28.116 245.12 27.317 244.378 25.669 243.45 25.669 241.727 24.313 240.346 24.445 239.207 24.078 237.826 24.445 237.243 24.607 236.527 23.648 234.988 23.251 234.749 22.88 233.272 22.374 232.982 22.131 232.013 21.099 231.877 20.557 230.236 19.179 228.542 19.231 227.147 19.067 36.296 0.028 36.872 2.638 38.46 3.802 38.302 4.805 37.03 5.761 37.24 6.981 38.302 7.718 37.823 8.303 36.976 9.47 37.452 9.885 37.56 10.896 38.248 11.743 37.03 13.226 35.811 14.019 35.388 15.872 34.543 16.613 34.489 18.257 33.694 19.153 33.217 20.426 31.628 21.483 30.413 20.851 29.987 20.109 31.048 18.787 31.364 19.366 32.318 18.573 32.529 19.689 33.005 19.153 33.059 17.357 33.906 15.607 35.018 14.658 34.857 13.49 34.117 13.65 32.582 14.917 32.053 15.82 30.889 15.82 30.941 15.076 32.318 13.702 33.852 13.121 34.277 12.272 33.8 11.37 33.111 11.318 32.424 11.639 31.734 10.312 30.571 9.729 27.287 9.522 25.488 8.355 22.102 5.393 21.572 5.55 21.359 7.031 20.193 9.729 20.246 11.053 21.04 13.756 20.301 17.512 20.672 19.42 20.353 21.271 20.459 22.225 21.41 22.491 21.517 23.02 20.936 23.868 20.193 23.868 19.822 25.031 20.353 25.666 21.517 26.141 21.095 27.253 21.04 28.683 20.193 29.689 19.716 29.482 19.187 30.062 19.347 30.853 21.359 31.385 23.37 31.545 24.589 32.551 26.123 32.813 26.866 33.766 27.131 35.567 26.441 33.927 25.117 33.134 24.22 33.29 23.162 32.551 20.672 32.444 19.822 31.806 19.347 32.178 19.402 33.342 17.917 35.251 17.917 36.361 18.077 37.418 16.922 39.434 16.18 41.026 14.164 45.479 13.848 48.766 12.044 52.262 11.515 56.191 10.559 58.096 9.18 59.688 8.332 62.126 7.591 62.865 7.166 64.35 5.26 66.79 4.734 68.075 4.949 70.88 4.206 73.686 4.1 75.589 5.105 77.18 4.472 78.026 4.418 79.19 4.949 80.99 4.63 84.008 3.835 85.648 3.04 86.446 3.252 87.398 3.731 87.716 2.99 89.673 0.818 91.156 0.025 92.846 0.025 94.491 1.293 96.238 2.459 98.937 2.565 101.902 2.299 103.543 1.453 104.869 1.453 105.556 2.088 106.829 2.246 108.307 1.614 109.421 1.349 110.374 1.665 111.219 4.734 115.929 4.949 117.362 4.525 118.262 4.893 119.322 6.588 120.908 6.852 121.649 7.437 121.598 7.806 121.812 7.806 120.224 7.86 118.579 8.812 119.162 9.18 118.843 9.34 119.428 10.506 119.478 10.877 120.008 12.728 120.224 11.406 120.537 10.136 120.908 9.605 120.432 8.97 120.432 8.866 121.439 9.446 121.862 9.657 123.77 10.136 124.881 10.611 125.516 9.395 124.881 8.76 123.554 8.124 123.13 7.594 123.874 7.754 124.776 7.065 125.464 7.223 126.149 6.852 127.474 7.011 128.638 7.702 129.01 8.018 130.439 9.13 131.126 9.923 131.921 9.977 133.087 9.024 134.143 8.389 134.041 8.335 134.674 8.706 136.21 8.601 137.585 8.812 138.484 9.977 139.332 10.296 141.876 11.829 145.157 12.941 146.69 13.565 147.172 13.272 147.677 13.379 148.074 14.573 149.43 15.024 150.943 14.493 153.174 14.125 154.374 13.804 154.584 14.203 155.805 14.946 156.337 17.466 156.313 18.951 156.731 20.117 157.453 21.201 157.651 23.162 157.651 24.059 158.657 24.059 159.926 26.019 160.987 27.237 161.039 29.038 161.57 29.355 162.363 29.301 163.631 29.777 163.895 30.517 163.845 31.472 163.631 33.111 165.33 35.651 169.19 35.97 171.416 35.601 173.217 35.749 174.404 53.346 174.093 53.718 174.734"/><polygon class="cls-1" points="382.65 103.686 382.357 104.073 381.774 104.497 382.067 105.056 382.874 104.986 383.511 104.365 384.533 104.379 383.871 103.675 382.65 103.686"/></g></svg>