<?xml version="1.0" encoding="utf-8"?>
<!-- Generator: Adobe Illustrator 23.0.2, SVG Export Plug-In . SVG Version: 6.00 Build 0)  -->
<svg id="desk" version="1.1" xmlns="http://www.w3.org/2000/svg" xmlns:xlink="http://www.w3.org/1999/xlink" x="0px" y="0px"
	 viewBox="0 0 1920 1080" style="enable-background:new 0 0 1920 1080;" xml:space="preserve">
<style type="text/css">
	.st0{fill:transparent;}
	.st1{clip-path:url(#MASK_1_);fill:none;stroke:#00FFDA;stroke-miterlimit:10;}
	.st2{clip-path:url(#MASK_1_);}
	.st3{fill:#00FFDA;}
	.st4{display:none;clip-path:url(#MASK_1_);}
	.st5{display:inline;fill:#00FFDA;}
	.st6{display:none;clip-path:url(#MASK_1_);fill:url(#SVGID_1_);}
</style>
<g id="Layer_2">
	<rect x="-457.2" y="-324.3" class="st0" width="2868.5" height="1719.4"/>
</g>
<g id="Layer_1">
	<defs>
		<rect id="MASK" width="1920" height="1080"/>
	</defs>
	<clipPath id="MASK_1_">
		<use xlink:href="#MASK"  style="overflow:visible;"/>
	</clipPath>

<!-- SHAPE 1 --> 	
	<path  opacity="0" class="st1" d="M959.9,713.9c-2.8,0-5.5-0.7-7.9-2.1l-135.9-78.6c-4.8-2.8-7.9-8-7.9-13.6l0.1-156.9c0-5.6,3-10.8,7.9-13.6
		l136-78.4c4.9-2.8,10.9-2.8,15.7,0l135.8,78.6c4.8,2.8,7.9,8,7.8,13.6l-0.1,156.9c0,5.6-3,10.8-7.9,13.6l-136,78.4
		C965.3,713.2,962.6,713.9,959.9,713.9z">

			<animate  attributeName="opacity"
				  attributeType="XML"
				  values="0;1;0"
             	  dur="2s"
				  begin="0" 
				  repeatCount="indefinite"/>
		</path>

<!--> SHAPE 2 <!--> 
	<path  opacity="0"  class="st1" d="M959.8,749.8c-3.3,0-6.6-0.9-9.5-2.5l-164.1-94.9c-5.9-3.4-9.5-9.7-9.5-16.5l0.2-189.6
		c0-6.8,3.7-13.1,9.5-16.4l164.3-94.7c5.9-3.4,13.1-3.4,19,0l164.1,95c5.9,3.4,9.5,9.7,9.5,16.5l-0.1,189.6c0,6.8-3.6,13.1-9.5,16.4
		l-164.3,94.7C966.5,749,963.2,749.8,959.8,749.8z">

			<animate  attributeName="opacity"
				  attributeType="XML"
				  values="0;1;0"
             	  dur="2s"
				  begin="0.2" 
				  repeatCount="indefinite"/>
		</path>

<!--> SHAPE 3 <!--> 
	<path   opacity="0" class="st1" d="M959.8,788.9c-4,0-7.9-1-11.3-3L753.6,673.2c-7-4-11.3-11.5-11.3-19.5l0.2-225.1c0-8,4.3-15.5,11.3-19.5
		L949,296.5c7-4,15.6-4,22.6,0l194.9,112.7c7,4,11.3,11.5,11.3,19.5l-0.2,225.1c0,8-4.3,15.5-11.3,19.5L971.1,785.9
		C967.7,787.9,963.8,788.9,959.8,788.9z">

			<animate  attributeName="opacity"
				  attributeType="XML"
				  values="0;1;0"
             	  dur="2s"
				  begin="0.4" 
				  repeatCount="indefinite"/>
		</path>

<!--> SHAPE 4 <!--> 
	<path  opacity="0" class="st1" d="M959.8,830c-4.6,0-9.2-1.2-13.2-3.5L719.4,695.1c-8.1-4.7-13.1-13.4-13.1-22.8l0.2-262.5
		c0-9.4,5.1-18.1,13.2-22.8l227.5-131.1c8.1-4.7,18.2-4.7,26.3,0l227.2,131.5c8.1,4.7,13.1,13.4,13.1,22.8l-0.2,262.5
		c0,9.4-5.1,18.1-13.2,22.8L972.9,826.5C968.9,828.8,964.4,830,959.8,830z">

			<animate  attributeName="opacity"
				  attributeType="XML"
				  values="0;1;0"
             	  dur="2s"
				  begin="0.6" 
				  repeatCount="indefinite"/>
		</path>			

<!--> SHAPE 5 <!--> 		
	<path opacity="0"  class="st1" d="M959.7,876.8c-5.4,0-10.7-1.4-15.3-4.1L680.4,720c-9.4-5.4-15.3-15.6-15.3-26.5l0.3-305.1
		c0-10.9,5.9-21,15.3-26.5L945,209.7c9.4-5.4,21.1-5.4,30.6,0l264,152.8c9.4,5.4,15.3,15.6,15.3,26.5l-0.2,305
		c0,10.9-5.9,21-15.3,26.5L975,872.8C970.4,875.4,965.1,876.8,959.7,876.8z">

			<animate  attributeName="opacity"
				  attributeType="XML"
				  values="0;1;0"
             	  dur="2s"
				  begin="0.8" 
				  repeatCount="indefinite"/>
		</path>			

<!--> SHAPE 6 <!--> 
	<path  opacity="0" class="st1" d="M959.7,924.8c-6.1,0-12.2-1.6-17.5-4.7L640.4,745.6c-10.8-6.2-17.5-17.8-17.4-30.3l0.3-348.7
		c0-12.4,6.7-24,17.5-30.2l302.2-174.1c10.8-6.2,24.2-6.2,34.9,0l301.8,174.6c10.8,6.2,17.4,17.8,17.4,30.3l-0.2,348.7
		c0,12.4-6.7,24-17.5,30.2L977.2,920.2C971.9,923.2,965.8,924.8,959.7,924.8z">

			<animate  attributeName="opacity"
				  attributeType="XML"
				  values="0;1;0"
             	  dur="2s"
				  begin="1" 
				  repeatCount="indefinite"/>
		</path>	

<!--> SHAPE 7 <!--> 		
	<path  opacity="0" class="st1" d="M959.7,978.8c-7,0-13.9-1.8-20-5.3L595.4,774.3c-12.3-7.1-19.9-20.3-19.9-34.5l0.3-397.8
		c0-14.2,7.7-27.4,20-34.5l344.7-198.6c12.3-7.1,27.6-7.1,39.9,0l344.3,199.2c12.3,7.1,19.9,20.3,19.9,34.5l-0.3,397.7
		c0,14.2-7.7,27.4-20,34.5L979.6,973.5C973.5,977,966.7,978.8,959.7,978.8z">

			<animate  attributeName="opacity"
				  attributeType="XML"
				  values="0;1;0"
             	  dur="2s"
				  begin="1.2" 
				  repeatCount="indefinite"/>
		</path>	

<!--> SHAPE 8 <!--> 	
	<path opacity="0"  class="st1" d="M959.6,1037.8c-8,0-15.8-2.1-22.6-6.1l-390.7-226c-13.9-8.1-22.6-23.1-22.6-39.2l0.4-451.3
		c0-16.1,8.7-31.1,22.6-39.1L937.9,50.7c14-8,31.3-8,45.2,0l390.6,226c13.9,8.1,22.6,23.1,22.6,39.2l-0.3,451.3
		c0,16.1-8.7,31.1-22.6,39.1l-391.1,225.4C975.4,1035.7,967.6,1037.8,959.6,1037.8z">

			<animate  attributeName="opacity"
				  attributeType="XML"
				  values="0;1;0"
             	  dur="2s"
				  begin="1.4" 
				  repeatCount="indefinite"/>
		</path>	

<!--> SHAPE 9 <!--> 
	<path   opacity="0" class="st1" d="M959.6,1107.3c-9.1,0-18-2.4-25.8-6.9L488.4,842.8c-15.9-9.2-25.8-26.3-25.7-44.7l0.4-514.5
		c0-18.4,9.9-35.4,25.8-44.6L934.7-18c15.9-9.2,35.7-9.1,51.5,0l445.3,257.7c15.9,9.2,25.7,26.3,25.7,44.7l-0.4,514.5
		c0,18.4-9.9,35.5-25.8,44.6l-445.8,256.9C977.5,1104.9,968.6,1107.3,959.6,1107.3z">

			<animate  attributeName="opacity"
				  attributeType="XML"
				  values="0;1;0"
             	  dur="2s"
				  begin="1.6" 
				  repeatCount="indefinite"/>

		</path>	

<!--> SHAPE 10 <!--> 	
	<path  opacity="0" class="st1" d="M959.5,1189.7c-10.4,0-20.6-2.7-29.6-7.9L419.7,886.7c-18.2-10.5-29.5-30.1-29.5-51.2l0.5-589.5
		c0-21,11.4-40.6,29.6-51.1L931.1-99.4c18.2-10.5,40.9-10.5,59.1,0.1l510.2,295.2c18.2,10.5,29.5,30.1,29.5,51.2l-0.4,589.4
		c0,21-11.3,40.6-29.6,51.1L989,1181.9C980.1,1187,969.9,1189.7,959.5,1189.7z">

			<animate  attributeName="opacity"
				  attributeType="XML"
				  values="0;1;0"
             	  dur="2s"
				  begin="1.8" 
				  repeatCount="indefinite"/>
		</path>	

<!--> SHAPE 11 <!--> 	
	<path  opacity="0" class="st1" d="M959.4,1308.6c-12.3,0-24.4-3.2-35-9.4L320.7,950c-21.5-12.5-34.9-35.7-34.9-60.5l0.6-697.5
		c0-24.9,13.4-48.1,35-60.5l604.4-348.3c21.6-12.4,48.3-12.4,69.9,0.1l603.7,349.3c21.5,12.5,34.9,35.6,34.9,60.5l-0.5,697.4
		c0,24.9-13.4,48.1-35,60.5l-604.4,348.3C983.7,1305.4,971.7,1308.6,959.4,1308.6z">
			
			<animate  attributeName="opacity"
				  attributeType="XML"
				  values="0;1;0"
             	  dur="2s"
				  begin="2" 
				  repeatCount="indefinite"/>
		</path>	

<!--> SHAPE 12 <!--> 	
	<path  opacity="0" class="st1" d="M959.3,1439c-14.4,0-28.5-3.8-40.9-11L212,1019.4c-25.2-14.6-40.8-41.7-40.8-70.8l0.7-816
		c0-29.1,15.7-56.2,40.9-70.8L920-345.6c25.2-14.5,56.6-14.5,81.8,0.1L1708,63.1c25.2,14.6,40.8,41.7,40.8,70.8l-0.6,816
		c0,29.1-15.7,56.2-40.9,70.8l-707.1,407.5C987.8,1435.2,973.7,1439,959.3,1439z">

			<animate  attributeName="opacity"
				  attributeType="XML"
				  values="0;1;0"
             	  dur="2s"
				  begin="2.2" 
				  repeatCount="indefinite"/>
		</path>	

<!--> SHAPE 13 <!--> 	
	<path  opacity="0" class="st1" d="M959.2,1584.5c-16.7,0-33.2-4.4-47.6-12.7L90.8,1097c-29.3-16.9-47.5-48.5-47.4-82.3l0.8-948.3
		c0-33.8,18.3-65.3,47.6-82.2l821.8-473.5c29.3-16.9,65.7-16.9,95,0.1l820.8,474.9c29.3,16.9,47.4,48.5,47.4,82.3l-0.7,948.2
		c0,33.8-18.3,65.3-47.6,82.3l-821.7,473.5C992.3,1580.2,975.9,1584.5,959.2,1584.5z">

			<animate  attributeName="opacity"
				  attributeType="XML"
				  values="0;1;0"
             	  dur="2s"
				  begin="2.4" 
				  repeatCount="indefinite"/>
		</path>	

<!-->  LOGO  <!--> 

	<g id="CUBE_x5F_LOGO" class="st2">
			
			
			<animate  attributeName="opacity"
				  attributeType="XML"
				  values="1;0.50;1"
             	  dur="2s"
				  begin="0" 
				  repeatCount="indefinite"/>
				  <!-- <animate  attributeName="opacity"
				  attributeType="XML"
             	  from="0.75" to="0" dur="0.8s"
				  begin="0.8"/> -->

				
		<g>
			<path class="st3" d="M891.7,472.5c1.3-1.2,2.8-1.8,4.4-1.8h59.7v12.3h-53.2l-0.1,36.8h53.2v12.3H896c-1.6,0-3.1-0.6-4.4-1.8
				c-1.3-1.2-2-2.7-2-4.3l0.1-49C889.7,475.1,890.4,473.7,891.7,472.5z"/>
			<path class="st3" d="M972.6,470.6V521h47.2v-50.4h11.8v55.8c0,1.5-0.6,2.7-1.8,3.8c-1.2,1.1-2.6,1.6-4.1,1.6h-59
				c-1.5,0-2.9-0.5-4.1-1.6c-1.2-1.1-1.8-2.4-1.8-3.8v-55.8H972.6z"/>
			<path class="st3" d="M901.1,562.1l34.8-12.5c6.5-2.3,11.3-3.5,14.4-3.5c3.6,0,5.4,1.7,5.4,5.1v41.9c0,1.4-0.6,2.6-1.7,3.7
				c-1.1,1-2.4,1.6-3.8,1.6h-55.1c-1.5,0-2.8-0.5-3.9-1.6c-1.1-1-1.7-2.3-1.7-3.7v-57.6h11.5V562.1z M944.7,558.6l-44.1,14.8V588
				h44.1V558.6z"/>
			<path class="st3" d="M961.9,570.6l23.3-33.3h46.4v36.5h-34.4v-12.3h21.5v-12h-26.5l-18.5,26.3v10.4h58v12.3h-64.4
				c-1.6,0-3.1-0.6-4.4-1.8c-1.3-1.2-2-2.7-2-4.3V574C960.8,572.9,961.1,571.7,961.9,570.6z"/>
		</g>
		<g>
			<path class="st3" d="M893.2,612.9c0,0.6-0.5,1.1-1.2,1.1v0h-0.8c-0.7,0-1.2-0.5-1.2-1.2v-8c0-0.1,0.1-0.3,0.3-0.3h0.7v8.1
				c0,0.3,0.2,0.5,0.5,0.5h0.2c0.3,0,0.5-0.2,0.5-0.5v-8.1h1V612.9z"/>
			<path class="st3" d="M902.1,613.1c-0.1,0.2-0.3,0.6-0.3,0.7c-0.1,0.1-0.2,0.3-0.5,0.3h-2.4v-9.4h0.7c0.2,0,0.3,0.1,0.3,0.3v8.2
				H902.1z"/>
			<path class="st3" d="M909.4,605.3c-0.1,0.1-0.2,0.3-0.5,0.3h-0.8c-0.1,0-0.2,0.1-0.3,0.2v8.2h-0.7c-0.2,0-0.3-0.1-0.3-0.2v-8.3
				h-1.4v-0.7c0-0.2,0.1-0.3,0.3-0.3h4L909.4,605.3z"/>
			<path class="st3" d="M914.9,604.6c0.3,0,0.4,0.2,0.4,0.4v9h-0.7c-0.2,0-0.3-0.1-0.3-0.2v-9.2H914.9z"/>
			<path class="st3" d="M924.8,614h-1v-4.9l-0.8,3.2h-0.3c-0.6,0-0.7-0.6-0.8-0.8l-0.6-2.5v4.9h-1v-9.4h0.6c0.4,0,0.4,0.3,0.4,0.3
				l1.2,5.4l1.1-5.4c0,0,0.1-0.3,0.4-0.3h0.6V614z"/>
			<path class="st3" d="M932.9,614h-1.1l-0.9-6.5l-0.9,6.5h-1.1l1.5-9.4h0.5c0.4,0,0.5,0.3,0.5,0.5L932.9,614z"/>
			<path class="st3" d="M940.7,605.3c-0.1,0.1-0.2,0.3-0.5,0.3h-0.8c-0.1,0-0.2,0.1-0.3,0.2v8.2h-0.7c-0.2,0-0.3-0.1-0.3-0.2v-8.3
				h-1.4v-0.7c0-0.2,0.1-0.3,0.3-0.3h4L940.7,605.3z"/>
			<path class="st3" d="M948.7,613.1c-0.1,0.2-0.3,0.6-0.3,0.7c-0.1,0.1-0.2,0.3-0.5,0.3h-2.2v-9.1c0-0.1,0.1-0.3,0.3-0.3h2.6
				l-0.3,0.7c-0.1,0.1-0.2,0.3-0.5,0.3h-0.8c-0.1,0-0.2,0.1-0.2,0.2v2.8h1.5c-0.1,0.2-0.3,0.6-0.3,0.7c-0.1,0.1-0.2,0.3-0.5,0.3
				h-0.4c-0.1,0-0.2,0.1-0.2,0.2v3.3H948.7z"/>
			<path class="st3" d="M965.1,612.9c0,0.6-0.5,1.2-1.2,1.2h-0.6c-0.7,0-1.3-0.5-1.3-1.2v-7.2c0-0.7,0.6-1.2,1.3-1.2h0.6
				c0.7,0,1.2,0.6,1.2,1.2v1.4c0,0.3-0.1,0.5-0.3,0.5l-0.7,0.3v-2.1c0-0.3-0.2-0.5-0.5-0.5c-0.3,0-0.5,0.2-0.5,0.5v6.9
				c0,0.3,0.2,0.5,0.5,0.5c0.3,0,0.5-0.2,0.5-0.5v-1.3c0-0.3,0.1-0.5,0.3-0.5c0.1,0,0.5-0.2,0.7-0.3V612.9z"/>
			<path class="st3" d="M973.3,604.6c0.3,0,0.4,0.2,0.4,0.4v9h-1v-4.1c0-0.1-0.1-0.2-0.2-0.2h-1.1v4.3h-1v-9c0-0.2,0.1-0.4,0.4-0.4
				h0.6v3.8c0,0.3,0.1,0.3,0.4,0.3h1v-4.1H973.3z"/>
			<path class="st3" d="M982.2,614H981l-0.9-6.5l-0.9,6.5h-1.1l1.5-9.4h0.5c0.4,0,0.5,0.3,0.5,0.5L982.2,614z"/>
			<path class="st3" d="M990.3,613.1c-0.1,0.2-0.3,0.6-0.3,0.7c-0.1,0.1-0.2,0.3-0.5,0.3H987v-9.4h0.7c0.2,0,0.3,0.1,0.3,0.3v8.2
				H990.3z"/>
			<path class="st3" d="M998,613.1c-0.1,0.2-0.3,0.6-0.3,0.7c-0.1,0.1-0.2,0.3-0.5,0.3h-2.4v-9.4h0.7c0.2,0,0.3,0.1,0.3,0.3v8.2H998
				z"/>
			<path class="st3" d="M1005.7,613.1c-0.1,0.2-0.3,0.6-0.3,0.7c-0.1,0.1-0.2,0.3-0.5,0.3h-2.2v-9.1c0-0.1,0.1-0.3,0.3-0.3h2.6
				l-0.3,0.7c-0.1,0.1-0.2,0.3-0.5,0.3h-0.8c-0.1,0-0.2,0.1-0.2,0.2v2.8h1.5c-0.1,0.2-0.3,0.6-0.3,0.7c-0.1,0.1-0.2,0.3-0.5,0.3
				h-0.4c-0.1,0-0.2,0.1-0.2,0.2v3.3H1005.7z"/>
			<path class="st3" d="M1013.7,614h-0.5c-0.5,0-0.6-0.4-0.7-0.6l-1.1-4.7v5.3h-1v-9.4h0.5c0.6,0,0.7,0.3,0.7,0.5l1,4.9v-5.4h1V614z
				"/>
			<path class="st3" d="M1022.1,607.2c0,0.3-0.1,0.5-0.3,0.5c-0.1,0-0.5,0.2-0.7,0.3v-2.2c0-0.3-0.2-0.5-0.5-0.5
				c-0.3,0-0.5,0.2-0.5,0.5v6.9c0,0.3,0.2,0.5,0.5,0.5c0.3,0,0.5-0.2,0.5-0.5v-2.8h0c-0.2,0-0.4-0.3-0.4-0.3l-0.3-0.7h1.3
				c0.3,0,0.5,0.2,0.5,0.5v3.4c0,0.6-0.5,1.2-1.2,1.2h-0.6c-0.7,0-1.2-0.5-1.2-1.2v-7.2c0-0.7,0.6-1.2,1.2-1.2h0.6
				c0.7,0,1.2,0.6,1.2,1.2V607.2z"/>
			<path class="st3" d="M1030.9,613.1c-0.1,0.2-0.3,0.6-0.3,0.7c-0.1,0.1-0.2,0.3-0.5,0.3h-2.2v-9.1c0-0.1,0.1-0.3,0.3-0.3h2.6
				l-0.3,0.7c-0.1,0.1-0.2,0.3-0.5,0.3h-0.8c-0.1,0-0.2,0.1-0.2,0.2v2.8h1.5c-0.1,0.2-0.3,0.6-0.3,0.7c-0.1,0.1-0.2,0.3-0.5,0.3
				h-0.4c-0.1,0-0.2,0.1-0.2,0.2v3.3H1030.9z"/>
		</g>
	</g>
	<g class="st4">
	
		<path class="st5" d="M923.6,532.6c-2,0.4-3.7,0.6-5.3,0.6c-1.6,0-2.8-0.2-3.8-0.6c-1-0.4-1.7-1.1-2.2-2s-0.9-1.9-1.1-3.1
			c-0.2-1.2-0.3-2.6-0.3-4.4c0-1.7,0.1-3.2,0.3-4.4c0.2-1.2,0.6-2.2,1.1-3.2s1.3-1.6,2.2-2c1-0.4,2.2-0.6,3.7-0.6
			c1.5,0,3.3,0.2,5.4,0.6l-0.1,1.9c-1.9-0.3-3.6-0.5-5.1-0.5c-2.1,0-3.5,0.6-4.1,1.9c-0.7,1.2-1,3.4-1,6.4c0,1.5,0.1,2.7,0.2,3.6
			c0.1,0.9,0.4,1.7,0.7,2.5c0.4,0.7,0.9,1.3,1.6,1.6c0.7,0.3,1.7,0.5,3.1,0.5c1.3,0,2.9-0.2,4.7-0.5L923.6,532.6z"/>
		<path class="st5" d="M941.7,523.2c0,3.5-0.6,6.1-1.7,7.6c-1.1,1.6-3.2,2.4-6.1,2.4c-3,0-5-0.8-6.1-2.4c-1.1-1.6-1.7-4.2-1.7-7.6
			c0-3.5,0.6-6,1.7-7.7c1.1-1.7,3.2-2.5,6.1-2.5c2.9,0,4.9,0.8,6.1,2.5C941.1,517,941.7,519.6,941.7,523.2z M928.3,523.1
			c0,2.9,0.4,5,1.1,6.2c0.8,1.3,2.2,1.9,4.4,1.9c2.2,0,3.6-0.6,4.4-1.9c0.8-1.2,1.1-3.3,1.1-6.2c0-2.9-0.4-5-1.2-6.4
			c-0.8-1.3-2.2-2-4.4-2s-3.6,0.7-4.4,2C928.7,518.1,928.3,520.2,928.3,523.1z"/>
		<path class="st5" d="M945.7,532.9v-19.7h4l5.6,16.7l5.6-16.7h4v19.7h-2.2v-17.4h-0.4l-5.7,16.7H954l-5.7-16.7h-0.4v17.4H945.7z"/>
		<path class="st5" d="M969.6,532.9v-19.7h2.2v19.7H969.6z"/>
		<path class="st5" d="M976.7,532.9v-19.7h4.1l7.6,17.8h0.6v-17.8h2.2v19.7h-4l-7.7-17.8h-0.5v17.8H976.7z"/>
		<path class="st5" d="M1003.7,524.8v-2h5.4v9.7c-2.4,0.5-4.5,0.7-6.4,0.7c-2.9,0-4.9-0.8-6-2.5c-1.1-1.7-1.7-4.2-1.7-7.7
			c0-3.5,0.6-6,1.7-7.7c1.1-1.7,3.1-2.5,5.9-2.5c1.8,0,3.6,0.2,5.5,0.6l1,0.2l-0.1,1.8c-2.4-0.4-4.4-0.6-6.1-0.6
			c-2.2,0-3.7,0.6-4.4,1.9c-0.8,1.3-1.1,3.4-1.1,6.3s0.4,5,1.1,6.3c0.8,1.3,2.2,1.9,4.4,1.9c1.3,0,2.7-0.1,4.1-0.4v-6.1H1003.7z"/>
		<path class="st5" d="M920.1,539.6c-4.1,0-6.1,1.5-6.1,4.6c0,1.7,0.5,2.9,1.4,3.5s2.8,1.3,5.7,1.9c2.9,0.6,4.9,1.5,6.1,2.5
			c1.2,1,1.8,2.7,1.8,5c0,5.8-3,8.7-9,8.7c-2,0-4.5-0.2-7.5-0.7l-1.5-0.2l0.3-2.6c3.7,0.5,6.5,0.7,8.4,0.7c4,0,6-1.9,6-5.7
			c0-1.5-0.4-2.6-1.3-3.3c-0.9-0.7-2.5-1.2-5-1.7c-3.2-0.7-5.4-1.6-6.8-2.6c-1.3-1.1-2-2.9-2-5.4c0-5.1,3-7.6,9.1-7.6
			c2,0,4.4,0.2,7.1,0.6l1.4,0.2l-0.3,2.6C924.4,539.8,921.7,539.6,920.1,539.6z"/>
		<path class="st5" d="M955.6,551.6c0,5-0.8,8.7-2.4,10.9s-4.5,3.4-8.7,3.4c-4.2,0-7.1-1.2-8.7-3.5c-1.6-2.3-2.4-5.9-2.4-10.9
			c0-5,0.8-8.6,2.4-11c1.6-2.4,4.5-3.6,8.7-3.6s7.1,1.2,8.7,3.6C954.7,542.8,955.6,546.5,955.6,551.6z M936.5,551.5
			c0,4.1,0.5,7.1,1.6,8.9c1.1,1.8,3.2,2.7,6.3,2.7s5.2-0.9,6.3-2.6c1.1-1.8,1.6-4.7,1.6-8.9s-0.6-7.2-1.7-9.1
			c-1.1-1.9-3.2-2.9-6.3-2.9c-3.1,0-5.1,0.9-6.2,2.8C937,544.3,936.5,547.4,936.5,551.5z"/>
		<path class="st5" d="M982.5,551.6c0,5-0.8,8.7-2.4,10.9s-4.5,3.4-8.7,3.4c-4.2,0-7.1-1.2-8.7-3.5c-1.6-2.3-2.4-5.9-2.4-10.9
			c0-5,0.8-8.6,2.4-11c1.6-2.4,4.5-3.6,8.7-3.6c4.2,0,7.1,1.2,8.7,3.6C981.6,542.8,982.5,546.5,982.5,551.6z M963.4,551.5
			c0,4.1,0.5,7.1,1.6,8.9c1.1,1.8,3.2,2.7,6.3,2.7c3.1,0,5.2-0.9,6.3-2.6c1.1-1.8,1.6-4.7,1.6-8.9s-0.6-7.2-1.7-9.1
			c-1.1-1.9-3.2-2.9-6.3-2.9s-5.1,0.9-6.2,2.8C963.9,544.3,963.4,547.4,963.4,551.5z"/>
		<path class="st5" d="M988.2,565.5v-28.2h5.9l10.8,25.4h0.9v-25.4h3.1v28.2h-5.7l-11-25.4h-0.8v25.4H988.2z"/>
	</g>
	
		<radialGradient id="SVGID_1_" cx="986.7245" cy="506.2863" r="120.5707" fx="1097.8656" fy="506.7444" gradientTransform="matrix(-0.8643 -0.503 0.4943 -0.8492 1589.275 1432.5953)" gradientUnits="userSpaceOnUse">
		<stop  offset="0" style="stop-color:#00FFDA"/>
		<stop  offset="0.8587" style="stop-color:#00FFDA"/>
		<stop  offset="1" style="stop-color:#00FFDA"/>
	</radialGradient>
	<path class="st6" d="M960.1,442.6c0.4,0,0.8,0.1,1.2,0.3l83.4,48.2c0.7,0.4,1.2,1.2,1.2,2l-0.1,96.3c0,0.8-0.5,1.6-1.2,2
		l-83.5,48.1c-0.4,0.2-0.8,0.3-1.2,0.3c-0.4,0-0.8-0.1-1.2-0.3l-83.4-48.2c-0.7-0.4-1.2-1.2-1.2-2l0.1-96.3c0-0.8,0.5-1.6,1.2-2
		l83.5-48.1C959.3,442.7,959.7,442.6,960.1,442.6 M960.1,435.2c-1.7,0-3.3,0.4-4.8,1.3l-83.5,48.1c-3,1.7-4.8,4.9-4.8,8.4l-0.1,96.3
		c0,3.4,1.8,6.6,4.8,8.4l83.4,48.2c1.5,0.8,3.1,1.3,4.8,1.3c1.7,0,3.4-0.4,4.8-1.3l83.5-48.1c3-1.7,4.8-4.9,4.8-8.4l0.1-96.3
		c0-3.4-1.8-6.6-4.8-8.4l-83.4-48.2C963.4,435.7,961.8,435.2,960.1,435.2L960.1,435.2z"/>
</g>
</svg>
