<svg id="ICONS" xmlns="http://www.w3.org/2000/svg" viewBox="0 0 500 500"><defs><style>.cls-1{fill:none;stroke:#fff;stroke-miterlimit:10;stroke-width:5px;}</style></defs><title>NL_T&amp;amp;C_icons</title><g id="CREDIT"><path class="cls-1" d="M11.5,178.5c19.39,4.88,42,29.25,42,29.25,48,43,94.88,60,126.09,70.88,41.91,16.12,70.41,39,70.41,39s17.7,8.21,17.81,8.25c.9.2,14.39,7.81,15.57,8.25,1.91.66,10.79,5.36,12.75,6.18,3.4,1.45,11.25,7.32,11.25,7.32,6.11,3.31,10.38,9.33,15.81,9.33,18.53,0,17.35-19.66,17.35-19.66s2.08-9.65-5.43-23.41a63.61,63.61,0,0,0-3.79-6,74,74,0,0,0-4.73-6c-6.06-7-14.66-14.43-26.86-22C252.62,250.86,248,236.43,248,236.43c1-13.17,9.35-16.53,17.67-16.53a38.15,38.15,0,0,1,7.78.86c1.57.78,3.17,1.68,4.81,2.66,1.48.89,3,1.83,4.54,2.85,13.92,9.23,28,22.44,29.24,23.57l.58,3.25a52.19,52.19,0,0,1,2.86,15.76L318,282.92m-34.91,66,0,70.22a15.93,15.93,0,0,0,15.83,16L473,435a15.94,15.94,0,0,0,15.84-16l-.09-101.22a16,16,0,0,0-15.87-16h0l-111,.11c.94-10.4.35-23.18.16-43.36-.43-38.31-12.43-49.57-39.88-87.64-18.26-25.38-16.45-42.54-33.82-51a70.51,70.51,0,0,0-25.06-6.18c-1.48-.08-2.89-.16-4.1-.16a47.14,47.14,0,0,0-5.55.2c-1.37,0-2.89,0-4.34,0l-6.42,0-7.53.08-4.08,0,0-.08h-3.55c-55.74,0-66.14-2.61-109.43-5-47-2.57-80.14-16.45-80.14-16.45"/></g></svg>