<svg id="ICONS" xmlns="http://www.w3.org/2000/svg" viewBox="0 0 500 500"><defs><style>.cls-1{fill:none;stroke:#fff;stroke-linejoin:bevel;stroke-width:5px;}</style></defs><title>NL_T&amp;amp;C_icons</title><g id="BALLONS"><path class="cls-1" d="M269.05,57.71a82.88,82.88,0,0,0-18.92-2.14m0,16"/><path class="cls-1" d="M319.33,177.3a125.23,125.23,0,0,0,7.19-40.88c0-24.95-8.86-46.84-25-61.65m8.94,61.65"/><path class="cls-1" d="M110.9,124.84h0a82.82,82.82,0,0,0-18.29,5.26m18.29-5.26"/><path class="cls-1" d="M315.53,330.88c7.66,3.68,11,8.22,39,9.63,18.85,1,38.9-6,58.55-17.76,28.92-17.33,52.82-44.9,65.55-75.64,12.49-30.15,13.18-61.86,2-89.29h0c-10.92-26.71-32.27-47.76-60.09-59.29-22.07-9.14-45.23-11.19-67.37-6a109,109,0,0,0-24.76-39.31C308,32.68,280.25,21.4,250.13,21.4s-57.89,11.28-78.2,31.77a108.83,108.83,0,0,0-24.79,39.37c-22.21-5.21-45.45-3.19-67.61,6-27.82,11.53-49.16,32.58-60.09,59.29C8.22,185.25,8.91,217,21.4,247.11,34.14,277.85,58,305.43,87,322.76c19.66,11.77,39.68,17.24,58.56,17.76,21.17.58,32.72-7.13,39-9.65M250,276.69l.45,208.25-66-154.07c20.3-10.95,36-30.78,44.93-57a81,81,0,0,0,12.72,2.32Zm0,0c4.24-.42,16.55-1.64,20.62-2.71,9,26.15,24.64,46,44.91,56.9L250.45,484.94ZM147.14,92.54c-2,9.12-7.68,19.59-7.57,43.88a163.82,163.82,0,0,0,31.61,95c12.57,17,36.27,35.36,58.23,42.51m41.21.08c44.91-14.23,90.08-84.51,90.08-137.56,0-21.48-5.57-34.8-7.6-43.94"/><path class="cls-1" d="M436.92,163.63,424.73,269.05A125.13,125.13,0,0,0,447,234c9.54-23,9.73-46.67.53-66.51m-10.64-3.9"/><path class="cls-1" d="M424.05,139.32a83.13,83.13,0,0,0-16.66-9.22m12,23.73"/></g></svg>