<svg id="ICONS" xmlns="http://www.w3.org/2000/svg" viewBox="0 0 500 500"><defs><style>.cls-1{fill:none;stroke:#fff;stroke-miterlimit:10;stroke-width:5px;}</style></defs><title>NL_T&amp;amp;C_icons</title><g id="TELEPHONE"><path class="cls-1" d="M489.71,413.59c19.6-31.76-4.35-68.45-51.79-88.59-49.1-20.87-70.09-27.1-86.91,3.29,0,0-5,10.86-6.83,17.36l-12.63,21.88c-3.59,6.13-16.84,15.41-29.86,9C286.77,369.21,155,261,127.37,214.38c0,0-12.78-28,4-37.19L153.3,164c20.77-7.18,37.41-17.7,34.21-35.38-3.29-18.23-28.86-95.86-65.84-120.29,0,0-30.88.92-42.39,9.57L58.18,32.72C41.75,48.25-3.2,99.67,4.25,132.78,12.42,169.06,77.49,253.88,99.78,278c22.57,24.43,91,104.05,167.33,154,0,0,87.87,58.57,112.36,59.71,23.91,1.11,72.79-25.29,95.94-56.58Z"/></g></svg>