<svg id="ICONS" xmlns="http://www.w3.org/2000/svg" viewBox="0 0 500 500"><defs><style>.cls-1{fill:none;}.cls-1,.cls-2{stroke:#fff;stroke-miterlimit:10;stroke-width:5px;}.cls-2{fill:#fff;}</style></defs><title>NL_T&amp;amp;C_icons</title><g id="VIDEO"><path class="cls-1" d="M432.06,362.94h0a40.05,40.05,0,0,1-26.17-10l-75.61-65.71c-10.36-9-16.27-22.61-16.27-37.33s5.91-28.27,16.27-37.3l75.61-65.75a40,40,0,0,1,46.57-4.2c13.6,8.31,22,24.18,22,41.5v131.5c0,17.36-8.44,33.28-22.06,41.5a39.17,39.17,0,0,1-20.38,5.8Zm0,0"/><path class="cls-1" d="M271.14,386H66.61a33.88,33.88,0,0,1-33.83-33.82V147.64a33.88,33.88,0,0,1,33.83-33.81H271.14A33.87,33.87,0,0,1,305,147.64V352.17A33.87,33.87,0,0,1,271.14,386Zm0,0"/><line class="cls-2" x1="29.29" y1="31.45" x2="467.43" y2="469.58"/><line class="cls-2" x1="26.99" y1="469.58" x2="465.12" y2="31.45"/></g></svg>