<svg id="ICONS" xmlns="http://www.w3.org/2000/svg" viewBox="0 0 500 500"><defs><style>.cls-1,.cls-2{fill:none;stroke:#fff;stroke-miterlimit:10;stroke-width:5px;}.cls-1{fill-rule:evenodd;}</style></defs><title>NL_T&amp;amp;C_icons</title><polygon id="CONTACT" class="cls-1" points="472 -240.34 251.29 -228.57 192.44 -7.84 68.11 -494.16 472 -240.34"/><g id="DISABLED"><path class="cls-2" d="M184,188.89C111.34,200.06,58.31,255.81,58.31,328.45,58.31,406.53,119.78,468,197.86,468c67.06,0,122.81-47.45,136.84-108.89m-14-58.61"/><path class="cls-2" d="M223,119.12c25.19-2.86,44.69-22.37,44.69-47.45A50.08,50.08,0,0,0,217.37,21.4c-27.81,0-47.45,22.36-47.45,50.27,0,16.78,8.44,33.39,22.36,41.86l36.25,159H343l33.53,139.55H449M337.42,188.89H239.69M396,384.16"/></g></svg>