<svg id="ICONS" xmlns="http://www.w3.org/2000/svg" viewBox="0 0 500 500"><defs><style>.cls-1{fill:none;stroke:#fff;stroke-miterlimit:10;stroke-width:5px;fill-rule:evenodd;}</style></defs><title>NL_T&amp;amp;C_icons</title><g id="CALENDAR"><path class="cls-1" d="M357.23,25.54v76.21m0,0"/><path class="cls-1" d="M145.76,101.75V25.54"/><path class="cls-1" d="M413.33,198.67H84.83m0,0"/><path class="cls-1" d="M152.8,287l36.52-36.45a7,7,0,0,1,5-2.08,7.08,7.08,0,0,1,7.08,7.07v146m0,0"/><path class="cls-1" d="M242,399.31h43.6a29.31,29.31,0,0,0,20.78-8.59c5.34-5.34,8.31-13.93,8.5-30.3.21-16.87-3.16-21.77-8.5-27.11v-.07a29.64,29.64,0,0,0-20.78-8.59H249.07a7.08,7.08,0,0,1-7.07-7.08v-62a7.08,7.08,0,0,1,7.07-7.07H314M249.07,408.59"/><path class="cls-1" d="M475.11,173.41V429a43.6,43.6,0,0,1-43.53,43.51h-365A43.57,43.57,0,0,1,23,429V173.41m0,0"/><path class="cls-1" d="M373.57,53.82h58a43.52,43.52,0,0,1,30.25,12.42l.5.42a43.5,43.5,0,0,1,12.85,30.75v39.48a7.08,7.08,0,0,1-7.07,7.07H30.05A7.09,7.09,0,0,1,23,136.89V97.41a43.61,43.61,0,0,1,12.41-30.3l.43-.45A43.28,43.28,0,0,1,66.56,53.82h60.1m208.26,0H163m192,0"/></g></svg>