<svg id="ICONS" xmlns="http://www.w3.org/2000/svg" viewBox="0 0 500 500"><defs><style>.cls-1{fill:none;stroke:#fff;stroke-linejoin:round;stroke-width:5px;}</style></defs><title>NL_T&amp;amp;C_icons</title><g id="FOUL"><path class="cls-1" d="M303.09,155.79,347.88,84M249.49,62v84.61m-53.13,9.18L151.56,84M493.33,252.34,322,288.29c2.1,8.52,2.1,19,2.1,27.54,0,69.79-57.07,127-127,127-59.17,0-107.83-40.15-122.65-93C68.17,354,59.65,358.19,49,358.19a42.25,42.25,0,0,1,0-84.5c10.61,0,19,4.2,25.44,8.41,14.82-52.87,63.48-93,122.65-93h21.13v42.25h63.48V189.08H493.21v63.26Zm-423,63.49"/></g></svg>