<svg id="ICONS" xmlns="http://www.w3.org/2000/svg" viewBox="0 0 500 500"><defs><style>.cls-1{fill:none;}.cls-1,.cls-2{stroke:#fff;stroke-miterlimit:10;stroke-width:5px;}.cls-2{fill:#fff;}</style></defs><title>NL_T&amp;amp;C_icons</title><g id="CLOCK"><path class="cls-1" d="M411.46,93.36A222.94,222.94,0,0,0,96.16,408.64,222.94,222.94,0,0,0,411.46,93.36ZM253.81,436.47"/><circle class="cls-2" cx="105.86" cy="165.32" r="1.29"/><circle class="cls-2" cx="167.99" cy="102.87" r="1.29"/><circle class="cls-2" cx="253.52" cy="79.83" r="1.29"/><circle class="cls-2" cx="339.13" cy="102.57" r="1.29"/><circle class="cls-2" cx="401.89" cy="165.1" r="1.29"/><circle class="cls-2" cx="424.94" cy="250.8" r="1.29"/><circle class="cls-2" cx="402.08" cy="336.57" r="1.29"/><circle class="cls-2" cx="339.46" cy="399.23" r="1.29"/><circle class="cls-2" cx="253.91" cy="422.17" r="1.29"/><circle class="cls-2" cx="168.32" cy="399.33" r="1.29"/><circle class="cls-2" cx="105.63" cy="336.73" r="1.29"/><circle class="cls-2" cx="82.64" cy="251.2" r="1.29"/><polyline class="cls-1" points="111.39 252.59 255.2 252.59 255.2 135.01"/></g></svg>