<svg id="ICONS" xmlns="http://www.w3.org/2000/svg" viewBox="0 0 500 500"><defs><style>.cls-1{fill:none;stroke:#fff;stroke-miterlimit:10;stroke-width:5px;}</style></defs><title>NL_T&amp;amp;C_icons</title><g id="FAMILY"><path class="cls-1" d="M298.94,270.09A48.95,48.95,0,1,1,250,221.14a49,49,0,0,1,48.95,48.95Zm0,0"/><path class="cls-1" d="M270.76,322.35H229.22A62.75,62.75,0,0,0,166.57,385v50.81l.12.79,3.5,1.09c33,10.31,61.62,13.74,85.2,13.74,46.05,0,72.74-13.14,74.39-14l3.27-1.67.35,0V385a62.71,62.71,0,0,0-62.64-62.67Zm0,0"/><path class="cls-1" d="M229,127.51a79,79,0,1,1-79-79,79,79,0,0,1,79,79Zm0,0"/><path class="cls-1" d="M349.9,206.47a79,79,0,1,0-79-79,79,79,0,0,0,79,79Zm0,0"/><path class="cls-1" d="M214.83,219c-11.54-4.6-27-7.2-31.25-7.2h-67A101.21,101.21,0,0,0,15.5,312.93v81.95l.21,1.28,5.64,1.74c52.2,16.32,91.68,21.93,129.3,22.15m61-105.4"/><path class="cls-1" d="M349.35,420.05c37.62-.22,77.1-5.83,129.3-22.15l5.64-1.74.21-1.28V312.93a101.22,101.22,0,0,0-101.1-101.1h-67c-13.14,0-19.71,2.6-31.22,7.2m98.2-7.2"/></g></svg>