<svg id="ICONS" xmlns="http://www.w3.org/2000/svg" viewBox="0 0 500 500"><defs><style>.cls-1{fill:none;stroke:#fff;stroke-miterlimit:10;stroke-width:5px;}</style></defs><title>NL_T&amp;amp;C_icons</title><g id="ATTENTION"><path class="cls-1" d="M485.65,437,258,46.07a9.16,9.16,0,0,0-8-4.59,9,9,0,0,0-7.86,4.59L14.44,437a9.22,9.22,0,0,0,7.87,13.91H477.7a9.3,9.3,0,0,0,8-4.65,10.14,10.14,0,0,0,1.13-4.59,9.62,9.62,0,0,0-1.21-4.67ZM281.1,180.21l-7.52,155.43H234.44l-7.52-155.43ZM254,415.2h-.73c-17.77,0-30.13-13.32-30.13-31.18,0-18.5,12.69-31.26,30.86-31.26s30.22,12.76,30.53,31.26c0,17.86-11.94,31.18-30.53,31.18Zm0,0"/></g></svg>