<svg id="ICONS" xmlns="http://www.w3.org/2000/svg" viewBox="0 0 500 500"><defs><style>.cls-1,.cls-3{fill:none;stroke:#fff;stroke-miterlimit:10;}.cls-1{stroke-width:4px;}.cls-2{fill:#fff;}.cls-3{stroke-width:6px;}</style></defs><title>NL_T&amp;amp;C_icons</title><g id="CLAUSTROPHOBIA"><path class="cls-1" d="M492.14,66.88,288.46,144.54,43,61.21,253.57,4.93ZM258.48,245.8,258,16.3l223.29,57L483,355ZM12,371.62"/><path class="cls-1" d="M287.93,480.68V156.17L492.67,79.31V364.9ZM39,334V71.9L246.48,16.3V247.94ZM529.5,371.62"/><path class="cls-2" d="M222,163.6a28.6,28.6,0,1,0-50.82-14.54c2.93,25.49,35.17,34.27,50.82,14.54Zm0,0"/><path class="cls-3" d="M332.23,207.39c-23.46-32.87-69.92-47.62-106.25-26.07-15.94,9.5-28.88,4.61-46.74,4.61-37.35,0-37-16.65-54.35-16.65M348.56,355c-77.12-18.16-161.1-169-120.35-174m8.9,90.57-39.11,27c-12.65,11.08-2.65,26.58,5.48,31.46,9.8,5.89,22.29,12,34.43,18.05,25.74,12.69,27.07,14.23,34,14.76m78.61-4.14"/></g></svg>