<svg id="ICONS" xmlns="http://www.w3.org/2000/svg" viewBox="0 0 500 500"><defs><style>.cls-1{fill:none;stroke:#fff;stroke-miterlimit:10;stroke-width:5px;}</style></defs><title>NL_T&amp;amp;C_icons</title><g id="BOOK"><polyline class="cls-1" points="109.26 72.79 109.26 88.78 92.28 88.78"/><polyline class="cls-1" points="109.26 136.74 109.26 152.65 92.28 152.65"/><polyline class="cls-1" points="109.26 392.13 109.26 408.12 92.28 408.12"/><polyline class="cls-1" points="109.26 200.59 109.26 216.57 92.28 216.57"/><polyline class="cls-1" points="109.26 264.44 109.26 280.42 92.28 280.42"/><polyline class="cls-1" points="109.26 328.28 109.26 344.27 92.28 344.27"/><path class="cls-1" d="M126.13,408.12H109.26v16a32,32,0,0,0,31.87,32H380.64a32.12,32.12,0,0,0,32-32V73.9c0-17.62-16.13-32-33.68-32H141.13a32,32,0,0,0-31.87,32V72.79m16.87,271.48H109.26v47.86m16.87-111.71H109.26v47.86m16.87-111.71H109.26v47.87m16.87-111.81H109.26v48M126.13,88.78H109.26v48m79.83,44.87H332.77M173.1,117.76H348.76"/></g></svg>