<svg id="ICONS" xmlns="http://www.w3.org/2000/svg" viewBox="0 0 500 500"><defs><style>.cls-1{fill:none;stroke:#fff;stroke-miterlimit:10;stroke-width:5px;}</style></defs><title>NL_T&amp;amp;C_icons</title><g id="TEAM_BUILDING"><path class="cls-1" d="M251.75,16.87c6.7-5.86,17-7.06,27.89-7,41.67.21,83.33.08,125,.09,29.26,0,43.24,13.85,43.25,42.85,0,41.94-.49,83.88.17,125.81.45,28.11-18.23,44.36-42.21,42.28-6.44-.56-13-.09-20.61-.09,0,11.23-.06,21.29,0,31.34.05,6.7.07,13.24-7.37,16.64-7,3.2-11.91-.48-16.92-4.53-15.45-12.49-31.09-24.76-46.4-37.42-5.05-4.17-10-6.84-16.87-6.16-6.2.62-12.52-.09-18.77.18-10.65.47-20.63-1.12-29.41-8.73M139,231.11c5.83-4.58,10.58-7.41,14.19-11.3,18.56-20,41-27.55,68.12-24.07,12.2,1.56,15.72-3.23,15.76-16,0-11.44-.3-22.89.12-34.32.53-14.5,14.55-23.22,28-17.7,2.76,1.13,5.23,2.93,7.93,4.2,7.59,3.56,15.08,2.14,20.86-4s6.69-12.88,3.17-20.33A17.18,17.18,0,0,0,278.19,98c-3.88.75-7.57,2.79-11.21,4.52-14.81,7.08-29.53-1.65-29.89-18-.26-11.7,0-23.42-.1-35.13-.11-10.16-3.63-14-13.78-14q-66.19-.2-132.37,0c-10.87,0-14,3.43-14,14.34q0,65.78,0,131.56c0,11.12,3,14.1,13.93,14.2,10.62.09,21.25-.16,31.87.08,11.91.27,16.16,4.73,16.28,16.51C139,217.73,139,223.43,139,231.11Z"/><path class="cls-1" d="M35.8,491.17c-.22-14.14-.31-26.64.68-40.72,1.46-20.63,19.06-38.68,40.49-42.18a92.67,92.67,0,0,1,22-.8,18.65,18.65,0,0,1,10.56,5.18c7.56,7.41,14.46,15.49,23.69,25.56,7.33-8.27,13.21-14.36,18.44-21,6.8-8.57,15.42-10.68,26-10.29,17,.64,31.34,6,42.21,19.45,7.31,9.06,10.43,19.65,10.84,31,.39,10.88.3,21.78.07,32.66"/><path class="cls-1" d="M269.61,490.12c-2.37-24.93-6.84-43.54,11.31-65.42,14.07-17,33.31-19.16,53.51-16.9,3.32.37,6.75,3.43,9.34,6,7.09,7.14,13.75,14.69,22.5,24.15,8.65-9.52,15.13-17.67,22.75-24.57a25.53,25.53,0,0,1,14.33-6c23.06-1.62,42.75,5,54,26.89a53.34,53.34,0,0,1,5.41,20.17c.88,12.19.43,24.48.29,36.72"/><path class="cls-1" d="M132.59,289.22A54.47,54.47,0,0,1,186.78,344c-.31,29.62-24.86,54.08-54.23,54A54.92,54.92,0,0,1,78,343.52C77.81,313.63,102.45,289.15,132.59,289.22Z"/><path class="cls-1" d="M312.35,343.13c.26-29.67,24.75-54,54.21-53.9,29.93.13,54.67,24.82,54.59,54.5-.07,29.87-25.15,54.76-54.73,54.32A54.63,54.63,0,0,1,312.35,343.13Z"/></g></svg>