<svg id="ICONS" xmlns="http://www.w3.org/2000/svg" viewBox="0 0 500 500"><defs><style>.cls-1{fill:#fff;}</style></defs><title>Artboard 1 copy 110</title><g id="id"><path class="cls-1" d="M453.1,0H46.89A47,47,0,0,0,0,46.88V453.12A47,47,0,0,0,46.89,500H453.1A47,47,0,0,0,500,453.12V46.88A47,47,0,0,0,453.1,0ZM92.74,232.7c0-20.47,25.15-37.22,55.89-37.22h37.26a55.87,55.87,0,1,1,55.89-55.87,55.89,55.89,0,0,1-55.89,55.87h37.25c30.75,0,55.9,16.75,55.9,37.22V270H92.74ZM394.52,416H113.12a20.47,20.47,0,1,1,0-40.94h281.4a20.47,20.47,0,1,1,0,40.94Zm0-70.5H113.12a20.48,20.48,0,1,1,0-40.95h281.4a20.48,20.48,0,1,1,0,40.95Z"/></g></svg>