<svg id="ICONS" xmlns="http://www.w3.org/2000/svg" viewBox="0 0 500 500"><defs><style>.cls-1{fill:#fff;stroke:#fff;stroke-width:10px;}.cls-1,.cls-3{stroke-miterlimit:10;}.cls-2{fill:#1a1a1a;}.cls-3{stroke:#1a1a1a;stroke-linecap:round;stroke-width:40px;}</style></defs><title>Artboard 1 copy 11</title><g id="id"><path class="cls-1" d="M448.2,5.75H51.54A45.93,45.93,0,0,0,5.75,51.55v396.9a45.93,45.93,0,0,0,45.79,45.8H448.2a45.93,45.93,0,0,0,45.8-45.8V51.55a45.93,45.93,0,0,0-45.8-45.8Z"/><path class="cls-2" d="M132.69,142.15a54.58,54.58,0,1,0,54.58-54.58,54.58,54.58,0,0,0-54.58,54.58Zm91,54.58H150.89c-30,0-54.58,16.37-54.58,36.37v36.39H278.23V233.1c0-20-24.56-36.37-54.58-36.37Zm0,0"/><path class="cls-3" d="M116.21,323.31H391M116.21,392.19H391"/></g></svg>