<svg id="ICONS" xmlns="http://www.w3.org/2000/svg" viewBox="0 0 500 500"><defs><style>.cls-1{fill:#fff;}</style></defs><title>Artboard 1 copy 8</title><path class="cls-1" d="M495.06,387.91,452.14,172.69c-6.12-21.52-27.53-39.93-52-39.93h-58.2V91.12a55,55,0,0,0-55.17-55.18H213.3a55,55,0,0,0-55.21,55.18v41.64H99.93c-24.54,0-45.9,18.41-52,39.93l-43,215.22C-1.18,418.58,23.36,449.06,57,449.06H439.89c36.79,0,61.3-30.48,55.17-61.15ZM188.76,91.12c0-12.26,12.29-24.51,24.54-24.51h73.44c12.25,0,24.5,12.25,24.5,24.51v41.64H188.76ZM341.91,326.58h-61.3v61.33H219.43V326.58H158.09V265.43h61.34V204.09h61.18v61.34h61.3Zm0,0"/></svg>