<svg id="ICONS" xmlns="http://www.w3.org/2000/svg" viewBox="0 0 500 500"><defs><style>.cls-1{fill:#fff;}</style></defs><title>Artboard 1 copy 24</title><path class="cls-1" d="M475.36,425.43A24.66,24.66,0,0,0,500,400.8V355.28H324.57V400.8a24.62,24.62,0,0,0,24.58,24.63Zm0,0"/><path class="cls-1" d="M13.1,136h92.18V109.64H13.1a13.18,13.18,0,0,0,0,26.35Zm0,0"/><path class="cls-1" d="M368.43,210l-26.91-3.82.18,31.91,26.73,13.66Zm0,0"/><path class="cls-1" d="M137.87,162.28H193V83.35H137.66l-18.94,17.51L114,105.19v31.39l7.59,8.14Zm0,0"/><path class="cls-1" d="M500,331.63V317.58l-4.67-4.67-5.66-5.6L485,302.64H447.36V117l35.08-14.61V74.57H201.72v92.77l5.15,3.73L219.24,180,332.7,196l4.41.65,4.38.64,31.05,4.37,4.36.64h.25V302.64H339.51l-14.94,14.94V346.5H500ZM359.64,98.68a6.55,6.55,0,0,1,6.55-6.55h48.28A6.51,6.51,0,0,1,421,98.68v4.42a6.54,6.54,0,0,1-6.54,6.54H366.19a6.57,6.57,0,0,1-6.55-6.54Zm0,26.35a6.59,6.59,0,0,1,6.55-6.6h48.28A6.56,6.56,0,0,1,421,125v4.36a6.56,6.56,0,0,1-6.54,6.6H366.19a6.59,6.59,0,0,1-6.55-6.6Zm0,0"/></svg>