<?xml version="1.0" encoding="utf-8"?>
<!-- Generator: Adobe Illustrator 23.0.0, SVG Export Plug-In . SVG Version: 6.00 Build 0)  -->
<svg version="1.1" id="ICONS" xmlns="http://www.w3.org/2000/svg" xmlns:xlink="http://www.w3.org/1999/xlink" x="0px" y="0px"
	 viewBox="0 0 500 500" style="enable-background:new 0 0 500 500;" xml:space="preserve">
<style type="text/css">
	.st0{fill:#FFFFFF;}
</style>
<title>Artboard 1 copy 24</title>
<path class="st0" d="M469.1,480.6c16.2,0,29.2-15.6,29.3-34.8v-30.4H330.7v30.4c0,19.2,13.1,34.8,29.2,34.8H469.1z"/>
<path class="st0" d="M37.1,91.7h109.5V60.4H37.1c-8.6,0.2-15.5,7.4-15.2,16.1C22.1,84.8,28.7,91.5,37.1,91.7L37.1,91.7z"/>
<path class="st0" d="M362.4,164.4l-32-4.5l0.2,37.9l31.8,16.2V164.4z"/>
<path class="st0" d="M185.3,123h65.5V29.2H185L162.5,50l-5.6,5.1v37.3l9,9.7L185.3,123z"/>
<path class="st0" d="M498.3,382v-19.9l-5.5-6.6l-6.7-7.9l-5.5-6.6l-24.3,0.4v-278l41.7-5.4V18.8H261.1v115.8l6.1,5.3l14.7,12.6
	l38.1,22.6l5.2,0.9l5.2,0.9l36.9,6.2l5.2,0.9h0.3V341h-24.3l-17.7,21.1V403h167.7V382z M352,52.8c0-5.1,3.5-9.3,7.8-9.3h57.3
	c4.3,0,7.7,4.1,7.8,9.2c0,0,0,0.1,0,0.1v6.2c0,5.1-3.5,9.2-7.8,9.2l0,0h-57.3c-4.3,0-7.8-4.1-7.8-9.2V52.8z M352,90.1
	c0-5.1,3.5-9.3,7.8-9.3h57.3c4.3,0,7.8,4.2,7.8,9.3v6.2c0,5.1-3.4,9.3-7.7,9.3c0,0,0,0,0,0h-57.3c-4.3,0-7.8-4.2-7.8-9.3V90.1z"/>
</svg>
