<svg id="ICONS" xmlns="http://www.w3.org/2000/svg" viewBox="0 0 500 500"><defs><style>.cls-1{fill:#fff;}</style></defs><title>Artboard 1 copy 20</title><path class="cls-1" d="M416.62,451.24C412.76,362.55,376.93,285.32,324.7,250c52.3-35.37,88.06-112.58,91.92-201.27,8.6-4.2,13.32-8.87,13.32-13.72,0-19.35-75.19-35-168-35S94,15.69,94,35c0,4.85,4.72,9.52,13.32,13.72C111.21,137.39,147,214.66,199.27,250c-52.3,35.3-88.06,112.58-91.92,201.27C98.75,455.44,94,460,94,465c0,19.35,75.19,35,168,35s168-15.69,168-35c0-4.85-4.72-9.52-13.32-13.72ZM230.49,262.76c4.59-1.84,7.75-6.95,7.75-12.79s-3.16-10.89-7.75-12.73c-54.38-21.32-93.68-93.76-99.91-180.42,30.77,8.06,78.13,13.25,131.4,13.25s100.64-5.19,131.41-13.25c-6.23,86.66-45.53,159.1-99.91,180.42-4.59,1.84-7.75,6.95-7.75,12.73s3.16,11,7.75,12.79c54.38,21.32,93.68,93.76,99.91,180.42-4.92-1.31-10.36-2.55-16.07-3.68C359.6,367.8,262,305,262,305S164.42,367.8,146.65,439.5c-5.71,1.13-11.15,2.37-16.07,3.68,6.23-86.66,45.53-159.1,99.91-180.42ZM262,233.51a437.62,437.62,0,0,1-45.53-43.25C282.84,176,336.84,144.54,366.17,104,334.88,176.1,262,233.51,262,233.51Zm0,0"/></svg>