<svg id="ICONS" xmlns="http://www.w3.org/2000/svg" viewBox="0 0 500 500"><defs><style>.cls-1{fill:#fff;fill-rule:evenodd;}</style></defs><title>Artboard 1 copy 25</title><path class="cls-1" d="M497.7,244.29,256,3.5a8.34,8.34,0,0,0-11.8,0L2.41,244.29a8.38,8.38,0,0,0,0,11.76,8.24,8.24,0,0,0,5.9,2.57v0H66.65V491.4a8.23,8.23,0,0,0,2.45,5.85A8.42,8.42,0,0,0,75,499.7H191.65a8.32,8.32,0,0,0,8.34-8.3V325.19H300V491.4a8.35,8.35,0,0,0,8.34,8.3H425a8.35,8.35,0,0,0,8.34-8.3V258.66h58.71a6.88,6.88,0,0,0,5.65-2.56c2.86-3.67,3.26-8.55,0-11.81Zm0,0"/></svg>