<?xml version="1.0" encoding="utf-8"?>
<!-- Generator: Adobe Illustrator 23.0.0, SVG Export Plug-In . SVG Version: 6.00 Build 0)  -->
<svg version="1.1" id="ICONS" xmlns="http://www.w3.org/2000/svg" xmlns:xlink="http://www.w3.org/1999/xlink" x="0px" y="0px"
	 viewBox="0 0 500 500" style="enable-background:new 0 0 500 500;" xml:space="preserve">
<style type="text/css">
	.st0{fill:#FFFFFF;}
</style>
<title>marketing</title>
<path class="st0" d="M469.6,0H30.5C13.7,0,0.1,13.6,0,30.4v340.8c0.1,16.8,13.7,30.3,30.5,30.4h439.1c16.8-0.1,30.3-13.6,30.4-30.4
	V30.4C499.9,13.6,486.4,0.1,469.6,0z M462,348.8H38.1V42.7H462V348.8z"/>
<path class="st0" d="M193.7,441.5L136.2,500h228.4l-57.4-58.5H193.7z"/>
<path class="st0" d="M108.8,268.4c11.2,0,20.4-9.1,20.4-20.3c-0.1-2-0.5-3.9-1.3-5.8c26.1-21,72.1-57.9,93.1-74.1
	c3.3,2.5,7.3,3.9,11.5,4c3.4-0.1,6.8-1,9.8-2.8c13.5,11.4,36.3,30.9,52.7,44.7c-0.3,1.1-0.6,2.3-0.7,3.5
	c-0.2,11.3,8.7,20.6,19.9,20.8c11.3,0.2,20.6-8.7,20.8-19.9c0-0.3,0-0.6,0-0.9c-0.1-1.9-0.5-3.8-1.2-5.6l52.7-47.6
	c2.9,1.6,6,2.4,9.3,2.5c11.3,0,20.4-9.1,20.4-20.3c0-11.3-9.1-20.4-20.3-20.4s-20.4,9.1-20.4,20.3c0,2.6,0.5,5.2,1.5,7.6
	c-14.7,13.3-37.4,33.9-51.5,46.6c-3.2-2.2-6.9-3.5-10.8-3.6c-4.6,0.1-9,1.7-12.5,4.7c-13.5-11.5-35.2-30-50.7-43.2
	c0.9-2.2,1.4-4.5,1.4-6.9c0-11.2-9.1-20.3-20.3-20.3c-11.2,0-20.3,9.1-20.3,20.3l0,0c0,2.4,0.5,4.8,1.3,7l-93.4,72.7
	c-3.3-2.4-7.2-3.8-11.3-3.9c-11.2,0-20.3,9.1-20.3,20.3C88.4,259.3,97.6,268.4,108.8,268.4L108.8,268.4z"/>
</svg>
