<svg id="ICONS" xmlns="http://www.w3.org/2000/svg" viewBox="0 0 500 500"><defs><style>.cls-1{fill:#fff;}</style></defs><title>Artboard 1 copy 16</title><path class="cls-1" d="M115.52,97.14A57.76,57.76,0,1,1,57.78,39.4a57.79,57.79,0,0,1,57.74,57.74ZM57.74,332.62a57.77,57.77,0,1,0,57.78,57.75,57.76,57.76,0,0,0-57.78-57.75ZM202,79.13H482.88a17.09,17.09,0,1,0,0-34.18H202a17.09,17.09,0,0,0,0,34.18Zm0,83.49H384.23a17.08,17.08,0,0,0,0-34.15H202a17.08,17.08,0,0,0,0,34.15ZM482.88,342.93H202a17.08,17.08,0,0,0,0,34.16H482.88a17.08,17.08,0,1,0,0-34.16Zm-98.65,83.53H202a17.07,17.07,0,1,0,0,34.14H384.23a17.07,17.07,0,0,0,0-34.14Zm0,0"/></svg>