<svg id="ICONS" xmlns="http://www.w3.org/2000/svg" xmlns:xlink="http://www.w3.org/1999/xlink" viewBox="0 0 500 500"><defs><style>.cls-1{fill:none;}.cls-2{fill:#fff;}.cls-3{clip-path:url(#clip-path);}</style><clipPath id="clip-path"><rect class="cls-1" x="18.39" width="470.09" height="500"/></clipPath></defs><title>Artboard 1 copy 19</title><path class="cls-2" d="M117.85,287.33a116.29,116.29,0,0,1,22.74-69.17,83.55,83.55,0,0,0-56.28-21.84C37.74,196.32,0,234.4,0,281.35,0,281.35,19.84,460,84.31,460c24.94,0,43.16-26.72,56.18-59.46C125.29,350.15,119.15,299.84,118,289Zm0,0"/><path class="cls-2" d="M84.31,190.16A74.38,74.38,0,0,0,149.71,151a104.15,104.15,0,0,1-20.13-61.66A105.41,105.41,0,0,1,134,59.25,73.85,73.85,0,0,0,84.31,40C43.19,40,9.86,73.6,9.86,115.07s33.33,75.09,74.45,75.09Zm0,0"/><path class="cls-2" d="M415.69,196.32a83.55,83.55,0,0,0-56.28,21.84,116.17,116.17,0,0,1,22.75,69.17l-.1,1.68c-1.19,10.83-7.35,61.14-22.53,111.57,13,32.74,31.24,59.46,56.16,59.46C480.16,460,500,281.35,500,281.35c0-47-37.74-85-84.31-85Zm0,0"/><path class="cls-2" d="M350.31,151a74.32,74.32,0,0,0,65.38,39.15c41.12,0,74.45-33.63,74.45-75.11S456.81,40,415.69,40A73.85,73.85,0,0,0,366,59.25,104.48,104.48,0,0,1,350.31,151Zm0,0"/><g class="cls-3"><path class="cls-2" d="M251.51,186c-55.45,0-100.37,45.31-100.37,101.23,0,0,23.61,212.71,100.37,212.71s100.4-212.71,100.4-212.71c0-55.92-45-101.23-100.4-101.23Zm0,0"/><path class="cls-2" d="M340.16,89.22c0,49.37-39.68,89.41-88.65,89.41s-88.65-40-88.65-89.41,39.7-89.4,88.65-89.4,88.65,40,88.65,89.4Zm0,0"/></g></svg>