<svg id="ICONS" xmlns="http://www.w3.org/2000/svg" viewBox="0 0 500 500"><defs><style>.cls-1{fill:#fff;}</style></defs><title>Artboard 1 copy 22</title><path class="cls-1" d="M369.67,398.41a53.16,53.16,0,0,0,4.24-41.73,54.26,54.26,0,0,0-67.78-35.36,53.62,53.62,0,0,0-8.32,99.26l7.24,23L184.29,481l-46.55-148.4-18.86,5.83a62.13,62.13,0,0,1-37.36,31.47A62.44,62.44,0,1,1,92.89,255.54l18.92-5.85-41.69-133L191,79.35l5.65,18.18a53.13,53.13,0,0,0-4.16,41.67,54,54,0,1,0,76-63.9l-5.73-18.2L385.91,19l43.74,139.59-12.8,3.91A53.88,53.88,0,1,0,407,261a53.36,53.36,0,0,0,32.2-27.07L452,230l48,153.34L376.89,421.36Zm0,0"/></svg>