<svg id="ICONS" xmlns="http://www.w3.org/2000/svg" xmlns:xlink="http://www.w3.org/1999/xlink" viewBox="0 0 500 500"><defs><style>.cls-1{fill:none;}.cls-2{clip-path:url(#clip-path);}.cls-3{fill:#fff;}.cls-4{clip-path:url(#clip-path-2);}</style><clipPath id="clip-path"><path class="cls-1" d="M351.22,492.24,13.64,386.64A19.62,19.62,0,0,1,.87,362.15L98.73,41.63,480.23,161,384.52,474.45A26.58,26.58,0,0,1,351.22,492.24Z"/></clipPath><clipPath id="clip-path-2"><polygon class="cls-1" points="500 61.59 97.76 63.47 97.36 8.81 499.6 6.92 500 61.59"/></clipPath></defs><title>Artboard 1 copy 17</title><g class="cls-2"><g id="movie"><path class="cls-3" d="M418.62,195,371.3,180.17l62.35-33.43L401.48,83.32l-66.7-20.86,33,63.26L304,159.12l-56.6-17.71,63.39-33.1-33.2-63.75-67.77-21.2,33,63.26L179,120l-48-15,63.43-33.1L161.14,8.14,113-6.91-5.48,381.19,378,501.14,496.45,113l-47-14.7,32.19,63.21ZM345,437.11l-287.58-90,14.81-48.51,287.58,89.95Zm9.16-30-287.57-90,9.14-29.94,287.57,90Z"/></g></g><g class="cls-4"><g id="movie-2" data-name="movie"><path class="cls-3" d="M449.47,118.45l-49.52.23,49.4-55.38L399.72,8l-69.79.32,50.41,54.91L329.51,119l-59.22.28,50.49-55.38L270.07,8.55l-70.92.34L249.51,63.8,198.7,119.62l-50.26.24L199,64.48,148.22,9.13l-50.35.23,3.24,442.92,401.24-1.88L499.1,7.48l-49.18.23L499.5,62.85Zm2.31,276.23-300.92,1.41-.41-55.37,300.93-1.41ZM451,284.54,150.05,286l-.41-55.36,300.93-1.41Z"/></g></g></svg>