<svg id="ICONS" xmlns="http://www.w3.org/2000/svg" viewBox="0 0 500 500"><defs><style>.cls-1{fill:#fff;}</style></defs><title>Artboard 1 copy 23</title><path class="cls-1" d="M495.92,250.13c1.64,133.24-109.41,255-258,248.68C116.86,493.63-1.83,389.5,4.29,237.35,9.21,114.94,112.11-5,262.31,1.18,386.7,6.32,496.51,111.75,495.92,250.13ZM269.52,351c12.42-3.87,24.24-29.37,36.19-55.16,4.43,3,8.29,5.74,12.24,8.33,18.84,12.32,40.18,17.42,61.85,21.05,22.16,3.7,35,16.4,39,38.57,1.07,5.92,2.21,11.83,3.35,17.87C477,316.22,491.7,191.8,409.76,101.51,324.91,8,180.91,5,92.5,99.31,10.32,187,20.8,312.23,78.06,381.87c1.21-6.69,2.17-12.7,3.4-18.66,4.05-19.73,14.61-32.82,35.07-37.09,15.52-3.24,31.12-6.82,46-12.19,11.3-4.08,21.53-11.2,32.44-17.08,11.63,25.09,23.43,50.54,35.84,54.39Z"/><path class="cls-1" d="M250.74,295.22C230,293.93,215.14,283.08,202.2,269a130.16,130.16,0,0,1-26.71-44.39,7.73,7.73,0,0,0-2.23-3.17c-13.31-11.13-17.12-27.77-12.35-41.63,5.91-17.19,5.15-34.84,9.73-51.78,4.52-16.71,13.14-29.21,28.58-38.49,16.63-10,33.64-15.77,52.63-15.5,17.57.25,33.25,5.93,48.72,15.12,17.29,10.27,26.35,24.59,29.82,43.44,1.77,9.64,2.29,19.52,3.38,29.29.22,1.94-.19,4.44.85,5.71,8.38,10.26,6.72,22.06,3.94,33.2-1.74,7-6.88,13.15-10.33,19.77s-6.59,13.61-10.15,20.27c-10.44,19.57-23.44,37-43.68,47C267.06,291.39,258.66,292.8,250.74,295.22Z"/></svg>