<svg id="ICONS" xmlns="http://www.w3.org/2000/svg" viewBox="0 0 500 500"><defs><style>.cls-1{fill:#fff;}</style></defs><title>Artboard 1 copy 9</title><g id="clients"><path class="cls-1" d="M232,125.05l-1.51,3.81h-7.28v3.63h1.7s.09.8.27,1.86l4.48-.36,2.71-1.68.71-3.45,3.68-.36,1.35-2.84-3.33-.71Zm0,0"/><path class="cls-1" d="M213.24,131.7l-.28,3.63,5.28-.43.55-3.66-3.14-2.38Zm0,0"/><path class="cls-1" d="M476.58,138.35l1.54-1.86c2.13,4.08,4.11,8.15,6,12.32l-2.69-.18-4.84.71ZM436.76,90.72V78.57c4.39,4.52,8.52,9.22,12.47,14.1l-4.94,7.27L427,99.78l-1.08-3.57ZM104.32,60.57v-.52h5.58l.44-1.86h9.07v3.88l-2.62,3.47H104.32Zm8.8,12.15s5.55-1,6-1,0,5.49,0,5.49L106.66,78l-2.34-2.75Zm381,108.11H474l-12.37-9L448.68,173v7.81h-4l-4.41-3.12-22.41-5.58V157.76l-28.36,2.13-8.86,4.7H369.39l-5.56-.52-13.64,7.54v14.1l-28,19.95,2.32,8.52h5.65l-1.43,8.15-4,1.43-.18,21.18,24.13,27.22h10.59l.62-1.68h18.85l5.47-5H395l5.83,5.76,16,1.7-2.07,21,17.75,31L423,342.58l.64,8.33,7.44,7.2v20l9.6,12.88v16.57H449A253.3,253.3,0,0,1,252.87,500C113.48,500,0,387.9,0,250a246,246,0,0,1,20.18-97.83v-7.8l9.08-10.9c3.14-5.86,6.45-11.53,10.12-17.12l.37,4.52-10.49,12.6C26,139.6,23,145.8,20.18,152.17v14.19l10.5,5v19.77l10.15,17L49,209.38l1.08-5.85-9.69-14.71-1.88-14.37h5.65l2.43,14.8,14,20.13L57,216l8.8,13.39,22.06,5.4V231.2l8.87,1.23-.81,6.22,6.92,1.25,10.67,2.9,15.16,17,19.29,1.43,2,15.6L136.63,286,136,299.92l-1.88,8.52,19.1,23.67,1.54,8.06s6.89,1.89,7.71,1.89,15.6,11.08,15.6,11.08v42.75l5.21,1.49-3.58,19.69,8.86,11.62-1.7,19.59,11.76,20.32,14.88,12.94,15.09.27L230,477l-11-9.22.62-4.54,2-5.68.44-5.67-7.44-.16-3.77-4.7,6.2-5.95.81-4.45-6.92-2,.37-4.09,9.85-1.5,15.09-7.19,5-9.13,15.79-20-3.58-15.62,4.82-8.24,14.54.45,9.78-7.72,3.15-30.06L296.55,318l1.88-8.7-9.85-3.11-6.45-10.62-22.35-.18-17.68-6.66-.8-12.41-5.84-10.2-16-.27-9.33-14.28-8.17-4-.35,4.36-15,.89-5.47-7.54-15.52-3.11-12.81,14.64-20.19-3.38L131.23,231l-14.69-2.47,5.81-11.11-1.7-6.28-19.29,12.76-12.19-1.5L84.78,213l2.69-9.67,6.73-12.24,15.43-7.72H139.5l-.09,9,10.68,5L149.26,182l7.72-7.72,15.61-10.1,1.08-7.19,15.52-16,16.49-9-1.42-1.16,11.2-10.46,4.14,1.06,1.88,2.3,4.2-4.61,1.08-.43-4.66-.73-4.75-1.5v-4.52l2.52-2h5.56l2.5,1.16,2.16,4.33,2.69-.43v-.36l.8.27,7.72-1.16,1.17-3.81,4.38,1.16v4.06l-4.11,2.77.62,4.43,14.08,4.24v.19l3.24-.28.18-6-11.14-5-.61-2.92,9.23-3.11.46-8.68-9.69-5.85-.63-14.74-13.2,6.4h-4.82l1.24-11.19-18-4.15-7.44,5.49v17l-13.45,4.18L187.4,109l-5.74.89V95.78L169,94l-6.29-4.09-2.51-9.12,22.51-13.06,11-3.36,1.08,7.36L201,71.4l.46-3.66,6.45-.88.09-1.32-2.68-1.16-.65-3.81,7.9-.7L217.35,55l.27-.37h.09l1.43-1.5,16.6-2,7.35,6.13L223.8,67.4l24.5,5.68L251.45,65h10.74L266,57.91l-7.53-1.86v-9L234.66,36.71l-16.42,1.86L209,43.36,209.63,55l-9.69-1.44-1.42-6.47,9.23-8.24L191,38l-4.85,1.5L184,45l6.36,1.07-1.24,6.22-10.77.61-1.7,4.18-15.52.43s-.46-8.76-1.08-8.76l12.19-.18,9.26-9-5-2.48-6.73,6.47L158.61,43l-6.82-9.24H137.53l-14.91,11h13.64l1.27,4-3.61,3.36,15.18.36,2.23,5.4-17-.61-.81-4.18-10.67-2.31-5.74-3.09-12.75.16A254.53,254.53,0,0,1,419.9,62.43l-3,5.31-11.66,4.54-4.94,5.23,1.17,6.22,6,.79,3.67,9,10.31-4.16,1.7,12.06H420l-8.52-1.25L402,101.64,392.9,114.4l-13,2-2,11.08,5.58,1.25-1.64,7.17-13-2.56L357,135.94l-2.5,6.56,2,13.76,7,3.2,11.76-.09,8-.73,2.41-6.19L398,136.58l8.08,1.59,8.08-7.18,1.52,5.68,19.72,13.12L433,153l-8.88-.43,3.42,4.79,5.46,1.22,6.46-2.65-.19-7.63,2.87-1.41-2.22-2.4-13.21-7.27-3.49-9.67h11l3.49,3.47,9.41,8,.46,9.76L457.29,159l3.6-14.1,6.73-3.63,1.24,11.53L475.5,160l13.2-.27a208.48,208.48,0,0,1,6.8,19.87ZM127.65,101.37l6.64-3.11,6,1.43-2.07,7.87-6.45,2Zm35.16,18.7v5.16H147.65L142,123.62l1.43-3.55,7.28-3h9.87v3Zm6.91,7.2v5L166,134.63l-4.67.88v-8.24Zm-4.22-2v-6l5.21,4.7Zm2.34,12v4.88l-3.58,3.54h-8.09l1.27-5.49,3.85-.27L162,138Zm-20-9.92h8.33l-10.68,14.8-4.38-2.4.89-6.2ZM182,135.51v4.79h-8l-2.23-3.11v-4.52h.62Zm-7.35-6.65,2.25-2.41,3.83,2.41-3,2.47Zm323.55,64.57.8-.89c.35,1.41.62,2.84,1,4.24Zm0,0"/><path class="cls-1" d="M20.18,144.37v7.8C23,145.8,26,139.6,29.26,133.47Zm0,0"/></g></svg>