<svg id="Layer_1" data-name="Layer 1" xmlns="http://www.w3.org/2000/svg" viewBox="0 0 98 98"><defs><style>.cls-1{fill:#fff;}</style></defs><title>Untitled-1</title><path class="cls-1" d="M80.63,6A13.39,13.39,0,0,1,94,19.38V80.63A13.39,13.39,0,0,1,80.63,94H19.38A13.39,13.39,0,0,1,6,80.63V19.38A13.39,13.39,0,0,1,19.38,6H80.63m0-5H19.38A18.38,18.38,0,0,0,1,19.38V80.63A18.38,18.38,0,0,0,19.38,99H80.63A18.38,18.38,0,0,0,99,80.63V19.38A18.38,18.38,0,0,0,80.63,1Z" transform="translate(-1 -1)"/><polygon class="cls-1" points="36.15 46.78 25.15 35.16 25.15 46.78 21.78 46.78 21.78 28.72 24.12 28.72 35.18 40.43 35.18 28.72 38.5 28.72 38.5 46.78 36.15 46.78"/><path class="cls-1" d="M39.4,29.82V47.68H37.15L26.05,35.91V47.68H22.88V29.82h2.24L36.28,41.68V29.82H39.4m.2-.2H36.08V41.18L25.26,29.69l-.05-.07H22.68V47.88h3.57V36.42L37,47.82l.06.06H39.6V29.62Z" transform="translate(-1 -1)"/><polygon class="cls-1" points="40.42 46.78 40.42 28.72 54.95 28.72 54.95 32.08 43.91 32.08 43.91 35.77 50.34 35.77 50.34 39.05 43.91 39.05 43.91 43.24 55.12 43.24 55.12 46.78 40.42 46.78"/><path class="cls-1" d="M55.85,29.82V33h-11v3.89h6.43V40H44.81v4.39H56v3.34H41.52V29.82H55.85m.2-.2H41.32V47.88h14.9V44.14H45v-4h6.43V36.67H45V33.18h11V29.62Z" transform="translate(-1 -1)"/><polygon class="cls-1" points="69.74 46.78 67.05 36.96 64.38 46.78 60.81 46.78 55.38 28.72 59.34 28.72 62.54 40.31 66 28.72 68.37 28.72 71.57 40.29 74.66 28.72 78.44 28.72 73.06 46.78 69.74 46.78"/><path class="cls-1" d="M79.3,29.82,74,47.68H70.81l-2.76-10.1L65.3,47.68H61.89L56.52,29.82h3.74l3.28,11.85,3.54-11.85h2.21l3.28,11.85,3.17-11.85H79.3m.27-.2h-4l0,.15-3,11.14L69.48,29.77l0-.15H66.93l0,.14L63.54,41,60.45,29.77l0-.15H56.25l.08.26L61.7,47.74l0,.14h3.71l0-.15,2.56-9.39,2.57,9.39,0,.15h3.48l0-.14,5.31-17.86.08-.26Z" transform="translate(-1 -1)"/><path class="cls-1" d="M22.66,70.18V49.88H39.29v3.59H26.42V57.9h7.37v3.49H26.42v5H39.48v3.8Z" transform="translate(-1 -1)"/><path class="cls-1" d="M41.44,70.18V49.88H53a3.54,3.54,0,0,1,2.74.93,4.37,4.37,0,0,1,.85,3V58.6a4.28,4.28,0,0,1-.85,3,3.58,3.58,0,0,1-2.74.91h-2.1l7.28,7.69H52.86l-6.42-7.69H45.12v7.69Zm10-16.81H45.12V59h6.32a1.85,1.85,0,0,0,1.34-.38,1.79,1.79,0,0,0,.36-1.26V55a1.8,1.8,0,0,0-.36-1.27A1.85,1.85,0,0,0,51.44,53.37Z" transform="translate(-1 -1)"/><path class="cls-1" d="M57.65,70.18l9-20.3h3.55l9.12,20.3H75.16l-1.91-4.46h-10l-1.9,4.46ZM64.81,62h6.94l-3.53-8.46Z" transform="translate(-1 -1)"/></svg>