
<svg  id="TIMELINE_COM" viewBox="-51 0 10 756.71" x='0' style="width:100%;">
   <defs>
      <style>.cls-1,.cls-2,.cls-6{
      fill:none;}
      .cls-2,.cls-6{
      stroke:#8E8E8E;;stroke-miterlimit:10;}
      .cls-2{
      stroke-width:0.75px;}
      .cls-3{
      fill:#8E8E8E;}
      .cls-4{
      clip-path:url(#clip-path);}
      .cls-5{
      clip-path:url(#clip-path-2);}
      .cls-6{
      stroke-width:2px;
     }

       .text12{
        fill:white;
        font-size:15px;
        font-weight:400;
        transition:opacity 0.5s ease;
        opacity:0;
      }
      
       #TIMELINE_COM rect {
     fill:transparent;
      cursor:pointer;
      }

     
     #timeline_magnifier, #timeline_id,.timeline_movie,#timeline_clients,.timeline_icon5{
         opacity:1;
       transition:opacity 0.5s ease;
      }
      #TIMELINE_com g,timeline_magnifier{
      fill:#8E8E8E;
       
      }
      </style>

 
      <clipPath id="clip-path" transform="translate(-60.02 -103.68)">
         <path class="cls-1" d="M80.93,494.85l-19.79-6.19a1.15,1.15,0,0,1-.74-1.44l5.73-18.79,22.37,7L82.89,493.8A1.57,1.57,0,0,1,80.93,494.85Z" />
      </clipPath>
      <clipPath id="clip-path-2" transform="translate(-60.02 -103.68)">
         <polygon class="cls-1" points="89.66 469.6 66.08 469.71 66.05 466.51 89.63 466.4 89.66 469.6" />
      </clipPath>
   </defs>
    <text x="-98" y="22" class ="text12 1  animated">COME WITH US</text>
    <text x="-68" y="204" class="text12 2 animated">ABOUT US</text>
    <text x="-82" y="384" class="text12 3 animated">SCENARIOS</text>
    <text x="-70" y="562" class="text12 4  animated">NETWORK</text>
    <text x="-121" y="745" class="text12 5 animated">WHAT WE OFFER</text>

   <line class="cls-2" x1="14.98" y1="587.13" x2="14.98" y2="705.88" />
   <line class="cls-2" x1="14.98" y1="405.99" x2="14.98" y2="524.74" />
   <line class="cls-2" x1="14.98" y1="227.04" x2="14.98" y2="345.79" />
   <line class="cls-2" x1="14.98" y1="46.38" x2="14.98" y2="165.13" />
   <path class="cls-3 timeline_icon5" d="M67.94,831.3a3,3,0,1,1-3-3,3,3,0,0,1,3,3Zm-3,12.37a3,3,0,1,0,3,3,3,3,0,0,0-3-3Zm7.58-13.32H87.23a.9.9,0,1,0,0-1.79H72.48a.9.9,0,1,0,0,1.79Zm0,4.39h9.57a.9.9,0,1,0,0-1.79H72.48a.9.9,0,1,0,0,1.79Zm14.75,9.47H72.48a.9.9,0,1,0,0,1.79H87.23a.9.9,0,1,0,0-1.79Zm-5.18,4.39H72.48a.9.9,0,1,0,0,1.79h9.57a.9.9,0,1,0,0-1.79Zm0,0" transform="translate(-60.02 -103.68)" />
   <g id="timeline_clients">
      <path class="cls-3 timeline_icon4" d="M74.05,652.06l-.08.2h-.38v.2h.09l0,.1.23,0,.14-.09,0-.19.19,0,.07-.15-.17,0Zm0,0" transform="translate(-60.02 -103.68)" />
      <path class="cls-3 timeline_icon4" d="M73.07,652.41l0,.2.28,0,0-.19-.16-.13Zm0,0" transform="translate(-60.02 -103.68)" />
      <path class="cls-3 timeline_icon4" d="M86.9,652.77l.08-.1c.11.22.22.44.32.66h-.15l-.25,0Zm-2.09-2.55v-.65a7.89,7.89,0,0,1,.65.76l-.26.38h-.91l-.05-.19Zm-17.46-1.61v0h.29l0-.1h.47v.21l-.14.18h-.65Zm.46.65.32,0a1.41,1.41,0,0,1,0,.29l-.66,0-.12-.15Zm20,5.78H86.76l-.65-.48-.68.06V655h-.21l-.23-.17-1.18-.29v-.77l-1.48.11-.47.25h-.59l-.29,0-.72.41v.75l-1.47,1.07.12.45h.3l-.07.44-.22.08v1.13l1.27,1.45h.56l0-.08h1l.29-.27h.56l.31.31.84.09-.11,1.12.93,1.66-.49.94,0,.45.39.38v1.07l.51.69v.89h.43a13.21,13.21,0,0,1-10.3,4.94,13.38,13.38,0,0,1-12.22-18.6v-.42l.48-.58a10.45,10.45,0,0,1,.53-.92l0,.24-.55.68c-.17.33-.33.66-.48,1v.76l.55.26v1.06l.53.91.43.07.06-.32-.51-.78-.1-.77h.3l.13.79.73,1.08-.19.35.46.72,1.16.28v-.19l.47.07,0,.33.36.07.56.16.8.91,1,.07.1.84-.69.49,0,.74-.1.46,1,1.26.08.43.4.1s.82.6.82.6v2.28l.28.08-.19,1,.46.63-.09,1,.62,1.09.78.69.79,0,.08-.26-.58-.49,0-.24.11-.31,0-.3h-.39l-.2-.25.33-.32,0-.24-.36-.11,0-.21.51-.08.8-.39.26-.49.83-1.06-.19-.84.25-.44.77,0,.51-.41.17-1.61.56-.72.1-.47-.51-.16-.34-.57H75.51l-.92-.36,0-.66-.3-.55H73.4l-.49-.77-.43-.21,0,.23-.79,0-.28-.4-.82-.17-.67.79-1.06-.19-.08-1.2-.77-.13.31-.59-.09-.34-1,.68-.64-.08-.23-.5.14-.52.36-.65.81-.41H69.2v.48l.56.26,0-.82.4-.41.82-.54.06-.39.82-.85.86-.48-.07-.06.59-.56.21.05.1.13.22-.25.06,0-.25,0-.24-.08v-.24l.13-.11h.29l.13.06.11.23.15,0v0h0l.4-.06.06-.2.23.06v.22l-.21.14,0,.24.74.23h0l.17,0v-.32l-.58-.27,0-.15.49-.17,0-.46-.51-.32,0-.78-.69.34H74l.07-.6-1-.22-.39.29v.91l-.71.23-.28.59-.3,0v-.76l-.66-.09-.33-.22-.14-.49,1.19-.7.58-.18,0,.4.33,0,0-.2.34,0v-.08l-.15-.06,0-.2.42,0,.25-.26v0h0l.08-.08.87-.11.39.33-1,.54,1.29.31.17-.43h.56l.2-.38-.4-.1v-.48l-1.25-.56-.86.1-.48.26,0,.62-.51-.08-.07-.34.48-.44-.88-.05-.25.08-.12.3.34.06-.07.33-.56,0-.09.22-.82,0s0-.47-.06-.47h.65l.48-.48-.26-.13-.36.34-.58,0-.36-.49h-.75l-.78.59H69l.06.21-.19.18.8,0,.12.29-.9,0,0-.22-.56-.12-.3-.17h-.67a13.17,13.17,0,0,1,16.57.78l-.16.28-.61.25-.26.27.06.34.32,0,.19.48.54-.22.09.64h-.16l-.45-.07-.5.09-.48.68-.68.11-.1.59.29.07-.09.38-.68-.14-.62.14-.13.35.1.74.37.17h.62l.42,0,.12-.33.65-.85.43.09.42-.38.08.3,1,.7-.13.17-.47,0,.18.25.29.07.34-.14v-.41l.15-.08L85,653.1l-.69-.39-.18-.52h.57l.19.19.49.42,0,.52.52.55.19-.75.35-.19.06.61.35.39.7,0c.13.35.25.7.35,1.06Zm-19.25-4.25.35-.17.32.08-.11.42-.34.11Zm1.85,1v.28h-.8l-.29-.09.07-.19.39-.16h.51v.16Zm.36.39v.26l-.19.13-.25,0v-.44Zm-.22-.11v-.32l.28.25Zm.13.64V653l-.19.19h-.43l.07-.3h.2l0-.1Zm-1.06-.53h.44l-.56.79-.23-.13,0-.33Zm1.8.44v.25H71l-.12-.16v-.24h0Zm-.39-.36.12-.13.2.13-.16.13Zm17,3.45,0,0c0,.07,0,.15,0,.22Zm0,0" transform="translate(-60.02 -103.68)" />
      <path class="cls-3 timeline_icon4" d="M62.93,653.09v.42c.15-.34.31-.67.48-1Zm0,0" transform="translate(-60.02 -103.68)" />
       
   </g>
   <g class="cls-4">
      <g class="timeline_movie">
         <path class="cls-3 timeline_icon3" d="M84.88,477.42l-2.77-.87,3.66-2-1.89-3.72L80,469.65l1.94,3.71-3.75,2-3.31-1,3.71-1.94-1.94-3.74-4-1.24,1.94,3.71-3.74,2L68,472.14l3.72-1.94-1.95-3.73L67,465.58,60,488.34l22.48,7,7-22.75-2.76-.87,1.89,3.71Zm-4.31,14.19-16.86-5.27.87-2.84,16.86,5.27Zm.54-1.76-16.86-5.27.85-2.75L82,487.1Z" transform="translate(-60.02 -103.68)" />
        
      </g>
       
   </g>
   <g class="cls-5">
      <g  class="timeline_movie" id="movie-2" data-name="movie">
         <path class="cls-3" d="M86.69,472.93l-2.9,0,2.9-3.25-2.91-3.24H79.69l3,3.22-3,3.28H76.19l3-3.24-3-3.25-4.16,0,3,3.22L72,473l-2.94,0,3-3.25-3-3.25-3,0,.19,26,23.52-.11-.19-26H86.72l2.91,3.23Zm.14,16.2-17.64.08,0-3.25,17.64-.08Zm0-6.46-17.64.08,0-3.24,17.64-.09Z" transform="translate(-60.02 -103.68)" />
      </g>
   </g>
   <g id="timeline_magnifier">
      <path class="cls-3 timeline_icon2" d="M87.18,313.22a1.11,1.11,0,0,1-.71-.26l-4.39-3.71a.77.77,0,0,1-.29-.53,1,1,0,0,1,.32-.69l.09-.09.45-.55a.89.89,0,0,1,.69-.43.78.78,0,0,1,.5.2l4.4,3.71a1.08,1.08,0,0,1,.14,1.53l-.38.44A1.07,1.07,0,0,1,87.18,313.22Z" transform="translate(-60.02 -103.68)" />
      <path class="cls-3 timeline_icon2" d="M83.34,307.46a.28.28,0,0,1,.18.08l4.39,3.71a.58.58,0,0,1,.09.82l-.38.45a.57.57,0,0,1-.82.05l-4.4-3.7c-.25-.22,0-.37.18-.61l.37-.44c.15-.18.25-.36.39-.36m0-1h0a1.32,1.32,0,0,0-1.08.63l-.07.08-.38.44-.07.09a1.4,1.4,0,0,0-.45,1.05,1.26,1.26,0,0,0,.46.88l4.4,3.71a1.64,1.64,0,0,0,1,.38,1.56,1.56,0,0,0,1.21-.56l.37-.44a1.55,1.55,0,0,0,.36-1.17,1.61,1.61,0,0,0-.56-1.07l-4.4-3.7a1.21,1.21,0,0,0-.82-.32Z" transform="translate(-60.02 -103.68)" />
      <path class="cls-6 " d="M64.78,291.74a11.43,11.43,0,1,0,16.13-.9A11.43,11.43,0,0,0,64.78,291.74Z" transform="translate(-60.02 -103.68)" />
   </g>
   
   <g id="timeline_id">
      <path class="cls-3 timeline_icon1" d="M85.67,103.68H64.33a2.46,2.46,0,0,0-2.46,2.46v21.34a2.46,2.46,0,0,0,2.46,2.46H85.67a2.46,2.46,0,0,0,2.46-2.46V106.14A2.46,2.46,0,0,0,85.67,103.68ZM66.74,115.91c0-1.08,1.33-2,2.93-2h2A2.94,2.94,0,1,1,74.57,111,2.93,2.93,0,0,1,71.63,114h2c1.62,0,2.93.88,2.93,2v2H66.74Zm17,10.44h-17v-2.23h17Zm0-4.26h-17v-2.23h17Z" transform="translate(-60.02 -103.68)" />
   </g>
 <a class=" js-scroll-trigger" href="#sect1">
    <rect class="rect1" width="30" height="30" style="" />
    </a>
    <a class=" js-scroll-trigger" href="#sect2">
    <rect class="rect2" y='182' width="35" height="35" style="" />
    </a>
    <a class=" js-scroll-trigger" href="#scenarios">
    <rect class="rect3" y='362' width="30" height="30" style="" />
    </a>
    <a class=" js-scroll-trigger" href="#map-section">
    <rect class="rect4" y='541' width="30" height="30" style="" />
    </a>
    <a class=" js-scroll-trigger" href="#whatwedo">
    <rect class="rect5" y='722' width="30" height="30" style="" />
    </a>
</svg>