<svg id="GAMEOVER_MAP" xmlns="http://www.w3.org/2000/svg" viewBox="0 0 153.51598 246.32123"><defs><style>.cls-1{fill:#da1a35;}</style></defs><g id="SWEDEN"><polygon class="cls-1" points="3.856 188.598 1.998 188.836 1.602 190.813 3.047 190.901 3.856 188.598"/><polygon class="cls-1" points="88.381 174.012 88.804 170.576 91.79 168.45 92.099 166.181 88.763 165.819 85.656 169.469 87.37 172.98 88.381 174.012"/><polygon class="cls-1" points="152.137 57.914 150.277 52.514 147.063 57.67 146.087 53.483 147.218 51.567 147.809 46.122 147.431 43.939 147.7 48.046 147.333 42.937 146.011 40.491 145.969 36.597 147.509 34.665 147.005 31.333 143.337 30.677 143.341 27.863 144.946 24.813 144.629 20.678 145.249 24.623 144.153 22.468 142.266 22.05 140.203 18.457 139.165 18.654 137.971 18.324 137.251 15.592 134.179 18.524 132.318 17.808 130.333 16.265 124.938 15.275 121.613 12.16 117.282 5.873 113.858 3.667 111.873 0.688 110.775 1.086 107.578 1.351 104.469 0 104.361 2.836 106.45 4.29 106.833 7.29 104.488 8.255 103.608 12.548 104.881 14.929 104.508 18.359 103.293 17.411 101.818 17.765 100.166 16.052 96.98 15.402 94.354 13.181 89.854 11.466 86.66 12.747 82.64 12.211 81.127 12.963 82.963 16.738 82.093 18.165 81.928 19.684 80.146 21.022 81.54 24.131 79.218 25.811 77.374 25.925 76.224 24.263 73.252 22.513 70.09 24.416 68.161 22.478 66.13 23.276 64.952 26.612 62.988 28.751 61.079 29.463 61.168 29.567 62.588 31.563 64.336 29.513 62.665 32.588 58.149 37.609 54.274 37.596 53.768 40.399 51.347 42.075 46.493 42.567 41.775 44.709 41.363 47.525 43.165 49.76 42.827 53.801 41.03 57.173 38.927 63.372 38 70.004 32.003 81.085 32.122 78.149 33.207 80.4 33.724 79.34 30.944 82.404 26.24 81.583 22.6 80.378 19.371 81.865 15.65 87.068 15.333 80.511 15.877 87.814 15.884 95.258 14.894 93.115 15.984 97.111 16.085 102.828 14.615 107.875 14.245 113.137 18.062 115.59 22.325 121.464 20.665 124.44 20.079 128.972 13.5 130.397 13.037 132.697 15.108 138.119 16.113 138.228 17.821 141.275 15.335 145.391 15.222 148.339 13.784 150.319 9.399 150.251 8.325 151.772 9.426 154.75 7.394 155.548 6.028 157.844 7.737 161.803 7.398 170.541 5.578 173.201 4.278 170.202 2.689 168.834 2.427 169.107 0.126 170.137 0 176.209 0.939 177.964 0.707 182.528 2.595 183.803 3.224 184.938 2.47 187.843 5.682 186.858 3.996 184.648 4.598 182.521 5.918 182.721 5.136 184.029 7.307 185.648 7.891 187.207 4.842 189.226 4.118 191.388 4.733 193.637 4.035 196.658 2.614 197.847 3.955 200.288 6.211 201.12 7.207 204.885 8.363 206.084 10.337 211.543 10.228 215.497 12.96 216.963 13.411 219.694 15.771 222.626 18.919 221.255 19.395 224.736 16.973 228.325 13.429 228.37 12.747 229.792 14.531 231.165 14.67 233.753 17.437 234.91 18.002 241.606 16.132 243.975 17.465 245.513 20.218 245.812 27.519 244.678 30.866 246.321 33.889 244.087 33.92 241.831 32.482 240.289 34.885 235.948 39.284 235.882 40.715 231.542 41.24 233.642 46.221 235.036 49.468 233.669 51.891 235.112 53.172 237.177 56.637 233.807 58.19 228.401 60.662 226.32 61.942 219.498 63.448 217.422 61.247 215.034 61.873 212.213 64.493 209.818 62.577 206.725 65.248 204.769 62.392 202.523 64.033 200.238 62.627 197.41 65.57 198.909 68.907 198.628 66.248 195.557 68.074 192.549 68.055 190.818 64.085 188.898 69.292 189.25 66.849 186.098 64.553 185.516 66.359 183.786 67.829 183.946 68.187 184.631 69.936 183.322 70.025 181.512 72.149 183.562 72.782 180.738 74.916 178.827 76.849 178.821 76.622 176.98 77.836 175.619 78.647 176.99 77.85 179.475 79.421 179.746 82.266 176.31 84.164 176.516 86.24 175.135 86.21 172.456 84.679 170.79 81.39 169.47 78.816 170.577 77.509 169.792 75.145 170.818 73.616 168.199 70.704 167.344 69.032 165.986 65.312 165.689 64.853 167.028 63.879 166.066 59.7 165.192 59.705 164.117 61.811 163.489 64.005 164.904 66.308 162.474 67.347 163.77 69.536 163.361 70.68 161.673 73.059 162.461 74.088 163.856 75.792 163.934 76.075 162.258 77.302 163.781 80.357 165.286 79.845 167.053 82.027 168.573 85.943 168.041 87.203 165.279 91.107 161.854 93.371 157.815 90.899 154.871 91.128 152.756 87.282 149.87 88.186 148.365 82.937 150.358 82.569 147.859 80.825 146.066 78.079 148.761 76.867 146.063 75.404 146.761 75.691 144.119 73.833 143.485 72.681 141.217 71.283 139.352 73.451 137.128 72.296 133.901 73.66 133.293 73.844 131.6 71.809 130.522 74.223 128.112 73.821 123.896 74.552 123.116 76.172 124.891 76.787 122.179 74.919 119.73 76.099 115.683 75.924 112.442 76.77 111.474 76.763 107.95 73.986 103.533 76.114 104.567 80.256 104.323 82.892 101.197 82.014 98.651 82.919 97.253 85.286 98.153 89.443 95.292 89.833 93.722 87.981 93.094 89.072 90.853 91.188 89.154 92.192 90.769 93.493 90.584 94.558 87.7 95.718 87.826 96.689 89.751 98.776 88.268 99.12 85.096 100.701 82.379 102.816 82.609 102.908 84.648 104.595 84.941 106.288 82.229 109.881 80.69 108.407 84.389 109.099 81.998 110.374 84.066 113.526 81.622 115.306 81.929 118.571 77.568 117.947 79.326 120.228 77.102 122.031 77.194 124.474 80.352 122.465 80.133 121.125 77.735 122.881 77.283 122.226 75.396 120.058 74.737 117.535 72.317 120.989 72.052 120.575 69.975 122.106 71.64 123.123 70.141 121.962 68.293 120.281 68.057 118.593 72.275 119.595 71.368 121.196 72.401 121.67 73.409 122.771 73.202 123.097 71.594 120.644 70.149 122.879 69.209 125.236 69.633 127.784 67.771 126.074 66.305 124.705 62.737 126.489 63.574 127.582 65.246 129.692 64.992 130.888 62.879 131.483 60.233 133.09 59.234 134.444 62.49 136.963 59.971 137.777 62.419 140.005 63.62 141.411 61.417 143.505 62.931 147.003 61.171 148.39 63.245 151.009 63.745 152.951 62.67 153.049 62.809 153.516 59.776 152.137 57.914"/><polygon class="cls-1" points="84.963 218.679 86.123 218.4 85.207 220.654 83.375 222.503 83.502 223.756 86.825 223.194 87.665 221.589 86.781 220.771 87.475 219.111 90.975 216.929 91.582 215.15 93.861 212.944 93.701 211.644 91.915 209.662 93.288 207.408 93.756 205.874 95.038 204.932 93.525 203.901 91.962 204.598 88.985 204.221 86.855 206.393 85.276 208.74 83.196 210.504 83.712 213.787 82.625 214.328 84.963 218.679"/><polygon class="cls-1" points="63.553 222.399 61.728 229.853 61.847 232.516 61.639 234.432 62.439 235.441 63.713 233.126 65.708 228.851 66.72 224.271 68.641 219.686 69.592 215.608 68.255 213.832 66.264 216.269 66.537 217.516 65.182 221.557 63.553 222.399"/><polygon class="cls-1" points="95.485 203.189 96.296 204.61 97.975 203.308 100.52 202.87 100.017 201.837 97.134 201.63 95.485 203.189"/><polygon class="cls-1" points="95.83 190.123 96.737 192.574 98.404 190.917 97.067 189.539 95.83 190.123"/></g></svg>